%TF.GenerationSoftware,KiCad,Pcbnew,7.0.1-0*%
%TF.CreationDate,2023-06-08T23:36:29+08:00*%
%TF.ProjectId,FT817-BT-JDY67,46543831-372d-4425-942d-4a445936372e,20230608*%
%TF.SameCoordinates,Original*%
%TF.FileFunction,Soldermask,Top*%
%TF.FilePolarity,Negative*%
%FSLAX46Y46*%
G04 Gerber Fmt 4.6, Leading zero omitted, Abs format (unit mm)*
G04 Created by KiCad (PCBNEW 7.0.1-0) date 2023-06-08 23:36:29*
%MOMM*%
%LPD*%
G01*
G04 APERTURE LIST*
G04 Aperture macros list*
%AMRoundRect*
0 Rectangle with rounded corners*
0 $1 Rounding radius*
0 $2 $3 $4 $5 $6 $7 $8 $9 X,Y pos of 4 corners*
0 Add a 4 corners polygon primitive as box body*
4,1,4,$2,$3,$4,$5,$6,$7,$8,$9,$2,$3,0*
0 Add four circle primitives for the rounded corners*
1,1,$1+$1,$2,$3*
1,1,$1+$1,$4,$5*
1,1,$1+$1,$6,$7*
1,1,$1+$1,$8,$9*
0 Add four rect primitives between the rounded corners*
20,1,$1+$1,$2,$3,$4,$5,0*
20,1,$1+$1,$4,$5,$6,$7,0*
20,1,$1+$1,$6,$7,$8,$9,0*
20,1,$1+$1,$8,$9,$2,$3,0*%
G04 Aperture macros list end*
%ADD10R,2.000000X1.500000*%
%ADD11R,2.000000X3.800000*%
%ADD12RoundRect,0.250000X-0.450000X0.262500X-0.450000X-0.262500X0.450000X-0.262500X0.450000X0.262500X0*%
%ADD13RoundRect,0.250000X0.450000X-0.262500X0.450000X0.262500X-0.450000X0.262500X-0.450000X-0.262500X0*%
%ADD14RoundRect,0.250000X-0.262500X-0.450000X0.262500X-0.450000X0.262500X0.450000X-0.262500X0.450000X0*%
%ADD15RoundRect,0.150000X0.150000X-0.512500X0.150000X0.512500X-0.150000X0.512500X-0.150000X-0.512500X0*%
%ADD16RoundRect,0.250000X-0.350000X0.275000X-0.350000X-0.275000X0.350000X-0.275000X0.350000X0.275000X0*%
%ADD17RoundRect,0.250000X0.275000X0.350000X-0.275000X0.350000X-0.275000X-0.350000X0.275000X-0.350000X0*%
%ADD18C,3.100000*%
%ADD19RoundRect,0.243750X-0.456250X0.243750X-0.456250X-0.243750X0.456250X-0.243750X0.456250X0.243750X0*%
%ADD20RoundRect,0.250000X-0.475000X0.250000X-0.475000X-0.250000X0.475000X-0.250000X0.475000X0.250000X0*%
%ADD21RoundRect,0.250000X0.250000X0.475000X-0.250000X0.475000X-0.250000X-0.475000X0.250000X-0.475000X0*%
%ADD22RoundRect,0.250000X-0.250000X-0.475000X0.250000X-0.475000X0.250000X0.475000X-0.250000X0.475000X0*%
%ADD23RoundRect,0.250000X-0.425000X0.450000X-0.425000X-0.450000X0.425000X-0.450000X0.425000X0.450000X0*%
%ADD24RoundRect,0.250000X-0.450000X-0.425000X0.450000X-0.425000X0.450000X0.425000X-0.450000X0.425000X0*%
%ADD25R,1.600000X1.300000*%
%ADD26O,1.600000X1.300000*%
%ADD27O,4.000000X1.800000*%
%ADD28RoundRect,0.250000X0.250000X-0.500000X0.250000X0.500000X-0.250000X0.500000X-0.250000X-0.500000X0*%
%ADD29C,10.000000*%
%ADD30RoundRect,0.508000X-4.572000X-4.572000X4.572000X-4.572000X4.572000X4.572000X-4.572000X4.572000X0*%
G04 APERTURE END LIST*
D10*
%TO.C,U2*%
X169520000Y-93105000D03*
D11*
X163220000Y-90805000D03*
D10*
X169520000Y-90805000D03*
X169520000Y-88505000D03*
%TD*%
D12*
%TO.C,R12*%
X168910000Y-71835000D03*
X168910000Y-73660000D03*
%TD*%
D13*
%TO.C,R11*%
X170815000Y-73660000D03*
X170815000Y-71835000D03*
%TD*%
%TO.C,R10*%
X177165000Y-75922500D03*
X177165000Y-77747500D03*
%TD*%
%TO.C,R9*%
X135255000Y-76835000D03*
X135255000Y-75010000D03*
%TD*%
%TO.C,R8*%
X150495000Y-82550000D03*
X150495000Y-80725000D03*
%TD*%
D12*
%TO.C,R7*%
X123825000Y-76835000D03*
X123825000Y-78660000D03*
%TD*%
D14*
%TO.C,R6*%
X169625000Y-82550000D03*
X171450000Y-82550000D03*
%TD*%
D13*
%TO.C,R5*%
X147955000Y-82550000D03*
X147955000Y-80725000D03*
%TD*%
D14*
%TO.C,R4*%
X147955000Y-87630000D03*
X149780000Y-87630000D03*
%TD*%
%TO.C,R3*%
X148035000Y-85090000D03*
X149860000Y-85090000D03*
%TD*%
D12*
%TO.C,R2*%
X128905000Y-76835000D03*
X128905000Y-78660000D03*
%TD*%
%TO.C,R1*%
X126365000Y-76835000D03*
X126365000Y-78660000D03*
%TD*%
D15*
%TO.C,Q2*%
X173355000Y-78105000D03*
X175255000Y-78105000D03*
X174305000Y-75830000D03*
%TD*%
%TO.C,Q1*%
X169550000Y-78105000D03*
X171450000Y-78105000D03*
X170500000Y-75830000D03*
%TD*%
D16*
%TO.C,L3*%
X173355000Y-80130000D03*
X173355000Y-82430000D03*
%TD*%
D17*
%TO.C,L2*%
X154700000Y-87630000D03*
X152400000Y-87630000D03*
%TD*%
%TO.C,L1*%
X154700000Y-85090000D03*
X152400000Y-85090000D03*
%TD*%
D18*
%TO.C,H2*%
X152400000Y-93980000D03*
%TD*%
%TO.C,H1*%
X134620000Y-66040000D03*
%TD*%
D19*
%TO.C,D2*%
X128905000Y-71785000D03*
X128905000Y-73660000D03*
%TD*%
%TO.C,D1*%
X126365000Y-71785000D03*
X126365000Y-73660000D03*
%TD*%
D20*
%TO.C,C8*%
X166370000Y-74615000D03*
X166370000Y-76515000D03*
%TD*%
D21*
%TO.C,C7*%
X171450000Y-80010000D03*
X169550000Y-80010000D03*
%TD*%
D20*
%TO.C,C6*%
X144780000Y-91622000D03*
X144780000Y-93522000D03*
%TD*%
D21*
%TO.C,C5*%
X139060000Y-78740000D03*
X137160000Y-78740000D03*
%TD*%
D22*
%TO.C,C4*%
X131445000Y-78740000D03*
X133345000Y-78740000D03*
%TD*%
D20*
%TO.C,C3*%
X153035000Y-80650000D03*
X153035000Y-82550000D03*
%TD*%
D23*
%TO.C,C2*%
X159385000Y-90170000D03*
X159385000Y-92870000D03*
%TD*%
D24*
%TO.C,C1*%
X169385000Y-85090000D03*
X172085000Y-85090000D03*
%TD*%
D25*
%TO.C,J1010*%
X162925000Y-71615000D03*
D26*
X160925000Y-71615000D03*
X164425000Y-69615000D03*
X159425000Y-69615000D03*
X163925000Y-67615000D03*
X159925000Y-67615000D03*
D27*
X161925000Y-64815000D03*
%TD*%
D25*
%TO.C,J1009*%
X178800000Y-71615000D03*
D26*
X176800000Y-71615000D03*
X180300000Y-69615000D03*
X178300000Y-69615000D03*
X175300000Y-69615000D03*
X179800000Y-67615000D03*
X177800000Y-67615000D03*
X175800000Y-67615000D03*
D27*
X177800000Y-64815000D03*
%TD*%
D28*
%TO.C,U1*%
X123502000Y-93699000D03*
X125001000Y-93699000D03*
X126500000Y-93699000D03*
X127999000Y-93699000D03*
X129498000Y-93699000D03*
X135494000Y-93699000D03*
X136993000Y-93699000D03*
X139991000Y-93699000D03*
X141490000Y-93699000D03*
X139065000Y-80822000D03*
X136525000Y-80822000D03*
X133985000Y-80822000D03*
X131445000Y-80822000D03*
X129498000Y-80799000D03*
X127999000Y-80799000D03*
X126500000Y-80799000D03*
X125001000Y-80799000D03*
X123502000Y-80799000D03*
%TD*%
D29*
%TO.C,H3*%
X97155000Y-88900000D03*
D30*
X97155000Y-88900000D03*
%TD*%
M02*
