M48
; DRILL file {KiCad 7.0.1-0} date 2023 June 08, Thursday 23:36:25
; FORMAT={-:-/ absolute / inch / decimal}
; #@! TF.CreationDate,2023-06-08T23:36:25+08:00
; #@! TF.GenerationSoftware,Kicad,Pcbnew,7.0.1-0
; #@! TF.FileFunction,Plated,1,2,PTH
FMAT,2
INCH
; #@! TA.AperFunction,Plated,PTH,ViaDrill
T1C0.0157
; #@! TA.AperFunction,Plated,PTH,ComponentDrill
T2C0.0315
; #@! TA.AperFunction,Plated,PTH,ComponentDrill
T3C0.0354
; #@! TA.AperFunction,Plated,PTH,ComponentDrill
T4C0.1063
; #@! TA.AperFunction,Plated,PTH,ComponentDrill
T5C0.3543
%
G90
G05
T1
X4.85Y-3.75
X4.8623Y-3.632
X4.875Y-2.525
X4.875Y-2.675
X4.875Y-2.825
X4.875Y-3.25
X4.875Y-3.375
X4.875Y-3.5
X4.925Y-3.55
X4.925Y-3.632
X4.975Y-3.25
X4.975Y-3.4
X5.0Y-2.525
X5.0Y-3.75
X5.025Y-3.45
X5.025Y-3.575
X5.05Y-3.325
X5.1Y-3.5
X5.125Y-2.525
X5.125Y-3.4
X5.15Y-3.025
X5.175Y-2.825
X5.2Y-3.3
X5.2Y-3.5
X5.225Y-3.2
X5.25Y-3.75
X5.275Y-3.4
X5.325Y-3.2
X5.325Y-3.3
X5.35Y-3.5
X5.4Y-3.4
X5.425Y-3.2
X5.45Y-2.55
X5.45Y-2.675
X5.45Y-2.825
X5.45Y-3.3
X5.45Y-3.75
X5.475Y-3.5
X5.5Y-3.6
X5.525Y-2.95
X5.525Y-3.1
X5.525Y-3.2
X5.525Y-3.4
X5.575Y-3.3
X5.575Y-3.5
X5.625Y-3.025
X5.7Y-3.3
X5.7Y-3.4
X5.7Y-3.5
X5.7Y-3.757
X5.775Y-3.35
X5.775Y-3.4
X5.775Y-3.45
X5.8Y-3.05
X5.85Y-3.5225
X5.85Y-3.6
X5.95Y-3.3
X5.95Y-3.4
X5.95Y-3.5
X5.975Y-3.025
X6.075Y-2.95
X6.075Y-3.5
X6.1Y-3.15
X6.15Y-2.55
X6.15Y-2.675
X6.15Y-2.825
X6.15Y-3.35
X6.15Y-3.45
X6.15Y-3.6
X6.175Y-3.5
X6.225Y-3.175
X6.25Y-3.025
X6.275Y-3.275
X6.275Y-3.725
X6.325Y-3.075
X6.35Y-3.35
X6.375Y-2.725
X6.375Y-3.175
X6.425Y-2.975
X6.45Y-3.25
X6.475Y-3.075
X6.525Y-2.875
X6.55Y-3.15
X6.6Y-3.075
X6.625Y-2.55
X6.65Y-2.775
X6.75Y-2.55
X6.825Y-3.5
X6.9Y-3.125
X6.9Y-3.35
X6.975Y-3.175
X7.1Y-2.95
X7.175Y-2.625
X7.175Y-2.825
X7.2Y-2.725
T4
X5.3Y-2.6
X6.0Y-3.7
T5
X3.825Y-3.5
T2
G00X6.3278Y-2.5518
M15
G01X6.4222Y-2.5518
M16
G05
G00X6.9528Y-2.5518
M15
G01X7.0472Y-2.5518
M16
G05
T3
G00X6.2707Y-2.7407
M15
G01X6.2825Y-2.7407
M16
G05
G00X6.2904Y-2.662
M15
G01X6.3022Y-2.662
M16
G05
G00X6.3297Y-2.8195
M15
G01X6.3415Y-2.8195
M16
G05
G00X6.4085Y-2.8195
M15
G01X6.4203Y-2.8195
M16
G05
G00X6.4478Y-2.662
M15
G01X6.4596Y-2.662
M16
G05
G00X6.4675Y-2.7407
M15
G01X6.4793Y-2.7407
M16
G05
G00X6.8957Y-2.7407
M15
G01X6.9075Y-2.7407
M16
G05
G00X6.9154Y-2.662
M15
G01X6.9272Y-2.662
M16
G05
G00X6.9547Y-2.8195
M15
G01X6.9665Y-2.8195
M16
G05
G00X6.9941Y-2.662
M15
G01X7.0059Y-2.662
M16
G05
G00X7.0138Y-2.7407
M15
G01X7.0256Y-2.7407
M16
G05
G00X7.0335Y-2.8195
M15
G01X7.0453Y-2.8195
M16
G05
G00X7.0728Y-2.662
M15
G01X7.0846Y-2.662
M16
G05
G00X7.0925Y-2.7407
M15
G01X7.1043Y-2.7407
M16
G05
T0
M30
