%TF.GenerationSoftware,KiCad,Pcbnew,7.0.1-0*%
%TF.CreationDate,2023-05-18T00:20:13+08:00*%
%TF.ProjectId,FT817-BT-JDY67,46543831-372d-4425-942d-4a445936372e,20230517*%
%TF.SameCoordinates,Original*%
%TF.FileFunction,Paste,Top*%
%TF.FilePolarity,Positive*%
%FSLAX46Y46*%
G04 Gerber Fmt 4.6, Leading zero omitted, Abs format (unit mm)*
G04 Created by KiCad (PCBNEW 7.0.1-0) date 2023-05-18 00:20:13*
%MOMM*%
%LPD*%
G01*
G04 APERTURE LIST*
G04 Aperture macros list*
%AMRoundRect*
0 Rectangle with rounded corners*
0 $1 Rounding radius*
0 $2 $3 $4 $5 $6 $7 $8 $9 X,Y pos of 4 corners*
0 Add a 4 corners polygon primitive as box body*
4,1,4,$2,$3,$4,$5,$6,$7,$8,$9,$2,$3,0*
0 Add four circle primitives for the rounded corners*
1,1,$1+$1,$2,$3*
1,1,$1+$1,$4,$5*
1,1,$1+$1,$6,$7*
1,1,$1+$1,$8,$9*
0 Add four rect primitives between the rounded corners*
20,1,$1+$1,$2,$3,$4,$5,0*
20,1,$1+$1,$4,$5,$6,$7,0*
20,1,$1+$1,$6,$7,$8,$9,0*
20,1,$1+$1,$8,$9,$2,$3,0*%
G04 Aperture macros list end*
%ADD10RoundRect,0.250000X-0.450000X-0.425000X0.450000X-0.425000X0.450000X0.425000X-0.450000X0.425000X0*%
%ADD11RoundRect,0.250000X-0.262500X-0.450000X0.262500X-0.450000X0.262500X0.450000X-0.262500X0.450000X0*%
%ADD12RoundRect,0.250000X-0.425000X0.450000X-0.425000X-0.450000X0.425000X-0.450000X0.425000X0.450000X0*%
%ADD13RoundRect,0.250000X-0.450000X0.262500X-0.450000X-0.262500X0.450000X-0.262500X0.450000X0.262500X0*%
%ADD14RoundRect,0.250000X-0.475000X0.250000X-0.475000X-0.250000X0.475000X-0.250000X0.475000X0.250000X0*%
%ADD15RoundRect,0.250000X-0.250000X-0.475000X0.250000X-0.475000X0.250000X0.475000X-0.250000X0.475000X0*%
%ADD16RoundRect,0.243750X-0.456250X0.243750X-0.456250X-0.243750X0.456250X-0.243750X0.456250X0.243750X0*%
%ADD17RoundRect,0.250000X0.250000X0.475000X-0.250000X0.475000X-0.250000X-0.475000X0.250000X-0.475000X0*%
%ADD18RoundRect,0.250000X0.450000X-0.262500X0.450000X0.262500X-0.450000X0.262500X-0.450000X-0.262500X0*%
%ADD19RoundRect,0.250000X0.250000X-0.500000X0.250000X0.500000X-0.250000X0.500000X-0.250000X-0.500000X0*%
%ADD20R,2.000000X1.500000*%
%ADD21R,2.000000X3.800000*%
G04 APERTURE END LIST*
D10*
%TO.C,C1*%
X172640000Y-80010000D03*
X175340000Y-80010000D03*
%TD*%
D11*
%TO.C,R3*%
X151765000Y-85090000D03*
X153590000Y-85090000D03*
%TD*%
D12*
%TO.C,C2*%
X163195000Y-90170000D03*
X163195000Y-92870000D03*
%TD*%
D13*
%TO.C,R5*%
X123825000Y-71932000D03*
X123825000Y-73757000D03*
%TD*%
D14*
%TO.C,C6*%
X144780000Y-91622000D03*
X144780000Y-93522000D03*
%TD*%
D15*
%TO.C,C3*%
X151765000Y-82550000D03*
X153665000Y-82550000D03*
%TD*%
D11*
%TO.C,R4*%
X151765000Y-87630000D03*
X153590000Y-87630000D03*
%TD*%
D15*
%TO.C,C4*%
X131445000Y-78740000D03*
X133345000Y-78740000D03*
%TD*%
D13*
%TO.C,R7*%
X123825000Y-76835000D03*
X123825000Y-78660000D03*
%TD*%
D16*
%TO.C,D3*%
X126365000Y-71932000D03*
X126365000Y-73807000D03*
%TD*%
D17*
%TO.C,C5*%
X139060000Y-78740000D03*
X137160000Y-78740000D03*
%TD*%
D18*
%TO.C,R6*%
X172720000Y-77747500D03*
X172720000Y-75922500D03*
%TD*%
D13*
%TO.C,R1*%
X126365000Y-76835000D03*
X126365000Y-78660000D03*
%TD*%
D19*
%TO.C,U1*%
X123502000Y-93699000D03*
X125001000Y-93699000D03*
X126500000Y-93699000D03*
X127999000Y-93699000D03*
X129498000Y-93699000D03*
X135494000Y-93699000D03*
X136993000Y-93699000D03*
X139991000Y-93699000D03*
X141490000Y-93699000D03*
X139065000Y-80822000D03*
X136525000Y-80822000D03*
X133985000Y-80822000D03*
X131445000Y-80822000D03*
X129498000Y-80799000D03*
X127999000Y-80799000D03*
X126500000Y-80799000D03*
X125001000Y-80799000D03*
X123502000Y-80799000D03*
%TD*%
D13*
%TO.C,R2*%
X128905000Y-76835000D03*
X128905000Y-78660000D03*
%TD*%
D20*
%TO.C,U2*%
X172695000Y-88025000D03*
X172695000Y-85725000D03*
D21*
X166395000Y-85725000D03*
D20*
X172695000Y-83425000D03*
%TD*%
D16*
%TO.C,D1*%
X128905000Y-71932000D03*
X128905000Y-73807000D03*
%TD*%
%TO.C,D2*%
X131445000Y-71932000D03*
X131445000Y-73807000D03*
%TD*%
M02*
