%TF.GenerationSoftware,KiCad,Pcbnew,7.0.1-0*%
%TF.CreationDate,2023-05-23T01:00:37+08:00*%
%TF.ProjectId,FT817-BT-JDY67,46543831-372d-4425-942d-4a445936372e,20230517*%
%TF.SameCoordinates,Original*%
%TF.FileFunction,Drillmap*%
%TF.FilePolarity,Positive*%
%FSLAX45Y45*%
G04 Gerber Fmt 4.5, Leading zero omitted, Abs format (unit mm)*
G04 Created by KiCad (PCBNEW 7.0.1-0) date 2023-05-23 01:00:37*
%MOMM*%
%LPD*%
G01*
G04 APERTURE LIST*
%ADD10C,0.100000*%
%ADD11C,0.200000*%
%ADD12C,0.030000*%
%ADD13C,0.040000*%
%ADD14C,0.080000*%
%ADD15C,0.090000*%
%ADD16C,0.270000*%
%ADD17C,0.900000*%
G04 APERTURE END LIST*
D10*
X17208500Y-9525000D02*
X18388220Y-7103966D01*
X10541000Y-6286500D02*
G75*
G03*
X10350500Y-6477000I0J-190500D01*
G01*
X17081500Y-9652000D02*
G75*
G03*
X17208500Y-9525000I-63500J190500D01*
G01*
X9080500Y-9461500D02*
G75*
G03*
X9271000Y-9652000I190500J0D01*
G01*
X9271000Y-9652000D02*
X17081500Y-9652000D01*
X18388220Y-7103966D02*
G75*
G03*
X17780000Y-6286500I-608220J182466D01*
G01*
X17780000Y-6286500D02*
X15621000Y-6286500D01*
X10350500Y-7239000D02*
X10350500Y-6477000D01*
X9715500Y-7874000D02*
X9271000Y-7874000D01*
X14033500Y-6477000D02*
G75*
G03*
X13843000Y-6286500I-190500J0D01*
G01*
X9271000Y-7874000D02*
G75*
G03*
X9080500Y-8064500I0J-190500D01*
G01*
X14033500Y-6477000D02*
X14033500Y-6921500D01*
X9080500Y-8064500D02*
X9080500Y-9461500D01*
X9715500Y-7874000D02*
G75*
G03*
X10350500Y-7239000I0J635000D01*
G01*
X13843000Y-6286500D02*
X10541000Y-6286500D01*
X15430500Y-6477000D02*
X15430500Y-6921500D01*
X14033500Y-6921500D02*
G75*
G03*
X15430500Y-6921500I698500J0D01*
G01*
X15621000Y-6286500D02*
G75*
G03*
X15430500Y-6477000I0J-190500D01*
G01*
D11*
D12*
X12367500Y-7541500D02*
X12397500Y-7571500D01*
X12397500Y-7541500D02*
X12367500Y-7571500D01*
D13*
X12339000Y-9525000D02*
G75*
G03*
X12339000Y-9525000I-20000J0D01*
G01*
X12370200Y-9225200D02*
G75*
G03*
X12370200Y-9225200I-20000J0D01*
G01*
X12402500Y-6413500D02*
G75*
G03*
X12402500Y-6413500I-20000J0D01*
G01*
X12402500Y-6794500D02*
G75*
G03*
X12402500Y-6794500I-20000J0D01*
G01*
X12402500Y-7175500D02*
G75*
G03*
X12402500Y-7175500I-20000J0D01*
G01*
X12402500Y-8255000D02*
G75*
G03*
X12402500Y-8255000I-20000J0D01*
G01*
X12402500Y-8890000D02*
G75*
G03*
X12402500Y-8890000I-20000J0D01*
G01*
X12529500Y-9017000D02*
G75*
G03*
X12529500Y-9017000I-20000J0D01*
G01*
X12529500Y-9225200D02*
G75*
G03*
X12529500Y-9225200I-20000J0D01*
G01*
X12656500Y-7048500D02*
G75*
G03*
X12656500Y-7048500I-20000J0D01*
G01*
X12656500Y-8255000D02*
G75*
G03*
X12656500Y-8255000I-20000J0D01*
G01*
X12656500Y-8636000D02*
G75*
G03*
X12656500Y-8636000I-20000J0D01*
G01*
X12720000Y-6413500D02*
G75*
G03*
X12720000Y-6413500I-20000J0D01*
G01*
X12720000Y-9525000D02*
G75*
G03*
X12720000Y-9525000I-20000J0D01*
G01*
X12783500Y-8763000D02*
G75*
G03*
X12783500Y-8763000I-20000J0D01*
G01*
X12783500Y-9080500D02*
G75*
G03*
X12783500Y-9080500I-20000J0D01*
G01*
X12847000Y-8445500D02*
G75*
G03*
X12847000Y-8445500I-20000J0D01*
G01*
X12910500Y-7048500D02*
G75*
G03*
X12910500Y-7048500I-20000J0D01*
G01*
X12974000Y-8890000D02*
G75*
G03*
X12974000Y-8890000I-20000J0D01*
G01*
X13037500Y-6413500D02*
G75*
G03*
X13037500Y-6413500I-20000J0D01*
G01*
X13037500Y-8255000D02*
G75*
G03*
X13037500Y-8255000I-20000J0D01*
G01*
X13037500Y-8636000D02*
G75*
G03*
X13037500Y-8636000I-20000J0D01*
G01*
X13101000Y-7683500D02*
G75*
G03*
X13101000Y-7683500I-20000J0D01*
G01*
X13164500Y-7175500D02*
G75*
G03*
X13164500Y-7175500I-20000J0D01*
G01*
X13228000Y-8382000D02*
G75*
G03*
X13228000Y-8382000I-20000J0D01*
G01*
X13228000Y-8890000D02*
G75*
G03*
X13228000Y-8890000I-20000J0D01*
G01*
X13291500Y-8128000D02*
G75*
G03*
X13291500Y-8128000I-20000J0D01*
G01*
X13355000Y-9525000D02*
G75*
G03*
X13355000Y-9525000I-20000J0D01*
G01*
X13418500Y-8636000D02*
G75*
G03*
X13418500Y-8636000I-20000J0D01*
G01*
X13545500Y-8128000D02*
G75*
G03*
X13545500Y-8128000I-20000J0D01*
G01*
X13545500Y-8382000D02*
G75*
G03*
X13545500Y-8382000I-20000J0D01*
G01*
X13609000Y-8890000D02*
G75*
G03*
X13609000Y-8890000I-20000J0D01*
G01*
X13736000Y-8636000D02*
G75*
G03*
X13736000Y-8636000I-20000J0D01*
G01*
X13799500Y-8128000D02*
G75*
G03*
X13799500Y-8128000I-20000J0D01*
G01*
X13863000Y-6477000D02*
G75*
G03*
X13863000Y-6477000I-20000J0D01*
G01*
X13863000Y-6794500D02*
G75*
G03*
X13863000Y-6794500I-20000J0D01*
G01*
X13863000Y-8382000D02*
G75*
G03*
X13863000Y-8382000I-20000J0D01*
G01*
X13863000Y-9525000D02*
G75*
G03*
X13863000Y-9525000I-20000J0D01*
G01*
X13926500Y-7302500D02*
G75*
G03*
X13926500Y-7302500I-20000J0D01*
G01*
X13926500Y-8890000D02*
G75*
G03*
X13926500Y-8890000I-20000J0D01*
G01*
X13990000Y-7620000D02*
G75*
G03*
X13990000Y-7620000I-20000J0D01*
G01*
X13990000Y-9144000D02*
G75*
G03*
X13990000Y-9144000I-20000J0D01*
G01*
X14053500Y-8128000D02*
G75*
G03*
X14053500Y-8128000I-20000J0D01*
G01*
X14053500Y-8636000D02*
G75*
G03*
X14053500Y-8636000I-20000J0D01*
G01*
X14117000Y-7874000D02*
G75*
G03*
X14117000Y-7874000I-20000J0D01*
G01*
X14180500Y-8382000D02*
G75*
G03*
X14180500Y-8382000I-20000J0D01*
G01*
X14180500Y-8890000D02*
G75*
G03*
X14180500Y-8890000I-20000J0D01*
G01*
X14434500Y-8064500D02*
G75*
G03*
X14434500Y-8064500I-20000J0D01*
G01*
X14498000Y-8382000D02*
G75*
G03*
X14498000Y-8382000I-20000J0D01*
G01*
X14498000Y-8636000D02*
G75*
G03*
X14498000Y-8636000I-20000J0D01*
G01*
X14498000Y-8890000D02*
G75*
G03*
X14498000Y-8890000I-20000J0D01*
G01*
X14498000Y-9542700D02*
G75*
G03*
X14498000Y-9542700I-20000J0D01*
G01*
X14688500Y-8509000D02*
G75*
G03*
X14688500Y-8509000I-20000J0D01*
G01*
X14688500Y-8636000D02*
G75*
G03*
X14688500Y-8636000I-20000J0D01*
G01*
X14688500Y-8763000D02*
G75*
G03*
X14688500Y-8763000I-20000J0D01*
G01*
X14879000Y-8947050D02*
G75*
G03*
X14879000Y-8947050I-20000J0D01*
G01*
X14879000Y-9144000D02*
G75*
G03*
X14879000Y-9144000I-20000J0D01*
G01*
X15133000Y-8382000D02*
G75*
G03*
X15133000Y-8382000I-20000J0D01*
G01*
X15133000Y-8636000D02*
G75*
G03*
X15133000Y-8636000I-20000J0D01*
G01*
X15133000Y-8890000D02*
G75*
G03*
X15133000Y-8890000I-20000J0D01*
G01*
X15260000Y-7620000D02*
G75*
G03*
X15260000Y-7620000I-20000J0D01*
G01*
X15260000Y-8255000D02*
G75*
G03*
X15260000Y-8255000I-20000J0D01*
G01*
X15450500Y-8890000D02*
G75*
G03*
X15450500Y-8890000I-20000J0D01*
G01*
X15514000Y-8255000D02*
G75*
G03*
X15514000Y-8255000I-20000J0D01*
G01*
X15577500Y-6794500D02*
G75*
G03*
X15577500Y-6794500I-20000J0D01*
G01*
X15577500Y-7239000D02*
G75*
G03*
X15577500Y-7239000I-20000J0D01*
G01*
X15641000Y-6477000D02*
G75*
G03*
X15641000Y-6477000I-20000J0D01*
G01*
X15641000Y-7620000D02*
G75*
G03*
X15641000Y-7620000I-20000J0D01*
G01*
X15641000Y-8509000D02*
G75*
G03*
X15641000Y-8509000I-20000J0D01*
G01*
X15641000Y-8763000D02*
G75*
G03*
X15641000Y-8763000I-20000J0D01*
G01*
X15641000Y-9144000D02*
G75*
G03*
X15641000Y-9144000I-20000J0D01*
G01*
X15704500Y-7937500D02*
G75*
G03*
X15704500Y-7937500I-20000J0D01*
G01*
X15704500Y-8128000D02*
G75*
G03*
X15704500Y-8128000I-20000J0D01*
G01*
X15704500Y-8382000D02*
G75*
G03*
X15704500Y-8382000I-20000J0D01*
G01*
X15704500Y-8636000D02*
G75*
G03*
X15704500Y-8636000I-20000J0D01*
G01*
X15704500Y-8890000D02*
G75*
G03*
X15704500Y-8890000I-20000J0D01*
G01*
X15895000Y-7556500D02*
G75*
G03*
X15895000Y-7556500I-20000J0D01*
G01*
X15895000Y-8572500D02*
G75*
G03*
X15895000Y-8572500I-20000J0D01*
G01*
X15958500Y-7810500D02*
G75*
G03*
X15958500Y-7810500I-20000J0D01*
G01*
X15958500Y-8255000D02*
G75*
G03*
X15958500Y-8255000I-20000J0D01*
G01*
X15958500Y-9461500D02*
G75*
G03*
X15958500Y-9461500I-20000J0D01*
G01*
X16022000Y-8699500D02*
G75*
G03*
X16022000Y-8699500I-20000J0D01*
G01*
X16085500Y-8382000D02*
G75*
G03*
X16085500Y-8382000I-20000J0D01*
G01*
X16149000Y-8064500D02*
G75*
G03*
X16149000Y-8064500I-20000J0D01*
G01*
X16212500Y-6921500D02*
G75*
G03*
X16212500Y-6921500I-20000J0D01*
G01*
X16212500Y-7556500D02*
G75*
G03*
X16212500Y-7556500I-20000J0D01*
G01*
X16212500Y-7810500D02*
G75*
G03*
X16212500Y-7810500I-20000J0D01*
G01*
X16212500Y-8509000D02*
G75*
G03*
X16212500Y-8509000I-20000J0D01*
G01*
X16276000Y-8191500D02*
G75*
G03*
X16276000Y-8191500I-20000J0D01*
G01*
X16403000Y-7810500D02*
G75*
G03*
X16403000Y-7810500I-20000J0D01*
G01*
X16403000Y-8318500D02*
G75*
G03*
X16403000Y-8318500I-20000J0D01*
G01*
X16466500Y-7556500D02*
G75*
G03*
X16466500Y-7556500I-20000J0D01*
G01*
X16530000Y-7937500D02*
G75*
G03*
X16530000Y-7937500I-20000J0D01*
G01*
X16657000Y-7366000D02*
G75*
G03*
X16657000Y-7366000I-20000J0D01*
G01*
X16657000Y-7556500D02*
G75*
G03*
X16657000Y-7556500I-20000J0D01*
G01*
X16657000Y-8064500D02*
G75*
G03*
X16657000Y-8064500I-20000J0D01*
G01*
X16784000Y-7683500D02*
G75*
G03*
X16784000Y-7683500I-20000J0D01*
G01*
X16847500Y-6477000D02*
G75*
G03*
X16847500Y-6477000I-20000J0D01*
G01*
X16847500Y-7048500D02*
G75*
G03*
X16847500Y-7048500I-20000J0D01*
G01*
X16847500Y-8128000D02*
G75*
G03*
X16847500Y-8128000I-20000J0D01*
G01*
X16847500Y-8509000D02*
G75*
G03*
X16847500Y-8509000I-20000J0D01*
G01*
X16911000Y-7302500D02*
G75*
G03*
X16911000Y-7302500I-20000J0D01*
G01*
X16911000Y-7810500D02*
G75*
G03*
X16911000Y-7810500I-20000J0D01*
G01*
X16974500Y-9461500D02*
G75*
G03*
X16974500Y-9461500I-20000J0D01*
G01*
X17038000Y-7429500D02*
G75*
G03*
X17038000Y-7429500I-20000J0D01*
G01*
X17101500Y-7620000D02*
G75*
G03*
X17101500Y-7620000I-20000J0D01*
G01*
X17165000Y-6477000D02*
G75*
G03*
X17165000Y-6477000I-20000J0D01*
G01*
X17165000Y-7048500D02*
G75*
G03*
X17165000Y-7048500I-20000J0D01*
G01*
X17165000Y-9271000D02*
G75*
G03*
X17165000Y-9271000I-20000J0D01*
G01*
X17228500Y-7239000D02*
G75*
G03*
X17228500Y-7239000I-20000J0D01*
G01*
X17355500Y-7366000D02*
G75*
G03*
X17355500Y-7366000I-20000J0D01*
G01*
X17355500Y-8890000D02*
G75*
G03*
X17355500Y-8890000I-20000J0D01*
G01*
X17546000Y-8509000D02*
G75*
G03*
X17546000Y-8509000I-20000J0D01*
G01*
X17673000Y-7620000D02*
G75*
G03*
X17673000Y-7620000I-20000J0D01*
G01*
X17736500Y-8128000D02*
G75*
G03*
X17736500Y-8128000I-20000J0D01*
G01*
X17927000Y-7747000D02*
G75*
G03*
X17927000Y-7747000I-20000J0D01*
G01*
X18054000Y-7493000D02*
G75*
G03*
X18054000Y-7493000I-20000J0D01*
G01*
X18244500Y-6667500D02*
G75*
G03*
X18244500Y-6667500I-20000J0D01*
G01*
X18244500Y-7175500D02*
G75*
G03*
X18244500Y-7175500I-20000J0D01*
G01*
X18308000Y-6921500D02*
G75*
G03*
X18308000Y-6921500I-20000J0D01*
G01*
D14*
X16192500Y-6441500D02*
X16192500Y-6521500D01*
X16152500Y-6481500D02*
X16232500Y-6481500D01*
D11*
X16072500Y-6521500D02*
X16312500Y-6521500D01*
X16312500Y-6521500D02*
G75*
G03*
X16312500Y-6441500I0J40000D01*
G01*
X16312500Y-6441500D02*
X16072500Y-6441500D01*
X16072500Y-6441500D02*
G75*
G03*
X16072500Y-6521500I0J-40000D01*
G01*
D14*
X17784000Y-6441500D02*
X17784000Y-6521500D01*
X17744000Y-6481500D02*
X17824000Y-6481500D01*
D11*
X17664000Y-6521500D02*
X17904000Y-6521500D01*
X17904000Y-6521500D02*
G75*
G03*
X17904000Y-6441500I0J40000D01*
G01*
X17904000Y-6441500D02*
X17664000Y-6441500D01*
X17664000Y-6441500D02*
G75*
G03*
X17664000Y-6521500I0J-40000D01*
G01*
D15*
X15974320Y-6993320D02*
X15974320Y-6929680D01*
X15910680Y-6929680D01*
X15910680Y-6993320D01*
X15974320Y-6993320D01*
D11*
X15927500Y-7006500D02*
X15957500Y-7006500D01*
X15957500Y-7006500D02*
G75*
G03*
X15957500Y-6916500I0J45000D01*
G01*
X15957500Y-6916500D02*
X15927500Y-6916500D01*
X15927500Y-6916500D02*
G75*
G03*
X15927500Y-7006500I0J-45000D01*
G01*
D15*
X16024320Y-6793320D02*
X16024320Y-6729680D01*
X15960680Y-6729680D01*
X15960680Y-6793320D01*
X16024320Y-6793320D01*
D11*
X15977500Y-6806500D02*
X16007500Y-6806500D01*
X16007500Y-6806500D02*
G75*
G03*
X16007500Y-6716500I0J45000D01*
G01*
X16007500Y-6716500D02*
X15977500Y-6716500D01*
X15977500Y-6716500D02*
G75*
G03*
X15977500Y-6806500I0J-45000D01*
G01*
D15*
X16124320Y-7193320D02*
X16124320Y-7129680D01*
X16060680Y-7129680D01*
X16060680Y-7193320D01*
X16124320Y-7193320D01*
D11*
X16077500Y-7206500D02*
X16107500Y-7206500D01*
X16107500Y-7206500D02*
G75*
G03*
X16107500Y-7116500I0J45000D01*
G01*
X16107500Y-7116500D02*
X16077500Y-7116500D01*
X16077500Y-7116500D02*
G75*
G03*
X16077500Y-7206500I0J-45000D01*
G01*
D15*
X16324320Y-7193320D02*
X16324320Y-7129680D01*
X16260680Y-7129680D01*
X16260680Y-7193320D01*
X16324320Y-7193320D01*
D11*
X16277500Y-7206500D02*
X16307500Y-7206500D01*
X16307500Y-7206500D02*
G75*
G03*
X16307500Y-7116500I0J45000D01*
G01*
X16307500Y-7116500D02*
X16277500Y-7116500D01*
X16277500Y-7116500D02*
G75*
G03*
X16277500Y-7206500I0J-45000D01*
G01*
D15*
X16424320Y-6793320D02*
X16424320Y-6729680D01*
X16360680Y-6729680D01*
X16360680Y-6793320D01*
X16424320Y-6793320D01*
D11*
X16377500Y-6806500D02*
X16407500Y-6806500D01*
X16407500Y-6806500D02*
G75*
G03*
X16407500Y-6716500I0J45000D01*
G01*
X16407500Y-6716500D02*
X16377500Y-6716500D01*
X16377500Y-6716500D02*
G75*
G03*
X16377500Y-6806500I0J-45000D01*
G01*
D15*
X16474320Y-6993320D02*
X16474320Y-6929680D01*
X16410680Y-6929680D01*
X16410680Y-6993320D01*
X16474320Y-6993320D01*
D11*
X16427500Y-7006500D02*
X16457500Y-7006500D01*
X16457500Y-7006500D02*
G75*
G03*
X16457500Y-6916500I0J45000D01*
G01*
X16457500Y-6916500D02*
X16427500Y-6916500D01*
X16427500Y-6916500D02*
G75*
G03*
X16427500Y-7006500I0J-45000D01*
G01*
D15*
X17565820Y-6993320D02*
X17565820Y-6929680D01*
X17502180Y-6929680D01*
X17502180Y-6993320D01*
X17565820Y-6993320D01*
D11*
X17519000Y-7006500D02*
X17549000Y-7006500D01*
X17549000Y-7006500D02*
G75*
G03*
X17549000Y-6916500I0J45000D01*
G01*
X17549000Y-6916500D02*
X17519000Y-6916500D01*
X17519000Y-6916500D02*
G75*
G03*
X17519000Y-7006500I0J-45000D01*
G01*
D15*
X17615820Y-6793320D02*
X17615820Y-6729680D01*
X17552180Y-6729680D01*
X17552180Y-6793320D01*
X17615820Y-6793320D01*
D11*
X17569000Y-6806500D02*
X17599000Y-6806500D01*
X17599000Y-6806500D02*
G75*
G03*
X17599000Y-6716500I0J45000D01*
G01*
X17599000Y-6716500D02*
X17569000Y-6716500D01*
X17569000Y-6716500D02*
G75*
G03*
X17569000Y-6806500I0J-45000D01*
G01*
D15*
X17715820Y-7193320D02*
X17715820Y-7129680D01*
X17652180Y-7129680D01*
X17652180Y-7193320D01*
X17715820Y-7193320D01*
D11*
X17669000Y-7206500D02*
X17699000Y-7206500D01*
X17699000Y-7206500D02*
G75*
G03*
X17699000Y-7116500I0J45000D01*
G01*
X17699000Y-7116500D02*
X17669000Y-7116500D01*
X17669000Y-7116500D02*
G75*
G03*
X17669000Y-7206500I0J-45000D01*
G01*
D15*
X17815820Y-6793320D02*
X17815820Y-6729680D01*
X17752180Y-6729680D01*
X17752180Y-6793320D01*
X17815820Y-6793320D01*
D11*
X17769000Y-6806500D02*
X17799000Y-6806500D01*
X17799000Y-6806500D02*
G75*
G03*
X17799000Y-6716500I0J45000D01*
G01*
X17799000Y-6716500D02*
X17769000Y-6716500D01*
X17769000Y-6716500D02*
G75*
G03*
X17769000Y-6806500I0J-45000D01*
G01*
D15*
X17865820Y-6993320D02*
X17865820Y-6929680D01*
X17802180Y-6929680D01*
X17802180Y-6993320D01*
X17865820Y-6993320D01*
D11*
X17819000Y-7006500D02*
X17849000Y-7006500D01*
X17849000Y-7006500D02*
G75*
G03*
X17849000Y-6916500I0J45000D01*
G01*
X17849000Y-6916500D02*
X17819000Y-6916500D01*
X17819000Y-6916500D02*
G75*
G03*
X17819000Y-7006500I0J-45000D01*
G01*
D15*
X17915820Y-7193320D02*
X17915820Y-7129680D01*
X17852180Y-7129680D01*
X17852180Y-7193320D01*
X17915820Y-7193320D01*
D11*
X17869000Y-7206500D02*
X17899000Y-7206500D01*
X17899000Y-7206500D02*
G75*
G03*
X17899000Y-7116500I0J45000D01*
G01*
X17899000Y-7116500D02*
X17869000Y-7116500D01*
X17869000Y-7116500D02*
G75*
G03*
X17869000Y-7206500I0J-45000D01*
G01*
D15*
X18015820Y-6793320D02*
X18015820Y-6729680D01*
X17952180Y-6729680D01*
X17952180Y-6793320D01*
X18015820Y-6793320D01*
D11*
X17969000Y-6806500D02*
X17999000Y-6806500D01*
X17999000Y-6806500D02*
G75*
G03*
X17999000Y-6716500I0J45000D01*
G01*
X17999000Y-6716500D02*
X17969000Y-6716500D01*
X17969000Y-6716500D02*
G75*
G03*
X17969000Y-6806500I0J-45000D01*
G01*
D15*
X18065820Y-6993320D02*
X18065820Y-6929680D01*
X18002180Y-6929680D01*
X18002180Y-6993320D01*
X18065820Y-6993320D01*
D11*
X18019000Y-7006500D02*
X18049000Y-7006500D01*
X18049000Y-7006500D02*
G75*
G03*
X18049000Y-6916500I0J45000D01*
G01*
X18049000Y-6916500D02*
X18019000Y-6916500D01*
X18019000Y-6916500D02*
G75*
G03*
X18019000Y-7006500I0J-45000D01*
G01*
D16*
X13462000Y-6739000D02*
X13597000Y-6604000D01*
X13462000Y-6469000D01*
X13327000Y-6604000D01*
X13462000Y-6739000D01*
X15240000Y-9533000D02*
X15375000Y-9398000D01*
X15240000Y-9263000D01*
X15105000Y-9398000D01*
X15240000Y-9533000D01*
D17*
X9265500Y-8440000D02*
X10165500Y-9340000D01*
X10165500Y-8440000D02*
X9265500Y-9340000D01*
X10165500Y-8890000D02*
G75*
G03*
X10165500Y-8890000I-450000J0D01*
G01*
D11*
X9323119Y-9969524D02*
X9323119Y-9769524D01*
X9323119Y-9769524D02*
X9370738Y-9769524D01*
X9370738Y-9769524D02*
X9399309Y-9779048D01*
X9399309Y-9779048D02*
X9418357Y-9798095D01*
X9418357Y-9798095D02*
X9427881Y-9817143D01*
X9427881Y-9817143D02*
X9437405Y-9855238D01*
X9437405Y-9855238D02*
X9437405Y-9883810D01*
X9437405Y-9883810D02*
X9427881Y-9921905D01*
X9427881Y-9921905D02*
X9418357Y-9940952D01*
X9418357Y-9940952D02*
X9399309Y-9960000D01*
X9399309Y-9960000D02*
X9370738Y-9969524D01*
X9370738Y-9969524D02*
X9323119Y-9969524D01*
X9523119Y-9969524D02*
X9523119Y-9836190D01*
X9523119Y-9874286D02*
X9532643Y-9855238D01*
X9532643Y-9855238D02*
X9542167Y-9845714D01*
X9542167Y-9845714D02*
X9561214Y-9836190D01*
X9561214Y-9836190D02*
X9580262Y-9836190D01*
X9646928Y-9969524D02*
X9646928Y-9836190D01*
X9646928Y-9769524D02*
X9637405Y-9779048D01*
X9637405Y-9779048D02*
X9646928Y-9788571D01*
X9646928Y-9788571D02*
X9656452Y-9779048D01*
X9656452Y-9779048D02*
X9646928Y-9769524D01*
X9646928Y-9769524D02*
X9646928Y-9788571D01*
X9770738Y-9969524D02*
X9751690Y-9960000D01*
X9751690Y-9960000D02*
X9742167Y-9940952D01*
X9742167Y-9940952D02*
X9742167Y-9769524D01*
X9875500Y-9969524D02*
X9856452Y-9960000D01*
X9856452Y-9960000D02*
X9846928Y-9940952D01*
X9846928Y-9940952D02*
X9846928Y-9769524D01*
X10104071Y-9969524D02*
X10104071Y-9769524D01*
X10104071Y-9769524D02*
X10170738Y-9912381D01*
X10170738Y-9912381D02*
X10237405Y-9769524D01*
X10237405Y-9769524D02*
X10237405Y-9969524D01*
X10418357Y-9969524D02*
X10418357Y-9864762D01*
X10418357Y-9864762D02*
X10408833Y-9845714D01*
X10408833Y-9845714D02*
X10389786Y-9836190D01*
X10389786Y-9836190D02*
X10351690Y-9836190D01*
X10351690Y-9836190D02*
X10332643Y-9845714D01*
X10418357Y-9960000D02*
X10399309Y-9969524D01*
X10399309Y-9969524D02*
X10351690Y-9969524D01*
X10351690Y-9969524D02*
X10332643Y-9960000D01*
X10332643Y-9960000D02*
X10323119Y-9940952D01*
X10323119Y-9940952D02*
X10323119Y-9921905D01*
X10323119Y-9921905D02*
X10332643Y-9902857D01*
X10332643Y-9902857D02*
X10351690Y-9893333D01*
X10351690Y-9893333D02*
X10399309Y-9893333D01*
X10399309Y-9893333D02*
X10418357Y-9883810D01*
X10513595Y-9836190D02*
X10513595Y-10036190D01*
X10513595Y-9845714D02*
X10532643Y-9836190D01*
X10532643Y-9836190D02*
X10570738Y-9836190D01*
X10570738Y-9836190D02*
X10589786Y-9845714D01*
X10589786Y-9845714D02*
X10599309Y-9855238D01*
X10599309Y-9855238D02*
X10608833Y-9874286D01*
X10608833Y-9874286D02*
X10608833Y-9931429D01*
X10608833Y-9931429D02*
X10599309Y-9950476D01*
X10599309Y-9950476D02*
X10589786Y-9960000D01*
X10589786Y-9960000D02*
X10570738Y-9969524D01*
X10570738Y-9969524D02*
X10532643Y-9969524D01*
X10532643Y-9969524D02*
X10513595Y-9960000D01*
X10694548Y-9950476D02*
X10704071Y-9960000D01*
X10704071Y-9960000D02*
X10694548Y-9969524D01*
X10694548Y-9969524D02*
X10685024Y-9960000D01*
X10685024Y-9960000D02*
X10694548Y-9950476D01*
X10694548Y-9950476D02*
X10694548Y-9969524D01*
X10694548Y-9845714D02*
X10704071Y-9855238D01*
X10704071Y-9855238D02*
X10694548Y-9864762D01*
X10694548Y-9864762D02*
X10685024Y-9855238D01*
X10685024Y-9855238D02*
X10694548Y-9845714D01*
X10694548Y-9845714D02*
X10694548Y-9864762D01*
D12*
X9045500Y-10282000D02*
X9075500Y-10312000D01*
X9075500Y-10282000D02*
X9045500Y-10312000D01*
D11*
X9361214Y-10189524D02*
X9380262Y-10189524D01*
X9380262Y-10189524D02*
X9399309Y-10199048D01*
X9399309Y-10199048D02*
X9408833Y-10208571D01*
X9408833Y-10208571D02*
X9418357Y-10227619D01*
X9418357Y-10227619D02*
X9427881Y-10265714D01*
X9427881Y-10265714D02*
X9427881Y-10313333D01*
X9427881Y-10313333D02*
X9418357Y-10351429D01*
X9418357Y-10351429D02*
X9408833Y-10370476D01*
X9408833Y-10370476D02*
X9399309Y-10380000D01*
X9399309Y-10380000D02*
X9380262Y-10389524D01*
X9380262Y-10389524D02*
X9361214Y-10389524D01*
X9361214Y-10389524D02*
X9342167Y-10380000D01*
X9342167Y-10380000D02*
X9332643Y-10370476D01*
X9332643Y-10370476D02*
X9323119Y-10351429D01*
X9323119Y-10351429D02*
X9313595Y-10313333D01*
X9313595Y-10313333D02*
X9313595Y-10265714D01*
X9313595Y-10265714D02*
X9323119Y-10227619D01*
X9323119Y-10227619D02*
X9332643Y-10208571D01*
X9332643Y-10208571D02*
X9342167Y-10199048D01*
X9342167Y-10199048D02*
X9361214Y-10189524D01*
X9513595Y-10370476D02*
X9523119Y-10380000D01*
X9523119Y-10380000D02*
X9513595Y-10389524D01*
X9513595Y-10389524D02*
X9504071Y-10380000D01*
X9504071Y-10380000D02*
X9513595Y-10370476D01*
X9513595Y-10370476D02*
X9513595Y-10389524D01*
X9589786Y-10189524D02*
X9713595Y-10189524D01*
X9713595Y-10189524D02*
X9646928Y-10265714D01*
X9646928Y-10265714D02*
X9675500Y-10265714D01*
X9675500Y-10265714D02*
X9694548Y-10275238D01*
X9694548Y-10275238D02*
X9704071Y-10284762D01*
X9704071Y-10284762D02*
X9713595Y-10303810D01*
X9713595Y-10303810D02*
X9713595Y-10351429D01*
X9713595Y-10351429D02*
X9704071Y-10370476D01*
X9704071Y-10370476D02*
X9694548Y-10380000D01*
X9694548Y-10380000D02*
X9675500Y-10389524D01*
X9675500Y-10389524D02*
X9618357Y-10389524D01*
X9618357Y-10389524D02*
X9599309Y-10380000D01*
X9599309Y-10380000D02*
X9589786Y-10370476D01*
X9837405Y-10189524D02*
X9856452Y-10189524D01*
X9856452Y-10189524D02*
X9875500Y-10199048D01*
X9875500Y-10199048D02*
X9885024Y-10208571D01*
X9885024Y-10208571D02*
X9894548Y-10227619D01*
X9894548Y-10227619D02*
X9904071Y-10265714D01*
X9904071Y-10265714D02*
X9904071Y-10313333D01*
X9904071Y-10313333D02*
X9894548Y-10351429D01*
X9894548Y-10351429D02*
X9885024Y-10370476D01*
X9885024Y-10370476D02*
X9875500Y-10380000D01*
X9875500Y-10380000D02*
X9856452Y-10389524D01*
X9856452Y-10389524D02*
X9837405Y-10389524D01*
X9837405Y-10389524D02*
X9818357Y-10380000D01*
X9818357Y-10380000D02*
X9808833Y-10370476D01*
X9808833Y-10370476D02*
X9799309Y-10351429D01*
X9799309Y-10351429D02*
X9789786Y-10313333D01*
X9789786Y-10313333D02*
X9789786Y-10265714D01*
X9789786Y-10265714D02*
X9799309Y-10227619D01*
X9799309Y-10227619D02*
X9808833Y-10208571D01*
X9808833Y-10208571D02*
X9818357Y-10199048D01*
X9818357Y-10199048D02*
X9837405Y-10189524D01*
X10027881Y-10189524D02*
X10046929Y-10189524D01*
X10046929Y-10189524D02*
X10065976Y-10199048D01*
X10065976Y-10199048D02*
X10075500Y-10208571D01*
X10075500Y-10208571D02*
X10085024Y-10227619D01*
X10085024Y-10227619D02*
X10094548Y-10265714D01*
X10094548Y-10265714D02*
X10094548Y-10313333D01*
X10094548Y-10313333D02*
X10085024Y-10351429D01*
X10085024Y-10351429D02*
X10075500Y-10370476D01*
X10075500Y-10370476D02*
X10065976Y-10380000D01*
X10065976Y-10380000D02*
X10046929Y-10389524D01*
X10046929Y-10389524D02*
X10027881Y-10389524D01*
X10027881Y-10389524D02*
X10008833Y-10380000D01*
X10008833Y-10380000D02*
X9999309Y-10370476D01*
X9999309Y-10370476D02*
X9989786Y-10351429D01*
X9989786Y-10351429D02*
X9980262Y-10313333D01*
X9980262Y-10313333D02*
X9980262Y-10265714D01*
X9980262Y-10265714D02*
X9989786Y-10227619D01*
X9989786Y-10227619D02*
X9999309Y-10208571D01*
X9999309Y-10208571D02*
X10008833Y-10199048D01*
X10008833Y-10199048D02*
X10027881Y-10189524D01*
X10180262Y-10389524D02*
X10180262Y-10256190D01*
X10180262Y-10275238D02*
X10189786Y-10265714D01*
X10189786Y-10265714D02*
X10208833Y-10256190D01*
X10208833Y-10256190D02*
X10237405Y-10256190D01*
X10237405Y-10256190D02*
X10256452Y-10265714D01*
X10256452Y-10265714D02*
X10265976Y-10284762D01*
X10265976Y-10284762D02*
X10265976Y-10389524D01*
X10265976Y-10284762D02*
X10275500Y-10265714D01*
X10275500Y-10265714D02*
X10294548Y-10256190D01*
X10294548Y-10256190D02*
X10323119Y-10256190D01*
X10323119Y-10256190D02*
X10342167Y-10265714D01*
X10342167Y-10265714D02*
X10351690Y-10284762D01*
X10351690Y-10284762D02*
X10351690Y-10389524D01*
X10446929Y-10389524D02*
X10446929Y-10256190D01*
X10446929Y-10275238D02*
X10456452Y-10265714D01*
X10456452Y-10265714D02*
X10475500Y-10256190D01*
X10475500Y-10256190D02*
X10504071Y-10256190D01*
X10504071Y-10256190D02*
X10523119Y-10265714D01*
X10523119Y-10265714D02*
X10532643Y-10284762D01*
X10532643Y-10284762D02*
X10532643Y-10389524D01*
X10532643Y-10284762D02*
X10542167Y-10265714D01*
X10542167Y-10265714D02*
X10561214Y-10256190D01*
X10561214Y-10256190D02*
X10589786Y-10256190D01*
X10589786Y-10256190D02*
X10608833Y-10265714D01*
X10608833Y-10265714D02*
X10618357Y-10284762D01*
X10618357Y-10284762D02*
X10618357Y-10389524D01*
X11008833Y-10180000D02*
X10837405Y-10437143D01*
X11265976Y-10189524D02*
X11285024Y-10189524D01*
X11285024Y-10189524D02*
X11304071Y-10199048D01*
X11304071Y-10199048D02*
X11313595Y-10208571D01*
X11313595Y-10208571D02*
X11323119Y-10227619D01*
X11323119Y-10227619D02*
X11332643Y-10265714D01*
X11332643Y-10265714D02*
X11332643Y-10313333D01*
X11332643Y-10313333D02*
X11323119Y-10351429D01*
X11323119Y-10351429D02*
X11313595Y-10370476D01*
X11313595Y-10370476D02*
X11304071Y-10380000D01*
X11304071Y-10380000D02*
X11285024Y-10389524D01*
X11285024Y-10389524D02*
X11265976Y-10389524D01*
X11265976Y-10389524D02*
X11246929Y-10380000D01*
X11246929Y-10380000D02*
X11237405Y-10370476D01*
X11237405Y-10370476D02*
X11227881Y-10351429D01*
X11227881Y-10351429D02*
X11218357Y-10313333D01*
X11218357Y-10313333D02*
X11218357Y-10265714D01*
X11218357Y-10265714D02*
X11227881Y-10227619D01*
X11227881Y-10227619D02*
X11237405Y-10208571D01*
X11237405Y-10208571D02*
X11246929Y-10199048D01*
X11246929Y-10199048D02*
X11265976Y-10189524D01*
X11418357Y-10370476D02*
X11427881Y-10380000D01*
X11427881Y-10380000D02*
X11418357Y-10389524D01*
X11418357Y-10389524D02*
X11408833Y-10380000D01*
X11408833Y-10380000D02*
X11418357Y-10370476D01*
X11418357Y-10370476D02*
X11418357Y-10389524D01*
X11551690Y-10189524D02*
X11570738Y-10189524D01*
X11570738Y-10189524D02*
X11589786Y-10199048D01*
X11589786Y-10199048D02*
X11599310Y-10208571D01*
X11599310Y-10208571D02*
X11608833Y-10227619D01*
X11608833Y-10227619D02*
X11618357Y-10265714D01*
X11618357Y-10265714D02*
X11618357Y-10313333D01*
X11618357Y-10313333D02*
X11608833Y-10351429D01*
X11608833Y-10351429D02*
X11599310Y-10370476D01*
X11599310Y-10370476D02*
X11589786Y-10380000D01*
X11589786Y-10380000D02*
X11570738Y-10389524D01*
X11570738Y-10389524D02*
X11551690Y-10389524D01*
X11551690Y-10389524D02*
X11532643Y-10380000D01*
X11532643Y-10380000D02*
X11523119Y-10370476D01*
X11523119Y-10370476D02*
X11513595Y-10351429D01*
X11513595Y-10351429D02*
X11504071Y-10313333D01*
X11504071Y-10313333D02*
X11504071Y-10265714D01*
X11504071Y-10265714D02*
X11513595Y-10227619D01*
X11513595Y-10227619D02*
X11523119Y-10208571D01*
X11523119Y-10208571D02*
X11532643Y-10199048D01*
X11532643Y-10199048D02*
X11551690Y-10189524D01*
X11808833Y-10389524D02*
X11694548Y-10389524D01*
X11751690Y-10389524D02*
X11751690Y-10189524D01*
X11751690Y-10189524D02*
X11732643Y-10218095D01*
X11732643Y-10218095D02*
X11713595Y-10237143D01*
X11713595Y-10237143D02*
X11694548Y-10246667D01*
X11999310Y-10389524D02*
X11885024Y-10389524D01*
X11942167Y-10389524D02*
X11942167Y-10189524D01*
X11942167Y-10189524D02*
X11923119Y-10218095D01*
X11923119Y-10218095D02*
X11904071Y-10237143D01*
X11904071Y-10237143D02*
X11885024Y-10246667D01*
X12113595Y-10275238D02*
X12094548Y-10265714D01*
X12094548Y-10265714D02*
X12085024Y-10256190D01*
X12085024Y-10256190D02*
X12075500Y-10237143D01*
X12075500Y-10237143D02*
X12075500Y-10227619D01*
X12075500Y-10227619D02*
X12085024Y-10208571D01*
X12085024Y-10208571D02*
X12094548Y-10199048D01*
X12094548Y-10199048D02*
X12113595Y-10189524D01*
X12113595Y-10189524D02*
X12151691Y-10189524D01*
X12151691Y-10189524D02*
X12170738Y-10199048D01*
X12170738Y-10199048D02*
X12180262Y-10208571D01*
X12180262Y-10208571D02*
X12189786Y-10227619D01*
X12189786Y-10227619D02*
X12189786Y-10237143D01*
X12189786Y-10237143D02*
X12180262Y-10256190D01*
X12180262Y-10256190D02*
X12170738Y-10265714D01*
X12170738Y-10265714D02*
X12151691Y-10275238D01*
X12151691Y-10275238D02*
X12113595Y-10275238D01*
X12113595Y-10275238D02*
X12094548Y-10284762D01*
X12094548Y-10284762D02*
X12085024Y-10294286D01*
X12085024Y-10294286D02*
X12075500Y-10313333D01*
X12075500Y-10313333D02*
X12075500Y-10351429D01*
X12075500Y-10351429D02*
X12085024Y-10370476D01*
X12085024Y-10370476D02*
X12094548Y-10380000D01*
X12094548Y-10380000D02*
X12113595Y-10389524D01*
X12113595Y-10389524D02*
X12151691Y-10389524D01*
X12151691Y-10389524D02*
X12170738Y-10380000D01*
X12170738Y-10380000D02*
X12180262Y-10370476D01*
X12180262Y-10370476D02*
X12189786Y-10351429D01*
X12189786Y-10351429D02*
X12189786Y-10313333D01*
X12189786Y-10313333D02*
X12180262Y-10294286D01*
X12180262Y-10294286D02*
X12170738Y-10284762D01*
X12170738Y-10284762D02*
X12151691Y-10275238D01*
X12265976Y-10189524D02*
X12265976Y-10227619D01*
X12342167Y-10189524D02*
X12342167Y-10227619D01*
X12637405Y-10465714D02*
X12627881Y-10456190D01*
X12627881Y-10456190D02*
X12608833Y-10427619D01*
X12608833Y-10427619D02*
X12599310Y-10408571D01*
X12599310Y-10408571D02*
X12589786Y-10380000D01*
X12589786Y-10380000D02*
X12580262Y-10332381D01*
X12580262Y-10332381D02*
X12580262Y-10294286D01*
X12580262Y-10294286D02*
X12589786Y-10246667D01*
X12589786Y-10246667D02*
X12599310Y-10218095D01*
X12599310Y-10218095D02*
X12608833Y-10199048D01*
X12608833Y-10199048D02*
X12627881Y-10170476D01*
X12627881Y-10170476D02*
X12637405Y-10160952D01*
X12818357Y-10389524D02*
X12704072Y-10389524D01*
X12761214Y-10389524D02*
X12761214Y-10189524D01*
X12761214Y-10189524D02*
X12742167Y-10218095D01*
X12742167Y-10218095D02*
X12723119Y-10237143D01*
X12723119Y-10237143D02*
X12704072Y-10246667D01*
X13056453Y-10389524D02*
X13056453Y-10189524D01*
X13142167Y-10389524D02*
X13142167Y-10284762D01*
X13142167Y-10284762D02*
X13132643Y-10265714D01*
X13132643Y-10265714D02*
X13113595Y-10256190D01*
X13113595Y-10256190D02*
X13085024Y-10256190D01*
X13085024Y-10256190D02*
X13065976Y-10265714D01*
X13065976Y-10265714D02*
X13056453Y-10275238D01*
X13265976Y-10389524D02*
X13246929Y-10380000D01*
X13246929Y-10380000D02*
X13237405Y-10370476D01*
X13237405Y-10370476D02*
X13227881Y-10351429D01*
X13227881Y-10351429D02*
X13227881Y-10294286D01*
X13227881Y-10294286D02*
X13237405Y-10275238D01*
X13237405Y-10275238D02*
X13246929Y-10265714D01*
X13246929Y-10265714D02*
X13265976Y-10256190D01*
X13265976Y-10256190D02*
X13294548Y-10256190D01*
X13294548Y-10256190D02*
X13313595Y-10265714D01*
X13313595Y-10265714D02*
X13323119Y-10275238D01*
X13323119Y-10275238D02*
X13332643Y-10294286D01*
X13332643Y-10294286D02*
X13332643Y-10351429D01*
X13332643Y-10351429D02*
X13323119Y-10370476D01*
X13323119Y-10370476D02*
X13313595Y-10380000D01*
X13313595Y-10380000D02*
X13294548Y-10389524D01*
X13294548Y-10389524D02*
X13265976Y-10389524D01*
X13446929Y-10389524D02*
X13427881Y-10380000D01*
X13427881Y-10380000D02*
X13418357Y-10360952D01*
X13418357Y-10360952D02*
X13418357Y-10189524D01*
X13599310Y-10380000D02*
X13580262Y-10389524D01*
X13580262Y-10389524D02*
X13542167Y-10389524D01*
X13542167Y-10389524D02*
X13523119Y-10380000D01*
X13523119Y-10380000D02*
X13513595Y-10360952D01*
X13513595Y-10360952D02*
X13513595Y-10284762D01*
X13513595Y-10284762D02*
X13523119Y-10265714D01*
X13523119Y-10265714D02*
X13542167Y-10256190D01*
X13542167Y-10256190D02*
X13580262Y-10256190D01*
X13580262Y-10256190D02*
X13599310Y-10265714D01*
X13599310Y-10265714D02*
X13608834Y-10284762D01*
X13608834Y-10284762D02*
X13608834Y-10303810D01*
X13608834Y-10303810D02*
X13513595Y-10322857D01*
X13675500Y-10465714D02*
X13685024Y-10456190D01*
X13685024Y-10456190D02*
X13704072Y-10427619D01*
X13704072Y-10427619D02*
X13713595Y-10408571D01*
X13713595Y-10408571D02*
X13723119Y-10380000D01*
X13723119Y-10380000D02*
X13732643Y-10332381D01*
X13732643Y-10332381D02*
X13732643Y-10294286D01*
X13732643Y-10294286D02*
X13723119Y-10246667D01*
X13723119Y-10246667D02*
X13713595Y-10218095D01*
X13713595Y-10218095D02*
X13704072Y-10199048D01*
X13704072Y-10199048D02*
X13685024Y-10170476D01*
X13685024Y-10170476D02*
X13675500Y-10160952D01*
D13*
X9075500Y-10561000D02*
G75*
G03*
X9075500Y-10561000I-20000J0D01*
G01*
D11*
X9361214Y-10453524D02*
X9380262Y-10453524D01*
X9380262Y-10453524D02*
X9399309Y-10463048D01*
X9399309Y-10463048D02*
X9408833Y-10472571D01*
X9408833Y-10472571D02*
X9418357Y-10491619D01*
X9418357Y-10491619D02*
X9427881Y-10529714D01*
X9427881Y-10529714D02*
X9427881Y-10577333D01*
X9427881Y-10577333D02*
X9418357Y-10615429D01*
X9418357Y-10615429D02*
X9408833Y-10634476D01*
X9408833Y-10634476D02*
X9399309Y-10644000D01*
X9399309Y-10644000D02*
X9380262Y-10653524D01*
X9380262Y-10653524D02*
X9361214Y-10653524D01*
X9361214Y-10653524D02*
X9342167Y-10644000D01*
X9342167Y-10644000D02*
X9332643Y-10634476D01*
X9332643Y-10634476D02*
X9323119Y-10615429D01*
X9323119Y-10615429D02*
X9313595Y-10577333D01*
X9313595Y-10577333D02*
X9313595Y-10529714D01*
X9313595Y-10529714D02*
X9323119Y-10491619D01*
X9323119Y-10491619D02*
X9332643Y-10472571D01*
X9332643Y-10472571D02*
X9342167Y-10463048D01*
X9342167Y-10463048D02*
X9361214Y-10453524D01*
X9513595Y-10634476D02*
X9523119Y-10644000D01*
X9523119Y-10644000D02*
X9513595Y-10653524D01*
X9513595Y-10653524D02*
X9504071Y-10644000D01*
X9504071Y-10644000D02*
X9513595Y-10634476D01*
X9513595Y-10634476D02*
X9513595Y-10653524D01*
X9694548Y-10520190D02*
X9694548Y-10653524D01*
X9646928Y-10444000D02*
X9599309Y-10586857D01*
X9599309Y-10586857D02*
X9723119Y-10586857D01*
X9837405Y-10453524D02*
X9856452Y-10453524D01*
X9856452Y-10453524D02*
X9875500Y-10463048D01*
X9875500Y-10463048D02*
X9885024Y-10472571D01*
X9885024Y-10472571D02*
X9894548Y-10491619D01*
X9894548Y-10491619D02*
X9904071Y-10529714D01*
X9904071Y-10529714D02*
X9904071Y-10577333D01*
X9904071Y-10577333D02*
X9894548Y-10615429D01*
X9894548Y-10615429D02*
X9885024Y-10634476D01*
X9885024Y-10634476D02*
X9875500Y-10644000D01*
X9875500Y-10644000D02*
X9856452Y-10653524D01*
X9856452Y-10653524D02*
X9837405Y-10653524D01*
X9837405Y-10653524D02*
X9818357Y-10644000D01*
X9818357Y-10644000D02*
X9808833Y-10634476D01*
X9808833Y-10634476D02*
X9799309Y-10615429D01*
X9799309Y-10615429D02*
X9789786Y-10577333D01*
X9789786Y-10577333D02*
X9789786Y-10529714D01*
X9789786Y-10529714D02*
X9799309Y-10491619D01*
X9799309Y-10491619D02*
X9808833Y-10472571D01*
X9808833Y-10472571D02*
X9818357Y-10463048D01*
X9818357Y-10463048D02*
X9837405Y-10453524D01*
X10027881Y-10453524D02*
X10046929Y-10453524D01*
X10046929Y-10453524D02*
X10065976Y-10463048D01*
X10065976Y-10463048D02*
X10075500Y-10472571D01*
X10075500Y-10472571D02*
X10085024Y-10491619D01*
X10085024Y-10491619D02*
X10094548Y-10529714D01*
X10094548Y-10529714D02*
X10094548Y-10577333D01*
X10094548Y-10577333D02*
X10085024Y-10615429D01*
X10085024Y-10615429D02*
X10075500Y-10634476D01*
X10075500Y-10634476D02*
X10065976Y-10644000D01*
X10065976Y-10644000D02*
X10046929Y-10653524D01*
X10046929Y-10653524D02*
X10027881Y-10653524D01*
X10027881Y-10653524D02*
X10008833Y-10644000D01*
X10008833Y-10644000D02*
X9999309Y-10634476D01*
X9999309Y-10634476D02*
X9989786Y-10615429D01*
X9989786Y-10615429D02*
X9980262Y-10577333D01*
X9980262Y-10577333D02*
X9980262Y-10529714D01*
X9980262Y-10529714D02*
X9989786Y-10491619D01*
X9989786Y-10491619D02*
X9999309Y-10472571D01*
X9999309Y-10472571D02*
X10008833Y-10463048D01*
X10008833Y-10463048D02*
X10027881Y-10453524D01*
X10180262Y-10653524D02*
X10180262Y-10520190D01*
X10180262Y-10539238D02*
X10189786Y-10529714D01*
X10189786Y-10529714D02*
X10208833Y-10520190D01*
X10208833Y-10520190D02*
X10237405Y-10520190D01*
X10237405Y-10520190D02*
X10256452Y-10529714D01*
X10256452Y-10529714D02*
X10265976Y-10548762D01*
X10265976Y-10548762D02*
X10265976Y-10653524D01*
X10265976Y-10548762D02*
X10275500Y-10529714D01*
X10275500Y-10529714D02*
X10294548Y-10520190D01*
X10294548Y-10520190D02*
X10323119Y-10520190D01*
X10323119Y-10520190D02*
X10342167Y-10529714D01*
X10342167Y-10529714D02*
X10351690Y-10548762D01*
X10351690Y-10548762D02*
X10351690Y-10653524D01*
X10446929Y-10653524D02*
X10446929Y-10520190D01*
X10446929Y-10539238D02*
X10456452Y-10529714D01*
X10456452Y-10529714D02*
X10475500Y-10520190D01*
X10475500Y-10520190D02*
X10504071Y-10520190D01*
X10504071Y-10520190D02*
X10523119Y-10529714D01*
X10523119Y-10529714D02*
X10532643Y-10548762D01*
X10532643Y-10548762D02*
X10532643Y-10653524D01*
X10532643Y-10548762D02*
X10542167Y-10529714D01*
X10542167Y-10529714D02*
X10561214Y-10520190D01*
X10561214Y-10520190D02*
X10589786Y-10520190D01*
X10589786Y-10520190D02*
X10608833Y-10529714D01*
X10608833Y-10529714D02*
X10618357Y-10548762D01*
X10618357Y-10548762D02*
X10618357Y-10653524D01*
X11008833Y-10444000D02*
X10837405Y-10701143D01*
X11265976Y-10453524D02*
X11285024Y-10453524D01*
X11285024Y-10453524D02*
X11304071Y-10463048D01*
X11304071Y-10463048D02*
X11313595Y-10472571D01*
X11313595Y-10472571D02*
X11323119Y-10491619D01*
X11323119Y-10491619D02*
X11332643Y-10529714D01*
X11332643Y-10529714D02*
X11332643Y-10577333D01*
X11332643Y-10577333D02*
X11323119Y-10615429D01*
X11323119Y-10615429D02*
X11313595Y-10634476D01*
X11313595Y-10634476D02*
X11304071Y-10644000D01*
X11304071Y-10644000D02*
X11285024Y-10653524D01*
X11285024Y-10653524D02*
X11265976Y-10653524D01*
X11265976Y-10653524D02*
X11246929Y-10644000D01*
X11246929Y-10644000D02*
X11237405Y-10634476D01*
X11237405Y-10634476D02*
X11227881Y-10615429D01*
X11227881Y-10615429D02*
X11218357Y-10577333D01*
X11218357Y-10577333D02*
X11218357Y-10529714D01*
X11218357Y-10529714D02*
X11227881Y-10491619D01*
X11227881Y-10491619D02*
X11237405Y-10472571D01*
X11237405Y-10472571D02*
X11246929Y-10463048D01*
X11246929Y-10463048D02*
X11265976Y-10453524D01*
X11418357Y-10634476D02*
X11427881Y-10644000D01*
X11427881Y-10644000D02*
X11418357Y-10653524D01*
X11418357Y-10653524D02*
X11408833Y-10644000D01*
X11408833Y-10644000D02*
X11418357Y-10634476D01*
X11418357Y-10634476D02*
X11418357Y-10653524D01*
X11551690Y-10453524D02*
X11570738Y-10453524D01*
X11570738Y-10453524D02*
X11589786Y-10463048D01*
X11589786Y-10463048D02*
X11599310Y-10472571D01*
X11599310Y-10472571D02*
X11608833Y-10491619D01*
X11608833Y-10491619D02*
X11618357Y-10529714D01*
X11618357Y-10529714D02*
X11618357Y-10577333D01*
X11618357Y-10577333D02*
X11608833Y-10615429D01*
X11608833Y-10615429D02*
X11599310Y-10634476D01*
X11599310Y-10634476D02*
X11589786Y-10644000D01*
X11589786Y-10644000D02*
X11570738Y-10653524D01*
X11570738Y-10653524D02*
X11551690Y-10653524D01*
X11551690Y-10653524D02*
X11532643Y-10644000D01*
X11532643Y-10644000D02*
X11523119Y-10634476D01*
X11523119Y-10634476D02*
X11513595Y-10615429D01*
X11513595Y-10615429D02*
X11504071Y-10577333D01*
X11504071Y-10577333D02*
X11504071Y-10529714D01*
X11504071Y-10529714D02*
X11513595Y-10491619D01*
X11513595Y-10491619D02*
X11523119Y-10472571D01*
X11523119Y-10472571D02*
X11532643Y-10463048D01*
X11532643Y-10463048D02*
X11551690Y-10453524D01*
X11808833Y-10653524D02*
X11694548Y-10653524D01*
X11751690Y-10653524D02*
X11751690Y-10453524D01*
X11751690Y-10453524D02*
X11732643Y-10482095D01*
X11732643Y-10482095D02*
X11713595Y-10501143D01*
X11713595Y-10501143D02*
X11694548Y-10510667D01*
X11989786Y-10453524D02*
X11894548Y-10453524D01*
X11894548Y-10453524D02*
X11885024Y-10548762D01*
X11885024Y-10548762D02*
X11894548Y-10539238D01*
X11894548Y-10539238D02*
X11913595Y-10529714D01*
X11913595Y-10529714D02*
X11961214Y-10529714D01*
X11961214Y-10529714D02*
X11980262Y-10539238D01*
X11980262Y-10539238D02*
X11989786Y-10548762D01*
X11989786Y-10548762D02*
X11999310Y-10567810D01*
X11999310Y-10567810D02*
X11999310Y-10615429D01*
X11999310Y-10615429D02*
X11989786Y-10634476D01*
X11989786Y-10634476D02*
X11980262Y-10644000D01*
X11980262Y-10644000D02*
X11961214Y-10653524D01*
X11961214Y-10653524D02*
X11913595Y-10653524D01*
X11913595Y-10653524D02*
X11894548Y-10644000D01*
X11894548Y-10644000D02*
X11885024Y-10634476D01*
X12065976Y-10453524D02*
X12199310Y-10453524D01*
X12199310Y-10453524D02*
X12113595Y-10653524D01*
X12265976Y-10453524D02*
X12265976Y-10491619D01*
X12342167Y-10453524D02*
X12342167Y-10491619D01*
X12637405Y-10729714D02*
X12627881Y-10720190D01*
X12627881Y-10720190D02*
X12608833Y-10691619D01*
X12608833Y-10691619D02*
X12599310Y-10672571D01*
X12599310Y-10672571D02*
X12589786Y-10644000D01*
X12589786Y-10644000D02*
X12580262Y-10596381D01*
X12580262Y-10596381D02*
X12580262Y-10558286D01*
X12580262Y-10558286D02*
X12589786Y-10510667D01*
X12589786Y-10510667D02*
X12599310Y-10482095D01*
X12599310Y-10482095D02*
X12608833Y-10463048D01*
X12608833Y-10463048D02*
X12627881Y-10434476D01*
X12627881Y-10434476D02*
X12637405Y-10424952D01*
X12818357Y-10653524D02*
X12704072Y-10653524D01*
X12761214Y-10653524D02*
X12761214Y-10453524D01*
X12761214Y-10453524D02*
X12742167Y-10482095D01*
X12742167Y-10482095D02*
X12723119Y-10501143D01*
X12723119Y-10501143D02*
X12704072Y-10510667D01*
X12894548Y-10472571D02*
X12904072Y-10463048D01*
X12904072Y-10463048D02*
X12923119Y-10453524D01*
X12923119Y-10453524D02*
X12970738Y-10453524D01*
X12970738Y-10453524D02*
X12989786Y-10463048D01*
X12989786Y-10463048D02*
X12999310Y-10472571D01*
X12999310Y-10472571D02*
X13008833Y-10491619D01*
X13008833Y-10491619D02*
X13008833Y-10510667D01*
X13008833Y-10510667D02*
X12999310Y-10539238D01*
X12999310Y-10539238D02*
X12885024Y-10653524D01*
X12885024Y-10653524D02*
X13008833Y-10653524D01*
X13132643Y-10453524D02*
X13151691Y-10453524D01*
X13151691Y-10453524D02*
X13170738Y-10463048D01*
X13170738Y-10463048D02*
X13180262Y-10472571D01*
X13180262Y-10472571D02*
X13189786Y-10491619D01*
X13189786Y-10491619D02*
X13199310Y-10529714D01*
X13199310Y-10529714D02*
X13199310Y-10577333D01*
X13199310Y-10577333D02*
X13189786Y-10615429D01*
X13189786Y-10615429D02*
X13180262Y-10634476D01*
X13180262Y-10634476D02*
X13170738Y-10644000D01*
X13170738Y-10644000D02*
X13151691Y-10653524D01*
X13151691Y-10653524D02*
X13132643Y-10653524D01*
X13132643Y-10653524D02*
X13113595Y-10644000D01*
X13113595Y-10644000D02*
X13104072Y-10634476D01*
X13104072Y-10634476D02*
X13094548Y-10615429D01*
X13094548Y-10615429D02*
X13085024Y-10577333D01*
X13085024Y-10577333D02*
X13085024Y-10529714D01*
X13085024Y-10529714D02*
X13094548Y-10491619D01*
X13094548Y-10491619D02*
X13104072Y-10472571D01*
X13104072Y-10472571D02*
X13113595Y-10463048D01*
X13113595Y-10463048D02*
X13132643Y-10453524D01*
X13437405Y-10653524D02*
X13437405Y-10453524D01*
X13523119Y-10653524D02*
X13523119Y-10548762D01*
X13523119Y-10548762D02*
X13513595Y-10529714D01*
X13513595Y-10529714D02*
X13494548Y-10520190D01*
X13494548Y-10520190D02*
X13465976Y-10520190D01*
X13465976Y-10520190D02*
X13446929Y-10529714D01*
X13446929Y-10529714D02*
X13437405Y-10539238D01*
X13646929Y-10653524D02*
X13627881Y-10644000D01*
X13627881Y-10644000D02*
X13618357Y-10634476D01*
X13618357Y-10634476D02*
X13608834Y-10615429D01*
X13608834Y-10615429D02*
X13608834Y-10558286D01*
X13608834Y-10558286D02*
X13618357Y-10539238D01*
X13618357Y-10539238D02*
X13627881Y-10529714D01*
X13627881Y-10529714D02*
X13646929Y-10520190D01*
X13646929Y-10520190D02*
X13675500Y-10520190D01*
X13675500Y-10520190D02*
X13694548Y-10529714D01*
X13694548Y-10529714D02*
X13704072Y-10539238D01*
X13704072Y-10539238D02*
X13713595Y-10558286D01*
X13713595Y-10558286D02*
X13713595Y-10615429D01*
X13713595Y-10615429D02*
X13704072Y-10634476D01*
X13704072Y-10634476D02*
X13694548Y-10644000D01*
X13694548Y-10644000D02*
X13675500Y-10653524D01*
X13675500Y-10653524D02*
X13646929Y-10653524D01*
X13827881Y-10653524D02*
X13808834Y-10644000D01*
X13808834Y-10644000D02*
X13799310Y-10624952D01*
X13799310Y-10624952D02*
X13799310Y-10453524D01*
X13980262Y-10644000D02*
X13961215Y-10653524D01*
X13961215Y-10653524D02*
X13923119Y-10653524D01*
X13923119Y-10653524D02*
X13904072Y-10644000D01*
X13904072Y-10644000D02*
X13894548Y-10624952D01*
X13894548Y-10624952D02*
X13894548Y-10548762D01*
X13894548Y-10548762D02*
X13904072Y-10529714D01*
X13904072Y-10529714D02*
X13923119Y-10520190D01*
X13923119Y-10520190D02*
X13961215Y-10520190D01*
X13961215Y-10520190D02*
X13980262Y-10529714D01*
X13980262Y-10529714D02*
X13989786Y-10548762D01*
X13989786Y-10548762D02*
X13989786Y-10567810D01*
X13989786Y-10567810D02*
X13894548Y-10586857D01*
X14065976Y-10644000D02*
X14085024Y-10653524D01*
X14085024Y-10653524D02*
X14123119Y-10653524D01*
X14123119Y-10653524D02*
X14142167Y-10644000D01*
X14142167Y-10644000D02*
X14151691Y-10624952D01*
X14151691Y-10624952D02*
X14151691Y-10615429D01*
X14151691Y-10615429D02*
X14142167Y-10596381D01*
X14142167Y-10596381D02*
X14123119Y-10586857D01*
X14123119Y-10586857D02*
X14094548Y-10586857D01*
X14094548Y-10586857D02*
X14075500Y-10577333D01*
X14075500Y-10577333D02*
X14065976Y-10558286D01*
X14065976Y-10558286D02*
X14065976Y-10548762D01*
X14065976Y-10548762D02*
X14075500Y-10529714D01*
X14075500Y-10529714D02*
X14094548Y-10520190D01*
X14094548Y-10520190D02*
X14123119Y-10520190D01*
X14123119Y-10520190D02*
X14142167Y-10529714D01*
X14218357Y-10729714D02*
X14227881Y-10720190D01*
X14227881Y-10720190D02*
X14246929Y-10691619D01*
X14246929Y-10691619D02*
X14256453Y-10672571D01*
X14256453Y-10672571D02*
X14265976Y-10644000D01*
X14265976Y-10644000D02*
X14275500Y-10596381D01*
X14275500Y-10596381D02*
X14275500Y-10558286D01*
X14275500Y-10558286D02*
X14265976Y-10510667D01*
X14265976Y-10510667D02*
X14256453Y-10482095D01*
X14256453Y-10482095D02*
X14246929Y-10463048D01*
X14246929Y-10463048D02*
X14227881Y-10434476D01*
X14227881Y-10434476D02*
X14218357Y-10424952D01*
D14*
X9035500Y-10785000D02*
X9035500Y-10865000D01*
X8995500Y-10825000D02*
X9075500Y-10825000D01*
D11*
X9361214Y-10717524D02*
X9380262Y-10717524D01*
X9380262Y-10717524D02*
X9399309Y-10727048D01*
X9399309Y-10727048D02*
X9408833Y-10736571D01*
X9408833Y-10736571D02*
X9418357Y-10755619D01*
X9418357Y-10755619D02*
X9427881Y-10793714D01*
X9427881Y-10793714D02*
X9427881Y-10841333D01*
X9427881Y-10841333D02*
X9418357Y-10879429D01*
X9418357Y-10879429D02*
X9408833Y-10898476D01*
X9408833Y-10898476D02*
X9399309Y-10908000D01*
X9399309Y-10908000D02*
X9380262Y-10917524D01*
X9380262Y-10917524D02*
X9361214Y-10917524D01*
X9361214Y-10917524D02*
X9342167Y-10908000D01*
X9342167Y-10908000D02*
X9332643Y-10898476D01*
X9332643Y-10898476D02*
X9323119Y-10879429D01*
X9323119Y-10879429D02*
X9313595Y-10841333D01*
X9313595Y-10841333D02*
X9313595Y-10793714D01*
X9313595Y-10793714D02*
X9323119Y-10755619D01*
X9323119Y-10755619D02*
X9332643Y-10736571D01*
X9332643Y-10736571D02*
X9342167Y-10727048D01*
X9342167Y-10727048D02*
X9361214Y-10717524D01*
X9513595Y-10898476D02*
X9523119Y-10908000D01*
X9523119Y-10908000D02*
X9513595Y-10917524D01*
X9513595Y-10917524D02*
X9504071Y-10908000D01*
X9504071Y-10908000D02*
X9513595Y-10898476D01*
X9513595Y-10898476D02*
X9513595Y-10917524D01*
X9637405Y-10803238D02*
X9618357Y-10793714D01*
X9618357Y-10793714D02*
X9608833Y-10784190D01*
X9608833Y-10784190D02*
X9599309Y-10765143D01*
X9599309Y-10765143D02*
X9599309Y-10755619D01*
X9599309Y-10755619D02*
X9608833Y-10736571D01*
X9608833Y-10736571D02*
X9618357Y-10727048D01*
X9618357Y-10727048D02*
X9637405Y-10717524D01*
X9637405Y-10717524D02*
X9675500Y-10717524D01*
X9675500Y-10717524D02*
X9694548Y-10727048D01*
X9694548Y-10727048D02*
X9704071Y-10736571D01*
X9704071Y-10736571D02*
X9713595Y-10755619D01*
X9713595Y-10755619D02*
X9713595Y-10765143D01*
X9713595Y-10765143D02*
X9704071Y-10784190D01*
X9704071Y-10784190D02*
X9694548Y-10793714D01*
X9694548Y-10793714D02*
X9675500Y-10803238D01*
X9675500Y-10803238D02*
X9637405Y-10803238D01*
X9637405Y-10803238D02*
X9618357Y-10812762D01*
X9618357Y-10812762D02*
X9608833Y-10822286D01*
X9608833Y-10822286D02*
X9599309Y-10841333D01*
X9599309Y-10841333D02*
X9599309Y-10879429D01*
X9599309Y-10879429D02*
X9608833Y-10898476D01*
X9608833Y-10898476D02*
X9618357Y-10908000D01*
X9618357Y-10908000D02*
X9637405Y-10917524D01*
X9637405Y-10917524D02*
X9675500Y-10917524D01*
X9675500Y-10917524D02*
X9694548Y-10908000D01*
X9694548Y-10908000D02*
X9704071Y-10898476D01*
X9704071Y-10898476D02*
X9713595Y-10879429D01*
X9713595Y-10879429D02*
X9713595Y-10841333D01*
X9713595Y-10841333D02*
X9704071Y-10822286D01*
X9704071Y-10822286D02*
X9694548Y-10812762D01*
X9694548Y-10812762D02*
X9675500Y-10803238D01*
X9837405Y-10717524D02*
X9856452Y-10717524D01*
X9856452Y-10717524D02*
X9875500Y-10727048D01*
X9875500Y-10727048D02*
X9885024Y-10736571D01*
X9885024Y-10736571D02*
X9894548Y-10755619D01*
X9894548Y-10755619D02*
X9904071Y-10793714D01*
X9904071Y-10793714D02*
X9904071Y-10841333D01*
X9904071Y-10841333D02*
X9894548Y-10879429D01*
X9894548Y-10879429D02*
X9885024Y-10898476D01*
X9885024Y-10898476D02*
X9875500Y-10908000D01*
X9875500Y-10908000D02*
X9856452Y-10917524D01*
X9856452Y-10917524D02*
X9837405Y-10917524D01*
X9837405Y-10917524D02*
X9818357Y-10908000D01*
X9818357Y-10908000D02*
X9808833Y-10898476D01*
X9808833Y-10898476D02*
X9799309Y-10879429D01*
X9799309Y-10879429D02*
X9789786Y-10841333D01*
X9789786Y-10841333D02*
X9789786Y-10793714D01*
X9789786Y-10793714D02*
X9799309Y-10755619D01*
X9799309Y-10755619D02*
X9808833Y-10736571D01*
X9808833Y-10736571D02*
X9818357Y-10727048D01*
X9818357Y-10727048D02*
X9837405Y-10717524D01*
X10027881Y-10717524D02*
X10046929Y-10717524D01*
X10046929Y-10717524D02*
X10065976Y-10727048D01*
X10065976Y-10727048D02*
X10075500Y-10736571D01*
X10075500Y-10736571D02*
X10085024Y-10755619D01*
X10085024Y-10755619D02*
X10094548Y-10793714D01*
X10094548Y-10793714D02*
X10094548Y-10841333D01*
X10094548Y-10841333D02*
X10085024Y-10879429D01*
X10085024Y-10879429D02*
X10075500Y-10898476D01*
X10075500Y-10898476D02*
X10065976Y-10908000D01*
X10065976Y-10908000D02*
X10046929Y-10917524D01*
X10046929Y-10917524D02*
X10027881Y-10917524D01*
X10027881Y-10917524D02*
X10008833Y-10908000D01*
X10008833Y-10908000D02*
X9999309Y-10898476D01*
X9999309Y-10898476D02*
X9989786Y-10879429D01*
X9989786Y-10879429D02*
X9980262Y-10841333D01*
X9980262Y-10841333D02*
X9980262Y-10793714D01*
X9980262Y-10793714D02*
X9989786Y-10755619D01*
X9989786Y-10755619D02*
X9999309Y-10736571D01*
X9999309Y-10736571D02*
X10008833Y-10727048D01*
X10008833Y-10727048D02*
X10027881Y-10717524D01*
X10180262Y-10917524D02*
X10180262Y-10784190D01*
X10180262Y-10803238D02*
X10189786Y-10793714D01*
X10189786Y-10793714D02*
X10208833Y-10784190D01*
X10208833Y-10784190D02*
X10237405Y-10784190D01*
X10237405Y-10784190D02*
X10256452Y-10793714D01*
X10256452Y-10793714D02*
X10265976Y-10812762D01*
X10265976Y-10812762D02*
X10265976Y-10917524D01*
X10265976Y-10812762D02*
X10275500Y-10793714D01*
X10275500Y-10793714D02*
X10294548Y-10784190D01*
X10294548Y-10784190D02*
X10323119Y-10784190D01*
X10323119Y-10784190D02*
X10342167Y-10793714D01*
X10342167Y-10793714D02*
X10351690Y-10812762D01*
X10351690Y-10812762D02*
X10351690Y-10917524D01*
X10446929Y-10917524D02*
X10446929Y-10784190D01*
X10446929Y-10803238D02*
X10456452Y-10793714D01*
X10456452Y-10793714D02*
X10475500Y-10784190D01*
X10475500Y-10784190D02*
X10504071Y-10784190D01*
X10504071Y-10784190D02*
X10523119Y-10793714D01*
X10523119Y-10793714D02*
X10532643Y-10812762D01*
X10532643Y-10812762D02*
X10532643Y-10917524D01*
X10532643Y-10812762D02*
X10542167Y-10793714D01*
X10542167Y-10793714D02*
X10561214Y-10784190D01*
X10561214Y-10784190D02*
X10589786Y-10784190D01*
X10589786Y-10784190D02*
X10608833Y-10793714D01*
X10608833Y-10793714D02*
X10618357Y-10812762D01*
X10618357Y-10812762D02*
X10618357Y-10917524D01*
X11008833Y-10708000D02*
X10837405Y-10965143D01*
X11265976Y-10717524D02*
X11285024Y-10717524D01*
X11285024Y-10717524D02*
X11304071Y-10727048D01*
X11304071Y-10727048D02*
X11313595Y-10736571D01*
X11313595Y-10736571D02*
X11323119Y-10755619D01*
X11323119Y-10755619D02*
X11332643Y-10793714D01*
X11332643Y-10793714D02*
X11332643Y-10841333D01*
X11332643Y-10841333D02*
X11323119Y-10879429D01*
X11323119Y-10879429D02*
X11313595Y-10898476D01*
X11313595Y-10898476D02*
X11304071Y-10908000D01*
X11304071Y-10908000D02*
X11285024Y-10917524D01*
X11285024Y-10917524D02*
X11265976Y-10917524D01*
X11265976Y-10917524D02*
X11246929Y-10908000D01*
X11246929Y-10908000D02*
X11237405Y-10898476D01*
X11237405Y-10898476D02*
X11227881Y-10879429D01*
X11227881Y-10879429D02*
X11218357Y-10841333D01*
X11218357Y-10841333D02*
X11218357Y-10793714D01*
X11218357Y-10793714D02*
X11227881Y-10755619D01*
X11227881Y-10755619D02*
X11237405Y-10736571D01*
X11237405Y-10736571D02*
X11246929Y-10727048D01*
X11246929Y-10727048D02*
X11265976Y-10717524D01*
X11418357Y-10898476D02*
X11427881Y-10908000D01*
X11427881Y-10908000D02*
X11418357Y-10917524D01*
X11418357Y-10917524D02*
X11408833Y-10908000D01*
X11408833Y-10908000D02*
X11418357Y-10898476D01*
X11418357Y-10898476D02*
X11418357Y-10917524D01*
X11551690Y-10717524D02*
X11570738Y-10717524D01*
X11570738Y-10717524D02*
X11589786Y-10727048D01*
X11589786Y-10727048D02*
X11599310Y-10736571D01*
X11599310Y-10736571D02*
X11608833Y-10755619D01*
X11608833Y-10755619D02*
X11618357Y-10793714D01*
X11618357Y-10793714D02*
X11618357Y-10841333D01*
X11618357Y-10841333D02*
X11608833Y-10879429D01*
X11608833Y-10879429D02*
X11599310Y-10898476D01*
X11599310Y-10898476D02*
X11589786Y-10908000D01*
X11589786Y-10908000D02*
X11570738Y-10917524D01*
X11570738Y-10917524D02*
X11551690Y-10917524D01*
X11551690Y-10917524D02*
X11532643Y-10908000D01*
X11532643Y-10908000D02*
X11523119Y-10898476D01*
X11523119Y-10898476D02*
X11513595Y-10879429D01*
X11513595Y-10879429D02*
X11504071Y-10841333D01*
X11504071Y-10841333D02*
X11504071Y-10793714D01*
X11504071Y-10793714D02*
X11513595Y-10755619D01*
X11513595Y-10755619D02*
X11523119Y-10736571D01*
X11523119Y-10736571D02*
X11532643Y-10727048D01*
X11532643Y-10727048D02*
X11551690Y-10717524D01*
X11685024Y-10717524D02*
X11808833Y-10717524D01*
X11808833Y-10717524D02*
X11742167Y-10793714D01*
X11742167Y-10793714D02*
X11770738Y-10793714D01*
X11770738Y-10793714D02*
X11789786Y-10803238D01*
X11789786Y-10803238D02*
X11799310Y-10812762D01*
X11799310Y-10812762D02*
X11808833Y-10831810D01*
X11808833Y-10831810D02*
X11808833Y-10879429D01*
X11808833Y-10879429D02*
X11799310Y-10898476D01*
X11799310Y-10898476D02*
X11789786Y-10908000D01*
X11789786Y-10908000D02*
X11770738Y-10917524D01*
X11770738Y-10917524D02*
X11713595Y-10917524D01*
X11713595Y-10917524D02*
X11694548Y-10908000D01*
X11694548Y-10908000D02*
X11685024Y-10898476D01*
X11999310Y-10917524D02*
X11885024Y-10917524D01*
X11942167Y-10917524D02*
X11942167Y-10717524D01*
X11942167Y-10717524D02*
X11923119Y-10746095D01*
X11923119Y-10746095D02*
X11904071Y-10765143D01*
X11904071Y-10765143D02*
X11885024Y-10774667D01*
X12180262Y-10717524D02*
X12085024Y-10717524D01*
X12085024Y-10717524D02*
X12075500Y-10812762D01*
X12075500Y-10812762D02*
X12085024Y-10803238D01*
X12085024Y-10803238D02*
X12104071Y-10793714D01*
X12104071Y-10793714D02*
X12151691Y-10793714D01*
X12151691Y-10793714D02*
X12170738Y-10803238D01*
X12170738Y-10803238D02*
X12180262Y-10812762D01*
X12180262Y-10812762D02*
X12189786Y-10831810D01*
X12189786Y-10831810D02*
X12189786Y-10879429D01*
X12189786Y-10879429D02*
X12180262Y-10898476D01*
X12180262Y-10898476D02*
X12170738Y-10908000D01*
X12170738Y-10908000D02*
X12151691Y-10917524D01*
X12151691Y-10917524D02*
X12104071Y-10917524D01*
X12104071Y-10917524D02*
X12085024Y-10908000D01*
X12085024Y-10908000D02*
X12075500Y-10898476D01*
X12265976Y-10717524D02*
X12265976Y-10755619D01*
X12342167Y-10717524D02*
X12342167Y-10755619D01*
X12637405Y-10993714D02*
X12627881Y-10984190D01*
X12627881Y-10984190D02*
X12608833Y-10955619D01*
X12608833Y-10955619D02*
X12599310Y-10936571D01*
X12599310Y-10936571D02*
X12589786Y-10908000D01*
X12589786Y-10908000D02*
X12580262Y-10860381D01*
X12580262Y-10860381D02*
X12580262Y-10822286D01*
X12580262Y-10822286D02*
X12589786Y-10774667D01*
X12589786Y-10774667D02*
X12599310Y-10746095D01*
X12599310Y-10746095D02*
X12608833Y-10727048D01*
X12608833Y-10727048D02*
X12627881Y-10698476D01*
X12627881Y-10698476D02*
X12637405Y-10688952D01*
X12751691Y-10717524D02*
X12770738Y-10717524D01*
X12770738Y-10717524D02*
X12789786Y-10727048D01*
X12789786Y-10727048D02*
X12799310Y-10736571D01*
X12799310Y-10736571D02*
X12808833Y-10755619D01*
X12808833Y-10755619D02*
X12818357Y-10793714D01*
X12818357Y-10793714D02*
X12818357Y-10841333D01*
X12818357Y-10841333D02*
X12808833Y-10879429D01*
X12808833Y-10879429D02*
X12799310Y-10898476D01*
X12799310Y-10898476D02*
X12789786Y-10908000D01*
X12789786Y-10908000D02*
X12770738Y-10917524D01*
X12770738Y-10917524D02*
X12751691Y-10917524D01*
X12751691Y-10917524D02*
X12732643Y-10908000D01*
X12732643Y-10908000D02*
X12723119Y-10898476D01*
X12723119Y-10898476D02*
X12713595Y-10879429D01*
X12713595Y-10879429D02*
X12704072Y-10841333D01*
X12704072Y-10841333D02*
X12704072Y-10793714D01*
X12704072Y-10793714D02*
X12713595Y-10755619D01*
X12713595Y-10755619D02*
X12723119Y-10736571D01*
X12723119Y-10736571D02*
X12732643Y-10727048D01*
X12732643Y-10727048D02*
X12751691Y-10717524D01*
X13056453Y-10917524D02*
X13056453Y-10717524D01*
X13142167Y-10917524D02*
X13142167Y-10812762D01*
X13142167Y-10812762D02*
X13132643Y-10793714D01*
X13132643Y-10793714D02*
X13113595Y-10784190D01*
X13113595Y-10784190D02*
X13085024Y-10784190D01*
X13085024Y-10784190D02*
X13065976Y-10793714D01*
X13065976Y-10793714D02*
X13056453Y-10803238D01*
X13265976Y-10917524D02*
X13246929Y-10908000D01*
X13246929Y-10908000D02*
X13237405Y-10898476D01*
X13237405Y-10898476D02*
X13227881Y-10879429D01*
X13227881Y-10879429D02*
X13227881Y-10822286D01*
X13227881Y-10822286D02*
X13237405Y-10803238D01*
X13237405Y-10803238D02*
X13246929Y-10793714D01*
X13246929Y-10793714D02*
X13265976Y-10784190D01*
X13265976Y-10784190D02*
X13294548Y-10784190D01*
X13294548Y-10784190D02*
X13313595Y-10793714D01*
X13313595Y-10793714D02*
X13323119Y-10803238D01*
X13323119Y-10803238D02*
X13332643Y-10822286D01*
X13332643Y-10822286D02*
X13332643Y-10879429D01*
X13332643Y-10879429D02*
X13323119Y-10898476D01*
X13323119Y-10898476D02*
X13313595Y-10908000D01*
X13313595Y-10908000D02*
X13294548Y-10917524D01*
X13294548Y-10917524D02*
X13265976Y-10917524D01*
X13446929Y-10917524D02*
X13427881Y-10908000D01*
X13427881Y-10908000D02*
X13418357Y-10888952D01*
X13418357Y-10888952D02*
X13418357Y-10717524D01*
X13599310Y-10908000D02*
X13580262Y-10917524D01*
X13580262Y-10917524D02*
X13542167Y-10917524D01*
X13542167Y-10917524D02*
X13523119Y-10908000D01*
X13523119Y-10908000D02*
X13513595Y-10888952D01*
X13513595Y-10888952D02*
X13513595Y-10812762D01*
X13513595Y-10812762D02*
X13523119Y-10793714D01*
X13523119Y-10793714D02*
X13542167Y-10784190D01*
X13542167Y-10784190D02*
X13580262Y-10784190D01*
X13580262Y-10784190D02*
X13599310Y-10793714D01*
X13599310Y-10793714D02*
X13608834Y-10812762D01*
X13608834Y-10812762D02*
X13608834Y-10831810D01*
X13608834Y-10831810D02*
X13513595Y-10850857D01*
X13685024Y-10908000D02*
X13704072Y-10917524D01*
X13704072Y-10917524D02*
X13742167Y-10917524D01*
X13742167Y-10917524D02*
X13761215Y-10908000D01*
X13761215Y-10908000D02*
X13770738Y-10888952D01*
X13770738Y-10888952D02*
X13770738Y-10879429D01*
X13770738Y-10879429D02*
X13761215Y-10860381D01*
X13761215Y-10860381D02*
X13742167Y-10850857D01*
X13742167Y-10850857D02*
X13713595Y-10850857D01*
X13713595Y-10850857D02*
X13694548Y-10841333D01*
X13694548Y-10841333D02*
X13685024Y-10822286D01*
X13685024Y-10822286D02*
X13685024Y-10812762D01*
X13685024Y-10812762D02*
X13694548Y-10793714D01*
X13694548Y-10793714D02*
X13713595Y-10784190D01*
X13713595Y-10784190D02*
X13742167Y-10784190D01*
X13742167Y-10784190D02*
X13761215Y-10793714D01*
X14008834Y-10841333D02*
X14161215Y-10841333D01*
X14085024Y-10917524D02*
X14085024Y-10765143D01*
X14399310Y-10736571D02*
X14408834Y-10727048D01*
X14408834Y-10727048D02*
X14427881Y-10717524D01*
X14427881Y-10717524D02*
X14475500Y-10717524D01*
X14475500Y-10717524D02*
X14494548Y-10727048D01*
X14494548Y-10727048D02*
X14504072Y-10736571D01*
X14504072Y-10736571D02*
X14513596Y-10755619D01*
X14513596Y-10755619D02*
X14513596Y-10774667D01*
X14513596Y-10774667D02*
X14504072Y-10803238D01*
X14504072Y-10803238D02*
X14389786Y-10917524D01*
X14389786Y-10917524D02*
X14513596Y-10917524D01*
X14742167Y-10908000D02*
X14761215Y-10917524D01*
X14761215Y-10917524D02*
X14799310Y-10917524D01*
X14799310Y-10917524D02*
X14818358Y-10908000D01*
X14818358Y-10908000D02*
X14827881Y-10888952D01*
X14827881Y-10888952D02*
X14827881Y-10879429D01*
X14827881Y-10879429D02*
X14818358Y-10860381D01*
X14818358Y-10860381D02*
X14799310Y-10850857D01*
X14799310Y-10850857D02*
X14770738Y-10850857D01*
X14770738Y-10850857D02*
X14751691Y-10841333D01*
X14751691Y-10841333D02*
X14742167Y-10822286D01*
X14742167Y-10822286D02*
X14742167Y-10812762D01*
X14742167Y-10812762D02*
X14751691Y-10793714D01*
X14751691Y-10793714D02*
X14770738Y-10784190D01*
X14770738Y-10784190D02*
X14799310Y-10784190D01*
X14799310Y-10784190D02*
X14818358Y-10793714D01*
X14942167Y-10917524D02*
X14923119Y-10908000D01*
X14923119Y-10908000D02*
X14913596Y-10888952D01*
X14913596Y-10888952D02*
X14913596Y-10717524D01*
X15046929Y-10917524D02*
X15027881Y-10908000D01*
X15027881Y-10908000D02*
X15018358Y-10898476D01*
X15018358Y-10898476D02*
X15008834Y-10879429D01*
X15008834Y-10879429D02*
X15008834Y-10822286D01*
X15008834Y-10822286D02*
X15018358Y-10803238D01*
X15018358Y-10803238D02*
X15027881Y-10793714D01*
X15027881Y-10793714D02*
X15046929Y-10784190D01*
X15046929Y-10784190D02*
X15075500Y-10784190D01*
X15075500Y-10784190D02*
X15094548Y-10793714D01*
X15094548Y-10793714D02*
X15104072Y-10803238D01*
X15104072Y-10803238D02*
X15113596Y-10822286D01*
X15113596Y-10822286D02*
X15113596Y-10879429D01*
X15113596Y-10879429D02*
X15104072Y-10898476D01*
X15104072Y-10898476D02*
X15094548Y-10908000D01*
X15094548Y-10908000D02*
X15075500Y-10917524D01*
X15075500Y-10917524D02*
X15046929Y-10917524D01*
X15170739Y-10784190D02*
X15246929Y-10784190D01*
X15199310Y-10717524D02*
X15199310Y-10888952D01*
X15199310Y-10888952D02*
X15208834Y-10908000D01*
X15208834Y-10908000D02*
X15227881Y-10917524D01*
X15227881Y-10917524D02*
X15246929Y-10917524D01*
X15304072Y-10908000D02*
X15323119Y-10917524D01*
X15323119Y-10917524D02*
X15361215Y-10917524D01*
X15361215Y-10917524D02*
X15380262Y-10908000D01*
X15380262Y-10908000D02*
X15389786Y-10888952D01*
X15389786Y-10888952D02*
X15389786Y-10879429D01*
X15389786Y-10879429D02*
X15380262Y-10860381D01*
X15380262Y-10860381D02*
X15361215Y-10850857D01*
X15361215Y-10850857D02*
X15332643Y-10850857D01*
X15332643Y-10850857D02*
X15313596Y-10841333D01*
X15313596Y-10841333D02*
X15304072Y-10822286D01*
X15304072Y-10822286D02*
X15304072Y-10812762D01*
X15304072Y-10812762D02*
X15313596Y-10793714D01*
X15313596Y-10793714D02*
X15332643Y-10784190D01*
X15332643Y-10784190D02*
X15361215Y-10784190D01*
X15361215Y-10784190D02*
X15380262Y-10793714D01*
X15456453Y-10993714D02*
X15465977Y-10984190D01*
X15465977Y-10984190D02*
X15485024Y-10955619D01*
X15485024Y-10955619D02*
X15494548Y-10936571D01*
X15494548Y-10936571D02*
X15504072Y-10908000D01*
X15504072Y-10908000D02*
X15513596Y-10860381D01*
X15513596Y-10860381D02*
X15513596Y-10822286D01*
X15513596Y-10822286D02*
X15504072Y-10774667D01*
X15504072Y-10774667D02*
X15494548Y-10746095D01*
X15494548Y-10746095D02*
X15485024Y-10727048D01*
X15485024Y-10727048D02*
X15465977Y-10698476D01*
X15465977Y-10698476D02*
X15456453Y-10688952D01*
D15*
X9062320Y-11120820D02*
X9062320Y-11057180D01*
X8998680Y-11057180D01*
X8998680Y-11120820D01*
X9062320Y-11120820D01*
D11*
X9361214Y-10981524D02*
X9380262Y-10981524D01*
X9380262Y-10981524D02*
X9399309Y-10991048D01*
X9399309Y-10991048D02*
X9408833Y-11000571D01*
X9408833Y-11000571D02*
X9418357Y-11019619D01*
X9418357Y-11019619D02*
X9427881Y-11057714D01*
X9427881Y-11057714D02*
X9427881Y-11105333D01*
X9427881Y-11105333D02*
X9418357Y-11143429D01*
X9418357Y-11143429D02*
X9408833Y-11162476D01*
X9408833Y-11162476D02*
X9399309Y-11172000D01*
X9399309Y-11172000D02*
X9380262Y-11181524D01*
X9380262Y-11181524D02*
X9361214Y-11181524D01*
X9361214Y-11181524D02*
X9342167Y-11172000D01*
X9342167Y-11172000D02*
X9332643Y-11162476D01*
X9332643Y-11162476D02*
X9323119Y-11143429D01*
X9323119Y-11143429D02*
X9313595Y-11105333D01*
X9313595Y-11105333D02*
X9313595Y-11057714D01*
X9313595Y-11057714D02*
X9323119Y-11019619D01*
X9323119Y-11019619D02*
X9332643Y-11000571D01*
X9332643Y-11000571D02*
X9342167Y-10991048D01*
X9342167Y-10991048D02*
X9361214Y-10981524D01*
X9513595Y-11162476D02*
X9523119Y-11172000D01*
X9523119Y-11172000D02*
X9513595Y-11181524D01*
X9513595Y-11181524D02*
X9504071Y-11172000D01*
X9504071Y-11172000D02*
X9513595Y-11162476D01*
X9513595Y-11162476D02*
X9513595Y-11181524D01*
X9618357Y-11181524D02*
X9656452Y-11181524D01*
X9656452Y-11181524D02*
X9675500Y-11172000D01*
X9675500Y-11172000D02*
X9685024Y-11162476D01*
X9685024Y-11162476D02*
X9704071Y-11133905D01*
X9704071Y-11133905D02*
X9713595Y-11095810D01*
X9713595Y-11095810D02*
X9713595Y-11019619D01*
X9713595Y-11019619D02*
X9704071Y-11000571D01*
X9704071Y-11000571D02*
X9694548Y-10991048D01*
X9694548Y-10991048D02*
X9675500Y-10981524D01*
X9675500Y-10981524D02*
X9637405Y-10981524D01*
X9637405Y-10981524D02*
X9618357Y-10991048D01*
X9618357Y-10991048D02*
X9608833Y-11000571D01*
X9608833Y-11000571D02*
X9599309Y-11019619D01*
X9599309Y-11019619D02*
X9599309Y-11067238D01*
X9599309Y-11067238D02*
X9608833Y-11086286D01*
X9608833Y-11086286D02*
X9618357Y-11095810D01*
X9618357Y-11095810D02*
X9637405Y-11105333D01*
X9637405Y-11105333D02*
X9675500Y-11105333D01*
X9675500Y-11105333D02*
X9694548Y-11095810D01*
X9694548Y-11095810D02*
X9704071Y-11086286D01*
X9704071Y-11086286D02*
X9713595Y-11067238D01*
X9837405Y-10981524D02*
X9856452Y-10981524D01*
X9856452Y-10981524D02*
X9875500Y-10991048D01*
X9875500Y-10991048D02*
X9885024Y-11000571D01*
X9885024Y-11000571D02*
X9894548Y-11019619D01*
X9894548Y-11019619D02*
X9904071Y-11057714D01*
X9904071Y-11057714D02*
X9904071Y-11105333D01*
X9904071Y-11105333D02*
X9894548Y-11143429D01*
X9894548Y-11143429D02*
X9885024Y-11162476D01*
X9885024Y-11162476D02*
X9875500Y-11172000D01*
X9875500Y-11172000D02*
X9856452Y-11181524D01*
X9856452Y-11181524D02*
X9837405Y-11181524D01*
X9837405Y-11181524D02*
X9818357Y-11172000D01*
X9818357Y-11172000D02*
X9808833Y-11162476D01*
X9808833Y-11162476D02*
X9799309Y-11143429D01*
X9799309Y-11143429D02*
X9789786Y-11105333D01*
X9789786Y-11105333D02*
X9789786Y-11057714D01*
X9789786Y-11057714D02*
X9799309Y-11019619D01*
X9799309Y-11019619D02*
X9808833Y-11000571D01*
X9808833Y-11000571D02*
X9818357Y-10991048D01*
X9818357Y-10991048D02*
X9837405Y-10981524D01*
X10027881Y-10981524D02*
X10046929Y-10981524D01*
X10046929Y-10981524D02*
X10065976Y-10991048D01*
X10065976Y-10991048D02*
X10075500Y-11000571D01*
X10075500Y-11000571D02*
X10085024Y-11019619D01*
X10085024Y-11019619D02*
X10094548Y-11057714D01*
X10094548Y-11057714D02*
X10094548Y-11105333D01*
X10094548Y-11105333D02*
X10085024Y-11143429D01*
X10085024Y-11143429D02*
X10075500Y-11162476D01*
X10075500Y-11162476D02*
X10065976Y-11172000D01*
X10065976Y-11172000D02*
X10046929Y-11181524D01*
X10046929Y-11181524D02*
X10027881Y-11181524D01*
X10027881Y-11181524D02*
X10008833Y-11172000D01*
X10008833Y-11172000D02*
X9999309Y-11162476D01*
X9999309Y-11162476D02*
X9989786Y-11143429D01*
X9989786Y-11143429D02*
X9980262Y-11105333D01*
X9980262Y-11105333D02*
X9980262Y-11057714D01*
X9980262Y-11057714D02*
X9989786Y-11019619D01*
X9989786Y-11019619D02*
X9999309Y-11000571D01*
X9999309Y-11000571D02*
X10008833Y-10991048D01*
X10008833Y-10991048D02*
X10027881Y-10981524D01*
X10180262Y-11181524D02*
X10180262Y-11048190D01*
X10180262Y-11067238D02*
X10189786Y-11057714D01*
X10189786Y-11057714D02*
X10208833Y-11048190D01*
X10208833Y-11048190D02*
X10237405Y-11048190D01*
X10237405Y-11048190D02*
X10256452Y-11057714D01*
X10256452Y-11057714D02*
X10265976Y-11076762D01*
X10265976Y-11076762D02*
X10265976Y-11181524D01*
X10265976Y-11076762D02*
X10275500Y-11057714D01*
X10275500Y-11057714D02*
X10294548Y-11048190D01*
X10294548Y-11048190D02*
X10323119Y-11048190D01*
X10323119Y-11048190D02*
X10342167Y-11057714D01*
X10342167Y-11057714D02*
X10351690Y-11076762D01*
X10351690Y-11076762D02*
X10351690Y-11181524D01*
X10446929Y-11181524D02*
X10446929Y-11048190D01*
X10446929Y-11067238D02*
X10456452Y-11057714D01*
X10456452Y-11057714D02*
X10475500Y-11048190D01*
X10475500Y-11048190D02*
X10504071Y-11048190D01*
X10504071Y-11048190D02*
X10523119Y-11057714D01*
X10523119Y-11057714D02*
X10532643Y-11076762D01*
X10532643Y-11076762D02*
X10532643Y-11181524D01*
X10532643Y-11076762D02*
X10542167Y-11057714D01*
X10542167Y-11057714D02*
X10561214Y-11048190D01*
X10561214Y-11048190D02*
X10589786Y-11048190D01*
X10589786Y-11048190D02*
X10608833Y-11057714D01*
X10608833Y-11057714D02*
X10618357Y-11076762D01*
X10618357Y-11076762D02*
X10618357Y-11181524D01*
X11008833Y-10972000D02*
X10837405Y-11229143D01*
X11265976Y-10981524D02*
X11285024Y-10981524D01*
X11285024Y-10981524D02*
X11304071Y-10991048D01*
X11304071Y-10991048D02*
X11313595Y-11000571D01*
X11313595Y-11000571D02*
X11323119Y-11019619D01*
X11323119Y-11019619D02*
X11332643Y-11057714D01*
X11332643Y-11057714D02*
X11332643Y-11105333D01*
X11332643Y-11105333D02*
X11323119Y-11143429D01*
X11323119Y-11143429D02*
X11313595Y-11162476D01*
X11313595Y-11162476D02*
X11304071Y-11172000D01*
X11304071Y-11172000D02*
X11285024Y-11181524D01*
X11285024Y-11181524D02*
X11265976Y-11181524D01*
X11265976Y-11181524D02*
X11246929Y-11172000D01*
X11246929Y-11172000D02*
X11237405Y-11162476D01*
X11237405Y-11162476D02*
X11227881Y-11143429D01*
X11227881Y-11143429D02*
X11218357Y-11105333D01*
X11218357Y-11105333D02*
X11218357Y-11057714D01*
X11218357Y-11057714D02*
X11227881Y-11019619D01*
X11227881Y-11019619D02*
X11237405Y-11000571D01*
X11237405Y-11000571D02*
X11246929Y-10991048D01*
X11246929Y-10991048D02*
X11265976Y-10981524D01*
X11418357Y-11162476D02*
X11427881Y-11172000D01*
X11427881Y-11172000D02*
X11418357Y-11181524D01*
X11418357Y-11181524D02*
X11408833Y-11172000D01*
X11408833Y-11172000D02*
X11418357Y-11162476D01*
X11418357Y-11162476D02*
X11418357Y-11181524D01*
X11551690Y-10981524D02*
X11570738Y-10981524D01*
X11570738Y-10981524D02*
X11589786Y-10991048D01*
X11589786Y-10991048D02*
X11599310Y-11000571D01*
X11599310Y-11000571D02*
X11608833Y-11019619D01*
X11608833Y-11019619D02*
X11618357Y-11057714D01*
X11618357Y-11057714D02*
X11618357Y-11105333D01*
X11618357Y-11105333D02*
X11608833Y-11143429D01*
X11608833Y-11143429D02*
X11599310Y-11162476D01*
X11599310Y-11162476D02*
X11589786Y-11172000D01*
X11589786Y-11172000D02*
X11570738Y-11181524D01*
X11570738Y-11181524D02*
X11551690Y-11181524D01*
X11551690Y-11181524D02*
X11532643Y-11172000D01*
X11532643Y-11172000D02*
X11523119Y-11162476D01*
X11523119Y-11162476D02*
X11513595Y-11143429D01*
X11513595Y-11143429D02*
X11504071Y-11105333D01*
X11504071Y-11105333D02*
X11504071Y-11057714D01*
X11504071Y-11057714D02*
X11513595Y-11019619D01*
X11513595Y-11019619D02*
X11523119Y-11000571D01*
X11523119Y-11000571D02*
X11532643Y-10991048D01*
X11532643Y-10991048D02*
X11551690Y-10981524D01*
X11685024Y-10981524D02*
X11808833Y-10981524D01*
X11808833Y-10981524D02*
X11742167Y-11057714D01*
X11742167Y-11057714D02*
X11770738Y-11057714D01*
X11770738Y-11057714D02*
X11789786Y-11067238D01*
X11789786Y-11067238D02*
X11799310Y-11076762D01*
X11799310Y-11076762D02*
X11808833Y-11095810D01*
X11808833Y-11095810D02*
X11808833Y-11143429D01*
X11808833Y-11143429D02*
X11799310Y-11162476D01*
X11799310Y-11162476D02*
X11789786Y-11172000D01*
X11789786Y-11172000D02*
X11770738Y-11181524D01*
X11770738Y-11181524D02*
X11713595Y-11181524D01*
X11713595Y-11181524D02*
X11694548Y-11172000D01*
X11694548Y-11172000D02*
X11685024Y-11162476D01*
X11989786Y-10981524D02*
X11894548Y-10981524D01*
X11894548Y-10981524D02*
X11885024Y-11076762D01*
X11885024Y-11076762D02*
X11894548Y-11067238D01*
X11894548Y-11067238D02*
X11913595Y-11057714D01*
X11913595Y-11057714D02*
X11961214Y-11057714D01*
X11961214Y-11057714D02*
X11980262Y-11067238D01*
X11980262Y-11067238D02*
X11989786Y-11076762D01*
X11989786Y-11076762D02*
X11999310Y-11095810D01*
X11999310Y-11095810D02*
X11999310Y-11143429D01*
X11999310Y-11143429D02*
X11989786Y-11162476D01*
X11989786Y-11162476D02*
X11980262Y-11172000D01*
X11980262Y-11172000D02*
X11961214Y-11181524D01*
X11961214Y-11181524D02*
X11913595Y-11181524D01*
X11913595Y-11181524D02*
X11894548Y-11172000D01*
X11894548Y-11172000D02*
X11885024Y-11162476D01*
X12170738Y-11048190D02*
X12170738Y-11181524D01*
X12123119Y-10972000D02*
X12075500Y-11114857D01*
X12075500Y-11114857D02*
X12199310Y-11114857D01*
X12265976Y-10981524D02*
X12265976Y-11019619D01*
X12342167Y-10981524D02*
X12342167Y-11019619D01*
X12637405Y-11257714D02*
X12627881Y-11248190D01*
X12627881Y-11248190D02*
X12608833Y-11219619D01*
X12608833Y-11219619D02*
X12599310Y-11200571D01*
X12599310Y-11200571D02*
X12589786Y-11172000D01*
X12589786Y-11172000D02*
X12580262Y-11124381D01*
X12580262Y-11124381D02*
X12580262Y-11086286D01*
X12580262Y-11086286D02*
X12589786Y-11038667D01*
X12589786Y-11038667D02*
X12599310Y-11010095D01*
X12599310Y-11010095D02*
X12608833Y-10991048D01*
X12608833Y-10991048D02*
X12627881Y-10962476D01*
X12627881Y-10962476D02*
X12637405Y-10952952D01*
X12751691Y-10981524D02*
X12770738Y-10981524D01*
X12770738Y-10981524D02*
X12789786Y-10991048D01*
X12789786Y-10991048D02*
X12799310Y-11000571D01*
X12799310Y-11000571D02*
X12808833Y-11019619D01*
X12808833Y-11019619D02*
X12818357Y-11057714D01*
X12818357Y-11057714D02*
X12818357Y-11105333D01*
X12818357Y-11105333D02*
X12808833Y-11143429D01*
X12808833Y-11143429D02*
X12799310Y-11162476D01*
X12799310Y-11162476D02*
X12789786Y-11172000D01*
X12789786Y-11172000D02*
X12770738Y-11181524D01*
X12770738Y-11181524D02*
X12751691Y-11181524D01*
X12751691Y-11181524D02*
X12732643Y-11172000D01*
X12732643Y-11172000D02*
X12723119Y-11162476D01*
X12723119Y-11162476D02*
X12713595Y-11143429D01*
X12713595Y-11143429D02*
X12704072Y-11105333D01*
X12704072Y-11105333D02*
X12704072Y-11057714D01*
X12704072Y-11057714D02*
X12713595Y-11019619D01*
X12713595Y-11019619D02*
X12723119Y-11000571D01*
X12723119Y-11000571D02*
X12732643Y-10991048D01*
X12732643Y-10991048D02*
X12751691Y-10981524D01*
X13056453Y-11181524D02*
X13056453Y-10981524D01*
X13142167Y-11181524D02*
X13142167Y-11076762D01*
X13142167Y-11076762D02*
X13132643Y-11057714D01*
X13132643Y-11057714D02*
X13113595Y-11048190D01*
X13113595Y-11048190D02*
X13085024Y-11048190D01*
X13085024Y-11048190D02*
X13065976Y-11057714D01*
X13065976Y-11057714D02*
X13056453Y-11067238D01*
X13265976Y-11181524D02*
X13246929Y-11172000D01*
X13246929Y-11172000D02*
X13237405Y-11162476D01*
X13237405Y-11162476D02*
X13227881Y-11143429D01*
X13227881Y-11143429D02*
X13227881Y-11086286D01*
X13227881Y-11086286D02*
X13237405Y-11067238D01*
X13237405Y-11067238D02*
X13246929Y-11057714D01*
X13246929Y-11057714D02*
X13265976Y-11048190D01*
X13265976Y-11048190D02*
X13294548Y-11048190D01*
X13294548Y-11048190D02*
X13313595Y-11057714D01*
X13313595Y-11057714D02*
X13323119Y-11067238D01*
X13323119Y-11067238D02*
X13332643Y-11086286D01*
X13332643Y-11086286D02*
X13332643Y-11143429D01*
X13332643Y-11143429D02*
X13323119Y-11162476D01*
X13323119Y-11162476D02*
X13313595Y-11172000D01*
X13313595Y-11172000D02*
X13294548Y-11181524D01*
X13294548Y-11181524D02*
X13265976Y-11181524D01*
X13446929Y-11181524D02*
X13427881Y-11172000D01*
X13427881Y-11172000D02*
X13418357Y-11152952D01*
X13418357Y-11152952D02*
X13418357Y-10981524D01*
X13599310Y-11172000D02*
X13580262Y-11181524D01*
X13580262Y-11181524D02*
X13542167Y-11181524D01*
X13542167Y-11181524D02*
X13523119Y-11172000D01*
X13523119Y-11172000D02*
X13513595Y-11152952D01*
X13513595Y-11152952D02*
X13513595Y-11076762D01*
X13513595Y-11076762D02*
X13523119Y-11057714D01*
X13523119Y-11057714D02*
X13542167Y-11048190D01*
X13542167Y-11048190D02*
X13580262Y-11048190D01*
X13580262Y-11048190D02*
X13599310Y-11057714D01*
X13599310Y-11057714D02*
X13608834Y-11076762D01*
X13608834Y-11076762D02*
X13608834Y-11095810D01*
X13608834Y-11095810D02*
X13513595Y-11114857D01*
X13685024Y-11172000D02*
X13704072Y-11181524D01*
X13704072Y-11181524D02*
X13742167Y-11181524D01*
X13742167Y-11181524D02*
X13761215Y-11172000D01*
X13761215Y-11172000D02*
X13770738Y-11152952D01*
X13770738Y-11152952D02*
X13770738Y-11143429D01*
X13770738Y-11143429D02*
X13761215Y-11124381D01*
X13761215Y-11124381D02*
X13742167Y-11114857D01*
X13742167Y-11114857D02*
X13713595Y-11114857D01*
X13713595Y-11114857D02*
X13694548Y-11105333D01*
X13694548Y-11105333D02*
X13685024Y-11086286D01*
X13685024Y-11086286D02*
X13685024Y-11076762D01*
X13685024Y-11076762D02*
X13694548Y-11057714D01*
X13694548Y-11057714D02*
X13713595Y-11048190D01*
X13713595Y-11048190D02*
X13742167Y-11048190D01*
X13742167Y-11048190D02*
X13761215Y-11057714D01*
X14008834Y-11105333D02*
X14161215Y-11105333D01*
X14085024Y-11181524D02*
X14085024Y-11029143D01*
X14513596Y-11181524D02*
X14399310Y-11181524D01*
X14456453Y-11181524D02*
X14456453Y-10981524D01*
X14456453Y-10981524D02*
X14437405Y-11010095D01*
X14437405Y-11010095D02*
X14418357Y-11029143D01*
X14418357Y-11029143D02*
X14399310Y-11038667D01*
X14685024Y-11048190D02*
X14685024Y-11181524D01*
X14637405Y-10972000D02*
X14589786Y-11114857D01*
X14589786Y-11114857D02*
X14713596Y-11114857D01*
X14932643Y-11172000D02*
X14951691Y-11181524D01*
X14951691Y-11181524D02*
X14989786Y-11181524D01*
X14989786Y-11181524D02*
X15008834Y-11172000D01*
X15008834Y-11172000D02*
X15018358Y-11152952D01*
X15018358Y-11152952D02*
X15018358Y-11143429D01*
X15018358Y-11143429D02*
X15008834Y-11124381D01*
X15008834Y-11124381D02*
X14989786Y-11114857D01*
X14989786Y-11114857D02*
X14961215Y-11114857D01*
X14961215Y-11114857D02*
X14942167Y-11105333D01*
X14942167Y-11105333D02*
X14932643Y-11086286D01*
X14932643Y-11086286D02*
X14932643Y-11076762D01*
X14932643Y-11076762D02*
X14942167Y-11057714D01*
X14942167Y-11057714D02*
X14961215Y-11048190D01*
X14961215Y-11048190D02*
X14989786Y-11048190D01*
X14989786Y-11048190D02*
X15008834Y-11057714D01*
X15132643Y-11181524D02*
X15113596Y-11172000D01*
X15113596Y-11172000D02*
X15104072Y-11152952D01*
X15104072Y-11152952D02*
X15104072Y-10981524D01*
X15237405Y-11181524D02*
X15218358Y-11172000D01*
X15218358Y-11172000D02*
X15208834Y-11162476D01*
X15208834Y-11162476D02*
X15199310Y-11143429D01*
X15199310Y-11143429D02*
X15199310Y-11086286D01*
X15199310Y-11086286D02*
X15208834Y-11067238D01*
X15208834Y-11067238D02*
X15218358Y-11057714D01*
X15218358Y-11057714D02*
X15237405Y-11048190D01*
X15237405Y-11048190D02*
X15265977Y-11048190D01*
X15265977Y-11048190D02*
X15285024Y-11057714D01*
X15285024Y-11057714D02*
X15294548Y-11067238D01*
X15294548Y-11067238D02*
X15304072Y-11086286D01*
X15304072Y-11086286D02*
X15304072Y-11143429D01*
X15304072Y-11143429D02*
X15294548Y-11162476D01*
X15294548Y-11162476D02*
X15285024Y-11172000D01*
X15285024Y-11172000D02*
X15265977Y-11181524D01*
X15265977Y-11181524D02*
X15237405Y-11181524D01*
X15361215Y-11048190D02*
X15437405Y-11048190D01*
X15389786Y-10981524D02*
X15389786Y-11152952D01*
X15389786Y-11152952D02*
X15399310Y-11172000D01*
X15399310Y-11172000D02*
X15418358Y-11181524D01*
X15418358Y-11181524D02*
X15437405Y-11181524D01*
X15494548Y-11172000D02*
X15513596Y-11181524D01*
X15513596Y-11181524D02*
X15551691Y-11181524D01*
X15551691Y-11181524D02*
X15570739Y-11172000D01*
X15570739Y-11172000D02*
X15580262Y-11152952D01*
X15580262Y-11152952D02*
X15580262Y-11143429D01*
X15580262Y-11143429D02*
X15570739Y-11124381D01*
X15570739Y-11124381D02*
X15551691Y-11114857D01*
X15551691Y-11114857D02*
X15523119Y-11114857D01*
X15523119Y-11114857D02*
X15504072Y-11105333D01*
X15504072Y-11105333D02*
X15494548Y-11086286D01*
X15494548Y-11086286D02*
X15494548Y-11076762D01*
X15494548Y-11076762D02*
X15504072Y-11057714D01*
X15504072Y-11057714D02*
X15523119Y-11048190D01*
X15523119Y-11048190D02*
X15551691Y-11048190D01*
X15551691Y-11048190D02*
X15570739Y-11057714D01*
X15646929Y-11257714D02*
X15656453Y-11248190D01*
X15656453Y-11248190D02*
X15675500Y-11219619D01*
X15675500Y-11219619D02*
X15685024Y-11200571D01*
X15685024Y-11200571D02*
X15694548Y-11172000D01*
X15694548Y-11172000D02*
X15704072Y-11124381D01*
X15704072Y-11124381D02*
X15704072Y-11086286D01*
X15704072Y-11086286D02*
X15694548Y-11038667D01*
X15694548Y-11038667D02*
X15685024Y-11010095D01*
X15685024Y-11010095D02*
X15675500Y-10991048D01*
X15675500Y-10991048D02*
X15656453Y-10962476D01*
X15656453Y-10962476D02*
X15646929Y-10952952D01*
X8975500Y-11453000D02*
X9075500Y-11353000D01*
X8975500Y-11253000D01*
X8875500Y-11353000D01*
X8975500Y-11453000D01*
X9313595Y-11264571D02*
X9323119Y-11255048D01*
X9323119Y-11255048D02*
X9342167Y-11245524D01*
X9342167Y-11245524D02*
X9389786Y-11245524D01*
X9389786Y-11245524D02*
X9408833Y-11255048D01*
X9408833Y-11255048D02*
X9418357Y-11264571D01*
X9418357Y-11264571D02*
X9427881Y-11283619D01*
X9427881Y-11283619D02*
X9427881Y-11302667D01*
X9427881Y-11302667D02*
X9418357Y-11331238D01*
X9418357Y-11331238D02*
X9304071Y-11445524D01*
X9304071Y-11445524D02*
X9427881Y-11445524D01*
X9513595Y-11426476D02*
X9523119Y-11436000D01*
X9523119Y-11436000D02*
X9513595Y-11445524D01*
X9513595Y-11445524D02*
X9504071Y-11436000D01*
X9504071Y-11436000D02*
X9513595Y-11426476D01*
X9513595Y-11426476D02*
X9513595Y-11445524D01*
X9589786Y-11245524D02*
X9723119Y-11245524D01*
X9723119Y-11245524D02*
X9637405Y-11445524D01*
X9837405Y-11245524D02*
X9856452Y-11245524D01*
X9856452Y-11245524D02*
X9875500Y-11255048D01*
X9875500Y-11255048D02*
X9885024Y-11264571D01*
X9885024Y-11264571D02*
X9894548Y-11283619D01*
X9894548Y-11283619D02*
X9904071Y-11321714D01*
X9904071Y-11321714D02*
X9904071Y-11369333D01*
X9904071Y-11369333D02*
X9894548Y-11407428D01*
X9894548Y-11407428D02*
X9885024Y-11426476D01*
X9885024Y-11426476D02*
X9875500Y-11436000D01*
X9875500Y-11436000D02*
X9856452Y-11445524D01*
X9856452Y-11445524D02*
X9837405Y-11445524D01*
X9837405Y-11445524D02*
X9818357Y-11436000D01*
X9818357Y-11436000D02*
X9808833Y-11426476D01*
X9808833Y-11426476D02*
X9799309Y-11407428D01*
X9799309Y-11407428D02*
X9789786Y-11369333D01*
X9789786Y-11369333D02*
X9789786Y-11321714D01*
X9789786Y-11321714D02*
X9799309Y-11283619D01*
X9799309Y-11283619D02*
X9808833Y-11264571D01*
X9808833Y-11264571D02*
X9818357Y-11255048D01*
X9818357Y-11255048D02*
X9837405Y-11245524D01*
X10027881Y-11245524D02*
X10046929Y-11245524D01*
X10046929Y-11245524D02*
X10065976Y-11255048D01*
X10065976Y-11255048D02*
X10075500Y-11264571D01*
X10075500Y-11264571D02*
X10085024Y-11283619D01*
X10085024Y-11283619D02*
X10094548Y-11321714D01*
X10094548Y-11321714D02*
X10094548Y-11369333D01*
X10094548Y-11369333D02*
X10085024Y-11407428D01*
X10085024Y-11407428D02*
X10075500Y-11426476D01*
X10075500Y-11426476D02*
X10065976Y-11436000D01*
X10065976Y-11436000D02*
X10046929Y-11445524D01*
X10046929Y-11445524D02*
X10027881Y-11445524D01*
X10027881Y-11445524D02*
X10008833Y-11436000D01*
X10008833Y-11436000D02*
X9999309Y-11426476D01*
X9999309Y-11426476D02*
X9989786Y-11407428D01*
X9989786Y-11407428D02*
X9980262Y-11369333D01*
X9980262Y-11369333D02*
X9980262Y-11321714D01*
X9980262Y-11321714D02*
X9989786Y-11283619D01*
X9989786Y-11283619D02*
X9999309Y-11264571D01*
X9999309Y-11264571D02*
X10008833Y-11255048D01*
X10008833Y-11255048D02*
X10027881Y-11245524D01*
X10180262Y-11445524D02*
X10180262Y-11312190D01*
X10180262Y-11331238D02*
X10189786Y-11321714D01*
X10189786Y-11321714D02*
X10208833Y-11312190D01*
X10208833Y-11312190D02*
X10237405Y-11312190D01*
X10237405Y-11312190D02*
X10256452Y-11321714D01*
X10256452Y-11321714D02*
X10265976Y-11340762D01*
X10265976Y-11340762D02*
X10265976Y-11445524D01*
X10265976Y-11340762D02*
X10275500Y-11321714D01*
X10275500Y-11321714D02*
X10294548Y-11312190D01*
X10294548Y-11312190D02*
X10323119Y-11312190D01*
X10323119Y-11312190D02*
X10342167Y-11321714D01*
X10342167Y-11321714D02*
X10351690Y-11340762D01*
X10351690Y-11340762D02*
X10351690Y-11445524D01*
X10446929Y-11445524D02*
X10446929Y-11312190D01*
X10446929Y-11331238D02*
X10456452Y-11321714D01*
X10456452Y-11321714D02*
X10475500Y-11312190D01*
X10475500Y-11312190D02*
X10504071Y-11312190D01*
X10504071Y-11312190D02*
X10523119Y-11321714D01*
X10523119Y-11321714D02*
X10532643Y-11340762D01*
X10532643Y-11340762D02*
X10532643Y-11445524D01*
X10532643Y-11340762D02*
X10542167Y-11321714D01*
X10542167Y-11321714D02*
X10561214Y-11312190D01*
X10561214Y-11312190D02*
X10589786Y-11312190D01*
X10589786Y-11312190D02*
X10608833Y-11321714D01*
X10608833Y-11321714D02*
X10618357Y-11340762D01*
X10618357Y-11340762D02*
X10618357Y-11445524D01*
X11008833Y-11236000D02*
X10837405Y-11493143D01*
X11265976Y-11245524D02*
X11285024Y-11245524D01*
X11285024Y-11245524D02*
X11304071Y-11255048D01*
X11304071Y-11255048D02*
X11313595Y-11264571D01*
X11313595Y-11264571D02*
X11323119Y-11283619D01*
X11323119Y-11283619D02*
X11332643Y-11321714D01*
X11332643Y-11321714D02*
X11332643Y-11369333D01*
X11332643Y-11369333D02*
X11323119Y-11407428D01*
X11323119Y-11407428D02*
X11313595Y-11426476D01*
X11313595Y-11426476D02*
X11304071Y-11436000D01*
X11304071Y-11436000D02*
X11285024Y-11445524D01*
X11285024Y-11445524D02*
X11265976Y-11445524D01*
X11265976Y-11445524D02*
X11246929Y-11436000D01*
X11246929Y-11436000D02*
X11237405Y-11426476D01*
X11237405Y-11426476D02*
X11227881Y-11407428D01*
X11227881Y-11407428D02*
X11218357Y-11369333D01*
X11218357Y-11369333D02*
X11218357Y-11321714D01*
X11218357Y-11321714D02*
X11227881Y-11283619D01*
X11227881Y-11283619D02*
X11237405Y-11264571D01*
X11237405Y-11264571D02*
X11246929Y-11255048D01*
X11246929Y-11255048D02*
X11265976Y-11245524D01*
X11418357Y-11426476D02*
X11427881Y-11436000D01*
X11427881Y-11436000D02*
X11418357Y-11445524D01*
X11418357Y-11445524D02*
X11408833Y-11436000D01*
X11408833Y-11436000D02*
X11418357Y-11426476D01*
X11418357Y-11426476D02*
X11418357Y-11445524D01*
X11618357Y-11445524D02*
X11504071Y-11445524D01*
X11561214Y-11445524D02*
X11561214Y-11245524D01*
X11561214Y-11245524D02*
X11542167Y-11274095D01*
X11542167Y-11274095D02*
X11523119Y-11293143D01*
X11523119Y-11293143D02*
X11504071Y-11302667D01*
X11742167Y-11245524D02*
X11761214Y-11245524D01*
X11761214Y-11245524D02*
X11780262Y-11255048D01*
X11780262Y-11255048D02*
X11789786Y-11264571D01*
X11789786Y-11264571D02*
X11799310Y-11283619D01*
X11799310Y-11283619D02*
X11808833Y-11321714D01*
X11808833Y-11321714D02*
X11808833Y-11369333D01*
X11808833Y-11369333D02*
X11799310Y-11407428D01*
X11799310Y-11407428D02*
X11789786Y-11426476D01*
X11789786Y-11426476D02*
X11780262Y-11436000D01*
X11780262Y-11436000D02*
X11761214Y-11445524D01*
X11761214Y-11445524D02*
X11742167Y-11445524D01*
X11742167Y-11445524D02*
X11723119Y-11436000D01*
X11723119Y-11436000D02*
X11713595Y-11426476D01*
X11713595Y-11426476D02*
X11704071Y-11407428D01*
X11704071Y-11407428D02*
X11694548Y-11369333D01*
X11694548Y-11369333D02*
X11694548Y-11321714D01*
X11694548Y-11321714D02*
X11704071Y-11283619D01*
X11704071Y-11283619D02*
X11713595Y-11264571D01*
X11713595Y-11264571D02*
X11723119Y-11255048D01*
X11723119Y-11255048D02*
X11742167Y-11245524D01*
X11980262Y-11245524D02*
X11942167Y-11245524D01*
X11942167Y-11245524D02*
X11923119Y-11255048D01*
X11923119Y-11255048D02*
X11913595Y-11264571D01*
X11913595Y-11264571D02*
X11894548Y-11293143D01*
X11894548Y-11293143D02*
X11885024Y-11331238D01*
X11885024Y-11331238D02*
X11885024Y-11407428D01*
X11885024Y-11407428D02*
X11894548Y-11426476D01*
X11894548Y-11426476D02*
X11904071Y-11436000D01*
X11904071Y-11436000D02*
X11923119Y-11445524D01*
X11923119Y-11445524D02*
X11961214Y-11445524D01*
X11961214Y-11445524D02*
X11980262Y-11436000D01*
X11980262Y-11436000D02*
X11989786Y-11426476D01*
X11989786Y-11426476D02*
X11999310Y-11407428D01*
X11999310Y-11407428D02*
X11999310Y-11359809D01*
X11999310Y-11359809D02*
X11989786Y-11340762D01*
X11989786Y-11340762D02*
X11980262Y-11331238D01*
X11980262Y-11331238D02*
X11961214Y-11321714D01*
X11961214Y-11321714D02*
X11923119Y-11321714D01*
X11923119Y-11321714D02*
X11904071Y-11331238D01*
X11904071Y-11331238D02*
X11894548Y-11340762D01*
X11894548Y-11340762D02*
X11885024Y-11359809D01*
X12065976Y-11245524D02*
X12189786Y-11245524D01*
X12189786Y-11245524D02*
X12123119Y-11321714D01*
X12123119Y-11321714D02*
X12151691Y-11321714D01*
X12151691Y-11321714D02*
X12170738Y-11331238D01*
X12170738Y-11331238D02*
X12180262Y-11340762D01*
X12180262Y-11340762D02*
X12189786Y-11359809D01*
X12189786Y-11359809D02*
X12189786Y-11407428D01*
X12189786Y-11407428D02*
X12180262Y-11426476D01*
X12180262Y-11426476D02*
X12170738Y-11436000D01*
X12170738Y-11436000D02*
X12151691Y-11445524D01*
X12151691Y-11445524D02*
X12094548Y-11445524D01*
X12094548Y-11445524D02*
X12075500Y-11436000D01*
X12075500Y-11436000D02*
X12065976Y-11426476D01*
X12265976Y-11245524D02*
X12265976Y-11283619D01*
X12342167Y-11245524D02*
X12342167Y-11283619D01*
X12637405Y-11521714D02*
X12627881Y-11512190D01*
X12627881Y-11512190D02*
X12608833Y-11483619D01*
X12608833Y-11483619D02*
X12599310Y-11464571D01*
X12599310Y-11464571D02*
X12589786Y-11436000D01*
X12589786Y-11436000D02*
X12580262Y-11388381D01*
X12580262Y-11388381D02*
X12580262Y-11350286D01*
X12580262Y-11350286D02*
X12589786Y-11302667D01*
X12589786Y-11302667D02*
X12599310Y-11274095D01*
X12599310Y-11274095D02*
X12608833Y-11255048D01*
X12608833Y-11255048D02*
X12627881Y-11226476D01*
X12627881Y-11226476D02*
X12637405Y-11216952D01*
X12704072Y-11264571D02*
X12713595Y-11255048D01*
X12713595Y-11255048D02*
X12732643Y-11245524D01*
X12732643Y-11245524D02*
X12780262Y-11245524D01*
X12780262Y-11245524D02*
X12799310Y-11255048D01*
X12799310Y-11255048D02*
X12808833Y-11264571D01*
X12808833Y-11264571D02*
X12818357Y-11283619D01*
X12818357Y-11283619D02*
X12818357Y-11302667D01*
X12818357Y-11302667D02*
X12808833Y-11331238D01*
X12808833Y-11331238D02*
X12694548Y-11445524D01*
X12694548Y-11445524D02*
X12818357Y-11445524D01*
X13056453Y-11445524D02*
X13056453Y-11245524D01*
X13142167Y-11445524D02*
X13142167Y-11340762D01*
X13142167Y-11340762D02*
X13132643Y-11321714D01*
X13132643Y-11321714D02*
X13113595Y-11312190D01*
X13113595Y-11312190D02*
X13085024Y-11312190D01*
X13085024Y-11312190D02*
X13065976Y-11321714D01*
X13065976Y-11321714D02*
X13056453Y-11331238D01*
X13265976Y-11445524D02*
X13246929Y-11436000D01*
X13246929Y-11436000D02*
X13237405Y-11426476D01*
X13237405Y-11426476D02*
X13227881Y-11407428D01*
X13227881Y-11407428D02*
X13227881Y-11350286D01*
X13227881Y-11350286D02*
X13237405Y-11331238D01*
X13237405Y-11331238D02*
X13246929Y-11321714D01*
X13246929Y-11321714D02*
X13265976Y-11312190D01*
X13265976Y-11312190D02*
X13294548Y-11312190D01*
X13294548Y-11312190D02*
X13313595Y-11321714D01*
X13313595Y-11321714D02*
X13323119Y-11331238D01*
X13323119Y-11331238D02*
X13332643Y-11350286D01*
X13332643Y-11350286D02*
X13332643Y-11407428D01*
X13332643Y-11407428D02*
X13323119Y-11426476D01*
X13323119Y-11426476D02*
X13313595Y-11436000D01*
X13313595Y-11436000D02*
X13294548Y-11445524D01*
X13294548Y-11445524D02*
X13265976Y-11445524D01*
X13446929Y-11445524D02*
X13427881Y-11436000D01*
X13427881Y-11436000D02*
X13418357Y-11416952D01*
X13418357Y-11416952D02*
X13418357Y-11245524D01*
X13599310Y-11436000D02*
X13580262Y-11445524D01*
X13580262Y-11445524D02*
X13542167Y-11445524D01*
X13542167Y-11445524D02*
X13523119Y-11436000D01*
X13523119Y-11436000D02*
X13513595Y-11416952D01*
X13513595Y-11416952D02*
X13513595Y-11340762D01*
X13513595Y-11340762D02*
X13523119Y-11321714D01*
X13523119Y-11321714D02*
X13542167Y-11312190D01*
X13542167Y-11312190D02*
X13580262Y-11312190D01*
X13580262Y-11312190D02*
X13599310Y-11321714D01*
X13599310Y-11321714D02*
X13608834Y-11340762D01*
X13608834Y-11340762D02*
X13608834Y-11359809D01*
X13608834Y-11359809D02*
X13513595Y-11378857D01*
X13685024Y-11436000D02*
X13704072Y-11445524D01*
X13704072Y-11445524D02*
X13742167Y-11445524D01*
X13742167Y-11445524D02*
X13761215Y-11436000D01*
X13761215Y-11436000D02*
X13770738Y-11416952D01*
X13770738Y-11416952D02*
X13770738Y-11407428D01*
X13770738Y-11407428D02*
X13761215Y-11388381D01*
X13761215Y-11388381D02*
X13742167Y-11378857D01*
X13742167Y-11378857D02*
X13713595Y-11378857D01*
X13713595Y-11378857D02*
X13694548Y-11369333D01*
X13694548Y-11369333D02*
X13685024Y-11350286D01*
X13685024Y-11350286D02*
X13685024Y-11340762D01*
X13685024Y-11340762D02*
X13694548Y-11321714D01*
X13694548Y-11321714D02*
X13713595Y-11312190D01*
X13713595Y-11312190D02*
X13742167Y-11312190D01*
X13742167Y-11312190D02*
X13761215Y-11321714D01*
X13837405Y-11521714D02*
X13846929Y-11512190D01*
X13846929Y-11512190D02*
X13865976Y-11483619D01*
X13865976Y-11483619D02*
X13875500Y-11464571D01*
X13875500Y-11464571D02*
X13885024Y-11436000D01*
X13885024Y-11436000D02*
X13894548Y-11388381D01*
X13894548Y-11388381D02*
X13894548Y-11350286D01*
X13894548Y-11350286D02*
X13885024Y-11302667D01*
X13885024Y-11302667D02*
X13875500Y-11274095D01*
X13875500Y-11274095D02*
X13865976Y-11255048D01*
X13865976Y-11255048D02*
X13846929Y-11226476D01*
X13846929Y-11226476D02*
X13837405Y-11216952D01*
X8875500Y-11573000D02*
X9075500Y-11773000D01*
X9075500Y-11573000D02*
X8875500Y-11773000D01*
X9075500Y-11673000D02*
G75*
G03*
X9075500Y-11673000I-100000J0D01*
G01*
X9332643Y-11765524D02*
X9370738Y-11765524D01*
X9370738Y-11765524D02*
X9389786Y-11756000D01*
X9389786Y-11756000D02*
X9399309Y-11746476D01*
X9399309Y-11746476D02*
X9418357Y-11717905D01*
X9418357Y-11717905D02*
X9427881Y-11679809D01*
X9427881Y-11679809D02*
X9427881Y-11603619D01*
X9427881Y-11603619D02*
X9418357Y-11584571D01*
X9418357Y-11584571D02*
X9408833Y-11575048D01*
X9408833Y-11575048D02*
X9389786Y-11565524D01*
X9389786Y-11565524D02*
X9351690Y-11565524D01*
X9351690Y-11565524D02*
X9332643Y-11575048D01*
X9332643Y-11575048D02*
X9323119Y-11584571D01*
X9323119Y-11584571D02*
X9313595Y-11603619D01*
X9313595Y-11603619D02*
X9313595Y-11651238D01*
X9313595Y-11651238D02*
X9323119Y-11670286D01*
X9323119Y-11670286D02*
X9332643Y-11679809D01*
X9332643Y-11679809D02*
X9351690Y-11689333D01*
X9351690Y-11689333D02*
X9389786Y-11689333D01*
X9389786Y-11689333D02*
X9408833Y-11679809D01*
X9408833Y-11679809D02*
X9418357Y-11670286D01*
X9418357Y-11670286D02*
X9427881Y-11651238D01*
X9513595Y-11746476D02*
X9523119Y-11756000D01*
X9523119Y-11756000D02*
X9513595Y-11765524D01*
X9513595Y-11765524D02*
X9504071Y-11756000D01*
X9504071Y-11756000D02*
X9513595Y-11746476D01*
X9513595Y-11746476D02*
X9513595Y-11765524D01*
X9646928Y-11565524D02*
X9665976Y-11565524D01*
X9665976Y-11565524D02*
X9685024Y-11575048D01*
X9685024Y-11575048D02*
X9694548Y-11584571D01*
X9694548Y-11584571D02*
X9704071Y-11603619D01*
X9704071Y-11603619D02*
X9713595Y-11641714D01*
X9713595Y-11641714D02*
X9713595Y-11689333D01*
X9713595Y-11689333D02*
X9704071Y-11727428D01*
X9704071Y-11727428D02*
X9694548Y-11746476D01*
X9694548Y-11746476D02*
X9685024Y-11756000D01*
X9685024Y-11756000D02*
X9665976Y-11765524D01*
X9665976Y-11765524D02*
X9646928Y-11765524D01*
X9646928Y-11765524D02*
X9627881Y-11756000D01*
X9627881Y-11756000D02*
X9618357Y-11746476D01*
X9618357Y-11746476D02*
X9608833Y-11727428D01*
X9608833Y-11727428D02*
X9599309Y-11689333D01*
X9599309Y-11689333D02*
X9599309Y-11641714D01*
X9599309Y-11641714D02*
X9608833Y-11603619D01*
X9608833Y-11603619D02*
X9618357Y-11584571D01*
X9618357Y-11584571D02*
X9627881Y-11575048D01*
X9627881Y-11575048D02*
X9646928Y-11565524D01*
X9837405Y-11565524D02*
X9856452Y-11565524D01*
X9856452Y-11565524D02*
X9875500Y-11575048D01*
X9875500Y-11575048D02*
X9885024Y-11584571D01*
X9885024Y-11584571D02*
X9894548Y-11603619D01*
X9894548Y-11603619D02*
X9904071Y-11641714D01*
X9904071Y-11641714D02*
X9904071Y-11689333D01*
X9904071Y-11689333D02*
X9894548Y-11727428D01*
X9894548Y-11727428D02*
X9885024Y-11746476D01*
X9885024Y-11746476D02*
X9875500Y-11756000D01*
X9875500Y-11756000D02*
X9856452Y-11765524D01*
X9856452Y-11765524D02*
X9837405Y-11765524D01*
X9837405Y-11765524D02*
X9818357Y-11756000D01*
X9818357Y-11756000D02*
X9808833Y-11746476D01*
X9808833Y-11746476D02*
X9799309Y-11727428D01*
X9799309Y-11727428D02*
X9789786Y-11689333D01*
X9789786Y-11689333D02*
X9789786Y-11641714D01*
X9789786Y-11641714D02*
X9799309Y-11603619D01*
X9799309Y-11603619D02*
X9808833Y-11584571D01*
X9808833Y-11584571D02*
X9818357Y-11575048D01*
X9818357Y-11575048D02*
X9837405Y-11565524D01*
X10027881Y-11565524D02*
X10046929Y-11565524D01*
X10046929Y-11565524D02*
X10065976Y-11575048D01*
X10065976Y-11575048D02*
X10075500Y-11584571D01*
X10075500Y-11584571D02*
X10085024Y-11603619D01*
X10085024Y-11603619D02*
X10094548Y-11641714D01*
X10094548Y-11641714D02*
X10094548Y-11689333D01*
X10094548Y-11689333D02*
X10085024Y-11727428D01*
X10085024Y-11727428D02*
X10075500Y-11746476D01*
X10075500Y-11746476D02*
X10065976Y-11756000D01*
X10065976Y-11756000D02*
X10046929Y-11765524D01*
X10046929Y-11765524D02*
X10027881Y-11765524D01*
X10027881Y-11765524D02*
X10008833Y-11756000D01*
X10008833Y-11756000D02*
X9999309Y-11746476D01*
X9999309Y-11746476D02*
X9989786Y-11727428D01*
X9989786Y-11727428D02*
X9980262Y-11689333D01*
X9980262Y-11689333D02*
X9980262Y-11641714D01*
X9980262Y-11641714D02*
X9989786Y-11603619D01*
X9989786Y-11603619D02*
X9999309Y-11584571D01*
X9999309Y-11584571D02*
X10008833Y-11575048D01*
X10008833Y-11575048D02*
X10027881Y-11565524D01*
X10180262Y-11765524D02*
X10180262Y-11632190D01*
X10180262Y-11651238D02*
X10189786Y-11641714D01*
X10189786Y-11641714D02*
X10208833Y-11632190D01*
X10208833Y-11632190D02*
X10237405Y-11632190D01*
X10237405Y-11632190D02*
X10256452Y-11641714D01*
X10256452Y-11641714D02*
X10265976Y-11660762D01*
X10265976Y-11660762D02*
X10265976Y-11765524D01*
X10265976Y-11660762D02*
X10275500Y-11641714D01*
X10275500Y-11641714D02*
X10294548Y-11632190D01*
X10294548Y-11632190D02*
X10323119Y-11632190D01*
X10323119Y-11632190D02*
X10342167Y-11641714D01*
X10342167Y-11641714D02*
X10351690Y-11660762D01*
X10351690Y-11660762D02*
X10351690Y-11765524D01*
X10446929Y-11765524D02*
X10446929Y-11632190D01*
X10446929Y-11651238D02*
X10456452Y-11641714D01*
X10456452Y-11641714D02*
X10475500Y-11632190D01*
X10475500Y-11632190D02*
X10504071Y-11632190D01*
X10504071Y-11632190D02*
X10523119Y-11641714D01*
X10523119Y-11641714D02*
X10532643Y-11660762D01*
X10532643Y-11660762D02*
X10532643Y-11765524D01*
X10532643Y-11660762D02*
X10542167Y-11641714D01*
X10542167Y-11641714D02*
X10561214Y-11632190D01*
X10561214Y-11632190D02*
X10589786Y-11632190D01*
X10589786Y-11632190D02*
X10608833Y-11641714D01*
X10608833Y-11641714D02*
X10618357Y-11660762D01*
X10618357Y-11660762D02*
X10618357Y-11765524D01*
X11008833Y-11556000D02*
X10837405Y-11813143D01*
X11265976Y-11565524D02*
X11285024Y-11565524D01*
X11285024Y-11565524D02*
X11304071Y-11575048D01*
X11304071Y-11575048D02*
X11313595Y-11584571D01*
X11313595Y-11584571D02*
X11323119Y-11603619D01*
X11323119Y-11603619D02*
X11332643Y-11641714D01*
X11332643Y-11641714D02*
X11332643Y-11689333D01*
X11332643Y-11689333D02*
X11323119Y-11727428D01*
X11323119Y-11727428D02*
X11313595Y-11746476D01*
X11313595Y-11746476D02*
X11304071Y-11756000D01*
X11304071Y-11756000D02*
X11285024Y-11765524D01*
X11285024Y-11765524D02*
X11265976Y-11765524D01*
X11265976Y-11765524D02*
X11246929Y-11756000D01*
X11246929Y-11756000D02*
X11237405Y-11746476D01*
X11237405Y-11746476D02*
X11227881Y-11727428D01*
X11227881Y-11727428D02*
X11218357Y-11689333D01*
X11218357Y-11689333D02*
X11218357Y-11641714D01*
X11218357Y-11641714D02*
X11227881Y-11603619D01*
X11227881Y-11603619D02*
X11237405Y-11584571D01*
X11237405Y-11584571D02*
X11246929Y-11575048D01*
X11246929Y-11575048D02*
X11265976Y-11565524D01*
X11418357Y-11746476D02*
X11427881Y-11756000D01*
X11427881Y-11756000D02*
X11418357Y-11765524D01*
X11418357Y-11765524D02*
X11408833Y-11756000D01*
X11408833Y-11756000D02*
X11418357Y-11746476D01*
X11418357Y-11746476D02*
X11418357Y-11765524D01*
X11494548Y-11565524D02*
X11618357Y-11565524D01*
X11618357Y-11565524D02*
X11551690Y-11641714D01*
X11551690Y-11641714D02*
X11580262Y-11641714D01*
X11580262Y-11641714D02*
X11599310Y-11651238D01*
X11599310Y-11651238D02*
X11608833Y-11660762D01*
X11608833Y-11660762D02*
X11618357Y-11679809D01*
X11618357Y-11679809D02*
X11618357Y-11727428D01*
X11618357Y-11727428D02*
X11608833Y-11746476D01*
X11608833Y-11746476D02*
X11599310Y-11756000D01*
X11599310Y-11756000D02*
X11580262Y-11765524D01*
X11580262Y-11765524D02*
X11523119Y-11765524D01*
X11523119Y-11765524D02*
X11504071Y-11756000D01*
X11504071Y-11756000D02*
X11494548Y-11746476D01*
X11799310Y-11565524D02*
X11704071Y-11565524D01*
X11704071Y-11565524D02*
X11694548Y-11660762D01*
X11694548Y-11660762D02*
X11704071Y-11651238D01*
X11704071Y-11651238D02*
X11723119Y-11641714D01*
X11723119Y-11641714D02*
X11770738Y-11641714D01*
X11770738Y-11641714D02*
X11789786Y-11651238D01*
X11789786Y-11651238D02*
X11799310Y-11660762D01*
X11799310Y-11660762D02*
X11808833Y-11679809D01*
X11808833Y-11679809D02*
X11808833Y-11727428D01*
X11808833Y-11727428D02*
X11799310Y-11746476D01*
X11799310Y-11746476D02*
X11789786Y-11756000D01*
X11789786Y-11756000D02*
X11770738Y-11765524D01*
X11770738Y-11765524D02*
X11723119Y-11765524D01*
X11723119Y-11765524D02*
X11704071Y-11756000D01*
X11704071Y-11756000D02*
X11694548Y-11746476D01*
X11980262Y-11632190D02*
X11980262Y-11765524D01*
X11932643Y-11556000D02*
X11885024Y-11698857D01*
X11885024Y-11698857D02*
X12008833Y-11698857D01*
X12065976Y-11565524D02*
X12189786Y-11565524D01*
X12189786Y-11565524D02*
X12123119Y-11641714D01*
X12123119Y-11641714D02*
X12151691Y-11641714D01*
X12151691Y-11641714D02*
X12170738Y-11651238D01*
X12170738Y-11651238D02*
X12180262Y-11660762D01*
X12180262Y-11660762D02*
X12189786Y-11679809D01*
X12189786Y-11679809D02*
X12189786Y-11727428D01*
X12189786Y-11727428D02*
X12180262Y-11746476D01*
X12180262Y-11746476D02*
X12170738Y-11756000D01*
X12170738Y-11756000D02*
X12151691Y-11765524D01*
X12151691Y-11765524D02*
X12094548Y-11765524D01*
X12094548Y-11765524D02*
X12075500Y-11756000D01*
X12075500Y-11756000D02*
X12065976Y-11746476D01*
X12265976Y-11565524D02*
X12265976Y-11603619D01*
X12342167Y-11565524D02*
X12342167Y-11603619D01*
X12637405Y-11841714D02*
X12627881Y-11832190D01*
X12627881Y-11832190D02*
X12608833Y-11803619D01*
X12608833Y-11803619D02*
X12599310Y-11784571D01*
X12599310Y-11784571D02*
X12589786Y-11756000D01*
X12589786Y-11756000D02*
X12580262Y-11708381D01*
X12580262Y-11708381D02*
X12580262Y-11670286D01*
X12580262Y-11670286D02*
X12589786Y-11622667D01*
X12589786Y-11622667D02*
X12599310Y-11594095D01*
X12599310Y-11594095D02*
X12608833Y-11575048D01*
X12608833Y-11575048D02*
X12627881Y-11546476D01*
X12627881Y-11546476D02*
X12637405Y-11536952D01*
X12818357Y-11765524D02*
X12704072Y-11765524D01*
X12761214Y-11765524D02*
X12761214Y-11565524D01*
X12761214Y-11565524D02*
X12742167Y-11594095D01*
X12742167Y-11594095D02*
X12723119Y-11613143D01*
X12723119Y-11613143D02*
X12704072Y-11622667D01*
X13056453Y-11765524D02*
X13056453Y-11565524D01*
X13142167Y-11765524D02*
X13142167Y-11660762D01*
X13142167Y-11660762D02*
X13132643Y-11641714D01*
X13132643Y-11641714D02*
X13113595Y-11632190D01*
X13113595Y-11632190D02*
X13085024Y-11632190D01*
X13085024Y-11632190D02*
X13065976Y-11641714D01*
X13065976Y-11641714D02*
X13056453Y-11651238D01*
X13265976Y-11765524D02*
X13246929Y-11756000D01*
X13246929Y-11756000D02*
X13237405Y-11746476D01*
X13237405Y-11746476D02*
X13227881Y-11727428D01*
X13227881Y-11727428D02*
X13227881Y-11670286D01*
X13227881Y-11670286D02*
X13237405Y-11651238D01*
X13237405Y-11651238D02*
X13246929Y-11641714D01*
X13246929Y-11641714D02*
X13265976Y-11632190D01*
X13265976Y-11632190D02*
X13294548Y-11632190D01*
X13294548Y-11632190D02*
X13313595Y-11641714D01*
X13313595Y-11641714D02*
X13323119Y-11651238D01*
X13323119Y-11651238D02*
X13332643Y-11670286D01*
X13332643Y-11670286D02*
X13332643Y-11727428D01*
X13332643Y-11727428D02*
X13323119Y-11746476D01*
X13323119Y-11746476D02*
X13313595Y-11756000D01*
X13313595Y-11756000D02*
X13294548Y-11765524D01*
X13294548Y-11765524D02*
X13265976Y-11765524D01*
X13446929Y-11765524D02*
X13427881Y-11756000D01*
X13427881Y-11756000D02*
X13418357Y-11736952D01*
X13418357Y-11736952D02*
X13418357Y-11565524D01*
X13599310Y-11756000D02*
X13580262Y-11765524D01*
X13580262Y-11765524D02*
X13542167Y-11765524D01*
X13542167Y-11765524D02*
X13523119Y-11756000D01*
X13523119Y-11756000D02*
X13513595Y-11736952D01*
X13513595Y-11736952D02*
X13513595Y-11660762D01*
X13513595Y-11660762D02*
X13523119Y-11641714D01*
X13523119Y-11641714D02*
X13542167Y-11632190D01*
X13542167Y-11632190D02*
X13580262Y-11632190D01*
X13580262Y-11632190D02*
X13599310Y-11641714D01*
X13599310Y-11641714D02*
X13608834Y-11660762D01*
X13608834Y-11660762D02*
X13608834Y-11679809D01*
X13608834Y-11679809D02*
X13513595Y-11698857D01*
X13675500Y-11841714D02*
X13685024Y-11832190D01*
X13685024Y-11832190D02*
X13704072Y-11803619D01*
X13704072Y-11803619D02*
X13713595Y-11784571D01*
X13713595Y-11784571D02*
X13723119Y-11756000D01*
X13723119Y-11756000D02*
X13732643Y-11708381D01*
X13732643Y-11708381D02*
X13732643Y-11670286D01*
X13732643Y-11670286D02*
X13723119Y-11622667D01*
X13723119Y-11622667D02*
X13713595Y-11594095D01*
X13713595Y-11594095D02*
X13704072Y-11575048D01*
X13704072Y-11575048D02*
X13685024Y-11546476D01*
X13685024Y-11546476D02*
X13675500Y-11536952D01*
M02*
