%TF.GenerationSoftware,KiCad,Pcbnew,7.0.1-0*%
%TF.CreationDate,2023-06-08T23:36:28+08:00*%
%TF.ProjectId,FT817-BT-JDY67,46543831-372d-4425-942d-4a445936372e,20230608*%
%TF.SameCoordinates,Original*%
%TF.FileFunction,Copper,L1,Top*%
%TF.FilePolarity,Positive*%
%FSLAX46Y46*%
G04 Gerber Fmt 4.6, Leading zero omitted, Abs format (unit mm)*
G04 Created by KiCad (PCBNEW 7.0.1-0) date 2023-06-08 23:36:28*
%MOMM*%
%LPD*%
G01*
G04 APERTURE LIST*
G04 Aperture macros list*
%AMRoundRect*
0 Rectangle with rounded corners*
0 $1 Rounding radius*
0 $2 $3 $4 $5 $6 $7 $8 $9 X,Y pos of 4 corners*
0 Add a 4 corners polygon primitive as box body*
4,1,4,$2,$3,$4,$5,$6,$7,$8,$9,$2,$3,0*
0 Add four circle primitives for the rounded corners*
1,1,$1+$1,$2,$3*
1,1,$1+$1,$4,$5*
1,1,$1+$1,$6,$7*
1,1,$1+$1,$8,$9*
0 Add four rect primitives between the rounded corners*
20,1,$1+$1,$2,$3,$4,$5,0*
20,1,$1+$1,$4,$5,$6,$7,0*
20,1,$1+$1,$6,$7,$8,$9,0*
20,1,$1+$1,$8,$9,$2,$3,0*%
G04 Aperture macros list end*
%TA.AperFunction,SMDPad,CuDef*%
%ADD10R,2.000000X1.500000*%
%TD*%
%TA.AperFunction,SMDPad,CuDef*%
%ADD11R,2.000000X3.800000*%
%TD*%
%TA.AperFunction,SMDPad,CuDef*%
%ADD12RoundRect,0.250000X-0.450000X0.262500X-0.450000X-0.262500X0.450000X-0.262500X0.450000X0.262500X0*%
%TD*%
%TA.AperFunction,SMDPad,CuDef*%
%ADD13RoundRect,0.250000X0.450000X-0.262500X0.450000X0.262500X-0.450000X0.262500X-0.450000X-0.262500X0*%
%TD*%
%TA.AperFunction,SMDPad,CuDef*%
%ADD14RoundRect,0.250000X-0.262500X-0.450000X0.262500X-0.450000X0.262500X0.450000X-0.262500X0.450000X0*%
%TD*%
%TA.AperFunction,SMDPad,CuDef*%
%ADD15RoundRect,0.150000X0.150000X-0.512500X0.150000X0.512500X-0.150000X0.512500X-0.150000X-0.512500X0*%
%TD*%
%TA.AperFunction,SMDPad,CuDef*%
%ADD16RoundRect,0.250000X-0.350000X0.275000X-0.350000X-0.275000X0.350000X-0.275000X0.350000X0.275000X0*%
%TD*%
%TA.AperFunction,SMDPad,CuDef*%
%ADD17RoundRect,0.250000X0.275000X0.350000X-0.275000X0.350000X-0.275000X-0.350000X0.275000X-0.350000X0*%
%TD*%
%TA.AperFunction,ComponentPad*%
%ADD18C,3.100000*%
%TD*%
%TA.AperFunction,SMDPad,CuDef*%
%ADD19RoundRect,0.243750X-0.456250X0.243750X-0.456250X-0.243750X0.456250X-0.243750X0.456250X0.243750X0*%
%TD*%
%TA.AperFunction,SMDPad,CuDef*%
%ADD20RoundRect,0.250000X-0.475000X0.250000X-0.475000X-0.250000X0.475000X-0.250000X0.475000X0.250000X0*%
%TD*%
%TA.AperFunction,SMDPad,CuDef*%
%ADD21RoundRect,0.250000X0.250000X0.475000X-0.250000X0.475000X-0.250000X-0.475000X0.250000X-0.475000X0*%
%TD*%
%TA.AperFunction,SMDPad,CuDef*%
%ADD22RoundRect,0.250000X-0.250000X-0.475000X0.250000X-0.475000X0.250000X0.475000X-0.250000X0.475000X0*%
%TD*%
%TA.AperFunction,SMDPad,CuDef*%
%ADD23RoundRect,0.250000X-0.425000X0.450000X-0.425000X-0.450000X0.425000X-0.450000X0.425000X0.450000X0*%
%TD*%
%TA.AperFunction,SMDPad,CuDef*%
%ADD24RoundRect,0.250000X-0.450000X-0.425000X0.450000X-0.425000X0.450000X0.425000X-0.450000X0.425000X0*%
%TD*%
%TA.AperFunction,ComponentPad*%
%ADD25R,1.600000X1.300000*%
%TD*%
%TA.AperFunction,ComponentPad*%
%ADD26O,1.600000X1.300000*%
%TD*%
%TA.AperFunction,ComponentPad*%
%ADD27O,4.000000X1.800000*%
%TD*%
%TA.AperFunction,SMDPad,CuDef*%
%ADD28RoundRect,0.250000X0.250000X-0.500000X0.250000X0.500000X-0.250000X0.500000X-0.250000X-0.500000X0*%
%TD*%
%TA.AperFunction,ComponentPad*%
%ADD29C,10.000000*%
%TD*%
%TA.AperFunction,ConnectorPad*%
%ADD30RoundRect,0.508000X-4.572000X-4.572000X4.572000X-4.572000X4.572000X4.572000X-4.572000X4.572000X0*%
%TD*%
%TA.AperFunction,ViaPad*%
%ADD31C,0.800000*%
%TD*%
%TA.AperFunction,Conductor*%
%ADD32C,0.200000*%
%TD*%
%TA.AperFunction,Conductor*%
%ADD33C,0.800000*%
%TD*%
G04 APERTURE END LIST*
D10*
%TO.P,U2,1,GND*%
%TO.N,GND*%
X169520000Y-93105000D03*
D11*
%TO.P,U2,2,VO*%
%TO.N,5V*%
X163220000Y-90805000D03*
D10*
X169520000Y-90805000D03*
%TO.P,U2,3,VI*%
%TO.N,Net-(U2-VI)*%
X169520000Y-88505000D03*
%TD*%
D12*
%TO.P,R12,1*%
%TO.N,PTT*%
X168910000Y-71835000D03*
%TO.P,R12,2*%
%TO.N,Net-(Q1-G)*%
X168910000Y-73660000D03*
%TD*%
D13*
%TO.P,R11,1*%
%TO.N,Net-(Q1-G)*%
X170815000Y-73660000D03*
%TO.P,R11,2*%
%TO.N,GND*%
X170815000Y-71835000D03*
%TD*%
%TO.P,R10,2*%
%TO.N,+13.8V*%
X177165000Y-75922500D03*
%TO.P,R10,1*%
%TO.N,Net-(Q1-D)*%
X177165000Y-77747500D03*
%TD*%
%TO.P,R9,1*%
%TO.N,DATA IN*%
X135255000Y-76835000D03*
%TO.P,R9,2*%
%TO.N,GND*%
X135255000Y-75010000D03*
%TD*%
%TO.P,R8,1*%
%TO.N,Net-(U1-MIC-P)*%
X150495000Y-82550000D03*
%TO.P,R8,2*%
%TO.N,Net-(C3-Pad1)*%
X150495000Y-80725000D03*
%TD*%
D12*
%TO.P,R7,1*%
%TO.N,GND*%
X123825000Y-76835000D03*
%TO.P,R7,2*%
%TO.N,Net-(U1-ADCKIN)*%
X123825000Y-78660000D03*
%TD*%
D14*
%TO.P,R6,1*%
%TO.N,Net-(U2-VI)*%
X169625000Y-82550000D03*
%TO.P,R6,2*%
%TO.N,Net-(C7-Pad1)*%
X171450000Y-82550000D03*
%TD*%
D13*
%TO.P,R5,1*%
%TO.N,Net-(U1-MIC-P)*%
X147955000Y-82550000D03*
%TO.P,R5,2*%
%TO.N,GND*%
X147955000Y-80725000D03*
%TD*%
D14*
%TO.P,R4,1*%
%TO.N,Net-(U1-RXD)*%
X147955000Y-87630000D03*
%TO.P,R4,2*%
%TO.N,Net-(L2-Pad2)*%
X149780000Y-87630000D03*
%TD*%
%TO.P,R3,1*%
%TO.N,Net-(U1-TXD)*%
X148035000Y-85090000D03*
%TO.P,R3,2*%
%TO.N,Net-(L1-Pad2)*%
X149860000Y-85090000D03*
%TD*%
D12*
%TO.P,R2,1*%
%TO.N,Net-(D2-A)*%
X128905000Y-76835000D03*
%TO.P,R2,2*%
%TO.N,Net-(U1-AUD-STAT)*%
X128905000Y-78660000D03*
%TD*%
%TO.P,R1,1*%
%TO.N,Net-(D1-A)*%
X126365000Y-76835000D03*
%TO.P,R1,2*%
%TO.N,Net-(U1-BLE-STAT)*%
X126365000Y-78660000D03*
%TD*%
D15*
%TO.P,Q2,1,D*%
%TO.N,Net-(Q2-D)*%
X173355000Y-78105000D03*
%TO.P,Q2,2,G*%
%TO.N,Net-(Q1-D)*%
X175255000Y-78105000D03*
%TO.P,Q2,3,S*%
%TO.N,+13.8V*%
X174305000Y-75830000D03*
%TD*%
%TO.P,Q1,1,D*%
%TO.N,Net-(Q1-D)*%
X169550000Y-78105000D03*
%TO.P,Q1,2,G*%
%TO.N,Net-(Q1-G)*%
X171450000Y-78105000D03*
%TO.P,Q1,3,S*%
%TO.N,GND*%
X170500000Y-75830000D03*
%TD*%
D16*
%TO.P,L3,1,1*%
%TO.N,Net-(Q2-D)*%
X173355000Y-80130000D03*
%TO.P,L3,2,2*%
%TO.N,Net-(C7-Pad1)*%
X173355000Y-82430000D03*
%TD*%
D17*
%TO.P,L2,1,1*%
%TO.N,TX D*%
X154700000Y-87630000D03*
%TO.P,L2,2,2*%
%TO.N,Net-(L2-Pad2)*%
X152400000Y-87630000D03*
%TD*%
%TO.P,L1,1,1*%
%TO.N,RX D*%
X154700000Y-85090000D03*
%TO.P,L1,2,2*%
%TO.N,Net-(L1-Pad2)*%
X152400000Y-85090000D03*
%TD*%
D18*
%TO.P,H2,1,1*%
%TO.N,GND*%
X152400000Y-93980000D03*
%TD*%
%TO.P,H1,1,1*%
%TO.N,GND*%
X134620000Y-66040000D03*
%TD*%
D19*
%TO.P,D2,1,K*%
%TO.N,GND*%
X128905000Y-71785000D03*
%TO.P,D2,2,A*%
%TO.N,Net-(D2-A)*%
X128905000Y-73660000D03*
%TD*%
%TO.P,D1,1,K*%
%TO.N,GND*%
X126365000Y-71785000D03*
%TO.P,D1,2,A*%
%TO.N,Net-(D1-A)*%
X126365000Y-73660000D03*
%TD*%
D20*
%TO.P,C8,1*%
%TO.N,Net-(Q1-G)*%
X166370000Y-74615000D03*
%TO.P,C8,2*%
%TO.N,GND*%
X166370000Y-76515000D03*
%TD*%
D21*
%TO.P,C7,1*%
%TO.N,Net-(C7-Pad1)*%
X171450000Y-80010000D03*
%TO.P,C7,2*%
%TO.N,GND*%
X169550000Y-80010000D03*
%TD*%
D20*
%TO.P,C6,1*%
%TO.N,5V*%
X144780000Y-91622000D03*
%TO.P,C6,2*%
%TO.N,GND*%
X144780000Y-93522000D03*
%TD*%
D21*
%TO.P,C5,1*%
%TO.N,Net-(U1-RP)*%
X139060000Y-78740000D03*
%TO.P,C5,2*%
%TO.N,DATA IN*%
X137160000Y-78740000D03*
%TD*%
D22*
%TO.P,C4,1*%
%TO.N,Net-(U1-LP)*%
X131445000Y-78740000D03*
%TO.P,C4,2*%
%TO.N,DATA IN*%
X133345000Y-78740000D03*
%TD*%
D20*
%TO.P,C3,1*%
%TO.N,Net-(C3-Pad1)*%
X153035000Y-80650000D03*
%TO.P,C3,2*%
%TO.N,DATA OUT 1200bps*%
X153035000Y-82550000D03*
%TD*%
D23*
%TO.P,C2,1*%
%TO.N,5V*%
X159385000Y-90170000D03*
%TO.P,C2,2*%
%TO.N,GND*%
X159385000Y-92870000D03*
%TD*%
D24*
%TO.P,C1,1*%
%TO.N,Net-(U2-VI)*%
X169385000Y-85090000D03*
%TO.P,C1,2*%
%TO.N,GND*%
X172085000Y-85090000D03*
%TD*%
D25*
%TO.P,J1010,1*%
%TO.N,DATA IN*%
X162925000Y-71615000D03*
D26*
%TO.P,J1010,2*%
%TO.N,GND*%
X160925000Y-71615000D03*
%TO.P,J1010,3*%
%TO.N,PTT*%
X164425000Y-69615000D03*
%TO.P,J1010,4*%
%TO.N,DATA OUT 9600bps*%
X159425000Y-69615000D03*
%TO.P,J1010,5*%
%TO.N,DATA OUT 1200bps*%
X163925000Y-67615000D03*
%TO.P,J1010,6*%
%TO.N,SQL*%
X159925000Y-67615000D03*
D27*
%TO.P,J1010,7,GND*%
%TO.N,GND*%
X161925000Y-64815000D03*
%TD*%
D25*
%TO.P,J1009,1*%
%TO.N,+13.8V*%
X178800000Y-71615000D03*
D26*
%TO.P,J1009,2*%
%TO.N,TX GND*%
X176800000Y-71615000D03*
%TO.P,J1009,3*%
%TO.N,GND*%
X180300000Y-69615000D03*
%TO.P,J1009,4*%
%TO.N,TX D*%
X178300000Y-69615000D03*
%TO.P,J1009,5*%
%TO.N,RX D*%
X175300000Y-69615000D03*
%TO.P,J1009,6*%
%TO.N,BAND DATA*%
X179800000Y-67615000D03*
%TO.P,J1009,7*%
%TO.N,ALC*%
X177800000Y-67615000D03*
%TO.P,J1009,8*%
%TO.N,TX INH*%
X175800000Y-67615000D03*
D27*
%TO.P,J1009,9,GND*%
%TO.N,GND*%
X177800000Y-64815000D03*
%TD*%
D28*
%TO.P,U1,1,TXD*%
%TO.N,Net-(U1-TXD)*%
X123502000Y-93699000D03*
%TO.P,U1,2,RXD*%
%TO.N,Net-(U1-RXD)*%
X125001000Y-93699000D03*
%TO.P,U1,3,KIN*%
%TO.N,unconnected-(U1-KIN-Pad3)*%
X126500000Y-93699000D03*
%TO.P,U1,4,SD-CLK*%
%TO.N,unconnected-(U1-SD-CLK-Pad4)*%
X127999000Y-93699000D03*
%TO.P,U1,5,SD-CMD*%
%TO.N,unconnected-(U1-SD-CMD-Pad5)*%
X129498000Y-93699000D03*
%TO.P,U1,9,VCC3SYS*%
%TO.N,unconnected-(U1-VCC3SYS-Pad9)*%
X135494000Y-93699000D03*
%TO.P,U1,10,IO3VFLA*%
%TO.N,unconnected-(U1-IO3VFLA-Pad10)*%
X136993000Y-93699000D03*
%TO.P,U1,12,VCC*%
%TO.N,5V*%
X139991000Y-93699000D03*
%TO.P,U1,13,GND*%
%TO.N,GND*%
X141490000Y-93699000D03*
%TO.P,U1,14,RP*%
%TO.N,Net-(U1-RP)*%
X139065000Y-80822000D03*
%TO.P,U1,15,RN*%
%TO.N,unconnected-(U1-RN-Pad15)*%
X136525000Y-80822000D03*
%TO.P,U1,16,LN*%
%TO.N,unconnected-(U1-LN-Pad16)*%
X133985000Y-80822000D03*
%TO.P,U1,17,LP*%
%TO.N,Net-(U1-LP)*%
X131445000Y-80822000D03*
%TO.P,U1,18,MIC-P*%
%TO.N,Net-(U1-MIC-P)*%
X129498000Y-80799000D03*
%TO.P,U1,19,AUD-STAT*%
%TO.N,Net-(U1-AUD-STAT)*%
X127999000Y-80799000D03*
%TO.P,U1,20,BLE-STAT*%
%TO.N,Net-(U1-BLE-STAT)*%
X126500000Y-80799000D03*
%TO.P,U1,21,SD-DATA*%
%TO.N,unconnected-(U1-SD-DATA-Pad21)*%
X125001000Y-80799000D03*
%TO.P,U1,22,ADCKIN*%
%TO.N,Net-(U1-ADCKIN)*%
X123502000Y-80799000D03*
%TD*%
D29*
%TO.P,H3,1,1*%
%TO.N,GND*%
X97155000Y-88900000D03*
D30*
X97155000Y-88900000D03*
%TD*%
D31*
%TO.N,Net-(U1-TXD)*%
X146685000Y-85090000D03*
X123502000Y-92252000D03*
%TO.N,Net-(U1-RXD)*%
X125095000Y-92252000D03*
X146685000Y-87630000D03*
%TO.N,TX D*%
X156210000Y-87630000D03*
%TO.N,RX D*%
X156210000Y-85090000D03*
%TO.N,PTT*%
X168910000Y-70485000D03*
%TO.N,GND*%
X151130000Y-86360000D03*
X141605000Y-88900000D03*
X129540000Y-88900000D03*
X133350000Y-95250000D03*
X123825000Y-67945000D03*
X164465000Y-78105000D03*
X156210000Y-91440000D03*
X154305000Y-88900000D03*
X123825000Y-82550000D03*
X156210000Y-71755000D03*
X166370000Y-80010000D03*
X138430000Y-64770000D03*
X139065000Y-88900000D03*
X182245000Y-66675000D03*
X154940000Y-80010000D03*
X144780000Y-95427000D03*
X138430000Y-83820000D03*
X158750000Y-76835000D03*
X127635000Y-87630000D03*
X151130000Y-88900000D03*
X135255000Y-81280000D03*
X161925000Y-69215000D03*
X161925000Y-80645000D03*
X140335000Y-78740000D03*
X128270000Y-84455000D03*
X161290000Y-85090000D03*
X168275000Y-64770000D03*
X137160000Y-86360000D03*
X126365000Y-82550000D03*
X123825000Y-64135000D03*
X132715000Y-81280000D03*
X127000000Y-95250000D03*
X127000000Y-64135000D03*
X158115000Y-80645000D03*
X151765000Y-76835000D03*
X144780000Y-88900000D03*
X138430000Y-67945000D03*
X173355000Y-88900000D03*
X163195000Y-75565000D03*
X154305000Y-74930000D03*
X171450000Y-64770000D03*
X137795000Y-81280000D03*
X148590000Y-89470500D03*
X125095000Y-90170000D03*
X135890000Y-88900000D03*
X182880000Y-69215000D03*
X123825000Y-88900000D03*
X130175000Y-86360000D03*
X126365000Y-86360000D03*
X156845000Y-88900000D03*
X123825000Y-85725000D03*
X165735000Y-73025000D03*
X123825000Y-71755000D03*
X163830000Y-82550000D03*
X151130000Y-83820000D03*
X127635000Y-90805000D03*
X159385000Y-83185000D03*
X132080000Y-83820000D03*
X140335000Y-81280000D03*
X156210000Y-64770000D03*
X135255000Y-83820000D03*
X159385000Y-94615000D03*
X177165000Y-80645000D03*
X144780000Y-86360000D03*
X182245000Y-71755000D03*
X133985000Y-86360000D03*
X139700000Y-91440000D03*
X131445000Y-71755000D03*
X140335000Y-86360000D03*
X142875000Y-76835000D03*
X147320000Y-77470000D03*
X146685000Y-86360000D03*
X132080000Y-88900000D03*
X175260000Y-85090000D03*
X123190000Y-95250000D03*
X180340000Y-74930000D03*
X130175000Y-64135000D03*
X148590000Y-91440000D03*
X138430000Y-95250000D03*
X138430000Y-71755000D03*
X156210000Y-67945000D03*
X160655000Y-78105000D03*
X130810000Y-76835000D03*
X141605000Y-83820000D03*
X144780000Y-83820000D03*
X140335000Y-74930000D03*
%TO.N,Net-(Q1-D)*%
X167640000Y-78105000D03*
X175260000Y-79375000D03*
%TD*%
D32*
%TO.N,Net-(U1-TXD)*%
X148035000Y-85090000D02*
X146685000Y-85090000D01*
X123502000Y-92252000D02*
X123502000Y-93699000D01*
%TO.N,Net-(U1-RXD)*%
X125095000Y-92252000D02*
X125095000Y-93605000D01*
X147955000Y-87630000D02*
X146685000Y-87630000D01*
%TO.N,Net-(U1-RP)*%
X139060000Y-78282000D02*
X139060000Y-80525000D01*
X139060000Y-80525000D02*
X139180000Y-80645000D01*
%TO.N,Net-(U1-LP)*%
X131445000Y-80530000D02*
X131560000Y-80645000D01*
X131445000Y-78282000D02*
X131445000Y-80530000D01*
%TO.N,Net-(U1-MIC-P)*%
X130175000Y-82550000D02*
X129498000Y-81873000D01*
X130175000Y-82550000D02*
X150495000Y-82550000D01*
X129498000Y-81873000D02*
X129498000Y-80799000D01*
%TO.N,Net-(U1-ADCKIN)*%
X123617000Y-78868000D02*
X123825000Y-78660000D01*
X123617000Y-80622000D02*
X123617000Y-78868000D01*
%TO.N,Net-(U1-AUD-STAT)*%
X128270000Y-78917000D02*
X128905000Y-78917000D01*
X127999000Y-79188000D02*
X128270000Y-78917000D01*
X127999000Y-80507000D02*
X127999000Y-79188000D01*
%TO.N,Net-(U1-BLE-STAT)*%
X126365000Y-80372000D02*
X126365000Y-78917000D01*
%TO.N,Net-(U2-VI)*%
X169545000Y-82630000D02*
X169545000Y-88050000D01*
%TO.N,+13.8V*%
X177165000Y-74930000D02*
X177165000Y-75922500D01*
X174305000Y-75830000D02*
X177707500Y-75830000D01*
X179070000Y-71885000D02*
X179070000Y-73025000D01*
X179070000Y-73025000D02*
X177165000Y-74930000D01*
%TO.N,TX D*%
X154700000Y-87630000D02*
X156210000Y-87630000D01*
%TO.N,RX D*%
X154700000Y-85090000D02*
X156210000Y-85090000D01*
%TO.N,PTT*%
X168910000Y-71835000D02*
X168910000Y-70485000D01*
%TO.N,DATA IN*%
X134620000Y-78740000D02*
X133522000Y-78740000D01*
X135255000Y-78105000D02*
X135890000Y-78740000D01*
X162925000Y-71615000D02*
X155800000Y-78740000D01*
X135255000Y-78105000D02*
X134620000Y-78740000D01*
X141959950Y-78740000D02*
X140054950Y-76835000D01*
X155800000Y-78740000D02*
X141959950Y-78740000D01*
X135890000Y-78740000D02*
X136983000Y-78740000D01*
X135255000Y-76835000D02*
X135255000Y-78105000D01*
X140054950Y-76835000D02*
X135255000Y-76835000D01*
%TO.N,DATA OUT 1200bps*%
X165525000Y-69215000D02*
X165525000Y-71330000D01*
X154305000Y-82550000D02*
X153035000Y-82550000D01*
X163925000Y-67615000D02*
X165525000Y-69215000D01*
X165525000Y-71330000D02*
X154305000Y-82550000D01*
%TO.N,Net-(D1-A)*%
X126365000Y-76835000D02*
X126365000Y-73660000D01*
%TO.N,Net-(D2-A)*%
X128905000Y-76835000D02*
X128905000Y-73660000D01*
%TO.N,GND*%
X123190000Y-95250000D02*
X123105000Y-95335000D01*
D33*
X144780000Y-95427000D02*
X144780000Y-93522000D01*
X144780000Y-95427000D02*
X144780000Y-94157000D01*
X144780000Y-93522000D02*
X141605000Y-93522000D01*
D32*
X159385000Y-92870000D02*
X159385000Y-94615000D01*
X172085000Y-85090000D02*
X171450000Y-85090000D01*
%TO.N,Net-(C3-Pad1)*%
X150495000Y-80725000D02*
X152960000Y-80725000D01*
%TO.N,Net-(L1-Pad2)*%
X152400000Y-85090000D02*
X149860000Y-85090000D01*
%TO.N,Net-(L2-Pad2)*%
X152400000Y-87630000D02*
X149860000Y-87630000D01*
%TO.N,5V*%
X162585000Y-90170000D02*
X146232000Y-90170000D01*
X140788000Y-91622000D02*
X139991000Y-92419000D01*
X146232000Y-90170000D02*
X144780000Y-91622000D01*
X139991000Y-92419000D02*
X139991000Y-93699000D01*
X144780000Y-91622000D02*
X140788000Y-91622000D01*
%TO.N,Net-(C7-Pad1)*%
X171450000Y-80010000D02*
X171450000Y-82550000D01*
X173355000Y-82430000D02*
X171570000Y-82430000D01*
%TO.N,Net-(Q1-G)*%
X171450000Y-74930000D02*
X171450000Y-78105000D01*
X166370000Y-74615000D02*
X167955000Y-74615000D01*
X170815000Y-73660000D02*
X170815000Y-74295000D01*
X170815000Y-74295000D02*
X171450000Y-74930000D01*
X167955000Y-74615000D02*
X168910000Y-73660000D01*
X170815000Y-73660000D02*
X168910000Y-73660000D01*
%TO.N,Net-(Q2-D)*%
X173355000Y-78105000D02*
X173355000Y-80130000D01*
%TO.N,Net-(Q1-D)*%
X169550000Y-78105000D02*
X167640000Y-78105000D01*
X175255000Y-79370000D02*
X175255000Y-78105000D01*
X175260000Y-79375000D02*
X175255000Y-79370000D01*
X175255000Y-78105000D02*
X177442500Y-78105000D01*
%TD*%
%TA.AperFunction,Conductor*%
%TO.N,5V*%
G36*
X168121288Y-87013954D02*
G01*
X168202070Y-87067930D01*
X168256046Y-87148712D01*
X168275000Y-87244000D01*
X168275000Y-90170000D01*
X169931000Y-90170000D01*
X170026288Y-90188954D01*
X170107070Y-90242930D01*
X170161046Y-90323712D01*
X170180000Y-90419000D01*
X170180000Y-91191000D01*
X170161046Y-91286288D01*
X170107070Y-91367070D01*
X170026288Y-91421046D01*
X169931000Y-91440000D01*
X168275000Y-91440000D01*
X168275000Y-91440001D01*
X168275000Y-94366000D01*
X168256046Y-94461288D01*
X168202070Y-94542070D01*
X168121288Y-94596046D01*
X168026000Y-94615000D01*
X162174000Y-94615000D01*
X162078712Y-94596046D01*
X161997930Y-94542070D01*
X161943954Y-94461288D01*
X161925000Y-94366000D01*
X161925000Y-87244000D01*
X161943954Y-87148712D01*
X161997930Y-87067930D01*
X162078712Y-87013954D01*
X162174000Y-86995000D01*
X168026000Y-86995000D01*
X168121288Y-87013954D01*
G37*
%TD.AperFunction*%
%TD*%
%TA.AperFunction,Conductor*%
%TO.N,GND*%
G36*
X138434853Y-63365881D02*
G01*
X138639988Y-63382026D01*
X138659197Y-63385069D01*
X138854531Y-63431964D01*
X138873024Y-63437973D01*
X138997422Y-63489500D01*
X139058615Y-63514847D01*
X139075952Y-63523681D01*
X139247221Y-63628636D01*
X139262962Y-63640073D01*
X139415709Y-63770531D01*
X139429468Y-63784290D01*
X139559926Y-63937037D01*
X139571363Y-63952778D01*
X139676318Y-64124047D01*
X139685152Y-64141384D01*
X139762024Y-64326969D01*
X139768037Y-64345475D01*
X139814929Y-64540797D01*
X139817973Y-64560015D01*
X139834118Y-64765146D01*
X139834500Y-64774875D01*
X139834500Y-69482346D01*
X139872643Y-70015670D01*
X139948738Y-70544927D01*
X140062394Y-71067391D01*
X140213034Y-71580423D01*
X140399892Y-72081410D01*
X140622005Y-72567770D01*
X140878262Y-73037068D01*
X141167331Y-73486869D01*
X141487757Y-73914908D01*
X141487760Y-73914912D01*
X141487762Y-73914914D01*
X141567728Y-74007200D01*
X141837915Y-74319012D01*
X142215987Y-74697084D01*
X142245229Y-74722422D01*
X142620021Y-75047182D01*
X142620091Y-75047242D01*
X143048130Y-75367668D01*
X143497931Y-75656737D01*
X143967229Y-75912994D01*
X144453589Y-76135107D01*
X144453596Y-76135109D01*
X144453597Y-76135110D01*
X144954575Y-76321965D01*
X145467607Y-76472605D01*
X145677346Y-76518231D01*
X145990072Y-76586261D01*
X145990076Y-76586261D01*
X145990078Y-76586262D01*
X146519326Y-76662356D01*
X146919322Y-76690964D01*
X147052654Y-76700500D01*
X147052655Y-76700500D01*
X147587345Y-76700500D01*
X147587346Y-76700500D01*
X147717140Y-76691217D01*
X148120674Y-76662356D01*
X148649922Y-76586262D01*
X148655724Y-76585000D01*
X148820164Y-76549228D01*
X149172393Y-76472605D01*
X149685425Y-76321965D01*
X150186403Y-76135110D01*
X150186410Y-76135107D01*
X150672770Y-75912994D01*
X150852232Y-75815000D01*
X151142062Y-75656741D01*
X151591872Y-75367666D01*
X152019914Y-75047238D01*
X152424006Y-74697090D01*
X152802090Y-74319006D01*
X153152238Y-73914914D01*
X153472666Y-73486872D01*
X153761741Y-73037062D01*
X154006128Y-72589500D01*
X154017994Y-72567770D01*
X154240107Y-72081410D01*
X154257417Y-72035000D01*
X154320824Y-71865000D01*
X159962258Y-71865000D01*
X159980714Y-71931472D01*
X160067314Y-72094820D01*
X160187012Y-72235737D01*
X160334195Y-72347624D01*
X160501990Y-72425254D01*
X160675000Y-72463337D01*
X160675000Y-71865000D01*
X159962258Y-71865000D01*
X154320824Y-71865000D01*
X154426965Y-71580425D01*
X154490220Y-71364999D01*
X159959624Y-71364999D01*
X159959625Y-71365000D01*
X160675000Y-71365000D01*
X160675000Y-70770863D01*
X160591198Y-70779977D01*
X160415990Y-70839011D01*
X160257568Y-70934330D01*
X160123344Y-71061475D01*
X160019586Y-71214507D01*
X159959624Y-71364999D01*
X154490220Y-71364999D01*
X154577605Y-71067393D01*
X154691262Y-70544922D01*
X154767356Y-70015674D01*
X154799325Y-69568685D01*
X158420740Y-69568685D01*
X158430754Y-69753407D01*
X158480245Y-69931658D01*
X158566899Y-70095103D01*
X158686663Y-70236100D01*
X158833936Y-70348055D01*
X159001830Y-70425731D01*
X159001831Y-70425731D01*
X159001833Y-70425732D01*
X159182503Y-70465500D01*
X159621113Y-70465500D01*
X159621115Y-70465500D01*
X159704080Y-70456477D01*
X159758910Y-70450514D01*
X159934221Y-70391444D01*
X160092736Y-70296070D01*
X160227041Y-70168849D01*
X160330858Y-70015730D01*
X160399331Y-69843875D01*
X160429260Y-69661317D01*
X160419245Y-69476593D01*
X160369754Y-69298341D01*
X160283100Y-69134896D01*
X160163337Y-68993900D01*
X160163336Y-68993899D01*
X160016063Y-68881944D01*
X159848169Y-68804268D01*
X159667497Y-68764500D01*
X159228887Y-68764500D01*
X159228885Y-68764500D01*
X159091091Y-68779485D01*
X158915779Y-68838556D01*
X158757262Y-68933931D01*
X158622960Y-69061149D01*
X158519140Y-69214272D01*
X158450669Y-69386121D01*
X158435837Y-69476593D01*
X158421701Y-69562825D01*
X158420740Y-69568685D01*
X154799325Y-69568685D01*
X154805500Y-69482345D01*
X154805500Y-69215000D01*
X154805500Y-69149108D01*
X154805500Y-67568685D01*
X158920740Y-67568685D01*
X158930754Y-67753407D01*
X158980245Y-67931658D01*
X159066899Y-68095103D01*
X159186663Y-68236100D01*
X159333936Y-68348055D01*
X159501830Y-68425731D01*
X159501831Y-68425731D01*
X159501833Y-68425732D01*
X159682503Y-68465500D01*
X160121113Y-68465500D01*
X160121115Y-68465500D01*
X160210930Y-68455732D01*
X160258910Y-68450514D01*
X160434221Y-68391444D01*
X160592736Y-68296070D01*
X160727041Y-68168849D01*
X160830858Y-68015730D01*
X160899331Y-67843875D01*
X160929260Y-67661317D01*
X160919245Y-67476593D01*
X160909840Y-67442720D01*
X160869754Y-67298341D01*
X160783100Y-67134896D01*
X160663336Y-66993899D01*
X160516063Y-66881944D01*
X160348169Y-66804268D01*
X160167497Y-66764500D01*
X159728887Y-66764500D01*
X159728885Y-66764500D01*
X159591091Y-66779485D01*
X159415779Y-66838556D01*
X159257262Y-66933931D01*
X159122960Y-67061149D01*
X159019140Y-67214272D01*
X158950669Y-67386121D01*
X158935837Y-67476593D01*
X158922198Y-67559793D01*
X158920740Y-67568685D01*
X154805500Y-67568685D01*
X154805500Y-65065000D01*
X159753742Y-65065000D01*
X159780770Y-65176410D01*
X159868039Y-65367505D01*
X159989892Y-65538621D01*
X160141933Y-65683592D01*
X160318655Y-65797166D01*
X160513685Y-65875244D01*
X160719962Y-65915000D01*
X161675000Y-65915000D01*
X161675000Y-65065000D01*
X162175000Y-65065000D01*
X162175000Y-65915000D01*
X163077399Y-65915000D01*
X163234125Y-65900034D01*
X163435687Y-65840850D01*
X163622412Y-65744587D01*
X163787538Y-65614730D01*
X163925111Y-65455963D01*
X164030146Y-65274036D01*
X164098856Y-65075511D01*
X164100368Y-65065000D01*
X175628742Y-65065000D01*
X175655770Y-65176410D01*
X175743039Y-65367505D01*
X175864892Y-65538621D01*
X176016933Y-65683592D01*
X176193655Y-65797166D01*
X176388685Y-65875244D01*
X176594962Y-65915000D01*
X177550000Y-65915000D01*
X177550000Y-65065000D01*
X178050000Y-65065000D01*
X178050000Y-65915000D01*
X178952399Y-65915000D01*
X179109125Y-65900034D01*
X179310687Y-65840850D01*
X179497412Y-65744587D01*
X179662538Y-65614730D01*
X179800111Y-65455963D01*
X179905146Y-65274036D01*
X179973856Y-65075511D01*
X179975368Y-65065000D01*
X178050000Y-65065000D01*
X177550000Y-65065000D01*
X175628742Y-65065000D01*
X164100368Y-65065000D01*
X162175000Y-65065000D01*
X161675000Y-65065000D01*
X159753742Y-65065000D01*
X154805500Y-65065000D01*
X154805500Y-64774875D01*
X154805882Y-64765146D01*
X154808501Y-64731873D01*
X154821633Y-64564999D01*
X159749631Y-64564999D01*
X159749632Y-64565000D01*
X161675000Y-64565000D01*
X161675000Y-63715000D01*
X162175000Y-63715000D01*
X162175000Y-64565000D01*
X164096257Y-64565000D01*
X164096257Y-64564999D01*
X175624631Y-64564999D01*
X175624632Y-64565000D01*
X177550000Y-64565000D01*
X177550000Y-63715000D01*
X176647601Y-63715000D01*
X176490874Y-63729965D01*
X176289312Y-63789149D01*
X176102587Y-63885412D01*
X175937461Y-64015269D01*
X175799888Y-64174036D01*
X175694853Y-64355963D01*
X175626143Y-64554488D01*
X175624631Y-64564999D01*
X164096257Y-64564999D01*
X164069229Y-64453589D01*
X163981960Y-64262494D01*
X163860107Y-64091378D01*
X163708066Y-63946407D01*
X163531344Y-63832833D01*
X163336314Y-63754755D01*
X163130038Y-63715000D01*
X162175000Y-63715000D01*
X161675000Y-63715000D01*
X160772601Y-63715000D01*
X160615874Y-63729965D01*
X160414312Y-63789149D01*
X160227587Y-63885412D01*
X160062461Y-64015269D01*
X159924888Y-64174036D01*
X159819853Y-64355963D01*
X159751143Y-64554488D01*
X159749631Y-64564999D01*
X154821633Y-64564999D01*
X154822026Y-64560009D01*
X154825068Y-64540803D01*
X154871965Y-64345464D01*
X154877971Y-64326979D01*
X154954848Y-64141380D01*
X154963681Y-64124047D01*
X155045587Y-63990391D01*
X155068637Y-63952776D01*
X155080073Y-63937037D01*
X155210531Y-63784290D01*
X155224290Y-63770531D01*
X155377037Y-63640073D01*
X155392778Y-63628636D01*
X155531923Y-63543367D01*
X155564050Y-63523679D01*
X155581380Y-63514848D01*
X155766979Y-63437971D01*
X155785464Y-63431965D01*
X155980803Y-63385068D01*
X156000009Y-63382026D01*
X156205146Y-63365881D01*
X156214875Y-63365500D01*
X156275892Y-63365500D01*
X177734108Y-63365500D01*
X177797586Y-63365500D01*
X177802395Y-63365592D01*
X178248637Y-63382914D01*
X178258203Y-63383659D01*
X178699355Y-63435237D01*
X178708856Y-63436724D01*
X178874806Y-63469326D01*
X178929378Y-63494992D01*
X178965388Y-63543367D01*
X178974319Y-63603008D01*
X178954058Y-63659809D01*
X178909398Y-63700335D01*
X178850902Y-63715000D01*
X178050000Y-63715000D01*
X178050000Y-64565000D01*
X179971257Y-64565000D01*
X179944229Y-64453589D01*
X179856960Y-64262494D01*
X179735107Y-64091378D01*
X179583066Y-63946407D01*
X179443923Y-63856984D01*
X179398313Y-63804496D01*
X179388128Y-63735711D01*
X179416570Y-63672258D01*
X179474695Y-63634091D01*
X179544224Y-63633214D01*
X179581913Y-63643709D01*
X179591036Y-63646635D01*
X180008411Y-63798598D01*
X180017291Y-63802227D01*
X180421621Y-63986080D01*
X180430187Y-63990383D01*
X180819064Y-64205035D01*
X180827274Y-64209992D01*
X181198329Y-64454133D01*
X181206141Y-64459719D01*
X181557148Y-64731884D01*
X181564476Y-64738035D01*
X181893352Y-65036607D01*
X181900211Y-65043338D01*
X182204921Y-65366474D01*
X182211243Y-65373723D01*
X182489994Y-65719513D01*
X182495736Y-65727230D01*
X182746832Y-66093568D01*
X182751959Y-66101707D01*
X182973915Y-66486431D01*
X182978395Y-66494943D01*
X183084277Y-66716572D01*
X183126173Y-66804268D01*
X183169850Y-66895690D01*
X183173657Y-66904524D01*
X183262505Y-67134896D01*
X183325540Y-67298341D01*
X183333478Y-67318922D01*
X183336589Y-67328025D01*
X183463807Y-67753571D01*
X183466202Y-67762887D01*
X183560047Y-68196989D01*
X183561714Y-68206463D01*
X183621628Y-68646554D01*
X183622555Y-68656128D01*
X183648175Y-69099535D01*
X183648357Y-69109153D01*
X183639529Y-69553223D01*
X183638964Y-69562825D01*
X183595743Y-70004839D01*
X183594437Y-70014369D01*
X183517076Y-70451741D01*
X183515034Y-70461142D01*
X183414136Y-70851946D01*
X183405543Y-70875265D01*
X171652899Y-94994176D01*
X171644911Y-95008178D01*
X171631021Y-95029216D01*
X171623201Y-95052676D01*
X171620792Y-95058578D01*
X171611493Y-95087543D01*
X171608212Y-95096549D01*
X171537796Y-95268841D01*
X171530594Y-95283591D01*
X171439540Y-95442452D01*
X171430453Y-95456122D01*
X171319209Y-95601571D01*
X171308396Y-95613920D01*
X171178920Y-95743396D01*
X171166571Y-95754209D01*
X171021122Y-95865453D01*
X171007452Y-95874540D01*
X170848593Y-95965593D01*
X170833844Y-95972795D01*
X170742122Y-96010283D01*
X170695209Y-96019500D01*
X92714875Y-96019500D01*
X92705146Y-96019118D01*
X92500015Y-96002973D01*
X92480797Y-95999929D01*
X92285475Y-95953037D01*
X92266969Y-95947024D01*
X92081384Y-95870152D01*
X92064047Y-95861318D01*
X91892778Y-95756363D01*
X91877037Y-95744926D01*
X91724290Y-95614468D01*
X91710531Y-95600709D01*
X91580073Y-95447962D01*
X91568636Y-95432221D01*
X91538301Y-95382720D01*
X151350831Y-95382720D01*
X151522546Y-95499793D01*
X151758860Y-95613596D01*
X152009496Y-95690908D01*
X152268856Y-95730000D01*
X152531144Y-95730000D01*
X152790503Y-95690908D01*
X153041139Y-95613596D01*
X153277456Y-95499792D01*
X153449167Y-95382720D01*
X152400001Y-94333553D01*
X152400000Y-94333553D01*
X151350831Y-95382720D01*
X91538301Y-95382720D01*
X91463681Y-95260952D01*
X91454847Y-95243615D01*
X91441298Y-95210906D01*
X91377973Y-95058024D01*
X91371964Y-95039531D01*
X91325069Y-94844197D01*
X91322026Y-94824984D01*
X91321362Y-94816551D01*
X91305881Y-94619853D01*
X91305500Y-94610125D01*
X91305500Y-94165862D01*
X91314939Y-94118409D01*
X91341819Y-94078181D01*
X91420808Y-93999192D01*
X91721704Y-93698295D01*
X91776083Y-93666534D01*
X91839056Y-93665582D01*
X91894373Y-93695689D01*
X91927766Y-93749088D01*
X91932633Y-93764707D01*
X91934179Y-93767265D01*
X91934181Y-93767265D01*
X92991446Y-92710000D01*
X93698551Y-92710000D01*
X92287732Y-94120818D01*
X92290296Y-94122368D01*
X92454440Y-94173517D01*
X92525773Y-94179999D01*
X101784228Y-94179999D01*
X101855556Y-94173518D01*
X102019704Y-94122367D01*
X102022265Y-94120818D01*
X100611447Y-92710000D01*
X101318553Y-92710000D01*
X102375818Y-93767265D01*
X102377366Y-93764706D01*
X102382232Y-93749092D01*
X102415623Y-93695692D01*
X102470941Y-93665584D01*
X102533915Y-93666534D01*
X102588299Y-93698299D01*
X104140000Y-95250000D01*
X120015000Y-95250000D01*
X121011731Y-94253269D01*
X122801500Y-94253269D01*
X122804353Y-94283696D01*
X122849207Y-94411884D01*
X122929849Y-94521150D01*
X123039115Y-94601792D01*
X123039118Y-94601793D01*
X123167301Y-94646646D01*
X123179474Y-94647787D01*
X123197731Y-94649500D01*
X123197734Y-94649500D01*
X123806266Y-94649500D01*
X123806269Y-94649500D01*
X123821482Y-94648072D01*
X123836699Y-94646646D01*
X123964882Y-94601793D01*
X123964882Y-94601792D01*
X123964884Y-94601792D01*
X124074148Y-94521152D01*
X124074148Y-94521150D01*
X124074150Y-94521150D01*
X124151730Y-94416032D01*
X124195618Y-94378972D01*
X124251500Y-94365666D01*
X124307382Y-94378972D01*
X124351271Y-94416033D01*
X124428851Y-94521152D01*
X124538115Y-94601792D01*
X124538118Y-94601793D01*
X124666301Y-94646646D01*
X124678474Y-94647787D01*
X124696731Y-94649500D01*
X124696734Y-94649500D01*
X125305266Y-94649500D01*
X125305269Y-94649500D01*
X125320482Y-94648072D01*
X125335699Y-94646646D01*
X125463882Y-94601793D01*
X125463882Y-94601792D01*
X125463884Y-94601792D01*
X125573148Y-94521152D01*
X125573148Y-94521150D01*
X125573150Y-94521150D01*
X125650730Y-94416032D01*
X125694618Y-94378972D01*
X125750500Y-94365666D01*
X125806382Y-94378972D01*
X125850271Y-94416033D01*
X125927851Y-94521152D01*
X126037115Y-94601792D01*
X126037118Y-94601793D01*
X126165301Y-94646646D01*
X126177474Y-94647787D01*
X126195731Y-94649500D01*
X126195734Y-94649500D01*
X126804266Y-94649500D01*
X126804269Y-94649500D01*
X126819482Y-94648072D01*
X126834699Y-94646646D01*
X126962882Y-94601793D01*
X126962882Y-94601792D01*
X126962884Y-94601792D01*
X127072148Y-94521152D01*
X127072148Y-94521150D01*
X127072150Y-94521150D01*
X127149730Y-94416032D01*
X127193618Y-94378972D01*
X127249500Y-94365666D01*
X127305382Y-94378972D01*
X127349271Y-94416033D01*
X127426851Y-94521152D01*
X127536115Y-94601792D01*
X127536118Y-94601793D01*
X127664301Y-94646646D01*
X127676474Y-94647787D01*
X127694731Y-94649500D01*
X127694734Y-94649500D01*
X128303266Y-94649500D01*
X128303269Y-94649500D01*
X128318482Y-94648072D01*
X128333699Y-94646646D01*
X128461882Y-94601793D01*
X128461882Y-94601792D01*
X128461884Y-94601792D01*
X128571148Y-94521152D01*
X128571148Y-94521150D01*
X128571150Y-94521150D01*
X128648730Y-94416032D01*
X128692618Y-94378972D01*
X128748500Y-94365666D01*
X128804382Y-94378972D01*
X128848271Y-94416033D01*
X128925851Y-94521152D01*
X129035115Y-94601792D01*
X129035118Y-94601793D01*
X129163301Y-94646646D01*
X129175474Y-94647787D01*
X129193731Y-94649500D01*
X129193734Y-94649500D01*
X129802266Y-94649500D01*
X129802269Y-94649500D01*
X129817482Y-94648072D01*
X129832699Y-94646646D01*
X129960882Y-94601793D01*
X129960882Y-94601792D01*
X129960884Y-94601792D01*
X130070150Y-94521150D01*
X130150792Y-94411884D01*
X130152819Y-94406091D01*
X130195646Y-94283699D01*
X130198500Y-94253269D01*
X134793500Y-94253269D01*
X134796353Y-94283696D01*
X134841207Y-94411884D01*
X134921849Y-94521150D01*
X135031115Y-94601792D01*
X135031118Y-94601793D01*
X135159301Y-94646646D01*
X135171474Y-94647787D01*
X135189731Y-94649500D01*
X135189734Y-94649500D01*
X135798266Y-94649500D01*
X135798269Y-94649500D01*
X135813482Y-94648072D01*
X135828699Y-94646646D01*
X135956882Y-94601793D01*
X135956882Y-94601792D01*
X135956884Y-94601792D01*
X136066148Y-94521152D01*
X136066148Y-94521150D01*
X136066150Y-94521150D01*
X136143730Y-94416032D01*
X136187618Y-94378972D01*
X136243500Y-94365666D01*
X136299382Y-94378972D01*
X136343271Y-94416033D01*
X136420851Y-94521152D01*
X136530115Y-94601792D01*
X136530118Y-94601793D01*
X136658301Y-94646646D01*
X136670474Y-94647787D01*
X136688731Y-94649500D01*
X136688734Y-94649500D01*
X137297266Y-94649500D01*
X137297269Y-94649500D01*
X137312482Y-94648072D01*
X137327699Y-94646646D01*
X137455882Y-94601793D01*
X137455882Y-94601792D01*
X137455884Y-94601792D01*
X137565150Y-94521150D01*
X137645792Y-94411884D01*
X137647819Y-94406091D01*
X137690646Y-94283699D01*
X137693500Y-94253269D01*
X139290500Y-94253269D01*
X139293353Y-94283696D01*
X139338207Y-94411884D01*
X139418849Y-94521150D01*
X139528115Y-94601792D01*
X139528118Y-94601793D01*
X139656301Y-94646646D01*
X139668474Y-94647787D01*
X139686731Y-94649500D01*
X139686734Y-94649500D01*
X140295266Y-94649500D01*
X140295269Y-94649500D01*
X140310482Y-94648072D01*
X140325699Y-94646646D01*
X140453882Y-94601793D01*
X140555541Y-94526765D01*
X140609165Y-94504161D01*
X140667198Y-94508510D01*
X140716855Y-94538855D01*
X140970000Y-94792000D01*
X143510000Y-94792000D01*
X145415000Y-94792000D01*
X146050000Y-94157000D01*
X146050000Y-93979999D01*
X150645092Y-93979999D01*
X150664693Y-94241552D01*
X150723059Y-94497270D01*
X150818882Y-94741424D01*
X150950027Y-94968573D01*
X150997873Y-95028571D01*
X150997874Y-95028571D01*
X152046446Y-93980001D01*
X152753553Y-93980001D01*
X153802124Y-95028571D01*
X153849972Y-94968572D01*
X153981117Y-94741423D01*
X154076940Y-94497270D01*
X154135306Y-94241552D01*
X154154907Y-93979999D01*
X154135306Y-93718447D01*
X154076940Y-93462729D01*
X153981117Y-93218575D01*
X153924204Y-93120000D01*
X158510001Y-93120000D01*
X158510001Y-93374199D01*
X158512851Y-93404605D01*
X158557654Y-93532646D01*
X158638207Y-93641792D01*
X158747353Y-93722345D01*
X158875396Y-93767149D01*
X158905794Y-93770000D01*
X159135000Y-93770000D01*
X159135000Y-93120000D01*
X159635000Y-93120000D01*
X159635000Y-93769999D01*
X159864199Y-93769999D01*
X159894605Y-93767148D01*
X160022646Y-93722345D01*
X160131792Y-93641792D01*
X160212345Y-93532646D01*
X160257149Y-93404603D01*
X160260000Y-93374206D01*
X160260000Y-93120000D01*
X159635000Y-93120000D01*
X159135000Y-93120000D01*
X158510001Y-93120000D01*
X153924204Y-93120000D01*
X153849972Y-92991426D01*
X153802125Y-92931427D01*
X152753553Y-93980000D01*
X152753553Y-93980001D01*
X152046446Y-93980001D01*
X152046446Y-93980000D01*
X150997873Y-92931427D01*
X150950028Y-92991424D01*
X150818882Y-93218576D01*
X150723059Y-93462729D01*
X150664693Y-93718447D01*
X150645092Y-93979999D01*
X146050000Y-93979999D01*
X146050000Y-92577278D01*
X151350832Y-92577278D01*
X152400000Y-93626446D01*
X152400001Y-93626446D01*
X153406445Y-92620000D01*
X158510000Y-92620000D01*
X159135000Y-92620000D01*
X159135000Y-91970001D01*
X158905801Y-91970001D01*
X158875394Y-91972851D01*
X158747353Y-92017654D01*
X158638207Y-92098207D01*
X158557654Y-92207353D01*
X158512850Y-92335396D01*
X158510000Y-92365794D01*
X158510000Y-92620000D01*
X153406445Y-92620000D01*
X153449167Y-92577278D01*
X153277451Y-92460205D01*
X153041139Y-92346403D01*
X152790503Y-92269091D01*
X152531144Y-92230000D01*
X152268856Y-92230000D01*
X152009496Y-92269091D01*
X151758860Y-92346403D01*
X151522545Y-92460206D01*
X151350832Y-92577278D01*
X146050000Y-92577278D01*
X146050000Y-91970000D01*
X159635000Y-91970000D01*
X159635000Y-92620000D01*
X160259999Y-92620000D01*
X160259999Y-92365801D01*
X160257148Y-92335394D01*
X160212345Y-92207353D01*
X160131792Y-92098207D01*
X160022646Y-92017654D01*
X159894603Y-91972850D01*
X159864206Y-91970000D01*
X159635000Y-91970000D01*
X146050000Y-91970000D01*
X146050000Y-91617000D01*
X145829500Y-91617000D01*
X145767500Y-91600387D01*
X145722113Y-91555000D01*
X145705500Y-91493000D01*
X145705500Y-91317731D01*
X145702646Y-91287303D01*
X145702646Y-91287301D01*
X145686132Y-91240109D01*
X145682283Y-91171565D01*
X145715491Y-91111478D01*
X146320151Y-90506819D01*
X146360380Y-90479939D01*
X146407833Y-90470500D01*
X158385500Y-90470500D01*
X158447500Y-90487113D01*
X158492887Y-90532500D01*
X158509500Y-90594500D01*
X158509500Y-90674269D01*
X158512353Y-90704696D01*
X158557207Y-90832884D01*
X158637849Y-90942150D01*
X158747115Y-91022792D01*
X158747118Y-91022793D01*
X158875301Y-91067646D01*
X158887474Y-91068787D01*
X158905731Y-91070500D01*
X158905734Y-91070500D01*
X159864266Y-91070500D01*
X159864269Y-91070500D01*
X159879482Y-91069072D01*
X159894699Y-91067646D01*
X160022882Y-91022793D01*
X160022882Y-91022792D01*
X160022884Y-91022792D01*
X160132150Y-90942150D01*
X160212792Y-90832884D01*
X160212793Y-90832882D01*
X160257646Y-90704699D01*
X160260500Y-90674266D01*
X160260500Y-90594500D01*
X160277113Y-90532500D01*
X160322500Y-90487113D01*
X160384500Y-90470500D01*
X161595500Y-90470500D01*
X161657500Y-90487113D01*
X161702887Y-90532500D01*
X161719500Y-90594500D01*
X161719500Y-94365998D01*
X161723449Y-94406097D01*
X161742401Y-94501376D01*
X161773087Y-94575460D01*
X161827061Y-94656238D01*
X161883761Y-94712938D01*
X161964539Y-94766912D01*
X161964541Y-94766913D01*
X161964543Y-94766914D01*
X162013928Y-94787369D01*
X162038623Y-94797598D01*
X162133902Y-94816550D01*
X162133905Y-94816550D01*
X162133909Y-94816551D01*
X162174000Y-94820500D01*
X168025998Y-94820500D01*
X168026000Y-94820500D01*
X168066091Y-94816551D01*
X168066095Y-94816550D01*
X168066097Y-94816550D01*
X168161376Y-94797598D01*
X168161377Y-94797597D01*
X168161379Y-94797597D01*
X168235457Y-94766914D01*
X168316239Y-94712938D01*
X168372938Y-94656239D01*
X168426914Y-94575457D01*
X168457597Y-94501379D01*
X168458415Y-94497270D01*
X168476550Y-94406097D01*
X168480500Y-94365998D01*
X168480500Y-94179000D01*
X168497113Y-94117000D01*
X168542500Y-94071613D01*
X168604500Y-94055000D01*
X169270000Y-94055000D01*
X169270000Y-93355000D01*
X169770000Y-93355000D01*
X169770000Y-94055000D01*
X170539697Y-94055000D01*
X170598036Y-94043395D01*
X170664192Y-93999192D01*
X170708395Y-93933036D01*
X170720000Y-93874697D01*
X170720000Y-93355000D01*
X169770000Y-93355000D01*
X169270000Y-93355000D01*
X169270000Y-92155000D01*
X169770000Y-92155000D01*
X169770000Y-92855000D01*
X170720000Y-92855000D01*
X170720000Y-92335303D01*
X170708395Y-92276963D01*
X170664192Y-92210807D01*
X170598036Y-92166604D01*
X170539697Y-92155000D01*
X169770000Y-92155000D01*
X169270000Y-92155000D01*
X168604500Y-92155000D01*
X168542500Y-92138387D01*
X168497113Y-92093000D01*
X168480500Y-92031000D01*
X168480500Y-91879500D01*
X168497113Y-91817500D01*
X168542500Y-91772113D01*
X168604500Y-91755500D01*
X170539749Y-91755500D01*
X170568989Y-91749683D01*
X170598231Y-91743867D01*
X170664552Y-91699552D01*
X170708867Y-91633231D01*
X170720500Y-91574748D01*
X170720500Y-90035252D01*
X170708867Y-89976769D01*
X170664552Y-89910447D01*
X170598230Y-89866132D01*
X170539749Y-89854500D01*
X170539748Y-89854500D01*
X168604500Y-89854500D01*
X168542500Y-89837887D01*
X168497113Y-89792500D01*
X168480500Y-89730500D01*
X168480500Y-89579500D01*
X168497113Y-89517500D01*
X168542500Y-89472113D01*
X168604500Y-89455500D01*
X170539749Y-89455500D01*
X170568989Y-89449683D01*
X170598231Y-89443867D01*
X170664552Y-89399552D01*
X170708867Y-89333231D01*
X170720500Y-89274748D01*
X170720500Y-87735252D01*
X170708867Y-87676769D01*
X170708866Y-87676768D01*
X170664552Y-87610447D01*
X170598230Y-87566132D01*
X170539749Y-87554500D01*
X170539748Y-87554500D01*
X169969500Y-87554500D01*
X169907500Y-87537887D01*
X169862113Y-87492500D01*
X169845500Y-87430500D01*
X169845500Y-86076592D01*
X169855846Y-86027005D01*
X169885159Y-85985693D01*
X169928544Y-85959550D01*
X170047882Y-85917793D01*
X170047882Y-85917792D01*
X170047884Y-85917792D01*
X170157150Y-85837150D01*
X170237792Y-85727884D01*
X170237793Y-85727882D01*
X170282646Y-85599699D01*
X170285500Y-85569266D01*
X170285500Y-85340000D01*
X171185001Y-85340000D01*
X171185001Y-85569199D01*
X171187851Y-85599605D01*
X171232654Y-85727646D01*
X171313207Y-85836792D01*
X171422353Y-85917345D01*
X171550396Y-85962149D01*
X171580794Y-85965000D01*
X171835000Y-85965000D01*
X171835000Y-85340000D01*
X172335000Y-85340000D01*
X172335000Y-85964999D01*
X172589199Y-85964999D01*
X172619605Y-85962148D01*
X172747646Y-85917345D01*
X172856792Y-85836792D01*
X172937345Y-85727646D01*
X172982149Y-85599603D01*
X172985000Y-85569206D01*
X172985000Y-85340000D01*
X172335000Y-85340000D01*
X171835000Y-85340000D01*
X171185001Y-85340000D01*
X170285500Y-85340000D01*
X170285500Y-84840000D01*
X171185000Y-84840000D01*
X171835000Y-84840000D01*
X171835000Y-84215001D01*
X171580801Y-84215001D01*
X171550394Y-84217851D01*
X171422353Y-84262654D01*
X171313207Y-84343207D01*
X171232654Y-84452353D01*
X171187850Y-84580396D01*
X171185000Y-84610794D01*
X171185000Y-84840000D01*
X170285500Y-84840000D01*
X170285500Y-84610734D01*
X170282646Y-84580301D01*
X170237793Y-84452118D01*
X170237792Y-84452115D01*
X170157150Y-84342849D01*
X170047884Y-84262207D01*
X169965397Y-84233344D01*
X169928544Y-84220449D01*
X169919501Y-84215000D01*
X172335000Y-84215000D01*
X172335000Y-84840000D01*
X172984999Y-84840000D01*
X172984999Y-84610801D01*
X172982148Y-84580394D01*
X172937345Y-84452353D01*
X172856792Y-84343207D01*
X172747646Y-84262654D01*
X172619603Y-84217850D01*
X172589206Y-84215000D01*
X172335000Y-84215000D01*
X169919501Y-84215000D01*
X169885159Y-84194307D01*
X169855846Y-84152995D01*
X169845500Y-84103408D01*
X169845500Y-83572443D01*
X169860233Y-83513820D01*
X169900931Y-83469127D01*
X169957922Y-83448985D01*
X169963079Y-83448501D01*
X169972199Y-83447646D01*
X170100382Y-83402793D01*
X170100382Y-83402792D01*
X170100384Y-83402792D01*
X170209650Y-83322150D01*
X170290292Y-83212884D01*
X170293823Y-83202793D01*
X170335146Y-83084699D01*
X170338000Y-83054266D01*
X170338000Y-82045734D01*
X170335146Y-82015301D01*
X170290293Y-81887118D01*
X170290292Y-81887115D01*
X170209650Y-81777849D01*
X170100384Y-81697207D01*
X169972196Y-81652353D01*
X169941769Y-81649500D01*
X169941766Y-81649500D01*
X169308234Y-81649500D01*
X169308231Y-81649500D01*
X169277803Y-81652353D01*
X169149615Y-81697207D01*
X169040349Y-81777849D01*
X168959707Y-81887115D01*
X168914853Y-82015303D01*
X168912000Y-82045731D01*
X168912000Y-83054269D01*
X168914853Y-83084696D01*
X168959707Y-83212884D01*
X169040349Y-83322150D01*
X169149617Y-83402793D01*
X169161455Y-83406936D01*
X169204842Y-83433079D01*
X169234154Y-83474391D01*
X169244500Y-83523977D01*
X169244500Y-84090500D01*
X169227887Y-84152500D01*
X169182500Y-84197887D01*
X169120500Y-84214500D01*
X168880731Y-84214500D01*
X168850303Y-84217353D01*
X168722115Y-84262207D01*
X168612849Y-84342849D01*
X168532207Y-84452115D01*
X168487353Y-84580303D01*
X168484500Y-84610731D01*
X168484500Y-85569269D01*
X168487353Y-85599696D01*
X168532207Y-85727884D01*
X168612849Y-85837150D01*
X168722115Y-85917792D01*
X168722118Y-85917793D01*
X168850301Y-85962646D01*
X168862474Y-85963787D01*
X168880731Y-85965500D01*
X168880734Y-85965500D01*
X169120500Y-85965500D01*
X169182500Y-85982113D01*
X169227887Y-86027500D01*
X169244500Y-86089500D01*
X169244500Y-87430500D01*
X169227887Y-87492500D01*
X169182500Y-87537887D01*
X169120500Y-87554500D01*
X168604500Y-87554500D01*
X168542500Y-87537887D01*
X168497113Y-87492500D01*
X168480500Y-87430500D01*
X168480500Y-87244002D01*
X168477848Y-87217080D01*
X168476551Y-87203909D01*
X168476550Y-87203902D01*
X168457598Y-87108623D01*
X168447369Y-87083928D01*
X168426914Y-87034543D01*
X168426913Y-87034541D01*
X168426912Y-87034539D01*
X168372938Y-86953761D01*
X168316238Y-86897061D01*
X168235460Y-86843087D01*
X168161376Y-86812401D01*
X168066097Y-86793449D01*
X168036022Y-86790487D01*
X168026000Y-86789500D01*
X162174000Y-86789500D01*
X162165090Y-86790377D01*
X162133902Y-86793449D01*
X162038623Y-86812401D01*
X161964539Y-86843087D01*
X161883761Y-86897061D01*
X161827061Y-86953761D01*
X161773087Y-87034539D01*
X161742401Y-87108623D01*
X161723449Y-87203902D01*
X161719500Y-87244002D01*
X161719500Y-89745500D01*
X161702887Y-89807500D01*
X161657500Y-89852887D01*
X161595500Y-89869500D01*
X160384500Y-89869500D01*
X160322500Y-89852887D01*
X160277113Y-89807500D01*
X160260500Y-89745500D01*
X160260500Y-89665731D01*
X160257646Y-89635303D01*
X160257646Y-89635301D01*
X160212793Y-89507118D01*
X160212792Y-89507115D01*
X160132150Y-89397849D01*
X160022884Y-89317207D01*
X159894696Y-89272353D01*
X159864269Y-89269500D01*
X159864266Y-89269500D01*
X158905734Y-89269500D01*
X158905731Y-89269500D01*
X158875303Y-89272353D01*
X158747115Y-89317207D01*
X158637849Y-89397849D01*
X158557207Y-89507115D01*
X158512353Y-89635303D01*
X158509500Y-89665731D01*
X158509500Y-89745500D01*
X158492887Y-89807500D01*
X158447500Y-89852887D01*
X158385500Y-89869500D01*
X146301243Y-89869500D01*
X146284422Y-89866756D01*
X146241308Y-89868749D01*
X146227919Y-89869368D01*
X146222195Y-89869500D01*
X146203183Y-89869500D01*
X146188695Y-89871181D01*
X146162007Y-89872415D01*
X146155666Y-89875215D01*
X146128378Y-89883665D01*
X146121568Y-89884938D01*
X146098859Y-89898998D01*
X146083677Y-89907000D01*
X146059233Y-89917794D01*
X146054333Y-89922694D01*
X146031943Y-89940429D01*
X146026048Y-89944079D01*
X146009950Y-89965396D01*
X145998679Y-89978348D01*
X145091848Y-90885181D01*
X145051620Y-90912061D01*
X145004167Y-90921500D01*
X144250731Y-90921500D01*
X144220303Y-90924353D01*
X144092115Y-90969207D01*
X143982849Y-91049849D01*
X143902208Y-91159114D01*
X143874446Y-91238455D01*
X143848302Y-91281841D01*
X143806991Y-91311154D01*
X143757404Y-91321500D01*
X140857243Y-91321500D01*
X140840422Y-91318756D01*
X140797308Y-91320749D01*
X140783919Y-91321368D01*
X140778195Y-91321500D01*
X140759183Y-91321500D01*
X140744695Y-91323181D01*
X140718007Y-91324415D01*
X140711666Y-91327215D01*
X140684378Y-91335665D01*
X140677568Y-91336938D01*
X140654859Y-91350998D01*
X140639677Y-91359000D01*
X140615233Y-91369794D01*
X140610333Y-91374694D01*
X140587943Y-91392429D01*
X140582048Y-91396079D01*
X140565950Y-91417396D01*
X140554679Y-91430348D01*
X139827475Y-92157552D01*
X139813639Y-92167508D01*
X139775523Y-92209318D01*
X139771573Y-92213454D01*
X139758141Y-92226886D01*
X139749087Y-92238317D01*
X139731083Y-92258067D01*
X139728578Y-92264534D01*
X139715259Y-92289802D01*
X139711343Y-92295518D01*
X139705228Y-92321517D01*
X139700151Y-92337913D01*
X139690500Y-92362827D01*
X139690500Y-92369751D01*
X139687206Y-92398144D01*
X139685621Y-92404881D01*
X139689311Y-92431332D01*
X139690500Y-92448465D01*
X139690500Y-92651404D01*
X139680154Y-92700991D01*
X139650841Y-92742302D01*
X139607455Y-92768446D01*
X139528114Y-92796208D01*
X139418849Y-92876849D01*
X139338207Y-92986115D01*
X139293353Y-93114303D01*
X139290500Y-93144731D01*
X139290500Y-94253269D01*
X137693500Y-94253269D01*
X137693500Y-94253266D01*
X137693500Y-93144734D01*
X137690646Y-93114301D01*
X137645793Y-92986118D01*
X137645792Y-92986115D01*
X137565150Y-92876849D01*
X137455884Y-92796207D01*
X137327696Y-92751353D01*
X137297269Y-92748500D01*
X137297266Y-92748500D01*
X136688734Y-92748500D01*
X136688731Y-92748500D01*
X136658303Y-92751353D01*
X136530115Y-92796207D01*
X136420849Y-92876849D01*
X136343270Y-92981966D01*
X136299381Y-93019028D01*
X136243500Y-93032333D01*
X136187619Y-93019028D01*
X136143730Y-92981966D01*
X136066150Y-92876849D01*
X135956884Y-92796207D01*
X135828696Y-92751353D01*
X135798269Y-92748500D01*
X135798266Y-92748500D01*
X135189734Y-92748500D01*
X135189731Y-92748500D01*
X135159303Y-92751353D01*
X135031115Y-92796207D01*
X134921849Y-92876849D01*
X134841207Y-92986115D01*
X134796353Y-93114303D01*
X134793500Y-93144731D01*
X134793500Y-94253269D01*
X130198500Y-94253269D01*
X130198500Y-94253266D01*
X130198500Y-93144734D01*
X130195646Y-93114301D01*
X130150793Y-92986118D01*
X130150792Y-92986115D01*
X130070150Y-92876849D01*
X129960884Y-92796207D01*
X129832696Y-92751353D01*
X129802269Y-92748500D01*
X129802266Y-92748500D01*
X129193734Y-92748500D01*
X129193731Y-92748500D01*
X129163303Y-92751353D01*
X129035115Y-92796207D01*
X128925850Y-92876848D01*
X128848269Y-92981967D01*
X128804380Y-93019028D01*
X128748498Y-93032333D01*
X128692617Y-93019027D01*
X128648729Y-92981967D01*
X128571150Y-92876850D01*
X128571149Y-92876849D01*
X128571148Y-92876847D01*
X128461884Y-92796207D01*
X128333696Y-92751353D01*
X128303269Y-92748500D01*
X128303266Y-92748500D01*
X127694734Y-92748500D01*
X127694731Y-92748500D01*
X127664303Y-92751353D01*
X127536115Y-92796207D01*
X127426850Y-92876848D01*
X127349269Y-92981967D01*
X127305380Y-93019028D01*
X127249498Y-93032333D01*
X127193617Y-93019027D01*
X127149729Y-92981967D01*
X127072150Y-92876850D01*
X127072149Y-92876849D01*
X127072148Y-92876847D01*
X126962884Y-92796207D01*
X126834696Y-92751353D01*
X126804269Y-92748500D01*
X126804266Y-92748500D01*
X126195734Y-92748500D01*
X126195731Y-92748500D01*
X126165303Y-92751353D01*
X126037115Y-92796207D01*
X125927850Y-92876848D01*
X125850269Y-92981967D01*
X125806380Y-93019028D01*
X125750498Y-93032333D01*
X125694617Y-93019027D01*
X125650729Y-92981967D01*
X125573150Y-92876850D01*
X125573149Y-92876849D01*
X125573148Y-92876847D01*
X125546669Y-92857305D01*
X125506341Y-92806412D01*
X125497264Y-92742116D01*
X125521926Y-92682048D01*
X125523279Y-92680283D01*
X125523282Y-92680282D01*
X125619536Y-92554841D01*
X125680044Y-92408762D01*
X125700682Y-92252000D01*
X125680044Y-92095238D01*
X125619536Y-91949159D01*
X125566085Y-91879500D01*
X125523282Y-91823717D01*
X125397840Y-91727463D01*
X125251762Y-91666956D01*
X125095000Y-91646317D01*
X124938237Y-91666956D01*
X124792159Y-91727463D01*
X124666717Y-91823717D01*
X124570463Y-91949159D01*
X124509956Y-92095237D01*
X124489317Y-92251999D01*
X124509956Y-92408762D01*
X124570463Y-92554840D01*
X124605313Y-92600258D01*
X124628882Y-92653260D01*
X124625765Y-92711182D01*
X124596646Y-92761350D01*
X124547896Y-92792784D01*
X124538117Y-92796205D01*
X124428850Y-92876848D01*
X124351269Y-92981967D01*
X124307380Y-93019028D01*
X124251498Y-93032333D01*
X124195617Y-93019027D01*
X124151729Y-92981967D01*
X124074150Y-92876850D01*
X124074149Y-92876849D01*
X124074148Y-92876847D01*
X123987655Y-92813013D01*
X123947327Y-92762120D01*
X123938250Y-92697824D01*
X123962913Y-92637756D01*
X123991686Y-92600258D01*
X124026536Y-92554841D01*
X124087044Y-92408762D01*
X124107682Y-92252000D01*
X124087044Y-92095238D01*
X124026536Y-91949159D01*
X123973085Y-91879500D01*
X123930282Y-91823717D01*
X123804840Y-91727463D01*
X123658762Y-91666956D01*
X123502000Y-91646317D01*
X123345237Y-91666956D01*
X123199159Y-91727463D01*
X123073717Y-91823717D01*
X122977463Y-91949159D01*
X122916956Y-92095237D01*
X122896317Y-92251999D01*
X122916956Y-92408762D01*
X122977463Y-92554840D01*
X123041087Y-92637757D01*
X123065749Y-92697825D01*
X123056672Y-92762120D01*
X123016345Y-92813013D01*
X122929848Y-92876850D01*
X122849207Y-92986115D01*
X122804353Y-93114303D01*
X122801500Y-93144731D01*
X122801500Y-94253269D01*
X121011731Y-94253269D01*
X122555000Y-92710000D01*
X122555000Y-87629999D01*
X146079317Y-87629999D01*
X146099956Y-87786762D01*
X146160463Y-87932840D01*
X146256717Y-88058282D01*
X146355746Y-88134269D01*
X146382159Y-88154536D01*
X146528238Y-88215044D01*
X146685000Y-88235682D01*
X146841762Y-88215044D01*
X146987841Y-88154536D01*
X147051712Y-88105525D01*
X147104715Y-88081956D01*
X147162639Y-88085073D01*
X147212807Y-88114194D01*
X147244241Y-88162947D01*
X147289707Y-88292884D01*
X147370349Y-88402150D01*
X147479615Y-88482792D01*
X147479618Y-88482793D01*
X147607801Y-88527646D01*
X147619974Y-88528787D01*
X147638231Y-88530500D01*
X147638234Y-88530500D01*
X148271766Y-88530500D01*
X148271769Y-88530500D01*
X148286982Y-88529073D01*
X148302199Y-88527646D01*
X148430382Y-88482793D01*
X148430382Y-88482792D01*
X148430384Y-88482792D01*
X148539650Y-88402150D01*
X148620292Y-88292884D01*
X148620293Y-88292882D01*
X148665146Y-88164699D01*
X148668000Y-88134269D01*
X149067000Y-88134269D01*
X149069853Y-88164696D01*
X149114707Y-88292884D01*
X149195349Y-88402150D01*
X149304615Y-88482792D01*
X149304618Y-88482793D01*
X149432801Y-88527646D01*
X149444974Y-88528787D01*
X149463231Y-88530500D01*
X149463234Y-88530500D01*
X150096766Y-88530500D01*
X150096769Y-88530500D01*
X150111982Y-88529073D01*
X150127199Y-88527646D01*
X150255382Y-88482793D01*
X150255382Y-88482792D01*
X150255384Y-88482792D01*
X150364650Y-88402150D01*
X150445292Y-88292884D01*
X150445293Y-88292882D01*
X150490146Y-88164699D01*
X150493000Y-88134266D01*
X150493000Y-88054500D01*
X150509613Y-87992500D01*
X150555000Y-87947113D01*
X150617000Y-87930500D01*
X151551853Y-87930500D01*
X151610476Y-87945233D01*
X151655168Y-87985929D01*
X151675311Y-88042920D01*
X151677353Y-88064696D01*
X151722207Y-88192884D01*
X151802849Y-88302150D01*
X151912115Y-88382792D01*
X151912118Y-88382793D01*
X152040301Y-88427646D01*
X152052474Y-88428787D01*
X152070731Y-88430500D01*
X152070734Y-88430500D01*
X152729266Y-88430500D01*
X152729269Y-88430500D01*
X152744482Y-88429073D01*
X152759699Y-88427646D01*
X152887882Y-88382793D01*
X152887882Y-88382792D01*
X152887884Y-88382792D01*
X152997150Y-88302150D01*
X153077792Y-88192884D01*
X153077793Y-88192882D01*
X153122646Y-88064699D01*
X153124072Y-88049482D01*
X153125500Y-88034269D01*
X153974500Y-88034269D01*
X153977353Y-88064696D01*
X154022207Y-88192884D01*
X154102849Y-88302150D01*
X154212115Y-88382792D01*
X154212118Y-88382793D01*
X154340301Y-88427646D01*
X154352474Y-88428787D01*
X154370731Y-88430500D01*
X154370734Y-88430500D01*
X155029266Y-88430500D01*
X155029269Y-88430500D01*
X155044482Y-88429073D01*
X155059699Y-88427646D01*
X155187882Y-88382793D01*
X155187882Y-88382792D01*
X155187884Y-88382792D01*
X155297150Y-88302150D01*
X155377792Y-88192884D01*
X155377793Y-88192882D01*
X155422646Y-88064699D01*
X155423320Y-88057501D01*
X155424689Y-88042920D01*
X155444832Y-87985929D01*
X155489524Y-87945233D01*
X155548147Y-87930500D01*
X155622518Y-87930500D01*
X155677362Y-87943288D01*
X155720893Y-87979013D01*
X155781718Y-88058282D01*
X155907159Y-88154536D01*
X156053238Y-88215044D01*
X156210000Y-88235682D01*
X156366762Y-88215044D01*
X156512841Y-88154536D01*
X156638282Y-88058282D01*
X156734536Y-87932841D01*
X156795044Y-87786762D01*
X156815682Y-87630000D01*
X156795044Y-87473238D01*
X156734536Y-87327159D01*
X156723585Y-87312887D01*
X156638282Y-87201717D01*
X156512840Y-87105463D01*
X156366762Y-87044956D01*
X156210000Y-87024317D01*
X156053237Y-87044956D01*
X155907159Y-87105463D01*
X155781718Y-87201717D01*
X155720894Y-87280986D01*
X155677362Y-87316712D01*
X155622518Y-87329500D01*
X155548147Y-87329500D01*
X155489524Y-87314767D01*
X155444832Y-87274071D01*
X155424689Y-87217080D01*
X155422646Y-87195303D01*
X155422646Y-87195301D01*
X155377793Y-87067118D01*
X155377792Y-87067115D01*
X155297150Y-86957849D01*
X155187884Y-86877207D01*
X155059696Y-86832353D01*
X155029269Y-86829500D01*
X155029266Y-86829500D01*
X154370734Y-86829500D01*
X154370731Y-86829500D01*
X154340303Y-86832353D01*
X154212115Y-86877207D01*
X154102849Y-86957849D01*
X154022207Y-87067115D01*
X153977353Y-87195303D01*
X153974500Y-87225731D01*
X153974500Y-88034269D01*
X153125500Y-88034269D01*
X153125500Y-87225731D01*
X153122646Y-87195303D01*
X153122646Y-87195301D01*
X153077793Y-87067118D01*
X153077792Y-87067115D01*
X152997150Y-86957849D01*
X152887884Y-86877207D01*
X152759696Y-86832353D01*
X152729269Y-86829500D01*
X152729266Y-86829500D01*
X152070734Y-86829500D01*
X152070731Y-86829500D01*
X152040303Y-86832353D01*
X151912115Y-86877207D01*
X151802849Y-86957849D01*
X151722207Y-87067115D01*
X151677353Y-87195303D01*
X151675311Y-87217080D01*
X151655168Y-87274071D01*
X151610476Y-87314767D01*
X151551853Y-87329500D01*
X150617000Y-87329500D01*
X150555000Y-87312887D01*
X150509613Y-87267500D01*
X150493000Y-87205500D01*
X150493000Y-87125731D01*
X150490146Y-87095303D01*
X150490146Y-87095301D01*
X150445293Y-86967118D01*
X150445292Y-86967115D01*
X150364650Y-86857849D01*
X150255384Y-86777207D01*
X150127196Y-86732353D01*
X150096769Y-86729500D01*
X150096766Y-86729500D01*
X149463234Y-86729500D01*
X149463231Y-86729500D01*
X149432803Y-86732353D01*
X149304615Y-86777207D01*
X149195349Y-86857849D01*
X149114707Y-86967115D01*
X149069853Y-87095303D01*
X149067000Y-87125731D01*
X149067000Y-88134269D01*
X148668000Y-88134269D01*
X148668000Y-88134266D01*
X148668000Y-87125734D01*
X148665146Y-87095301D01*
X148620293Y-86967118D01*
X148620292Y-86967115D01*
X148539650Y-86857849D01*
X148430384Y-86777207D01*
X148302196Y-86732353D01*
X148271769Y-86729500D01*
X148271766Y-86729500D01*
X147638234Y-86729500D01*
X147638231Y-86729500D01*
X147607803Y-86732353D01*
X147479615Y-86777207D01*
X147370349Y-86857849D01*
X147289708Y-86967114D01*
X147244241Y-87097053D01*
X147212807Y-87145805D01*
X147162639Y-87174926D01*
X147104716Y-87178043D01*
X147051713Y-87154474D01*
X146987840Y-87105463D01*
X146841762Y-87044956D01*
X146685000Y-87024317D01*
X146528237Y-87044956D01*
X146382159Y-87105463D01*
X146256717Y-87201717D01*
X146160463Y-87327159D01*
X146099956Y-87473237D01*
X146079317Y-87629999D01*
X122555000Y-87629999D01*
X122555000Y-85089999D01*
X146079317Y-85089999D01*
X146099956Y-85246762D01*
X146160463Y-85392840D01*
X146256717Y-85518282D01*
X146362698Y-85599603D01*
X146382159Y-85614536D01*
X146528238Y-85675044D01*
X146685000Y-85695682D01*
X146841762Y-85675044D01*
X146987841Y-85614536D01*
X147113282Y-85518282D01*
X147113284Y-85518279D01*
X147123344Y-85510560D01*
X147183795Y-85485851D01*
X147248416Y-85495282D01*
X147299284Y-85536236D01*
X147322289Y-85597356D01*
X147324853Y-85624696D01*
X147369707Y-85752884D01*
X147450349Y-85862150D01*
X147559615Y-85942792D01*
X147559618Y-85942793D01*
X147687801Y-85987646D01*
X147699974Y-85988787D01*
X147718231Y-85990500D01*
X147718234Y-85990500D01*
X148351766Y-85990500D01*
X148351769Y-85990500D01*
X148366982Y-85989073D01*
X148382199Y-85987646D01*
X148510382Y-85942793D01*
X148510382Y-85942792D01*
X148510384Y-85942792D01*
X148619650Y-85862150D01*
X148700292Y-85752884D01*
X148709040Y-85727884D01*
X148745146Y-85624699D01*
X148746573Y-85609482D01*
X148748000Y-85594269D01*
X149147000Y-85594269D01*
X149149853Y-85624696D01*
X149194707Y-85752884D01*
X149275349Y-85862150D01*
X149384615Y-85942792D01*
X149384618Y-85942793D01*
X149512801Y-85987646D01*
X149524974Y-85988787D01*
X149543231Y-85990500D01*
X149543234Y-85990500D01*
X150176766Y-85990500D01*
X150176769Y-85990500D01*
X150191982Y-85989073D01*
X150207199Y-85987646D01*
X150335382Y-85942793D01*
X150335382Y-85942792D01*
X150335384Y-85942792D01*
X150444650Y-85862150D01*
X150525292Y-85752884D01*
X150534040Y-85727884D01*
X150570146Y-85624699D01*
X150571573Y-85609482D01*
X150573000Y-85594269D01*
X150573000Y-85514500D01*
X150589613Y-85452500D01*
X150635000Y-85407113D01*
X150697000Y-85390500D01*
X151551853Y-85390500D01*
X151610476Y-85405233D01*
X151655168Y-85445929D01*
X151675311Y-85502920D01*
X151677353Y-85524696D01*
X151722207Y-85652884D01*
X151802849Y-85762150D01*
X151912115Y-85842792D01*
X151912118Y-85842793D01*
X152040301Y-85887646D01*
X152052474Y-85888787D01*
X152070731Y-85890500D01*
X152070734Y-85890500D01*
X152729266Y-85890500D01*
X152729269Y-85890500D01*
X152744482Y-85889073D01*
X152759699Y-85887646D01*
X152887882Y-85842793D01*
X152887882Y-85842792D01*
X152887884Y-85842792D01*
X152997150Y-85762150D01*
X153077792Y-85652884D01*
X153077793Y-85652882D01*
X153122646Y-85524699D01*
X153124072Y-85509482D01*
X153125500Y-85494269D01*
X153974500Y-85494269D01*
X153977353Y-85524696D01*
X154022207Y-85652884D01*
X154102849Y-85762150D01*
X154212115Y-85842792D01*
X154212118Y-85842793D01*
X154340301Y-85887646D01*
X154352474Y-85888787D01*
X154370731Y-85890500D01*
X154370734Y-85890500D01*
X155029266Y-85890500D01*
X155029269Y-85890500D01*
X155044482Y-85889073D01*
X155059699Y-85887646D01*
X155187882Y-85842793D01*
X155187882Y-85842792D01*
X155187884Y-85842792D01*
X155297150Y-85762150D01*
X155377792Y-85652884D01*
X155377793Y-85652882D01*
X155422646Y-85524699D01*
X155423320Y-85517501D01*
X155424689Y-85502920D01*
X155444832Y-85445929D01*
X155489524Y-85405233D01*
X155548147Y-85390500D01*
X155622518Y-85390500D01*
X155677362Y-85403288D01*
X155720893Y-85439013D01*
X155781718Y-85518282D01*
X155907159Y-85614536D01*
X156053238Y-85675044D01*
X156210000Y-85695682D01*
X156366762Y-85675044D01*
X156512841Y-85614536D01*
X156638282Y-85518282D01*
X156734536Y-85392841D01*
X156795044Y-85246762D01*
X156815682Y-85090000D01*
X156795044Y-84933238D01*
X156734536Y-84787159D01*
X156723585Y-84772887D01*
X156638282Y-84661717D01*
X156512840Y-84565463D01*
X156366762Y-84504956D01*
X156210000Y-84484317D01*
X156053237Y-84504956D01*
X155907159Y-84565463D01*
X155781718Y-84661717D01*
X155720894Y-84740986D01*
X155677362Y-84776712D01*
X155622518Y-84789500D01*
X155548147Y-84789500D01*
X155489524Y-84774767D01*
X155444832Y-84734071D01*
X155424689Y-84677080D01*
X155422646Y-84655303D01*
X155422646Y-84655301D01*
X155377793Y-84527118D01*
X155377792Y-84527115D01*
X155297150Y-84417849D01*
X155187884Y-84337207D01*
X155059696Y-84292353D01*
X155029269Y-84289500D01*
X155029266Y-84289500D01*
X154370734Y-84289500D01*
X154370731Y-84289500D01*
X154340303Y-84292353D01*
X154212115Y-84337207D01*
X154102849Y-84417849D01*
X154022207Y-84527115D01*
X153977353Y-84655303D01*
X153974500Y-84685731D01*
X153974500Y-85494269D01*
X153125500Y-85494269D01*
X153125500Y-84685731D01*
X153122646Y-84655303D01*
X153122646Y-84655301D01*
X153077793Y-84527118D01*
X153077792Y-84527115D01*
X152997150Y-84417849D01*
X152887884Y-84337207D01*
X152759696Y-84292353D01*
X152729269Y-84289500D01*
X152729266Y-84289500D01*
X152070734Y-84289500D01*
X152070731Y-84289500D01*
X152040303Y-84292353D01*
X151912115Y-84337207D01*
X151802849Y-84417849D01*
X151722207Y-84527115D01*
X151677353Y-84655303D01*
X151675311Y-84677080D01*
X151655168Y-84734071D01*
X151610476Y-84774767D01*
X151551853Y-84789500D01*
X150697000Y-84789500D01*
X150635000Y-84772887D01*
X150589613Y-84727500D01*
X150573000Y-84665500D01*
X150573000Y-84585731D01*
X150570146Y-84555303D01*
X150570146Y-84555301D01*
X150525293Y-84427118D01*
X150525292Y-84427115D01*
X150444650Y-84317849D01*
X150335384Y-84237207D01*
X150207196Y-84192353D01*
X150176769Y-84189500D01*
X150176766Y-84189500D01*
X149543234Y-84189500D01*
X149543231Y-84189500D01*
X149512803Y-84192353D01*
X149384615Y-84237207D01*
X149275349Y-84317849D01*
X149194707Y-84427115D01*
X149149853Y-84555303D01*
X149147000Y-84585731D01*
X149147000Y-85594269D01*
X148748000Y-85594269D01*
X148748000Y-84585731D01*
X148745146Y-84555303D01*
X148745146Y-84555301D01*
X148700293Y-84427118D01*
X148700292Y-84427115D01*
X148619650Y-84317849D01*
X148510384Y-84237207D01*
X148382196Y-84192353D01*
X148351769Y-84189500D01*
X148351766Y-84189500D01*
X147718234Y-84189500D01*
X147718231Y-84189500D01*
X147687803Y-84192353D01*
X147559615Y-84237207D01*
X147450349Y-84317849D01*
X147369707Y-84427115D01*
X147324853Y-84555303D01*
X147322289Y-84582643D01*
X147299284Y-84643763D01*
X147248416Y-84684717D01*
X147183795Y-84694148D01*
X147123345Y-84669439D01*
X146987840Y-84565463D01*
X146841762Y-84504956D01*
X146685000Y-84484317D01*
X146528237Y-84504956D01*
X146382159Y-84565463D01*
X146256717Y-84661717D01*
X146160463Y-84787159D01*
X146099956Y-84933237D01*
X146079317Y-85089999D01*
X122555000Y-85089999D01*
X122555000Y-81375062D01*
X122570660Y-81314743D01*
X122613683Y-81269659D01*
X122673205Y-81251198D01*
X122734190Y-81264021D01*
X122781235Y-81304891D01*
X122802458Y-81363484D01*
X122804353Y-81383696D01*
X122849207Y-81511884D01*
X122929849Y-81621150D01*
X123039115Y-81701792D01*
X123039118Y-81701793D01*
X123167301Y-81746646D01*
X123179474Y-81747787D01*
X123197731Y-81749500D01*
X123197734Y-81749500D01*
X123806266Y-81749500D01*
X123806269Y-81749500D01*
X123821482Y-81748072D01*
X123836699Y-81746646D01*
X123964882Y-81701793D01*
X123964882Y-81701792D01*
X123964884Y-81701792D01*
X124074148Y-81621152D01*
X124074148Y-81621150D01*
X124074150Y-81621150D01*
X124151730Y-81516032D01*
X124195618Y-81478972D01*
X124251500Y-81465666D01*
X124307382Y-81478972D01*
X124351271Y-81516033D01*
X124428851Y-81621152D01*
X124538115Y-81701792D01*
X124538118Y-81701793D01*
X124666301Y-81746646D01*
X124678474Y-81747787D01*
X124696731Y-81749500D01*
X124696734Y-81749500D01*
X125305266Y-81749500D01*
X125305269Y-81749500D01*
X125320482Y-81748072D01*
X125335699Y-81746646D01*
X125463882Y-81701793D01*
X125463882Y-81701792D01*
X125463884Y-81701792D01*
X125573148Y-81621152D01*
X125573148Y-81621150D01*
X125573150Y-81621150D01*
X125650730Y-81516032D01*
X125694618Y-81478972D01*
X125750500Y-81465666D01*
X125806382Y-81478972D01*
X125850271Y-81516033D01*
X125927851Y-81621152D01*
X126037115Y-81701792D01*
X126037118Y-81701793D01*
X126165301Y-81746646D01*
X126177474Y-81747787D01*
X126195731Y-81749500D01*
X126195734Y-81749500D01*
X126804266Y-81749500D01*
X126804269Y-81749500D01*
X126819482Y-81748072D01*
X126834699Y-81746646D01*
X126962882Y-81701793D01*
X126962882Y-81701792D01*
X126962884Y-81701792D01*
X127072148Y-81621152D01*
X127072148Y-81621150D01*
X127072150Y-81621150D01*
X127149730Y-81516032D01*
X127193618Y-81478972D01*
X127249500Y-81465666D01*
X127305382Y-81478972D01*
X127349271Y-81516033D01*
X127426851Y-81621152D01*
X127536115Y-81701792D01*
X127536118Y-81701793D01*
X127664301Y-81746646D01*
X127676474Y-81747787D01*
X127694731Y-81749500D01*
X127694734Y-81749500D01*
X128303266Y-81749500D01*
X128303269Y-81749500D01*
X128318482Y-81748072D01*
X128333699Y-81746646D01*
X128461882Y-81701793D01*
X128461882Y-81701792D01*
X128461884Y-81701792D01*
X128571148Y-81621152D01*
X128571148Y-81621150D01*
X128571150Y-81621150D01*
X128648730Y-81516032D01*
X128692618Y-81478972D01*
X128748500Y-81465666D01*
X128804382Y-81478972D01*
X128848271Y-81516033D01*
X128925851Y-81621152D01*
X129035115Y-81701792D01*
X129035118Y-81701793D01*
X129112752Y-81728958D01*
X129154729Y-81753813D01*
X129183870Y-81792936D01*
X129195666Y-81840272D01*
X129197368Y-81877077D01*
X129197500Y-81882805D01*
X129197500Y-81901819D01*
X129199181Y-81916307D01*
X129200415Y-81942993D01*
X129203213Y-81949330D01*
X129211666Y-81976626D01*
X129212938Y-81983434D01*
X129226997Y-82006140D01*
X129235002Y-82021327D01*
X129245792Y-82045763D01*
X129250688Y-82050659D01*
X129268434Y-82073063D01*
X129272081Y-82078952D01*
X129293396Y-82095048D01*
X129306351Y-82106322D01*
X129913551Y-82713523D01*
X129923507Y-82727360D01*
X129965305Y-82765465D01*
X129969446Y-82769419D01*
X129982885Y-82782858D01*
X129994333Y-82791926D01*
X130014067Y-82809916D01*
X130020520Y-82812415D01*
X130045806Y-82825743D01*
X130051520Y-82829657D01*
X130077514Y-82835771D01*
X130093908Y-82840846D01*
X130118827Y-82850500D01*
X130125752Y-82850500D01*
X130154142Y-82853794D01*
X130160881Y-82855379D01*
X130187336Y-82851689D01*
X130204466Y-82850500D01*
X146953031Y-82850500D01*
X147002618Y-82860846D01*
X147043930Y-82890159D01*
X147070071Y-82933543D01*
X147097833Y-83012882D01*
X147102208Y-83025385D01*
X147182849Y-83134650D01*
X147292115Y-83215292D01*
X147292118Y-83215293D01*
X147420301Y-83260146D01*
X147432474Y-83261287D01*
X147450731Y-83263000D01*
X147450734Y-83263000D01*
X148459266Y-83263000D01*
X148459269Y-83263000D01*
X148474482Y-83261573D01*
X148489699Y-83260146D01*
X148617882Y-83215293D01*
X148617882Y-83215292D01*
X148617884Y-83215292D01*
X148727150Y-83134650D01*
X148807791Y-83025385D01*
X148807791Y-83025384D01*
X148807793Y-83025382D01*
X148839928Y-82933543D01*
X148866070Y-82890159D01*
X148907382Y-82860846D01*
X148956969Y-82850500D01*
X149493031Y-82850500D01*
X149542618Y-82860846D01*
X149583930Y-82890159D01*
X149610071Y-82933543D01*
X149637833Y-83012882D01*
X149642208Y-83025385D01*
X149722849Y-83134650D01*
X149832115Y-83215292D01*
X149832118Y-83215293D01*
X149960301Y-83260146D01*
X149972474Y-83261287D01*
X149990731Y-83263000D01*
X149990734Y-83263000D01*
X150999266Y-83263000D01*
X150999269Y-83263000D01*
X151014482Y-83261573D01*
X151029699Y-83260146D01*
X151157882Y-83215293D01*
X151157882Y-83215292D01*
X151157884Y-83215292D01*
X151267150Y-83134650D01*
X151347792Y-83025384D01*
X151347793Y-83025382D01*
X151392646Y-82897199D01*
X151395500Y-82866766D01*
X151395500Y-82233234D01*
X151392646Y-82202801D01*
X151347793Y-82074618D01*
X151347792Y-82074615D01*
X151267150Y-81965349D01*
X151157884Y-81884707D01*
X151038202Y-81842829D01*
X151029699Y-81839854D01*
X151029698Y-81839853D01*
X151029696Y-81839853D01*
X150999269Y-81837000D01*
X150999266Y-81837000D01*
X149990734Y-81837000D01*
X149990731Y-81837000D01*
X149960303Y-81839853D01*
X149832115Y-81884707D01*
X149722849Y-81965349D01*
X149642208Y-82074614D01*
X149642207Y-82074618D01*
X149610072Y-82166455D01*
X149583930Y-82209841D01*
X149542618Y-82239154D01*
X149493031Y-82249500D01*
X148956969Y-82249500D01*
X148907382Y-82239154D01*
X148866070Y-82209841D01*
X148839928Y-82166455D01*
X148807793Y-82074618D01*
X148807791Y-82074615D01*
X148807791Y-82074614D01*
X148727150Y-81965349D01*
X148617884Y-81884707D01*
X148498202Y-81842829D01*
X148489699Y-81839854D01*
X148489698Y-81839853D01*
X148489696Y-81839853D01*
X148459269Y-81837000D01*
X148459266Y-81837000D01*
X147450734Y-81837000D01*
X147450731Y-81837000D01*
X147420303Y-81839853D01*
X147292115Y-81884707D01*
X147182849Y-81965349D01*
X147102208Y-82074614D01*
X147102207Y-82074618D01*
X147070072Y-82166455D01*
X147043930Y-82209841D01*
X147002618Y-82239154D01*
X146953031Y-82249500D01*
X130350833Y-82249500D01*
X130303380Y-82240061D01*
X130263152Y-82213181D01*
X129942451Y-81892480D01*
X129913877Y-81847935D01*
X129906479Y-81795532D01*
X129921604Y-81744818D01*
X129956499Y-81705029D01*
X130070150Y-81621150D01*
X130150792Y-81511884D01*
X130150793Y-81511882D01*
X130195646Y-81383699D01*
X130196343Y-81376269D01*
X130744500Y-81376269D01*
X130747353Y-81406696D01*
X130792207Y-81534884D01*
X130872849Y-81644150D01*
X130982115Y-81724792D01*
X130982118Y-81724793D01*
X131110301Y-81769646D01*
X131122474Y-81770787D01*
X131140731Y-81772500D01*
X131140734Y-81772500D01*
X131749266Y-81772500D01*
X131749269Y-81772500D01*
X131764482Y-81771073D01*
X131779699Y-81769646D01*
X131907882Y-81724793D01*
X131907882Y-81724792D01*
X131907884Y-81724792D01*
X132017150Y-81644150D01*
X132097792Y-81534884D01*
X132097793Y-81534882D01*
X132142646Y-81406699D01*
X132145500Y-81376266D01*
X132145500Y-80267734D01*
X132142646Y-80237301D01*
X132097793Y-80109118D01*
X132097792Y-80109115D01*
X132017150Y-79999849D01*
X131907885Y-79919208D01*
X131842154Y-79896208D01*
X131828544Y-79891445D01*
X131785159Y-79865302D01*
X131755846Y-79823991D01*
X131745500Y-79774404D01*
X131745500Y-79762596D01*
X131755846Y-79713009D01*
X131785159Y-79671698D01*
X131828545Y-79645554D01*
X131907882Y-79617793D01*
X132017150Y-79537150D01*
X132058737Y-79480801D01*
X132097792Y-79427884D01*
X132097793Y-79427882D01*
X132142646Y-79299699D01*
X132145500Y-79269269D01*
X132644500Y-79269269D01*
X132647353Y-79299696D01*
X132692207Y-79427884D01*
X132772849Y-79537150D01*
X132882115Y-79617792D01*
X132882118Y-79617793D01*
X133010301Y-79662646D01*
X133022474Y-79663787D01*
X133040731Y-79665500D01*
X133517359Y-79665500D01*
X133583331Y-79684506D01*
X133629079Y-79735699D01*
X133640579Y-79803384D01*
X133614306Y-79866813D01*
X133558313Y-79906542D01*
X133522114Y-79919207D01*
X133412849Y-79999849D01*
X133332207Y-80109115D01*
X133287353Y-80237303D01*
X133284500Y-80267731D01*
X133284500Y-81376269D01*
X133287353Y-81406696D01*
X133332207Y-81534884D01*
X133412849Y-81644150D01*
X133522115Y-81724792D01*
X133522118Y-81724793D01*
X133650301Y-81769646D01*
X133662474Y-81770787D01*
X133680731Y-81772500D01*
X133680734Y-81772500D01*
X134289266Y-81772500D01*
X134289269Y-81772500D01*
X134304482Y-81771073D01*
X134319699Y-81769646D01*
X134447882Y-81724793D01*
X134447882Y-81724792D01*
X134447884Y-81724792D01*
X134557150Y-81644150D01*
X134637792Y-81534884D01*
X134637793Y-81534882D01*
X134682646Y-81406699D01*
X134685500Y-81376266D01*
X134685500Y-80267734D01*
X134682646Y-80237301D01*
X134637793Y-80109118D01*
X134637792Y-80109115D01*
X134557150Y-79999849D01*
X134447884Y-79919207D01*
X134319696Y-79874353D01*
X134289269Y-79871500D01*
X134289266Y-79871500D01*
X133812641Y-79871500D01*
X133746669Y-79852494D01*
X133700921Y-79801301D01*
X133689421Y-79733616D01*
X133715694Y-79670187D01*
X133771687Y-79630458D01*
X133807885Y-79617792D01*
X133917150Y-79537150D01*
X133997792Y-79427884D01*
X133997793Y-79427882D01*
X134042646Y-79299699D01*
X134045500Y-79269266D01*
X134045500Y-79164500D01*
X134062113Y-79102500D01*
X134107500Y-79057113D01*
X134169500Y-79040500D01*
X134550757Y-79040500D01*
X134567577Y-79043243D01*
X134577762Y-79042772D01*
X134577765Y-79042773D01*
X134624080Y-79040631D01*
X134629805Y-79040500D01*
X134648824Y-79040500D01*
X134663318Y-79038817D01*
X134689992Y-79037585D01*
X134696330Y-79034786D01*
X134723633Y-79026332D01*
X134730433Y-79025061D01*
X134753143Y-79010998D01*
X134768325Y-79002996D01*
X134792765Y-78992206D01*
X134797659Y-78987311D01*
X134820063Y-78969564D01*
X134825952Y-78965919D01*
X134842053Y-78944595D01*
X134853313Y-78931656D01*
X135167319Y-78617650D01*
X135222906Y-78585558D01*
X135287093Y-78585558D01*
X135342680Y-78617652D01*
X135628551Y-78903523D01*
X135638507Y-78917360D01*
X135680305Y-78955465D01*
X135684446Y-78959419D01*
X135697885Y-78972858D01*
X135709333Y-78981926D01*
X135729067Y-78999916D01*
X135735520Y-79002415D01*
X135760806Y-79015743D01*
X135766520Y-79019657D01*
X135792514Y-79025771D01*
X135808908Y-79030846D01*
X135833827Y-79040500D01*
X135840752Y-79040500D01*
X135869142Y-79043794D01*
X135875881Y-79045379D01*
X135902332Y-79041689D01*
X135919464Y-79040500D01*
X136335500Y-79040500D01*
X136397500Y-79057113D01*
X136442887Y-79102500D01*
X136459500Y-79164500D01*
X136459500Y-79269269D01*
X136462353Y-79299696D01*
X136507207Y-79427884D01*
X136587849Y-79537150D01*
X136697114Y-79617792D01*
X136733313Y-79630458D01*
X136789306Y-79670187D01*
X136815579Y-79733616D01*
X136804079Y-79801301D01*
X136758331Y-79852494D01*
X136692359Y-79871500D01*
X136220731Y-79871500D01*
X136190303Y-79874353D01*
X136062115Y-79919207D01*
X135952849Y-79999849D01*
X135872207Y-80109115D01*
X135827353Y-80237303D01*
X135824500Y-80267731D01*
X135824500Y-81376269D01*
X135827353Y-81406696D01*
X135872207Y-81534884D01*
X135952849Y-81644150D01*
X136062115Y-81724792D01*
X136062118Y-81724793D01*
X136190301Y-81769646D01*
X136202474Y-81770787D01*
X136220731Y-81772500D01*
X136220734Y-81772500D01*
X136829266Y-81772500D01*
X136829269Y-81772500D01*
X136844482Y-81771073D01*
X136859699Y-81769646D01*
X136987882Y-81724793D01*
X136987882Y-81724792D01*
X136987884Y-81724792D01*
X137097150Y-81644150D01*
X137177792Y-81534884D01*
X137177793Y-81534882D01*
X137222646Y-81406699D01*
X137225500Y-81376266D01*
X137225500Y-80267734D01*
X137222646Y-80237301D01*
X137177793Y-80109118D01*
X137177792Y-80109115D01*
X137097150Y-79999849D01*
X136987885Y-79919207D01*
X136951687Y-79906542D01*
X136895694Y-79866813D01*
X136869421Y-79803384D01*
X136880921Y-79735699D01*
X136926669Y-79684506D01*
X136992641Y-79665500D01*
X137464269Y-79665500D01*
X137479482Y-79664072D01*
X137494699Y-79662646D01*
X137622882Y-79617793D01*
X137622882Y-79617792D01*
X137622884Y-79617792D01*
X137732150Y-79537150D01*
X137812792Y-79427884D01*
X137812793Y-79427882D01*
X137857646Y-79299699D01*
X137860500Y-79269269D01*
X138359500Y-79269269D01*
X138362353Y-79299696D01*
X138407207Y-79427884D01*
X138487849Y-79537150D01*
X138597114Y-79617791D01*
X138597116Y-79617791D01*
X138597118Y-79617793D01*
X138676455Y-79645554D01*
X138719841Y-79671698D01*
X138749154Y-79713009D01*
X138759500Y-79762596D01*
X138759500Y-79776154D01*
X138749154Y-79825741D01*
X138719841Y-79867053D01*
X138676454Y-79893195D01*
X138667846Y-79896208D01*
X138602115Y-79919207D01*
X138492849Y-79999849D01*
X138412207Y-80109115D01*
X138367353Y-80237303D01*
X138364500Y-80267731D01*
X138364500Y-81376269D01*
X138367353Y-81406696D01*
X138412207Y-81534884D01*
X138492849Y-81644150D01*
X138602115Y-81724792D01*
X138602118Y-81724793D01*
X138730301Y-81769646D01*
X138742474Y-81770787D01*
X138760731Y-81772500D01*
X138760734Y-81772500D01*
X139369266Y-81772500D01*
X139369269Y-81772500D01*
X139384482Y-81771073D01*
X139399699Y-81769646D01*
X139527882Y-81724793D01*
X139527882Y-81724792D01*
X139527884Y-81724792D01*
X139637150Y-81644150D01*
X139717792Y-81534884D01*
X139717793Y-81534882D01*
X139762646Y-81406699D01*
X139765500Y-81376266D01*
X139765500Y-80975000D01*
X147055001Y-80975000D01*
X147055001Y-81041699D01*
X147057851Y-81072105D01*
X147102654Y-81200146D01*
X147183207Y-81309292D01*
X147292353Y-81389845D01*
X147420396Y-81434649D01*
X147450794Y-81437500D01*
X147705000Y-81437500D01*
X147705000Y-80975000D01*
X148205000Y-80975000D01*
X148205000Y-81437499D01*
X148459199Y-81437499D01*
X148489605Y-81434648D01*
X148617646Y-81389845D01*
X148726792Y-81309292D01*
X148807345Y-81200146D01*
X148852149Y-81072103D01*
X148854994Y-81041769D01*
X149594500Y-81041769D01*
X149597353Y-81072196D01*
X149642207Y-81200384D01*
X149722849Y-81309650D01*
X149832115Y-81390292D01*
X149832118Y-81390293D01*
X149960301Y-81435146D01*
X149972474Y-81436287D01*
X149990731Y-81438000D01*
X149990734Y-81438000D01*
X150999266Y-81438000D01*
X150999269Y-81438000D01*
X151014482Y-81436572D01*
X151029699Y-81435146D01*
X151157882Y-81390293D01*
X151157882Y-81390292D01*
X151157884Y-81390292D01*
X151267150Y-81309650D01*
X151347791Y-81200385D01*
X151347791Y-81200384D01*
X151347793Y-81200382D01*
X151379928Y-81108543D01*
X151406070Y-81065159D01*
X151447382Y-81035846D01*
X151496969Y-81025500D01*
X152038648Y-81025500D01*
X152088235Y-81035846D01*
X152129547Y-81065159D01*
X152155689Y-81108545D01*
X152157207Y-81112882D01*
X152206229Y-81179305D01*
X152237851Y-81222152D01*
X152347115Y-81302792D01*
X152347118Y-81302793D01*
X152475301Y-81347646D01*
X152487474Y-81348787D01*
X152505731Y-81350500D01*
X152505734Y-81350500D01*
X153564266Y-81350500D01*
X153564269Y-81350500D01*
X153579482Y-81349073D01*
X153594699Y-81347646D01*
X153722882Y-81302793D01*
X153722882Y-81302792D01*
X153722884Y-81302792D01*
X153832150Y-81222150D01*
X153912792Y-81112884D01*
X153914310Y-81108546D01*
X153957646Y-80984699D01*
X153960500Y-80954266D01*
X153960500Y-80345734D01*
X153957646Y-80315301D01*
X153912793Y-80187118D01*
X153912792Y-80187115D01*
X153832150Y-80077849D01*
X153722884Y-79997207D01*
X153594696Y-79952353D01*
X153564269Y-79949500D01*
X153564266Y-79949500D01*
X152505734Y-79949500D01*
X152505731Y-79949500D01*
X152475303Y-79952353D01*
X152347115Y-79997207D01*
X152237849Y-80077849D01*
X152157207Y-80187115D01*
X152107352Y-80329597D01*
X152106562Y-80329320D01*
X152092514Y-80369070D01*
X152047821Y-80409767D01*
X151989198Y-80424500D01*
X151496969Y-80424500D01*
X151447382Y-80414154D01*
X151406070Y-80384841D01*
X151379928Y-80341456D01*
X151347793Y-80249618D01*
X151347791Y-80249615D01*
X151347791Y-80249614D01*
X151267150Y-80140349D01*
X151157884Y-80059707D01*
X151029696Y-80014853D01*
X150999269Y-80012000D01*
X150999266Y-80012000D01*
X149990734Y-80012000D01*
X149990731Y-80012000D01*
X149960303Y-80014853D01*
X149832115Y-80059707D01*
X149722849Y-80140349D01*
X149642207Y-80249615D01*
X149597353Y-80377803D01*
X149594500Y-80408231D01*
X149594500Y-81041769D01*
X148854994Y-81041769D01*
X148855000Y-81041706D01*
X148855000Y-80975000D01*
X148205000Y-80975000D01*
X147705000Y-80975000D01*
X147055001Y-80975000D01*
X139765500Y-80975000D01*
X139765500Y-80475000D01*
X147055000Y-80475000D01*
X147705000Y-80475000D01*
X147705000Y-80012501D01*
X147450801Y-80012501D01*
X147420394Y-80015351D01*
X147292353Y-80060154D01*
X147183207Y-80140707D01*
X147102654Y-80249853D01*
X147057850Y-80377896D01*
X147055000Y-80408294D01*
X147055000Y-80475000D01*
X139765500Y-80475000D01*
X139765500Y-80267734D01*
X139762646Y-80237301D01*
X139717793Y-80109118D01*
X139717792Y-80109115D01*
X139646487Y-80012500D01*
X148205000Y-80012500D01*
X148205000Y-80475000D01*
X148854999Y-80475000D01*
X148854999Y-80408301D01*
X148852148Y-80377894D01*
X148807345Y-80249853D01*
X148726792Y-80140707D01*
X148617646Y-80060154D01*
X148489603Y-80015350D01*
X148459206Y-80012500D01*
X148205000Y-80012500D01*
X139646487Y-80012500D01*
X139637150Y-79999849D01*
X139527884Y-79919207D01*
X139462154Y-79896208D01*
X139443544Y-79889696D01*
X139400159Y-79863554D01*
X139370846Y-79822242D01*
X139360500Y-79772655D01*
X139360500Y-79762596D01*
X139370846Y-79713009D01*
X139400159Y-79671698D01*
X139443545Y-79645554D01*
X139522882Y-79617793D01*
X139632150Y-79537150D01*
X139673737Y-79480801D01*
X139712792Y-79427884D01*
X139712793Y-79427882D01*
X139757646Y-79299699D01*
X139760500Y-79269266D01*
X139760500Y-78210734D01*
X139757646Y-78180301D01*
X139712793Y-78052118D01*
X139712792Y-78052115D01*
X139632150Y-77942849D01*
X139522884Y-77862207D01*
X139394696Y-77817353D01*
X139364269Y-77814500D01*
X139364266Y-77814500D01*
X138755734Y-77814500D01*
X138755731Y-77814500D01*
X138725303Y-77817353D01*
X138597115Y-77862207D01*
X138487849Y-77942849D01*
X138407207Y-78052115D01*
X138362353Y-78180303D01*
X138359500Y-78210731D01*
X138359500Y-79269269D01*
X137860500Y-79269269D01*
X137860500Y-79269266D01*
X137860500Y-78210734D01*
X137857646Y-78180301D01*
X137812793Y-78052118D01*
X137812792Y-78052115D01*
X137732150Y-77942849D01*
X137622884Y-77862207D01*
X137494696Y-77817353D01*
X137464269Y-77814500D01*
X137464266Y-77814500D01*
X136855734Y-77814500D01*
X136855731Y-77814500D01*
X136825303Y-77817353D01*
X136697115Y-77862207D01*
X136587849Y-77942849D01*
X136507207Y-78052115D01*
X136462353Y-78180303D01*
X136459500Y-78210731D01*
X136459500Y-78315500D01*
X136442887Y-78377500D01*
X136397500Y-78422887D01*
X136335500Y-78439500D01*
X136065833Y-78439500D01*
X136018380Y-78430061D01*
X135978152Y-78403181D01*
X135591819Y-78016848D01*
X135564939Y-77976620D01*
X135555500Y-77929167D01*
X135555500Y-77672000D01*
X135572113Y-77610000D01*
X135617500Y-77564613D01*
X135679500Y-77548000D01*
X135759269Y-77548000D01*
X135774482Y-77546573D01*
X135789699Y-77545146D01*
X135917882Y-77500293D01*
X135917882Y-77500292D01*
X135917884Y-77500292D01*
X136027150Y-77419650D01*
X136107791Y-77310385D01*
X136107791Y-77310384D01*
X136107793Y-77310382D01*
X136139928Y-77218543D01*
X136166070Y-77175159D01*
X136207382Y-77145846D01*
X136256969Y-77135500D01*
X139879117Y-77135500D01*
X139926570Y-77144939D01*
X139966798Y-77171819D01*
X141698500Y-78903521D01*
X141708457Y-78917358D01*
X141715991Y-78924226D01*
X141715992Y-78924228D01*
X141726784Y-78934066D01*
X141750266Y-78955474D01*
X141754407Y-78959429D01*
X141767837Y-78972859D01*
X141779272Y-78981916D01*
X141799017Y-78999916D01*
X141805471Y-79002416D01*
X141830755Y-79015743D01*
X141836469Y-79019657D01*
X141862475Y-79025773D01*
X141878867Y-79030849D01*
X141903777Y-79040500D01*
X141910702Y-79040500D01*
X141939092Y-79043794D01*
X141945831Y-79045379D01*
X141972282Y-79041689D01*
X141989414Y-79040500D01*
X155730757Y-79040500D01*
X155747577Y-79043243D01*
X155757762Y-79042772D01*
X155757765Y-79042773D01*
X155804080Y-79040631D01*
X155809805Y-79040500D01*
X155828824Y-79040500D01*
X155843318Y-79038817D01*
X155869992Y-79037585D01*
X155876330Y-79034786D01*
X155903633Y-79026332D01*
X155910433Y-79025061D01*
X155933143Y-79010998D01*
X155948325Y-79002996D01*
X155972765Y-78992206D01*
X155977659Y-78987311D01*
X156000063Y-78969564D01*
X156005952Y-78965919D01*
X156022053Y-78944595D01*
X156033313Y-78931656D01*
X162463152Y-72501819D01*
X162503381Y-72474939D01*
X162550834Y-72465500D01*
X163665167Y-72465500D01*
X163721462Y-72479015D01*
X163765485Y-72516615D01*
X163787640Y-72570102D01*
X163783098Y-72627818D01*
X163752848Y-72677181D01*
X154216848Y-82213181D01*
X154176620Y-82240061D01*
X154129167Y-82249500D01*
X154057596Y-82249500D01*
X154008009Y-82239154D01*
X153966698Y-82209841D01*
X153940554Y-82166455D01*
X153927623Y-82129500D01*
X153912793Y-82087118D01*
X153912791Y-82087115D01*
X153912791Y-82087114D01*
X153832150Y-81977849D01*
X153722884Y-81897207D01*
X153594696Y-81852353D01*
X153564269Y-81849500D01*
X153564266Y-81849500D01*
X152505734Y-81849500D01*
X152505731Y-81849500D01*
X152475303Y-81852353D01*
X152347115Y-81897207D01*
X152237849Y-81977849D01*
X152157207Y-82087115D01*
X152112353Y-82215303D01*
X152109500Y-82245731D01*
X152109500Y-82854269D01*
X152112353Y-82884696D01*
X152157207Y-83012884D01*
X152237849Y-83122150D01*
X152347115Y-83202792D01*
X152347118Y-83202793D01*
X152475301Y-83247646D01*
X152487474Y-83248787D01*
X152505731Y-83250500D01*
X152505734Y-83250500D01*
X153564266Y-83250500D01*
X153564269Y-83250500D01*
X153579482Y-83249072D01*
X153594699Y-83247646D01*
X153722882Y-83202793D01*
X153722882Y-83202792D01*
X153722884Y-83202792D01*
X153832150Y-83122150D01*
X153912791Y-83012885D01*
X153912791Y-83012884D01*
X153912793Y-83012882D01*
X153940554Y-82933544D01*
X153966698Y-82890159D01*
X154008009Y-82860846D01*
X154057596Y-82850500D01*
X154235757Y-82850500D01*
X154252577Y-82853243D01*
X154262762Y-82852772D01*
X154262765Y-82852773D01*
X154309080Y-82850631D01*
X154314805Y-82850500D01*
X154333824Y-82850500D01*
X154348318Y-82848817D01*
X154374992Y-82847585D01*
X154381330Y-82844786D01*
X154408633Y-82836332D01*
X154415433Y-82835061D01*
X154438143Y-82820998D01*
X154453325Y-82812996D01*
X154477765Y-82802206D01*
X154482659Y-82797311D01*
X154505063Y-82779564D01*
X154510952Y-82775919D01*
X154527053Y-82754595D01*
X154538313Y-82741656D01*
X157019969Y-80260000D01*
X168850001Y-80260000D01*
X168850001Y-80539199D01*
X168852851Y-80569605D01*
X168897654Y-80697646D01*
X168978207Y-80806792D01*
X169087353Y-80887345D01*
X169215396Y-80932149D01*
X169245794Y-80935000D01*
X169300000Y-80935000D01*
X169300000Y-80260000D01*
X169800000Y-80260000D01*
X169800000Y-80934999D01*
X169854199Y-80934999D01*
X169884605Y-80932148D01*
X170012646Y-80887345D01*
X170121792Y-80806792D01*
X170202345Y-80697646D01*
X170247149Y-80569603D01*
X170250000Y-80539206D01*
X170250000Y-80260000D01*
X169800000Y-80260000D01*
X169300000Y-80260000D01*
X168850001Y-80260000D01*
X157019969Y-80260000D01*
X159174969Y-78105000D01*
X167034317Y-78105000D01*
X167054956Y-78261762D01*
X167115463Y-78407840D01*
X167211717Y-78533282D01*
X167321671Y-78617652D01*
X167337159Y-78629536D01*
X167483238Y-78690044D01*
X167640000Y-78710682D01*
X167796762Y-78690044D01*
X167942841Y-78629536D01*
X168068282Y-78533282D01*
X168129106Y-78454013D01*
X168172638Y-78418288D01*
X168227482Y-78405500D01*
X168925500Y-78405500D01*
X168987500Y-78422113D01*
X169032887Y-78467500D01*
X169049500Y-78529500D01*
X169049500Y-78650763D01*
X169059426Y-78718890D01*
X169110802Y-78823984D01*
X169193838Y-78907020D01*
X169225311Y-78960373D01*
X169227048Y-79022293D01*
X169198617Y-79077327D01*
X169147113Y-79111742D01*
X169087354Y-79132653D01*
X168978207Y-79213207D01*
X168897654Y-79322353D01*
X168852850Y-79450396D01*
X168850000Y-79480794D01*
X168850000Y-79760000D01*
X170249999Y-79760000D01*
X170249999Y-79480801D01*
X170247148Y-79450394D01*
X170202345Y-79322353D01*
X170121792Y-79213207D01*
X170012646Y-79132654D01*
X169952887Y-79111744D01*
X169901382Y-79077329D01*
X169872950Y-79022295D01*
X169874687Y-78960374D01*
X169906160Y-78907020D01*
X169906481Y-78906698D01*
X169906483Y-78906698D01*
X169989198Y-78823983D01*
X170040573Y-78718893D01*
X170050500Y-78650760D01*
X170050500Y-77559240D01*
X170048862Y-77548000D01*
X170040573Y-77491109D01*
X170040573Y-77491107D01*
X169989198Y-77386017D01*
X169989197Y-77386016D01*
X169989197Y-77386015D01*
X169906484Y-77303302D01*
X169850500Y-77275934D01*
X169801393Y-77251927D01*
X169801391Y-77251926D01*
X169801390Y-77251926D01*
X169733263Y-77242000D01*
X169733260Y-77242000D01*
X169366740Y-77242000D01*
X169366737Y-77242000D01*
X169298609Y-77251926D01*
X169193515Y-77303302D01*
X169110802Y-77386015D01*
X169059426Y-77491109D01*
X169049500Y-77559237D01*
X169049500Y-77680500D01*
X169032887Y-77742500D01*
X168987500Y-77787887D01*
X168925500Y-77804500D01*
X168227482Y-77804500D01*
X168172638Y-77791712D01*
X168129106Y-77755986D01*
X168068281Y-77676717D01*
X167942840Y-77580463D01*
X167796762Y-77519956D01*
X167640000Y-77499317D01*
X167483237Y-77519956D01*
X167337159Y-77580463D01*
X167211717Y-77676717D01*
X167115463Y-77802159D01*
X167054956Y-77948237D01*
X167034317Y-78105000D01*
X159174969Y-78105000D01*
X160514969Y-76765000D01*
X165445001Y-76765000D01*
X165445001Y-76819199D01*
X165447851Y-76849605D01*
X165492654Y-76977646D01*
X165573207Y-77086792D01*
X165682353Y-77167345D01*
X165810396Y-77212149D01*
X165840794Y-77215000D01*
X166120000Y-77215000D01*
X166120000Y-76765000D01*
X166620000Y-76765000D01*
X166620000Y-77214999D01*
X166899199Y-77214999D01*
X166929605Y-77212148D01*
X167057646Y-77167345D01*
X167166792Y-77086792D01*
X167247345Y-76977646D01*
X167292149Y-76849603D01*
X167295000Y-76819206D01*
X167295000Y-76765000D01*
X166620000Y-76765000D01*
X166120000Y-76765000D01*
X165445001Y-76765000D01*
X160514969Y-76765000D01*
X161014969Y-76265000D01*
X165445000Y-76265000D01*
X166120000Y-76265000D01*
X166120000Y-75815001D01*
X165840801Y-75815001D01*
X165810394Y-75817851D01*
X165682353Y-75862654D01*
X165573207Y-75943207D01*
X165492654Y-76052353D01*
X165447850Y-76180396D01*
X165445000Y-76210794D01*
X165445000Y-76265000D01*
X161014969Y-76265000D01*
X161464969Y-75815000D01*
X166620000Y-75815000D01*
X166620000Y-76265000D01*
X167294999Y-76265000D01*
X167294999Y-76210801D01*
X167292148Y-76180394D01*
X167257019Y-76080000D01*
X170000001Y-76080000D01*
X170000001Y-76375716D01*
X170009912Y-76443748D01*
X170061214Y-76548690D01*
X170143809Y-76631285D01*
X170248752Y-76682587D01*
X170250000Y-76682770D01*
X170250000Y-76080000D01*
X170000001Y-76080000D01*
X167257019Y-76080000D01*
X167247345Y-76052353D01*
X167166792Y-75943207D01*
X167057646Y-75862654D01*
X166929603Y-75817850D01*
X166899206Y-75815000D01*
X166620000Y-75815000D01*
X161464969Y-75815000D01*
X161699969Y-75580000D01*
X170000000Y-75580000D01*
X170250000Y-75580000D01*
X170250000Y-74977230D01*
X170249999Y-74977230D01*
X170248752Y-74977412D01*
X170143809Y-75028714D01*
X170061214Y-75111309D01*
X170009911Y-75216253D01*
X170000000Y-75284278D01*
X170000000Y-75580000D01*
X161699969Y-75580000D01*
X162360700Y-74919269D01*
X165444500Y-74919269D01*
X165447353Y-74949696D01*
X165492207Y-75077884D01*
X165572849Y-75187150D01*
X165682115Y-75267792D01*
X165682118Y-75267793D01*
X165810301Y-75312646D01*
X165822474Y-75313787D01*
X165840731Y-75315500D01*
X165840734Y-75315500D01*
X166899266Y-75315500D01*
X166899269Y-75315500D01*
X166914482Y-75314073D01*
X166929699Y-75312646D01*
X167057882Y-75267793D01*
X167057882Y-75267792D01*
X167057884Y-75267792D01*
X167167150Y-75187150D01*
X167247791Y-75077885D01*
X167247791Y-75077884D01*
X167247793Y-75077882D01*
X167275554Y-74998544D01*
X167301698Y-74955159D01*
X167343009Y-74925846D01*
X167392596Y-74915500D01*
X167885757Y-74915500D01*
X167902577Y-74918243D01*
X167912762Y-74917772D01*
X167912765Y-74917773D01*
X167959080Y-74915631D01*
X167964805Y-74915500D01*
X167983824Y-74915500D01*
X167998318Y-74913817D01*
X168024992Y-74912585D01*
X168031330Y-74909786D01*
X168058633Y-74901332D01*
X168059457Y-74901178D01*
X168065433Y-74900061D01*
X168088143Y-74885998D01*
X168103325Y-74877996D01*
X168127765Y-74867206D01*
X168132659Y-74862311D01*
X168155063Y-74844564D01*
X168160952Y-74840919D01*
X168177053Y-74819595D01*
X168188313Y-74806656D01*
X168585651Y-74409319D01*
X168625880Y-74382439D01*
X168673333Y-74373000D01*
X169414269Y-74373000D01*
X169429482Y-74371573D01*
X169444699Y-74370146D01*
X169572882Y-74325293D01*
X169572882Y-74325292D01*
X169572884Y-74325292D01*
X169682150Y-74244650D01*
X169762730Y-74135469D01*
X169806619Y-74098407D01*
X169862500Y-74085102D01*
X169918381Y-74098407D01*
X169962270Y-74135469D01*
X170042849Y-74244650D01*
X170152115Y-74325292D01*
X170152118Y-74325293D01*
X170280301Y-74370146D01*
X170292474Y-74371287D01*
X170310731Y-74373000D01*
X170310734Y-74373000D01*
X170440153Y-74373000D01*
X170486722Y-74382077D01*
X170526474Y-74407979D01*
X170553587Y-74446914D01*
X170562793Y-74467764D01*
X170567688Y-74472659D01*
X170585434Y-74495063D01*
X170589081Y-74500952D01*
X170610396Y-74517048D01*
X170623351Y-74528322D01*
X170862950Y-74767921D01*
X170894259Y-74820712D01*
X170896415Y-74882052D01*
X170868890Y-74936911D01*
X170818427Y-74971849D01*
X170757390Y-74978306D01*
X170750001Y-74977229D01*
X170750000Y-74977230D01*
X170750000Y-76682770D01*
X170751247Y-76682587D01*
X170856190Y-76631285D01*
X170937819Y-76549657D01*
X170987182Y-76519407D01*
X171044898Y-76514865D01*
X171098385Y-76537020D01*
X171135985Y-76581043D01*
X171149500Y-76637338D01*
X171149500Y-77198529D01*
X171130686Y-77264195D01*
X171105962Y-77286484D01*
X171108148Y-77288670D01*
X171010802Y-77386015D01*
X170959426Y-77491109D01*
X170949500Y-77559237D01*
X170949500Y-78650763D01*
X170959426Y-78718890D01*
X171010802Y-78823984D01*
X171093446Y-78906628D01*
X171124919Y-78959981D01*
X171126656Y-79021901D01*
X171098225Y-79076936D01*
X171046720Y-79111350D01*
X170987117Y-79132206D01*
X170877849Y-79212849D01*
X170797207Y-79322115D01*
X170752353Y-79450303D01*
X170749500Y-79480731D01*
X170749500Y-80539269D01*
X170752353Y-80569696D01*
X170797207Y-80697884D01*
X170877849Y-80807150D01*
X170987114Y-80887791D01*
X170987116Y-80887791D01*
X170987118Y-80887793D01*
X171066455Y-80915554D01*
X171109841Y-80941698D01*
X171139154Y-80983009D01*
X171149500Y-81032596D01*
X171149500Y-81548031D01*
X171139154Y-81597618D01*
X171109841Y-81638930D01*
X171066456Y-81665071D01*
X171008507Y-81685348D01*
X170974614Y-81697208D01*
X170865349Y-81777849D01*
X170784707Y-81887115D01*
X170739853Y-82015303D01*
X170737000Y-82045731D01*
X170737000Y-83054269D01*
X170739853Y-83084696D01*
X170784707Y-83212884D01*
X170865349Y-83322150D01*
X170974615Y-83402792D01*
X170974618Y-83402793D01*
X171102801Y-83447646D01*
X171114974Y-83448787D01*
X171133231Y-83450500D01*
X171133234Y-83450500D01*
X171766766Y-83450500D01*
X171766769Y-83450500D01*
X171782921Y-83448985D01*
X171797199Y-83447646D01*
X171925382Y-83402793D01*
X171925382Y-83402792D01*
X171925384Y-83402792D01*
X172034650Y-83322150D01*
X172115292Y-83212884D01*
X172118823Y-83202793D01*
X172160146Y-83084699D01*
X172163000Y-83054266D01*
X172163000Y-82854500D01*
X172179613Y-82792500D01*
X172225000Y-82747113D01*
X172287000Y-82730500D01*
X172448657Y-82730500D01*
X172498244Y-82740846D01*
X172539556Y-82770159D01*
X172565697Y-82813543D01*
X172584321Y-82866766D01*
X172602208Y-82917885D01*
X172682849Y-83027150D01*
X172792115Y-83107792D01*
X172792118Y-83107793D01*
X172920301Y-83152646D01*
X172932474Y-83153787D01*
X172950731Y-83155500D01*
X172950734Y-83155500D01*
X173759266Y-83155500D01*
X173759269Y-83155500D01*
X173774482Y-83154073D01*
X173789699Y-83152646D01*
X173917882Y-83107793D01*
X173917882Y-83107792D01*
X173917884Y-83107792D01*
X174027150Y-83027150D01*
X174107792Y-82917884D01*
X174115031Y-82897196D01*
X174152646Y-82789699D01*
X174154073Y-82774482D01*
X174155500Y-82759269D01*
X174155500Y-82100731D01*
X174153051Y-82074618D01*
X174152646Y-82070301D01*
X174107793Y-81942118D01*
X174107792Y-81942115D01*
X174027150Y-81832849D01*
X173917884Y-81752207D01*
X173789696Y-81707353D01*
X173759269Y-81704500D01*
X173759266Y-81704500D01*
X172950734Y-81704500D01*
X172950731Y-81704500D01*
X172920303Y-81707353D01*
X172792115Y-81752207D01*
X172682849Y-81832849D01*
X172602208Y-81942114D01*
X172599683Y-81949330D01*
X172565697Y-82046456D01*
X172539556Y-82089841D01*
X172498244Y-82119154D01*
X172448657Y-82129500D01*
X172283771Y-82129500D01*
X172225148Y-82114767D01*
X172180455Y-82074070D01*
X172160313Y-82017079D01*
X172160146Y-82015303D01*
X172160146Y-82015301D01*
X172115293Y-81887118D01*
X172115292Y-81887115D01*
X172034650Y-81777849D01*
X171925385Y-81697208D01*
X171919153Y-81695027D01*
X171833543Y-81665071D01*
X171790159Y-81638930D01*
X171760846Y-81597618D01*
X171750500Y-81548031D01*
X171750500Y-81032596D01*
X171760846Y-80983009D01*
X171790159Y-80941698D01*
X171833545Y-80915554D01*
X171912882Y-80887793D01*
X172022150Y-80807150D01*
X172022414Y-80806792D01*
X172102792Y-80697884D01*
X172102793Y-80697882D01*
X172147646Y-80569699D01*
X172150500Y-80539266D01*
X172150500Y-80459269D01*
X172554500Y-80459269D01*
X172557353Y-80489696D01*
X172602207Y-80617884D01*
X172682849Y-80727150D01*
X172792115Y-80807792D01*
X172792118Y-80807793D01*
X172920301Y-80852646D01*
X172932474Y-80853787D01*
X172950731Y-80855500D01*
X172950734Y-80855500D01*
X173759266Y-80855500D01*
X173759269Y-80855500D01*
X173774482Y-80854072D01*
X173789699Y-80852646D01*
X173917882Y-80807793D01*
X173917882Y-80807792D01*
X173917884Y-80807792D01*
X174027150Y-80727150D01*
X174107792Y-80617884D01*
X174107793Y-80617882D01*
X174152646Y-80489699D01*
X174155500Y-80459266D01*
X174155500Y-79800734D01*
X174152646Y-79770301D01*
X174107793Y-79642118D01*
X174107792Y-79642115D01*
X174027150Y-79532849D01*
X173917884Y-79452207D01*
X173789696Y-79407353D01*
X173767920Y-79405311D01*
X173710929Y-79385168D01*
X173701670Y-79375000D01*
X174654317Y-79375000D01*
X174674956Y-79531762D01*
X174735463Y-79677840D01*
X174831717Y-79803282D01*
X174952821Y-79896207D01*
X174957159Y-79899536D01*
X175103238Y-79960044D01*
X175260000Y-79980682D01*
X175416762Y-79960044D01*
X175562841Y-79899536D01*
X175688282Y-79803282D01*
X175784536Y-79677841D01*
X175845044Y-79531762D01*
X175865682Y-79375000D01*
X175845044Y-79218238D01*
X175784536Y-79072159D01*
X175714144Y-78980422D01*
X175702005Y-78964602D01*
X175676999Y-78901483D01*
X175688980Y-78834656D01*
X175694198Y-78823982D01*
X175745573Y-78718893D01*
X175755500Y-78650760D01*
X175755500Y-78529500D01*
X175772113Y-78467500D01*
X175817500Y-78422113D01*
X175879500Y-78405500D01*
X176460207Y-78405500D01*
X176501161Y-78412458D01*
X176502117Y-78412792D01*
X176502118Y-78412793D01*
X176630301Y-78457646D01*
X176642474Y-78458787D01*
X176660731Y-78460500D01*
X176660734Y-78460500D01*
X177669266Y-78460500D01*
X177669269Y-78460500D01*
X177684482Y-78459072D01*
X177699699Y-78457646D01*
X177827882Y-78412793D01*
X177827882Y-78412792D01*
X177827884Y-78412792D01*
X177937150Y-78332150D01*
X178017792Y-78222884D01*
X178017793Y-78222882D01*
X178062646Y-78094699D01*
X178065500Y-78064266D01*
X178065500Y-77430734D01*
X178062646Y-77400301D01*
X178017793Y-77272118D01*
X178017792Y-77272115D01*
X177937150Y-77162849D01*
X177827884Y-77082207D01*
X177699696Y-77037353D01*
X177669269Y-77034500D01*
X177669266Y-77034500D01*
X176660734Y-77034500D01*
X176660731Y-77034500D01*
X176630303Y-77037353D01*
X176502115Y-77082207D01*
X176392849Y-77162849D01*
X176312207Y-77272115D01*
X176267353Y-77400303D01*
X176264500Y-77430731D01*
X176264500Y-77680500D01*
X176247887Y-77742500D01*
X176202500Y-77787887D01*
X176140500Y-77804500D01*
X175879500Y-77804500D01*
X175817500Y-77787887D01*
X175772113Y-77742500D01*
X175755500Y-77680500D01*
X175755500Y-77559237D01*
X175745573Y-77491109D01*
X175745573Y-77491107D01*
X175694198Y-77386017D01*
X175694197Y-77386016D01*
X175694197Y-77386015D01*
X175611484Y-77303302D01*
X175555500Y-77275934D01*
X175506393Y-77251927D01*
X175506391Y-77251926D01*
X175506390Y-77251926D01*
X175438263Y-77242000D01*
X175438260Y-77242000D01*
X175071740Y-77242000D01*
X175071737Y-77242000D01*
X175003609Y-77251926D01*
X174898515Y-77303302D01*
X174815802Y-77386015D01*
X174764426Y-77491109D01*
X174754500Y-77559237D01*
X174754500Y-78650763D01*
X174764426Y-78718890D01*
X174764426Y-78718891D01*
X174764427Y-78718893D01*
X174815802Y-78823982D01*
X174824890Y-78842573D01*
X174822153Y-78843910D01*
X174831781Y-78859776D01*
X174835636Y-78918596D01*
X174811896Y-78972550D01*
X174735463Y-79072159D01*
X174674956Y-79218237D01*
X174654317Y-79375000D01*
X173701670Y-79375000D01*
X173670233Y-79340476D01*
X173655500Y-79281853D01*
X173655500Y-79011471D01*
X173674314Y-78945805D01*
X173699037Y-78923515D01*
X173696852Y-78921330D01*
X173794197Y-78823984D01*
X173794198Y-78823983D01*
X173845573Y-78718893D01*
X173855500Y-78650760D01*
X173855500Y-77559240D01*
X173853862Y-77548000D01*
X173845573Y-77491109D01*
X173845573Y-77491107D01*
X173794198Y-77386017D01*
X173794197Y-77386016D01*
X173794197Y-77386015D01*
X173711484Y-77303302D01*
X173655500Y-77275934D01*
X173606393Y-77251927D01*
X173606391Y-77251926D01*
X173606390Y-77251926D01*
X173538263Y-77242000D01*
X173538260Y-77242000D01*
X173171740Y-77242000D01*
X173171737Y-77242000D01*
X173103609Y-77251926D01*
X172998515Y-77303302D01*
X172915802Y-77386015D01*
X172864426Y-77491109D01*
X172854500Y-77559237D01*
X172854500Y-78650763D01*
X172864426Y-78718890D01*
X172915802Y-78823984D01*
X173013148Y-78921330D01*
X173010962Y-78923515D01*
X173035686Y-78945805D01*
X173054500Y-79011471D01*
X173054500Y-79281853D01*
X173039767Y-79340476D01*
X172999071Y-79385168D01*
X172942080Y-79405311D01*
X172920303Y-79407353D01*
X172792115Y-79452207D01*
X172682849Y-79532849D01*
X172602207Y-79642115D01*
X172557353Y-79770303D01*
X172554500Y-79800731D01*
X172554500Y-80459269D01*
X172150500Y-80459269D01*
X172150500Y-79480734D01*
X172147646Y-79450301D01*
X172102793Y-79322118D01*
X172102792Y-79322115D01*
X172022150Y-79212849D01*
X171912882Y-79132206D01*
X171853279Y-79111350D01*
X171801774Y-79076936D01*
X171773343Y-79021901D01*
X171775080Y-78959981D01*
X171806551Y-78906629D01*
X171889198Y-78823983D01*
X171940573Y-78718893D01*
X171950500Y-78650760D01*
X171950500Y-77559240D01*
X171948862Y-77548000D01*
X171940573Y-77491109D01*
X171940573Y-77491107D01*
X171889198Y-77386017D01*
X171889197Y-77386016D01*
X171889197Y-77386015D01*
X171791852Y-77288670D01*
X171794037Y-77286484D01*
X171769314Y-77264195D01*
X171750500Y-77198529D01*
X171750500Y-76375763D01*
X173804500Y-76375763D01*
X173814426Y-76443890D01*
X173814426Y-76443891D01*
X173814427Y-76443893D01*
X173835892Y-76487801D01*
X173865802Y-76548984D01*
X173948515Y-76631697D01*
X173948516Y-76631697D01*
X173948517Y-76631698D01*
X174053607Y-76683073D01*
X174080860Y-76687043D01*
X174121737Y-76693000D01*
X174121740Y-76693000D01*
X174488260Y-76693000D01*
X174488263Y-76693000D01*
X174522326Y-76688036D01*
X174556393Y-76683073D01*
X174661483Y-76631698D01*
X174744198Y-76548983D01*
X174795573Y-76443893D01*
X174805500Y-76375760D01*
X174805500Y-76254500D01*
X174822113Y-76192500D01*
X174867500Y-76147113D01*
X174929500Y-76130500D01*
X176141385Y-76130500D01*
X176200009Y-76145233D01*
X176244702Y-76185931D01*
X176264843Y-76242923D01*
X176267353Y-76269697D01*
X176312207Y-76397884D01*
X176392849Y-76507150D01*
X176502115Y-76587792D01*
X176502118Y-76587793D01*
X176630301Y-76632646D01*
X176642474Y-76633787D01*
X176660731Y-76635500D01*
X176660734Y-76635500D01*
X177669266Y-76635500D01*
X177669269Y-76635500D01*
X177684482Y-76634072D01*
X177699699Y-76632646D01*
X177827882Y-76587793D01*
X177827882Y-76587792D01*
X177827884Y-76587792D01*
X177937150Y-76507150D01*
X178017792Y-76397884D01*
X178017793Y-76397882D01*
X178062646Y-76269699D01*
X178065500Y-76239266D01*
X178065500Y-75605734D01*
X178062646Y-75575301D01*
X178017793Y-75447118D01*
X178017792Y-75447115D01*
X177937150Y-75337849D01*
X177827884Y-75257207D01*
X177699696Y-75212353D01*
X177669269Y-75209500D01*
X177669266Y-75209500D01*
X177609833Y-75209500D01*
X177553538Y-75195985D01*
X177509515Y-75158385D01*
X177487360Y-75104898D01*
X177491902Y-75047182D01*
X177522152Y-74997819D01*
X177891464Y-74628507D01*
X179233518Y-73286451D01*
X179247353Y-73276498D01*
X179254225Y-73268959D01*
X179254228Y-73268958D01*
X179285488Y-73234666D01*
X179289379Y-73230590D01*
X179302174Y-73217797D01*
X179302178Y-73217790D01*
X179302867Y-73217102D01*
X179311922Y-73205671D01*
X179313536Y-73203900D01*
X179329916Y-73185933D01*
X179332415Y-73179479D01*
X179345743Y-73154192D01*
X179349657Y-73148481D01*
X179349658Y-73148477D01*
X179355773Y-73122479D01*
X179360850Y-73106081D01*
X179370500Y-73081173D01*
X179370500Y-73074248D01*
X179373794Y-73045858D01*
X179373819Y-73045749D01*
X179375379Y-73039119D01*
X179371689Y-73012667D01*
X179370500Y-72995536D01*
X179370500Y-72589500D01*
X179387113Y-72527500D01*
X179432500Y-72482113D01*
X179494500Y-72465500D01*
X179619749Y-72465500D01*
X179651742Y-72459136D01*
X179678231Y-72453867D01*
X179744552Y-72409552D01*
X179788867Y-72343231D01*
X179800500Y-72284748D01*
X179800500Y-70945252D01*
X179798327Y-70934330D01*
X179788867Y-70886769D01*
X179744552Y-70820447D01*
X179678230Y-70776132D01*
X179619749Y-70764500D01*
X179619748Y-70764500D01*
X177980252Y-70764500D01*
X177980251Y-70764500D01*
X177921769Y-70776132D01*
X177855447Y-70820447D01*
X177811132Y-70886769D01*
X177799500Y-70945251D01*
X177799500Y-70963841D01*
X177785056Y-71021924D01*
X177745087Y-71066474D01*
X177688907Y-71087114D01*
X177629603Y-71079034D01*
X177580992Y-71044117D01*
X177538336Y-70993899D01*
X177391063Y-70881944D01*
X177223169Y-70804268D01*
X177042497Y-70764500D01*
X176603887Y-70764500D01*
X176603885Y-70764500D01*
X176466091Y-70779485D01*
X176290779Y-70838556D01*
X176132262Y-70933931D01*
X175997960Y-71061149D01*
X175894140Y-71214272D01*
X175825669Y-71386121D01*
X175808486Y-71490935D01*
X175800493Y-71539695D01*
X175795740Y-71568685D01*
X175805754Y-71753407D01*
X175855245Y-71931658D01*
X175941899Y-72095103D01*
X176061663Y-72236100D01*
X176208936Y-72348055D01*
X176376830Y-72425731D01*
X176376831Y-72425731D01*
X176376833Y-72425732D01*
X176557503Y-72465500D01*
X176996113Y-72465500D01*
X176996115Y-72465500D01*
X177065011Y-72458006D01*
X177133910Y-72450514D01*
X177309221Y-72391444D01*
X177467736Y-72296070D01*
X177590224Y-72180042D01*
X177639746Y-72151332D01*
X177696885Y-72147923D01*
X177749468Y-72170542D01*
X177786288Y-72214369D01*
X177799500Y-72270065D01*
X177799500Y-72284749D01*
X177811132Y-72343230D01*
X177855447Y-72409552D01*
X177921769Y-72453867D01*
X177980251Y-72465500D01*
X177980252Y-72465500D01*
X178645500Y-72465500D01*
X178707500Y-72482113D01*
X178752887Y-72527500D01*
X178769500Y-72589500D01*
X178769500Y-72849167D01*
X178760061Y-72896620D01*
X178733181Y-72936848D01*
X177001475Y-74668552D01*
X176987639Y-74678508D01*
X176949523Y-74720318D01*
X176945573Y-74724454D01*
X176932141Y-74737886D01*
X176923087Y-74749317D01*
X176905083Y-74769067D01*
X176902578Y-74775534D01*
X176889259Y-74800802D01*
X176885343Y-74806518D01*
X176879228Y-74832517D01*
X176874151Y-74848913D01*
X176864500Y-74873827D01*
X176864500Y-74880751D01*
X176861206Y-74909140D01*
X176859621Y-74915881D01*
X176859950Y-74918243D01*
X176863311Y-74942332D01*
X176864500Y-74959465D01*
X176864500Y-75085500D01*
X176847887Y-75147500D01*
X176802500Y-75192887D01*
X176740500Y-75209500D01*
X176660731Y-75209500D01*
X176630303Y-75212353D01*
X176502115Y-75257207D01*
X176392849Y-75337849D01*
X176311294Y-75448352D01*
X176286295Y-75489842D01*
X176244983Y-75519154D01*
X176195397Y-75529500D01*
X174929500Y-75529500D01*
X174867500Y-75512887D01*
X174822113Y-75467500D01*
X174805500Y-75405500D01*
X174805500Y-75284237D01*
X174795573Y-75216109D01*
X174795573Y-75216107D01*
X174744198Y-75111017D01*
X174744197Y-75111016D01*
X174744197Y-75111015D01*
X174661484Y-75028302D01*
X174600614Y-74998545D01*
X174556393Y-74976927D01*
X174556391Y-74976926D01*
X174556390Y-74976926D01*
X174488263Y-74967000D01*
X174488260Y-74967000D01*
X174121740Y-74967000D01*
X174121737Y-74967000D01*
X174053609Y-74976926D01*
X173948515Y-75028302D01*
X173865802Y-75111015D01*
X173814426Y-75216109D01*
X173804500Y-75284237D01*
X173804500Y-76375763D01*
X171750500Y-76375763D01*
X171750500Y-74999244D01*
X171753243Y-74982423D01*
X171752772Y-74972237D01*
X171752773Y-74972236D01*
X171750631Y-74925920D01*
X171750500Y-74920196D01*
X171750500Y-74901178D01*
X171748817Y-74886680D01*
X171748786Y-74886002D01*
X171747585Y-74860009D01*
X171744786Y-74853671D01*
X171736332Y-74826367D01*
X171735061Y-74819568D01*
X171735061Y-74819567D01*
X171720997Y-74796853D01*
X171712994Y-74781669D01*
X171702206Y-74757235D01*
X171697310Y-74752338D01*
X171679563Y-74729933D01*
X171675919Y-74724048D01*
X171654602Y-74707950D01*
X171641648Y-74696677D01*
X171460314Y-74515343D01*
X171431740Y-74470798D01*
X171424342Y-74418395D01*
X171439467Y-74367681D01*
X171474362Y-74327892D01*
X171587150Y-74244650D01*
X171667792Y-74135384D01*
X171667793Y-74135382D01*
X171712646Y-74007199D01*
X171715500Y-73976766D01*
X171715500Y-73343234D01*
X171712646Y-73312801D01*
X171667793Y-73184618D01*
X171667792Y-73184615D01*
X171587150Y-73075349D01*
X171477884Y-72994707D01*
X171349696Y-72949853D01*
X171319269Y-72947000D01*
X171319266Y-72947000D01*
X170310734Y-72947000D01*
X170310731Y-72947000D01*
X170280303Y-72949853D01*
X170152115Y-72994707D01*
X170042850Y-73075348D01*
X169962270Y-73184531D01*
X169918381Y-73221592D01*
X169862500Y-73234897D01*
X169806619Y-73221592D01*
X169762730Y-73184531D01*
X169682149Y-73075348D01*
X169572884Y-72994707D01*
X169444696Y-72949853D01*
X169414269Y-72947000D01*
X169414266Y-72947000D01*
X168405734Y-72947000D01*
X168405731Y-72947000D01*
X168375303Y-72949853D01*
X168247115Y-72994707D01*
X168137849Y-73075349D01*
X168057207Y-73184615D01*
X168012353Y-73312803D01*
X168009500Y-73343231D01*
X168009500Y-73976769D01*
X168012353Y-74007200D01*
X168019145Y-74026610D01*
X168022994Y-74095156D01*
X167989784Y-74155243D01*
X167866845Y-74278183D01*
X167826620Y-74305061D01*
X167779167Y-74314500D01*
X167392596Y-74314500D01*
X167343009Y-74304154D01*
X167301698Y-74274841D01*
X167275554Y-74231455D01*
X167248886Y-74155243D01*
X167247793Y-74152118D01*
X167247791Y-74152115D01*
X167247791Y-74152114D01*
X167167150Y-74042849D01*
X167057884Y-73962207D01*
X166929696Y-73917353D01*
X166899269Y-73914500D01*
X166899266Y-73914500D01*
X165840734Y-73914500D01*
X165840731Y-73914500D01*
X165810303Y-73917353D01*
X165682115Y-73962207D01*
X165572849Y-74042849D01*
X165492207Y-74152115D01*
X165447353Y-74280303D01*
X165444500Y-74310731D01*
X165444500Y-74919269D01*
X162360700Y-74919269D01*
X165128200Y-72151769D01*
X168009500Y-72151769D01*
X168012353Y-72182196D01*
X168057207Y-72310384D01*
X168137849Y-72419650D01*
X168247115Y-72500292D01*
X168247118Y-72500293D01*
X168375301Y-72545146D01*
X168387474Y-72546287D01*
X168405731Y-72548000D01*
X168405734Y-72548000D01*
X169414266Y-72548000D01*
X169414269Y-72548000D01*
X169429482Y-72546572D01*
X169444699Y-72545146D01*
X169572882Y-72500293D01*
X169572882Y-72500292D01*
X169572884Y-72500292D01*
X169682148Y-72419652D01*
X169682148Y-72419650D01*
X169682150Y-72419650D01*
X169762793Y-72310382D01*
X169762793Y-72310380D01*
X169763039Y-72310048D01*
X169806928Y-72272987D01*
X169862809Y-72259681D01*
X169918691Y-72272986D01*
X169962580Y-72310047D01*
X170043207Y-72419292D01*
X170152353Y-72499845D01*
X170280396Y-72544649D01*
X170310794Y-72547500D01*
X170565000Y-72547500D01*
X170565000Y-72085000D01*
X171065000Y-72085000D01*
X171065000Y-72547499D01*
X171319199Y-72547499D01*
X171349605Y-72544648D01*
X171477646Y-72499845D01*
X171586792Y-72419292D01*
X171667345Y-72310146D01*
X171712149Y-72182103D01*
X171715000Y-72151706D01*
X171715000Y-72085000D01*
X171065000Y-72085000D01*
X170565000Y-72085000D01*
X170565000Y-71122501D01*
X170310801Y-71122501D01*
X170280394Y-71125351D01*
X170152353Y-71170154D01*
X170043206Y-71250708D01*
X169962579Y-71359953D01*
X169918690Y-71397013D01*
X169862809Y-71410318D01*
X169806928Y-71397012D01*
X169763040Y-71359951D01*
X169682150Y-71250349D01*
X169572884Y-71169707D01*
X169444696Y-71124853D01*
X169419606Y-71122500D01*
X171065000Y-71122500D01*
X171065000Y-71585000D01*
X171714999Y-71585000D01*
X171714999Y-71518301D01*
X171712148Y-71487894D01*
X171667345Y-71359853D01*
X171586792Y-71250707D01*
X171477646Y-71170154D01*
X171349603Y-71125350D01*
X171319206Y-71122500D01*
X171065000Y-71122500D01*
X169419606Y-71122500D01*
X169417356Y-71122289D01*
X169356236Y-71099284D01*
X169315282Y-71048416D01*
X169305851Y-70983795D01*
X169330560Y-70923344D01*
X169338279Y-70913284D01*
X169338282Y-70913282D01*
X169434536Y-70787841D01*
X169495044Y-70641762D01*
X169515682Y-70485000D01*
X169495044Y-70328238D01*
X169434536Y-70182159D01*
X169367519Y-70094820D01*
X169338282Y-70056717D01*
X169212840Y-69960463D01*
X169066762Y-69899956D01*
X168909999Y-69879317D01*
X168753237Y-69899956D01*
X168607159Y-69960463D01*
X168481717Y-70056717D01*
X168385463Y-70182159D01*
X168324956Y-70328237D01*
X168304317Y-70485000D01*
X168324956Y-70641762D01*
X168385463Y-70787840D01*
X168489439Y-70923345D01*
X168514148Y-70983795D01*
X168504717Y-71048416D01*
X168463763Y-71099284D01*
X168402643Y-71122289D01*
X168375303Y-71124853D01*
X168247115Y-71169707D01*
X168137849Y-71250349D01*
X168057207Y-71359615D01*
X168012353Y-71487803D01*
X168009500Y-71518231D01*
X168009500Y-72151769D01*
X165128200Y-72151769D01*
X165688518Y-71591451D01*
X165702353Y-71581498D01*
X165709225Y-71573959D01*
X165709228Y-71573958D01*
X165740488Y-71539666D01*
X165744379Y-71535590D01*
X165757174Y-71522797D01*
X165757178Y-71522790D01*
X165757868Y-71522101D01*
X165766922Y-71510671D01*
X165784914Y-71490935D01*
X165784913Y-71490935D01*
X165784916Y-71490933D01*
X165787419Y-71484470D01*
X165800743Y-71459191D01*
X165804656Y-71453481D01*
X165810770Y-71427481D01*
X165815846Y-71411089D01*
X165825500Y-71386173D01*
X165825500Y-71379249D01*
X165828794Y-71350856D01*
X165830379Y-71344119D01*
X165826688Y-71317666D01*
X165825500Y-71300535D01*
X165825500Y-69568685D01*
X174295740Y-69568685D01*
X174305754Y-69753407D01*
X174355245Y-69931658D01*
X174441899Y-70095103D01*
X174561663Y-70236100D01*
X174708936Y-70348055D01*
X174876830Y-70425731D01*
X174876831Y-70425731D01*
X174876833Y-70425732D01*
X175057503Y-70465500D01*
X175496113Y-70465500D01*
X175496115Y-70465500D01*
X175579080Y-70456477D01*
X175633910Y-70450514D01*
X175809221Y-70391444D01*
X175967736Y-70296070D01*
X176102041Y-70168849D01*
X176205858Y-70015730D01*
X176274331Y-69843875D01*
X176304260Y-69661317D01*
X176299238Y-69568685D01*
X177295740Y-69568685D01*
X177305754Y-69753407D01*
X177355245Y-69931658D01*
X177441899Y-70095103D01*
X177561663Y-70236100D01*
X177708936Y-70348055D01*
X177876830Y-70425731D01*
X177876831Y-70425731D01*
X177876833Y-70425732D01*
X178057503Y-70465500D01*
X178496113Y-70465500D01*
X178496115Y-70465500D01*
X178579080Y-70456477D01*
X178633910Y-70450514D01*
X178809221Y-70391444D01*
X178967736Y-70296070D01*
X179102041Y-70168849D01*
X179199369Y-70025299D01*
X179246907Y-69983800D01*
X179308715Y-69971070D01*
X179368785Y-69990408D01*
X179411558Y-70036806D01*
X179442314Y-70094820D01*
X179562012Y-70235737D01*
X179709195Y-70347624D01*
X179876990Y-70425254D01*
X180050000Y-70463337D01*
X180050000Y-69865000D01*
X180550000Y-69865000D01*
X180550000Y-70459136D01*
X180633801Y-70450022D01*
X180809009Y-70390988D01*
X180967431Y-70295669D01*
X181101655Y-70168524D01*
X181205413Y-70015492D01*
X181265376Y-69865000D01*
X180550000Y-69865000D01*
X180050000Y-69865000D01*
X180050000Y-68770863D01*
X179966198Y-68779977D01*
X179790990Y-68839011D01*
X179632568Y-68934330D01*
X179498341Y-69061478D01*
X179401213Y-69204731D01*
X179353674Y-69246232D01*
X179291867Y-69258962D01*
X179231797Y-69239624D01*
X179189027Y-69193230D01*
X179158100Y-69134896D01*
X179038337Y-68993900D01*
X179038336Y-68993899D01*
X178891063Y-68881944D01*
X178723169Y-68804268D01*
X178552319Y-68766662D01*
X180549999Y-68766662D01*
X180550000Y-68766663D01*
X180550000Y-69365000D01*
X181262742Y-69365000D01*
X181262742Y-69364999D01*
X181244285Y-69298527D01*
X181157685Y-69135179D01*
X181037987Y-68994262D01*
X180890804Y-68882375D01*
X180723009Y-68804745D01*
X180549999Y-68766662D01*
X178552319Y-68766662D01*
X178542497Y-68764500D01*
X178103887Y-68764500D01*
X178103885Y-68764500D01*
X177966091Y-68779485D01*
X177790779Y-68838556D01*
X177632262Y-68933931D01*
X177497960Y-69061149D01*
X177394140Y-69214272D01*
X177325669Y-69386121D01*
X177310837Y-69476593D01*
X177296701Y-69562825D01*
X177295740Y-69568685D01*
X176299238Y-69568685D01*
X176294245Y-69476593D01*
X176244754Y-69298341D01*
X176158100Y-69134896D01*
X176038337Y-68993900D01*
X176038336Y-68993899D01*
X175891063Y-68881944D01*
X175723169Y-68804268D01*
X175542497Y-68764500D01*
X175103887Y-68764500D01*
X175103885Y-68764500D01*
X174966091Y-68779485D01*
X174790779Y-68838556D01*
X174632262Y-68933931D01*
X174497960Y-69061149D01*
X174394140Y-69214272D01*
X174325669Y-69386121D01*
X174310837Y-69476593D01*
X174296701Y-69562825D01*
X174295740Y-69568685D01*
X165825500Y-69568685D01*
X165825500Y-69284244D01*
X165828243Y-69267423D01*
X165827772Y-69257237D01*
X165827773Y-69257236D01*
X165825631Y-69210920D01*
X165825500Y-69205196D01*
X165825500Y-69186178D01*
X165823817Y-69171680D01*
X165822585Y-69145009D01*
X165819786Y-69138671D01*
X165811332Y-69111367D01*
X165810061Y-69104568D01*
X165810061Y-69104567D01*
X165795997Y-69081853D01*
X165787994Y-69066669D01*
X165785557Y-69061149D01*
X165777206Y-69042235D01*
X165772309Y-69037338D01*
X165754563Y-69014933D01*
X165750919Y-69009048D01*
X165729602Y-68992950D01*
X165716648Y-68981677D01*
X164865751Y-68130780D01*
X164839086Y-68091068D01*
X164829437Y-68044218D01*
X164838237Y-67997208D01*
X164899331Y-67843875D01*
X164929260Y-67661317D01*
X164924238Y-67568685D01*
X174795740Y-67568685D01*
X174805754Y-67753407D01*
X174855245Y-67931658D01*
X174941899Y-68095103D01*
X175061663Y-68236100D01*
X175208936Y-68348055D01*
X175376830Y-68425731D01*
X175376831Y-68425731D01*
X175376833Y-68425732D01*
X175557503Y-68465500D01*
X175996113Y-68465500D01*
X175996115Y-68465500D01*
X176085930Y-68455732D01*
X176133910Y-68450514D01*
X176309221Y-68391444D01*
X176467736Y-68296070D01*
X176602041Y-68168849D01*
X176699051Y-68025768D01*
X176746588Y-67984268D01*
X176808396Y-67971538D01*
X176868465Y-67990875D01*
X176911239Y-68037272D01*
X176941900Y-68095104D01*
X177061663Y-68236100D01*
X177208936Y-68348055D01*
X177376830Y-68425731D01*
X177376831Y-68425731D01*
X177376833Y-68425732D01*
X177557503Y-68465500D01*
X177996113Y-68465500D01*
X177996115Y-68465500D01*
X178085930Y-68455732D01*
X178133910Y-68450514D01*
X178309221Y-68391444D01*
X178467736Y-68296070D01*
X178602041Y-68168849D01*
X178699051Y-68025768D01*
X178746588Y-67984268D01*
X178808396Y-67971538D01*
X178868465Y-67990875D01*
X178911239Y-68037272D01*
X178941900Y-68095104D01*
X179061663Y-68236100D01*
X179208936Y-68348055D01*
X179376830Y-68425731D01*
X179376831Y-68425731D01*
X179376833Y-68425732D01*
X179557503Y-68465500D01*
X179996113Y-68465500D01*
X179996115Y-68465500D01*
X180085930Y-68455732D01*
X180133910Y-68450514D01*
X180309221Y-68391444D01*
X180467736Y-68296070D01*
X180602041Y-68168849D01*
X180705858Y-68015730D01*
X180774331Y-67843875D01*
X180804260Y-67661317D01*
X180794245Y-67476593D01*
X180784840Y-67442720D01*
X180744754Y-67298341D01*
X180658100Y-67134896D01*
X180538336Y-66993899D01*
X180391063Y-66881944D01*
X180223169Y-66804268D01*
X180042497Y-66764500D01*
X179603887Y-66764500D01*
X179603885Y-66764500D01*
X179466091Y-66779485D01*
X179290779Y-66838556D01*
X179132262Y-66933931D01*
X178997957Y-67061152D01*
X178900948Y-67204230D01*
X178853410Y-67245731D01*
X178791602Y-67258461D01*
X178731533Y-67239123D01*
X178688760Y-67192726D01*
X178658100Y-67134896D01*
X178538336Y-66993899D01*
X178391063Y-66881944D01*
X178223169Y-66804268D01*
X178042497Y-66764500D01*
X177603887Y-66764500D01*
X177603885Y-66764500D01*
X177466091Y-66779485D01*
X177290779Y-66838556D01*
X177132262Y-66933931D01*
X176997957Y-67061152D01*
X176900948Y-67204230D01*
X176853410Y-67245731D01*
X176791602Y-67258461D01*
X176731533Y-67239123D01*
X176688760Y-67192726D01*
X176658100Y-67134896D01*
X176538336Y-66993899D01*
X176391063Y-66881944D01*
X176223169Y-66804268D01*
X176042497Y-66764500D01*
X175603887Y-66764500D01*
X175603885Y-66764500D01*
X175466091Y-66779485D01*
X175290779Y-66838556D01*
X175132262Y-66933931D01*
X174997960Y-67061149D01*
X174894140Y-67214272D01*
X174825669Y-67386121D01*
X174810837Y-67476593D01*
X174797198Y-67559793D01*
X174795740Y-67568685D01*
X164924238Y-67568685D01*
X164919245Y-67476593D01*
X164909840Y-67442720D01*
X164869754Y-67298341D01*
X164783100Y-67134896D01*
X164663336Y-66993899D01*
X164516063Y-66881944D01*
X164348169Y-66804268D01*
X164167497Y-66764500D01*
X163728887Y-66764500D01*
X163728885Y-66764500D01*
X163591091Y-66779485D01*
X163415779Y-66838556D01*
X163257262Y-66933931D01*
X163122960Y-67061149D01*
X163019140Y-67214272D01*
X162950669Y-67386121D01*
X162935837Y-67476593D01*
X162922198Y-67559793D01*
X162920740Y-67568685D01*
X162930754Y-67753407D01*
X162980245Y-67931658D01*
X163066899Y-68095103D01*
X163186663Y-68236100D01*
X163333936Y-68348055D01*
X163501830Y-68425731D01*
X163501831Y-68425731D01*
X163501833Y-68425732D01*
X163682503Y-68465500D01*
X164121113Y-68465500D01*
X164258910Y-68450514D01*
X164258912Y-68450513D01*
X164268954Y-68449421D01*
X164323542Y-68455732D01*
X164370042Y-68485013D01*
X164437848Y-68552819D01*
X164468098Y-68602182D01*
X164472640Y-68659898D01*
X164450485Y-68713385D01*
X164406462Y-68750985D01*
X164350167Y-68764500D01*
X164228885Y-68764500D01*
X164091091Y-68779485D01*
X163915779Y-68838556D01*
X163757262Y-68933931D01*
X163622960Y-69061149D01*
X163519140Y-69214272D01*
X163450669Y-69386121D01*
X163435837Y-69476593D01*
X163421701Y-69562825D01*
X163420740Y-69568685D01*
X163430754Y-69753407D01*
X163480245Y-69931658D01*
X163566899Y-70095103D01*
X163686663Y-70236100D01*
X163833936Y-70348055D01*
X164001830Y-70425731D01*
X164001831Y-70425731D01*
X164001833Y-70425732D01*
X164182503Y-70465500D01*
X164621113Y-70465500D01*
X164621115Y-70465500D01*
X164704080Y-70456477D01*
X164758910Y-70450514D01*
X164934221Y-70391444D01*
X165036572Y-70329861D01*
X165098822Y-70312124D01*
X165161528Y-70328171D01*
X165207606Y-70373629D01*
X165224500Y-70436113D01*
X165224500Y-71154167D01*
X165215061Y-71201620D01*
X165188181Y-71241848D01*
X164137181Y-72292848D01*
X164087818Y-72323098D01*
X164030102Y-72327640D01*
X163976615Y-72305485D01*
X163939015Y-72261462D01*
X163925500Y-72205167D01*
X163925500Y-70945251D01*
X163913867Y-70886769D01*
X163869552Y-70820447D01*
X163803230Y-70776132D01*
X163744749Y-70764500D01*
X163744748Y-70764500D01*
X162105252Y-70764500D01*
X162105251Y-70764500D01*
X162046769Y-70776132D01*
X161980447Y-70820447D01*
X161936132Y-70886769D01*
X161924500Y-70945251D01*
X161924500Y-70964614D01*
X161910056Y-71022697D01*
X161870087Y-71067247D01*
X161813907Y-71087887D01*
X161754603Y-71079807D01*
X161705992Y-71044890D01*
X161662989Y-70994264D01*
X161515804Y-70882375D01*
X161348009Y-70804745D01*
X161175000Y-70766663D01*
X161175000Y-72459136D01*
X161258799Y-72450022D01*
X161370013Y-72412550D01*
X161435607Y-72408815D01*
X161493901Y-72439117D01*
X161528532Y-72494948D01*
X161529778Y-72560636D01*
X161497288Y-72617740D01*
X155711848Y-78403181D01*
X155671620Y-78430061D01*
X155624167Y-78439500D01*
X142135783Y-78439500D01*
X142088330Y-78430061D01*
X142048102Y-78403181D01*
X140316400Y-76671479D01*
X140306447Y-76657645D01*
X140264631Y-76619524D01*
X140260490Y-76615569D01*
X140247060Y-76602139D01*
X140235628Y-76593083D01*
X140215884Y-76575084D01*
X140209418Y-76572579D01*
X140184142Y-76559256D01*
X140178431Y-76555344D01*
X140178430Y-76555343D01*
X140178428Y-76555342D01*
X140152434Y-76549228D01*
X140136037Y-76544151D01*
X140111123Y-76534500D01*
X140104199Y-76534500D01*
X140075809Y-76531206D01*
X140069069Y-76529621D01*
X140069068Y-76529621D01*
X140057707Y-76531206D01*
X140042616Y-76533311D01*
X140025485Y-76534500D01*
X136256969Y-76534500D01*
X136207382Y-76524154D01*
X136166070Y-76494841D01*
X136139928Y-76451456D01*
X136107793Y-76359618D01*
X136107791Y-76359615D01*
X136107791Y-76359614D01*
X136027150Y-76250349D01*
X135917884Y-76169707D01*
X135789696Y-76124853D01*
X135759269Y-76122000D01*
X135759266Y-76122000D01*
X134750734Y-76122000D01*
X134750731Y-76122000D01*
X134720303Y-76124853D01*
X134592115Y-76169707D01*
X134482849Y-76250349D01*
X134402207Y-76359615D01*
X134357353Y-76487803D01*
X134354500Y-76518231D01*
X134354500Y-77151769D01*
X134357353Y-77182196D01*
X134402207Y-77310384D01*
X134482849Y-77419650D01*
X134592115Y-77500292D01*
X134592118Y-77500293D01*
X134720301Y-77545146D01*
X134732474Y-77546287D01*
X134750731Y-77548000D01*
X134750734Y-77548000D01*
X134830500Y-77548000D01*
X134892500Y-77564613D01*
X134937887Y-77610000D01*
X134954500Y-77672000D01*
X134954500Y-77929167D01*
X134945061Y-77976620D01*
X134918181Y-78016848D01*
X134531848Y-78403181D01*
X134491620Y-78430061D01*
X134444167Y-78439500D01*
X134169500Y-78439500D01*
X134107500Y-78422887D01*
X134062113Y-78377500D01*
X134045500Y-78315500D01*
X134045500Y-78210731D01*
X134043051Y-78184618D01*
X134042646Y-78180301D01*
X133997793Y-78052118D01*
X133997792Y-78052115D01*
X133917150Y-77942849D01*
X133807884Y-77862207D01*
X133679696Y-77817353D01*
X133649269Y-77814500D01*
X133649266Y-77814500D01*
X133040734Y-77814500D01*
X133040731Y-77814500D01*
X133010303Y-77817353D01*
X132882115Y-77862207D01*
X132772849Y-77942849D01*
X132692207Y-78052115D01*
X132647353Y-78180303D01*
X132644500Y-78210731D01*
X132644500Y-79269269D01*
X132145500Y-79269269D01*
X132145500Y-79269266D01*
X132145500Y-78210734D01*
X132142646Y-78180301D01*
X132097793Y-78052118D01*
X132097792Y-78052115D01*
X132017150Y-77942849D01*
X131907884Y-77862207D01*
X131779696Y-77817353D01*
X131749269Y-77814500D01*
X131749266Y-77814500D01*
X131140734Y-77814500D01*
X131140731Y-77814500D01*
X131110303Y-77817353D01*
X130982115Y-77862207D01*
X130872849Y-77942849D01*
X130792207Y-78052115D01*
X130747353Y-78180303D01*
X130744500Y-78210731D01*
X130744500Y-79269269D01*
X130747353Y-79299696D01*
X130792207Y-79427884D01*
X130872849Y-79537150D01*
X130982114Y-79617791D01*
X130982116Y-79617791D01*
X130982118Y-79617793D01*
X131061455Y-79645554D01*
X131104841Y-79671698D01*
X131134154Y-79713009D01*
X131144500Y-79762596D01*
X131144500Y-79774404D01*
X131134154Y-79823991D01*
X131104841Y-79865302D01*
X131061455Y-79891445D01*
X131047846Y-79896208D01*
X130982114Y-79919208D01*
X130872849Y-79999849D01*
X130792207Y-80109115D01*
X130747353Y-80237303D01*
X130744500Y-80267731D01*
X130744500Y-81376269D01*
X130196343Y-81376269D01*
X130198500Y-81353266D01*
X130198500Y-80244734D01*
X130195646Y-80214301D01*
X130150793Y-80086118D01*
X130150792Y-80086115D01*
X130070150Y-79976849D01*
X129960884Y-79896207D01*
X129832696Y-79851353D01*
X129802269Y-79848500D01*
X129802266Y-79848500D01*
X129193734Y-79848500D01*
X129193731Y-79848500D01*
X129163303Y-79851353D01*
X129035115Y-79896207D01*
X128925849Y-79976849D01*
X128848270Y-80081966D01*
X128804381Y-80119028D01*
X128748500Y-80132333D01*
X128692619Y-80119028D01*
X128648730Y-80081966D01*
X128571150Y-79976849D01*
X128461885Y-79896208D01*
X128399429Y-79874354D01*
X128382544Y-79868445D01*
X128339159Y-79842302D01*
X128309846Y-79800991D01*
X128299500Y-79751404D01*
X128299500Y-79497000D01*
X128316113Y-79435000D01*
X128361500Y-79389613D01*
X128423500Y-79373000D01*
X129409269Y-79373000D01*
X129424482Y-79371573D01*
X129439699Y-79370146D01*
X129567882Y-79325293D01*
X129567882Y-79325292D01*
X129567884Y-79325292D01*
X129677150Y-79244650D01*
X129757792Y-79135384D01*
X129757793Y-79135382D01*
X129802646Y-79007199D01*
X129805157Y-78980422D01*
X129805500Y-78976769D01*
X129805500Y-78343231D01*
X129802646Y-78312803D01*
X129802646Y-78312801D01*
X129757793Y-78184618D01*
X129757792Y-78184615D01*
X129677150Y-78075349D01*
X129567884Y-77994707D01*
X129439696Y-77949853D01*
X129409269Y-77947000D01*
X129409266Y-77947000D01*
X128400734Y-77947000D01*
X128400731Y-77947000D01*
X128370303Y-77949853D01*
X128242115Y-77994707D01*
X128132849Y-78075349D01*
X128052207Y-78184615D01*
X128007353Y-78312803D01*
X128004500Y-78343231D01*
X128004500Y-78706167D01*
X127995061Y-78753620D01*
X127968183Y-78793845D01*
X127867952Y-78894076D01*
X127835475Y-78926553D01*
X127821638Y-78936509D01*
X127783523Y-78978318D01*
X127779573Y-78982454D01*
X127766141Y-78995886D01*
X127757087Y-79007317D01*
X127739083Y-79027067D01*
X127736578Y-79033534D01*
X127723259Y-79058802D01*
X127719343Y-79064518D01*
X127713228Y-79090517D01*
X127708151Y-79106913D01*
X127698500Y-79131827D01*
X127698500Y-79138751D01*
X127695206Y-79167144D01*
X127693621Y-79173881D01*
X127697311Y-79200332D01*
X127698500Y-79217465D01*
X127698500Y-79751404D01*
X127688154Y-79800991D01*
X127658841Y-79842302D01*
X127615455Y-79868446D01*
X127536114Y-79896208D01*
X127426849Y-79976849D01*
X127349270Y-80081966D01*
X127305381Y-80119028D01*
X127249500Y-80132333D01*
X127193619Y-80119028D01*
X127149730Y-80081966D01*
X127072150Y-79976849D01*
X126962884Y-79896207D01*
X126834696Y-79851353D01*
X126804269Y-79848500D01*
X126804266Y-79848500D01*
X126789500Y-79848500D01*
X126727500Y-79831887D01*
X126682113Y-79786500D01*
X126665500Y-79724500D01*
X126665500Y-79497000D01*
X126682113Y-79435000D01*
X126727500Y-79389613D01*
X126789500Y-79373000D01*
X126869269Y-79373000D01*
X126884482Y-79371573D01*
X126899699Y-79370146D01*
X127027882Y-79325293D01*
X127027882Y-79325292D01*
X127027884Y-79325292D01*
X127137150Y-79244650D01*
X127217792Y-79135384D01*
X127217793Y-79135382D01*
X127262646Y-79007199D01*
X127265157Y-78980422D01*
X127265500Y-78976769D01*
X127265500Y-78343231D01*
X127262646Y-78312803D01*
X127262646Y-78312801D01*
X127217793Y-78184618D01*
X127217792Y-78184615D01*
X127137150Y-78075349D01*
X127027884Y-77994707D01*
X126899696Y-77949853D01*
X126869269Y-77947000D01*
X126869266Y-77947000D01*
X125860734Y-77947000D01*
X125860731Y-77947000D01*
X125830303Y-77949853D01*
X125702115Y-77994707D01*
X125592849Y-78075349D01*
X125512207Y-78184615D01*
X125467353Y-78312803D01*
X125464500Y-78343231D01*
X125464500Y-78976769D01*
X125467353Y-79007196D01*
X125512207Y-79135384D01*
X125592849Y-79244650D01*
X125702115Y-79325292D01*
X125702118Y-79325293D01*
X125830301Y-79370146D01*
X125842474Y-79371287D01*
X125860731Y-79373000D01*
X125860734Y-79373000D01*
X125940500Y-79373000D01*
X126002500Y-79389613D01*
X126047887Y-79435000D01*
X126064500Y-79497000D01*
X126064500Y-79813400D01*
X126051194Y-79869282D01*
X126014133Y-79913169D01*
X126005954Y-79919207D01*
X125927847Y-79976851D01*
X125850270Y-80081966D01*
X125806381Y-80119028D01*
X125750500Y-80132333D01*
X125694619Y-80119028D01*
X125650730Y-80081966D01*
X125573150Y-79976849D01*
X125463884Y-79896207D01*
X125335696Y-79851353D01*
X125305269Y-79848500D01*
X125305266Y-79848500D01*
X124696734Y-79848500D01*
X124696731Y-79848500D01*
X124666303Y-79851353D01*
X124538115Y-79896207D01*
X124428849Y-79976849D01*
X124351270Y-80081966D01*
X124307381Y-80119028D01*
X124251500Y-80132333D01*
X124195619Y-80119028D01*
X124151730Y-80081966D01*
X124074152Y-79976851D01*
X124037092Y-79949500D01*
X123967864Y-79898408D01*
X123930806Y-79854522D01*
X123917500Y-79798640D01*
X123917500Y-79497000D01*
X123934113Y-79435000D01*
X123979500Y-79389613D01*
X124041500Y-79373000D01*
X124329269Y-79373000D01*
X124344482Y-79371573D01*
X124359699Y-79370146D01*
X124487882Y-79325293D01*
X124487882Y-79325292D01*
X124487884Y-79325292D01*
X124597150Y-79244650D01*
X124677792Y-79135384D01*
X124677793Y-79135382D01*
X124722646Y-79007199D01*
X124725157Y-78980422D01*
X124725500Y-78976769D01*
X124725500Y-78343231D01*
X124722646Y-78312803D01*
X124722646Y-78312801D01*
X124677793Y-78184618D01*
X124677792Y-78184615D01*
X124597150Y-78075349D01*
X124487884Y-77994707D01*
X124359696Y-77949853D01*
X124329269Y-77947000D01*
X124329266Y-77947000D01*
X123320734Y-77947000D01*
X123320731Y-77947000D01*
X123290303Y-77949853D01*
X123162115Y-77994707D01*
X123052849Y-78075349D01*
X122972207Y-78184615D01*
X122927353Y-78312803D01*
X122924500Y-78343231D01*
X122924500Y-78976769D01*
X122927353Y-79007196D01*
X122972207Y-79135384D01*
X123052849Y-79244650D01*
X123162114Y-79325291D01*
X123162116Y-79325291D01*
X123162118Y-79325293D01*
X123233455Y-79350255D01*
X123276841Y-79376397D01*
X123306154Y-79417709D01*
X123316500Y-79467296D01*
X123316500Y-79724500D01*
X123299887Y-79786500D01*
X123254500Y-79831887D01*
X123203289Y-79845608D01*
X123203510Y-79847958D01*
X123167303Y-79851353D01*
X123039115Y-79896207D01*
X122929849Y-79976849D01*
X122849207Y-80086115D01*
X122804353Y-80214303D01*
X122802458Y-80234516D01*
X122781235Y-80293109D01*
X122734190Y-80333979D01*
X122673205Y-80346802D01*
X122613683Y-80328341D01*
X122570660Y-80283257D01*
X122555000Y-80222938D01*
X122555000Y-77085000D01*
X122925001Y-77085000D01*
X122925001Y-77151699D01*
X122927851Y-77182105D01*
X122972654Y-77310146D01*
X123053207Y-77419292D01*
X123162353Y-77499845D01*
X123290396Y-77544649D01*
X123320794Y-77547500D01*
X123575000Y-77547500D01*
X123575000Y-77085000D01*
X124075000Y-77085000D01*
X124075000Y-77547499D01*
X124329199Y-77547499D01*
X124359605Y-77544648D01*
X124487646Y-77499845D01*
X124596792Y-77419292D01*
X124677345Y-77310146D01*
X124722149Y-77182103D01*
X124724994Y-77151769D01*
X125464500Y-77151769D01*
X125467353Y-77182196D01*
X125512207Y-77310384D01*
X125592849Y-77419650D01*
X125702115Y-77500292D01*
X125702118Y-77500293D01*
X125830301Y-77545146D01*
X125842474Y-77546287D01*
X125860731Y-77548000D01*
X125860734Y-77548000D01*
X126869266Y-77548000D01*
X126869269Y-77548000D01*
X126884482Y-77546573D01*
X126899699Y-77545146D01*
X127027882Y-77500293D01*
X127027882Y-77500292D01*
X127027884Y-77500292D01*
X127137150Y-77419650D01*
X127217792Y-77310384D01*
X127217793Y-77310382D01*
X127262646Y-77182199D01*
X127265500Y-77151769D01*
X128004500Y-77151769D01*
X128007353Y-77182196D01*
X128052207Y-77310384D01*
X128132849Y-77419650D01*
X128242115Y-77500292D01*
X128242118Y-77500293D01*
X128370301Y-77545146D01*
X128382474Y-77546287D01*
X128400731Y-77548000D01*
X128400734Y-77548000D01*
X129409266Y-77548000D01*
X129409269Y-77548000D01*
X129424482Y-77546573D01*
X129439699Y-77545146D01*
X129567882Y-77500293D01*
X129567882Y-77500292D01*
X129567884Y-77500292D01*
X129677150Y-77419650D01*
X129757792Y-77310384D01*
X129757793Y-77310382D01*
X129802646Y-77182199D01*
X129805500Y-77151766D01*
X129805500Y-76518234D01*
X129802646Y-76487801D01*
X129757793Y-76359618D01*
X129757792Y-76359615D01*
X129677150Y-76250349D01*
X129567884Y-76169707D01*
X129439696Y-76124853D01*
X129409269Y-76122000D01*
X129409266Y-76122000D01*
X129329500Y-76122000D01*
X129267500Y-76105387D01*
X129222113Y-76060000D01*
X129205500Y-75998000D01*
X129205500Y-75260000D01*
X134355001Y-75260000D01*
X134355001Y-75326699D01*
X134357851Y-75357105D01*
X134402654Y-75485146D01*
X134483207Y-75594292D01*
X134592353Y-75674845D01*
X134720396Y-75719649D01*
X134750794Y-75722500D01*
X135005000Y-75722500D01*
X135005000Y-75260000D01*
X135505000Y-75260000D01*
X135505000Y-75722499D01*
X135759199Y-75722499D01*
X135789605Y-75719648D01*
X135917646Y-75674845D01*
X136026792Y-75594292D01*
X136107345Y-75485146D01*
X136152149Y-75357103D01*
X136155000Y-75326706D01*
X136155000Y-75260000D01*
X135505000Y-75260000D01*
X135005000Y-75260000D01*
X134355001Y-75260000D01*
X129205500Y-75260000D01*
X129205500Y-74760000D01*
X134355000Y-74760000D01*
X135005000Y-74760000D01*
X135005000Y-74297501D01*
X134750801Y-74297501D01*
X134720394Y-74300351D01*
X134592353Y-74345154D01*
X134483207Y-74425707D01*
X134402654Y-74534853D01*
X134357850Y-74662896D01*
X134355000Y-74693294D01*
X134355000Y-74760000D01*
X129205500Y-74760000D01*
X129205500Y-74472000D01*
X129222113Y-74410000D01*
X129267500Y-74364613D01*
X129329500Y-74348000D01*
X129414768Y-74348000D01*
X129428101Y-74346749D01*
X129444774Y-74345186D01*
X129571179Y-74300955D01*
X129575860Y-74297500D01*
X135505000Y-74297500D01*
X135505000Y-74760000D01*
X136154999Y-74760000D01*
X136154999Y-74693301D01*
X136152148Y-74662894D01*
X136107345Y-74534853D01*
X136026792Y-74425707D01*
X135917646Y-74345154D01*
X135789603Y-74300350D01*
X135759206Y-74297500D01*
X135505000Y-74297500D01*
X129575860Y-74297500D01*
X129678930Y-74221430D01*
X129758455Y-74113679D01*
X129802686Y-73987274D01*
X129805500Y-73957264D01*
X129805500Y-73362736D01*
X129802686Y-73332726D01*
X129758455Y-73206321D01*
X129715764Y-73148477D01*
X129678930Y-73098569D01*
X129571180Y-73019046D01*
X129571179Y-73019045D01*
X129444774Y-72974814D01*
X129444771Y-72974813D01*
X129444769Y-72974813D01*
X129414768Y-72972000D01*
X129414764Y-72972000D01*
X128395236Y-72972000D01*
X128395232Y-72972000D01*
X128365230Y-72974813D01*
X128365227Y-72974813D01*
X128365226Y-72974814D01*
X128238821Y-73019045D01*
X128238820Y-73019045D01*
X128238819Y-73019046D01*
X128131069Y-73098569D01*
X128051546Y-73206319D01*
X128051545Y-73206321D01*
X128014286Y-73312803D01*
X128007313Y-73332730D01*
X128004500Y-73362732D01*
X128004500Y-73957268D01*
X128007313Y-73987269D01*
X128007313Y-73987271D01*
X128007314Y-73987274D01*
X128051545Y-74113679D01*
X128051546Y-74113680D01*
X128131069Y-74221430D01*
X128194085Y-74267938D01*
X128238821Y-74300955D01*
X128365226Y-74345186D01*
X128380230Y-74346592D01*
X128395232Y-74348000D01*
X128395236Y-74348000D01*
X128480500Y-74348000D01*
X128542500Y-74364613D01*
X128587887Y-74410000D01*
X128604500Y-74472000D01*
X128604500Y-75998000D01*
X128587887Y-76060000D01*
X128542500Y-76105387D01*
X128480500Y-76122000D01*
X128400731Y-76122000D01*
X128370303Y-76124853D01*
X128242115Y-76169707D01*
X128132849Y-76250349D01*
X128052207Y-76359615D01*
X128007353Y-76487803D01*
X128004500Y-76518231D01*
X128004500Y-77151769D01*
X127265500Y-77151769D01*
X127265500Y-77151766D01*
X127265500Y-76518234D01*
X127262646Y-76487801D01*
X127217793Y-76359618D01*
X127217792Y-76359615D01*
X127137150Y-76250349D01*
X127027884Y-76169707D01*
X126899696Y-76124853D01*
X126869269Y-76122000D01*
X126869266Y-76122000D01*
X126789500Y-76122000D01*
X126727500Y-76105387D01*
X126682113Y-76060000D01*
X126665500Y-75998000D01*
X126665500Y-74472000D01*
X126682113Y-74410000D01*
X126727500Y-74364613D01*
X126789500Y-74348000D01*
X126874768Y-74348000D01*
X126888101Y-74346749D01*
X126904774Y-74345186D01*
X127031179Y-74300955D01*
X127138930Y-74221430D01*
X127218455Y-74113679D01*
X127262686Y-73987274D01*
X127265500Y-73957264D01*
X127265500Y-73362736D01*
X127262686Y-73332726D01*
X127218455Y-73206321D01*
X127175764Y-73148477D01*
X127138930Y-73098569D01*
X127031180Y-73019046D01*
X127031179Y-73019045D01*
X126904774Y-72974814D01*
X126904771Y-72974813D01*
X126904769Y-72974813D01*
X126874768Y-72972000D01*
X126874764Y-72972000D01*
X125855236Y-72972000D01*
X125855232Y-72972000D01*
X125825230Y-72974813D01*
X125825227Y-72974813D01*
X125825226Y-72974814D01*
X125698821Y-73019045D01*
X125698820Y-73019045D01*
X125698819Y-73019046D01*
X125591069Y-73098569D01*
X125511546Y-73206319D01*
X125511545Y-73206321D01*
X125474286Y-73312803D01*
X125467313Y-73332730D01*
X125464500Y-73362732D01*
X125464500Y-73957268D01*
X125467313Y-73987269D01*
X125467313Y-73987271D01*
X125467314Y-73987274D01*
X125511545Y-74113679D01*
X125511546Y-74113680D01*
X125591069Y-74221430D01*
X125654085Y-74267938D01*
X125698821Y-74300955D01*
X125825226Y-74345186D01*
X125840230Y-74346592D01*
X125855232Y-74348000D01*
X125855236Y-74348000D01*
X125940500Y-74348000D01*
X126002500Y-74364613D01*
X126047887Y-74410000D01*
X126064500Y-74472000D01*
X126064500Y-75998000D01*
X126047887Y-76060000D01*
X126002500Y-76105387D01*
X125940500Y-76122000D01*
X125860731Y-76122000D01*
X125830303Y-76124853D01*
X125702115Y-76169707D01*
X125592849Y-76250349D01*
X125512207Y-76359615D01*
X125467353Y-76487803D01*
X125464500Y-76518231D01*
X125464500Y-77151769D01*
X124724994Y-77151769D01*
X124725000Y-77151706D01*
X124725000Y-77085000D01*
X124075000Y-77085000D01*
X123575000Y-77085000D01*
X122925001Y-77085000D01*
X122555000Y-77085000D01*
X122555000Y-76585000D01*
X122925000Y-76585000D01*
X123575000Y-76585000D01*
X123575000Y-76122501D01*
X123320801Y-76122501D01*
X123290394Y-76125351D01*
X123162353Y-76170154D01*
X123053207Y-76250707D01*
X122972654Y-76359853D01*
X122927850Y-76487896D01*
X122925000Y-76518294D01*
X122925000Y-76585000D01*
X122555000Y-76585000D01*
X122555000Y-76122500D01*
X124075000Y-76122500D01*
X124075000Y-76585000D01*
X124724999Y-76585000D01*
X124724999Y-76518301D01*
X124722148Y-76487894D01*
X124677345Y-76359853D01*
X124596792Y-76250707D01*
X124487646Y-76170154D01*
X124359603Y-76125350D01*
X124329206Y-76122500D01*
X124075000Y-76122500D01*
X122555000Y-76122500D01*
X122555000Y-72035000D01*
X125465001Y-72035000D01*
X125465001Y-72082191D01*
X125467812Y-72112178D01*
X125511993Y-72238442D01*
X125591426Y-72346073D01*
X125699058Y-72425506D01*
X125825322Y-72469688D01*
X125855302Y-72472500D01*
X126115000Y-72472500D01*
X126115000Y-72035000D01*
X126615000Y-72035000D01*
X126615000Y-72472499D01*
X126874691Y-72472499D01*
X126904678Y-72469687D01*
X127030942Y-72425506D01*
X127138573Y-72346073D01*
X127218006Y-72238441D01*
X127262188Y-72112177D01*
X127265000Y-72082198D01*
X127265000Y-72035000D01*
X128005001Y-72035000D01*
X128005001Y-72082191D01*
X128007812Y-72112178D01*
X128051993Y-72238442D01*
X128131426Y-72346073D01*
X128239058Y-72425506D01*
X128365322Y-72469688D01*
X128395302Y-72472500D01*
X128655000Y-72472500D01*
X128655000Y-72035000D01*
X129155000Y-72035000D01*
X129155000Y-72472499D01*
X129414691Y-72472499D01*
X129444678Y-72469687D01*
X129570942Y-72425506D01*
X129678573Y-72346073D01*
X129758006Y-72238441D01*
X129802188Y-72112177D01*
X129805000Y-72082198D01*
X129805000Y-72035000D01*
X129155000Y-72035000D01*
X128655000Y-72035000D01*
X128005001Y-72035000D01*
X127265000Y-72035000D01*
X126615000Y-72035000D01*
X126115000Y-72035000D01*
X125465001Y-72035000D01*
X122555000Y-72035000D01*
X122555000Y-71535000D01*
X125465000Y-71535000D01*
X126115000Y-71535000D01*
X126115000Y-71097501D01*
X125855309Y-71097501D01*
X125825321Y-71100312D01*
X125699057Y-71144493D01*
X125591426Y-71223926D01*
X125511993Y-71331558D01*
X125467811Y-71457822D01*
X125465000Y-71487802D01*
X125465000Y-71535000D01*
X122555000Y-71535000D01*
X122555000Y-71097500D01*
X126615000Y-71097500D01*
X126615000Y-71535000D01*
X127264999Y-71535000D01*
X128005000Y-71535000D01*
X128655000Y-71535000D01*
X128655000Y-71097501D01*
X128395309Y-71097501D01*
X128365321Y-71100312D01*
X128239057Y-71144493D01*
X128131426Y-71223926D01*
X128051993Y-71331558D01*
X128007811Y-71457822D01*
X128005000Y-71487802D01*
X128005000Y-71535000D01*
X127264999Y-71535000D01*
X127264999Y-71487809D01*
X127262187Y-71457821D01*
X127218006Y-71331557D01*
X127138573Y-71223926D01*
X127030941Y-71144493D01*
X126904677Y-71100311D01*
X126874698Y-71097500D01*
X129155000Y-71097500D01*
X129155000Y-71535000D01*
X129804999Y-71535000D01*
X129804999Y-71487809D01*
X129802187Y-71457821D01*
X129758006Y-71331557D01*
X129678573Y-71223926D01*
X129570941Y-71144493D01*
X129444677Y-71100311D01*
X129414698Y-71097500D01*
X129155000Y-71097500D01*
X126874698Y-71097500D01*
X126615000Y-71097500D01*
X122555000Y-71097500D01*
X122555000Y-67442720D01*
X133570831Y-67442720D01*
X133742546Y-67559793D01*
X133978860Y-67673596D01*
X134229496Y-67750908D01*
X134488856Y-67790000D01*
X134751144Y-67790000D01*
X135010503Y-67750908D01*
X135261139Y-67673596D01*
X135497456Y-67559792D01*
X135669167Y-67442720D01*
X134620001Y-66393553D01*
X134620000Y-66393553D01*
X133570831Y-67442720D01*
X122555000Y-67442720D01*
X122555000Y-66039999D01*
X132865092Y-66039999D01*
X132884693Y-66301552D01*
X132943059Y-66557270D01*
X133038882Y-66801424D01*
X133170027Y-67028573D01*
X133217873Y-67088571D01*
X134266445Y-66040001D01*
X134973553Y-66040001D01*
X136022124Y-67088571D01*
X136069972Y-67028572D01*
X136201117Y-66801423D01*
X136296940Y-66557270D01*
X136355306Y-66301552D01*
X136374907Y-66040000D01*
X136355306Y-65778447D01*
X136296940Y-65522729D01*
X136201117Y-65278575D01*
X136069972Y-65051426D01*
X136022125Y-64991427D01*
X134973553Y-66040000D01*
X134973553Y-66040001D01*
X134266445Y-66040001D01*
X134266446Y-66040000D01*
X134266446Y-66039998D01*
X133217874Y-64991428D01*
X133170026Y-65051428D01*
X133038882Y-65278576D01*
X132943059Y-65522729D01*
X132884693Y-65778447D01*
X132865092Y-66039999D01*
X122555000Y-66039999D01*
X122555000Y-64637278D01*
X133570832Y-64637278D01*
X134620000Y-65686446D01*
X134620001Y-65686446D01*
X135669167Y-64637278D01*
X135497451Y-64520205D01*
X135261139Y-64406403D01*
X135010503Y-64329091D01*
X134751144Y-64290000D01*
X134488856Y-64290000D01*
X134229496Y-64329091D01*
X133978860Y-64406403D01*
X133742545Y-64520206D01*
X133570832Y-64637278D01*
X122555000Y-64637278D01*
X122555000Y-63489500D01*
X122571613Y-63427500D01*
X122617000Y-63382113D01*
X122679000Y-63365500D01*
X138364108Y-63365500D01*
X138425125Y-63365500D01*
X138434853Y-63365881D01*
G37*
%TD.AperFunction*%
%TD*%
M02*
