%TF.GenerationSoftware,KiCad,Pcbnew,7.0.1-0*%
%TF.CreationDate,2023-06-10T00:32:30+08:00*%
%TF.ProjectId,FT817-BT-JDY67,46543831-372d-4425-942d-4a445936372e,20230609*%
%TF.SameCoordinates,Original*%
%TF.FileFunction,Drillmap*%
%TF.FilePolarity,Positive*%
%FSLAX45Y45*%
G04 Gerber Fmt 4.5, Leading zero omitted, Abs format (unit mm)*
G04 Created by KiCad (PCBNEW 7.0.1-0) date 2023-06-10 00:32:30*
%MOMM*%
%LPD*%
G01*
G04 APERTURE LIST*
%ADD10C,0.100000*%
%ADD11C,0.200000*%
%ADD12C,0.040000*%
%ADD13C,0.080000*%
%ADD14C,0.090000*%
%ADD15C,0.270000*%
%ADD16C,0.900000*%
G04 APERTURE END LIST*
D10*
X17208500Y-9525000D02*
X18388220Y-7103966D01*
X10541000Y-6286500D02*
G75*
G03*
X10350500Y-6477000I0J-190500D01*
G01*
X17081500Y-9652000D02*
G75*
G03*
X17208500Y-9525000I-63500J190500D01*
G01*
X9080500Y-9461500D02*
G75*
G03*
X9271000Y-9652000I190500J0D01*
G01*
X9271000Y-9652000D02*
X17081500Y-9652000D01*
X18388220Y-7103966D02*
G75*
G03*
X17780000Y-6286500I-608220J182466D01*
G01*
X17780000Y-6286500D02*
X15621000Y-6286500D01*
X10350500Y-7239000D02*
X10350500Y-6477000D01*
X9715500Y-7874000D02*
X9271000Y-7874000D01*
X14033500Y-6477000D02*
G75*
G03*
X13843000Y-6286500I-190500J0D01*
G01*
X9271000Y-7874000D02*
G75*
G03*
X9080500Y-8064500I0J-190500D01*
G01*
X14033500Y-6477000D02*
X14033500Y-6921500D01*
X9080500Y-8064500D02*
X9080500Y-9461500D01*
X9715500Y-7874000D02*
G75*
G03*
X10350500Y-7239000I0J635000D01*
G01*
X13843000Y-6286500D02*
X10541000Y-6286500D01*
X15430500Y-6477000D02*
X15430500Y-6921500D01*
X14033500Y-6921500D02*
G75*
G03*
X15430500Y-6921500I698500J0D01*
G01*
X15621000Y-6286500D02*
G75*
G03*
X15430500Y-6477000I0J-190500D01*
G01*
D11*
D12*
X12299000Y-9505000D02*
X12339000Y-9545000D01*
X12339000Y-9505000D02*
X12299000Y-9545000D01*
X12330200Y-9205200D02*
X12370200Y-9245200D01*
X12370200Y-9205200D02*
X12330200Y-9245200D01*
X12362500Y-6393500D02*
X12402500Y-6433500D01*
X12402500Y-6393500D02*
X12362500Y-6433500D01*
X12362500Y-6774500D02*
X12402500Y-6814500D01*
X12402500Y-6774500D02*
X12362500Y-6814500D01*
X12362500Y-7155500D02*
X12402500Y-7195500D01*
X12402500Y-7155500D02*
X12362500Y-7195500D01*
X12362500Y-8235000D02*
X12402500Y-8275000D01*
X12402500Y-8235000D02*
X12362500Y-8275000D01*
X12362500Y-8552500D02*
X12402500Y-8592500D01*
X12402500Y-8552500D02*
X12362500Y-8592500D01*
X12362500Y-8870000D02*
X12402500Y-8910000D01*
X12402500Y-8870000D02*
X12362500Y-8910000D01*
X12489500Y-8997000D02*
X12529500Y-9037000D01*
X12529500Y-8997000D02*
X12489500Y-9037000D01*
X12489500Y-9205200D02*
X12529500Y-9245200D01*
X12529500Y-9205200D02*
X12489500Y-9245200D01*
X12616500Y-8235000D02*
X12656500Y-8275000D01*
X12656500Y-8235000D02*
X12616500Y-8275000D01*
X12616500Y-8616000D02*
X12656500Y-8656000D01*
X12656500Y-8616000D02*
X12616500Y-8656000D01*
X12680000Y-6393500D02*
X12720000Y-6433500D01*
X12720000Y-6393500D02*
X12680000Y-6433500D01*
X12680000Y-9505000D02*
X12720000Y-9545000D01*
X12720000Y-9505000D02*
X12680000Y-9545000D01*
X12743500Y-8743000D02*
X12783500Y-8783000D01*
X12783500Y-8743000D02*
X12743500Y-8783000D01*
X12743500Y-9060500D02*
X12783500Y-9100500D01*
X12783500Y-9060500D02*
X12743500Y-9100500D01*
X12807000Y-8425500D02*
X12847000Y-8465500D01*
X12847000Y-8425500D02*
X12807000Y-8465500D01*
X12934000Y-8870000D02*
X12974000Y-8910000D01*
X12974000Y-8870000D02*
X12934000Y-8910000D01*
X12997500Y-6393500D02*
X13037500Y-6433500D01*
X13037500Y-6393500D02*
X12997500Y-6433500D01*
X12997500Y-8616000D02*
X13037500Y-8656000D01*
X13037500Y-8616000D02*
X12997500Y-8656000D01*
X13061000Y-7663500D02*
X13101000Y-7703500D01*
X13101000Y-7663500D02*
X13061000Y-7703500D01*
X13124500Y-7155500D02*
X13164500Y-7195500D01*
X13164500Y-7155500D02*
X13124500Y-7195500D01*
X13188000Y-8362000D02*
X13228000Y-8402000D01*
X13228000Y-8362000D02*
X13188000Y-8402000D01*
X13188000Y-8870000D02*
X13228000Y-8910000D01*
X13228000Y-8870000D02*
X13188000Y-8910000D01*
X13251500Y-8108000D02*
X13291500Y-8148000D01*
X13291500Y-8108000D02*
X13251500Y-8148000D01*
X13315000Y-9505000D02*
X13355000Y-9545000D01*
X13355000Y-9505000D02*
X13315000Y-9545000D01*
X13378500Y-8616000D02*
X13418500Y-8656000D01*
X13418500Y-8616000D02*
X13378500Y-8656000D01*
X13505500Y-8108000D02*
X13545500Y-8148000D01*
X13545500Y-8108000D02*
X13505500Y-8148000D01*
X13505500Y-8362000D02*
X13545500Y-8402000D01*
X13545500Y-8362000D02*
X13505500Y-8402000D01*
X13569000Y-8870000D02*
X13609000Y-8910000D01*
X13609000Y-8870000D02*
X13569000Y-8910000D01*
X13696000Y-8616000D02*
X13736000Y-8656000D01*
X13736000Y-8616000D02*
X13696000Y-8656000D01*
X13759500Y-8108000D02*
X13799500Y-8148000D01*
X13799500Y-8108000D02*
X13759500Y-8148000D01*
X13823000Y-6457000D02*
X13863000Y-6497000D01*
X13863000Y-6457000D02*
X13823000Y-6497000D01*
X13823000Y-6774500D02*
X13863000Y-6814500D01*
X13863000Y-6774500D02*
X13823000Y-6814500D01*
X13823000Y-7155500D02*
X13863000Y-7195500D01*
X13863000Y-7155500D02*
X13823000Y-7195500D01*
X13823000Y-8362000D02*
X13863000Y-8402000D01*
X13863000Y-8362000D02*
X13823000Y-8402000D01*
X13823000Y-9505000D02*
X13863000Y-9545000D01*
X13863000Y-9505000D02*
X13823000Y-9545000D01*
X13886500Y-8870000D02*
X13926500Y-8910000D01*
X13926500Y-8870000D02*
X13886500Y-8910000D01*
X13950000Y-9124000D02*
X13990000Y-9164000D01*
X13990000Y-9124000D02*
X13950000Y-9164000D01*
X14013500Y-7473000D02*
X14053500Y-7513000D01*
X14053500Y-7473000D02*
X14013500Y-7513000D01*
X14013500Y-7854000D02*
X14053500Y-7894000D01*
X14053500Y-7854000D02*
X14013500Y-7894000D01*
X14013500Y-8108000D02*
X14053500Y-8148000D01*
X14053500Y-8108000D02*
X14013500Y-8148000D01*
X14013500Y-8616000D02*
X14053500Y-8656000D01*
X14053500Y-8616000D02*
X14013500Y-8656000D01*
X14140500Y-8362000D02*
X14180500Y-8402000D01*
X14180500Y-8362000D02*
X14140500Y-8402000D01*
X14140500Y-8870000D02*
X14180500Y-8910000D01*
X14180500Y-8870000D02*
X14140500Y-8910000D01*
X14267500Y-7663500D02*
X14307500Y-7703500D01*
X14307500Y-7663500D02*
X14267500Y-7703500D01*
X14458000Y-8362000D02*
X14498000Y-8402000D01*
X14498000Y-8362000D02*
X14458000Y-8402000D01*
X14458000Y-8616000D02*
X14498000Y-8656000D01*
X14498000Y-8616000D02*
X14458000Y-8656000D01*
X14458000Y-8870000D02*
X14498000Y-8910000D01*
X14498000Y-8870000D02*
X14458000Y-8910000D01*
X14458000Y-9522700D02*
X14498000Y-9562700D01*
X14498000Y-9522700D02*
X14458000Y-9562700D01*
X14648500Y-8489000D02*
X14688500Y-8529000D01*
X14688500Y-8489000D02*
X14648500Y-8529000D01*
X14648500Y-8616000D02*
X14688500Y-8656000D01*
X14688500Y-8616000D02*
X14648500Y-8656000D01*
X14648500Y-8743000D02*
X14688500Y-8783000D01*
X14688500Y-8743000D02*
X14648500Y-8783000D01*
X14712000Y-7727000D02*
X14752000Y-7767000D01*
X14752000Y-7727000D02*
X14712000Y-7767000D01*
X14839000Y-8927050D02*
X14879000Y-8967050D01*
X14879000Y-8927050D02*
X14839000Y-8967050D01*
X14839000Y-9124000D02*
X14879000Y-9164000D01*
X14879000Y-9124000D02*
X14839000Y-9164000D01*
X15093000Y-8362000D02*
X15133000Y-8402000D01*
X15133000Y-8362000D02*
X15093000Y-8402000D01*
X15093000Y-8616000D02*
X15133000Y-8656000D01*
X15133000Y-8616000D02*
X15093000Y-8656000D01*
X15093000Y-8870000D02*
X15133000Y-8910000D01*
X15133000Y-8870000D02*
X15093000Y-8910000D01*
X15156500Y-7663500D02*
X15196500Y-7703500D01*
X15196500Y-7663500D02*
X15156500Y-7703500D01*
X15410500Y-7473000D02*
X15450500Y-7513000D01*
X15450500Y-7473000D02*
X15410500Y-7513000D01*
X15410500Y-8870000D02*
X15450500Y-8910000D01*
X15450500Y-8870000D02*
X15410500Y-8910000D01*
X15474000Y-7981000D02*
X15514000Y-8021000D01*
X15514000Y-7981000D02*
X15474000Y-8021000D01*
X15601000Y-6457000D02*
X15641000Y-6497000D01*
X15641000Y-6457000D02*
X15601000Y-6497000D01*
X15601000Y-6774500D02*
X15641000Y-6814500D01*
X15641000Y-6774500D02*
X15601000Y-6814500D01*
X15601000Y-7155500D02*
X15641000Y-7195500D01*
X15641000Y-7155500D02*
X15601000Y-7195500D01*
X15601000Y-8489000D02*
X15641000Y-8529000D01*
X15641000Y-8489000D02*
X15601000Y-8529000D01*
X15601000Y-8743000D02*
X15641000Y-8783000D01*
X15641000Y-8743000D02*
X15601000Y-8783000D01*
X15601000Y-9124000D02*
X15641000Y-9164000D01*
X15641000Y-9124000D02*
X15601000Y-9164000D01*
X15664500Y-8870000D02*
X15704500Y-8910000D01*
X15704500Y-8870000D02*
X15664500Y-8910000D01*
X15791500Y-8108000D02*
X15831500Y-8148000D01*
X15831500Y-8108000D02*
X15791500Y-8148000D01*
X15855000Y-7727000D02*
X15895000Y-7767000D01*
X15895000Y-7727000D02*
X15855000Y-7767000D01*
X15918500Y-8298500D02*
X15958500Y-8338500D01*
X15958500Y-8298500D02*
X15918500Y-8338500D01*
X15918500Y-9441500D02*
X15958500Y-9481500D01*
X15958500Y-9441500D02*
X15918500Y-9481500D01*
X16045500Y-7854000D02*
X16085500Y-7894000D01*
X16085500Y-7854000D02*
X16045500Y-7894000D01*
X16109000Y-8489000D02*
X16149000Y-8529000D01*
X16149000Y-8489000D02*
X16109000Y-8529000D01*
X16172500Y-6901500D02*
X16212500Y-6941500D01*
X16212500Y-6901500D02*
X16172500Y-6941500D01*
X16172500Y-7409500D02*
X16212500Y-7449500D01*
X16212500Y-7409500D02*
X16172500Y-7449500D01*
X16172500Y-8044500D02*
X16212500Y-8084500D01*
X16212500Y-8044500D02*
X16172500Y-8084500D01*
X16299500Y-7600000D02*
X16339500Y-7640000D01*
X16339500Y-7600000D02*
X16299500Y-7640000D01*
X16363000Y-8235000D02*
X16403000Y-8275000D01*
X16403000Y-8235000D02*
X16363000Y-8275000D01*
X16426500Y-7790500D02*
X16466500Y-7830500D01*
X16466500Y-7790500D02*
X16426500Y-7830500D01*
X16553500Y-7346000D02*
X16593500Y-7386000D01*
X16593500Y-7346000D02*
X16553500Y-7386000D01*
X16617000Y-7981000D02*
X16657000Y-8021000D01*
X16657000Y-7981000D02*
X16617000Y-8021000D01*
X16680500Y-8552500D02*
X16720500Y-8592500D01*
X16720500Y-8552500D02*
X16680500Y-8592500D01*
X16744000Y-7092000D02*
X16784000Y-7132000D01*
X16784000Y-7092000D02*
X16744000Y-7132000D01*
X16807500Y-6457000D02*
X16847500Y-6497000D01*
X16847500Y-6457000D02*
X16807500Y-6497000D01*
X17125000Y-6457000D02*
X17165000Y-6497000D01*
X17165000Y-6457000D02*
X17125000Y-6497000D01*
X17315500Y-8870000D02*
X17355500Y-8910000D01*
X17355500Y-8870000D02*
X17315500Y-8910000D01*
X17506000Y-8489000D02*
X17546000Y-8529000D01*
X17546000Y-8489000D02*
X17506000Y-8529000D01*
X17696500Y-8044500D02*
X17736500Y-8084500D01*
X17736500Y-8044500D02*
X17696500Y-8084500D01*
X18014000Y-7473000D02*
X18054000Y-7513000D01*
X18054000Y-7473000D02*
X18014000Y-7513000D01*
X18204500Y-6647500D02*
X18244500Y-6687500D01*
X18244500Y-6647500D02*
X18204500Y-6687500D01*
X18204500Y-7155500D02*
X18244500Y-7195500D01*
X18244500Y-7155500D02*
X18204500Y-7195500D01*
X18268000Y-6901500D02*
X18308000Y-6941500D01*
X18308000Y-6901500D02*
X18268000Y-6941500D01*
D13*
X16232500Y-6481500D02*
G75*
G03*
X16232500Y-6481500I-40000J0D01*
G01*
D11*
X16072500Y-6521500D02*
X16312500Y-6521500D01*
X16312500Y-6521500D02*
G75*
G03*
X16312500Y-6441500I0J40000D01*
G01*
X16312500Y-6441500D02*
X16072500Y-6441500D01*
X16072500Y-6441500D02*
G75*
G03*
X16072500Y-6521500I0J-40000D01*
G01*
D13*
X17820000Y-6481500D02*
G75*
G03*
X17820000Y-6481500I-40000J0D01*
G01*
D11*
X17660000Y-6521500D02*
X17900000Y-6521500D01*
X17900000Y-6521500D02*
G75*
G03*
X17900000Y-6441500I0J40000D01*
G01*
X17900000Y-6441500D02*
X17660000Y-6441500D01*
X17660000Y-6441500D02*
G75*
G03*
X17660000Y-6521500I0J-40000D01*
G01*
D14*
X15942500Y-6916500D02*
X15942500Y-7006500D01*
X15897500Y-6961500D02*
X15987500Y-6961500D01*
D11*
X15927500Y-7006500D02*
X15957500Y-7006500D01*
X15957500Y-7006500D02*
G75*
G03*
X15957500Y-6916500I0J45000D01*
G01*
X15957500Y-6916500D02*
X15927500Y-6916500D01*
X15927500Y-6916500D02*
G75*
G03*
X15927500Y-7006500I0J-45000D01*
G01*
D14*
X15992500Y-6716500D02*
X15992500Y-6806500D01*
X15947500Y-6761500D02*
X16037500Y-6761500D01*
D11*
X15977500Y-6806500D02*
X16007500Y-6806500D01*
X16007500Y-6806500D02*
G75*
G03*
X16007500Y-6716500I0J45000D01*
G01*
X16007500Y-6716500D02*
X15977500Y-6716500D01*
X15977500Y-6716500D02*
G75*
G03*
X15977500Y-6806500I0J-45000D01*
G01*
D14*
X16092500Y-7116500D02*
X16092500Y-7206500D01*
X16047500Y-7161500D02*
X16137500Y-7161500D01*
D11*
X16077500Y-7206500D02*
X16107500Y-7206500D01*
X16107500Y-7206500D02*
G75*
G03*
X16107500Y-7116500I0J45000D01*
G01*
X16107500Y-7116500D02*
X16077500Y-7116500D01*
X16077500Y-7116500D02*
G75*
G03*
X16077500Y-7206500I0J-45000D01*
G01*
D14*
X16292500Y-7116500D02*
X16292500Y-7206500D01*
X16247500Y-7161500D02*
X16337500Y-7161500D01*
D11*
X16277500Y-7206500D02*
X16307500Y-7206500D01*
X16307500Y-7206500D02*
G75*
G03*
X16307500Y-7116500I0J45000D01*
G01*
X16307500Y-7116500D02*
X16277500Y-7116500D01*
X16277500Y-7116500D02*
G75*
G03*
X16277500Y-7206500I0J-45000D01*
G01*
D14*
X16392500Y-6716500D02*
X16392500Y-6806500D01*
X16347500Y-6761500D02*
X16437500Y-6761500D01*
D11*
X16377500Y-6806500D02*
X16407500Y-6806500D01*
X16407500Y-6806500D02*
G75*
G03*
X16407500Y-6716500I0J45000D01*
G01*
X16407500Y-6716500D02*
X16377500Y-6716500D01*
X16377500Y-6716500D02*
G75*
G03*
X16377500Y-6806500I0J-45000D01*
G01*
D14*
X16442500Y-6916500D02*
X16442500Y-7006500D01*
X16397500Y-6961500D02*
X16487500Y-6961500D01*
D11*
X16427500Y-7006500D02*
X16457500Y-7006500D01*
X16457500Y-7006500D02*
G75*
G03*
X16457500Y-6916500I0J45000D01*
G01*
X16457500Y-6916500D02*
X16427500Y-6916500D01*
X16427500Y-6916500D02*
G75*
G03*
X16427500Y-7006500I0J-45000D01*
G01*
D14*
X17530000Y-6916500D02*
X17530000Y-7006500D01*
X17485000Y-6961500D02*
X17575000Y-6961500D01*
D11*
X17515000Y-7006500D02*
X17545000Y-7006500D01*
X17545000Y-7006500D02*
G75*
G03*
X17545000Y-6916500I0J45000D01*
G01*
X17545000Y-6916500D02*
X17515000Y-6916500D01*
X17515000Y-6916500D02*
G75*
G03*
X17515000Y-7006500I0J-45000D01*
G01*
D14*
X17580000Y-6716500D02*
X17580000Y-6806500D01*
X17535000Y-6761500D02*
X17625000Y-6761500D01*
D11*
X17565000Y-6806500D02*
X17595000Y-6806500D01*
X17595000Y-6806500D02*
G75*
G03*
X17595000Y-6716500I0J45000D01*
G01*
X17595000Y-6716500D02*
X17565000Y-6716500D01*
X17565000Y-6716500D02*
G75*
G03*
X17565000Y-6806500I0J-45000D01*
G01*
D14*
X17680000Y-7116500D02*
X17680000Y-7206500D01*
X17635000Y-7161500D02*
X17725000Y-7161500D01*
D11*
X17665000Y-7206500D02*
X17695000Y-7206500D01*
X17695000Y-7206500D02*
G75*
G03*
X17695000Y-7116500I0J45000D01*
G01*
X17695000Y-7116500D02*
X17665000Y-7116500D01*
X17665000Y-7116500D02*
G75*
G03*
X17665000Y-7206500I0J-45000D01*
G01*
D14*
X17780000Y-6716500D02*
X17780000Y-6806500D01*
X17735000Y-6761500D02*
X17825000Y-6761500D01*
D11*
X17765000Y-6806500D02*
X17795000Y-6806500D01*
X17795000Y-6806500D02*
G75*
G03*
X17795000Y-6716500I0J45000D01*
G01*
X17795000Y-6716500D02*
X17765000Y-6716500D01*
X17765000Y-6716500D02*
G75*
G03*
X17765000Y-6806500I0J-45000D01*
G01*
D14*
X17830000Y-6916500D02*
X17830000Y-7006500D01*
X17785000Y-6961500D02*
X17875000Y-6961500D01*
D11*
X17815000Y-7006500D02*
X17845000Y-7006500D01*
X17845000Y-7006500D02*
G75*
G03*
X17845000Y-6916500I0J45000D01*
G01*
X17845000Y-6916500D02*
X17815000Y-6916500D01*
X17815000Y-6916500D02*
G75*
G03*
X17815000Y-7006500I0J-45000D01*
G01*
D14*
X17880000Y-7116500D02*
X17880000Y-7206500D01*
X17835000Y-7161500D02*
X17925000Y-7161500D01*
D11*
X17865000Y-7206500D02*
X17895000Y-7206500D01*
X17895000Y-7206500D02*
G75*
G03*
X17895000Y-7116500I0J45000D01*
G01*
X17895000Y-7116500D02*
X17865000Y-7116500D01*
X17865000Y-7116500D02*
G75*
G03*
X17865000Y-7206500I0J-45000D01*
G01*
D14*
X17980000Y-6716500D02*
X17980000Y-6806500D01*
X17935000Y-6761500D02*
X18025000Y-6761500D01*
D11*
X17965000Y-6806500D02*
X17995000Y-6806500D01*
X17995000Y-6806500D02*
G75*
G03*
X17995000Y-6716500I0J45000D01*
G01*
X17995000Y-6716500D02*
X17965000Y-6716500D01*
X17965000Y-6716500D02*
G75*
G03*
X17965000Y-6806500I0J-45000D01*
G01*
D14*
X18030000Y-6916500D02*
X18030000Y-7006500D01*
X17985000Y-6961500D02*
X18075000Y-6961500D01*
D11*
X18015000Y-7006500D02*
X18045000Y-7006500D01*
X18045000Y-7006500D02*
G75*
G03*
X18045000Y-6916500I0J45000D01*
G01*
X18045000Y-6916500D02*
X18015000Y-6916500D01*
X18015000Y-6916500D02*
G75*
G03*
X18015000Y-7006500I0J-45000D01*
G01*
D15*
X13557460Y-6699460D02*
X13557460Y-6508540D01*
X13366540Y-6508540D01*
X13366540Y-6699460D01*
X13557460Y-6699460D01*
X15335460Y-9493460D02*
X15335460Y-9302540D01*
X15144540Y-9302540D01*
X15144540Y-9493460D01*
X15335460Y-9493460D01*
D16*
X9715500Y-9340000D02*
X10165500Y-8890000D01*
X9715500Y-8440000D01*
X9265500Y-8890000D01*
X9715500Y-9340000D01*
D11*
X9323119Y-9969524D02*
X9323119Y-9769524D01*
X9323119Y-9769524D02*
X9370738Y-9769524D01*
X9370738Y-9769524D02*
X9399309Y-9779048D01*
X9399309Y-9779048D02*
X9418357Y-9798095D01*
X9418357Y-9798095D02*
X9427881Y-9817143D01*
X9427881Y-9817143D02*
X9437405Y-9855238D01*
X9437405Y-9855238D02*
X9437405Y-9883810D01*
X9437405Y-9883810D02*
X9427881Y-9921905D01*
X9427881Y-9921905D02*
X9418357Y-9940952D01*
X9418357Y-9940952D02*
X9399309Y-9960000D01*
X9399309Y-9960000D02*
X9370738Y-9969524D01*
X9370738Y-9969524D02*
X9323119Y-9969524D01*
X9523119Y-9969524D02*
X9523119Y-9836190D01*
X9523119Y-9874286D02*
X9532643Y-9855238D01*
X9532643Y-9855238D02*
X9542167Y-9845714D01*
X9542167Y-9845714D02*
X9561214Y-9836190D01*
X9561214Y-9836190D02*
X9580262Y-9836190D01*
X9646928Y-9969524D02*
X9646928Y-9836190D01*
X9646928Y-9769524D02*
X9637405Y-9779048D01*
X9637405Y-9779048D02*
X9646928Y-9788571D01*
X9646928Y-9788571D02*
X9656452Y-9779048D01*
X9656452Y-9779048D02*
X9646928Y-9769524D01*
X9646928Y-9769524D02*
X9646928Y-9788571D01*
X9770738Y-9969524D02*
X9751690Y-9960000D01*
X9751690Y-9960000D02*
X9742167Y-9940952D01*
X9742167Y-9940952D02*
X9742167Y-9769524D01*
X9875500Y-9969524D02*
X9856452Y-9960000D01*
X9856452Y-9960000D02*
X9846928Y-9940952D01*
X9846928Y-9940952D02*
X9846928Y-9769524D01*
X10104071Y-9969524D02*
X10104071Y-9769524D01*
X10104071Y-9769524D02*
X10170738Y-9912381D01*
X10170738Y-9912381D02*
X10237405Y-9769524D01*
X10237405Y-9769524D02*
X10237405Y-9969524D01*
X10418357Y-9969524D02*
X10418357Y-9864762D01*
X10418357Y-9864762D02*
X10408833Y-9845714D01*
X10408833Y-9845714D02*
X10389786Y-9836190D01*
X10389786Y-9836190D02*
X10351690Y-9836190D01*
X10351690Y-9836190D02*
X10332643Y-9845714D01*
X10418357Y-9960000D02*
X10399309Y-9969524D01*
X10399309Y-9969524D02*
X10351690Y-9969524D01*
X10351690Y-9969524D02*
X10332643Y-9960000D01*
X10332643Y-9960000D02*
X10323119Y-9940952D01*
X10323119Y-9940952D02*
X10323119Y-9921905D01*
X10323119Y-9921905D02*
X10332643Y-9902857D01*
X10332643Y-9902857D02*
X10351690Y-9893333D01*
X10351690Y-9893333D02*
X10399309Y-9893333D01*
X10399309Y-9893333D02*
X10418357Y-9883810D01*
X10513595Y-9836190D02*
X10513595Y-10036190D01*
X10513595Y-9845714D02*
X10532643Y-9836190D01*
X10532643Y-9836190D02*
X10570738Y-9836190D01*
X10570738Y-9836190D02*
X10589786Y-9845714D01*
X10589786Y-9845714D02*
X10599309Y-9855238D01*
X10599309Y-9855238D02*
X10608833Y-9874286D01*
X10608833Y-9874286D02*
X10608833Y-9931429D01*
X10608833Y-9931429D02*
X10599309Y-9950476D01*
X10599309Y-9950476D02*
X10589786Y-9960000D01*
X10589786Y-9960000D02*
X10570738Y-9969524D01*
X10570738Y-9969524D02*
X10532643Y-9969524D01*
X10532643Y-9969524D02*
X10513595Y-9960000D01*
X10694548Y-9950476D02*
X10704071Y-9960000D01*
X10704071Y-9960000D02*
X10694548Y-9969524D01*
X10694548Y-9969524D02*
X10685024Y-9960000D01*
X10685024Y-9960000D02*
X10694548Y-9950476D01*
X10694548Y-9950476D02*
X10694548Y-9969524D01*
X10694548Y-9845714D02*
X10704071Y-9855238D01*
X10704071Y-9855238D02*
X10694548Y-9864762D01*
X10694548Y-9864762D02*
X10685024Y-9855238D01*
X10685024Y-9855238D02*
X10694548Y-9845714D01*
X10694548Y-9845714D02*
X10694548Y-9864762D01*
D12*
X9035500Y-10277000D02*
X9075500Y-10317000D01*
X9075500Y-10277000D02*
X9035500Y-10317000D01*
D11*
X9361214Y-10189524D02*
X9380262Y-10189524D01*
X9380262Y-10189524D02*
X9399309Y-10199048D01*
X9399309Y-10199048D02*
X9408833Y-10208571D01*
X9408833Y-10208571D02*
X9418357Y-10227619D01*
X9418357Y-10227619D02*
X9427881Y-10265714D01*
X9427881Y-10265714D02*
X9427881Y-10313333D01*
X9427881Y-10313333D02*
X9418357Y-10351429D01*
X9418357Y-10351429D02*
X9408833Y-10370476D01*
X9408833Y-10370476D02*
X9399309Y-10380000D01*
X9399309Y-10380000D02*
X9380262Y-10389524D01*
X9380262Y-10389524D02*
X9361214Y-10389524D01*
X9361214Y-10389524D02*
X9342167Y-10380000D01*
X9342167Y-10380000D02*
X9332643Y-10370476D01*
X9332643Y-10370476D02*
X9323119Y-10351429D01*
X9323119Y-10351429D02*
X9313595Y-10313333D01*
X9313595Y-10313333D02*
X9313595Y-10265714D01*
X9313595Y-10265714D02*
X9323119Y-10227619D01*
X9323119Y-10227619D02*
X9332643Y-10208571D01*
X9332643Y-10208571D02*
X9342167Y-10199048D01*
X9342167Y-10199048D02*
X9361214Y-10189524D01*
X9513595Y-10370476D02*
X9523119Y-10380000D01*
X9523119Y-10380000D02*
X9513595Y-10389524D01*
X9513595Y-10389524D02*
X9504071Y-10380000D01*
X9504071Y-10380000D02*
X9513595Y-10370476D01*
X9513595Y-10370476D02*
X9513595Y-10389524D01*
X9694548Y-10256190D02*
X9694548Y-10389524D01*
X9646928Y-10180000D02*
X9599309Y-10322857D01*
X9599309Y-10322857D02*
X9723119Y-10322857D01*
X9837405Y-10189524D02*
X9856452Y-10189524D01*
X9856452Y-10189524D02*
X9875500Y-10199048D01*
X9875500Y-10199048D02*
X9885024Y-10208571D01*
X9885024Y-10208571D02*
X9894548Y-10227619D01*
X9894548Y-10227619D02*
X9904071Y-10265714D01*
X9904071Y-10265714D02*
X9904071Y-10313333D01*
X9904071Y-10313333D02*
X9894548Y-10351429D01*
X9894548Y-10351429D02*
X9885024Y-10370476D01*
X9885024Y-10370476D02*
X9875500Y-10380000D01*
X9875500Y-10380000D02*
X9856452Y-10389524D01*
X9856452Y-10389524D02*
X9837405Y-10389524D01*
X9837405Y-10389524D02*
X9818357Y-10380000D01*
X9818357Y-10380000D02*
X9808833Y-10370476D01*
X9808833Y-10370476D02*
X9799309Y-10351429D01*
X9799309Y-10351429D02*
X9789786Y-10313333D01*
X9789786Y-10313333D02*
X9789786Y-10265714D01*
X9789786Y-10265714D02*
X9799309Y-10227619D01*
X9799309Y-10227619D02*
X9808833Y-10208571D01*
X9808833Y-10208571D02*
X9818357Y-10199048D01*
X9818357Y-10199048D02*
X9837405Y-10189524D01*
X10027881Y-10189524D02*
X10046929Y-10189524D01*
X10046929Y-10189524D02*
X10065976Y-10199048D01*
X10065976Y-10199048D02*
X10075500Y-10208571D01*
X10075500Y-10208571D02*
X10085024Y-10227619D01*
X10085024Y-10227619D02*
X10094548Y-10265714D01*
X10094548Y-10265714D02*
X10094548Y-10313333D01*
X10094548Y-10313333D02*
X10085024Y-10351429D01*
X10085024Y-10351429D02*
X10075500Y-10370476D01*
X10075500Y-10370476D02*
X10065976Y-10380000D01*
X10065976Y-10380000D02*
X10046929Y-10389524D01*
X10046929Y-10389524D02*
X10027881Y-10389524D01*
X10027881Y-10389524D02*
X10008833Y-10380000D01*
X10008833Y-10380000D02*
X9999309Y-10370476D01*
X9999309Y-10370476D02*
X9989786Y-10351429D01*
X9989786Y-10351429D02*
X9980262Y-10313333D01*
X9980262Y-10313333D02*
X9980262Y-10265714D01*
X9980262Y-10265714D02*
X9989786Y-10227619D01*
X9989786Y-10227619D02*
X9999309Y-10208571D01*
X9999309Y-10208571D02*
X10008833Y-10199048D01*
X10008833Y-10199048D02*
X10027881Y-10189524D01*
X10180262Y-10389524D02*
X10180262Y-10256190D01*
X10180262Y-10275238D02*
X10189786Y-10265714D01*
X10189786Y-10265714D02*
X10208833Y-10256190D01*
X10208833Y-10256190D02*
X10237405Y-10256190D01*
X10237405Y-10256190D02*
X10256452Y-10265714D01*
X10256452Y-10265714D02*
X10265976Y-10284762D01*
X10265976Y-10284762D02*
X10265976Y-10389524D01*
X10265976Y-10284762D02*
X10275500Y-10265714D01*
X10275500Y-10265714D02*
X10294548Y-10256190D01*
X10294548Y-10256190D02*
X10323119Y-10256190D01*
X10323119Y-10256190D02*
X10342167Y-10265714D01*
X10342167Y-10265714D02*
X10351690Y-10284762D01*
X10351690Y-10284762D02*
X10351690Y-10389524D01*
X10446929Y-10389524D02*
X10446929Y-10256190D01*
X10446929Y-10275238D02*
X10456452Y-10265714D01*
X10456452Y-10265714D02*
X10475500Y-10256190D01*
X10475500Y-10256190D02*
X10504071Y-10256190D01*
X10504071Y-10256190D02*
X10523119Y-10265714D01*
X10523119Y-10265714D02*
X10532643Y-10284762D01*
X10532643Y-10284762D02*
X10532643Y-10389524D01*
X10532643Y-10284762D02*
X10542167Y-10265714D01*
X10542167Y-10265714D02*
X10561214Y-10256190D01*
X10561214Y-10256190D02*
X10589786Y-10256190D01*
X10589786Y-10256190D02*
X10608833Y-10265714D01*
X10608833Y-10265714D02*
X10618357Y-10284762D01*
X10618357Y-10284762D02*
X10618357Y-10389524D01*
X11008833Y-10180000D02*
X10837405Y-10437143D01*
X11265976Y-10189524D02*
X11285024Y-10189524D01*
X11285024Y-10189524D02*
X11304071Y-10199048D01*
X11304071Y-10199048D02*
X11313595Y-10208571D01*
X11313595Y-10208571D02*
X11323119Y-10227619D01*
X11323119Y-10227619D02*
X11332643Y-10265714D01*
X11332643Y-10265714D02*
X11332643Y-10313333D01*
X11332643Y-10313333D02*
X11323119Y-10351429D01*
X11323119Y-10351429D02*
X11313595Y-10370476D01*
X11313595Y-10370476D02*
X11304071Y-10380000D01*
X11304071Y-10380000D02*
X11285024Y-10389524D01*
X11285024Y-10389524D02*
X11265976Y-10389524D01*
X11265976Y-10389524D02*
X11246929Y-10380000D01*
X11246929Y-10380000D02*
X11237405Y-10370476D01*
X11237405Y-10370476D02*
X11227881Y-10351429D01*
X11227881Y-10351429D02*
X11218357Y-10313333D01*
X11218357Y-10313333D02*
X11218357Y-10265714D01*
X11218357Y-10265714D02*
X11227881Y-10227619D01*
X11227881Y-10227619D02*
X11237405Y-10208571D01*
X11237405Y-10208571D02*
X11246929Y-10199048D01*
X11246929Y-10199048D02*
X11265976Y-10189524D01*
X11418357Y-10370476D02*
X11427881Y-10380000D01*
X11427881Y-10380000D02*
X11418357Y-10389524D01*
X11418357Y-10389524D02*
X11408833Y-10380000D01*
X11408833Y-10380000D02*
X11418357Y-10370476D01*
X11418357Y-10370476D02*
X11418357Y-10389524D01*
X11551690Y-10189524D02*
X11570738Y-10189524D01*
X11570738Y-10189524D02*
X11589786Y-10199048D01*
X11589786Y-10199048D02*
X11599310Y-10208571D01*
X11599310Y-10208571D02*
X11608833Y-10227619D01*
X11608833Y-10227619D02*
X11618357Y-10265714D01*
X11618357Y-10265714D02*
X11618357Y-10313333D01*
X11618357Y-10313333D02*
X11608833Y-10351429D01*
X11608833Y-10351429D02*
X11599310Y-10370476D01*
X11599310Y-10370476D02*
X11589786Y-10380000D01*
X11589786Y-10380000D02*
X11570738Y-10389524D01*
X11570738Y-10389524D02*
X11551690Y-10389524D01*
X11551690Y-10389524D02*
X11532643Y-10380000D01*
X11532643Y-10380000D02*
X11523119Y-10370476D01*
X11523119Y-10370476D02*
X11513595Y-10351429D01*
X11513595Y-10351429D02*
X11504071Y-10313333D01*
X11504071Y-10313333D02*
X11504071Y-10265714D01*
X11504071Y-10265714D02*
X11513595Y-10227619D01*
X11513595Y-10227619D02*
X11523119Y-10208571D01*
X11523119Y-10208571D02*
X11532643Y-10199048D01*
X11532643Y-10199048D02*
X11551690Y-10189524D01*
X11808833Y-10389524D02*
X11694548Y-10389524D01*
X11751690Y-10389524D02*
X11751690Y-10189524D01*
X11751690Y-10189524D02*
X11732643Y-10218095D01*
X11732643Y-10218095D02*
X11713595Y-10237143D01*
X11713595Y-10237143D02*
X11694548Y-10246667D01*
X11989786Y-10189524D02*
X11894548Y-10189524D01*
X11894548Y-10189524D02*
X11885024Y-10284762D01*
X11885024Y-10284762D02*
X11894548Y-10275238D01*
X11894548Y-10275238D02*
X11913595Y-10265714D01*
X11913595Y-10265714D02*
X11961214Y-10265714D01*
X11961214Y-10265714D02*
X11980262Y-10275238D01*
X11980262Y-10275238D02*
X11989786Y-10284762D01*
X11989786Y-10284762D02*
X11999310Y-10303810D01*
X11999310Y-10303810D02*
X11999310Y-10351429D01*
X11999310Y-10351429D02*
X11989786Y-10370476D01*
X11989786Y-10370476D02*
X11980262Y-10380000D01*
X11980262Y-10380000D02*
X11961214Y-10389524D01*
X11961214Y-10389524D02*
X11913595Y-10389524D01*
X11913595Y-10389524D02*
X11894548Y-10380000D01*
X11894548Y-10380000D02*
X11885024Y-10370476D01*
X12065976Y-10189524D02*
X12199310Y-10189524D01*
X12199310Y-10189524D02*
X12113595Y-10389524D01*
X12265976Y-10189524D02*
X12265976Y-10227619D01*
X12342167Y-10189524D02*
X12342167Y-10227619D01*
X12637405Y-10465714D02*
X12627881Y-10456190D01*
X12627881Y-10456190D02*
X12608833Y-10427619D01*
X12608833Y-10427619D02*
X12599310Y-10408571D01*
X12599310Y-10408571D02*
X12589786Y-10380000D01*
X12589786Y-10380000D02*
X12580262Y-10332381D01*
X12580262Y-10332381D02*
X12580262Y-10294286D01*
X12580262Y-10294286D02*
X12589786Y-10246667D01*
X12589786Y-10246667D02*
X12599310Y-10218095D01*
X12599310Y-10218095D02*
X12608833Y-10199048D01*
X12608833Y-10199048D02*
X12627881Y-10170476D01*
X12627881Y-10170476D02*
X12637405Y-10160952D01*
X12723119Y-10389524D02*
X12761214Y-10389524D01*
X12761214Y-10389524D02*
X12780262Y-10380000D01*
X12780262Y-10380000D02*
X12789786Y-10370476D01*
X12789786Y-10370476D02*
X12808833Y-10341905D01*
X12808833Y-10341905D02*
X12818357Y-10303810D01*
X12818357Y-10303810D02*
X12818357Y-10227619D01*
X12818357Y-10227619D02*
X12808833Y-10208571D01*
X12808833Y-10208571D02*
X12799310Y-10199048D01*
X12799310Y-10199048D02*
X12780262Y-10189524D01*
X12780262Y-10189524D02*
X12742167Y-10189524D01*
X12742167Y-10189524D02*
X12723119Y-10199048D01*
X12723119Y-10199048D02*
X12713595Y-10208571D01*
X12713595Y-10208571D02*
X12704072Y-10227619D01*
X12704072Y-10227619D02*
X12704072Y-10275238D01*
X12704072Y-10275238D02*
X12713595Y-10294286D01*
X12713595Y-10294286D02*
X12723119Y-10303810D01*
X12723119Y-10303810D02*
X12742167Y-10313333D01*
X12742167Y-10313333D02*
X12780262Y-10313333D01*
X12780262Y-10313333D02*
X12799310Y-10303810D01*
X12799310Y-10303810D02*
X12808833Y-10294286D01*
X12808833Y-10294286D02*
X12818357Y-10275238D01*
X12999310Y-10189524D02*
X12904072Y-10189524D01*
X12904072Y-10189524D02*
X12894548Y-10284762D01*
X12894548Y-10284762D02*
X12904072Y-10275238D01*
X12904072Y-10275238D02*
X12923119Y-10265714D01*
X12923119Y-10265714D02*
X12970738Y-10265714D01*
X12970738Y-10265714D02*
X12989786Y-10275238D01*
X12989786Y-10275238D02*
X12999310Y-10284762D01*
X12999310Y-10284762D02*
X13008833Y-10303810D01*
X13008833Y-10303810D02*
X13008833Y-10351429D01*
X13008833Y-10351429D02*
X12999310Y-10370476D01*
X12999310Y-10370476D02*
X12989786Y-10380000D01*
X12989786Y-10380000D02*
X12970738Y-10389524D01*
X12970738Y-10389524D02*
X12923119Y-10389524D01*
X12923119Y-10389524D02*
X12904072Y-10380000D01*
X12904072Y-10380000D02*
X12894548Y-10370476D01*
X13246929Y-10389524D02*
X13246929Y-10189524D01*
X13332643Y-10389524D02*
X13332643Y-10284762D01*
X13332643Y-10284762D02*
X13323119Y-10265714D01*
X13323119Y-10265714D02*
X13304072Y-10256190D01*
X13304072Y-10256190D02*
X13275500Y-10256190D01*
X13275500Y-10256190D02*
X13256453Y-10265714D01*
X13256453Y-10265714D02*
X13246929Y-10275238D01*
X13456453Y-10389524D02*
X13437405Y-10380000D01*
X13437405Y-10380000D02*
X13427881Y-10370476D01*
X13427881Y-10370476D02*
X13418357Y-10351429D01*
X13418357Y-10351429D02*
X13418357Y-10294286D01*
X13418357Y-10294286D02*
X13427881Y-10275238D01*
X13427881Y-10275238D02*
X13437405Y-10265714D01*
X13437405Y-10265714D02*
X13456453Y-10256190D01*
X13456453Y-10256190D02*
X13485024Y-10256190D01*
X13485024Y-10256190D02*
X13504072Y-10265714D01*
X13504072Y-10265714D02*
X13513595Y-10275238D01*
X13513595Y-10275238D02*
X13523119Y-10294286D01*
X13523119Y-10294286D02*
X13523119Y-10351429D01*
X13523119Y-10351429D02*
X13513595Y-10370476D01*
X13513595Y-10370476D02*
X13504072Y-10380000D01*
X13504072Y-10380000D02*
X13485024Y-10389524D01*
X13485024Y-10389524D02*
X13456453Y-10389524D01*
X13637405Y-10389524D02*
X13618357Y-10380000D01*
X13618357Y-10380000D02*
X13608834Y-10360952D01*
X13608834Y-10360952D02*
X13608834Y-10189524D01*
X13789786Y-10380000D02*
X13770738Y-10389524D01*
X13770738Y-10389524D02*
X13732643Y-10389524D01*
X13732643Y-10389524D02*
X13713595Y-10380000D01*
X13713595Y-10380000D02*
X13704072Y-10360952D01*
X13704072Y-10360952D02*
X13704072Y-10284762D01*
X13704072Y-10284762D02*
X13713595Y-10265714D01*
X13713595Y-10265714D02*
X13732643Y-10256190D01*
X13732643Y-10256190D02*
X13770738Y-10256190D01*
X13770738Y-10256190D02*
X13789786Y-10265714D01*
X13789786Y-10265714D02*
X13799310Y-10284762D01*
X13799310Y-10284762D02*
X13799310Y-10303810D01*
X13799310Y-10303810D02*
X13704072Y-10322857D01*
X13875500Y-10380000D02*
X13894548Y-10389524D01*
X13894548Y-10389524D02*
X13932643Y-10389524D01*
X13932643Y-10389524D02*
X13951691Y-10380000D01*
X13951691Y-10380000D02*
X13961215Y-10360952D01*
X13961215Y-10360952D02*
X13961215Y-10351429D01*
X13961215Y-10351429D02*
X13951691Y-10332381D01*
X13951691Y-10332381D02*
X13932643Y-10322857D01*
X13932643Y-10322857D02*
X13904072Y-10322857D01*
X13904072Y-10322857D02*
X13885024Y-10313333D01*
X13885024Y-10313333D02*
X13875500Y-10294286D01*
X13875500Y-10294286D02*
X13875500Y-10284762D01*
X13875500Y-10284762D02*
X13885024Y-10265714D01*
X13885024Y-10265714D02*
X13904072Y-10256190D01*
X13904072Y-10256190D02*
X13932643Y-10256190D01*
X13932643Y-10256190D02*
X13951691Y-10265714D01*
X14027881Y-10465714D02*
X14037405Y-10456190D01*
X14037405Y-10456190D02*
X14056453Y-10427619D01*
X14056453Y-10427619D02*
X14065976Y-10408571D01*
X14065976Y-10408571D02*
X14075500Y-10380000D01*
X14075500Y-10380000D02*
X14085024Y-10332381D01*
X14085024Y-10332381D02*
X14085024Y-10294286D01*
X14085024Y-10294286D02*
X14075500Y-10246667D01*
X14075500Y-10246667D02*
X14065976Y-10218095D01*
X14065976Y-10218095D02*
X14056453Y-10199048D01*
X14056453Y-10199048D02*
X14037405Y-10170476D01*
X14037405Y-10170476D02*
X14027881Y-10160952D01*
D13*
X9075500Y-10561000D02*
G75*
G03*
X9075500Y-10561000I-40000J0D01*
G01*
D11*
X9361214Y-10453524D02*
X9380262Y-10453524D01*
X9380262Y-10453524D02*
X9399309Y-10463048D01*
X9399309Y-10463048D02*
X9408833Y-10472571D01*
X9408833Y-10472571D02*
X9418357Y-10491619D01*
X9418357Y-10491619D02*
X9427881Y-10529714D01*
X9427881Y-10529714D02*
X9427881Y-10577333D01*
X9427881Y-10577333D02*
X9418357Y-10615429D01*
X9418357Y-10615429D02*
X9408833Y-10634476D01*
X9408833Y-10634476D02*
X9399309Y-10644000D01*
X9399309Y-10644000D02*
X9380262Y-10653524D01*
X9380262Y-10653524D02*
X9361214Y-10653524D01*
X9361214Y-10653524D02*
X9342167Y-10644000D01*
X9342167Y-10644000D02*
X9332643Y-10634476D01*
X9332643Y-10634476D02*
X9323119Y-10615429D01*
X9323119Y-10615429D02*
X9313595Y-10577333D01*
X9313595Y-10577333D02*
X9313595Y-10529714D01*
X9313595Y-10529714D02*
X9323119Y-10491619D01*
X9323119Y-10491619D02*
X9332643Y-10472571D01*
X9332643Y-10472571D02*
X9342167Y-10463048D01*
X9342167Y-10463048D02*
X9361214Y-10453524D01*
X9513595Y-10634476D02*
X9523119Y-10644000D01*
X9523119Y-10644000D02*
X9513595Y-10653524D01*
X9513595Y-10653524D02*
X9504071Y-10644000D01*
X9504071Y-10644000D02*
X9513595Y-10634476D01*
X9513595Y-10634476D02*
X9513595Y-10653524D01*
X9637405Y-10539238D02*
X9618357Y-10529714D01*
X9618357Y-10529714D02*
X9608833Y-10520190D01*
X9608833Y-10520190D02*
X9599309Y-10501143D01*
X9599309Y-10501143D02*
X9599309Y-10491619D01*
X9599309Y-10491619D02*
X9608833Y-10472571D01*
X9608833Y-10472571D02*
X9618357Y-10463048D01*
X9618357Y-10463048D02*
X9637405Y-10453524D01*
X9637405Y-10453524D02*
X9675500Y-10453524D01*
X9675500Y-10453524D02*
X9694548Y-10463048D01*
X9694548Y-10463048D02*
X9704071Y-10472571D01*
X9704071Y-10472571D02*
X9713595Y-10491619D01*
X9713595Y-10491619D02*
X9713595Y-10501143D01*
X9713595Y-10501143D02*
X9704071Y-10520190D01*
X9704071Y-10520190D02*
X9694548Y-10529714D01*
X9694548Y-10529714D02*
X9675500Y-10539238D01*
X9675500Y-10539238D02*
X9637405Y-10539238D01*
X9637405Y-10539238D02*
X9618357Y-10548762D01*
X9618357Y-10548762D02*
X9608833Y-10558286D01*
X9608833Y-10558286D02*
X9599309Y-10577333D01*
X9599309Y-10577333D02*
X9599309Y-10615429D01*
X9599309Y-10615429D02*
X9608833Y-10634476D01*
X9608833Y-10634476D02*
X9618357Y-10644000D01*
X9618357Y-10644000D02*
X9637405Y-10653524D01*
X9637405Y-10653524D02*
X9675500Y-10653524D01*
X9675500Y-10653524D02*
X9694548Y-10644000D01*
X9694548Y-10644000D02*
X9704071Y-10634476D01*
X9704071Y-10634476D02*
X9713595Y-10615429D01*
X9713595Y-10615429D02*
X9713595Y-10577333D01*
X9713595Y-10577333D02*
X9704071Y-10558286D01*
X9704071Y-10558286D02*
X9694548Y-10548762D01*
X9694548Y-10548762D02*
X9675500Y-10539238D01*
X9837405Y-10453524D02*
X9856452Y-10453524D01*
X9856452Y-10453524D02*
X9875500Y-10463048D01*
X9875500Y-10463048D02*
X9885024Y-10472571D01*
X9885024Y-10472571D02*
X9894548Y-10491619D01*
X9894548Y-10491619D02*
X9904071Y-10529714D01*
X9904071Y-10529714D02*
X9904071Y-10577333D01*
X9904071Y-10577333D02*
X9894548Y-10615429D01*
X9894548Y-10615429D02*
X9885024Y-10634476D01*
X9885024Y-10634476D02*
X9875500Y-10644000D01*
X9875500Y-10644000D02*
X9856452Y-10653524D01*
X9856452Y-10653524D02*
X9837405Y-10653524D01*
X9837405Y-10653524D02*
X9818357Y-10644000D01*
X9818357Y-10644000D02*
X9808833Y-10634476D01*
X9808833Y-10634476D02*
X9799309Y-10615429D01*
X9799309Y-10615429D02*
X9789786Y-10577333D01*
X9789786Y-10577333D02*
X9789786Y-10529714D01*
X9789786Y-10529714D02*
X9799309Y-10491619D01*
X9799309Y-10491619D02*
X9808833Y-10472571D01*
X9808833Y-10472571D02*
X9818357Y-10463048D01*
X9818357Y-10463048D02*
X9837405Y-10453524D01*
X10027881Y-10453524D02*
X10046929Y-10453524D01*
X10046929Y-10453524D02*
X10065976Y-10463048D01*
X10065976Y-10463048D02*
X10075500Y-10472571D01*
X10075500Y-10472571D02*
X10085024Y-10491619D01*
X10085024Y-10491619D02*
X10094548Y-10529714D01*
X10094548Y-10529714D02*
X10094548Y-10577333D01*
X10094548Y-10577333D02*
X10085024Y-10615429D01*
X10085024Y-10615429D02*
X10075500Y-10634476D01*
X10075500Y-10634476D02*
X10065976Y-10644000D01*
X10065976Y-10644000D02*
X10046929Y-10653524D01*
X10046929Y-10653524D02*
X10027881Y-10653524D01*
X10027881Y-10653524D02*
X10008833Y-10644000D01*
X10008833Y-10644000D02*
X9999309Y-10634476D01*
X9999309Y-10634476D02*
X9989786Y-10615429D01*
X9989786Y-10615429D02*
X9980262Y-10577333D01*
X9980262Y-10577333D02*
X9980262Y-10529714D01*
X9980262Y-10529714D02*
X9989786Y-10491619D01*
X9989786Y-10491619D02*
X9999309Y-10472571D01*
X9999309Y-10472571D02*
X10008833Y-10463048D01*
X10008833Y-10463048D02*
X10027881Y-10453524D01*
X10180262Y-10653524D02*
X10180262Y-10520190D01*
X10180262Y-10539238D02*
X10189786Y-10529714D01*
X10189786Y-10529714D02*
X10208833Y-10520190D01*
X10208833Y-10520190D02*
X10237405Y-10520190D01*
X10237405Y-10520190D02*
X10256452Y-10529714D01*
X10256452Y-10529714D02*
X10265976Y-10548762D01*
X10265976Y-10548762D02*
X10265976Y-10653524D01*
X10265976Y-10548762D02*
X10275500Y-10529714D01*
X10275500Y-10529714D02*
X10294548Y-10520190D01*
X10294548Y-10520190D02*
X10323119Y-10520190D01*
X10323119Y-10520190D02*
X10342167Y-10529714D01*
X10342167Y-10529714D02*
X10351690Y-10548762D01*
X10351690Y-10548762D02*
X10351690Y-10653524D01*
X10446929Y-10653524D02*
X10446929Y-10520190D01*
X10446929Y-10539238D02*
X10456452Y-10529714D01*
X10456452Y-10529714D02*
X10475500Y-10520190D01*
X10475500Y-10520190D02*
X10504071Y-10520190D01*
X10504071Y-10520190D02*
X10523119Y-10529714D01*
X10523119Y-10529714D02*
X10532643Y-10548762D01*
X10532643Y-10548762D02*
X10532643Y-10653524D01*
X10532643Y-10548762D02*
X10542167Y-10529714D01*
X10542167Y-10529714D02*
X10561214Y-10520190D01*
X10561214Y-10520190D02*
X10589786Y-10520190D01*
X10589786Y-10520190D02*
X10608833Y-10529714D01*
X10608833Y-10529714D02*
X10618357Y-10548762D01*
X10618357Y-10548762D02*
X10618357Y-10653524D01*
X11008833Y-10444000D02*
X10837405Y-10701143D01*
X11265976Y-10453524D02*
X11285024Y-10453524D01*
X11285024Y-10453524D02*
X11304071Y-10463048D01*
X11304071Y-10463048D02*
X11313595Y-10472571D01*
X11313595Y-10472571D02*
X11323119Y-10491619D01*
X11323119Y-10491619D02*
X11332643Y-10529714D01*
X11332643Y-10529714D02*
X11332643Y-10577333D01*
X11332643Y-10577333D02*
X11323119Y-10615429D01*
X11323119Y-10615429D02*
X11313595Y-10634476D01*
X11313595Y-10634476D02*
X11304071Y-10644000D01*
X11304071Y-10644000D02*
X11285024Y-10653524D01*
X11285024Y-10653524D02*
X11265976Y-10653524D01*
X11265976Y-10653524D02*
X11246929Y-10644000D01*
X11246929Y-10644000D02*
X11237405Y-10634476D01*
X11237405Y-10634476D02*
X11227881Y-10615429D01*
X11227881Y-10615429D02*
X11218357Y-10577333D01*
X11218357Y-10577333D02*
X11218357Y-10529714D01*
X11218357Y-10529714D02*
X11227881Y-10491619D01*
X11227881Y-10491619D02*
X11237405Y-10472571D01*
X11237405Y-10472571D02*
X11246929Y-10463048D01*
X11246929Y-10463048D02*
X11265976Y-10453524D01*
X11418357Y-10634476D02*
X11427881Y-10644000D01*
X11427881Y-10644000D02*
X11418357Y-10653524D01*
X11418357Y-10653524D02*
X11408833Y-10644000D01*
X11408833Y-10644000D02*
X11418357Y-10634476D01*
X11418357Y-10634476D02*
X11418357Y-10653524D01*
X11551690Y-10453524D02*
X11570738Y-10453524D01*
X11570738Y-10453524D02*
X11589786Y-10463048D01*
X11589786Y-10463048D02*
X11599310Y-10472571D01*
X11599310Y-10472571D02*
X11608833Y-10491619D01*
X11608833Y-10491619D02*
X11618357Y-10529714D01*
X11618357Y-10529714D02*
X11618357Y-10577333D01*
X11618357Y-10577333D02*
X11608833Y-10615429D01*
X11608833Y-10615429D02*
X11599310Y-10634476D01*
X11599310Y-10634476D02*
X11589786Y-10644000D01*
X11589786Y-10644000D02*
X11570738Y-10653524D01*
X11570738Y-10653524D02*
X11551690Y-10653524D01*
X11551690Y-10653524D02*
X11532643Y-10644000D01*
X11532643Y-10644000D02*
X11523119Y-10634476D01*
X11523119Y-10634476D02*
X11513595Y-10615429D01*
X11513595Y-10615429D02*
X11504071Y-10577333D01*
X11504071Y-10577333D02*
X11504071Y-10529714D01*
X11504071Y-10529714D02*
X11513595Y-10491619D01*
X11513595Y-10491619D02*
X11523119Y-10472571D01*
X11523119Y-10472571D02*
X11532643Y-10463048D01*
X11532643Y-10463048D02*
X11551690Y-10453524D01*
X11685024Y-10453524D02*
X11808833Y-10453524D01*
X11808833Y-10453524D02*
X11742167Y-10529714D01*
X11742167Y-10529714D02*
X11770738Y-10529714D01*
X11770738Y-10529714D02*
X11789786Y-10539238D01*
X11789786Y-10539238D02*
X11799310Y-10548762D01*
X11799310Y-10548762D02*
X11808833Y-10567810D01*
X11808833Y-10567810D02*
X11808833Y-10615429D01*
X11808833Y-10615429D02*
X11799310Y-10634476D01*
X11799310Y-10634476D02*
X11789786Y-10644000D01*
X11789786Y-10644000D02*
X11770738Y-10653524D01*
X11770738Y-10653524D02*
X11713595Y-10653524D01*
X11713595Y-10653524D02*
X11694548Y-10644000D01*
X11694548Y-10644000D02*
X11685024Y-10634476D01*
X11999310Y-10653524D02*
X11885024Y-10653524D01*
X11942167Y-10653524D02*
X11942167Y-10453524D01*
X11942167Y-10453524D02*
X11923119Y-10482095D01*
X11923119Y-10482095D02*
X11904071Y-10501143D01*
X11904071Y-10501143D02*
X11885024Y-10510667D01*
X12180262Y-10453524D02*
X12085024Y-10453524D01*
X12085024Y-10453524D02*
X12075500Y-10548762D01*
X12075500Y-10548762D02*
X12085024Y-10539238D01*
X12085024Y-10539238D02*
X12104071Y-10529714D01*
X12104071Y-10529714D02*
X12151691Y-10529714D01*
X12151691Y-10529714D02*
X12170738Y-10539238D01*
X12170738Y-10539238D02*
X12180262Y-10548762D01*
X12180262Y-10548762D02*
X12189786Y-10567810D01*
X12189786Y-10567810D02*
X12189786Y-10615429D01*
X12189786Y-10615429D02*
X12180262Y-10634476D01*
X12180262Y-10634476D02*
X12170738Y-10644000D01*
X12170738Y-10644000D02*
X12151691Y-10653524D01*
X12151691Y-10653524D02*
X12104071Y-10653524D01*
X12104071Y-10653524D02*
X12085024Y-10644000D01*
X12085024Y-10644000D02*
X12075500Y-10634476D01*
X12265976Y-10453524D02*
X12265976Y-10491619D01*
X12342167Y-10453524D02*
X12342167Y-10491619D01*
X12637405Y-10729714D02*
X12627881Y-10720190D01*
X12627881Y-10720190D02*
X12608833Y-10691619D01*
X12608833Y-10691619D02*
X12599310Y-10672571D01*
X12599310Y-10672571D02*
X12589786Y-10644000D01*
X12589786Y-10644000D02*
X12580262Y-10596381D01*
X12580262Y-10596381D02*
X12580262Y-10558286D01*
X12580262Y-10558286D02*
X12589786Y-10510667D01*
X12589786Y-10510667D02*
X12599310Y-10482095D01*
X12599310Y-10482095D02*
X12608833Y-10463048D01*
X12608833Y-10463048D02*
X12627881Y-10434476D01*
X12627881Y-10434476D02*
X12637405Y-10424952D01*
X12751691Y-10453524D02*
X12770738Y-10453524D01*
X12770738Y-10453524D02*
X12789786Y-10463048D01*
X12789786Y-10463048D02*
X12799310Y-10472571D01*
X12799310Y-10472571D02*
X12808833Y-10491619D01*
X12808833Y-10491619D02*
X12818357Y-10529714D01*
X12818357Y-10529714D02*
X12818357Y-10577333D01*
X12818357Y-10577333D02*
X12808833Y-10615429D01*
X12808833Y-10615429D02*
X12799310Y-10634476D01*
X12799310Y-10634476D02*
X12789786Y-10644000D01*
X12789786Y-10644000D02*
X12770738Y-10653524D01*
X12770738Y-10653524D02*
X12751691Y-10653524D01*
X12751691Y-10653524D02*
X12732643Y-10644000D01*
X12732643Y-10644000D02*
X12723119Y-10634476D01*
X12723119Y-10634476D02*
X12713595Y-10615429D01*
X12713595Y-10615429D02*
X12704072Y-10577333D01*
X12704072Y-10577333D02*
X12704072Y-10529714D01*
X12704072Y-10529714D02*
X12713595Y-10491619D01*
X12713595Y-10491619D02*
X12723119Y-10472571D01*
X12723119Y-10472571D02*
X12732643Y-10463048D01*
X12732643Y-10463048D02*
X12751691Y-10453524D01*
X13056453Y-10653524D02*
X13056453Y-10453524D01*
X13142167Y-10653524D02*
X13142167Y-10548762D01*
X13142167Y-10548762D02*
X13132643Y-10529714D01*
X13132643Y-10529714D02*
X13113595Y-10520190D01*
X13113595Y-10520190D02*
X13085024Y-10520190D01*
X13085024Y-10520190D02*
X13065976Y-10529714D01*
X13065976Y-10529714D02*
X13056453Y-10539238D01*
X13265976Y-10653524D02*
X13246929Y-10644000D01*
X13246929Y-10644000D02*
X13237405Y-10634476D01*
X13237405Y-10634476D02*
X13227881Y-10615429D01*
X13227881Y-10615429D02*
X13227881Y-10558286D01*
X13227881Y-10558286D02*
X13237405Y-10539238D01*
X13237405Y-10539238D02*
X13246929Y-10529714D01*
X13246929Y-10529714D02*
X13265976Y-10520190D01*
X13265976Y-10520190D02*
X13294548Y-10520190D01*
X13294548Y-10520190D02*
X13313595Y-10529714D01*
X13313595Y-10529714D02*
X13323119Y-10539238D01*
X13323119Y-10539238D02*
X13332643Y-10558286D01*
X13332643Y-10558286D02*
X13332643Y-10615429D01*
X13332643Y-10615429D02*
X13323119Y-10634476D01*
X13323119Y-10634476D02*
X13313595Y-10644000D01*
X13313595Y-10644000D02*
X13294548Y-10653524D01*
X13294548Y-10653524D02*
X13265976Y-10653524D01*
X13446929Y-10653524D02*
X13427881Y-10644000D01*
X13427881Y-10644000D02*
X13418357Y-10624952D01*
X13418357Y-10624952D02*
X13418357Y-10453524D01*
X13599310Y-10644000D02*
X13580262Y-10653524D01*
X13580262Y-10653524D02*
X13542167Y-10653524D01*
X13542167Y-10653524D02*
X13523119Y-10644000D01*
X13523119Y-10644000D02*
X13513595Y-10624952D01*
X13513595Y-10624952D02*
X13513595Y-10548762D01*
X13513595Y-10548762D02*
X13523119Y-10529714D01*
X13523119Y-10529714D02*
X13542167Y-10520190D01*
X13542167Y-10520190D02*
X13580262Y-10520190D01*
X13580262Y-10520190D02*
X13599310Y-10529714D01*
X13599310Y-10529714D02*
X13608834Y-10548762D01*
X13608834Y-10548762D02*
X13608834Y-10567810D01*
X13608834Y-10567810D02*
X13513595Y-10586857D01*
X13685024Y-10644000D02*
X13704072Y-10653524D01*
X13704072Y-10653524D02*
X13742167Y-10653524D01*
X13742167Y-10653524D02*
X13761215Y-10644000D01*
X13761215Y-10644000D02*
X13770738Y-10624952D01*
X13770738Y-10624952D02*
X13770738Y-10615429D01*
X13770738Y-10615429D02*
X13761215Y-10596381D01*
X13761215Y-10596381D02*
X13742167Y-10586857D01*
X13742167Y-10586857D02*
X13713595Y-10586857D01*
X13713595Y-10586857D02*
X13694548Y-10577333D01*
X13694548Y-10577333D02*
X13685024Y-10558286D01*
X13685024Y-10558286D02*
X13685024Y-10548762D01*
X13685024Y-10548762D02*
X13694548Y-10529714D01*
X13694548Y-10529714D02*
X13713595Y-10520190D01*
X13713595Y-10520190D02*
X13742167Y-10520190D01*
X13742167Y-10520190D02*
X13761215Y-10529714D01*
X14008834Y-10577333D02*
X14161215Y-10577333D01*
X14085024Y-10653524D02*
X14085024Y-10501143D01*
X14399310Y-10472571D02*
X14408834Y-10463048D01*
X14408834Y-10463048D02*
X14427881Y-10453524D01*
X14427881Y-10453524D02*
X14475500Y-10453524D01*
X14475500Y-10453524D02*
X14494548Y-10463048D01*
X14494548Y-10463048D02*
X14504072Y-10472571D01*
X14504072Y-10472571D02*
X14513596Y-10491619D01*
X14513596Y-10491619D02*
X14513596Y-10510667D01*
X14513596Y-10510667D02*
X14504072Y-10539238D01*
X14504072Y-10539238D02*
X14389786Y-10653524D01*
X14389786Y-10653524D02*
X14513596Y-10653524D01*
X14742167Y-10644000D02*
X14761215Y-10653524D01*
X14761215Y-10653524D02*
X14799310Y-10653524D01*
X14799310Y-10653524D02*
X14818358Y-10644000D01*
X14818358Y-10644000D02*
X14827881Y-10624952D01*
X14827881Y-10624952D02*
X14827881Y-10615429D01*
X14827881Y-10615429D02*
X14818358Y-10596381D01*
X14818358Y-10596381D02*
X14799310Y-10586857D01*
X14799310Y-10586857D02*
X14770738Y-10586857D01*
X14770738Y-10586857D02*
X14751691Y-10577333D01*
X14751691Y-10577333D02*
X14742167Y-10558286D01*
X14742167Y-10558286D02*
X14742167Y-10548762D01*
X14742167Y-10548762D02*
X14751691Y-10529714D01*
X14751691Y-10529714D02*
X14770738Y-10520190D01*
X14770738Y-10520190D02*
X14799310Y-10520190D01*
X14799310Y-10520190D02*
X14818358Y-10529714D01*
X14942167Y-10653524D02*
X14923119Y-10644000D01*
X14923119Y-10644000D02*
X14913596Y-10624952D01*
X14913596Y-10624952D02*
X14913596Y-10453524D01*
X15046929Y-10653524D02*
X15027881Y-10644000D01*
X15027881Y-10644000D02*
X15018358Y-10634476D01*
X15018358Y-10634476D02*
X15008834Y-10615429D01*
X15008834Y-10615429D02*
X15008834Y-10558286D01*
X15008834Y-10558286D02*
X15018358Y-10539238D01*
X15018358Y-10539238D02*
X15027881Y-10529714D01*
X15027881Y-10529714D02*
X15046929Y-10520190D01*
X15046929Y-10520190D02*
X15075500Y-10520190D01*
X15075500Y-10520190D02*
X15094548Y-10529714D01*
X15094548Y-10529714D02*
X15104072Y-10539238D01*
X15104072Y-10539238D02*
X15113596Y-10558286D01*
X15113596Y-10558286D02*
X15113596Y-10615429D01*
X15113596Y-10615429D02*
X15104072Y-10634476D01*
X15104072Y-10634476D02*
X15094548Y-10644000D01*
X15094548Y-10644000D02*
X15075500Y-10653524D01*
X15075500Y-10653524D02*
X15046929Y-10653524D01*
X15170739Y-10520190D02*
X15246929Y-10520190D01*
X15199310Y-10453524D02*
X15199310Y-10624952D01*
X15199310Y-10624952D02*
X15208834Y-10644000D01*
X15208834Y-10644000D02*
X15227881Y-10653524D01*
X15227881Y-10653524D02*
X15246929Y-10653524D01*
X15304072Y-10644000D02*
X15323119Y-10653524D01*
X15323119Y-10653524D02*
X15361215Y-10653524D01*
X15361215Y-10653524D02*
X15380262Y-10644000D01*
X15380262Y-10644000D02*
X15389786Y-10624952D01*
X15389786Y-10624952D02*
X15389786Y-10615429D01*
X15389786Y-10615429D02*
X15380262Y-10596381D01*
X15380262Y-10596381D02*
X15361215Y-10586857D01*
X15361215Y-10586857D02*
X15332643Y-10586857D01*
X15332643Y-10586857D02*
X15313596Y-10577333D01*
X15313596Y-10577333D02*
X15304072Y-10558286D01*
X15304072Y-10558286D02*
X15304072Y-10548762D01*
X15304072Y-10548762D02*
X15313596Y-10529714D01*
X15313596Y-10529714D02*
X15332643Y-10520190D01*
X15332643Y-10520190D02*
X15361215Y-10520190D01*
X15361215Y-10520190D02*
X15380262Y-10529714D01*
X15456453Y-10729714D02*
X15465977Y-10720190D01*
X15465977Y-10720190D02*
X15485024Y-10691619D01*
X15485024Y-10691619D02*
X15494548Y-10672571D01*
X15494548Y-10672571D02*
X15504072Y-10644000D01*
X15504072Y-10644000D02*
X15513596Y-10596381D01*
X15513596Y-10596381D02*
X15513596Y-10558286D01*
X15513596Y-10558286D02*
X15504072Y-10510667D01*
X15504072Y-10510667D02*
X15494548Y-10482095D01*
X15494548Y-10482095D02*
X15485024Y-10463048D01*
X15485024Y-10463048D02*
X15465977Y-10434476D01*
X15465977Y-10434476D02*
X15456453Y-10424952D01*
D14*
X9030500Y-10780000D02*
X9030500Y-10870000D01*
X8985500Y-10825000D02*
X9075500Y-10825000D01*
D11*
X9361214Y-10717524D02*
X9380262Y-10717524D01*
X9380262Y-10717524D02*
X9399309Y-10727048D01*
X9399309Y-10727048D02*
X9408833Y-10736571D01*
X9408833Y-10736571D02*
X9418357Y-10755619D01*
X9418357Y-10755619D02*
X9427881Y-10793714D01*
X9427881Y-10793714D02*
X9427881Y-10841333D01*
X9427881Y-10841333D02*
X9418357Y-10879429D01*
X9418357Y-10879429D02*
X9408833Y-10898476D01*
X9408833Y-10898476D02*
X9399309Y-10908000D01*
X9399309Y-10908000D02*
X9380262Y-10917524D01*
X9380262Y-10917524D02*
X9361214Y-10917524D01*
X9361214Y-10917524D02*
X9342167Y-10908000D01*
X9342167Y-10908000D02*
X9332643Y-10898476D01*
X9332643Y-10898476D02*
X9323119Y-10879429D01*
X9323119Y-10879429D02*
X9313595Y-10841333D01*
X9313595Y-10841333D02*
X9313595Y-10793714D01*
X9313595Y-10793714D02*
X9323119Y-10755619D01*
X9323119Y-10755619D02*
X9332643Y-10736571D01*
X9332643Y-10736571D02*
X9342167Y-10727048D01*
X9342167Y-10727048D02*
X9361214Y-10717524D01*
X9513595Y-10898476D02*
X9523119Y-10908000D01*
X9523119Y-10908000D02*
X9513595Y-10917524D01*
X9513595Y-10917524D02*
X9504071Y-10908000D01*
X9504071Y-10908000D02*
X9513595Y-10898476D01*
X9513595Y-10898476D02*
X9513595Y-10917524D01*
X9618357Y-10917524D02*
X9656452Y-10917524D01*
X9656452Y-10917524D02*
X9675500Y-10908000D01*
X9675500Y-10908000D02*
X9685024Y-10898476D01*
X9685024Y-10898476D02*
X9704071Y-10869905D01*
X9704071Y-10869905D02*
X9713595Y-10831810D01*
X9713595Y-10831810D02*
X9713595Y-10755619D01*
X9713595Y-10755619D02*
X9704071Y-10736571D01*
X9704071Y-10736571D02*
X9694548Y-10727048D01*
X9694548Y-10727048D02*
X9675500Y-10717524D01*
X9675500Y-10717524D02*
X9637405Y-10717524D01*
X9637405Y-10717524D02*
X9618357Y-10727048D01*
X9618357Y-10727048D02*
X9608833Y-10736571D01*
X9608833Y-10736571D02*
X9599309Y-10755619D01*
X9599309Y-10755619D02*
X9599309Y-10803238D01*
X9599309Y-10803238D02*
X9608833Y-10822286D01*
X9608833Y-10822286D02*
X9618357Y-10831810D01*
X9618357Y-10831810D02*
X9637405Y-10841333D01*
X9637405Y-10841333D02*
X9675500Y-10841333D01*
X9675500Y-10841333D02*
X9694548Y-10831810D01*
X9694548Y-10831810D02*
X9704071Y-10822286D01*
X9704071Y-10822286D02*
X9713595Y-10803238D01*
X9837405Y-10717524D02*
X9856452Y-10717524D01*
X9856452Y-10717524D02*
X9875500Y-10727048D01*
X9875500Y-10727048D02*
X9885024Y-10736571D01*
X9885024Y-10736571D02*
X9894548Y-10755619D01*
X9894548Y-10755619D02*
X9904071Y-10793714D01*
X9904071Y-10793714D02*
X9904071Y-10841333D01*
X9904071Y-10841333D02*
X9894548Y-10879429D01*
X9894548Y-10879429D02*
X9885024Y-10898476D01*
X9885024Y-10898476D02*
X9875500Y-10908000D01*
X9875500Y-10908000D02*
X9856452Y-10917524D01*
X9856452Y-10917524D02*
X9837405Y-10917524D01*
X9837405Y-10917524D02*
X9818357Y-10908000D01*
X9818357Y-10908000D02*
X9808833Y-10898476D01*
X9808833Y-10898476D02*
X9799309Y-10879429D01*
X9799309Y-10879429D02*
X9789786Y-10841333D01*
X9789786Y-10841333D02*
X9789786Y-10793714D01*
X9789786Y-10793714D02*
X9799309Y-10755619D01*
X9799309Y-10755619D02*
X9808833Y-10736571D01*
X9808833Y-10736571D02*
X9818357Y-10727048D01*
X9818357Y-10727048D02*
X9837405Y-10717524D01*
X10027881Y-10717524D02*
X10046929Y-10717524D01*
X10046929Y-10717524D02*
X10065976Y-10727048D01*
X10065976Y-10727048D02*
X10075500Y-10736571D01*
X10075500Y-10736571D02*
X10085024Y-10755619D01*
X10085024Y-10755619D02*
X10094548Y-10793714D01*
X10094548Y-10793714D02*
X10094548Y-10841333D01*
X10094548Y-10841333D02*
X10085024Y-10879429D01*
X10085024Y-10879429D02*
X10075500Y-10898476D01*
X10075500Y-10898476D02*
X10065976Y-10908000D01*
X10065976Y-10908000D02*
X10046929Y-10917524D01*
X10046929Y-10917524D02*
X10027881Y-10917524D01*
X10027881Y-10917524D02*
X10008833Y-10908000D01*
X10008833Y-10908000D02*
X9999309Y-10898476D01*
X9999309Y-10898476D02*
X9989786Y-10879429D01*
X9989786Y-10879429D02*
X9980262Y-10841333D01*
X9980262Y-10841333D02*
X9980262Y-10793714D01*
X9980262Y-10793714D02*
X9989786Y-10755619D01*
X9989786Y-10755619D02*
X9999309Y-10736571D01*
X9999309Y-10736571D02*
X10008833Y-10727048D01*
X10008833Y-10727048D02*
X10027881Y-10717524D01*
X10180262Y-10917524D02*
X10180262Y-10784190D01*
X10180262Y-10803238D02*
X10189786Y-10793714D01*
X10189786Y-10793714D02*
X10208833Y-10784190D01*
X10208833Y-10784190D02*
X10237405Y-10784190D01*
X10237405Y-10784190D02*
X10256452Y-10793714D01*
X10256452Y-10793714D02*
X10265976Y-10812762D01*
X10265976Y-10812762D02*
X10265976Y-10917524D01*
X10265976Y-10812762D02*
X10275500Y-10793714D01*
X10275500Y-10793714D02*
X10294548Y-10784190D01*
X10294548Y-10784190D02*
X10323119Y-10784190D01*
X10323119Y-10784190D02*
X10342167Y-10793714D01*
X10342167Y-10793714D02*
X10351690Y-10812762D01*
X10351690Y-10812762D02*
X10351690Y-10917524D01*
X10446929Y-10917524D02*
X10446929Y-10784190D01*
X10446929Y-10803238D02*
X10456452Y-10793714D01*
X10456452Y-10793714D02*
X10475500Y-10784190D01*
X10475500Y-10784190D02*
X10504071Y-10784190D01*
X10504071Y-10784190D02*
X10523119Y-10793714D01*
X10523119Y-10793714D02*
X10532643Y-10812762D01*
X10532643Y-10812762D02*
X10532643Y-10917524D01*
X10532643Y-10812762D02*
X10542167Y-10793714D01*
X10542167Y-10793714D02*
X10561214Y-10784190D01*
X10561214Y-10784190D02*
X10589786Y-10784190D01*
X10589786Y-10784190D02*
X10608833Y-10793714D01*
X10608833Y-10793714D02*
X10618357Y-10812762D01*
X10618357Y-10812762D02*
X10618357Y-10917524D01*
X11008833Y-10708000D02*
X10837405Y-10965143D01*
X11265976Y-10717524D02*
X11285024Y-10717524D01*
X11285024Y-10717524D02*
X11304071Y-10727048D01*
X11304071Y-10727048D02*
X11313595Y-10736571D01*
X11313595Y-10736571D02*
X11323119Y-10755619D01*
X11323119Y-10755619D02*
X11332643Y-10793714D01*
X11332643Y-10793714D02*
X11332643Y-10841333D01*
X11332643Y-10841333D02*
X11323119Y-10879429D01*
X11323119Y-10879429D02*
X11313595Y-10898476D01*
X11313595Y-10898476D02*
X11304071Y-10908000D01*
X11304071Y-10908000D02*
X11285024Y-10917524D01*
X11285024Y-10917524D02*
X11265976Y-10917524D01*
X11265976Y-10917524D02*
X11246929Y-10908000D01*
X11246929Y-10908000D02*
X11237405Y-10898476D01*
X11237405Y-10898476D02*
X11227881Y-10879429D01*
X11227881Y-10879429D02*
X11218357Y-10841333D01*
X11218357Y-10841333D02*
X11218357Y-10793714D01*
X11218357Y-10793714D02*
X11227881Y-10755619D01*
X11227881Y-10755619D02*
X11237405Y-10736571D01*
X11237405Y-10736571D02*
X11246929Y-10727048D01*
X11246929Y-10727048D02*
X11265976Y-10717524D01*
X11418357Y-10898476D02*
X11427881Y-10908000D01*
X11427881Y-10908000D02*
X11418357Y-10917524D01*
X11418357Y-10917524D02*
X11408833Y-10908000D01*
X11408833Y-10908000D02*
X11418357Y-10898476D01*
X11418357Y-10898476D02*
X11418357Y-10917524D01*
X11551690Y-10717524D02*
X11570738Y-10717524D01*
X11570738Y-10717524D02*
X11589786Y-10727048D01*
X11589786Y-10727048D02*
X11599310Y-10736571D01*
X11599310Y-10736571D02*
X11608833Y-10755619D01*
X11608833Y-10755619D02*
X11618357Y-10793714D01*
X11618357Y-10793714D02*
X11618357Y-10841333D01*
X11618357Y-10841333D02*
X11608833Y-10879429D01*
X11608833Y-10879429D02*
X11599310Y-10898476D01*
X11599310Y-10898476D02*
X11589786Y-10908000D01*
X11589786Y-10908000D02*
X11570738Y-10917524D01*
X11570738Y-10917524D02*
X11551690Y-10917524D01*
X11551690Y-10917524D02*
X11532643Y-10908000D01*
X11532643Y-10908000D02*
X11523119Y-10898476D01*
X11523119Y-10898476D02*
X11513595Y-10879429D01*
X11513595Y-10879429D02*
X11504071Y-10841333D01*
X11504071Y-10841333D02*
X11504071Y-10793714D01*
X11504071Y-10793714D02*
X11513595Y-10755619D01*
X11513595Y-10755619D02*
X11523119Y-10736571D01*
X11523119Y-10736571D02*
X11532643Y-10727048D01*
X11532643Y-10727048D02*
X11551690Y-10717524D01*
X11685024Y-10717524D02*
X11808833Y-10717524D01*
X11808833Y-10717524D02*
X11742167Y-10793714D01*
X11742167Y-10793714D02*
X11770738Y-10793714D01*
X11770738Y-10793714D02*
X11789786Y-10803238D01*
X11789786Y-10803238D02*
X11799310Y-10812762D01*
X11799310Y-10812762D02*
X11808833Y-10831810D01*
X11808833Y-10831810D02*
X11808833Y-10879429D01*
X11808833Y-10879429D02*
X11799310Y-10898476D01*
X11799310Y-10898476D02*
X11789786Y-10908000D01*
X11789786Y-10908000D02*
X11770738Y-10917524D01*
X11770738Y-10917524D02*
X11713595Y-10917524D01*
X11713595Y-10917524D02*
X11694548Y-10908000D01*
X11694548Y-10908000D02*
X11685024Y-10898476D01*
X11989786Y-10717524D02*
X11894548Y-10717524D01*
X11894548Y-10717524D02*
X11885024Y-10812762D01*
X11885024Y-10812762D02*
X11894548Y-10803238D01*
X11894548Y-10803238D02*
X11913595Y-10793714D01*
X11913595Y-10793714D02*
X11961214Y-10793714D01*
X11961214Y-10793714D02*
X11980262Y-10803238D01*
X11980262Y-10803238D02*
X11989786Y-10812762D01*
X11989786Y-10812762D02*
X11999310Y-10831810D01*
X11999310Y-10831810D02*
X11999310Y-10879429D01*
X11999310Y-10879429D02*
X11989786Y-10898476D01*
X11989786Y-10898476D02*
X11980262Y-10908000D01*
X11980262Y-10908000D02*
X11961214Y-10917524D01*
X11961214Y-10917524D02*
X11913595Y-10917524D01*
X11913595Y-10917524D02*
X11894548Y-10908000D01*
X11894548Y-10908000D02*
X11885024Y-10898476D01*
X12170738Y-10784190D02*
X12170738Y-10917524D01*
X12123119Y-10708000D02*
X12075500Y-10850857D01*
X12075500Y-10850857D02*
X12199310Y-10850857D01*
X12265976Y-10717524D02*
X12265976Y-10755619D01*
X12342167Y-10717524D02*
X12342167Y-10755619D01*
X12637405Y-10993714D02*
X12627881Y-10984190D01*
X12627881Y-10984190D02*
X12608833Y-10955619D01*
X12608833Y-10955619D02*
X12599310Y-10936571D01*
X12599310Y-10936571D02*
X12589786Y-10908000D01*
X12589786Y-10908000D02*
X12580262Y-10860381D01*
X12580262Y-10860381D02*
X12580262Y-10822286D01*
X12580262Y-10822286D02*
X12589786Y-10774667D01*
X12589786Y-10774667D02*
X12599310Y-10746095D01*
X12599310Y-10746095D02*
X12608833Y-10727048D01*
X12608833Y-10727048D02*
X12627881Y-10698476D01*
X12627881Y-10698476D02*
X12637405Y-10688952D01*
X12751691Y-10717524D02*
X12770738Y-10717524D01*
X12770738Y-10717524D02*
X12789786Y-10727048D01*
X12789786Y-10727048D02*
X12799310Y-10736571D01*
X12799310Y-10736571D02*
X12808833Y-10755619D01*
X12808833Y-10755619D02*
X12818357Y-10793714D01*
X12818357Y-10793714D02*
X12818357Y-10841333D01*
X12818357Y-10841333D02*
X12808833Y-10879429D01*
X12808833Y-10879429D02*
X12799310Y-10898476D01*
X12799310Y-10898476D02*
X12789786Y-10908000D01*
X12789786Y-10908000D02*
X12770738Y-10917524D01*
X12770738Y-10917524D02*
X12751691Y-10917524D01*
X12751691Y-10917524D02*
X12732643Y-10908000D01*
X12732643Y-10908000D02*
X12723119Y-10898476D01*
X12723119Y-10898476D02*
X12713595Y-10879429D01*
X12713595Y-10879429D02*
X12704072Y-10841333D01*
X12704072Y-10841333D02*
X12704072Y-10793714D01*
X12704072Y-10793714D02*
X12713595Y-10755619D01*
X12713595Y-10755619D02*
X12723119Y-10736571D01*
X12723119Y-10736571D02*
X12732643Y-10727048D01*
X12732643Y-10727048D02*
X12751691Y-10717524D01*
X13056453Y-10917524D02*
X13056453Y-10717524D01*
X13142167Y-10917524D02*
X13142167Y-10812762D01*
X13142167Y-10812762D02*
X13132643Y-10793714D01*
X13132643Y-10793714D02*
X13113595Y-10784190D01*
X13113595Y-10784190D02*
X13085024Y-10784190D01*
X13085024Y-10784190D02*
X13065976Y-10793714D01*
X13065976Y-10793714D02*
X13056453Y-10803238D01*
X13265976Y-10917524D02*
X13246929Y-10908000D01*
X13246929Y-10908000D02*
X13237405Y-10898476D01*
X13237405Y-10898476D02*
X13227881Y-10879429D01*
X13227881Y-10879429D02*
X13227881Y-10822286D01*
X13227881Y-10822286D02*
X13237405Y-10803238D01*
X13237405Y-10803238D02*
X13246929Y-10793714D01*
X13246929Y-10793714D02*
X13265976Y-10784190D01*
X13265976Y-10784190D02*
X13294548Y-10784190D01*
X13294548Y-10784190D02*
X13313595Y-10793714D01*
X13313595Y-10793714D02*
X13323119Y-10803238D01*
X13323119Y-10803238D02*
X13332643Y-10822286D01*
X13332643Y-10822286D02*
X13332643Y-10879429D01*
X13332643Y-10879429D02*
X13323119Y-10898476D01*
X13323119Y-10898476D02*
X13313595Y-10908000D01*
X13313595Y-10908000D02*
X13294548Y-10917524D01*
X13294548Y-10917524D02*
X13265976Y-10917524D01*
X13446929Y-10917524D02*
X13427881Y-10908000D01*
X13427881Y-10908000D02*
X13418357Y-10888952D01*
X13418357Y-10888952D02*
X13418357Y-10717524D01*
X13599310Y-10908000D02*
X13580262Y-10917524D01*
X13580262Y-10917524D02*
X13542167Y-10917524D01*
X13542167Y-10917524D02*
X13523119Y-10908000D01*
X13523119Y-10908000D02*
X13513595Y-10888952D01*
X13513595Y-10888952D02*
X13513595Y-10812762D01*
X13513595Y-10812762D02*
X13523119Y-10793714D01*
X13523119Y-10793714D02*
X13542167Y-10784190D01*
X13542167Y-10784190D02*
X13580262Y-10784190D01*
X13580262Y-10784190D02*
X13599310Y-10793714D01*
X13599310Y-10793714D02*
X13608834Y-10812762D01*
X13608834Y-10812762D02*
X13608834Y-10831810D01*
X13608834Y-10831810D02*
X13513595Y-10850857D01*
X13685024Y-10908000D02*
X13704072Y-10917524D01*
X13704072Y-10917524D02*
X13742167Y-10917524D01*
X13742167Y-10917524D02*
X13761215Y-10908000D01*
X13761215Y-10908000D02*
X13770738Y-10888952D01*
X13770738Y-10888952D02*
X13770738Y-10879429D01*
X13770738Y-10879429D02*
X13761215Y-10860381D01*
X13761215Y-10860381D02*
X13742167Y-10850857D01*
X13742167Y-10850857D02*
X13713595Y-10850857D01*
X13713595Y-10850857D02*
X13694548Y-10841333D01*
X13694548Y-10841333D02*
X13685024Y-10822286D01*
X13685024Y-10822286D02*
X13685024Y-10812762D01*
X13685024Y-10812762D02*
X13694548Y-10793714D01*
X13694548Y-10793714D02*
X13713595Y-10784190D01*
X13713595Y-10784190D02*
X13742167Y-10784190D01*
X13742167Y-10784190D02*
X13761215Y-10793714D01*
X14008834Y-10841333D02*
X14161215Y-10841333D01*
X14085024Y-10917524D02*
X14085024Y-10765143D01*
X14513596Y-10917524D02*
X14399310Y-10917524D01*
X14456453Y-10917524D02*
X14456453Y-10717524D01*
X14456453Y-10717524D02*
X14437405Y-10746095D01*
X14437405Y-10746095D02*
X14418357Y-10765143D01*
X14418357Y-10765143D02*
X14399310Y-10774667D01*
X14685024Y-10784190D02*
X14685024Y-10917524D01*
X14637405Y-10708000D02*
X14589786Y-10850857D01*
X14589786Y-10850857D02*
X14713596Y-10850857D01*
X14932643Y-10908000D02*
X14951691Y-10917524D01*
X14951691Y-10917524D02*
X14989786Y-10917524D01*
X14989786Y-10917524D02*
X15008834Y-10908000D01*
X15008834Y-10908000D02*
X15018358Y-10888952D01*
X15018358Y-10888952D02*
X15018358Y-10879429D01*
X15018358Y-10879429D02*
X15008834Y-10860381D01*
X15008834Y-10860381D02*
X14989786Y-10850857D01*
X14989786Y-10850857D02*
X14961215Y-10850857D01*
X14961215Y-10850857D02*
X14942167Y-10841333D01*
X14942167Y-10841333D02*
X14932643Y-10822286D01*
X14932643Y-10822286D02*
X14932643Y-10812762D01*
X14932643Y-10812762D02*
X14942167Y-10793714D01*
X14942167Y-10793714D02*
X14961215Y-10784190D01*
X14961215Y-10784190D02*
X14989786Y-10784190D01*
X14989786Y-10784190D02*
X15008834Y-10793714D01*
X15132643Y-10917524D02*
X15113596Y-10908000D01*
X15113596Y-10908000D02*
X15104072Y-10888952D01*
X15104072Y-10888952D02*
X15104072Y-10717524D01*
X15237405Y-10917524D02*
X15218358Y-10908000D01*
X15218358Y-10908000D02*
X15208834Y-10898476D01*
X15208834Y-10898476D02*
X15199310Y-10879429D01*
X15199310Y-10879429D02*
X15199310Y-10822286D01*
X15199310Y-10822286D02*
X15208834Y-10803238D01*
X15208834Y-10803238D02*
X15218358Y-10793714D01*
X15218358Y-10793714D02*
X15237405Y-10784190D01*
X15237405Y-10784190D02*
X15265977Y-10784190D01*
X15265977Y-10784190D02*
X15285024Y-10793714D01*
X15285024Y-10793714D02*
X15294548Y-10803238D01*
X15294548Y-10803238D02*
X15304072Y-10822286D01*
X15304072Y-10822286D02*
X15304072Y-10879429D01*
X15304072Y-10879429D02*
X15294548Y-10898476D01*
X15294548Y-10898476D02*
X15285024Y-10908000D01*
X15285024Y-10908000D02*
X15265977Y-10917524D01*
X15265977Y-10917524D02*
X15237405Y-10917524D01*
X15361215Y-10784190D02*
X15437405Y-10784190D01*
X15389786Y-10717524D02*
X15389786Y-10888952D01*
X15389786Y-10888952D02*
X15399310Y-10908000D01*
X15399310Y-10908000D02*
X15418358Y-10917524D01*
X15418358Y-10917524D02*
X15437405Y-10917524D01*
X15494548Y-10908000D02*
X15513596Y-10917524D01*
X15513596Y-10917524D02*
X15551691Y-10917524D01*
X15551691Y-10917524D02*
X15570739Y-10908000D01*
X15570739Y-10908000D02*
X15580262Y-10888952D01*
X15580262Y-10888952D02*
X15580262Y-10879429D01*
X15580262Y-10879429D02*
X15570739Y-10860381D01*
X15570739Y-10860381D02*
X15551691Y-10850857D01*
X15551691Y-10850857D02*
X15523119Y-10850857D01*
X15523119Y-10850857D02*
X15504072Y-10841333D01*
X15504072Y-10841333D02*
X15494548Y-10822286D01*
X15494548Y-10822286D02*
X15494548Y-10812762D01*
X15494548Y-10812762D02*
X15504072Y-10793714D01*
X15504072Y-10793714D02*
X15523119Y-10784190D01*
X15523119Y-10784190D02*
X15551691Y-10784190D01*
X15551691Y-10784190D02*
X15570739Y-10793714D01*
X15646929Y-10993714D02*
X15656453Y-10984190D01*
X15656453Y-10984190D02*
X15675500Y-10955619D01*
X15675500Y-10955619D02*
X15685024Y-10936571D01*
X15685024Y-10936571D02*
X15694548Y-10908000D01*
X15694548Y-10908000D02*
X15704072Y-10860381D01*
X15704072Y-10860381D02*
X15704072Y-10822286D01*
X15704072Y-10822286D02*
X15694548Y-10774667D01*
X15694548Y-10774667D02*
X15685024Y-10746095D01*
X15685024Y-10746095D02*
X15675500Y-10727048D01*
X15675500Y-10727048D02*
X15656453Y-10698476D01*
X15656453Y-10698476D02*
X15646929Y-10688952D01*
X9046211Y-11159711D02*
X9046211Y-11018289D01*
X8904789Y-11018289D01*
X8904789Y-11159711D01*
X9046211Y-11159711D01*
X9313595Y-11000571D02*
X9323119Y-10991048D01*
X9323119Y-10991048D02*
X9342167Y-10981524D01*
X9342167Y-10981524D02*
X9389786Y-10981524D01*
X9389786Y-10981524D02*
X9408833Y-10991048D01*
X9408833Y-10991048D02*
X9418357Y-11000571D01*
X9418357Y-11000571D02*
X9427881Y-11019619D01*
X9427881Y-11019619D02*
X9427881Y-11038667D01*
X9427881Y-11038667D02*
X9418357Y-11067238D01*
X9418357Y-11067238D02*
X9304071Y-11181524D01*
X9304071Y-11181524D02*
X9427881Y-11181524D01*
X9513595Y-11162476D02*
X9523119Y-11172000D01*
X9523119Y-11172000D02*
X9513595Y-11181524D01*
X9513595Y-11181524D02*
X9504071Y-11172000D01*
X9504071Y-11172000D02*
X9513595Y-11162476D01*
X9513595Y-11162476D02*
X9513595Y-11181524D01*
X9589786Y-10981524D02*
X9723119Y-10981524D01*
X9723119Y-10981524D02*
X9637405Y-11181524D01*
X9837405Y-10981524D02*
X9856452Y-10981524D01*
X9856452Y-10981524D02*
X9875500Y-10991048D01*
X9875500Y-10991048D02*
X9885024Y-11000571D01*
X9885024Y-11000571D02*
X9894548Y-11019619D01*
X9894548Y-11019619D02*
X9904071Y-11057714D01*
X9904071Y-11057714D02*
X9904071Y-11105333D01*
X9904071Y-11105333D02*
X9894548Y-11143429D01*
X9894548Y-11143429D02*
X9885024Y-11162476D01*
X9885024Y-11162476D02*
X9875500Y-11172000D01*
X9875500Y-11172000D02*
X9856452Y-11181524D01*
X9856452Y-11181524D02*
X9837405Y-11181524D01*
X9837405Y-11181524D02*
X9818357Y-11172000D01*
X9818357Y-11172000D02*
X9808833Y-11162476D01*
X9808833Y-11162476D02*
X9799309Y-11143429D01*
X9799309Y-11143429D02*
X9789786Y-11105333D01*
X9789786Y-11105333D02*
X9789786Y-11057714D01*
X9789786Y-11057714D02*
X9799309Y-11019619D01*
X9799309Y-11019619D02*
X9808833Y-11000571D01*
X9808833Y-11000571D02*
X9818357Y-10991048D01*
X9818357Y-10991048D02*
X9837405Y-10981524D01*
X10027881Y-10981524D02*
X10046929Y-10981524D01*
X10046929Y-10981524D02*
X10065976Y-10991048D01*
X10065976Y-10991048D02*
X10075500Y-11000571D01*
X10075500Y-11000571D02*
X10085024Y-11019619D01*
X10085024Y-11019619D02*
X10094548Y-11057714D01*
X10094548Y-11057714D02*
X10094548Y-11105333D01*
X10094548Y-11105333D02*
X10085024Y-11143429D01*
X10085024Y-11143429D02*
X10075500Y-11162476D01*
X10075500Y-11162476D02*
X10065976Y-11172000D01*
X10065976Y-11172000D02*
X10046929Y-11181524D01*
X10046929Y-11181524D02*
X10027881Y-11181524D01*
X10027881Y-11181524D02*
X10008833Y-11172000D01*
X10008833Y-11172000D02*
X9999309Y-11162476D01*
X9999309Y-11162476D02*
X9989786Y-11143429D01*
X9989786Y-11143429D02*
X9980262Y-11105333D01*
X9980262Y-11105333D02*
X9980262Y-11057714D01*
X9980262Y-11057714D02*
X9989786Y-11019619D01*
X9989786Y-11019619D02*
X9999309Y-11000571D01*
X9999309Y-11000571D02*
X10008833Y-10991048D01*
X10008833Y-10991048D02*
X10027881Y-10981524D01*
X10180262Y-11181524D02*
X10180262Y-11048190D01*
X10180262Y-11067238D02*
X10189786Y-11057714D01*
X10189786Y-11057714D02*
X10208833Y-11048190D01*
X10208833Y-11048190D02*
X10237405Y-11048190D01*
X10237405Y-11048190D02*
X10256452Y-11057714D01*
X10256452Y-11057714D02*
X10265976Y-11076762D01*
X10265976Y-11076762D02*
X10265976Y-11181524D01*
X10265976Y-11076762D02*
X10275500Y-11057714D01*
X10275500Y-11057714D02*
X10294548Y-11048190D01*
X10294548Y-11048190D02*
X10323119Y-11048190D01*
X10323119Y-11048190D02*
X10342167Y-11057714D01*
X10342167Y-11057714D02*
X10351690Y-11076762D01*
X10351690Y-11076762D02*
X10351690Y-11181524D01*
X10446929Y-11181524D02*
X10446929Y-11048190D01*
X10446929Y-11067238D02*
X10456452Y-11057714D01*
X10456452Y-11057714D02*
X10475500Y-11048190D01*
X10475500Y-11048190D02*
X10504071Y-11048190D01*
X10504071Y-11048190D02*
X10523119Y-11057714D01*
X10523119Y-11057714D02*
X10532643Y-11076762D01*
X10532643Y-11076762D02*
X10532643Y-11181524D01*
X10532643Y-11076762D02*
X10542167Y-11057714D01*
X10542167Y-11057714D02*
X10561214Y-11048190D01*
X10561214Y-11048190D02*
X10589786Y-11048190D01*
X10589786Y-11048190D02*
X10608833Y-11057714D01*
X10608833Y-11057714D02*
X10618357Y-11076762D01*
X10618357Y-11076762D02*
X10618357Y-11181524D01*
X11008833Y-10972000D02*
X10837405Y-11229143D01*
X11265976Y-10981524D02*
X11285024Y-10981524D01*
X11285024Y-10981524D02*
X11304071Y-10991048D01*
X11304071Y-10991048D02*
X11313595Y-11000571D01*
X11313595Y-11000571D02*
X11323119Y-11019619D01*
X11323119Y-11019619D02*
X11332643Y-11057714D01*
X11332643Y-11057714D02*
X11332643Y-11105333D01*
X11332643Y-11105333D02*
X11323119Y-11143429D01*
X11323119Y-11143429D02*
X11313595Y-11162476D01*
X11313595Y-11162476D02*
X11304071Y-11172000D01*
X11304071Y-11172000D02*
X11285024Y-11181524D01*
X11285024Y-11181524D02*
X11265976Y-11181524D01*
X11265976Y-11181524D02*
X11246929Y-11172000D01*
X11246929Y-11172000D02*
X11237405Y-11162476D01*
X11237405Y-11162476D02*
X11227881Y-11143429D01*
X11227881Y-11143429D02*
X11218357Y-11105333D01*
X11218357Y-11105333D02*
X11218357Y-11057714D01*
X11218357Y-11057714D02*
X11227881Y-11019619D01*
X11227881Y-11019619D02*
X11237405Y-11000571D01*
X11237405Y-11000571D02*
X11246929Y-10991048D01*
X11246929Y-10991048D02*
X11265976Y-10981524D01*
X11418357Y-11162476D02*
X11427881Y-11172000D01*
X11427881Y-11172000D02*
X11418357Y-11181524D01*
X11418357Y-11181524D02*
X11408833Y-11172000D01*
X11408833Y-11172000D02*
X11418357Y-11162476D01*
X11418357Y-11162476D02*
X11418357Y-11181524D01*
X11618357Y-11181524D02*
X11504071Y-11181524D01*
X11561214Y-11181524D02*
X11561214Y-10981524D01*
X11561214Y-10981524D02*
X11542167Y-11010095D01*
X11542167Y-11010095D02*
X11523119Y-11029143D01*
X11523119Y-11029143D02*
X11504071Y-11038667D01*
X11742167Y-10981524D02*
X11761214Y-10981524D01*
X11761214Y-10981524D02*
X11780262Y-10991048D01*
X11780262Y-10991048D02*
X11789786Y-11000571D01*
X11789786Y-11000571D02*
X11799310Y-11019619D01*
X11799310Y-11019619D02*
X11808833Y-11057714D01*
X11808833Y-11057714D02*
X11808833Y-11105333D01*
X11808833Y-11105333D02*
X11799310Y-11143429D01*
X11799310Y-11143429D02*
X11789786Y-11162476D01*
X11789786Y-11162476D02*
X11780262Y-11172000D01*
X11780262Y-11172000D02*
X11761214Y-11181524D01*
X11761214Y-11181524D02*
X11742167Y-11181524D01*
X11742167Y-11181524D02*
X11723119Y-11172000D01*
X11723119Y-11172000D02*
X11713595Y-11162476D01*
X11713595Y-11162476D02*
X11704071Y-11143429D01*
X11704071Y-11143429D02*
X11694548Y-11105333D01*
X11694548Y-11105333D02*
X11694548Y-11057714D01*
X11694548Y-11057714D02*
X11704071Y-11019619D01*
X11704071Y-11019619D02*
X11713595Y-11000571D01*
X11713595Y-11000571D02*
X11723119Y-10991048D01*
X11723119Y-10991048D02*
X11742167Y-10981524D01*
X11980262Y-10981524D02*
X11942167Y-10981524D01*
X11942167Y-10981524D02*
X11923119Y-10991048D01*
X11923119Y-10991048D02*
X11913595Y-11000571D01*
X11913595Y-11000571D02*
X11894548Y-11029143D01*
X11894548Y-11029143D02*
X11885024Y-11067238D01*
X11885024Y-11067238D02*
X11885024Y-11143429D01*
X11885024Y-11143429D02*
X11894548Y-11162476D01*
X11894548Y-11162476D02*
X11904071Y-11172000D01*
X11904071Y-11172000D02*
X11923119Y-11181524D01*
X11923119Y-11181524D02*
X11961214Y-11181524D01*
X11961214Y-11181524D02*
X11980262Y-11172000D01*
X11980262Y-11172000D02*
X11989786Y-11162476D01*
X11989786Y-11162476D02*
X11999310Y-11143429D01*
X11999310Y-11143429D02*
X11999310Y-11095810D01*
X11999310Y-11095810D02*
X11989786Y-11076762D01*
X11989786Y-11076762D02*
X11980262Y-11067238D01*
X11980262Y-11067238D02*
X11961214Y-11057714D01*
X11961214Y-11057714D02*
X11923119Y-11057714D01*
X11923119Y-11057714D02*
X11904071Y-11067238D01*
X11904071Y-11067238D02*
X11894548Y-11076762D01*
X11894548Y-11076762D02*
X11885024Y-11095810D01*
X12065976Y-10981524D02*
X12189786Y-10981524D01*
X12189786Y-10981524D02*
X12123119Y-11057714D01*
X12123119Y-11057714D02*
X12151691Y-11057714D01*
X12151691Y-11057714D02*
X12170738Y-11067238D01*
X12170738Y-11067238D02*
X12180262Y-11076762D01*
X12180262Y-11076762D02*
X12189786Y-11095810D01*
X12189786Y-11095810D02*
X12189786Y-11143429D01*
X12189786Y-11143429D02*
X12180262Y-11162476D01*
X12180262Y-11162476D02*
X12170738Y-11172000D01*
X12170738Y-11172000D02*
X12151691Y-11181524D01*
X12151691Y-11181524D02*
X12094548Y-11181524D01*
X12094548Y-11181524D02*
X12075500Y-11172000D01*
X12075500Y-11172000D02*
X12065976Y-11162476D01*
X12265976Y-10981524D02*
X12265976Y-11019619D01*
X12342167Y-10981524D02*
X12342167Y-11019619D01*
X12637405Y-11257714D02*
X12627881Y-11248190D01*
X12627881Y-11248190D02*
X12608833Y-11219619D01*
X12608833Y-11219619D02*
X12599310Y-11200571D01*
X12599310Y-11200571D02*
X12589786Y-11172000D01*
X12589786Y-11172000D02*
X12580262Y-11124381D01*
X12580262Y-11124381D02*
X12580262Y-11086286D01*
X12580262Y-11086286D02*
X12589786Y-11038667D01*
X12589786Y-11038667D02*
X12599310Y-11010095D01*
X12599310Y-11010095D02*
X12608833Y-10991048D01*
X12608833Y-10991048D02*
X12627881Y-10962476D01*
X12627881Y-10962476D02*
X12637405Y-10952952D01*
X12704072Y-11000571D02*
X12713595Y-10991048D01*
X12713595Y-10991048D02*
X12732643Y-10981524D01*
X12732643Y-10981524D02*
X12780262Y-10981524D01*
X12780262Y-10981524D02*
X12799310Y-10991048D01*
X12799310Y-10991048D02*
X12808833Y-11000571D01*
X12808833Y-11000571D02*
X12818357Y-11019619D01*
X12818357Y-11019619D02*
X12818357Y-11038667D01*
X12818357Y-11038667D02*
X12808833Y-11067238D01*
X12808833Y-11067238D02*
X12694548Y-11181524D01*
X12694548Y-11181524D02*
X12818357Y-11181524D01*
X13056453Y-11181524D02*
X13056453Y-10981524D01*
X13142167Y-11181524D02*
X13142167Y-11076762D01*
X13142167Y-11076762D02*
X13132643Y-11057714D01*
X13132643Y-11057714D02*
X13113595Y-11048190D01*
X13113595Y-11048190D02*
X13085024Y-11048190D01*
X13085024Y-11048190D02*
X13065976Y-11057714D01*
X13065976Y-11057714D02*
X13056453Y-11067238D01*
X13265976Y-11181524D02*
X13246929Y-11172000D01*
X13246929Y-11172000D02*
X13237405Y-11162476D01*
X13237405Y-11162476D02*
X13227881Y-11143429D01*
X13227881Y-11143429D02*
X13227881Y-11086286D01*
X13227881Y-11086286D02*
X13237405Y-11067238D01*
X13237405Y-11067238D02*
X13246929Y-11057714D01*
X13246929Y-11057714D02*
X13265976Y-11048190D01*
X13265976Y-11048190D02*
X13294548Y-11048190D01*
X13294548Y-11048190D02*
X13313595Y-11057714D01*
X13313595Y-11057714D02*
X13323119Y-11067238D01*
X13323119Y-11067238D02*
X13332643Y-11086286D01*
X13332643Y-11086286D02*
X13332643Y-11143429D01*
X13332643Y-11143429D02*
X13323119Y-11162476D01*
X13323119Y-11162476D02*
X13313595Y-11172000D01*
X13313595Y-11172000D02*
X13294548Y-11181524D01*
X13294548Y-11181524D02*
X13265976Y-11181524D01*
X13446929Y-11181524D02*
X13427881Y-11172000D01*
X13427881Y-11172000D02*
X13418357Y-11152952D01*
X13418357Y-11152952D02*
X13418357Y-10981524D01*
X13599310Y-11172000D02*
X13580262Y-11181524D01*
X13580262Y-11181524D02*
X13542167Y-11181524D01*
X13542167Y-11181524D02*
X13523119Y-11172000D01*
X13523119Y-11172000D02*
X13513595Y-11152952D01*
X13513595Y-11152952D02*
X13513595Y-11076762D01*
X13513595Y-11076762D02*
X13523119Y-11057714D01*
X13523119Y-11057714D02*
X13542167Y-11048190D01*
X13542167Y-11048190D02*
X13580262Y-11048190D01*
X13580262Y-11048190D02*
X13599310Y-11057714D01*
X13599310Y-11057714D02*
X13608834Y-11076762D01*
X13608834Y-11076762D02*
X13608834Y-11095810D01*
X13608834Y-11095810D02*
X13513595Y-11114857D01*
X13685024Y-11172000D02*
X13704072Y-11181524D01*
X13704072Y-11181524D02*
X13742167Y-11181524D01*
X13742167Y-11181524D02*
X13761215Y-11172000D01*
X13761215Y-11172000D02*
X13770738Y-11152952D01*
X13770738Y-11152952D02*
X13770738Y-11143429D01*
X13770738Y-11143429D02*
X13761215Y-11124381D01*
X13761215Y-11124381D02*
X13742167Y-11114857D01*
X13742167Y-11114857D02*
X13713595Y-11114857D01*
X13713595Y-11114857D02*
X13694548Y-11105333D01*
X13694548Y-11105333D02*
X13685024Y-11086286D01*
X13685024Y-11086286D02*
X13685024Y-11076762D01*
X13685024Y-11076762D02*
X13694548Y-11057714D01*
X13694548Y-11057714D02*
X13713595Y-11048190D01*
X13713595Y-11048190D02*
X13742167Y-11048190D01*
X13742167Y-11048190D02*
X13761215Y-11057714D01*
X13837405Y-11257714D02*
X13846929Y-11248190D01*
X13846929Y-11248190D02*
X13865976Y-11219619D01*
X13865976Y-11219619D02*
X13875500Y-11200571D01*
X13875500Y-11200571D02*
X13885024Y-11172000D01*
X13885024Y-11172000D02*
X13894548Y-11124381D01*
X13894548Y-11124381D02*
X13894548Y-11086286D01*
X13894548Y-11086286D02*
X13885024Y-11038667D01*
X13885024Y-11038667D02*
X13875500Y-11010095D01*
X13875500Y-11010095D02*
X13865976Y-10991048D01*
X13865976Y-10991048D02*
X13846929Y-10962476D01*
X13846929Y-10962476D02*
X13837405Y-10952952D01*
X8975500Y-11509000D02*
X9075500Y-11409000D01*
X8975500Y-11309000D01*
X8875500Y-11409000D01*
X8975500Y-11509000D01*
X9332643Y-11501524D02*
X9370738Y-11501524D01*
X9370738Y-11501524D02*
X9389786Y-11492000D01*
X9389786Y-11492000D02*
X9399309Y-11482476D01*
X9399309Y-11482476D02*
X9418357Y-11453905D01*
X9418357Y-11453905D02*
X9427881Y-11415809D01*
X9427881Y-11415809D02*
X9427881Y-11339619D01*
X9427881Y-11339619D02*
X9418357Y-11320571D01*
X9418357Y-11320571D02*
X9408833Y-11311048D01*
X9408833Y-11311048D02*
X9389786Y-11301524D01*
X9389786Y-11301524D02*
X9351690Y-11301524D01*
X9351690Y-11301524D02*
X9332643Y-11311048D01*
X9332643Y-11311048D02*
X9323119Y-11320571D01*
X9323119Y-11320571D02*
X9313595Y-11339619D01*
X9313595Y-11339619D02*
X9313595Y-11387238D01*
X9313595Y-11387238D02*
X9323119Y-11406286D01*
X9323119Y-11406286D02*
X9332643Y-11415809D01*
X9332643Y-11415809D02*
X9351690Y-11425333D01*
X9351690Y-11425333D02*
X9389786Y-11425333D01*
X9389786Y-11425333D02*
X9408833Y-11415809D01*
X9408833Y-11415809D02*
X9418357Y-11406286D01*
X9418357Y-11406286D02*
X9427881Y-11387238D01*
X9513595Y-11482476D02*
X9523119Y-11492000D01*
X9523119Y-11492000D02*
X9513595Y-11501524D01*
X9513595Y-11501524D02*
X9504071Y-11492000D01*
X9504071Y-11492000D02*
X9513595Y-11482476D01*
X9513595Y-11482476D02*
X9513595Y-11501524D01*
X9646928Y-11301524D02*
X9665976Y-11301524D01*
X9665976Y-11301524D02*
X9685024Y-11311048D01*
X9685024Y-11311048D02*
X9694548Y-11320571D01*
X9694548Y-11320571D02*
X9704071Y-11339619D01*
X9704071Y-11339619D02*
X9713595Y-11377714D01*
X9713595Y-11377714D02*
X9713595Y-11425333D01*
X9713595Y-11425333D02*
X9704071Y-11463428D01*
X9704071Y-11463428D02*
X9694548Y-11482476D01*
X9694548Y-11482476D02*
X9685024Y-11492000D01*
X9685024Y-11492000D02*
X9665976Y-11501524D01*
X9665976Y-11501524D02*
X9646928Y-11501524D01*
X9646928Y-11501524D02*
X9627881Y-11492000D01*
X9627881Y-11492000D02*
X9618357Y-11482476D01*
X9618357Y-11482476D02*
X9608833Y-11463428D01*
X9608833Y-11463428D02*
X9599309Y-11425333D01*
X9599309Y-11425333D02*
X9599309Y-11377714D01*
X9599309Y-11377714D02*
X9608833Y-11339619D01*
X9608833Y-11339619D02*
X9618357Y-11320571D01*
X9618357Y-11320571D02*
X9627881Y-11311048D01*
X9627881Y-11311048D02*
X9646928Y-11301524D01*
X9837405Y-11301524D02*
X9856452Y-11301524D01*
X9856452Y-11301524D02*
X9875500Y-11311048D01*
X9875500Y-11311048D02*
X9885024Y-11320571D01*
X9885024Y-11320571D02*
X9894548Y-11339619D01*
X9894548Y-11339619D02*
X9904071Y-11377714D01*
X9904071Y-11377714D02*
X9904071Y-11425333D01*
X9904071Y-11425333D02*
X9894548Y-11463428D01*
X9894548Y-11463428D02*
X9885024Y-11482476D01*
X9885024Y-11482476D02*
X9875500Y-11492000D01*
X9875500Y-11492000D02*
X9856452Y-11501524D01*
X9856452Y-11501524D02*
X9837405Y-11501524D01*
X9837405Y-11501524D02*
X9818357Y-11492000D01*
X9818357Y-11492000D02*
X9808833Y-11482476D01*
X9808833Y-11482476D02*
X9799309Y-11463428D01*
X9799309Y-11463428D02*
X9789786Y-11425333D01*
X9789786Y-11425333D02*
X9789786Y-11377714D01*
X9789786Y-11377714D02*
X9799309Y-11339619D01*
X9799309Y-11339619D02*
X9808833Y-11320571D01*
X9808833Y-11320571D02*
X9818357Y-11311048D01*
X9818357Y-11311048D02*
X9837405Y-11301524D01*
X10027881Y-11301524D02*
X10046929Y-11301524D01*
X10046929Y-11301524D02*
X10065976Y-11311048D01*
X10065976Y-11311048D02*
X10075500Y-11320571D01*
X10075500Y-11320571D02*
X10085024Y-11339619D01*
X10085024Y-11339619D02*
X10094548Y-11377714D01*
X10094548Y-11377714D02*
X10094548Y-11425333D01*
X10094548Y-11425333D02*
X10085024Y-11463428D01*
X10085024Y-11463428D02*
X10075500Y-11482476D01*
X10075500Y-11482476D02*
X10065976Y-11492000D01*
X10065976Y-11492000D02*
X10046929Y-11501524D01*
X10046929Y-11501524D02*
X10027881Y-11501524D01*
X10027881Y-11501524D02*
X10008833Y-11492000D01*
X10008833Y-11492000D02*
X9999309Y-11482476D01*
X9999309Y-11482476D02*
X9989786Y-11463428D01*
X9989786Y-11463428D02*
X9980262Y-11425333D01*
X9980262Y-11425333D02*
X9980262Y-11377714D01*
X9980262Y-11377714D02*
X9989786Y-11339619D01*
X9989786Y-11339619D02*
X9999309Y-11320571D01*
X9999309Y-11320571D02*
X10008833Y-11311048D01*
X10008833Y-11311048D02*
X10027881Y-11301524D01*
X10180262Y-11501524D02*
X10180262Y-11368190D01*
X10180262Y-11387238D02*
X10189786Y-11377714D01*
X10189786Y-11377714D02*
X10208833Y-11368190D01*
X10208833Y-11368190D02*
X10237405Y-11368190D01*
X10237405Y-11368190D02*
X10256452Y-11377714D01*
X10256452Y-11377714D02*
X10265976Y-11396762D01*
X10265976Y-11396762D02*
X10265976Y-11501524D01*
X10265976Y-11396762D02*
X10275500Y-11377714D01*
X10275500Y-11377714D02*
X10294548Y-11368190D01*
X10294548Y-11368190D02*
X10323119Y-11368190D01*
X10323119Y-11368190D02*
X10342167Y-11377714D01*
X10342167Y-11377714D02*
X10351690Y-11396762D01*
X10351690Y-11396762D02*
X10351690Y-11501524D01*
X10446929Y-11501524D02*
X10446929Y-11368190D01*
X10446929Y-11387238D02*
X10456452Y-11377714D01*
X10456452Y-11377714D02*
X10475500Y-11368190D01*
X10475500Y-11368190D02*
X10504071Y-11368190D01*
X10504071Y-11368190D02*
X10523119Y-11377714D01*
X10523119Y-11377714D02*
X10532643Y-11396762D01*
X10532643Y-11396762D02*
X10532643Y-11501524D01*
X10532643Y-11396762D02*
X10542167Y-11377714D01*
X10542167Y-11377714D02*
X10561214Y-11368190D01*
X10561214Y-11368190D02*
X10589786Y-11368190D01*
X10589786Y-11368190D02*
X10608833Y-11377714D01*
X10608833Y-11377714D02*
X10618357Y-11396762D01*
X10618357Y-11396762D02*
X10618357Y-11501524D01*
X11008833Y-11292000D02*
X10837405Y-11549143D01*
X11265976Y-11301524D02*
X11285024Y-11301524D01*
X11285024Y-11301524D02*
X11304071Y-11311048D01*
X11304071Y-11311048D02*
X11313595Y-11320571D01*
X11313595Y-11320571D02*
X11323119Y-11339619D01*
X11323119Y-11339619D02*
X11332643Y-11377714D01*
X11332643Y-11377714D02*
X11332643Y-11425333D01*
X11332643Y-11425333D02*
X11323119Y-11463428D01*
X11323119Y-11463428D02*
X11313595Y-11482476D01*
X11313595Y-11482476D02*
X11304071Y-11492000D01*
X11304071Y-11492000D02*
X11285024Y-11501524D01*
X11285024Y-11501524D02*
X11265976Y-11501524D01*
X11265976Y-11501524D02*
X11246929Y-11492000D01*
X11246929Y-11492000D02*
X11237405Y-11482476D01*
X11237405Y-11482476D02*
X11227881Y-11463428D01*
X11227881Y-11463428D02*
X11218357Y-11425333D01*
X11218357Y-11425333D02*
X11218357Y-11377714D01*
X11218357Y-11377714D02*
X11227881Y-11339619D01*
X11227881Y-11339619D02*
X11237405Y-11320571D01*
X11237405Y-11320571D02*
X11246929Y-11311048D01*
X11246929Y-11311048D02*
X11265976Y-11301524D01*
X11418357Y-11482476D02*
X11427881Y-11492000D01*
X11427881Y-11492000D02*
X11418357Y-11501524D01*
X11418357Y-11501524D02*
X11408833Y-11492000D01*
X11408833Y-11492000D02*
X11418357Y-11482476D01*
X11418357Y-11482476D02*
X11418357Y-11501524D01*
X11494548Y-11301524D02*
X11618357Y-11301524D01*
X11618357Y-11301524D02*
X11551690Y-11377714D01*
X11551690Y-11377714D02*
X11580262Y-11377714D01*
X11580262Y-11377714D02*
X11599310Y-11387238D01*
X11599310Y-11387238D02*
X11608833Y-11396762D01*
X11608833Y-11396762D02*
X11618357Y-11415809D01*
X11618357Y-11415809D02*
X11618357Y-11463428D01*
X11618357Y-11463428D02*
X11608833Y-11482476D01*
X11608833Y-11482476D02*
X11599310Y-11492000D01*
X11599310Y-11492000D02*
X11580262Y-11501524D01*
X11580262Y-11501524D02*
X11523119Y-11501524D01*
X11523119Y-11501524D02*
X11504071Y-11492000D01*
X11504071Y-11492000D02*
X11494548Y-11482476D01*
X11799310Y-11301524D02*
X11704071Y-11301524D01*
X11704071Y-11301524D02*
X11694548Y-11396762D01*
X11694548Y-11396762D02*
X11704071Y-11387238D01*
X11704071Y-11387238D02*
X11723119Y-11377714D01*
X11723119Y-11377714D02*
X11770738Y-11377714D01*
X11770738Y-11377714D02*
X11789786Y-11387238D01*
X11789786Y-11387238D02*
X11799310Y-11396762D01*
X11799310Y-11396762D02*
X11808833Y-11415809D01*
X11808833Y-11415809D02*
X11808833Y-11463428D01*
X11808833Y-11463428D02*
X11799310Y-11482476D01*
X11799310Y-11482476D02*
X11789786Y-11492000D01*
X11789786Y-11492000D02*
X11770738Y-11501524D01*
X11770738Y-11501524D02*
X11723119Y-11501524D01*
X11723119Y-11501524D02*
X11704071Y-11492000D01*
X11704071Y-11492000D02*
X11694548Y-11482476D01*
X11980262Y-11368190D02*
X11980262Y-11501524D01*
X11932643Y-11292000D02*
X11885024Y-11434857D01*
X11885024Y-11434857D02*
X12008833Y-11434857D01*
X12065976Y-11301524D02*
X12189786Y-11301524D01*
X12189786Y-11301524D02*
X12123119Y-11377714D01*
X12123119Y-11377714D02*
X12151691Y-11377714D01*
X12151691Y-11377714D02*
X12170738Y-11387238D01*
X12170738Y-11387238D02*
X12180262Y-11396762D01*
X12180262Y-11396762D02*
X12189786Y-11415809D01*
X12189786Y-11415809D02*
X12189786Y-11463428D01*
X12189786Y-11463428D02*
X12180262Y-11482476D01*
X12180262Y-11482476D02*
X12170738Y-11492000D01*
X12170738Y-11492000D02*
X12151691Y-11501524D01*
X12151691Y-11501524D02*
X12094548Y-11501524D01*
X12094548Y-11501524D02*
X12075500Y-11492000D01*
X12075500Y-11492000D02*
X12065976Y-11482476D01*
X12265976Y-11301524D02*
X12265976Y-11339619D01*
X12342167Y-11301524D02*
X12342167Y-11339619D01*
X12637405Y-11577714D02*
X12627881Y-11568190D01*
X12627881Y-11568190D02*
X12608833Y-11539619D01*
X12608833Y-11539619D02*
X12599310Y-11520571D01*
X12599310Y-11520571D02*
X12589786Y-11492000D01*
X12589786Y-11492000D02*
X12580262Y-11444381D01*
X12580262Y-11444381D02*
X12580262Y-11406286D01*
X12580262Y-11406286D02*
X12589786Y-11358667D01*
X12589786Y-11358667D02*
X12599310Y-11330095D01*
X12599310Y-11330095D02*
X12608833Y-11311048D01*
X12608833Y-11311048D02*
X12627881Y-11282476D01*
X12627881Y-11282476D02*
X12637405Y-11272952D01*
X12818357Y-11501524D02*
X12704072Y-11501524D01*
X12761214Y-11501524D02*
X12761214Y-11301524D01*
X12761214Y-11301524D02*
X12742167Y-11330095D01*
X12742167Y-11330095D02*
X12723119Y-11349143D01*
X12723119Y-11349143D02*
X12704072Y-11358667D01*
X13056453Y-11501524D02*
X13056453Y-11301524D01*
X13142167Y-11501524D02*
X13142167Y-11396762D01*
X13142167Y-11396762D02*
X13132643Y-11377714D01*
X13132643Y-11377714D02*
X13113595Y-11368190D01*
X13113595Y-11368190D02*
X13085024Y-11368190D01*
X13085024Y-11368190D02*
X13065976Y-11377714D01*
X13065976Y-11377714D02*
X13056453Y-11387238D01*
X13265976Y-11501524D02*
X13246929Y-11492000D01*
X13246929Y-11492000D02*
X13237405Y-11482476D01*
X13237405Y-11482476D02*
X13227881Y-11463428D01*
X13227881Y-11463428D02*
X13227881Y-11406286D01*
X13227881Y-11406286D02*
X13237405Y-11387238D01*
X13237405Y-11387238D02*
X13246929Y-11377714D01*
X13246929Y-11377714D02*
X13265976Y-11368190D01*
X13265976Y-11368190D02*
X13294548Y-11368190D01*
X13294548Y-11368190D02*
X13313595Y-11377714D01*
X13313595Y-11377714D02*
X13323119Y-11387238D01*
X13323119Y-11387238D02*
X13332643Y-11406286D01*
X13332643Y-11406286D02*
X13332643Y-11463428D01*
X13332643Y-11463428D02*
X13323119Y-11482476D01*
X13323119Y-11482476D02*
X13313595Y-11492000D01*
X13313595Y-11492000D02*
X13294548Y-11501524D01*
X13294548Y-11501524D02*
X13265976Y-11501524D01*
X13446929Y-11501524D02*
X13427881Y-11492000D01*
X13427881Y-11492000D02*
X13418357Y-11472952D01*
X13418357Y-11472952D02*
X13418357Y-11301524D01*
X13599310Y-11492000D02*
X13580262Y-11501524D01*
X13580262Y-11501524D02*
X13542167Y-11501524D01*
X13542167Y-11501524D02*
X13523119Y-11492000D01*
X13523119Y-11492000D02*
X13513595Y-11472952D01*
X13513595Y-11472952D02*
X13513595Y-11396762D01*
X13513595Y-11396762D02*
X13523119Y-11377714D01*
X13523119Y-11377714D02*
X13542167Y-11368190D01*
X13542167Y-11368190D02*
X13580262Y-11368190D01*
X13580262Y-11368190D02*
X13599310Y-11377714D01*
X13599310Y-11377714D02*
X13608834Y-11396762D01*
X13608834Y-11396762D02*
X13608834Y-11415809D01*
X13608834Y-11415809D02*
X13513595Y-11434857D01*
X13675500Y-11577714D02*
X13685024Y-11568190D01*
X13685024Y-11568190D02*
X13704072Y-11539619D01*
X13704072Y-11539619D02*
X13713595Y-11520571D01*
X13713595Y-11520571D02*
X13723119Y-11492000D01*
X13723119Y-11492000D02*
X13732643Y-11444381D01*
X13732643Y-11444381D02*
X13732643Y-11406286D01*
X13732643Y-11406286D02*
X13723119Y-11358667D01*
X13723119Y-11358667D02*
X13713595Y-11330095D01*
X13713595Y-11330095D02*
X13704072Y-11311048D01*
X13704072Y-11311048D02*
X13685024Y-11282476D01*
X13685024Y-11282476D02*
X13675500Y-11272952D01*
M02*
