%TF.GenerationSoftware,KiCad,Pcbnew,7.0.1-0*%
%TF.CreationDate,2023-05-18T00:20:13+08:00*%
%TF.ProjectId,FT817-BT-JDY67,46543831-372d-4425-942d-4a445936372e,20230517*%
%TF.SameCoordinates,Original*%
%TF.FileFunction,Legend,Top*%
%TF.FilePolarity,Positive*%
%FSLAX46Y46*%
G04 Gerber Fmt 4.6, Leading zero omitted, Abs format (unit mm)*
G04 Created by KiCad (PCBNEW 7.0.1-0) date 2023-05-18 00:20:13*
%MOMM*%
%LPD*%
G01*
G04 APERTURE LIST*
%ADD10C,0.150000*%
%ADD11C,0.300000*%
%ADD12C,0.100000*%
%ADD13C,0.203000*%
%ADD14C,0.120000*%
%ADD15C,0.127000*%
%ADD16C,0.160000*%
%ADD17C,0.350000*%
G04 APERTURE END LIST*
D10*
X140970000Y-74295000D02*
X140970000Y-74295000D01*
X169545000Y-69215000D02*
X169545000Y-69215000D01*
X100965000Y-80010000D02*
X100965000Y-80010000D01*
X91440000Y-81915000D02*
X91440000Y-81915000D01*
X106680000Y-63500000D02*
X106680000Y-63500000D01*
X104775000Y-73025000D02*
X104775000Y-73025000D01*
X104775000Y-69850000D02*
X104775000Y-69850000D01*
X121920000Y-64135000D02*
X121920000Y-63500000D01*
X125730000Y-63500000D02*
X125730000Y-63500000D01*
X132080000Y-65405000D02*
X132080000Y-65405000D01*
X123190000Y-63500000D02*
X123190000Y-63500000D01*
X139700000Y-69215000D02*
X139065000Y-69215000D01*
X102870000Y-86360000D02*
X102870000Y-86360000D01*
X104775000Y-65405000D02*
X104775000Y-65405000D01*
X137160000Y-67310000D02*
X137160000Y-67310000D01*
X104775000Y-67945000D02*
X104775000Y-67945000D01*
X139700000Y-68580000D02*
X139700000Y-68580000D01*
X102870000Y-88265000D02*
X102870000Y-88265000D01*
X94615000Y-94615000D02*
X94615000Y-94615000D01*
X104140000Y-66040000D02*
X104775000Y-66040000D01*
X116840000Y-63500000D02*
X116840000Y-63500000D01*
X104775000Y-77470000D02*
X104775000Y-77470000D01*
X98425000Y-94615000D02*
X98425000Y-94615000D01*
X106680000Y-63500000D02*
X106680000Y-63500000D01*
X154305000Y-91440000D02*
X154305000Y-91440000D01*
X104775000Y-71120000D02*
X104775000Y-71120000D01*
X137160000Y-67945000D02*
X137160000Y-67945000D01*
X127635000Y-63500000D02*
X127635000Y-63500000D01*
X102870000Y-80010000D02*
X102870000Y-80010000D01*
X128905000Y-63500000D02*
X128905000Y-63500000D01*
X139700000Y-65405000D02*
X139700000Y-65405000D01*
X104140000Y-75565000D02*
X104775000Y-75565000D01*
X127000000Y-63500000D02*
X127000000Y-63500000D01*
X139700000Y-70485000D02*
X139700000Y-70485000D01*
X167639503Y-69215000D02*
X167640000Y-69215000D01*
X104775000Y-66675000D02*
X104775000Y-66675000D01*
X139700000Y-63500000D02*
X139700000Y-63500000D01*
X104775000Y-74295000D02*
X104775000Y-74295000D01*
X113030000Y-63500000D02*
X113030000Y-63500000D01*
X154940000Y-71120000D02*
X154940000Y-71120000D01*
X154940000Y-92075000D02*
X154940000Y-92075000D01*
X154940000Y-94615000D02*
X154940000Y-94615000D01*
X93345000Y-83185000D02*
X93345000Y-83185000D01*
X155575000Y-69215000D02*
X154940000Y-69215000D01*
X94615000Y-80010000D02*
X94615000Y-80010000D01*
X151765000Y-75565000D02*
X151765000Y-75565000D01*
X93345000Y-94615000D02*
X93345000Y-94615000D01*
X99060000Y-80010000D02*
X99060000Y-80010000D01*
X102235000Y-94615000D02*
X102235000Y-94615000D01*
X97790000Y-83185000D02*
X97790000Y-83185000D01*
X91440000Y-85090000D02*
X91440000Y-85090000D01*
X132080000Y-68580000D02*
X132080000Y-68580000D01*
X154940000Y-95885000D02*
X154940000Y-95885000D01*
X139700000Y-66040000D02*
X139065000Y-66040000D01*
X101600000Y-80010000D02*
X101600000Y-80010000D01*
X104775000Y-70485000D02*
X104775000Y-70485000D01*
X149860000Y-92710000D02*
X149860000Y-92710000D01*
X98425000Y-80010000D02*
X98425000Y-80010000D01*
X150495000Y-75565000D02*
X150495000Y-76200000D01*
X146050000Y-76200000D02*
X146050000Y-76200000D01*
X91440000Y-88265000D02*
X91440000Y-88265000D01*
X102870000Y-94615000D02*
X102870000Y-94615000D01*
X104775000Y-69850000D02*
X104775000Y-69850000D01*
X92075000Y-80010000D02*
X92075000Y-80010000D01*
X102870000Y-86360000D02*
X102870000Y-86360000D01*
X102870000Y-93980000D02*
X102870000Y-93980000D01*
X154940000Y-95250000D02*
X154940000Y-95250000D01*
X143510000Y-75565000D02*
X143510000Y-75565000D01*
X118110000Y-63500000D02*
X118110000Y-63500000D01*
X140970000Y-73025000D02*
X140970000Y-73025000D01*
X102870000Y-83185000D02*
X102870000Y-83185000D01*
X170815000Y-69215000D02*
X170815000Y-69215000D01*
X154940000Y-93345000D02*
X154940000Y-93345000D01*
X104775000Y-67310000D02*
X104775000Y-67310000D01*
X91440000Y-80645000D02*
X91440000Y-80645000D01*
X119380000Y-63500000D02*
X119380000Y-63500000D01*
X154940000Y-91440000D02*
X154940000Y-91440000D01*
X117475000Y-63500000D02*
X117475000Y-63500000D01*
X120015000Y-63500000D02*
X120015000Y-63500000D01*
X137160000Y-65405000D02*
X137160000Y-65405000D01*
X104775000Y-76200000D02*
X104775000Y-76200000D01*
X101600000Y-83185000D02*
X101600000Y-83185000D01*
X125095000Y-64135000D02*
X125095000Y-63500000D01*
X113030000Y-63500000D02*
X113030000Y-63500000D01*
X130175000Y-63500000D02*
X130175000Y-63500000D01*
X145415000Y-76200000D02*
X145415000Y-76200000D01*
X140970000Y-72390000D02*
X139700000Y-72390000D01*
X110490000Y-63500000D02*
X110490000Y-63500000D01*
X114300000Y-63500000D02*
X114300000Y-63500000D01*
X136525000Y-63500000D02*
X136525000Y-63500000D01*
X139700000Y-66675000D02*
X139700000Y-66675000D01*
X92710000Y-83185000D02*
X92710000Y-83185000D01*
X96520000Y-83185000D02*
X96520000Y-83185000D01*
X100965000Y-94615000D02*
X100965000Y-94615000D01*
X151130000Y-95885000D02*
X151130000Y-95885000D01*
X91440000Y-91440000D02*
X91440000Y-91440000D01*
X92710000Y-94615000D02*
X92710000Y-94615000D01*
X126365000Y-63500000D02*
X126365000Y-63500000D01*
X91440000Y-87630000D02*
X91440000Y-87630000D01*
X120650000Y-63500000D02*
X120650000Y-63500000D01*
X94615000Y-83185000D02*
X94615000Y-83185000D01*
X91440000Y-93980000D02*
X91440000Y-93980000D01*
X140970000Y-74930000D02*
X140970000Y-74930000D01*
X91440000Y-94615000D02*
X91440000Y-94615000D01*
X102235000Y-92075000D02*
X102870000Y-92075000D01*
X170180000Y-69215000D02*
X170180000Y-69215000D01*
X91440000Y-83185000D02*
X91440000Y-83185000D01*
D11*
X171450000Y-69215000D02*
X171450000Y-69215000D01*
D10*
X95885000Y-94615000D02*
X95885000Y-94615000D01*
X140970000Y-73660000D02*
X140970000Y-73660000D01*
X154940000Y-67945000D02*
X154940000Y-67945000D01*
X139700000Y-64135000D02*
X139700000Y-64135000D01*
X109855000Y-63500000D02*
X109855000Y-63500000D01*
X144145000Y-76200000D02*
X144145000Y-75565000D01*
X91440000Y-86360000D02*
X91440000Y-86360000D01*
X91440000Y-92710000D02*
X91440000Y-92710000D01*
X132080000Y-67310000D02*
X132080000Y-67310000D01*
X94615000Y-94615000D02*
X94615000Y-94615000D01*
X95250000Y-94615000D02*
X95250000Y-94615000D01*
X102870000Y-89535000D02*
X102870000Y-89535000D01*
X154940000Y-67310000D02*
X154940000Y-67310000D01*
X92075000Y-94615000D02*
X92075000Y-94615000D01*
X139065000Y-63500000D02*
X139065000Y-63500000D01*
X137160000Y-63500000D02*
X137160000Y-63500000D01*
X105410000Y-63500000D02*
X105410000Y-63500000D01*
X134620000Y-64135000D02*
X134620000Y-63500000D01*
X104775000Y-64770000D02*
X104775000Y-64770000D01*
X104775000Y-76835000D02*
X104775000Y-76835000D01*
X128905000Y-63500000D02*
X128905000Y-63500000D01*
X141605000Y-75565000D02*
X141605000Y-75565000D01*
X91440000Y-90805000D02*
X91440000Y-90805000D01*
X132080000Y-66675000D02*
X132080000Y-66675000D01*
X122555000Y-63500000D02*
X122555000Y-63500000D01*
X128270000Y-64135000D02*
X128270000Y-63500000D01*
X147320000Y-76835000D02*
X147320000Y-77470000D01*
X168910000Y-69215000D02*
X168910000Y-69215000D01*
X153670000Y-74295000D02*
X153670000Y-74295000D01*
X104775000Y-73660000D02*
X104775000Y-73660000D01*
X152400000Y-92075000D02*
X152400000Y-91440000D01*
X102870000Y-86995000D02*
X102870000Y-86995000D01*
X139700000Y-69850000D02*
X139700000Y-69850000D01*
X91440000Y-84455000D02*
X91440000Y-84455000D01*
X136525000Y-68580000D02*
X136525000Y-68580000D01*
X153035000Y-95885000D02*
X153035000Y-95885000D01*
X104140000Y-69215000D02*
X104775000Y-69215000D01*
X154940000Y-65405000D02*
X154940000Y-65405000D01*
X154940000Y-63500000D02*
X154940000Y-63500000D01*
X91440000Y-86995000D02*
X91440000Y-86995000D01*
X151130000Y-75565000D02*
X151130000Y-75565000D01*
X104775000Y-63500000D02*
X104775000Y-63500000D01*
X91440000Y-81280000D02*
X91440000Y-81280000D01*
X153670000Y-73660000D02*
X153670000Y-73660000D01*
X102235000Y-85725000D02*
X102870000Y-85725000D01*
X153035000Y-75565000D02*
X153035000Y-75565000D01*
X97155000Y-82550000D02*
X97155000Y-83185000D01*
X133350000Y-63500000D02*
X133350000Y-63500000D01*
X137160000Y-66675000D02*
X137160000Y-66675000D01*
X135255000Y-68580000D02*
X135255000Y-68580000D01*
X122555000Y-63500000D02*
X122555000Y-63500000D01*
X154940000Y-68580000D02*
X154940000Y-68580000D01*
X153670000Y-75565000D02*
X153670000Y-76200000D01*
X154940000Y-66675000D02*
X154940000Y-66675000D01*
X106045000Y-64135000D02*
X106045000Y-63500000D01*
X96520000Y-94615000D02*
X96520000Y-94615000D01*
X119380000Y-63500000D02*
X119380000Y-63500000D01*
X102870000Y-90805000D02*
X102870000Y-90805000D01*
X99060000Y-94615000D02*
X99060000Y-94615000D01*
X102870000Y-94615000D02*
X102870000Y-94615000D01*
X153670000Y-74930000D02*
X153670000Y-74930000D01*
X123825000Y-63500000D02*
X123825000Y-63500000D01*
X104775000Y-69850000D02*
X104775000Y-69850000D01*
X100330000Y-79375000D02*
X100330000Y-80010000D01*
X133985000Y-63500000D02*
X133985000Y-63500000D01*
X99695000Y-94615000D02*
X99695000Y-94615000D01*
X150495000Y-93980000D02*
X149860000Y-93980000D01*
X109220000Y-64135000D02*
X109220000Y-63500000D01*
X133350000Y-68580000D02*
X133350000Y-68580000D01*
X132080000Y-67945000D02*
X132080000Y-67945000D01*
X103505000Y-88900000D02*
X102870000Y-88900000D01*
X108585000Y-63500000D02*
X108585000Y-63500000D01*
X98425000Y-83185000D02*
X98425000Y-83185000D01*
X104140000Y-78740000D02*
X104775000Y-78740000D01*
X139700000Y-67310000D02*
X139700000Y-67310000D01*
X137160000Y-68580000D02*
X137160000Y-68580000D01*
X102870000Y-92710000D02*
X102870000Y-92710000D01*
X101600000Y-94615000D02*
X101600000Y-94615000D01*
X139700000Y-71120000D02*
X139700000Y-71120000D01*
X102870000Y-80010000D02*
X102870000Y-80010000D01*
X148590000Y-76200000D02*
X148590000Y-76200000D01*
X172720000Y-69215000D02*
X172720000Y-69215000D01*
X152400000Y-95250000D02*
X152400000Y-95885000D01*
X135890000Y-63500000D02*
X135890000Y-63500000D01*
X153670000Y-73025000D02*
X153670000Y-73025000D01*
X91440000Y-86360000D02*
X91440000Y-86360000D01*
X135890000Y-68580000D02*
X135890000Y-68580000D01*
X137160000Y-64135000D02*
X137160000Y-64135000D01*
X118745000Y-64135000D02*
X118745000Y-63500000D01*
X104140000Y-72390000D02*
X104775000Y-72390000D01*
X97790000Y-80010000D02*
X97790000Y-80010000D01*
X102870000Y-90170000D02*
X102870000Y-90170000D01*
X149860000Y-95250000D02*
X149860000Y-95250000D01*
X97790000Y-94615000D02*
X97790000Y-94615000D01*
X154940000Y-71755000D02*
X154940000Y-71755000D01*
X132080000Y-64770000D02*
X132080000Y-64770000D01*
X96520000Y-80010000D02*
X96520000Y-80010000D01*
X116205000Y-63500000D02*
X116205000Y-63500000D01*
X133985000Y-68580000D02*
X133985000Y-68580000D01*
X103505000Y-79375000D02*
X103505000Y-80010000D01*
X132080000Y-63500000D02*
X132080000Y-63500000D01*
X138430000Y-63500000D02*
X138430000Y-63500000D01*
X149225000Y-76200000D02*
X149225000Y-76200000D01*
X114935000Y-63500000D02*
X114935000Y-63500000D01*
X102870000Y-87630000D02*
X102870000Y-87630000D01*
X92075000Y-88900000D02*
X91440000Y-88900000D01*
X121285000Y-63500000D02*
X121285000Y-63500000D01*
D11*
X168275000Y-69215000D02*
X168275000Y-69215000D01*
D10*
X91440000Y-90170000D02*
X91440000Y-90170000D01*
X112395000Y-64135000D02*
X112395000Y-63500000D01*
X102870000Y-94615000D02*
X102870000Y-94615000D01*
X91440000Y-93345000D02*
X91440000Y-93345000D01*
X137795000Y-64135000D02*
X137795000Y-63500000D01*
X95885000Y-83185000D02*
X95885000Y-83185000D01*
X151765000Y-91440000D02*
X151765000Y-91440000D01*
X132080000Y-64135000D02*
X132080000Y-64135000D01*
X93980000Y-79375000D02*
X93980000Y-80010000D01*
X102870000Y-83820000D02*
X102870000Y-83820000D01*
X91440000Y-85725000D02*
X92075000Y-85725000D01*
X149860000Y-91440000D02*
X149860000Y-91440000D01*
X102870000Y-80010000D02*
X102870000Y-80010000D01*
X130810000Y-63500000D02*
X130810000Y-63500000D01*
X102870000Y-91440000D02*
X102870000Y-91440000D01*
X154940000Y-64770000D02*
X154940000Y-64770000D01*
X91440000Y-82550000D02*
X91440000Y-82550000D01*
X172085000Y-69215000D02*
X172085000Y-69215000D01*
X109855000Y-63500000D02*
X109855000Y-63500000D01*
X154305000Y-95885000D02*
X154305000Y-95885000D01*
X91440000Y-89535000D02*
X91440000Y-89535000D01*
X92075000Y-92075000D02*
X91440000Y-92075000D01*
X95250000Y-83185000D02*
X95250000Y-83185000D01*
X136525000Y-66040000D02*
X137160000Y-66040000D01*
X99695000Y-80010000D02*
X99695000Y-80010000D01*
X149860000Y-76200000D02*
X149860000Y-76200000D01*
X99060000Y-83185000D02*
X99060000Y-83185000D01*
X115570000Y-64135000D02*
X115570000Y-63500000D01*
X100330000Y-93980000D02*
X100330000Y-94615000D01*
X149860000Y-94615000D02*
X149860000Y-94615000D01*
X104775000Y-80010000D02*
X104775000Y-80010000D01*
X154940000Y-69850000D02*
X154940000Y-69850000D01*
X149860000Y-95885000D02*
X149860000Y-95885000D01*
X132080000Y-63500000D02*
X132080000Y-63500000D01*
X135255000Y-63500000D02*
X135255000Y-63500000D01*
X132715000Y-68580000D02*
X132715000Y-68580000D01*
X104140000Y-80010000D02*
X104140000Y-80010000D01*
X142875000Y-75565000D02*
X142875000Y-75565000D01*
X116205000Y-63500000D02*
X116205000Y-63500000D01*
X93980000Y-93980000D02*
X93980000Y-94615000D01*
X91440000Y-83185000D02*
X91440000Y-83185000D01*
X104775000Y-68580000D02*
X104775000Y-68580000D01*
X91440000Y-91440000D02*
X91440000Y-91440000D01*
X154940000Y-70485000D02*
X154940000Y-70485000D01*
X97155000Y-79375000D02*
X97155000Y-80010000D01*
X151765000Y-95885000D02*
X151765000Y-95885000D01*
X102235000Y-80010000D02*
X102235000Y-80010000D01*
X137160000Y-64770000D02*
X137160000Y-64770000D01*
X95885000Y-80010000D02*
X95885000Y-80010000D01*
X104775000Y-71755000D02*
X104775000Y-71755000D01*
X140970000Y-75565000D02*
X140970000Y-76200000D01*
X102870000Y-85090000D02*
X102870000Y-85090000D01*
X154940000Y-92710000D02*
X154940000Y-92710000D01*
X95250000Y-80010000D02*
X95250000Y-80010000D01*
X100965000Y-83185000D02*
X100965000Y-83185000D01*
X102235000Y-83185000D02*
X102235000Y-83185000D01*
X107950000Y-63500000D02*
X107950000Y-63500000D01*
X100330000Y-83820000D02*
X100330000Y-83185000D01*
X132715000Y-66040000D02*
X132080000Y-66040000D01*
X139700000Y-67945000D02*
X139700000Y-67945000D01*
X154940000Y-64135000D02*
X154940000Y-64135000D01*
X99695000Y-83185000D02*
X99695000Y-83185000D01*
X102870000Y-84455000D02*
X102870000Y-84455000D01*
X129540000Y-63500000D02*
X129540000Y-63500000D01*
X107315000Y-63500000D02*
X107315000Y-63500000D01*
X152400000Y-75565000D02*
X152400000Y-75565000D01*
X104775000Y-78105000D02*
X104775000Y-78105000D01*
X111125000Y-63500000D02*
X111125000Y-63500000D01*
X155575000Y-66040000D02*
X154940000Y-66040000D01*
X149860000Y-93345000D02*
X149860000Y-93345000D01*
X93980000Y-83820000D02*
X93980000Y-83185000D01*
X104775000Y-79375000D02*
X104775000Y-79375000D01*
X94615000Y-80010000D02*
X94615000Y-80010000D01*
X142240000Y-75565000D02*
X142240000Y-75565000D01*
X153035000Y-91440000D02*
X153035000Y-91440000D01*
X151130000Y-91440000D02*
X151130000Y-91440000D01*
X150495000Y-95885000D02*
X150495000Y-95885000D01*
X153670000Y-95885000D02*
X153670000Y-95885000D01*
X124460000Y-63500000D02*
X124460000Y-63500000D01*
X104775000Y-74930000D02*
X104775000Y-74930000D01*
X111760000Y-63500000D02*
X111760000Y-63500000D01*
X131445000Y-64135000D02*
X131445000Y-63500000D01*
X167005000Y-69215000D02*
X167005000Y-69215000D01*
X144780000Y-76200000D02*
X144780000Y-76200000D01*
X102870000Y-86360000D02*
X102870000Y-86360000D01*
X97155000Y-94615000D02*
X97155000Y-95250000D01*
X91440000Y-80010000D02*
X91440000Y-80010000D01*
X93345000Y-80010000D02*
X93345000Y-80010000D01*
X150495000Y-91440000D02*
X150495000Y-91440000D01*
X91440000Y-94615000D02*
X91440000Y-94615000D01*
X132715000Y-63500000D02*
X132715000Y-63500000D01*
X113665000Y-63500000D02*
X113665000Y-63500000D01*
X92075000Y-83185000D02*
X92075000Y-83185000D01*
X153670000Y-91440000D02*
X153670000Y-91440000D01*
X92710000Y-80010000D02*
X92710000Y-80010000D01*
X154940000Y-72390000D02*
X153670000Y-72390000D01*
X154305000Y-93980000D02*
X154940000Y-93980000D01*
X139700000Y-64770000D02*
X139700000Y-64770000D01*
X125730000Y-63500000D02*
X125730000Y-63500000D01*
X104775000Y-64135000D02*
X104775000Y-64135000D01*
X91440000Y-83820000D02*
X91440000Y-83820000D01*
X139700000Y-71755000D02*
X139700000Y-71755000D01*
X102870000Y-93345000D02*
X102870000Y-93345000D01*
X134620000Y-67945000D02*
X134620000Y-68580000D01*
X149860000Y-92075000D02*
X149860000Y-92075000D01*
X105981428Y-66613809D02*
X105648095Y-66613809D01*
X105648095Y-67137619D02*
X105648095Y-66137619D01*
X105648095Y-66137619D02*
X106124285Y-66137619D01*
X106362381Y-66137619D02*
X106933809Y-66137619D01*
X106648095Y-67137619D02*
X106648095Y-66137619D01*
X107267143Y-66756666D02*
X108029048Y-66756666D01*
X108648095Y-66566190D02*
X108552857Y-66518571D01*
X108552857Y-66518571D02*
X108505238Y-66470952D01*
X108505238Y-66470952D02*
X108457619Y-66375714D01*
X108457619Y-66375714D02*
X108457619Y-66328095D01*
X108457619Y-66328095D02*
X108505238Y-66232857D01*
X108505238Y-66232857D02*
X108552857Y-66185238D01*
X108552857Y-66185238D02*
X108648095Y-66137619D01*
X108648095Y-66137619D02*
X108838571Y-66137619D01*
X108838571Y-66137619D02*
X108933809Y-66185238D01*
X108933809Y-66185238D02*
X108981428Y-66232857D01*
X108981428Y-66232857D02*
X109029047Y-66328095D01*
X109029047Y-66328095D02*
X109029047Y-66375714D01*
X109029047Y-66375714D02*
X108981428Y-66470952D01*
X108981428Y-66470952D02*
X108933809Y-66518571D01*
X108933809Y-66518571D02*
X108838571Y-66566190D01*
X108838571Y-66566190D02*
X108648095Y-66566190D01*
X108648095Y-66566190D02*
X108552857Y-66613809D01*
X108552857Y-66613809D02*
X108505238Y-66661428D01*
X108505238Y-66661428D02*
X108457619Y-66756666D01*
X108457619Y-66756666D02*
X108457619Y-66947142D01*
X108457619Y-66947142D02*
X108505238Y-67042380D01*
X108505238Y-67042380D02*
X108552857Y-67090000D01*
X108552857Y-67090000D02*
X108648095Y-67137619D01*
X108648095Y-67137619D02*
X108838571Y-67137619D01*
X108838571Y-67137619D02*
X108933809Y-67090000D01*
X108933809Y-67090000D02*
X108981428Y-67042380D01*
X108981428Y-67042380D02*
X109029047Y-66947142D01*
X109029047Y-66947142D02*
X109029047Y-66756666D01*
X109029047Y-66756666D02*
X108981428Y-66661428D01*
X108981428Y-66661428D02*
X108933809Y-66613809D01*
X108933809Y-66613809D02*
X108838571Y-66566190D01*
X109981428Y-67137619D02*
X109410000Y-67137619D01*
X109695714Y-67137619D02*
X109695714Y-66137619D01*
X109695714Y-66137619D02*
X109600476Y-66280476D01*
X109600476Y-66280476D02*
X109505238Y-66375714D01*
X109505238Y-66375714D02*
X109410000Y-66423333D01*
X110314762Y-67137619D02*
X110838571Y-66470952D01*
X110314762Y-66470952D02*
X110838571Y-67137619D01*
X112314762Y-66613809D02*
X112457619Y-66661428D01*
X112457619Y-66661428D02*
X112505238Y-66709047D01*
X112505238Y-66709047D02*
X112552857Y-66804285D01*
X112552857Y-66804285D02*
X112552857Y-66947142D01*
X112552857Y-66947142D02*
X112505238Y-67042380D01*
X112505238Y-67042380D02*
X112457619Y-67090000D01*
X112457619Y-67090000D02*
X112362381Y-67137619D01*
X112362381Y-67137619D02*
X111981429Y-67137619D01*
X111981429Y-67137619D02*
X111981429Y-66137619D01*
X111981429Y-66137619D02*
X112314762Y-66137619D01*
X112314762Y-66137619D02*
X112410000Y-66185238D01*
X112410000Y-66185238D02*
X112457619Y-66232857D01*
X112457619Y-66232857D02*
X112505238Y-66328095D01*
X112505238Y-66328095D02*
X112505238Y-66423333D01*
X112505238Y-66423333D02*
X112457619Y-66518571D01*
X112457619Y-66518571D02*
X112410000Y-66566190D01*
X112410000Y-66566190D02*
X112314762Y-66613809D01*
X112314762Y-66613809D02*
X111981429Y-66613809D01*
X112838572Y-66137619D02*
X113410000Y-66137619D01*
X113124286Y-67137619D02*
X113124286Y-66137619D01*
X114505239Y-67137619D02*
X114505239Y-66137619D01*
X114505239Y-66137619D02*
X114743334Y-66137619D01*
X114743334Y-66137619D02*
X114886191Y-66185238D01*
X114886191Y-66185238D02*
X114981429Y-66280476D01*
X114981429Y-66280476D02*
X115029048Y-66375714D01*
X115029048Y-66375714D02*
X115076667Y-66566190D01*
X115076667Y-66566190D02*
X115076667Y-66709047D01*
X115076667Y-66709047D02*
X115029048Y-66899523D01*
X115029048Y-66899523D02*
X114981429Y-66994761D01*
X114981429Y-66994761D02*
X114886191Y-67090000D01*
X114886191Y-67090000D02*
X114743334Y-67137619D01*
X114743334Y-67137619D02*
X114505239Y-67137619D01*
X115505239Y-67137619D02*
X115505239Y-66137619D01*
X116505238Y-66185238D02*
X116410000Y-66137619D01*
X116410000Y-66137619D02*
X116267143Y-66137619D01*
X116267143Y-66137619D02*
X116124286Y-66185238D01*
X116124286Y-66185238D02*
X116029048Y-66280476D01*
X116029048Y-66280476D02*
X115981429Y-66375714D01*
X115981429Y-66375714D02*
X115933810Y-66566190D01*
X115933810Y-66566190D02*
X115933810Y-66709047D01*
X115933810Y-66709047D02*
X115981429Y-66899523D01*
X115981429Y-66899523D02*
X116029048Y-66994761D01*
X116029048Y-66994761D02*
X116124286Y-67090000D01*
X116124286Y-67090000D02*
X116267143Y-67137619D01*
X116267143Y-67137619D02*
X116362381Y-67137619D01*
X116362381Y-67137619D02*
X116505238Y-67090000D01*
X116505238Y-67090000D02*
X116552857Y-67042380D01*
X116552857Y-67042380D02*
X116552857Y-66709047D01*
X116552857Y-66709047D02*
X116362381Y-66709047D01*
X116981429Y-67137619D02*
X116981429Y-66137619D01*
X118171905Y-66851904D02*
X118648095Y-66851904D01*
X118076667Y-67137619D02*
X118410000Y-66137619D01*
X118410000Y-66137619D02*
X118743333Y-67137619D01*
X119505238Y-67137619D02*
X119505238Y-66137619D01*
X119505238Y-67090000D02*
X119410000Y-67137619D01*
X119410000Y-67137619D02*
X119219524Y-67137619D01*
X119219524Y-67137619D02*
X119124286Y-67090000D01*
X119124286Y-67090000D02*
X119076667Y-67042380D01*
X119076667Y-67042380D02*
X119029048Y-66947142D01*
X119029048Y-66947142D02*
X119029048Y-66661428D01*
X119029048Y-66661428D02*
X119076667Y-66566190D01*
X119076667Y-66566190D02*
X119124286Y-66518571D01*
X119124286Y-66518571D02*
X119219524Y-66470952D01*
X119219524Y-66470952D02*
X119410000Y-66470952D01*
X119410000Y-66470952D02*
X119505238Y-66518571D01*
X120410000Y-67137619D02*
X120410000Y-66613809D01*
X120410000Y-66613809D02*
X120362381Y-66518571D01*
X120362381Y-66518571D02*
X120267143Y-66470952D01*
X120267143Y-66470952D02*
X120076667Y-66470952D01*
X120076667Y-66470952D02*
X119981429Y-66518571D01*
X120410000Y-67090000D02*
X120314762Y-67137619D01*
X120314762Y-67137619D02*
X120076667Y-67137619D01*
X120076667Y-67137619D02*
X119981429Y-67090000D01*
X119981429Y-67090000D02*
X119933810Y-66994761D01*
X119933810Y-66994761D02*
X119933810Y-66899523D01*
X119933810Y-66899523D02*
X119981429Y-66804285D01*
X119981429Y-66804285D02*
X120076667Y-66756666D01*
X120076667Y-66756666D02*
X120314762Y-66756666D01*
X120314762Y-66756666D02*
X120410000Y-66709047D01*
X120886191Y-66470952D02*
X120886191Y-67470952D01*
X120886191Y-66518571D02*
X120981429Y-66470952D01*
X120981429Y-66470952D02*
X121171905Y-66470952D01*
X121171905Y-66470952D02*
X121267143Y-66518571D01*
X121267143Y-66518571D02*
X121314762Y-66566190D01*
X121314762Y-66566190D02*
X121362381Y-66661428D01*
X121362381Y-66661428D02*
X121362381Y-66947142D01*
X121362381Y-66947142D02*
X121314762Y-67042380D01*
X121314762Y-67042380D02*
X121267143Y-67090000D01*
X121267143Y-67090000D02*
X121171905Y-67137619D01*
X121171905Y-67137619D02*
X120981429Y-67137619D01*
X120981429Y-67137619D02*
X120886191Y-67090000D01*
X121648096Y-66470952D02*
X122029048Y-66470952D01*
X121790953Y-66137619D02*
X121790953Y-66994761D01*
X121790953Y-66994761D02*
X121838572Y-67090000D01*
X121838572Y-67090000D02*
X121933810Y-67137619D01*
X121933810Y-67137619D02*
X122029048Y-67137619D01*
X122505239Y-67137619D02*
X122410001Y-67090000D01*
X122410001Y-67090000D02*
X122362382Y-67042380D01*
X122362382Y-67042380D02*
X122314763Y-66947142D01*
X122314763Y-66947142D02*
X122314763Y-66661428D01*
X122314763Y-66661428D02*
X122362382Y-66566190D01*
X122362382Y-66566190D02*
X122410001Y-66518571D01*
X122410001Y-66518571D02*
X122505239Y-66470952D01*
X122505239Y-66470952D02*
X122648096Y-66470952D01*
X122648096Y-66470952D02*
X122743334Y-66518571D01*
X122743334Y-66518571D02*
X122790953Y-66566190D01*
X122790953Y-66566190D02*
X122838572Y-66661428D01*
X122838572Y-66661428D02*
X122838572Y-66947142D01*
X122838572Y-66947142D02*
X122790953Y-67042380D01*
X122790953Y-67042380D02*
X122743334Y-67090000D01*
X122743334Y-67090000D02*
X122648096Y-67137619D01*
X122648096Y-67137619D02*
X122505239Y-67137619D01*
X123267144Y-67137619D02*
X123267144Y-66470952D01*
X123267144Y-66661428D02*
X123314763Y-66566190D01*
X123314763Y-66566190D02*
X123362382Y-66518571D01*
X123362382Y-66518571D02*
X123457620Y-66470952D01*
X123457620Y-66470952D02*
X123552858Y-66470952D01*
X128843809Y-68730714D02*
X128891428Y-68587857D01*
X128891428Y-68587857D02*
X128939047Y-68540238D01*
X128939047Y-68540238D02*
X129034285Y-68492619D01*
X129034285Y-68492619D02*
X129177142Y-68492619D01*
X129177142Y-68492619D02*
X129272380Y-68540238D01*
X129272380Y-68540238D02*
X129320000Y-68587857D01*
X129320000Y-68587857D02*
X129367619Y-68683095D01*
X129367619Y-68683095D02*
X129367619Y-69064047D01*
X129367619Y-69064047D02*
X128367619Y-69064047D01*
X128367619Y-69064047D02*
X128367619Y-68730714D01*
X128367619Y-68730714D02*
X128415238Y-68635476D01*
X128415238Y-68635476D02*
X128462857Y-68587857D01*
X128462857Y-68587857D02*
X128558095Y-68540238D01*
X128558095Y-68540238D02*
X128653333Y-68540238D01*
X128653333Y-68540238D02*
X128748571Y-68587857D01*
X128748571Y-68587857D02*
X128796190Y-68635476D01*
X128796190Y-68635476D02*
X128843809Y-68730714D01*
X128843809Y-68730714D02*
X128843809Y-69064047D01*
X129367619Y-67587857D02*
X129367619Y-68064047D01*
X129367619Y-68064047D02*
X128367619Y-68064047D01*
X128843809Y-67254523D02*
X128843809Y-66921190D01*
X129367619Y-66778333D02*
X129367619Y-67254523D01*
X129367619Y-67254523D02*
X128367619Y-67254523D01*
X128367619Y-67254523D02*
X128367619Y-66778333D01*
X106457619Y-68280714D02*
X106362380Y-68233095D01*
X106362380Y-68233095D02*
X106171904Y-68233095D01*
X106171904Y-68233095D02*
X106076666Y-68280714D01*
X106076666Y-68280714D02*
X105981428Y-68375952D01*
X105981428Y-68375952D02*
X105933809Y-68471190D01*
X105933809Y-68471190D02*
X105933809Y-68661666D01*
X105933809Y-68661666D02*
X105981428Y-68756904D01*
X105981428Y-68756904D02*
X106076666Y-68852142D01*
X106076666Y-68852142D02*
X106171904Y-68899761D01*
X106171904Y-68899761D02*
X106362380Y-68899761D01*
X106362380Y-68899761D02*
X106457619Y-68852142D01*
X106267142Y-67899761D02*
X106029047Y-67947380D01*
X106029047Y-67947380D02*
X105790952Y-68090238D01*
X105790952Y-68090238D02*
X105648095Y-68328333D01*
X105648095Y-68328333D02*
X105600476Y-68566428D01*
X105600476Y-68566428D02*
X105648095Y-68804523D01*
X105648095Y-68804523D02*
X105790952Y-69042619D01*
X105790952Y-69042619D02*
X106029047Y-69185476D01*
X106029047Y-69185476D02*
X106267142Y-69233095D01*
X106267142Y-69233095D02*
X106505238Y-69185476D01*
X106505238Y-69185476D02*
X106743333Y-69042619D01*
X106743333Y-69042619D02*
X106886190Y-68804523D01*
X106886190Y-68804523D02*
X106933809Y-68566428D01*
X106933809Y-68566428D02*
X106886190Y-68328333D01*
X106886190Y-68328333D02*
X106743333Y-68090238D01*
X106743333Y-68090238D02*
X106505238Y-67947380D01*
X106505238Y-67947380D02*
X106267142Y-67899761D01*
X108457619Y-68518809D02*
X108600476Y-68566428D01*
X108600476Y-68566428D02*
X108648095Y-68614047D01*
X108648095Y-68614047D02*
X108695714Y-68709285D01*
X108695714Y-68709285D02*
X108695714Y-68852142D01*
X108695714Y-68852142D02*
X108648095Y-68947380D01*
X108648095Y-68947380D02*
X108600476Y-68995000D01*
X108600476Y-68995000D02*
X108505238Y-69042619D01*
X108505238Y-69042619D02*
X108124286Y-69042619D01*
X108124286Y-69042619D02*
X108124286Y-68042619D01*
X108124286Y-68042619D02*
X108457619Y-68042619D01*
X108457619Y-68042619D02*
X108552857Y-68090238D01*
X108552857Y-68090238D02*
X108600476Y-68137857D01*
X108600476Y-68137857D02*
X108648095Y-68233095D01*
X108648095Y-68233095D02*
X108648095Y-68328333D01*
X108648095Y-68328333D02*
X108600476Y-68423571D01*
X108600476Y-68423571D02*
X108552857Y-68471190D01*
X108552857Y-68471190D02*
X108457619Y-68518809D01*
X108457619Y-68518809D02*
X108124286Y-68518809D01*
X109648095Y-68090238D02*
X109552857Y-68042619D01*
X109552857Y-68042619D02*
X109410000Y-68042619D01*
X109410000Y-68042619D02*
X109267143Y-68090238D01*
X109267143Y-68090238D02*
X109171905Y-68185476D01*
X109171905Y-68185476D02*
X109124286Y-68280714D01*
X109124286Y-68280714D02*
X109076667Y-68471190D01*
X109076667Y-68471190D02*
X109076667Y-68614047D01*
X109076667Y-68614047D02*
X109124286Y-68804523D01*
X109124286Y-68804523D02*
X109171905Y-68899761D01*
X109171905Y-68899761D02*
X109267143Y-68995000D01*
X109267143Y-68995000D02*
X109410000Y-69042619D01*
X109410000Y-69042619D02*
X109505238Y-69042619D01*
X109505238Y-69042619D02*
X109648095Y-68995000D01*
X109648095Y-68995000D02*
X109695714Y-68947380D01*
X109695714Y-68947380D02*
X109695714Y-68614047D01*
X109695714Y-68614047D02*
X109505238Y-68614047D01*
X110552857Y-68042619D02*
X110362381Y-68042619D01*
X110362381Y-68042619D02*
X110267143Y-68090238D01*
X110267143Y-68090238D02*
X110219524Y-68137857D01*
X110219524Y-68137857D02*
X110124286Y-68280714D01*
X110124286Y-68280714D02*
X110076667Y-68471190D01*
X110076667Y-68471190D02*
X110076667Y-68852142D01*
X110076667Y-68852142D02*
X110124286Y-68947380D01*
X110124286Y-68947380D02*
X110171905Y-68995000D01*
X110171905Y-68995000D02*
X110267143Y-69042619D01*
X110267143Y-69042619D02*
X110457619Y-69042619D01*
X110457619Y-69042619D02*
X110552857Y-68995000D01*
X110552857Y-68995000D02*
X110600476Y-68947380D01*
X110600476Y-68947380D02*
X110648095Y-68852142D01*
X110648095Y-68852142D02*
X110648095Y-68614047D01*
X110648095Y-68614047D02*
X110600476Y-68518809D01*
X110600476Y-68518809D02*
X110552857Y-68471190D01*
X110552857Y-68471190D02*
X110457619Y-68423571D01*
X110457619Y-68423571D02*
X110267143Y-68423571D01*
X110267143Y-68423571D02*
X110171905Y-68471190D01*
X110171905Y-68471190D02*
X110124286Y-68518809D01*
X110124286Y-68518809D02*
X110076667Y-68614047D01*
X111552857Y-69042619D02*
X111076667Y-69042619D01*
X111076667Y-69042619D02*
X111076667Y-68042619D01*
X111886191Y-69042619D02*
X111886191Y-68042619D01*
X111886191Y-68518809D02*
X112457619Y-68518809D01*
X112457619Y-69042619D02*
X112457619Y-68042619D01*
X113600477Y-68375952D02*
X113838572Y-69042619D01*
X113838572Y-69042619D02*
X114076667Y-68375952D01*
X114410001Y-68137857D02*
X114457620Y-68090238D01*
X114457620Y-68090238D02*
X114552858Y-68042619D01*
X114552858Y-68042619D02*
X114790953Y-68042619D01*
X114790953Y-68042619D02*
X114886191Y-68090238D01*
X114886191Y-68090238D02*
X114933810Y-68137857D01*
X114933810Y-68137857D02*
X114981429Y-68233095D01*
X114981429Y-68233095D02*
X114981429Y-68328333D01*
X114981429Y-68328333D02*
X114933810Y-68471190D01*
X114933810Y-68471190D02*
X114362382Y-69042619D01*
X114362382Y-69042619D02*
X114981429Y-69042619D01*
X115600477Y-68042619D02*
X115695715Y-68042619D01*
X115695715Y-68042619D02*
X115790953Y-68090238D01*
X115790953Y-68090238D02*
X115838572Y-68137857D01*
X115838572Y-68137857D02*
X115886191Y-68233095D01*
X115886191Y-68233095D02*
X115933810Y-68423571D01*
X115933810Y-68423571D02*
X115933810Y-68661666D01*
X115933810Y-68661666D02*
X115886191Y-68852142D01*
X115886191Y-68852142D02*
X115838572Y-68947380D01*
X115838572Y-68947380D02*
X115790953Y-68995000D01*
X115790953Y-68995000D02*
X115695715Y-69042619D01*
X115695715Y-69042619D02*
X115600477Y-69042619D01*
X115600477Y-69042619D02*
X115505239Y-68995000D01*
X115505239Y-68995000D02*
X115457620Y-68947380D01*
X115457620Y-68947380D02*
X115410001Y-68852142D01*
X115410001Y-68852142D02*
X115362382Y-68661666D01*
X115362382Y-68661666D02*
X115362382Y-68423571D01*
X115362382Y-68423571D02*
X115410001Y-68233095D01*
X115410001Y-68233095D02*
X115457620Y-68137857D01*
X115457620Y-68137857D02*
X115505239Y-68090238D01*
X115505239Y-68090238D02*
X115600477Y-68042619D01*
X116314763Y-68137857D02*
X116362382Y-68090238D01*
X116362382Y-68090238D02*
X116457620Y-68042619D01*
X116457620Y-68042619D02*
X116695715Y-68042619D01*
X116695715Y-68042619D02*
X116790953Y-68090238D01*
X116790953Y-68090238D02*
X116838572Y-68137857D01*
X116838572Y-68137857D02*
X116886191Y-68233095D01*
X116886191Y-68233095D02*
X116886191Y-68328333D01*
X116886191Y-68328333D02*
X116838572Y-68471190D01*
X116838572Y-68471190D02*
X116267144Y-69042619D01*
X116267144Y-69042619D02*
X116886191Y-69042619D01*
X117219525Y-68042619D02*
X117838572Y-68042619D01*
X117838572Y-68042619D02*
X117505239Y-68423571D01*
X117505239Y-68423571D02*
X117648096Y-68423571D01*
X117648096Y-68423571D02*
X117743334Y-68471190D01*
X117743334Y-68471190D02*
X117790953Y-68518809D01*
X117790953Y-68518809D02*
X117838572Y-68614047D01*
X117838572Y-68614047D02*
X117838572Y-68852142D01*
X117838572Y-68852142D02*
X117790953Y-68947380D01*
X117790953Y-68947380D02*
X117743334Y-68995000D01*
X117743334Y-68995000D02*
X117648096Y-69042619D01*
X117648096Y-69042619D02*
X117362382Y-69042619D01*
X117362382Y-69042619D02*
X117267144Y-68995000D01*
X117267144Y-68995000D02*
X117219525Y-68947380D01*
X118457620Y-68042619D02*
X118552858Y-68042619D01*
X118552858Y-68042619D02*
X118648096Y-68090238D01*
X118648096Y-68090238D02*
X118695715Y-68137857D01*
X118695715Y-68137857D02*
X118743334Y-68233095D01*
X118743334Y-68233095D02*
X118790953Y-68423571D01*
X118790953Y-68423571D02*
X118790953Y-68661666D01*
X118790953Y-68661666D02*
X118743334Y-68852142D01*
X118743334Y-68852142D02*
X118695715Y-68947380D01*
X118695715Y-68947380D02*
X118648096Y-68995000D01*
X118648096Y-68995000D02*
X118552858Y-69042619D01*
X118552858Y-69042619D02*
X118457620Y-69042619D01*
X118457620Y-69042619D02*
X118362382Y-68995000D01*
X118362382Y-68995000D02*
X118314763Y-68947380D01*
X118314763Y-68947380D02*
X118267144Y-68852142D01*
X118267144Y-68852142D02*
X118219525Y-68661666D01*
X118219525Y-68661666D02*
X118219525Y-68423571D01*
X118219525Y-68423571D02*
X118267144Y-68233095D01*
X118267144Y-68233095D02*
X118314763Y-68137857D01*
X118314763Y-68137857D02*
X118362382Y-68090238D01*
X118362382Y-68090238D02*
X118457620Y-68042619D01*
X119695715Y-68042619D02*
X119219525Y-68042619D01*
X119219525Y-68042619D02*
X119171906Y-68518809D01*
X119171906Y-68518809D02*
X119219525Y-68471190D01*
X119219525Y-68471190D02*
X119314763Y-68423571D01*
X119314763Y-68423571D02*
X119552858Y-68423571D01*
X119552858Y-68423571D02*
X119648096Y-68471190D01*
X119648096Y-68471190D02*
X119695715Y-68518809D01*
X119695715Y-68518809D02*
X119743334Y-68614047D01*
X119743334Y-68614047D02*
X119743334Y-68852142D01*
X119743334Y-68852142D02*
X119695715Y-68947380D01*
X119695715Y-68947380D02*
X119648096Y-68995000D01*
X119648096Y-68995000D02*
X119552858Y-69042619D01*
X119552858Y-69042619D02*
X119314763Y-69042619D01*
X119314763Y-69042619D02*
X119219525Y-68995000D01*
X119219525Y-68995000D02*
X119171906Y-68947380D01*
X120695715Y-69042619D02*
X120124287Y-69042619D01*
X120410001Y-69042619D02*
X120410001Y-68042619D01*
X120410001Y-68042619D02*
X120314763Y-68185476D01*
X120314763Y-68185476D02*
X120219525Y-68280714D01*
X120219525Y-68280714D02*
X120124287Y-68328333D01*
X121029049Y-68042619D02*
X121695715Y-68042619D01*
X121695715Y-68042619D02*
X121267144Y-69042619D01*
X106219523Y-70852380D02*
X106171904Y-70900000D01*
X106171904Y-70900000D02*
X106029047Y-70947619D01*
X106029047Y-70947619D02*
X105933809Y-70947619D01*
X105933809Y-70947619D02*
X105790952Y-70900000D01*
X105790952Y-70900000D02*
X105695714Y-70804761D01*
X105695714Y-70804761D02*
X105648095Y-70709523D01*
X105648095Y-70709523D02*
X105600476Y-70519047D01*
X105600476Y-70519047D02*
X105600476Y-70376190D01*
X105600476Y-70376190D02*
X105648095Y-70185714D01*
X105648095Y-70185714D02*
X105695714Y-70090476D01*
X105695714Y-70090476D02*
X105790952Y-69995238D01*
X105790952Y-69995238D02*
X105933809Y-69947619D01*
X105933809Y-69947619D02*
X106029047Y-69947619D01*
X106029047Y-69947619D02*
X106171904Y-69995238D01*
X106171904Y-69995238D02*
X106219523Y-70042857D01*
X107219523Y-70852380D02*
X107171904Y-70900000D01*
X107171904Y-70900000D02*
X107029047Y-70947619D01*
X107029047Y-70947619D02*
X106933809Y-70947619D01*
X106933809Y-70947619D02*
X106790952Y-70900000D01*
X106790952Y-70900000D02*
X106695714Y-70804761D01*
X106695714Y-70804761D02*
X106648095Y-70709523D01*
X106648095Y-70709523D02*
X106600476Y-70519047D01*
X106600476Y-70519047D02*
X106600476Y-70376190D01*
X106600476Y-70376190D02*
X106648095Y-70185714D01*
X106648095Y-70185714D02*
X106695714Y-70090476D01*
X106695714Y-70090476D02*
X106790952Y-69995238D01*
X106790952Y-69995238D02*
X106933809Y-69947619D01*
X106933809Y-69947619D02*
X107029047Y-69947619D01*
X107029047Y-69947619D02*
X107171904Y-69995238D01*
X107171904Y-69995238D02*
X107219523Y-70042857D01*
X107648095Y-70566666D02*
X108410000Y-70566666D01*
X109219523Y-70423809D02*
X109362380Y-70471428D01*
X109362380Y-70471428D02*
X109409999Y-70519047D01*
X109409999Y-70519047D02*
X109457618Y-70614285D01*
X109457618Y-70614285D02*
X109457618Y-70757142D01*
X109457618Y-70757142D02*
X109409999Y-70852380D01*
X109409999Y-70852380D02*
X109362380Y-70900000D01*
X109362380Y-70900000D02*
X109267142Y-70947619D01*
X109267142Y-70947619D02*
X108886190Y-70947619D01*
X108886190Y-70947619D02*
X108886190Y-69947619D01*
X108886190Y-69947619D02*
X109219523Y-69947619D01*
X109219523Y-69947619D02*
X109314761Y-69995238D01*
X109314761Y-69995238D02*
X109362380Y-70042857D01*
X109362380Y-70042857D02*
X109409999Y-70138095D01*
X109409999Y-70138095D02*
X109409999Y-70233333D01*
X109409999Y-70233333D02*
X109362380Y-70328571D01*
X109362380Y-70328571D02*
X109314761Y-70376190D01*
X109314761Y-70376190D02*
X109219523Y-70423809D01*
X109219523Y-70423809D02*
X108886190Y-70423809D01*
X110076666Y-70471428D02*
X110076666Y-70947619D01*
X109743333Y-69947619D02*
X110076666Y-70471428D01*
X110076666Y-70471428D02*
X110409999Y-69947619D01*
X110743333Y-70566666D02*
X111505238Y-70566666D01*
X111981428Y-70947619D02*
X111981428Y-69947619D01*
X111981428Y-69947619D02*
X112552856Y-70947619D01*
X112552856Y-70947619D02*
X112552856Y-69947619D01*
X113600475Y-70852380D02*
X113552856Y-70900000D01*
X113552856Y-70900000D02*
X113409999Y-70947619D01*
X113409999Y-70947619D02*
X113314761Y-70947619D01*
X113314761Y-70947619D02*
X113171904Y-70900000D01*
X113171904Y-70900000D02*
X113076666Y-70804761D01*
X113076666Y-70804761D02*
X113029047Y-70709523D01*
X113029047Y-70709523D02*
X112981428Y-70519047D01*
X112981428Y-70519047D02*
X112981428Y-70376190D01*
X112981428Y-70376190D02*
X113029047Y-70185714D01*
X113029047Y-70185714D02*
X113076666Y-70090476D01*
X113076666Y-70090476D02*
X113171904Y-69995238D01*
X113171904Y-69995238D02*
X113314761Y-69947619D01*
X113314761Y-69947619D02*
X113409999Y-69947619D01*
X113409999Y-69947619D02*
X113552856Y-69995238D01*
X113552856Y-69995238D02*
X113600475Y-70042857D01*
X114029047Y-70566666D02*
X114790952Y-70566666D01*
X115219523Y-70900000D02*
X115362380Y-70947619D01*
X115362380Y-70947619D02*
X115600475Y-70947619D01*
X115600475Y-70947619D02*
X115695713Y-70900000D01*
X115695713Y-70900000D02*
X115743332Y-70852380D01*
X115743332Y-70852380D02*
X115790951Y-70757142D01*
X115790951Y-70757142D02*
X115790951Y-70661904D01*
X115790951Y-70661904D02*
X115743332Y-70566666D01*
X115743332Y-70566666D02*
X115695713Y-70519047D01*
X115695713Y-70519047D02*
X115600475Y-70471428D01*
X115600475Y-70471428D02*
X115409999Y-70423809D01*
X115409999Y-70423809D02*
X115314761Y-70376190D01*
X115314761Y-70376190D02*
X115267142Y-70328571D01*
X115267142Y-70328571D02*
X115219523Y-70233333D01*
X115219523Y-70233333D02*
X115219523Y-70138095D01*
X115219523Y-70138095D02*
X115267142Y-70042857D01*
X115267142Y-70042857D02*
X115314761Y-69995238D01*
X115314761Y-69995238D02*
X115409999Y-69947619D01*
X115409999Y-69947619D02*
X115648094Y-69947619D01*
X115648094Y-69947619D02*
X115790951Y-69995238D01*
X116171904Y-70661904D02*
X116648094Y-70661904D01*
X116076666Y-70947619D02*
X116409999Y-69947619D01*
X116409999Y-69947619D02*
X116743332Y-70947619D01*
X118267142Y-70280952D02*
X118267142Y-70947619D01*
X118029047Y-69900000D02*
X117790952Y-70614285D01*
X117790952Y-70614285D02*
X118409999Y-70614285D01*
X118790952Y-70852380D02*
X118838571Y-70900000D01*
X118838571Y-70900000D02*
X118790952Y-70947619D01*
X118790952Y-70947619D02*
X118743333Y-70900000D01*
X118743333Y-70900000D02*
X118790952Y-70852380D01*
X118790952Y-70852380D02*
X118790952Y-70947619D01*
X119457618Y-69947619D02*
X119552856Y-69947619D01*
X119552856Y-69947619D02*
X119648094Y-69995238D01*
X119648094Y-69995238D02*
X119695713Y-70042857D01*
X119695713Y-70042857D02*
X119743332Y-70138095D01*
X119743332Y-70138095D02*
X119790951Y-70328571D01*
X119790951Y-70328571D02*
X119790951Y-70566666D01*
X119790951Y-70566666D02*
X119743332Y-70757142D01*
X119743332Y-70757142D02*
X119695713Y-70852380D01*
X119695713Y-70852380D02*
X119648094Y-70900000D01*
X119648094Y-70900000D02*
X119552856Y-70947619D01*
X119552856Y-70947619D02*
X119457618Y-70947619D01*
X119457618Y-70947619D02*
X119362380Y-70900000D01*
X119362380Y-70900000D02*
X119314761Y-70852380D01*
X119314761Y-70852380D02*
X119267142Y-70757142D01*
X119267142Y-70757142D02*
X119219523Y-70566666D01*
X119219523Y-70566666D02*
X119219523Y-70328571D01*
X119219523Y-70328571D02*
X119267142Y-70138095D01*
X119267142Y-70138095D02*
X119314761Y-70042857D01*
X119314761Y-70042857D02*
X119362380Y-69995238D01*
X119362380Y-69995238D02*
X119457618Y-69947619D01*
D12*
X92711664Y-80888190D02*
X92635474Y-80850095D01*
X92635474Y-80850095D02*
X92521188Y-80850095D01*
X92521188Y-80850095D02*
X92406902Y-80888190D01*
X92406902Y-80888190D02*
X92330712Y-80964380D01*
X92330712Y-80964380D02*
X92292617Y-81040571D01*
X92292617Y-81040571D02*
X92254521Y-81192952D01*
X92254521Y-81192952D02*
X92254521Y-81307238D01*
X92254521Y-81307238D02*
X92292617Y-81459619D01*
X92292617Y-81459619D02*
X92330712Y-81535809D01*
X92330712Y-81535809D02*
X92406902Y-81612000D01*
X92406902Y-81612000D02*
X92521188Y-81650095D01*
X92521188Y-81650095D02*
X92597379Y-81650095D01*
X92597379Y-81650095D02*
X92711664Y-81612000D01*
X92711664Y-81612000D02*
X92749760Y-81573904D01*
X92749760Y-81573904D02*
X92749760Y-81307238D01*
X92749760Y-81307238D02*
X92597379Y-81307238D01*
X93092617Y-81650095D02*
X93092617Y-81116761D01*
X93092617Y-81269142D02*
X93130712Y-81192952D01*
X93130712Y-81192952D02*
X93168807Y-81154857D01*
X93168807Y-81154857D02*
X93244998Y-81116761D01*
X93244998Y-81116761D02*
X93321188Y-81116761D01*
X93587855Y-81650095D02*
X93587855Y-81116761D01*
X93587855Y-80850095D02*
X93549759Y-80888190D01*
X93549759Y-80888190D02*
X93587855Y-80926285D01*
X93587855Y-80926285D02*
X93625950Y-80888190D01*
X93625950Y-80888190D02*
X93587855Y-80850095D01*
X93587855Y-80850095D02*
X93587855Y-80926285D01*
X94311664Y-81650095D02*
X94311664Y-80850095D01*
X94311664Y-81612000D02*
X94235473Y-81650095D01*
X94235473Y-81650095D02*
X94083092Y-81650095D01*
X94083092Y-81650095D02*
X94006902Y-81612000D01*
X94006902Y-81612000D02*
X93968807Y-81573904D01*
X93968807Y-81573904D02*
X93930711Y-81497714D01*
X93930711Y-81497714D02*
X93930711Y-81269142D01*
X93930711Y-81269142D02*
X93968807Y-81192952D01*
X93968807Y-81192952D02*
X94006902Y-81154857D01*
X94006902Y-81154857D02*
X94083092Y-81116761D01*
X94083092Y-81116761D02*
X94235473Y-81116761D01*
X94235473Y-81116761D02*
X94311664Y-81154857D01*
X95454522Y-80850095D02*
X95530712Y-80850095D01*
X95530712Y-80850095D02*
X95606903Y-80888190D01*
X95606903Y-80888190D02*
X95644998Y-80926285D01*
X95644998Y-80926285D02*
X95683093Y-81002476D01*
X95683093Y-81002476D02*
X95721188Y-81154857D01*
X95721188Y-81154857D02*
X95721188Y-81345333D01*
X95721188Y-81345333D02*
X95683093Y-81497714D01*
X95683093Y-81497714D02*
X95644998Y-81573904D01*
X95644998Y-81573904D02*
X95606903Y-81612000D01*
X95606903Y-81612000D02*
X95530712Y-81650095D01*
X95530712Y-81650095D02*
X95454522Y-81650095D01*
X95454522Y-81650095D02*
X95378331Y-81612000D01*
X95378331Y-81612000D02*
X95340236Y-81573904D01*
X95340236Y-81573904D02*
X95302141Y-81497714D01*
X95302141Y-81497714D02*
X95264045Y-81345333D01*
X95264045Y-81345333D02*
X95264045Y-81154857D01*
X95264045Y-81154857D02*
X95302141Y-81002476D01*
X95302141Y-81002476D02*
X95340236Y-80926285D01*
X95340236Y-80926285D02*
X95378331Y-80888190D01*
X95378331Y-80888190D02*
X95454522Y-80850095D01*
X96064046Y-81573904D02*
X96102141Y-81612000D01*
X96102141Y-81612000D02*
X96064046Y-81650095D01*
X96064046Y-81650095D02*
X96025950Y-81612000D01*
X96025950Y-81612000D02*
X96064046Y-81573904D01*
X96064046Y-81573904D02*
X96064046Y-81650095D01*
X96787855Y-80850095D02*
X96635474Y-80850095D01*
X96635474Y-80850095D02*
X96559283Y-80888190D01*
X96559283Y-80888190D02*
X96521188Y-80926285D01*
X96521188Y-80926285D02*
X96444998Y-81040571D01*
X96444998Y-81040571D02*
X96406902Y-81192952D01*
X96406902Y-81192952D02*
X96406902Y-81497714D01*
X96406902Y-81497714D02*
X96444998Y-81573904D01*
X96444998Y-81573904D02*
X96483093Y-81612000D01*
X96483093Y-81612000D02*
X96559283Y-81650095D01*
X96559283Y-81650095D02*
X96711664Y-81650095D01*
X96711664Y-81650095D02*
X96787855Y-81612000D01*
X96787855Y-81612000D02*
X96825950Y-81573904D01*
X96825950Y-81573904D02*
X96864045Y-81497714D01*
X96864045Y-81497714D02*
X96864045Y-81307238D01*
X96864045Y-81307238D02*
X96825950Y-81231047D01*
X96825950Y-81231047D02*
X96787855Y-81192952D01*
X96787855Y-81192952D02*
X96711664Y-81154857D01*
X96711664Y-81154857D02*
X96559283Y-81154857D01*
X96559283Y-81154857D02*
X96483093Y-81192952D01*
X96483093Y-81192952D02*
X96444998Y-81231047D01*
X96444998Y-81231047D02*
X96406902Y-81307238D01*
X97130712Y-80850095D02*
X97625950Y-80850095D01*
X97625950Y-80850095D02*
X97359284Y-81154857D01*
X97359284Y-81154857D02*
X97473569Y-81154857D01*
X97473569Y-81154857D02*
X97549760Y-81192952D01*
X97549760Y-81192952D02*
X97587855Y-81231047D01*
X97587855Y-81231047D02*
X97625950Y-81307238D01*
X97625950Y-81307238D02*
X97625950Y-81497714D01*
X97625950Y-81497714D02*
X97587855Y-81573904D01*
X97587855Y-81573904D02*
X97549760Y-81612000D01*
X97549760Y-81612000D02*
X97473569Y-81650095D01*
X97473569Y-81650095D02*
X97244998Y-81650095D01*
X97244998Y-81650095D02*
X97168807Y-81612000D01*
X97168807Y-81612000D02*
X97130712Y-81573904D01*
X98349760Y-80850095D02*
X97968808Y-80850095D01*
X97968808Y-80850095D02*
X97930712Y-81231047D01*
X97930712Y-81231047D02*
X97968808Y-81192952D01*
X97968808Y-81192952D02*
X98044998Y-81154857D01*
X98044998Y-81154857D02*
X98235474Y-81154857D01*
X98235474Y-81154857D02*
X98311665Y-81192952D01*
X98311665Y-81192952D02*
X98349760Y-81231047D01*
X98349760Y-81231047D02*
X98387855Y-81307238D01*
X98387855Y-81307238D02*
X98387855Y-81497714D01*
X98387855Y-81497714D02*
X98349760Y-81573904D01*
X98349760Y-81573904D02*
X98311665Y-81612000D01*
X98311665Y-81612000D02*
X98235474Y-81650095D01*
X98235474Y-81650095D02*
X98044998Y-81650095D01*
X98044998Y-81650095D02*
X97968808Y-81612000D01*
X97968808Y-81612000D02*
X97930712Y-81573904D01*
X98730713Y-81650095D02*
X98730713Y-81116761D01*
X98730713Y-81192952D02*
X98768808Y-81154857D01*
X98768808Y-81154857D02*
X98844998Y-81116761D01*
X98844998Y-81116761D02*
X98959284Y-81116761D01*
X98959284Y-81116761D02*
X99035475Y-81154857D01*
X99035475Y-81154857D02*
X99073570Y-81231047D01*
X99073570Y-81231047D02*
X99073570Y-81650095D01*
X99073570Y-81231047D02*
X99111665Y-81154857D01*
X99111665Y-81154857D02*
X99187856Y-81116761D01*
X99187856Y-81116761D02*
X99302141Y-81116761D01*
X99302141Y-81116761D02*
X99378332Y-81154857D01*
X99378332Y-81154857D02*
X99416427Y-81231047D01*
X99416427Y-81231047D02*
X99416427Y-81650095D01*
X99797380Y-81650095D02*
X99797380Y-81116761D01*
X99797380Y-81192952D02*
X99835475Y-81154857D01*
X99835475Y-81154857D02*
X99911665Y-81116761D01*
X99911665Y-81116761D02*
X100025951Y-81116761D01*
X100025951Y-81116761D02*
X100102142Y-81154857D01*
X100102142Y-81154857D02*
X100140237Y-81231047D01*
X100140237Y-81231047D02*
X100140237Y-81650095D01*
X100140237Y-81231047D02*
X100178332Y-81154857D01*
X100178332Y-81154857D02*
X100254523Y-81116761D01*
X100254523Y-81116761D02*
X100368808Y-81116761D01*
X100368808Y-81116761D02*
X100444999Y-81154857D01*
X100444999Y-81154857D02*
X100483094Y-81231047D01*
X100483094Y-81231047D02*
X100483094Y-81650095D01*
X101435475Y-80812000D02*
X100749761Y-81840571D01*
X101854523Y-80850095D02*
X101930713Y-80850095D01*
X101930713Y-80850095D02*
X102006904Y-80888190D01*
X102006904Y-80888190D02*
X102044999Y-80926285D01*
X102044999Y-80926285D02*
X102083094Y-81002476D01*
X102083094Y-81002476D02*
X102121189Y-81154857D01*
X102121189Y-81154857D02*
X102121189Y-81345333D01*
X102121189Y-81345333D02*
X102083094Y-81497714D01*
X102083094Y-81497714D02*
X102044999Y-81573904D01*
X102044999Y-81573904D02*
X102006904Y-81612000D01*
X102006904Y-81612000D02*
X101930713Y-81650095D01*
X101930713Y-81650095D02*
X101854523Y-81650095D01*
X101854523Y-81650095D02*
X101778332Y-81612000D01*
X101778332Y-81612000D02*
X101740237Y-81573904D01*
X101740237Y-81573904D02*
X101702142Y-81497714D01*
X101702142Y-81497714D02*
X101664046Y-81345333D01*
X101664046Y-81345333D02*
X101664046Y-81154857D01*
X101664046Y-81154857D02*
X101702142Y-81002476D01*
X101702142Y-81002476D02*
X101740237Y-80926285D01*
X101740237Y-80926285D02*
X101778332Y-80888190D01*
X101778332Y-80888190D02*
X101854523Y-80850095D01*
X102464047Y-81573904D02*
X102502142Y-81612000D01*
X102502142Y-81612000D02*
X102464047Y-81650095D01*
X102464047Y-81650095D02*
X102425951Y-81612000D01*
X102425951Y-81612000D02*
X102464047Y-81573904D01*
X102464047Y-81573904D02*
X102464047Y-81650095D01*
X102997380Y-80850095D02*
X103073570Y-80850095D01*
X103073570Y-80850095D02*
X103149761Y-80888190D01*
X103149761Y-80888190D02*
X103187856Y-80926285D01*
X103187856Y-80926285D02*
X103225951Y-81002476D01*
X103225951Y-81002476D02*
X103264046Y-81154857D01*
X103264046Y-81154857D02*
X103264046Y-81345333D01*
X103264046Y-81345333D02*
X103225951Y-81497714D01*
X103225951Y-81497714D02*
X103187856Y-81573904D01*
X103187856Y-81573904D02*
X103149761Y-81612000D01*
X103149761Y-81612000D02*
X103073570Y-81650095D01*
X103073570Y-81650095D02*
X102997380Y-81650095D01*
X102997380Y-81650095D02*
X102921189Y-81612000D01*
X102921189Y-81612000D02*
X102883094Y-81573904D01*
X102883094Y-81573904D02*
X102844999Y-81497714D01*
X102844999Y-81497714D02*
X102806903Y-81345333D01*
X102806903Y-81345333D02*
X102806903Y-81154857D01*
X102806903Y-81154857D02*
X102844999Y-81002476D01*
X102844999Y-81002476D02*
X102883094Y-80926285D01*
X102883094Y-80926285D02*
X102921189Y-80888190D01*
X102921189Y-80888190D02*
X102997380Y-80850095D01*
X103568808Y-80926285D02*
X103606904Y-80888190D01*
X103606904Y-80888190D02*
X103683094Y-80850095D01*
X103683094Y-80850095D02*
X103873570Y-80850095D01*
X103873570Y-80850095D02*
X103949761Y-80888190D01*
X103949761Y-80888190D02*
X103987856Y-80926285D01*
X103987856Y-80926285D02*
X104025951Y-81002476D01*
X104025951Y-81002476D02*
X104025951Y-81078666D01*
X104025951Y-81078666D02*
X103987856Y-81192952D01*
X103987856Y-81192952D02*
X103530713Y-81650095D01*
X103530713Y-81650095D02*
X104025951Y-81650095D01*
X104749761Y-80850095D02*
X104368809Y-80850095D01*
X104368809Y-80850095D02*
X104330713Y-81231047D01*
X104330713Y-81231047D02*
X104368809Y-81192952D01*
X104368809Y-81192952D02*
X104444999Y-81154857D01*
X104444999Y-81154857D02*
X104635475Y-81154857D01*
X104635475Y-81154857D02*
X104711666Y-81192952D01*
X104711666Y-81192952D02*
X104749761Y-81231047D01*
X104749761Y-81231047D02*
X104787856Y-81307238D01*
X104787856Y-81307238D02*
X104787856Y-81497714D01*
X104787856Y-81497714D02*
X104749761Y-81573904D01*
X104749761Y-81573904D02*
X104711666Y-81612000D01*
X104711666Y-81612000D02*
X104635475Y-81650095D01*
X104635475Y-81650095D02*
X104444999Y-81650095D01*
X104444999Y-81650095D02*
X104368809Y-81612000D01*
X104368809Y-81612000D02*
X104330713Y-81573904D01*
X105130714Y-81650095D02*
X105130714Y-81116761D01*
X105130714Y-80850095D02*
X105092618Y-80888190D01*
X105092618Y-80888190D02*
X105130714Y-80926285D01*
X105130714Y-80926285D02*
X105168809Y-80888190D01*
X105168809Y-80888190D02*
X105130714Y-80850095D01*
X105130714Y-80850095D02*
X105130714Y-80926285D01*
X105511666Y-81116761D02*
X105511666Y-81650095D01*
X105511666Y-81192952D02*
X105549761Y-81154857D01*
X105549761Y-81154857D02*
X105625951Y-81116761D01*
X105625951Y-81116761D02*
X105740237Y-81116761D01*
X105740237Y-81116761D02*
X105816428Y-81154857D01*
X105816428Y-81154857D02*
X105854523Y-81231047D01*
X105854523Y-81231047D02*
X105854523Y-81650095D01*
D10*
X125827619Y-69206904D02*
X125827619Y-68635476D01*
X126827619Y-68921190D02*
X125827619Y-68921190D01*
X125827619Y-68397380D02*
X126827619Y-67730714D01*
X125827619Y-67730714D02*
X126827619Y-68397380D01*
X126827619Y-67349761D02*
X125827619Y-67349761D01*
X125827619Y-67349761D02*
X125827619Y-67111666D01*
X125827619Y-67111666D02*
X125875238Y-66968809D01*
X125875238Y-66968809D02*
X125970476Y-66873571D01*
X125970476Y-66873571D02*
X126065714Y-66825952D01*
X126065714Y-66825952D02*
X126256190Y-66778333D01*
X126256190Y-66778333D02*
X126399047Y-66778333D01*
X126399047Y-66778333D02*
X126589523Y-66825952D01*
X126589523Y-66825952D02*
X126684761Y-66873571D01*
X126684761Y-66873571D02*
X126780000Y-66968809D01*
X126780000Y-66968809D02*
X126827619Y-67111666D01*
X126827619Y-67111666D02*
X126827619Y-67349761D01*
X131621904Y-69206904D02*
X131621904Y-68730714D01*
X131907619Y-69302142D02*
X130907619Y-68968809D01*
X130907619Y-68968809D02*
X131907619Y-68635476D01*
X130907619Y-68302142D02*
X131717142Y-68302142D01*
X131717142Y-68302142D02*
X131812380Y-68254523D01*
X131812380Y-68254523D02*
X131860000Y-68206904D01*
X131860000Y-68206904D02*
X131907619Y-68111666D01*
X131907619Y-68111666D02*
X131907619Y-67921190D01*
X131907619Y-67921190D02*
X131860000Y-67825952D01*
X131860000Y-67825952D02*
X131812380Y-67778333D01*
X131812380Y-67778333D02*
X131717142Y-67730714D01*
X131717142Y-67730714D02*
X130907619Y-67730714D01*
X131907619Y-67254523D02*
X130907619Y-67254523D01*
X130907619Y-67254523D02*
X130907619Y-67016428D01*
X130907619Y-67016428D02*
X130955238Y-66873571D01*
X130955238Y-66873571D02*
X131050476Y-66778333D01*
X131050476Y-66778333D02*
X131145714Y-66730714D01*
X131145714Y-66730714D02*
X131336190Y-66683095D01*
X131336190Y-66683095D02*
X131479047Y-66683095D01*
X131479047Y-66683095D02*
X131669523Y-66730714D01*
X131669523Y-66730714D02*
X131764761Y-66778333D01*
X131764761Y-66778333D02*
X131860000Y-66873571D01*
X131860000Y-66873571D02*
X131907619Y-67016428D01*
X131907619Y-67016428D02*
X131907619Y-67254523D01*
%TO.C,C1*%
X170013333Y-80377380D02*
X169965714Y-80425000D01*
X169965714Y-80425000D02*
X169822857Y-80472619D01*
X169822857Y-80472619D02*
X169727619Y-80472619D01*
X169727619Y-80472619D02*
X169584762Y-80425000D01*
X169584762Y-80425000D02*
X169489524Y-80329761D01*
X169489524Y-80329761D02*
X169441905Y-80234523D01*
X169441905Y-80234523D02*
X169394286Y-80044047D01*
X169394286Y-80044047D02*
X169394286Y-79901190D01*
X169394286Y-79901190D02*
X169441905Y-79710714D01*
X169441905Y-79710714D02*
X169489524Y-79615476D01*
X169489524Y-79615476D02*
X169584762Y-79520238D01*
X169584762Y-79520238D02*
X169727619Y-79472619D01*
X169727619Y-79472619D02*
X169822857Y-79472619D01*
X169822857Y-79472619D02*
X169965714Y-79520238D01*
X169965714Y-79520238D02*
X170013333Y-79567857D01*
X170965714Y-80472619D02*
X170394286Y-80472619D01*
X170680000Y-80472619D02*
X170680000Y-79472619D01*
X170680000Y-79472619D02*
X170584762Y-79615476D01*
X170584762Y-79615476D02*
X170489524Y-79710714D01*
X170489524Y-79710714D02*
X170394286Y-79758333D01*
D12*
%TO.C,J1009*%
X177474857Y-65892619D02*
X178141523Y-65892619D01*
X178141523Y-65892619D02*
X177712952Y-66892619D01*
X174363285Y-69235619D02*
X173887095Y-69235619D01*
X173887095Y-69235619D02*
X173839476Y-69711809D01*
X173839476Y-69711809D02*
X173887095Y-69664190D01*
X173887095Y-69664190D02*
X173982333Y-69616571D01*
X173982333Y-69616571D02*
X174220428Y-69616571D01*
X174220428Y-69616571D02*
X174315666Y-69664190D01*
X174315666Y-69664190D02*
X174363285Y-69711809D01*
X174363285Y-69711809D02*
X174410904Y-69807047D01*
X174410904Y-69807047D02*
X174410904Y-70045142D01*
X174410904Y-70045142D02*
X174363285Y-70140380D01*
X174363285Y-70140380D02*
X174315666Y-70188000D01*
X174315666Y-70188000D02*
X174220428Y-70235619D01*
X174220428Y-70235619D02*
X173982333Y-70235619D01*
X173982333Y-70235619D02*
X173887095Y-70188000D01*
X173887095Y-70188000D02*
X173839476Y-70140380D01*
X180006666Y-65892619D02*
X179816190Y-65892619D01*
X179816190Y-65892619D02*
X179720952Y-65940238D01*
X179720952Y-65940238D02*
X179673333Y-65987857D01*
X179673333Y-65987857D02*
X179578095Y-66130714D01*
X179578095Y-66130714D02*
X179530476Y-66321190D01*
X179530476Y-66321190D02*
X179530476Y-66702142D01*
X179530476Y-66702142D02*
X179578095Y-66797380D01*
X179578095Y-66797380D02*
X179625714Y-66845000D01*
X179625714Y-66845000D02*
X179720952Y-66892619D01*
X179720952Y-66892619D02*
X179911428Y-66892619D01*
X179911428Y-66892619D02*
X180006666Y-66845000D01*
X180006666Y-66845000D02*
X180054285Y-66797380D01*
X180054285Y-66797380D02*
X180101904Y-66702142D01*
X180101904Y-66702142D02*
X180101904Y-66464047D01*
X180101904Y-66464047D02*
X180054285Y-66368809D01*
X180054285Y-66368809D02*
X180006666Y-66321190D01*
X180006666Y-66321190D02*
X179911428Y-66273571D01*
X179911428Y-66273571D02*
X179720952Y-66273571D01*
X179720952Y-66273571D02*
X179625714Y-66321190D01*
X179625714Y-66321190D02*
X179578095Y-66368809D01*
X179578095Y-66368809D02*
X179530476Y-66464047D01*
X177236666Y-69568952D02*
X177236666Y-70235619D01*
X176998571Y-69188000D02*
X176760476Y-69902285D01*
X176760476Y-69902285D02*
X177379523Y-69902285D01*
X181284857Y-69235619D02*
X181903904Y-69235619D01*
X181903904Y-69235619D02*
X181570571Y-69616571D01*
X181570571Y-69616571D02*
X181713428Y-69616571D01*
X181713428Y-69616571D02*
X181808666Y-69664190D01*
X181808666Y-69664190D02*
X181856285Y-69711809D01*
X181856285Y-69711809D02*
X181903904Y-69807047D01*
X181903904Y-69807047D02*
X181903904Y-70045142D01*
X181903904Y-70045142D02*
X181856285Y-70140380D01*
X181856285Y-70140380D02*
X181808666Y-70188000D01*
X181808666Y-70188000D02*
X181713428Y-70235619D01*
X181713428Y-70235619D02*
X181427714Y-70235619D01*
X181427714Y-70235619D02*
X181332476Y-70188000D01*
X181332476Y-70188000D02*
X181284857Y-70140380D01*
X180633904Y-72140619D02*
X180062476Y-72140619D01*
X180348190Y-72140619D02*
X180348190Y-71140619D01*
X180348190Y-71140619D02*
X180252952Y-71283476D01*
X180252952Y-71283476D02*
X180157714Y-71378714D01*
X180157714Y-71378714D02*
X180062476Y-71426333D01*
X175236476Y-71235857D02*
X175284095Y-71188238D01*
X175284095Y-71188238D02*
X175379333Y-71140619D01*
X175379333Y-71140619D02*
X175617428Y-71140619D01*
X175617428Y-71140619D02*
X175712666Y-71188238D01*
X175712666Y-71188238D02*
X175760285Y-71235857D01*
X175760285Y-71235857D02*
X175807904Y-71331095D01*
X175807904Y-71331095D02*
X175807904Y-71426333D01*
X175807904Y-71426333D02*
X175760285Y-71569190D01*
X175760285Y-71569190D02*
X175188857Y-72140619D01*
X175188857Y-72140619D02*
X175807904Y-72140619D01*
X175720952Y-66321190D02*
X175625714Y-66273571D01*
X175625714Y-66273571D02*
X175578095Y-66225952D01*
X175578095Y-66225952D02*
X175530476Y-66130714D01*
X175530476Y-66130714D02*
X175530476Y-66083095D01*
X175530476Y-66083095D02*
X175578095Y-65987857D01*
X175578095Y-65987857D02*
X175625714Y-65940238D01*
X175625714Y-65940238D02*
X175720952Y-65892619D01*
X175720952Y-65892619D02*
X175911428Y-65892619D01*
X175911428Y-65892619D02*
X176006666Y-65940238D01*
X176006666Y-65940238D02*
X176054285Y-65987857D01*
X176054285Y-65987857D02*
X176101904Y-66083095D01*
X176101904Y-66083095D02*
X176101904Y-66130714D01*
X176101904Y-66130714D02*
X176054285Y-66225952D01*
X176054285Y-66225952D02*
X176006666Y-66273571D01*
X176006666Y-66273571D02*
X175911428Y-66321190D01*
X175911428Y-66321190D02*
X175720952Y-66321190D01*
X175720952Y-66321190D02*
X175625714Y-66368809D01*
X175625714Y-66368809D02*
X175578095Y-66416428D01*
X175578095Y-66416428D02*
X175530476Y-66511666D01*
X175530476Y-66511666D02*
X175530476Y-66702142D01*
X175530476Y-66702142D02*
X175578095Y-66797380D01*
X175578095Y-66797380D02*
X175625714Y-66845000D01*
X175625714Y-66845000D02*
X175720952Y-66892619D01*
X175720952Y-66892619D02*
X175911428Y-66892619D01*
X175911428Y-66892619D02*
X176006666Y-66845000D01*
X176006666Y-66845000D02*
X176054285Y-66797380D01*
X176054285Y-66797380D02*
X176101904Y-66702142D01*
X176101904Y-66702142D02*
X176101904Y-66511666D01*
X176101904Y-66511666D02*
X176054285Y-66416428D01*
X176054285Y-66416428D02*
X176006666Y-66368809D01*
X176006666Y-66368809D02*
X175911428Y-66321190D01*
D10*
%TO.C,R3*%
X155328333Y-85552619D02*
X154995000Y-85076428D01*
X154756905Y-85552619D02*
X154756905Y-84552619D01*
X154756905Y-84552619D02*
X155137857Y-84552619D01*
X155137857Y-84552619D02*
X155233095Y-84600238D01*
X155233095Y-84600238D02*
X155280714Y-84647857D01*
X155280714Y-84647857D02*
X155328333Y-84743095D01*
X155328333Y-84743095D02*
X155328333Y-84885952D01*
X155328333Y-84885952D02*
X155280714Y-84981190D01*
X155280714Y-84981190D02*
X155233095Y-85028809D01*
X155233095Y-85028809D02*
X155137857Y-85076428D01*
X155137857Y-85076428D02*
X154756905Y-85076428D01*
X155661667Y-84552619D02*
X156280714Y-84552619D01*
X156280714Y-84552619D02*
X155947381Y-84933571D01*
X155947381Y-84933571D02*
X156090238Y-84933571D01*
X156090238Y-84933571D02*
X156185476Y-84981190D01*
X156185476Y-84981190D02*
X156233095Y-85028809D01*
X156233095Y-85028809D02*
X156280714Y-85124047D01*
X156280714Y-85124047D02*
X156280714Y-85362142D01*
X156280714Y-85362142D02*
X156233095Y-85457380D01*
X156233095Y-85457380D02*
X156185476Y-85505000D01*
X156185476Y-85505000D02*
X156090238Y-85552619D01*
X156090238Y-85552619D02*
X155804524Y-85552619D01*
X155804524Y-85552619D02*
X155709286Y-85505000D01*
X155709286Y-85505000D02*
X155661667Y-85457380D01*
%TO.C,C2*%
X163028333Y-88632380D02*
X162980714Y-88680000D01*
X162980714Y-88680000D02*
X162837857Y-88727619D01*
X162837857Y-88727619D02*
X162742619Y-88727619D01*
X162742619Y-88727619D02*
X162599762Y-88680000D01*
X162599762Y-88680000D02*
X162504524Y-88584761D01*
X162504524Y-88584761D02*
X162456905Y-88489523D01*
X162456905Y-88489523D02*
X162409286Y-88299047D01*
X162409286Y-88299047D02*
X162409286Y-88156190D01*
X162409286Y-88156190D02*
X162456905Y-87965714D01*
X162456905Y-87965714D02*
X162504524Y-87870476D01*
X162504524Y-87870476D02*
X162599762Y-87775238D01*
X162599762Y-87775238D02*
X162742619Y-87727619D01*
X162742619Y-87727619D02*
X162837857Y-87727619D01*
X162837857Y-87727619D02*
X162980714Y-87775238D01*
X162980714Y-87775238D02*
X163028333Y-87822857D01*
X163409286Y-87822857D02*
X163456905Y-87775238D01*
X163456905Y-87775238D02*
X163552143Y-87727619D01*
X163552143Y-87727619D02*
X163790238Y-87727619D01*
X163790238Y-87727619D02*
X163885476Y-87775238D01*
X163885476Y-87775238D02*
X163933095Y-87822857D01*
X163933095Y-87822857D02*
X163980714Y-87918095D01*
X163980714Y-87918095D02*
X163980714Y-88013333D01*
X163980714Y-88013333D02*
X163933095Y-88156190D01*
X163933095Y-88156190D02*
X163361667Y-88727619D01*
X163361667Y-88727619D02*
X163980714Y-88727619D01*
%TO.C,R5*%
X123658333Y-70947619D02*
X123325000Y-70471428D01*
X123086905Y-70947619D02*
X123086905Y-69947619D01*
X123086905Y-69947619D02*
X123467857Y-69947619D01*
X123467857Y-69947619D02*
X123563095Y-69995238D01*
X123563095Y-69995238D02*
X123610714Y-70042857D01*
X123610714Y-70042857D02*
X123658333Y-70138095D01*
X123658333Y-70138095D02*
X123658333Y-70280952D01*
X123658333Y-70280952D02*
X123610714Y-70376190D01*
X123610714Y-70376190D02*
X123563095Y-70423809D01*
X123563095Y-70423809D02*
X123467857Y-70471428D01*
X123467857Y-70471428D02*
X123086905Y-70471428D01*
X124563095Y-69947619D02*
X124086905Y-69947619D01*
X124086905Y-69947619D02*
X124039286Y-70423809D01*
X124039286Y-70423809D02*
X124086905Y-70376190D01*
X124086905Y-70376190D02*
X124182143Y-70328571D01*
X124182143Y-70328571D02*
X124420238Y-70328571D01*
X124420238Y-70328571D02*
X124515476Y-70376190D01*
X124515476Y-70376190D02*
X124563095Y-70423809D01*
X124563095Y-70423809D02*
X124610714Y-70519047D01*
X124610714Y-70519047D02*
X124610714Y-70757142D01*
X124610714Y-70757142D02*
X124563095Y-70852380D01*
X124563095Y-70852380D02*
X124515476Y-70900000D01*
X124515476Y-70900000D02*
X124420238Y-70947619D01*
X124420238Y-70947619D02*
X124182143Y-70947619D01*
X124182143Y-70947619D02*
X124086905Y-70900000D01*
X124086905Y-70900000D02*
X124039286Y-70852380D01*
%TO.C,C6*%
X147153333Y-91984380D02*
X147105714Y-92032000D01*
X147105714Y-92032000D02*
X146962857Y-92079619D01*
X146962857Y-92079619D02*
X146867619Y-92079619D01*
X146867619Y-92079619D02*
X146724762Y-92032000D01*
X146724762Y-92032000D02*
X146629524Y-91936761D01*
X146629524Y-91936761D02*
X146581905Y-91841523D01*
X146581905Y-91841523D02*
X146534286Y-91651047D01*
X146534286Y-91651047D02*
X146534286Y-91508190D01*
X146534286Y-91508190D02*
X146581905Y-91317714D01*
X146581905Y-91317714D02*
X146629524Y-91222476D01*
X146629524Y-91222476D02*
X146724762Y-91127238D01*
X146724762Y-91127238D02*
X146867619Y-91079619D01*
X146867619Y-91079619D02*
X146962857Y-91079619D01*
X146962857Y-91079619D02*
X147105714Y-91127238D01*
X147105714Y-91127238D02*
X147153333Y-91174857D01*
X148010476Y-91079619D02*
X147820000Y-91079619D01*
X147820000Y-91079619D02*
X147724762Y-91127238D01*
X147724762Y-91127238D02*
X147677143Y-91174857D01*
X147677143Y-91174857D02*
X147581905Y-91317714D01*
X147581905Y-91317714D02*
X147534286Y-91508190D01*
X147534286Y-91508190D02*
X147534286Y-91889142D01*
X147534286Y-91889142D02*
X147581905Y-91984380D01*
X147581905Y-91984380D02*
X147629524Y-92032000D01*
X147629524Y-92032000D02*
X147724762Y-92079619D01*
X147724762Y-92079619D02*
X147915238Y-92079619D01*
X147915238Y-92079619D02*
X148010476Y-92032000D01*
X148010476Y-92032000D02*
X148058095Y-91984380D01*
X148058095Y-91984380D02*
X148105714Y-91889142D01*
X148105714Y-91889142D02*
X148105714Y-91651047D01*
X148105714Y-91651047D02*
X148058095Y-91555809D01*
X148058095Y-91555809D02*
X148010476Y-91508190D01*
X148010476Y-91508190D02*
X147915238Y-91460571D01*
X147915238Y-91460571D02*
X147724762Y-91460571D01*
X147724762Y-91460571D02*
X147629524Y-91508190D01*
X147629524Y-91508190D02*
X147581905Y-91555809D01*
X147581905Y-91555809D02*
X147534286Y-91651047D01*
%TO.C,C3*%
X155403333Y-82917380D02*
X155355714Y-82965000D01*
X155355714Y-82965000D02*
X155212857Y-83012619D01*
X155212857Y-83012619D02*
X155117619Y-83012619D01*
X155117619Y-83012619D02*
X154974762Y-82965000D01*
X154974762Y-82965000D02*
X154879524Y-82869761D01*
X154879524Y-82869761D02*
X154831905Y-82774523D01*
X154831905Y-82774523D02*
X154784286Y-82584047D01*
X154784286Y-82584047D02*
X154784286Y-82441190D01*
X154784286Y-82441190D02*
X154831905Y-82250714D01*
X154831905Y-82250714D02*
X154879524Y-82155476D01*
X154879524Y-82155476D02*
X154974762Y-82060238D01*
X154974762Y-82060238D02*
X155117619Y-82012619D01*
X155117619Y-82012619D02*
X155212857Y-82012619D01*
X155212857Y-82012619D02*
X155355714Y-82060238D01*
X155355714Y-82060238D02*
X155403333Y-82107857D01*
X155736667Y-82012619D02*
X156355714Y-82012619D01*
X156355714Y-82012619D02*
X156022381Y-82393571D01*
X156022381Y-82393571D02*
X156165238Y-82393571D01*
X156165238Y-82393571D02*
X156260476Y-82441190D01*
X156260476Y-82441190D02*
X156308095Y-82488809D01*
X156308095Y-82488809D02*
X156355714Y-82584047D01*
X156355714Y-82584047D02*
X156355714Y-82822142D01*
X156355714Y-82822142D02*
X156308095Y-82917380D01*
X156308095Y-82917380D02*
X156260476Y-82965000D01*
X156260476Y-82965000D02*
X156165238Y-83012619D01*
X156165238Y-83012619D02*
X155879524Y-83012619D01*
X155879524Y-83012619D02*
X155784286Y-82965000D01*
X155784286Y-82965000D02*
X155736667Y-82917380D01*
%TO.C,R4*%
X155328333Y-88092619D02*
X154995000Y-87616428D01*
X154756905Y-88092619D02*
X154756905Y-87092619D01*
X154756905Y-87092619D02*
X155137857Y-87092619D01*
X155137857Y-87092619D02*
X155233095Y-87140238D01*
X155233095Y-87140238D02*
X155280714Y-87187857D01*
X155280714Y-87187857D02*
X155328333Y-87283095D01*
X155328333Y-87283095D02*
X155328333Y-87425952D01*
X155328333Y-87425952D02*
X155280714Y-87521190D01*
X155280714Y-87521190D02*
X155233095Y-87568809D01*
X155233095Y-87568809D02*
X155137857Y-87616428D01*
X155137857Y-87616428D02*
X154756905Y-87616428D01*
X156185476Y-87425952D02*
X156185476Y-88092619D01*
X155947381Y-87045000D02*
X155709286Y-87759285D01*
X155709286Y-87759285D02*
X156328333Y-87759285D01*
%TO.C,C4*%
X132548333Y-77202380D02*
X132500714Y-77250000D01*
X132500714Y-77250000D02*
X132357857Y-77297619D01*
X132357857Y-77297619D02*
X132262619Y-77297619D01*
X132262619Y-77297619D02*
X132119762Y-77250000D01*
X132119762Y-77250000D02*
X132024524Y-77154761D01*
X132024524Y-77154761D02*
X131976905Y-77059523D01*
X131976905Y-77059523D02*
X131929286Y-76869047D01*
X131929286Y-76869047D02*
X131929286Y-76726190D01*
X131929286Y-76726190D02*
X131976905Y-76535714D01*
X131976905Y-76535714D02*
X132024524Y-76440476D01*
X132024524Y-76440476D02*
X132119762Y-76345238D01*
X132119762Y-76345238D02*
X132262619Y-76297619D01*
X132262619Y-76297619D02*
X132357857Y-76297619D01*
X132357857Y-76297619D02*
X132500714Y-76345238D01*
X132500714Y-76345238D02*
X132548333Y-76392857D01*
X133405476Y-76630952D02*
X133405476Y-77297619D01*
X133167381Y-76250000D02*
X132929286Y-76964285D01*
X132929286Y-76964285D02*
X133548333Y-76964285D01*
%TO.C,R7*%
X125557619Y-75731666D02*
X125081428Y-76064999D01*
X125557619Y-76303094D02*
X124557619Y-76303094D01*
X124557619Y-76303094D02*
X124557619Y-75922142D01*
X124557619Y-75922142D02*
X124605238Y-75826904D01*
X124605238Y-75826904D02*
X124652857Y-75779285D01*
X124652857Y-75779285D02*
X124748095Y-75731666D01*
X124748095Y-75731666D02*
X124890952Y-75731666D01*
X124890952Y-75731666D02*
X124986190Y-75779285D01*
X124986190Y-75779285D02*
X125033809Y-75826904D01*
X125033809Y-75826904D02*
X125081428Y-75922142D01*
X125081428Y-75922142D02*
X125081428Y-76303094D01*
X124557619Y-75398332D02*
X124557619Y-74731666D01*
X124557619Y-74731666D02*
X125557619Y-75160237D01*
%TO.C,D3*%
X125626905Y-70947619D02*
X125626905Y-69947619D01*
X125626905Y-69947619D02*
X125865000Y-69947619D01*
X125865000Y-69947619D02*
X126007857Y-69995238D01*
X126007857Y-69995238D02*
X126103095Y-70090476D01*
X126103095Y-70090476D02*
X126150714Y-70185714D01*
X126150714Y-70185714D02*
X126198333Y-70376190D01*
X126198333Y-70376190D02*
X126198333Y-70519047D01*
X126198333Y-70519047D02*
X126150714Y-70709523D01*
X126150714Y-70709523D02*
X126103095Y-70804761D01*
X126103095Y-70804761D02*
X126007857Y-70900000D01*
X126007857Y-70900000D02*
X125865000Y-70947619D01*
X125865000Y-70947619D02*
X125626905Y-70947619D01*
X126531667Y-69947619D02*
X127150714Y-69947619D01*
X127150714Y-69947619D02*
X126817381Y-70328571D01*
X126817381Y-70328571D02*
X126960238Y-70328571D01*
X126960238Y-70328571D02*
X127055476Y-70376190D01*
X127055476Y-70376190D02*
X127103095Y-70423809D01*
X127103095Y-70423809D02*
X127150714Y-70519047D01*
X127150714Y-70519047D02*
X127150714Y-70757142D01*
X127150714Y-70757142D02*
X127103095Y-70852380D01*
X127103095Y-70852380D02*
X127055476Y-70900000D01*
X127055476Y-70900000D02*
X126960238Y-70947619D01*
X126960238Y-70947619D02*
X126674524Y-70947619D01*
X126674524Y-70947619D02*
X126579286Y-70900000D01*
X126579286Y-70900000D02*
X126531667Y-70852380D01*
%TO.C,C5*%
X137628333Y-77202380D02*
X137580714Y-77250000D01*
X137580714Y-77250000D02*
X137437857Y-77297619D01*
X137437857Y-77297619D02*
X137342619Y-77297619D01*
X137342619Y-77297619D02*
X137199762Y-77250000D01*
X137199762Y-77250000D02*
X137104524Y-77154761D01*
X137104524Y-77154761D02*
X137056905Y-77059523D01*
X137056905Y-77059523D02*
X137009286Y-76869047D01*
X137009286Y-76869047D02*
X137009286Y-76726190D01*
X137009286Y-76726190D02*
X137056905Y-76535714D01*
X137056905Y-76535714D02*
X137104524Y-76440476D01*
X137104524Y-76440476D02*
X137199762Y-76345238D01*
X137199762Y-76345238D02*
X137342619Y-76297619D01*
X137342619Y-76297619D02*
X137437857Y-76297619D01*
X137437857Y-76297619D02*
X137580714Y-76345238D01*
X137580714Y-76345238D02*
X137628333Y-76392857D01*
X138533095Y-76297619D02*
X138056905Y-76297619D01*
X138056905Y-76297619D02*
X138009286Y-76773809D01*
X138009286Y-76773809D02*
X138056905Y-76726190D01*
X138056905Y-76726190D02*
X138152143Y-76678571D01*
X138152143Y-76678571D02*
X138390238Y-76678571D01*
X138390238Y-76678571D02*
X138485476Y-76726190D01*
X138485476Y-76726190D02*
X138533095Y-76773809D01*
X138533095Y-76773809D02*
X138580714Y-76869047D01*
X138580714Y-76869047D02*
X138580714Y-77107142D01*
X138580714Y-77107142D02*
X138533095Y-77202380D01*
X138533095Y-77202380D02*
X138485476Y-77250000D01*
X138485476Y-77250000D02*
X138390238Y-77297619D01*
X138390238Y-77297619D02*
X138152143Y-77297619D01*
X138152143Y-77297619D02*
X138056905Y-77250000D01*
X138056905Y-77250000D02*
X138009286Y-77202380D01*
%TO.C,R6*%
X174458333Y-78290119D02*
X174125000Y-77813928D01*
X173886905Y-78290119D02*
X173886905Y-77290119D01*
X173886905Y-77290119D02*
X174267857Y-77290119D01*
X174267857Y-77290119D02*
X174363095Y-77337738D01*
X174363095Y-77337738D02*
X174410714Y-77385357D01*
X174410714Y-77385357D02*
X174458333Y-77480595D01*
X174458333Y-77480595D02*
X174458333Y-77623452D01*
X174458333Y-77623452D02*
X174410714Y-77718690D01*
X174410714Y-77718690D02*
X174363095Y-77766309D01*
X174363095Y-77766309D02*
X174267857Y-77813928D01*
X174267857Y-77813928D02*
X173886905Y-77813928D01*
X175315476Y-77290119D02*
X175125000Y-77290119D01*
X175125000Y-77290119D02*
X175029762Y-77337738D01*
X175029762Y-77337738D02*
X174982143Y-77385357D01*
X174982143Y-77385357D02*
X174886905Y-77528214D01*
X174886905Y-77528214D02*
X174839286Y-77718690D01*
X174839286Y-77718690D02*
X174839286Y-78099642D01*
X174839286Y-78099642D02*
X174886905Y-78194880D01*
X174886905Y-78194880D02*
X174934524Y-78242500D01*
X174934524Y-78242500D02*
X175029762Y-78290119D01*
X175029762Y-78290119D02*
X175220238Y-78290119D01*
X175220238Y-78290119D02*
X175315476Y-78242500D01*
X175315476Y-78242500D02*
X175363095Y-78194880D01*
X175363095Y-78194880D02*
X175410714Y-78099642D01*
X175410714Y-78099642D02*
X175410714Y-77861547D01*
X175410714Y-77861547D02*
X175363095Y-77766309D01*
X175363095Y-77766309D02*
X175315476Y-77718690D01*
X175315476Y-77718690D02*
X175220238Y-77671071D01*
X175220238Y-77671071D02*
X175029762Y-77671071D01*
X175029762Y-77671071D02*
X174934524Y-77718690D01*
X174934524Y-77718690D02*
X174886905Y-77766309D01*
X174886905Y-77766309D02*
X174839286Y-77861547D01*
%TO.C,R1*%
X128097619Y-75731666D02*
X127621428Y-76064999D01*
X128097619Y-76303094D02*
X127097619Y-76303094D01*
X127097619Y-76303094D02*
X127097619Y-75922142D01*
X127097619Y-75922142D02*
X127145238Y-75826904D01*
X127145238Y-75826904D02*
X127192857Y-75779285D01*
X127192857Y-75779285D02*
X127288095Y-75731666D01*
X127288095Y-75731666D02*
X127430952Y-75731666D01*
X127430952Y-75731666D02*
X127526190Y-75779285D01*
X127526190Y-75779285D02*
X127573809Y-75826904D01*
X127573809Y-75826904D02*
X127621428Y-75922142D01*
X127621428Y-75922142D02*
X127621428Y-76303094D01*
X128097619Y-74779285D02*
X128097619Y-75350713D01*
X128097619Y-75064999D02*
X127097619Y-75064999D01*
X127097619Y-75064999D02*
X127240476Y-75160237D01*
X127240476Y-75160237D02*
X127335714Y-75255475D01*
X127335714Y-75255475D02*
X127383333Y-75350713D01*
%TO.C,U1*%
X130413095Y-90267619D02*
X130413095Y-91077142D01*
X130413095Y-91077142D02*
X130460714Y-91172380D01*
X130460714Y-91172380D02*
X130508333Y-91220000D01*
X130508333Y-91220000D02*
X130603571Y-91267619D01*
X130603571Y-91267619D02*
X130794047Y-91267619D01*
X130794047Y-91267619D02*
X130889285Y-91220000D01*
X130889285Y-91220000D02*
X130936904Y-91172380D01*
X130936904Y-91172380D02*
X130984523Y-91077142D01*
X130984523Y-91077142D02*
X130984523Y-90267619D01*
X131984523Y-91267619D02*
X131413095Y-91267619D01*
X131698809Y-91267619D02*
X131698809Y-90267619D01*
X131698809Y-90267619D02*
X131603571Y-90410476D01*
X131603571Y-90410476D02*
X131508333Y-90505714D01*
X131508333Y-90505714D02*
X131413095Y-90553333D01*
D13*
X133304285Y-90200446D02*
X133304285Y-91004017D01*
X133304285Y-91004017D02*
X133250714Y-91164732D01*
X133250714Y-91164732D02*
X133143571Y-91271875D01*
X133143571Y-91271875D02*
X132982857Y-91325446D01*
X132982857Y-91325446D02*
X132875714Y-91325446D01*
X133840000Y-91325446D02*
X133840000Y-90200446D01*
X133840000Y-90200446D02*
X134107857Y-90200446D01*
X134107857Y-90200446D02*
X134268571Y-90254017D01*
X134268571Y-90254017D02*
X134375714Y-90361160D01*
X134375714Y-90361160D02*
X134429285Y-90468303D01*
X134429285Y-90468303D02*
X134482857Y-90682589D01*
X134482857Y-90682589D02*
X134482857Y-90843303D01*
X134482857Y-90843303D02*
X134429285Y-91057589D01*
X134429285Y-91057589D02*
X134375714Y-91164732D01*
X134375714Y-91164732D02*
X134268571Y-91271875D01*
X134268571Y-91271875D02*
X134107857Y-91325446D01*
X134107857Y-91325446D02*
X133840000Y-91325446D01*
X135179285Y-90789732D02*
X135179285Y-91325446D01*
X134804285Y-90200446D02*
X135179285Y-90789732D01*
X135179285Y-90789732D02*
X135554285Y-90200446D01*
X135929286Y-90896875D02*
X136786429Y-90896875D01*
X137804286Y-90200446D02*
X137590000Y-90200446D01*
X137590000Y-90200446D02*
X137482857Y-90254017D01*
X137482857Y-90254017D02*
X137429286Y-90307589D01*
X137429286Y-90307589D02*
X137322143Y-90468303D01*
X137322143Y-90468303D02*
X137268571Y-90682589D01*
X137268571Y-90682589D02*
X137268571Y-91111160D01*
X137268571Y-91111160D02*
X137322143Y-91218303D01*
X137322143Y-91218303D02*
X137375714Y-91271875D01*
X137375714Y-91271875D02*
X137482857Y-91325446D01*
X137482857Y-91325446D02*
X137697143Y-91325446D01*
X137697143Y-91325446D02*
X137804286Y-91271875D01*
X137804286Y-91271875D02*
X137857857Y-91218303D01*
X137857857Y-91218303D02*
X137911428Y-91111160D01*
X137911428Y-91111160D02*
X137911428Y-90843303D01*
X137911428Y-90843303D02*
X137857857Y-90736160D01*
X137857857Y-90736160D02*
X137804286Y-90682589D01*
X137804286Y-90682589D02*
X137697143Y-90629017D01*
X137697143Y-90629017D02*
X137482857Y-90629017D01*
X137482857Y-90629017D02*
X137375714Y-90682589D01*
X137375714Y-90682589D02*
X137322143Y-90736160D01*
X137322143Y-90736160D02*
X137268571Y-90843303D01*
X138286429Y-90200446D02*
X139036429Y-90200446D01*
X139036429Y-90200446D02*
X138554286Y-91325446D01*
D10*
%TO.C,R2*%
X130637619Y-75731666D02*
X130161428Y-76064999D01*
X130637619Y-76303094D02*
X129637619Y-76303094D01*
X129637619Y-76303094D02*
X129637619Y-75922142D01*
X129637619Y-75922142D02*
X129685238Y-75826904D01*
X129685238Y-75826904D02*
X129732857Y-75779285D01*
X129732857Y-75779285D02*
X129828095Y-75731666D01*
X129828095Y-75731666D02*
X129970952Y-75731666D01*
X129970952Y-75731666D02*
X130066190Y-75779285D01*
X130066190Y-75779285D02*
X130113809Y-75826904D01*
X130113809Y-75826904D02*
X130161428Y-75922142D01*
X130161428Y-75922142D02*
X130161428Y-76303094D01*
X129732857Y-75350713D02*
X129685238Y-75303094D01*
X129685238Y-75303094D02*
X129637619Y-75207856D01*
X129637619Y-75207856D02*
X129637619Y-74969761D01*
X129637619Y-74969761D02*
X129685238Y-74874523D01*
X129685238Y-74874523D02*
X129732857Y-74826904D01*
X129732857Y-74826904D02*
X129828095Y-74779285D01*
X129828095Y-74779285D02*
X129923333Y-74779285D01*
X129923333Y-74779285D02*
X130066190Y-74826904D01*
X130066190Y-74826904D02*
X130637619Y-75398332D01*
X130637619Y-75398332D02*
X130637619Y-74779285D01*
%TO.C,U2*%
X168783095Y-85187619D02*
X168783095Y-85997142D01*
X168783095Y-85997142D02*
X168830714Y-86092380D01*
X168830714Y-86092380D02*
X168878333Y-86140000D01*
X168878333Y-86140000D02*
X168973571Y-86187619D01*
X168973571Y-86187619D02*
X169164047Y-86187619D01*
X169164047Y-86187619D02*
X169259285Y-86140000D01*
X169259285Y-86140000D02*
X169306904Y-86092380D01*
X169306904Y-86092380D02*
X169354523Y-85997142D01*
X169354523Y-85997142D02*
X169354523Y-85187619D01*
X169783095Y-85282857D02*
X169830714Y-85235238D01*
X169830714Y-85235238D02*
X169925952Y-85187619D01*
X169925952Y-85187619D02*
X170164047Y-85187619D01*
X170164047Y-85187619D02*
X170259285Y-85235238D01*
X170259285Y-85235238D02*
X170306904Y-85282857D01*
X170306904Y-85282857D02*
X170354523Y-85378095D01*
X170354523Y-85378095D02*
X170354523Y-85473333D01*
X170354523Y-85473333D02*
X170306904Y-85616190D01*
X170306904Y-85616190D02*
X169735476Y-86187619D01*
X169735476Y-86187619D02*
X170354523Y-86187619D01*
D12*
%TO.C,J1010*%
X159194476Y-71235857D02*
X159242095Y-71188238D01*
X159242095Y-71188238D02*
X159337333Y-71140619D01*
X159337333Y-71140619D02*
X159575428Y-71140619D01*
X159575428Y-71140619D02*
X159670666Y-71188238D01*
X159670666Y-71188238D02*
X159718285Y-71235857D01*
X159718285Y-71235857D02*
X159765904Y-71331095D01*
X159765904Y-71331095D02*
X159765904Y-71426333D01*
X159765904Y-71426333D02*
X159718285Y-71569190D01*
X159718285Y-71569190D02*
X159146857Y-72140619D01*
X159146857Y-72140619D02*
X159765904Y-72140619D01*
X158400666Y-69441952D02*
X158400666Y-70108619D01*
X158162571Y-69061000D02*
X157924476Y-69775285D01*
X157924476Y-69775285D02*
X158543523Y-69775285D01*
X158781666Y-67076619D02*
X158591190Y-67076619D01*
X158591190Y-67076619D02*
X158495952Y-67124238D01*
X158495952Y-67124238D02*
X158448333Y-67171857D01*
X158448333Y-67171857D02*
X158353095Y-67314714D01*
X158353095Y-67314714D02*
X158305476Y-67505190D01*
X158305476Y-67505190D02*
X158305476Y-67886142D01*
X158305476Y-67886142D02*
X158353095Y-67981380D01*
X158353095Y-67981380D02*
X158400714Y-68029000D01*
X158400714Y-68029000D02*
X158495952Y-68076619D01*
X158495952Y-68076619D02*
X158686428Y-68076619D01*
X158686428Y-68076619D02*
X158781666Y-68029000D01*
X158781666Y-68029000D02*
X158829285Y-67981380D01*
X158829285Y-67981380D02*
X158876904Y-67886142D01*
X158876904Y-67886142D02*
X158876904Y-67648047D01*
X158876904Y-67648047D02*
X158829285Y-67552809D01*
X158829285Y-67552809D02*
X158781666Y-67505190D01*
X158781666Y-67505190D02*
X158686428Y-67457571D01*
X158686428Y-67457571D02*
X158495952Y-67457571D01*
X158495952Y-67457571D02*
X158400714Y-67505190D01*
X158400714Y-67505190D02*
X158353095Y-67552809D01*
X158353095Y-67552809D02*
X158305476Y-67648047D01*
X165369857Y-69108619D02*
X165988904Y-69108619D01*
X165988904Y-69108619D02*
X165655571Y-69489571D01*
X165655571Y-69489571D02*
X165798428Y-69489571D01*
X165798428Y-69489571D02*
X165893666Y-69537190D01*
X165893666Y-69537190D02*
X165941285Y-69584809D01*
X165941285Y-69584809D02*
X165988904Y-69680047D01*
X165988904Y-69680047D02*
X165988904Y-69918142D01*
X165988904Y-69918142D02*
X165941285Y-70013380D01*
X165941285Y-70013380D02*
X165893666Y-70061000D01*
X165893666Y-70061000D02*
X165798428Y-70108619D01*
X165798428Y-70108619D02*
X165512714Y-70108619D01*
X165512714Y-70108619D02*
X165417476Y-70061000D01*
X165417476Y-70061000D02*
X165369857Y-70013380D01*
X165560285Y-67203619D02*
X165084095Y-67203619D01*
X165084095Y-67203619D02*
X165036476Y-67679809D01*
X165036476Y-67679809D02*
X165084095Y-67632190D01*
X165084095Y-67632190D02*
X165179333Y-67584571D01*
X165179333Y-67584571D02*
X165417428Y-67584571D01*
X165417428Y-67584571D02*
X165512666Y-67632190D01*
X165512666Y-67632190D02*
X165560285Y-67679809D01*
X165560285Y-67679809D02*
X165607904Y-67775047D01*
X165607904Y-67775047D02*
X165607904Y-68013142D01*
X165607904Y-68013142D02*
X165560285Y-68108380D01*
X165560285Y-68108380D02*
X165512666Y-68156000D01*
X165512666Y-68156000D02*
X165417428Y-68203619D01*
X165417428Y-68203619D02*
X165179333Y-68203619D01*
X165179333Y-68203619D02*
X165084095Y-68156000D01*
X165084095Y-68156000D02*
X165036476Y-68108380D01*
X164718904Y-72013619D02*
X164147476Y-72013619D01*
X164433190Y-72013619D02*
X164433190Y-71013619D01*
X164433190Y-71013619D02*
X164337952Y-71156476D01*
X164337952Y-71156476D02*
X164242714Y-71251714D01*
X164242714Y-71251714D02*
X164147476Y-71299333D01*
D10*
%TO.C,D1*%
X128166905Y-70947619D02*
X128166905Y-69947619D01*
X128166905Y-69947619D02*
X128405000Y-69947619D01*
X128405000Y-69947619D02*
X128547857Y-69995238D01*
X128547857Y-69995238D02*
X128643095Y-70090476D01*
X128643095Y-70090476D02*
X128690714Y-70185714D01*
X128690714Y-70185714D02*
X128738333Y-70376190D01*
X128738333Y-70376190D02*
X128738333Y-70519047D01*
X128738333Y-70519047D02*
X128690714Y-70709523D01*
X128690714Y-70709523D02*
X128643095Y-70804761D01*
X128643095Y-70804761D02*
X128547857Y-70900000D01*
X128547857Y-70900000D02*
X128405000Y-70947619D01*
X128405000Y-70947619D02*
X128166905Y-70947619D01*
X129690714Y-70947619D02*
X129119286Y-70947619D01*
X129405000Y-70947619D02*
X129405000Y-69947619D01*
X129405000Y-69947619D02*
X129309762Y-70090476D01*
X129309762Y-70090476D02*
X129214524Y-70185714D01*
X129214524Y-70185714D02*
X129119286Y-70233333D01*
%TO.C,D2*%
X130706905Y-70947619D02*
X130706905Y-69947619D01*
X130706905Y-69947619D02*
X130945000Y-69947619D01*
X130945000Y-69947619D02*
X131087857Y-69995238D01*
X131087857Y-69995238D02*
X131183095Y-70090476D01*
X131183095Y-70090476D02*
X131230714Y-70185714D01*
X131230714Y-70185714D02*
X131278333Y-70376190D01*
X131278333Y-70376190D02*
X131278333Y-70519047D01*
X131278333Y-70519047D02*
X131230714Y-70709523D01*
X131230714Y-70709523D02*
X131183095Y-70804761D01*
X131183095Y-70804761D02*
X131087857Y-70900000D01*
X131087857Y-70900000D02*
X130945000Y-70947619D01*
X130945000Y-70947619D02*
X130706905Y-70947619D01*
X131659286Y-70042857D02*
X131706905Y-69995238D01*
X131706905Y-69995238D02*
X131802143Y-69947619D01*
X131802143Y-69947619D02*
X132040238Y-69947619D01*
X132040238Y-69947619D02*
X132135476Y-69995238D01*
X132135476Y-69995238D02*
X132183095Y-70042857D01*
X132183095Y-70042857D02*
X132230714Y-70138095D01*
X132230714Y-70138095D02*
X132230714Y-70233333D01*
X132230714Y-70233333D02*
X132183095Y-70376190D01*
X132183095Y-70376190D02*
X131611667Y-70947619D01*
X131611667Y-70947619D02*
X132230714Y-70947619D01*
D14*
%TO.C,C1*%
X171680000Y-79075000D02*
X171680000Y-80945000D01*
X171680000Y-80945000D02*
X175590000Y-80945000D01*
X175590000Y-79075000D02*
X171680000Y-79075000D01*
D15*
%TO.C,J1009*%
X175640000Y-65015002D02*
G75*
G03*
X180040000Y-65015002I2200000J-4199998D01*
G01*
D14*
%TO.C,R3*%
X152450436Y-84355000D02*
X152904564Y-84355000D01*
X152450436Y-85825000D02*
X152904564Y-85825000D01*
%TO.C,C2*%
X164130000Y-89210000D02*
X162260000Y-89210000D01*
X162260000Y-89210000D02*
X162260000Y-93120000D01*
X164130000Y-93120000D02*
X164130000Y-89210000D01*
%TO.C,R5*%
X124560000Y-72617436D02*
X124560000Y-73071564D01*
X123090000Y-72617436D02*
X123090000Y-73071564D01*
%TO.C,C6*%
X145515000Y-92310748D02*
X145515000Y-92833252D01*
X144045000Y-92310748D02*
X144045000Y-92833252D01*
%TO.C,C3*%
X152453748Y-81815000D02*
X152976252Y-81815000D01*
X152453748Y-83285000D02*
X152976252Y-83285000D01*
%TO.C,R4*%
X152450436Y-86895000D02*
X152904564Y-86895000D01*
X152450436Y-88365000D02*
X152904564Y-88365000D01*
%TO.C,C4*%
X132133748Y-78005000D02*
X132656252Y-78005000D01*
X132133748Y-79475000D02*
X132656252Y-79475000D01*
%TO.C,R7*%
X124560000Y-77520436D02*
X124560000Y-77974564D01*
X123090000Y-77520436D02*
X123090000Y-77974564D01*
%TO.C,D3*%
X127325000Y-71184500D02*
X125405000Y-71184500D01*
X125405000Y-71184500D02*
X125405000Y-73869500D01*
X127325000Y-73869500D02*
X127325000Y-71184500D01*
%TO.C,C5*%
X138371252Y-79475000D02*
X137848748Y-79475000D01*
X138371252Y-78005000D02*
X137848748Y-78005000D01*
%TO.C,R6*%
X171985000Y-77062064D02*
X171985000Y-76607936D01*
X173455000Y-77062064D02*
X173455000Y-76607936D01*
%TO.C,R1*%
X127100000Y-77520436D02*
X127100000Y-77974564D01*
X125630000Y-77520436D02*
X125630000Y-77974564D01*
D12*
%TO.C,U1*%
X122421000Y-93699000D02*
X122421000Y-80822000D01*
D16*
X143385000Y-93699000D02*
X116385000Y-93699000D01*
D17*
X117385000Y-92022000D02*
X118785000Y-92022000D01*
X118785000Y-92022000D02*
X118785000Y-82622000D01*
X120185000Y-92022000D02*
X122185000Y-92022000D01*
X118785000Y-82622000D02*
X120185000Y-82622000D01*
X120185000Y-82622000D02*
X120185000Y-92022000D01*
X117385000Y-81222000D02*
X117385000Y-92022000D01*
D16*
X116385000Y-80822000D02*
X116385000Y-93699000D01*
X116385000Y-80822000D02*
X143385000Y-80822000D01*
X143385000Y-80822000D02*
X143385000Y-93699000D01*
X143385000Y-80822000D02*
X116385000Y-80822000D01*
X143385000Y-80822000D02*
X116385000Y-80822000D01*
D12*
X143185000Y-92340000D02*
G75*
G03*
X143185000Y-92340000I-600000J0D01*
G01*
X143185000Y-89800000D02*
G75*
G03*
X143185000Y-89800000I-600000J0D01*
G01*
X143185000Y-87260000D02*
G75*
G03*
X143185000Y-87260000I-600000J0D01*
G01*
X143185000Y-84720000D02*
G75*
G03*
X143185000Y-84720000I-600000J0D01*
G01*
X143185000Y-82180000D02*
G75*
G03*
X143185000Y-82180000I-600000J0D01*
G01*
D14*
%TO.C,R2*%
X129640000Y-77520436D02*
X129640000Y-77974564D01*
X128170000Y-77520436D02*
X128170000Y-77974564D01*
%TO.C,U2*%
X173645000Y-89135000D02*
X167635000Y-89135000D01*
X171395000Y-82315000D02*
X167635000Y-82315000D01*
X167635000Y-89135000D02*
X167635000Y-87875000D01*
X167635000Y-82315000D02*
X167635000Y-83575000D01*
D15*
%TO.C,J1010*%
X159725000Y-65015002D02*
G75*
G03*
X164125000Y-65015002I2200000J-4199998D01*
G01*
D14*
%TO.C,D1*%
X129865000Y-71184500D02*
X127945000Y-71184500D01*
X127945000Y-71184500D02*
X127945000Y-73869500D01*
X129865000Y-73869500D02*
X129865000Y-71184500D01*
%TO.C,D2*%
X132405000Y-71184500D02*
X130485000Y-71184500D01*
X130485000Y-71184500D02*
X130485000Y-73869500D01*
X132405000Y-73869500D02*
X132405000Y-71184500D01*
%TD*%
M02*
