%TF.GenerationSoftware,KiCad,Pcbnew,7.0.1-0*%
%TF.CreationDate,2023-05-23T01:00:41+08:00*%
%TF.ProjectId,FT817-BT-JDY67,46543831-372d-4425-942d-4a445936372e,20230517*%
%TF.SameCoordinates,Original*%
%TF.FileFunction,Copper,L2,Bot*%
%TF.FilePolarity,Positive*%
%FSLAX46Y46*%
G04 Gerber Fmt 4.6, Leading zero omitted, Abs format (unit mm)*
G04 Created by KiCad (PCBNEW 7.0.1-0) date 2023-05-23 01:00:41*
%MOMM*%
%LPD*%
G01*
G04 APERTURE LIST*
G04 Aperture macros list*
%AMRoundRect*
0 Rectangle with rounded corners*
0 $1 Rounding radius*
0 $2 $3 $4 $5 $6 $7 $8 $9 X,Y pos of 4 corners*
0 Add a 4 corners polygon primitive as box body*
4,1,4,$2,$3,$4,$5,$6,$7,$8,$9,$2,$3,0*
0 Add four circle primitives for the rounded corners*
1,1,$1+$1,$2,$3*
1,1,$1+$1,$4,$5*
1,1,$1+$1,$6,$7*
1,1,$1+$1,$8,$9*
0 Add four rect primitives between the rounded corners*
20,1,$1+$1,$2,$3,$4,$5,0*
20,1,$1+$1,$4,$5,$6,$7,0*
20,1,$1+$1,$6,$7,$8,$9,0*
20,1,$1+$1,$8,$9,$2,$3,0*%
G04 Aperture macros list end*
%TA.AperFunction,ComponentPad*%
%ADD10O,4.000000X1.800000*%
%TD*%
%TA.AperFunction,ComponentPad*%
%ADD11R,1.600000X1.300000*%
%TD*%
%TA.AperFunction,ComponentPad*%
%ADD12O,1.600000X1.300000*%
%TD*%
%TA.AperFunction,ComponentPad*%
%ADD13C,10.000000*%
%TD*%
%TA.AperFunction,ConnectorPad*%
%ADD14RoundRect,0.508000X-4.572000X-4.572000X4.572000X-4.572000X4.572000X4.572000X-4.572000X4.572000X0*%
%TD*%
%TA.AperFunction,ComponentPad*%
%ADD15C,3.100000*%
%TD*%
%TA.AperFunction,ConnectorPad*%
%ADD16C,4.700000*%
%TD*%
%TA.AperFunction,ViaPad*%
%ADD17C,0.800000*%
%TD*%
%TA.AperFunction,Conductor*%
%ADD18C,0.200000*%
%TD*%
G04 APERTURE END LIST*
D10*
%TO.P,J1009,*%
%TO.N,GND*%
X177840000Y-64815000D03*
D11*
%TO.P,J1009,1*%
%TO.N,+13.8V*%
X178840000Y-71615000D03*
D12*
%TO.P,J1009,2*%
%TO.N,TX GND*%
X176840000Y-71615000D03*
%TO.P,J1009,3*%
%TO.N,GND*%
X180340000Y-69615000D03*
%TO.P,J1009,4*%
%TO.N,TX D*%
X178340000Y-69615000D03*
%TO.P,J1009,5*%
%TO.N,RX D*%
X175340000Y-69615000D03*
%TO.P,J1009,6*%
%TO.N,BAND DATA*%
X179840000Y-67615000D03*
%TO.P,J1009,7*%
%TO.N,ALC*%
X177840000Y-67615000D03*
%TO.P,J1009,8*%
%TO.N,TX INH*%
X175840000Y-67615000D03*
%TD*%
D13*
%TO.P,H3,1,1*%
%TO.N,GND*%
X97155000Y-88900000D03*
D14*
X97155000Y-88900000D03*
%TD*%
D10*
%TO.P,J1010,*%
%TO.N,GND*%
X161925000Y-64815000D03*
D11*
%TO.P,J1010,1*%
%TO.N,DATA IN*%
X162925000Y-71615000D03*
D12*
%TO.P,J1010,2*%
%TO.N,GND*%
X160925000Y-71615000D03*
%TO.P,J1010,3*%
%TO.N,PTT*%
X164425000Y-69615000D03*
%TO.P,J1010,4*%
%TO.N,DATA OUT 9600bps*%
X159425000Y-69615000D03*
%TO.P,J1010,5*%
%TO.N,DATA OUT 1200bps*%
X163925000Y-67615000D03*
%TO.P,J1010,6*%
%TO.N,SQL*%
X159925000Y-67615000D03*
%TD*%
D15*
%TO.P,H2,1,1*%
%TO.N,GND*%
X152400000Y-93980000D03*
D16*
X152400000Y-93980000D03*
%TD*%
D15*
%TO.P,H1,1,1*%
%TO.N,GND*%
X134620000Y-66040000D03*
D16*
X134620000Y-66040000D03*
%TD*%
D17*
%TO.N,Net-(U1-TXD)*%
X146685000Y-85090000D03*
X123502000Y-92252000D03*
%TO.N,Net-(U1-RXD)*%
X125095000Y-92252000D03*
X146685000Y-87630000D03*
%TO.N,Net-(U1-MIC-P)*%
X144145000Y-80645000D03*
X130175000Y-82550000D03*
%TO.N,TX D*%
X156210000Y-87630000D03*
%TO.N,RX D*%
X156210000Y-85090000D03*
%TO.N,DATA IN*%
X139065000Y-73025000D03*
%TO.N,DATA OUT 1200bps*%
X156845000Y-79375000D03*
%TO.N,GND*%
X176530000Y-76200000D03*
X151130000Y-86360000D03*
X164465000Y-75565000D03*
X141605000Y-88900000D03*
X163830000Y-83185000D03*
X171450000Y-92710000D03*
X129540000Y-88900000D03*
X133350000Y-95250000D03*
X168275000Y-70485000D03*
X159385000Y-78105000D03*
X123825000Y-67945000D03*
X156210000Y-91440000D03*
X167640000Y-76835000D03*
X171450000Y-70485000D03*
X154305000Y-88900000D03*
X154940000Y-82550000D03*
X123825000Y-82550000D03*
X155575000Y-72390000D03*
X138430000Y-64770000D03*
X139065000Y-88900000D03*
X152400000Y-82550000D03*
X182245000Y-66675000D03*
X144780000Y-95427000D03*
X138430000Y-83820000D03*
X127635000Y-87630000D03*
X151130000Y-88900000D03*
X169545000Y-94615000D03*
X135255000Y-81280000D03*
X161925000Y-69215000D03*
X161290000Y-80645000D03*
X168275000Y-85090000D03*
X140970000Y-78740000D03*
X159385000Y-82550000D03*
X128270000Y-84455000D03*
X166370000Y-73660000D03*
X168275000Y-64770000D03*
X137160000Y-86360000D03*
X126365000Y-82550000D03*
X161925000Y-78105000D03*
X123825000Y-64135000D03*
X132715000Y-81280000D03*
X168910000Y-78105000D03*
X127000000Y-95250000D03*
X127000000Y-64135000D03*
X144780000Y-88900000D03*
X138430000Y-67945000D03*
X173355000Y-88900000D03*
X156210000Y-76200000D03*
X171450000Y-64770000D03*
X137795000Y-81280000D03*
X148590000Y-89470500D03*
X125095000Y-90170000D03*
X135890000Y-88900000D03*
X160655000Y-83820000D03*
X182880000Y-69215000D03*
X123825000Y-88900000D03*
X170815000Y-76200000D03*
X130175000Y-86360000D03*
X126365000Y-86360000D03*
X156845000Y-88900000D03*
X123825000Y-75565000D03*
X156845000Y-81280000D03*
X173355000Y-73660000D03*
X156845000Y-83820000D03*
X166370000Y-75565000D03*
X152400000Y-76200000D03*
X123825000Y-71755000D03*
X172085000Y-72390000D03*
X177165000Y-81280000D03*
X168910000Y-73025000D03*
X161925000Y-85090000D03*
X163830000Y-78105000D03*
X170180000Y-74295000D03*
X151130000Y-83820000D03*
X128905000Y-70485000D03*
X127635000Y-90805000D03*
X156845000Y-86360000D03*
X160020000Y-86995000D03*
X168275000Y-81280000D03*
X132080000Y-83820000D03*
X162560000Y-81915000D03*
X140335000Y-81280000D03*
X179070000Y-77470000D03*
X166370000Y-80645000D03*
X156210000Y-64770000D03*
X135255000Y-83820000D03*
X159385000Y-94615000D03*
X144780000Y-86360000D03*
X182245000Y-71755000D03*
X133985000Y-86360000D03*
X139700000Y-91440000D03*
X131445000Y-71755000D03*
X140335000Y-86360000D03*
X146685000Y-86360000D03*
X132080000Y-88900000D03*
X175260000Y-85090000D03*
X158750000Y-85725000D03*
X126365000Y-70485000D03*
X123190000Y-95250000D03*
X165100000Y-79375000D03*
X180340000Y-74930000D03*
X130175000Y-64135000D03*
X148590000Y-91440000D03*
X138430000Y-95250000D03*
X155575000Y-67945000D03*
X161925000Y-75565000D03*
X158750000Y-75565000D03*
X130810000Y-76835000D03*
X141605000Y-83820000D03*
X144780000Y-83820000D03*
X139700000Y-76200000D03*
%TD*%
D18*
%TO.N,Net-(U1-TXD)*%
X123502000Y-90493000D02*
X123502000Y-92252000D01*
X146685000Y-85090000D02*
X128905000Y-85090000D01*
X128905000Y-85090000D02*
X123502000Y-90493000D01*
%TO.N,Net-(U1-RXD)*%
X125095000Y-91440000D02*
X125095000Y-92252000D01*
X146685000Y-87630000D02*
X128905000Y-87630000D01*
X128905000Y-87630000D02*
X125095000Y-91440000D01*
%TO.N,Net-(U1-MIC-P)*%
X130175000Y-82550000D02*
X142240000Y-82550000D01*
X142240000Y-82550000D02*
X144145000Y-80645000D01*
%TO.N,TX D*%
X156210000Y-87630000D02*
X158115000Y-87630000D01*
X177085000Y-70565000D02*
X178035000Y-69615000D01*
X175180000Y-70565000D02*
X177085000Y-70565000D01*
X158115000Y-87630000D02*
X175180000Y-70565000D01*
%TO.N,RX D*%
X156210000Y-85090000D02*
X158115000Y-85090000D01*
X173355000Y-69850000D02*
X175105000Y-69850000D01*
X158115000Y-85090000D02*
X173355000Y-69850000D01*
%TO.N,DATA IN*%
X143510000Y-77470000D02*
X158115000Y-77470000D01*
X139065000Y-73025000D02*
X143510000Y-77470000D01*
X162925000Y-72660000D02*
X162925000Y-71615000D01*
X158115000Y-77470000D02*
X162925000Y-72660000D01*
%TO.N,DATA OUT 1200bps*%
X159385000Y-79375000D02*
X166370000Y-72390000D01*
X165087500Y-67615000D02*
X163925000Y-67615000D01*
X156845000Y-79375000D02*
X159385000Y-79375000D01*
X166370000Y-68897500D02*
X165087500Y-67615000D01*
X166370000Y-72390000D02*
X166370000Y-68897500D01*
%TD*%
%TA.AperFunction,Conductor*%
%TO.N,GND*%
G36*
X138434853Y-63365881D02*
G01*
X138639988Y-63382026D01*
X138659197Y-63385069D01*
X138854531Y-63431964D01*
X138873024Y-63437973D01*
X138997422Y-63489500D01*
X139058615Y-63514847D01*
X139075952Y-63523681D01*
X139247221Y-63628636D01*
X139262962Y-63640073D01*
X139415709Y-63770531D01*
X139429468Y-63784290D01*
X139559926Y-63937037D01*
X139571363Y-63952778D01*
X139676318Y-64124047D01*
X139685152Y-64141384D01*
X139762024Y-64326969D01*
X139768037Y-64345475D01*
X139814929Y-64540797D01*
X139817973Y-64560015D01*
X139834118Y-64765146D01*
X139834500Y-64774875D01*
X139834500Y-69482346D01*
X139872643Y-70015670D01*
X139948738Y-70544927D01*
X140062394Y-71067391D01*
X140213034Y-71580423D01*
X140399892Y-72081410D01*
X140622005Y-72567770D01*
X140878262Y-73037068D01*
X141167331Y-73486869D01*
X141487757Y-73914908D01*
X141837915Y-74319012D01*
X142215987Y-74697084D01*
X142215994Y-74697090D01*
X142618215Y-75045617D01*
X142620091Y-75047242D01*
X143048130Y-75367668D01*
X143497931Y-75656737D01*
X143967229Y-75912994D01*
X144453589Y-76135107D01*
X144453596Y-76135109D01*
X144453597Y-76135110D01*
X144954575Y-76321965D01*
X145467607Y-76472605D01*
X145685021Y-76519900D01*
X145990072Y-76586261D01*
X145990076Y-76586261D01*
X145990078Y-76586262D01*
X146519326Y-76662356D01*
X146919322Y-76690964D01*
X147052654Y-76700500D01*
X147052655Y-76700500D01*
X147587345Y-76700500D01*
X147587346Y-76700500D01*
X147717140Y-76691217D01*
X148120674Y-76662356D01*
X148649922Y-76586262D01*
X149172393Y-76472605D01*
X149685425Y-76321965D01*
X150186403Y-76135110D01*
X150186410Y-76135107D01*
X150672770Y-75912994D01*
X150827967Y-75828250D01*
X151142062Y-75656741D01*
X151591872Y-75367666D01*
X152019914Y-75047238D01*
X152424006Y-74697090D01*
X152802090Y-74319006D01*
X153152238Y-73914914D01*
X153472666Y-73486872D01*
X153761741Y-73037062D01*
X153981852Y-72633958D01*
X154017994Y-72567770D01*
X154240107Y-72081410D01*
X154240110Y-72081403D01*
X154426965Y-71580425D01*
X154577605Y-71067393D01*
X154691262Y-70544922D01*
X154767356Y-70015674D01*
X154799325Y-69568685D01*
X158420740Y-69568685D01*
X158430754Y-69753407D01*
X158480245Y-69931658D01*
X158566899Y-70095103D01*
X158686663Y-70236100D01*
X158833936Y-70348055D01*
X159001830Y-70425731D01*
X159001831Y-70425731D01*
X159001833Y-70425732D01*
X159182503Y-70465500D01*
X159621113Y-70465500D01*
X159621115Y-70465500D01*
X159704080Y-70456477D01*
X159758910Y-70450514D01*
X159934221Y-70391444D01*
X160092736Y-70296070D01*
X160227041Y-70168849D01*
X160330858Y-70015730D01*
X160399331Y-69843875D01*
X160429260Y-69661317D01*
X160424238Y-69568685D01*
X163420740Y-69568685D01*
X163430754Y-69753407D01*
X163480245Y-69931658D01*
X163566899Y-70095103D01*
X163686663Y-70236100D01*
X163833936Y-70348055D01*
X164001830Y-70425731D01*
X164001831Y-70425731D01*
X164001833Y-70425732D01*
X164182503Y-70465500D01*
X164621113Y-70465500D01*
X164621115Y-70465500D01*
X164704080Y-70456477D01*
X164758910Y-70450514D01*
X164934221Y-70391444D01*
X165092736Y-70296070D01*
X165227041Y-70168849D01*
X165330858Y-70015730D01*
X165399331Y-69843875D01*
X165429260Y-69661317D01*
X165419245Y-69476593D01*
X165369754Y-69298341D01*
X165283100Y-69134896D01*
X165163337Y-68993900D01*
X165152487Y-68985652D01*
X165016063Y-68881944D01*
X164848169Y-68804268D01*
X164667497Y-68764500D01*
X164228887Y-68764500D01*
X164228885Y-68764500D01*
X164091091Y-68779485D01*
X163915779Y-68838556D01*
X163757262Y-68933931D01*
X163622960Y-69061149D01*
X163519140Y-69214272D01*
X163450669Y-69386121D01*
X163435837Y-69476593D01*
X163421701Y-69562825D01*
X163420740Y-69568685D01*
X160424238Y-69568685D01*
X160419245Y-69476593D01*
X160369754Y-69298341D01*
X160283100Y-69134896D01*
X160163337Y-68993900D01*
X160152487Y-68985652D01*
X160016063Y-68881944D01*
X159848169Y-68804268D01*
X159667497Y-68764500D01*
X159228887Y-68764500D01*
X159228885Y-68764500D01*
X159091091Y-68779485D01*
X158915779Y-68838556D01*
X158757262Y-68933931D01*
X158622960Y-69061149D01*
X158519140Y-69214272D01*
X158450669Y-69386121D01*
X158435837Y-69476593D01*
X158421701Y-69562825D01*
X158420740Y-69568685D01*
X154799325Y-69568685D01*
X154800697Y-69549500D01*
X154805500Y-69482346D01*
X154805500Y-67568685D01*
X158920740Y-67568685D01*
X158930754Y-67753407D01*
X158980245Y-67931658D01*
X159066899Y-68095103D01*
X159186663Y-68236100D01*
X159333936Y-68348055D01*
X159501830Y-68425731D01*
X159501831Y-68425731D01*
X159501833Y-68425732D01*
X159682503Y-68465500D01*
X160121113Y-68465500D01*
X160121115Y-68465500D01*
X160190011Y-68458007D01*
X160258910Y-68450514D01*
X160434221Y-68391444D01*
X160592736Y-68296070D01*
X160727041Y-68168849D01*
X160830858Y-68015730D01*
X160899331Y-67843875D01*
X160929260Y-67661317D01*
X160919245Y-67476593D01*
X160885508Y-67355084D01*
X160869754Y-67298341D01*
X160783100Y-67134896D01*
X160663336Y-66993899D01*
X160516063Y-66881944D01*
X160348169Y-66804268D01*
X160167497Y-66764500D01*
X159728887Y-66764500D01*
X159728885Y-66764500D01*
X159591091Y-66779485D01*
X159415779Y-66838556D01*
X159257262Y-66933931D01*
X159122960Y-67061149D01*
X159019140Y-67214272D01*
X158950669Y-67386121D01*
X158920740Y-67568685D01*
X154805500Y-67568685D01*
X154805500Y-64774875D01*
X154805882Y-64765146D01*
X154808501Y-64731873D01*
X154822026Y-64560009D01*
X154825068Y-64540803D01*
X154871965Y-64345464D01*
X154877971Y-64326979D01*
X154954848Y-64141380D01*
X154963681Y-64124047D01*
X155045587Y-63990391D01*
X155068637Y-63952776D01*
X155080073Y-63937037D01*
X155210531Y-63784290D01*
X155224290Y-63770531D01*
X155377037Y-63640073D01*
X155392778Y-63628636D01*
X155564050Y-63523679D01*
X155581380Y-63514848D01*
X155766979Y-63437971D01*
X155785464Y-63431965D01*
X155980803Y-63385068D01*
X156000009Y-63382026D01*
X156205146Y-63365881D01*
X156214875Y-63365500D01*
X156275892Y-63365500D01*
X177734108Y-63365500D01*
X177797586Y-63365500D01*
X177802395Y-63365592D01*
X178248637Y-63382914D01*
X178258203Y-63383659D01*
X178699355Y-63435237D01*
X178708854Y-63436723D01*
X179144684Y-63522345D01*
X179154018Y-63524558D01*
X179581913Y-63643709D01*
X179591036Y-63646635D01*
X180008411Y-63798598D01*
X180017291Y-63802227D01*
X180421621Y-63986080D01*
X180430187Y-63990383D01*
X180819064Y-64205035D01*
X180827274Y-64209992D01*
X181198329Y-64454133D01*
X181206141Y-64459719D01*
X181557148Y-64731884D01*
X181564476Y-64738035D01*
X181893352Y-65036607D01*
X181900211Y-65043338D01*
X182204921Y-65366474D01*
X182211243Y-65373723D01*
X182489994Y-65719513D01*
X182495736Y-65727230D01*
X182746832Y-66093568D01*
X182751959Y-66101707D01*
X182973915Y-66486431D01*
X182978395Y-66494943D01*
X183126173Y-66804268D01*
X183169850Y-66895690D01*
X183173657Y-66904524D01*
X183234064Y-67061152D01*
X183331772Y-67314500D01*
X183333478Y-67318922D01*
X183336588Y-67328022D01*
X183352972Y-67382826D01*
X183463807Y-67753571D01*
X183466202Y-67762887D01*
X183560047Y-68196989D01*
X183561714Y-68206463D01*
X183621628Y-68646554D01*
X183622555Y-68656128D01*
X183648175Y-69099535D01*
X183648357Y-69109153D01*
X183639529Y-69553223D01*
X183638964Y-69562825D01*
X183595743Y-70004839D01*
X183594437Y-70014369D01*
X183517076Y-70451741D01*
X183515034Y-70461142D01*
X183414136Y-70851946D01*
X183405543Y-70875265D01*
X171652899Y-94994176D01*
X171644911Y-95008178D01*
X171631021Y-95029216D01*
X171623201Y-95052676D01*
X171620792Y-95058578D01*
X171611493Y-95087543D01*
X171608212Y-95096549D01*
X171537796Y-95268841D01*
X171530594Y-95283591D01*
X171439540Y-95442452D01*
X171430453Y-95456122D01*
X171319209Y-95601571D01*
X171308396Y-95613920D01*
X171178920Y-95743396D01*
X171166571Y-95754209D01*
X171021122Y-95865453D01*
X171007452Y-95874540D01*
X170848593Y-95965593D01*
X170833844Y-95972795D01*
X170742122Y-96010283D01*
X170695209Y-96019500D01*
X92714875Y-96019500D01*
X92705146Y-96019118D01*
X92500015Y-96002973D01*
X92480797Y-95999929D01*
X92285475Y-95953037D01*
X92266969Y-95947024D01*
X92081384Y-95870152D01*
X92064047Y-95861318D01*
X91892778Y-95756363D01*
X91877037Y-95744926D01*
X91724290Y-95614468D01*
X91710531Y-95600709D01*
X91580073Y-95447962D01*
X91568636Y-95432221D01*
X91463681Y-95260952D01*
X91454847Y-95243615D01*
X91441298Y-95210906D01*
X91377973Y-95058024D01*
X91371964Y-95039531D01*
X91325069Y-94844197D01*
X91322026Y-94824984D01*
X91316951Y-94760506D01*
X91305881Y-94619853D01*
X91305500Y-94610125D01*
X91305500Y-93530862D01*
X91314939Y-93483409D01*
X91341819Y-93443181D01*
X92038681Y-92746319D01*
X92078909Y-92719439D01*
X92126362Y-92710000D01*
X102183638Y-92710000D01*
X102231091Y-92719439D01*
X102271319Y-92746319D01*
X104775000Y-95250000D01*
X120015000Y-95250000D01*
X122555000Y-92710000D01*
X122555000Y-92251999D01*
X122896317Y-92251999D01*
X122916956Y-92408762D01*
X122977463Y-92554840D01*
X123073717Y-92680282D01*
X123159779Y-92746319D01*
X123199159Y-92776536D01*
X123345238Y-92837044D01*
X123502000Y-92857682D01*
X123658762Y-92837044D01*
X123804841Y-92776536D01*
X123930282Y-92680282D01*
X124026536Y-92554841D01*
X124087044Y-92408762D01*
X124107682Y-92252000D01*
X124107682Y-92251999D01*
X124489317Y-92251999D01*
X124509956Y-92408762D01*
X124570463Y-92554840D01*
X124666717Y-92680282D01*
X124752779Y-92746319D01*
X124792159Y-92776536D01*
X124938238Y-92837044D01*
X125095000Y-92857682D01*
X125251762Y-92837044D01*
X125397841Y-92776536D01*
X125523282Y-92680282D01*
X125619536Y-92554841D01*
X125680044Y-92408762D01*
X125700682Y-92252000D01*
X125680044Y-92095238D01*
X125619536Y-91949159D01*
X125523282Y-91823718D01*
X125444013Y-91762893D01*
X125408288Y-91719362D01*
X125395500Y-91664518D01*
X125395500Y-91615833D01*
X125404939Y-91568380D01*
X125431819Y-91528152D01*
X128993153Y-87966819D01*
X129033381Y-87939939D01*
X129080834Y-87930500D01*
X146097518Y-87930500D01*
X146152362Y-87943288D01*
X146195893Y-87979013D01*
X146256718Y-88058282D01*
X146382159Y-88154536D01*
X146528238Y-88215044D01*
X146685000Y-88235682D01*
X146841762Y-88215044D01*
X146987841Y-88154536D01*
X147113282Y-88058282D01*
X147209536Y-87932841D01*
X147270044Y-87786762D01*
X147290682Y-87630000D01*
X147290682Y-87629999D01*
X155604317Y-87629999D01*
X155624956Y-87786762D01*
X155685463Y-87932840D01*
X155781717Y-88058282D01*
X155907158Y-88154535D01*
X155907159Y-88154536D01*
X156053238Y-88215044D01*
X156210000Y-88235682D01*
X156366762Y-88215044D01*
X156512841Y-88154536D01*
X156638282Y-88058282D01*
X156699106Y-87979013D01*
X156742638Y-87943288D01*
X156797482Y-87930500D01*
X158045757Y-87930500D01*
X158062577Y-87933243D01*
X158072762Y-87932772D01*
X158072765Y-87932773D01*
X158119080Y-87930631D01*
X158124805Y-87930500D01*
X158143824Y-87930500D01*
X158158318Y-87928817D01*
X158184992Y-87927585D01*
X158191330Y-87924786D01*
X158218633Y-87916332D01*
X158225433Y-87915061D01*
X158248143Y-87900998D01*
X158263325Y-87892996D01*
X158287765Y-87882206D01*
X158292659Y-87877311D01*
X158315063Y-87859564D01*
X158320952Y-87855919D01*
X158337053Y-87834595D01*
X158348313Y-87821656D01*
X175268151Y-70901819D01*
X175308380Y-70874939D01*
X175355833Y-70865500D01*
X175936724Y-70865500D01*
X176000653Y-70883250D01*
X176046279Y-70931417D01*
X176060542Y-70996213D01*
X176039358Y-71059087D01*
X175934140Y-71214271D01*
X175865669Y-71386121D01*
X175835740Y-71568685D01*
X175845754Y-71753407D01*
X175895245Y-71931658D01*
X175981899Y-72095103D01*
X176101663Y-72236100D01*
X176248936Y-72348055D01*
X176416830Y-72425731D01*
X176416831Y-72425731D01*
X176416833Y-72425732D01*
X176597503Y-72465500D01*
X177036113Y-72465500D01*
X177036115Y-72465500D01*
X177105011Y-72458006D01*
X177173910Y-72450514D01*
X177349221Y-72391444D01*
X177507736Y-72296070D01*
X177630224Y-72180042D01*
X177679746Y-72151332D01*
X177736885Y-72147923D01*
X177789468Y-72170542D01*
X177826288Y-72214369D01*
X177839500Y-72270065D01*
X177839500Y-72284749D01*
X177851132Y-72343230D01*
X177895447Y-72409552D01*
X177961769Y-72453867D01*
X178020251Y-72465500D01*
X178020252Y-72465500D01*
X179659748Y-72465500D01*
X179659749Y-72465500D01*
X179688989Y-72459683D01*
X179718231Y-72453867D01*
X179784552Y-72409552D01*
X179828867Y-72343231D01*
X179840500Y-72284748D01*
X179840500Y-70945252D01*
X179828867Y-70886769D01*
X179805599Y-70851946D01*
X179784552Y-70820447D01*
X179718230Y-70776132D01*
X179659749Y-70764500D01*
X179659748Y-70764500D01*
X178020252Y-70764500D01*
X178020251Y-70764500D01*
X177961769Y-70776132D01*
X177895447Y-70820447D01*
X177851132Y-70886769D01*
X177839500Y-70945251D01*
X177839500Y-70963841D01*
X177825056Y-71021924D01*
X177785087Y-71066474D01*
X177728907Y-71087114D01*
X177669603Y-71079034D01*
X177620992Y-71044117D01*
X177578336Y-70993899D01*
X177431061Y-70881943D01*
X177429550Y-70881244D01*
X177383415Y-70844412D01*
X177359539Y-70790421D01*
X177363335Y-70731508D01*
X177393940Y-70681029D01*
X177672684Y-70402285D01*
X177714466Y-70374775D01*
X177763722Y-70366013D01*
X177812427Y-70377428D01*
X177916833Y-70425732D01*
X178097503Y-70465500D01*
X178536113Y-70465500D01*
X178536115Y-70465500D01*
X178619080Y-70456477D01*
X178673910Y-70450514D01*
X178849221Y-70391444D01*
X179007736Y-70296070D01*
X179142041Y-70168849D01*
X179245858Y-70015730D01*
X179314331Y-69843875D01*
X179344260Y-69661317D01*
X179334245Y-69476593D01*
X179284754Y-69298341D01*
X179198100Y-69134896D01*
X179078337Y-68993900D01*
X179067487Y-68985652D01*
X178931063Y-68881944D01*
X178763169Y-68804268D01*
X178582497Y-68764500D01*
X178143887Y-68764500D01*
X178143885Y-68764500D01*
X178006091Y-68779485D01*
X177830779Y-68838556D01*
X177672262Y-68933931D01*
X177537960Y-69061149D01*
X177434140Y-69214272D01*
X177365669Y-69386121D01*
X177350837Y-69476593D01*
X177336701Y-69562825D01*
X177335740Y-69568685D01*
X177345754Y-69753407D01*
X177353754Y-69782218D01*
X177354192Y-69846944D01*
X177321955Y-69903072D01*
X176996845Y-70228183D01*
X176956620Y-70255061D01*
X176909167Y-70264500D01*
X176311077Y-70264500D01*
X176247148Y-70246750D01*
X176201522Y-70198583D01*
X176187259Y-70133787D01*
X176208444Y-70070913D01*
X176245858Y-70015731D01*
X176314330Y-69843878D01*
X176314330Y-69843877D01*
X176314331Y-69843875D01*
X176344260Y-69661317D01*
X176334245Y-69476593D01*
X176284754Y-69298341D01*
X176198100Y-69134896D01*
X176078337Y-68993900D01*
X176067487Y-68985652D01*
X175931063Y-68881944D01*
X175763169Y-68804268D01*
X175582497Y-68764500D01*
X175143887Y-68764500D01*
X175143885Y-68764500D01*
X175006091Y-68779485D01*
X174830779Y-68838556D01*
X174672262Y-68933931D01*
X174537960Y-69061149D01*
X174434140Y-69214272D01*
X174365669Y-69386122D01*
X174365669Y-69386125D01*
X174355924Y-69445563D01*
X174333614Y-69498746D01*
X174289655Y-69536086D01*
X174233559Y-69549500D01*
X173424244Y-69549500D01*
X173407423Y-69546756D01*
X173364309Y-69548749D01*
X173350920Y-69549368D01*
X173345196Y-69549500D01*
X173326183Y-69549500D01*
X173311695Y-69551181D01*
X173285005Y-69552415D01*
X173278666Y-69555214D01*
X173251379Y-69563664D01*
X173244568Y-69564937D01*
X173221856Y-69578999D01*
X173206673Y-69587002D01*
X173182234Y-69597793D01*
X173177337Y-69602691D01*
X173154940Y-69620432D01*
X173149047Y-69624081D01*
X173132950Y-69645396D01*
X173121679Y-69658348D01*
X158026848Y-84753181D01*
X157986620Y-84780061D01*
X157939167Y-84789500D01*
X156797482Y-84789500D01*
X156742638Y-84776712D01*
X156699106Y-84740986D01*
X156638281Y-84661717D01*
X156512840Y-84565463D01*
X156366762Y-84504956D01*
X156210000Y-84484317D01*
X156053237Y-84504956D01*
X155907159Y-84565463D01*
X155781717Y-84661717D01*
X155685463Y-84787159D01*
X155624956Y-84933237D01*
X155604317Y-85089999D01*
X155624956Y-85246762D01*
X155685463Y-85392840D01*
X155781717Y-85518282D01*
X155907158Y-85614535D01*
X155907159Y-85614536D01*
X156053238Y-85675044D01*
X156210000Y-85695682D01*
X156366762Y-85675044D01*
X156512841Y-85614536D01*
X156638282Y-85518282D01*
X156699106Y-85439013D01*
X156742638Y-85403288D01*
X156797482Y-85390500D01*
X158045757Y-85390500D01*
X158062577Y-85393243D01*
X158072762Y-85392772D01*
X158072765Y-85392773D01*
X158119080Y-85390631D01*
X158124805Y-85390500D01*
X158143824Y-85390500D01*
X158158318Y-85388817D01*
X158184992Y-85387585D01*
X158191330Y-85384786D01*
X158218633Y-85376332D01*
X158225433Y-85375061D01*
X158248143Y-85360998D01*
X158263325Y-85352996D01*
X158287765Y-85342206D01*
X158292659Y-85337311D01*
X158315063Y-85319564D01*
X158320952Y-85315919D01*
X158337053Y-85294595D01*
X158348313Y-85281656D01*
X173443151Y-70186819D01*
X173483380Y-70159939D01*
X173530833Y-70150500D01*
X174471585Y-70150500D01*
X174523651Y-70161961D01*
X174566093Y-70194224D01*
X174601663Y-70236100D01*
X174759672Y-70356216D01*
X174758089Y-70358298D01*
X174786322Y-70380834D01*
X174810202Y-70434826D01*
X174806408Y-70493742D01*
X174775800Y-70544226D01*
X158026848Y-87293181D01*
X157986620Y-87320061D01*
X157939167Y-87329500D01*
X156797482Y-87329500D01*
X156742638Y-87316712D01*
X156699106Y-87280986D01*
X156638281Y-87201717D01*
X156512840Y-87105463D01*
X156366762Y-87044956D01*
X156210000Y-87024317D01*
X156053237Y-87044956D01*
X155907159Y-87105463D01*
X155781717Y-87201717D01*
X155685463Y-87327159D01*
X155624956Y-87473237D01*
X155604317Y-87629999D01*
X147290682Y-87629999D01*
X147270044Y-87473238D01*
X147209536Y-87327159D01*
X147183464Y-87293181D01*
X147113282Y-87201717D01*
X146987840Y-87105463D01*
X146841762Y-87044956D01*
X146685000Y-87024317D01*
X146528237Y-87044956D01*
X146382159Y-87105463D01*
X146256718Y-87201717D01*
X146195894Y-87280986D01*
X146152362Y-87316712D01*
X146097518Y-87329500D01*
X128974244Y-87329500D01*
X128957423Y-87326756D01*
X128914309Y-87328749D01*
X128900920Y-87329368D01*
X128895196Y-87329500D01*
X128876183Y-87329500D01*
X128861695Y-87331181D01*
X128835005Y-87332415D01*
X128828666Y-87335214D01*
X128801379Y-87343664D01*
X128794568Y-87344937D01*
X128771856Y-87358999D01*
X128756673Y-87367002D01*
X128732234Y-87377793D01*
X128727337Y-87382691D01*
X128704940Y-87400432D01*
X128699047Y-87404081D01*
X128682950Y-87425396D01*
X128671679Y-87438348D01*
X124931475Y-91178552D01*
X124917639Y-91188508D01*
X124879523Y-91230318D01*
X124875573Y-91234454D01*
X124862141Y-91247886D01*
X124853087Y-91259317D01*
X124835083Y-91279067D01*
X124832578Y-91285534D01*
X124819259Y-91310802D01*
X124815343Y-91316518D01*
X124809228Y-91342517D01*
X124804151Y-91358913D01*
X124794500Y-91383827D01*
X124794500Y-91390751D01*
X124791206Y-91419144D01*
X124789621Y-91425881D01*
X124793311Y-91452332D01*
X124794500Y-91469465D01*
X124794500Y-91664518D01*
X124781712Y-91719362D01*
X124745986Y-91762894D01*
X124666717Y-91823718D01*
X124570463Y-91949159D01*
X124509956Y-92095237D01*
X124489317Y-92251999D01*
X124107682Y-92251999D01*
X124087044Y-92095238D01*
X124026536Y-91949159D01*
X123930282Y-91823718D01*
X123851013Y-91762893D01*
X123815288Y-91719362D01*
X123802500Y-91664518D01*
X123802500Y-90668833D01*
X123811939Y-90621380D01*
X123838819Y-90581152D01*
X128993152Y-85426819D01*
X129033380Y-85399939D01*
X129080833Y-85390500D01*
X146097518Y-85390500D01*
X146152362Y-85403288D01*
X146195893Y-85439013D01*
X146256718Y-85518282D01*
X146382159Y-85614536D01*
X146528238Y-85675044D01*
X146685000Y-85695682D01*
X146841762Y-85675044D01*
X146987841Y-85614536D01*
X147113282Y-85518282D01*
X147209536Y-85392841D01*
X147270044Y-85246762D01*
X147290682Y-85090000D01*
X147270044Y-84933238D01*
X147209536Y-84787159D01*
X147183464Y-84753181D01*
X147113282Y-84661717D01*
X146987840Y-84565463D01*
X146841762Y-84504956D01*
X146685000Y-84484317D01*
X146528237Y-84504956D01*
X146382159Y-84565463D01*
X146256718Y-84661717D01*
X146195894Y-84740986D01*
X146152362Y-84776712D01*
X146097518Y-84789500D01*
X128974244Y-84789500D01*
X128957423Y-84786756D01*
X128914309Y-84788749D01*
X128900920Y-84789368D01*
X128895196Y-84789500D01*
X128876183Y-84789500D01*
X128861695Y-84791181D01*
X128835005Y-84792415D01*
X128828666Y-84795214D01*
X128801379Y-84803664D01*
X128794568Y-84804937D01*
X128771856Y-84818999D01*
X128756673Y-84827002D01*
X128732234Y-84837793D01*
X128727337Y-84842691D01*
X128704940Y-84860432D01*
X128699047Y-84864081D01*
X128682950Y-84885396D01*
X128671679Y-84898348D01*
X123338475Y-90231552D01*
X123324639Y-90241508D01*
X123286523Y-90283318D01*
X123282573Y-90287454D01*
X123269141Y-90300886D01*
X123260087Y-90312317D01*
X123242083Y-90332067D01*
X123239578Y-90338534D01*
X123226259Y-90363802D01*
X123222343Y-90369518D01*
X123216228Y-90395517D01*
X123211151Y-90411913D01*
X123201500Y-90436827D01*
X123201500Y-90443751D01*
X123198206Y-90472144D01*
X123196621Y-90478881D01*
X123200311Y-90505332D01*
X123201500Y-90522465D01*
X123201500Y-91664518D01*
X123188712Y-91719362D01*
X123152986Y-91762894D01*
X123073717Y-91823718D01*
X122977463Y-91949159D01*
X122916956Y-92095237D01*
X122896317Y-92251999D01*
X122555000Y-92251999D01*
X122555000Y-82549999D01*
X129569317Y-82549999D01*
X129589956Y-82706762D01*
X129650463Y-82852840D01*
X129746717Y-82978282D01*
X129872159Y-83074536D01*
X130018238Y-83135044D01*
X130175000Y-83155682D01*
X130331762Y-83135044D01*
X130477841Y-83074536D01*
X130603282Y-82978282D01*
X130664106Y-82899013D01*
X130707638Y-82863288D01*
X130762482Y-82850500D01*
X142170757Y-82850500D01*
X142187577Y-82853243D01*
X142197762Y-82852772D01*
X142197765Y-82852773D01*
X142244080Y-82850631D01*
X142249805Y-82850500D01*
X142268824Y-82850500D01*
X142283318Y-82848817D01*
X142309992Y-82847585D01*
X142316330Y-82844786D01*
X142343633Y-82836332D01*
X142350433Y-82835061D01*
X142373143Y-82820998D01*
X142388325Y-82812996D01*
X142412765Y-82802206D01*
X142417659Y-82797311D01*
X142440063Y-82779564D01*
X142445952Y-82775919D01*
X142462053Y-82754595D01*
X142473313Y-82741656D01*
X143942073Y-81272896D01*
X143989894Y-81243160D01*
X144045936Y-81237640D01*
X144145000Y-81250682D01*
X144301762Y-81230044D01*
X144447841Y-81169536D01*
X144573282Y-81073282D01*
X144669536Y-80947841D01*
X144730044Y-80801762D01*
X144750682Y-80645000D01*
X144730044Y-80488238D01*
X144669536Y-80342159D01*
X144669535Y-80342158D01*
X144573282Y-80216717D01*
X144447840Y-80120463D01*
X144301762Y-80059956D01*
X144145000Y-80039317D01*
X143988237Y-80059956D01*
X143842159Y-80120463D01*
X143716717Y-80216717D01*
X143620463Y-80342159D01*
X143559956Y-80488237D01*
X143539317Y-80645000D01*
X143552359Y-80744060D01*
X143546839Y-80800104D01*
X143517101Y-80847926D01*
X142151848Y-82213181D01*
X142111620Y-82240061D01*
X142064167Y-82249500D01*
X130762482Y-82249500D01*
X130707638Y-82236712D01*
X130664106Y-82200986D01*
X130603281Y-82121717D01*
X130477840Y-82025463D01*
X130331762Y-81964956D01*
X130175000Y-81944317D01*
X130018237Y-81964956D01*
X129872159Y-82025463D01*
X129746717Y-82121717D01*
X129650463Y-82247159D01*
X129589956Y-82393237D01*
X129569317Y-82549999D01*
X122555000Y-82549999D01*
X122555000Y-79375000D01*
X156239317Y-79375000D01*
X156259956Y-79531762D01*
X156320463Y-79677840D01*
X156416717Y-79803282D01*
X156542158Y-79899535D01*
X156542159Y-79899536D01*
X156688238Y-79960044D01*
X156845000Y-79980682D01*
X157001762Y-79960044D01*
X157147841Y-79899536D01*
X157273282Y-79803282D01*
X157334106Y-79724013D01*
X157377638Y-79688288D01*
X157432482Y-79675500D01*
X159315757Y-79675500D01*
X159332577Y-79678243D01*
X159342762Y-79677772D01*
X159342765Y-79677773D01*
X159389080Y-79675631D01*
X159394805Y-79675500D01*
X159413824Y-79675500D01*
X159428318Y-79673817D01*
X159454992Y-79672585D01*
X159461330Y-79669786D01*
X159488633Y-79661332D01*
X159495433Y-79660061D01*
X159518143Y-79645998D01*
X159533325Y-79637996D01*
X159557765Y-79627206D01*
X159562659Y-79622311D01*
X159585063Y-79604564D01*
X159590952Y-79600919D01*
X159607053Y-79579595D01*
X159618313Y-79566656D01*
X166533518Y-72651451D01*
X166547353Y-72641498D01*
X166554225Y-72633959D01*
X166554228Y-72633958D01*
X166585488Y-72599666D01*
X166589379Y-72595590D01*
X166602174Y-72582797D01*
X166602178Y-72582790D01*
X166602868Y-72582101D01*
X166611922Y-72570671D01*
X166629915Y-72550934D01*
X166629914Y-72550934D01*
X166629916Y-72550933D01*
X166632417Y-72544474D01*
X166645748Y-72519186D01*
X166649656Y-72513481D01*
X166649655Y-72513481D01*
X166649657Y-72513480D01*
X166655775Y-72487467D01*
X166660845Y-72471093D01*
X166670500Y-72446173D01*
X166670500Y-72439248D01*
X166673794Y-72410858D01*
X166674101Y-72409552D01*
X166675379Y-72404119D01*
X166671689Y-72377667D01*
X166670500Y-72360536D01*
X166670500Y-68966744D01*
X166673243Y-68949923D01*
X166672772Y-68939737D01*
X166672773Y-68939736D01*
X166670631Y-68893420D01*
X166670500Y-68887696D01*
X166670500Y-68868678D01*
X166668817Y-68854180D01*
X166668095Y-68838556D01*
X166667585Y-68827509D01*
X166664786Y-68821171D01*
X166656332Y-68793867D01*
X166655061Y-68787068D01*
X166655061Y-68787067D01*
X166640997Y-68764353D01*
X166632994Y-68749169D01*
X166622206Y-68724735D01*
X166617310Y-68719839D01*
X166599563Y-68697433D01*
X166595919Y-68691548D01*
X166574602Y-68675450D01*
X166561648Y-68664177D01*
X165466156Y-67568685D01*
X174835740Y-67568685D01*
X174845754Y-67753407D01*
X174895245Y-67931658D01*
X174981899Y-68095103D01*
X175101663Y-68236100D01*
X175248936Y-68348055D01*
X175416830Y-68425731D01*
X175416831Y-68425731D01*
X175416833Y-68425732D01*
X175597503Y-68465500D01*
X176036113Y-68465500D01*
X176036115Y-68465500D01*
X176105011Y-68458007D01*
X176173910Y-68450514D01*
X176349221Y-68391444D01*
X176507736Y-68296070D01*
X176642041Y-68168849D01*
X176739051Y-68025768D01*
X176786588Y-67984268D01*
X176848396Y-67971538D01*
X176908465Y-67990875D01*
X176951239Y-68037272D01*
X176981900Y-68095104D01*
X177101663Y-68236100D01*
X177248936Y-68348055D01*
X177416830Y-68425731D01*
X177416831Y-68425731D01*
X177416833Y-68425732D01*
X177597503Y-68465500D01*
X178036113Y-68465500D01*
X178036115Y-68465500D01*
X178105011Y-68458007D01*
X178173910Y-68450514D01*
X178349221Y-68391444D01*
X178507736Y-68296070D01*
X178642041Y-68168849D01*
X178739051Y-68025768D01*
X178786588Y-67984268D01*
X178848396Y-67971538D01*
X178908465Y-67990875D01*
X178951239Y-68037272D01*
X178981900Y-68095104D01*
X179101663Y-68236100D01*
X179248936Y-68348055D01*
X179416830Y-68425731D01*
X179416831Y-68425731D01*
X179416833Y-68425732D01*
X179597503Y-68465500D01*
X180036113Y-68465500D01*
X180036115Y-68465500D01*
X180105011Y-68458007D01*
X180173910Y-68450514D01*
X180349221Y-68391444D01*
X180507736Y-68296070D01*
X180642041Y-68168849D01*
X180745858Y-68015730D01*
X180814331Y-67843875D01*
X180844260Y-67661317D01*
X180834245Y-67476593D01*
X180800508Y-67355084D01*
X180784754Y-67298341D01*
X180698100Y-67134896D01*
X180578336Y-66993899D01*
X180431063Y-66881944D01*
X180263169Y-66804268D01*
X180082497Y-66764500D01*
X179643887Y-66764500D01*
X179643885Y-66764500D01*
X179506091Y-66779485D01*
X179330779Y-66838556D01*
X179172262Y-66933931D01*
X179037957Y-67061152D01*
X178940948Y-67204230D01*
X178893410Y-67245731D01*
X178831602Y-67258461D01*
X178771533Y-67239123D01*
X178728760Y-67192726D01*
X178698100Y-67134896D01*
X178578336Y-66993899D01*
X178431063Y-66881944D01*
X178263169Y-66804268D01*
X178082497Y-66764500D01*
X177643887Y-66764500D01*
X177643885Y-66764500D01*
X177506091Y-66779485D01*
X177330779Y-66838556D01*
X177172262Y-66933931D01*
X177037957Y-67061152D01*
X176940948Y-67204230D01*
X176893410Y-67245731D01*
X176831602Y-67258461D01*
X176771533Y-67239123D01*
X176728760Y-67192726D01*
X176698100Y-67134896D01*
X176578336Y-66993899D01*
X176431063Y-66881944D01*
X176263169Y-66804268D01*
X176082497Y-66764500D01*
X175643887Y-66764500D01*
X175643885Y-66764500D01*
X175506091Y-66779485D01*
X175330779Y-66838556D01*
X175172262Y-66933931D01*
X175037960Y-67061149D01*
X174934140Y-67214272D01*
X174865669Y-67386121D01*
X174835740Y-67568685D01*
X165466156Y-67568685D01*
X165348950Y-67451479D01*
X165338997Y-67437645D01*
X165297181Y-67399524D01*
X165293040Y-67395569D01*
X165279610Y-67382139D01*
X165268178Y-67373083D01*
X165248434Y-67355084D01*
X165241968Y-67352579D01*
X165216692Y-67339256D01*
X165210981Y-67335344D01*
X165210980Y-67335343D01*
X165210978Y-67335342D01*
X165184984Y-67329228D01*
X165168587Y-67324151D01*
X165143673Y-67314500D01*
X165136749Y-67314500D01*
X165108359Y-67311206D01*
X165101619Y-67309621D01*
X165101618Y-67309621D01*
X165090257Y-67311206D01*
X165075166Y-67313311D01*
X165058035Y-67314500D01*
X164952929Y-67314500D01*
X164889001Y-67296750D01*
X164843374Y-67248583D01*
X164783100Y-67134896D01*
X164663336Y-66993899D01*
X164516063Y-66881944D01*
X164348169Y-66804268D01*
X164167497Y-66764500D01*
X163728887Y-66764500D01*
X163728885Y-66764500D01*
X163591091Y-66779485D01*
X163415779Y-66838556D01*
X163257262Y-66933931D01*
X163122960Y-67061149D01*
X163019140Y-67214272D01*
X162950669Y-67386121D01*
X162920740Y-67568685D01*
X162930754Y-67753407D01*
X162980245Y-67931658D01*
X163066899Y-68095103D01*
X163186663Y-68236100D01*
X163333936Y-68348055D01*
X163501830Y-68425731D01*
X163501831Y-68425731D01*
X163501833Y-68425732D01*
X163682503Y-68465500D01*
X164121113Y-68465500D01*
X164121115Y-68465500D01*
X164190011Y-68458007D01*
X164258910Y-68450514D01*
X164434221Y-68391444D01*
X164592736Y-68296070D01*
X164727041Y-68168849D01*
X164830858Y-68015730D01*
X164830858Y-68015729D01*
X164838426Y-68004568D01*
X164840678Y-68006095D01*
X164862920Y-67975347D01*
X164917541Y-67948942D01*
X164978150Y-67951610D01*
X165030240Y-67982711D01*
X166033181Y-68985652D01*
X166060061Y-69025880D01*
X166069500Y-69073333D01*
X166069500Y-72214167D01*
X166060061Y-72261620D01*
X166033181Y-72301848D01*
X159296848Y-79038181D01*
X159256620Y-79065061D01*
X159209167Y-79074500D01*
X157432482Y-79074500D01*
X157377638Y-79061712D01*
X157334106Y-79025986D01*
X157273281Y-78946717D01*
X157147840Y-78850463D01*
X157001762Y-78789956D01*
X156845000Y-78769317D01*
X156688237Y-78789956D01*
X156542159Y-78850463D01*
X156416717Y-78946717D01*
X156320463Y-79072159D01*
X156259956Y-79218237D01*
X156239317Y-79375000D01*
X122555000Y-79375000D01*
X122555000Y-73025000D01*
X138459317Y-73025000D01*
X138479956Y-73181762D01*
X138540463Y-73327840D01*
X138636717Y-73453282D01*
X138680493Y-73486872D01*
X138762159Y-73549536D01*
X138908238Y-73610044D01*
X139044360Y-73627964D01*
X139064999Y-73630682D01*
X139064999Y-73630681D01*
X139065000Y-73630682D01*
X139164062Y-73617640D01*
X139220104Y-73623160D01*
X139267927Y-73652898D01*
X143248550Y-77633521D01*
X143258507Y-77647358D01*
X143266041Y-77654226D01*
X143266042Y-77654228D01*
X143279429Y-77666432D01*
X143300316Y-77685474D01*
X143304457Y-77689429D01*
X143317888Y-77702860D01*
X143329328Y-77711922D01*
X143349065Y-77729915D01*
X143349066Y-77729915D01*
X143349067Y-77729916D01*
X143355340Y-77732346D01*
X143355523Y-77732417D01*
X143380810Y-77745745D01*
X143386519Y-77749656D01*
X143412514Y-77755769D01*
X143428910Y-77760846D01*
X143453827Y-77770500D01*
X143460751Y-77770500D01*
X143489140Y-77773793D01*
X143495881Y-77775379D01*
X143522333Y-77771688D01*
X143539465Y-77770500D01*
X158045757Y-77770500D01*
X158062577Y-77773243D01*
X158072762Y-77772772D01*
X158072765Y-77772773D01*
X158119080Y-77770631D01*
X158124805Y-77770500D01*
X158143824Y-77770500D01*
X158158318Y-77768817D01*
X158184992Y-77767585D01*
X158191330Y-77764786D01*
X158218633Y-77756332D01*
X158225433Y-77755061D01*
X158248143Y-77740998D01*
X158263325Y-77732996D01*
X158287765Y-77722206D01*
X158292659Y-77717311D01*
X158315063Y-77699564D01*
X158320952Y-77695919D01*
X158337053Y-77674595D01*
X158348313Y-77661656D01*
X163088518Y-72921451D01*
X163102353Y-72911498D01*
X163109225Y-72903959D01*
X163109228Y-72903958D01*
X163140488Y-72869666D01*
X163144379Y-72865590D01*
X163157174Y-72852797D01*
X163157178Y-72852790D01*
X163157868Y-72852101D01*
X163166922Y-72840671D01*
X163184914Y-72820935D01*
X163184913Y-72820935D01*
X163184916Y-72820933D01*
X163187419Y-72814470D01*
X163200743Y-72789191D01*
X163204656Y-72783481D01*
X163210770Y-72757481D01*
X163215846Y-72741089D01*
X163225500Y-72716173D01*
X163225500Y-72709249D01*
X163228794Y-72680856D01*
X163230379Y-72674119D01*
X163226688Y-72647666D01*
X163225500Y-72630535D01*
X163225500Y-72589500D01*
X163242113Y-72527500D01*
X163287500Y-72482113D01*
X163349500Y-72465500D01*
X163744749Y-72465500D01*
X163773989Y-72459683D01*
X163803231Y-72453867D01*
X163869552Y-72409552D01*
X163913867Y-72343231D01*
X163925500Y-72284748D01*
X163925500Y-70945252D01*
X163913867Y-70886769D01*
X163890599Y-70851946D01*
X163869552Y-70820447D01*
X163803230Y-70776132D01*
X163744749Y-70764500D01*
X163744748Y-70764500D01*
X162105252Y-70764500D01*
X162105251Y-70764500D01*
X162046769Y-70776132D01*
X161980447Y-70820447D01*
X161936132Y-70886769D01*
X161924500Y-70945251D01*
X161924500Y-72284749D01*
X161936132Y-72343230D01*
X161980447Y-72409552D01*
X162046769Y-72453867D01*
X162105251Y-72465500D01*
X162105252Y-72465500D01*
X162395167Y-72465500D01*
X162451462Y-72479015D01*
X162495485Y-72516615D01*
X162517640Y-72570102D01*
X162513098Y-72627818D01*
X162482848Y-72677181D01*
X158026848Y-77133181D01*
X157986620Y-77160061D01*
X157939167Y-77169500D01*
X143685833Y-77169500D01*
X143638380Y-77160061D01*
X143598152Y-77133181D01*
X139692898Y-73227927D01*
X139663160Y-73180104D01*
X139657640Y-73124062D01*
X139670682Y-73025000D01*
X139650044Y-72868238D01*
X139589536Y-72722159D01*
X139557843Y-72680856D01*
X139493282Y-72596717D01*
X139367840Y-72500463D01*
X139221762Y-72439956D01*
X139065000Y-72419317D01*
X138908237Y-72439956D01*
X138762159Y-72500463D01*
X138636717Y-72596717D01*
X138540463Y-72722159D01*
X138479956Y-72868237D01*
X138459317Y-73025000D01*
X122555000Y-73025000D01*
X122555000Y-63489500D01*
X122571613Y-63427500D01*
X122617000Y-63382113D01*
X122679000Y-63365500D01*
X138364108Y-63365500D01*
X138425125Y-63365500D01*
X138434853Y-63365881D01*
G37*
%TD.AperFunction*%
%TD*%
M02*
