%TF.GenerationSoftware,KiCad,Pcbnew,7.0.1-0*%
%TF.CreationDate,2023-06-08T23:36:28+08:00*%
%TF.ProjectId,FT817-BT-JDY67,46543831-372d-4425-942d-4a445936372e,20230608*%
%TF.SameCoordinates,Original*%
%TF.FileFunction,Legend,Top*%
%TF.FilePolarity,Positive*%
%FSLAX46Y46*%
G04 Gerber Fmt 4.6, Leading zero omitted, Abs format (unit mm)*
G04 Created by KiCad (PCBNEW 7.0.1-0) date 2023-06-08 23:36:28*
%MOMM*%
%LPD*%
G01*
G04 APERTURE LIST*
%ADD10C,0.150000*%
%ADD11C,0.100000*%
%ADD12C,0.203000*%
%ADD13C,0.120000*%
%ADD14C,0.127000*%
%ADD15C,0.160000*%
%ADD16C,0.350000*%
G04 APERTURE END LIST*
D10*
X140970000Y-74295000D02*
X140970000Y-74295000D01*
X100965000Y-80010000D02*
X100965000Y-80010000D01*
X91440000Y-81915000D02*
X91440000Y-81915000D01*
X106680000Y-63500000D02*
X106680000Y-63500000D01*
X104775000Y-73025000D02*
X104775000Y-73025000D01*
X104775000Y-69850000D02*
X104775000Y-69850000D01*
X121920000Y-64135000D02*
X121920000Y-63500000D01*
X125730000Y-63500000D02*
X125730000Y-63500000D01*
X132080000Y-65405000D02*
X132080000Y-65405000D01*
X123190000Y-63500000D02*
X123190000Y-63500000D01*
X139700000Y-69215000D02*
X139065000Y-69215000D01*
X102870000Y-86360000D02*
X102870000Y-86360000D01*
X104775000Y-65405000D02*
X104775000Y-65405000D01*
X137160000Y-67310000D02*
X137160000Y-67310000D01*
X104775000Y-67945000D02*
X104775000Y-67945000D01*
X139700000Y-68580000D02*
X139700000Y-68580000D01*
X102870000Y-88265000D02*
X102870000Y-88265000D01*
X94615000Y-94615000D02*
X94615000Y-94615000D01*
X104140000Y-66040000D02*
X104775000Y-66040000D01*
X116840000Y-63500000D02*
X116840000Y-63500000D01*
X104775000Y-77470000D02*
X104775000Y-77470000D01*
X98425000Y-94615000D02*
X98425000Y-94615000D01*
X106680000Y-63500000D02*
X106680000Y-63500000D01*
X154305000Y-91440000D02*
X154305000Y-91440000D01*
X104775000Y-71120000D02*
X104775000Y-71120000D01*
X137160000Y-67945000D02*
X137160000Y-67945000D01*
X127635000Y-63500000D02*
X127635000Y-63500000D01*
X102870000Y-80010000D02*
X102870000Y-80010000D01*
X128905000Y-63500000D02*
X128905000Y-63500000D01*
X139700000Y-65405000D02*
X139700000Y-65405000D01*
X104140000Y-75565000D02*
X104775000Y-75565000D01*
X127000000Y-63500000D02*
X127000000Y-63500000D01*
X139700000Y-70485000D02*
X139700000Y-70485000D01*
X104775000Y-66675000D02*
X104775000Y-66675000D01*
X139700000Y-63500000D02*
X139700000Y-63500000D01*
X104775000Y-74295000D02*
X104775000Y-74295000D01*
X113030000Y-63500000D02*
X113030000Y-63500000D01*
X154940000Y-71120000D02*
X154940000Y-71120000D01*
X154940000Y-92075000D02*
X154940000Y-92075000D01*
X154940000Y-94615000D02*
X154940000Y-94615000D01*
X93345000Y-83185000D02*
X93345000Y-83185000D01*
X155575000Y-69215000D02*
X154940000Y-69215000D01*
X94615000Y-80010000D02*
X94615000Y-80010000D01*
X151765000Y-75565000D02*
X151765000Y-75565000D01*
X93345000Y-94615000D02*
X93345000Y-94615000D01*
X99060000Y-80010000D02*
X99060000Y-80010000D01*
X102235000Y-94615000D02*
X102235000Y-94615000D01*
X97790000Y-83185000D02*
X97790000Y-83185000D01*
X91440000Y-85090000D02*
X91440000Y-85090000D01*
X132080000Y-68580000D02*
X132080000Y-68580000D01*
X154940000Y-95885000D02*
X154940000Y-95885000D01*
X139700000Y-66040000D02*
X139065000Y-66040000D01*
X101600000Y-80010000D02*
X101600000Y-80010000D01*
X104775000Y-70485000D02*
X104775000Y-70485000D01*
X149860000Y-92710000D02*
X149860000Y-92710000D01*
X98425000Y-80010000D02*
X98425000Y-80010000D01*
X150495000Y-75565000D02*
X150495000Y-76200000D01*
X146050000Y-76200000D02*
X146050000Y-76200000D01*
X91440000Y-88265000D02*
X91440000Y-88265000D01*
X102870000Y-94615000D02*
X102870000Y-94615000D01*
X104775000Y-69850000D02*
X104775000Y-69850000D01*
X92075000Y-80010000D02*
X92075000Y-80010000D01*
X102870000Y-86360000D02*
X102870000Y-86360000D01*
X102870000Y-93980000D02*
X102870000Y-93980000D01*
X154940000Y-95250000D02*
X154940000Y-95250000D01*
X143510000Y-75565000D02*
X143510000Y-75565000D01*
X118110000Y-63500000D02*
X118110000Y-63500000D01*
X140970000Y-73025000D02*
X140970000Y-73025000D01*
X102870000Y-83185000D02*
X102870000Y-83185000D01*
X154940000Y-93345000D02*
X154940000Y-93345000D01*
X104775000Y-67310000D02*
X104775000Y-67310000D01*
X91440000Y-80645000D02*
X91440000Y-80645000D01*
X119380000Y-63500000D02*
X119380000Y-63500000D01*
X154940000Y-91440000D02*
X154940000Y-91440000D01*
X117475000Y-63500000D02*
X117475000Y-63500000D01*
X120015000Y-63500000D02*
X120015000Y-63500000D01*
X137160000Y-65405000D02*
X137160000Y-65405000D01*
X104775000Y-76200000D02*
X104775000Y-76200000D01*
X101600000Y-83185000D02*
X101600000Y-83185000D01*
X125095000Y-64135000D02*
X125095000Y-63500000D01*
X113030000Y-63500000D02*
X113030000Y-63500000D01*
X130175000Y-63500000D02*
X130175000Y-63500000D01*
X145415000Y-76200000D02*
X145415000Y-76200000D01*
X140970000Y-72390000D02*
X139700000Y-72390000D01*
X110490000Y-63500000D02*
X110490000Y-63500000D01*
X114300000Y-63500000D02*
X114300000Y-63500000D01*
X136525000Y-63500000D02*
X136525000Y-63500000D01*
X139700000Y-66675000D02*
X139700000Y-66675000D01*
X92710000Y-83185000D02*
X92710000Y-83185000D01*
X96520000Y-83185000D02*
X96520000Y-83185000D01*
X100965000Y-94615000D02*
X100965000Y-94615000D01*
X151130000Y-95885000D02*
X151130000Y-95885000D01*
X91440000Y-91440000D02*
X91440000Y-91440000D01*
X92710000Y-94615000D02*
X92710000Y-94615000D01*
X126365000Y-63500000D02*
X126365000Y-63500000D01*
X91440000Y-87630000D02*
X91440000Y-87630000D01*
X120650000Y-63500000D02*
X120650000Y-63500000D01*
X94615000Y-83185000D02*
X94615000Y-83185000D01*
X91440000Y-93980000D02*
X91440000Y-93980000D01*
X140970000Y-74930000D02*
X140970000Y-74930000D01*
X91440000Y-94615000D02*
X91440000Y-94615000D01*
X102235000Y-92075000D02*
X102870000Y-92075000D01*
X91440000Y-83185000D02*
X91440000Y-83185000D01*
X95885000Y-94615000D02*
X95885000Y-94615000D01*
X140970000Y-73660000D02*
X140970000Y-73660000D01*
X154940000Y-67945000D02*
X154940000Y-67945000D01*
X139700000Y-64135000D02*
X139700000Y-64135000D01*
X109855000Y-63500000D02*
X109855000Y-63500000D01*
X144145000Y-76200000D02*
X144145000Y-75565000D01*
X91440000Y-86360000D02*
X91440000Y-86360000D01*
X91440000Y-92710000D02*
X91440000Y-92710000D01*
X132080000Y-67310000D02*
X132080000Y-67310000D01*
X94615000Y-94615000D02*
X94615000Y-94615000D01*
X95250000Y-94615000D02*
X95250000Y-94615000D01*
X102870000Y-89535000D02*
X102870000Y-89535000D01*
X154940000Y-67310000D02*
X154940000Y-67310000D01*
X92075000Y-94615000D02*
X92075000Y-94615000D01*
X139065000Y-63500000D02*
X139065000Y-63500000D01*
X137160000Y-63500000D02*
X137160000Y-63500000D01*
X105410000Y-63500000D02*
X105410000Y-63500000D01*
X134620000Y-64135000D02*
X134620000Y-63500000D01*
X104775000Y-64770000D02*
X104775000Y-64770000D01*
X104775000Y-76835000D02*
X104775000Y-76835000D01*
X128905000Y-63500000D02*
X128905000Y-63500000D01*
X141605000Y-75565000D02*
X141605000Y-75565000D01*
X91440000Y-90805000D02*
X91440000Y-90805000D01*
X132080000Y-66675000D02*
X132080000Y-66675000D01*
X122555000Y-63500000D02*
X122555000Y-63500000D01*
X128270000Y-64135000D02*
X128270000Y-63500000D01*
X153670000Y-74295000D02*
X153670000Y-74295000D01*
X104775000Y-73660000D02*
X104775000Y-73660000D01*
X152400000Y-92075000D02*
X152400000Y-91440000D01*
X102870000Y-86995000D02*
X102870000Y-86995000D01*
X139700000Y-69850000D02*
X139700000Y-69850000D01*
X91440000Y-84455000D02*
X91440000Y-84455000D01*
X136525000Y-68580000D02*
X136525000Y-68580000D01*
X153035000Y-95885000D02*
X153035000Y-95885000D01*
X104140000Y-69215000D02*
X104775000Y-69215000D01*
X154940000Y-65405000D02*
X154940000Y-65405000D01*
X154940000Y-63500000D02*
X154940000Y-63500000D01*
X91440000Y-86995000D02*
X91440000Y-86995000D01*
X151130000Y-75565000D02*
X151130000Y-75565000D01*
X104775000Y-63500000D02*
X104775000Y-63500000D01*
X91440000Y-81280000D02*
X91440000Y-81280000D01*
X153670000Y-73660000D02*
X153670000Y-73660000D01*
X102235000Y-85725000D02*
X102870000Y-85725000D01*
X153035000Y-75565000D02*
X153035000Y-75565000D01*
X97155000Y-82550000D02*
X97155000Y-83185000D01*
X133350000Y-63500000D02*
X133350000Y-63500000D01*
X137160000Y-66675000D02*
X137160000Y-66675000D01*
X135255000Y-68580000D02*
X135255000Y-68580000D01*
X122555000Y-63500000D02*
X122555000Y-63500000D01*
X154940000Y-68580000D02*
X154940000Y-68580000D01*
X153670000Y-75565000D02*
X153670000Y-76200000D01*
X154940000Y-66675000D02*
X154940000Y-66675000D01*
X106045000Y-64135000D02*
X106045000Y-63500000D01*
X96520000Y-94615000D02*
X96520000Y-94615000D01*
X119380000Y-63500000D02*
X119380000Y-63500000D01*
X102870000Y-90805000D02*
X102870000Y-90805000D01*
X99060000Y-94615000D02*
X99060000Y-94615000D01*
X102870000Y-94615000D02*
X102870000Y-94615000D01*
X153670000Y-74930000D02*
X153670000Y-74930000D01*
X123825000Y-63500000D02*
X123825000Y-63500000D01*
X104775000Y-69850000D02*
X104775000Y-69850000D01*
X100330000Y-79375000D02*
X100330000Y-80010000D01*
X133985000Y-63500000D02*
X133985000Y-63500000D01*
X99695000Y-94615000D02*
X99695000Y-94615000D01*
X150495000Y-93980000D02*
X149860000Y-93980000D01*
X109220000Y-64135000D02*
X109220000Y-63500000D01*
X133350000Y-68580000D02*
X133350000Y-68580000D01*
X132080000Y-67945000D02*
X132080000Y-67945000D01*
X102870000Y-88900000D02*
X102235000Y-88900000D01*
X108585000Y-63500000D02*
X108585000Y-63500000D01*
X98425000Y-83185000D02*
X98425000Y-83185000D01*
X104140000Y-78740000D02*
X104775000Y-78740000D01*
X139700000Y-67310000D02*
X139700000Y-67310000D01*
X137160000Y-68580000D02*
X137160000Y-68580000D01*
X102870000Y-92710000D02*
X102870000Y-92710000D01*
X101600000Y-94615000D02*
X101600000Y-94615000D01*
X139700000Y-71120000D02*
X139700000Y-71120000D01*
X102870000Y-80010000D02*
X102870000Y-80010000D01*
X148590000Y-76200000D02*
X148590000Y-76200000D01*
X152400000Y-95250000D02*
X152400000Y-95885000D01*
X135890000Y-63500000D02*
X135890000Y-63500000D01*
X153670000Y-73025000D02*
X153670000Y-73025000D01*
X91440000Y-86360000D02*
X91440000Y-86360000D01*
X135890000Y-68580000D02*
X135890000Y-68580000D01*
X137160000Y-64135000D02*
X137160000Y-64135000D01*
X118745000Y-64135000D02*
X118745000Y-63500000D01*
X104140000Y-72390000D02*
X104775000Y-72390000D01*
X97790000Y-80010000D02*
X97790000Y-80010000D01*
X102870000Y-90170000D02*
X102870000Y-90170000D01*
X149860000Y-95250000D02*
X149860000Y-95250000D01*
X97790000Y-94615000D02*
X97790000Y-94615000D01*
X154940000Y-71755000D02*
X154940000Y-71755000D01*
X132080000Y-64770000D02*
X132080000Y-64770000D01*
X96520000Y-80010000D02*
X96520000Y-80010000D01*
X116205000Y-63500000D02*
X116205000Y-63500000D01*
X133985000Y-68580000D02*
X133985000Y-68580000D01*
X103505000Y-79375000D02*
X103505000Y-80010000D01*
X132080000Y-63500000D02*
X132080000Y-63500000D01*
X138430000Y-63500000D02*
X138430000Y-63500000D01*
X149225000Y-76200000D02*
X149225000Y-76200000D01*
X114935000Y-63500000D02*
X114935000Y-63500000D01*
X102870000Y-87630000D02*
X102870000Y-87630000D01*
X92075000Y-88900000D02*
X91440000Y-88900000D01*
X121285000Y-63500000D02*
X121285000Y-63500000D01*
X91440000Y-90170000D02*
X91440000Y-90170000D01*
X112395000Y-64135000D02*
X112395000Y-63500000D01*
X102870000Y-94615000D02*
X102870000Y-94615000D01*
X91440000Y-93345000D02*
X91440000Y-93345000D01*
X137795000Y-64135000D02*
X137795000Y-63500000D01*
X95885000Y-83185000D02*
X95885000Y-83185000D01*
X151765000Y-91440000D02*
X151765000Y-91440000D01*
X132080000Y-64135000D02*
X132080000Y-64135000D01*
X93980000Y-79375000D02*
X93980000Y-80010000D01*
X102870000Y-83820000D02*
X102870000Y-83820000D01*
X91440000Y-85725000D02*
X92075000Y-85725000D01*
X149860000Y-91440000D02*
X149860000Y-91440000D01*
X102870000Y-80010000D02*
X102870000Y-80010000D01*
X130810000Y-63500000D02*
X130810000Y-63500000D01*
X102870000Y-91440000D02*
X102870000Y-91440000D01*
X154940000Y-64770000D02*
X154940000Y-64770000D01*
X91440000Y-82550000D02*
X91440000Y-82550000D01*
X109855000Y-63500000D02*
X109855000Y-63500000D01*
X154305000Y-95885000D02*
X154305000Y-95885000D01*
X91440000Y-89535000D02*
X91440000Y-89535000D01*
X92075000Y-92075000D02*
X91440000Y-92075000D01*
X95250000Y-83185000D02*
X95250000Y-83185000D01*
X136525000Y-66040000D02*
X137160000Y-66040000D01*
X99695000Y-80010000D02*
X99695000Y-80010000D01*
X149860000Y-76200000D02*
X149860000Y-76200000D01*
X99060000Y-83185000D02*
X99060000Y-83185000D01*
X115570000Y-64135000D02*
X115570000Y-63500000D01*
X100330000Y-93980000D02*
X100330000Y-94615000D01*
X149860000Y-94615000D02*
X149860000Y-94615000D01*
X104775000Y-80010000D02*
X104775000Y-80010000D01*
X154940000Y-69850000D02*
X154940000Y-69850000D01*
X149860000Y-95885000D02*
X149860000Y-95885000D01*
X132080000Y-63500000D02*
X132080000Y-63500000D01*
X135255000Y-63500000D02*
X135255000Y-63500000D01*
X132715000Y-68580000D02*
X132715000Y-68580000D01*
X104140000Y-80010000D02*
X104140000Y-80010000D01*
X142875000Y-75565000D02*
X142875000Y-75565000D01*
X116205000Y-63500000D02*
X116205000Y-63500000D01*
X93980000Y-93980000D02*
X93980000Y-94615000D01*
X91440000Y-83185000D02*
X91440000Y-83185000D01*
X104775000Y-68580000D02*
X104775000Y-68580000D01*
X91440000Y-91440000D02*
X91440000Y-91440000D01*
X154940000Y-70485000D02*
X154940000Y-70485000D01*
X97155000Y-79375000D02*
X97155000Y-80010000D01*
X151765000Y-95885000D02*
X151765000Y-95885000D01*
X102235000Y-80010000D02*
X102235000Y-80010000D01*
X137160000Y-64770000D02*
X137160000Y-64770000D01*
X95885000Y-80010000D02*
X95885000Y-80010000D01*
X104775000Y-71755000D02*
X104775000Y-71755000D01*
X140970000Y-75565000D02*
X140970000Y-76200000D01*
X102870000Y-85090000D02*
X102870000Y-85090000D01*
X154940000Y-92710000D02*
X154940000Y-92710000D01*
X95250000Y-80010000D02*
X95250000Y-80010000D01*
X100965000Y-83185000D02*
X100965000Y-83185000D01*
X102235000Y-83185000D02*
X102235000Y-83185000D01*
X107950000Y-63500000D02*
X107950000Y-63500000D01*
X100330000Y-83820000D02*
X100330000Y-83185000D01*
X132715000Y-66040000D02*
X132080000Y-66040000D01*
X139700000Y-67945000D02*
X139700000Y-67945000D01*
X154940000Y-64135000D02*
X154940000Y-64135000D01*
X99695000Y-83185000D02*
X99695000Y-83185000D01*
X102870000Y-84455000D02*
X102870000Y-84455000D01*
X129540000Y-63500000D02*
X129540000Y-63500000D01*
X107315000Y-63500000D02*
X107315000Y-63500000D01*
X152400000Y-75565000D02*
X152400000Y-75565000D01*
X104775000Y-78105000D02*
X104775000Y-78105000D01*
X111125000Y-63500000D02*
X111125000Y-63500000D01*
X155575000Y-66040000D02*
X154940000Y-66040000D01*
X149860000Y-93345000D02*
X149860000Y-93345000D01*
X93980000Y-83820000D02*
X93980000Y-83185000D01*
X104775000Y-79375000D02*
X104775000Y-79375000D01*
X94615000Y-80010000D02*
X94615000Y-80010000D01*
X142240000Y-75565000D02*
X142240000Y-75565000D01*
X153035000Y-91440000D02*
X153035000Y-91440000D01*
X151130000Y-91440000D02*
X151130000Y-91440000D01*
X150495000Y-95885000D02*
X150495000Y-95885000D01*
X153670000Y-95885000D02*
X153670000Y-95885000D01*
X124460000Y-63500000D02*
X124460000Y-63500000D01*
X104775000Y-74930000D02*
X104775000Y-74930000D01*
X111760000Y-63500000D02*
X111760000Y-63500000D01*
X131445000Y-64135000D02*
X131445000Y-63500000D01*
X144780000Y-76200000D02*
X144780000Y-76200000D01*
X102870000Y-86360000D02*
X102870000Y-86360000D01*
X97155000Y-94615000D02*
X97155000Y-95250000D01*
X91440000Y-80010000D02*
X91440000Y-80010000D01*
X93345000Y-80010000D02*
X93345000Y-80010000D01*
X150495000Y-91440000D02*
X150495000Y-91440000D01*
X91440000Y-94615000D02*
X91440000Y-94615000D01*
X132715000Y-63500000D02*
X132715000Y-63500000D01*
X113665000Y-63500000D02*
X113665000Y-63500000D01*
X92075000Y-83185000D02*
X92075000Y-83185000D01*
X153670000Y-91440000D02*
X153670000Y-91440000D01*
X92710000Y-80010000D02*
X92710000Y-80010000D01*
X154940000Y-72390000D02*
X153670000Y-72390000D01*
X154305000Y-93980000D02*
X154940000Y-93980000D01*
X139700000Y-64770000D02*
X139700000Y-64770000D01*
X125730000Y-63500000D02*
X125730000Y-63500000D01*
X104775000Y-64135000D02*
X104775000Y-64135000D01*
X91440000Y-83820000D02*
X91440000Y-83820000D01*
X139700000Y-71755000D02*
X139700000Y-71755000D01*
X102870000Y-93345000D02*
X102870000Y-93345000D01*
X134620000Y-67945000D02*
X134620000Y-68580000D01*
X149860000Y-92075000D02*
X149860000Y-92075000D01*
X105981428Y-66613809D02*
X105648095Y-66613809D01*
X105648095Y-67137619D02*
X105648095Y-66137619D01*
X105648095Y-66137619D02*
X106124285Y-66137619D01*
X106362381Y-66137619D02*
X106933809Y-66137619D01*
X106648095Y-67137619D02*
X106648095Y-66137619D01*
X107267143Y-66756666D02*
X108029048Y-66756666D01*
X108648095Y-66566190D02*
X108552857Y-66518571D01*
X108552857Y-66518571D02*
X108505238Y-66470952D01*
X108505238Y-66470952D02*
X108457619Y-66375714D01*
X108457619Y-66375714D02*
X108457619Y-66328095D01*
X108457619Y-66328095D02*
X108505238Y-66232857D01*
X108505238Y-66232857D02*
X108552857Y-66185238D01*
X108552857Y-66185238D02*
X108648095Y-66137619D01*
X108648095Y-66137619D02*
X108838571Y-66137619D01*
X108838571Y-66137619D02*
X108933809Y-66185238D01*
X108933809Y-66185238D02*
X108981428Y-66232857D01*
X108981428Y-66232857D02*
X109029047Y-66328095D01*
X109029047Y-66328095D02*
X109029047Y-66375714D01*
X109029047Y-66375714D02*
X108981428Y-66470952D01*
X108981428Y-66470952D02*
X108933809Y-66518571D01*
X108933809Y-66518571D02*
X108838571Y-66566190D01*
X108838571Y-66566190D02*
X108648095Y-66566190D01*
X108648095Y-66566190D02*
X108552857Y-66613809D01*
X108552857Y-66613809D02*
X108505238Y-66661428D01*
X108505238Y-66661428D02*
X108457619Y-66756666D01*
X108457619Y-66756666D02*
X108457619Y-66947142D01*
X108457619Y-66947142D02*
X108505238Y-67042380D01*
X108505238Y-67042380D02*
X108552857Y-67090000D01*
X108552857Y-67090000D02*
X108648095Y-67137619D01*
X108648095Y-67137619D02*
X108838571Y-67137619D01*
X108838571Y-67137619D02*
X108933809Y-67090000D01*
X108933809Y-67090000D02*
X108981428Y-67042380D01*
X108981428Y-67042380D02*
X109029047Y-66947142D01*
X109029047Y-66947142D02*
X109029047Y-66756666D01*
X109029047Y-66756666D02*
X108981428Y-66661428D01*
X108981428Y-66661428D02*
X108933809Y-66613809D01*
X108933809Y-66613809D02*
X108838571Y-66566190D01*
X109981428Y-67137619D02*
X109410000Y-67137619D01*
X109695714Y-67137619D02*
X109695714Y-66137619D01*
X109695714Y-66137619D02*
X109600476Y-66280476D01*
X109600476Y-66280476D02*
X109505238Y-66375714D01*
X109505238Y-66375714D02*
X109410000Y-66423333D01*
X110314762Y-67137619D02*
X110838571Y-66470952D01*
X110314762Y-66470952D02*
X110838571Y-67137619D01*
X112314762Y-66613809D02*
X112457619Y-66661428D01*
X112457619Y-66661428D02*
X112505238Y-66709047D01*
X112505238Y-66709047D02*
X112552857Y-66804285D01*
X112552857Y-66804285D02*
X112552857Y-66947142D01*
X112552857Y-66947142D02*
X112505238Y-67042380D01*
X112505238Y-67042380D02*
X112457619Y-67090000D01*
X112457619Y-67090000D02*
X112362381Y-67137619D01*
X112362381Y-67137619D02*
X111981429Y-67137619D01*
X111981429Y-67137619D02*
X111981429Y-66137619D01*
X111981429Y-66137619D02*
X112314762Y-66137619D01*
X112314762Y-66137619D02*
X112410000Y-66185238D01*
X112410000Y-66185238D02*
X112457619Y-66232857D01*
X112457619Y-66232857D02*
X112505238Y-66328095D01*
X112505238Y-66328095D02*
X112505238Y-66423333D01*
X112505238Y-66423333D02*
X112457619Y-66518571D01*
X112457619Y-66518571D02*
X112410000Y-66566190D01*
X112410000Y-66566190D02*
X112314762Y-66613809D01*
X112314762Y-66613809D02*
X111981429Y-66613809D01*
X112838572Y-66137619D02*
X113410000Y-66137619D01*
X113124286Y-67137619D02*
X113124286Y-66137619D01*
X114505239Y-67137619D02*
X114505239Y-66137619D01*
X114505239Y-66137619D02*
X114743334Y-66137619D01*
X114743334Y-66137619D02*
X114886191Y-66185238D01*
X114886191Y-66185238D02*
X114981429Y-66280476D01*
X114981429Y-66280476D02*
X115029048Y-66375714D01*
X115029048Y-66375714D02*
X115076667Y-66566190D01*
X115076667Y-66566190D02*
X115076667Y-66709047D01*
X115076667Y-66709047D02*
X115029048Y-66899523D01*
X115029048Y-66899523D02*
X114981429Y-66994761D01*
X114981429Y-66994761D02*
X114886191Y-67090000D01*
X114886191Y-67090000D02*
X114743334Y-67137619D01*
X114743334Y-67137619D02*
X114505239Y-67137619D01*
X115505239Y-67137619D02*
X115505239Y-66137619D01*
X116505238Y-66185238D02*
X116410000Y-66137619D01*
X116410000Y-66137619D02*
X116267143Y-66137619D01*
X116267143Y-66137619D02*
X116124286Y-66185238D01*
X116124286Y-66185238D02*
X116029048Y-66280476D01*
X116029048Y-66280476D02*
X115981429Y-66375714D01*
X115981429Y-66375714D02*
X115933810Y-66566190D01*
X115933810Y-66566190D02*
X115933810Y-66709047D01*
X115933810Y-66709047D02*
X115981429Y-66899523D01*
X115981429Y-66899523D02*
X116029048Y-66994761D01*
X116029048Y-66994761D02*
X116124286Y-67090000D01*
X116124286Y-67090000D02*
X116267143Y-67137619D01*
X116267143Y-67137619D02*
X116362381Y-67137619D01*
X116362381Y-67137619D02*
X116505238Y-67090000D01*
X116505238Y-67090000D02*
X116552857Y-67042380D01*
X116552857Y-67042380D02*
X116552857Y-66709047D01*
X116552857Y-66709047D02*
X116362381Y-66709047D01*
X116981429Y-67137619D02*
X116981429Y-66137619D01*
X118171905Y-66851904D02*
X118648095Y-66851904D01*
X118076667Y-67137619D02*
X118410000Y-66137619D01*
X118410000Y-66137619D02*
X118743333Y-67137619D01*
X119505238Y-67137619D02*
X119505238Y-66137619D01*
X119505238Y-67090000D02*
X119410000Y-67137619D01*
X119410000Y-67137619D02*
X119219524Y-67137619D01*
X119219524Y-67137619D02*
X119124286Y-67090000D01*
X119124286Y-67090000D02*
X119076667Y-67042380D01*
X119076667Y-67042380D02*
X119029048Y-66947142D01*
X119029048Y-66947142D02*
X119029048Y-66661428D01*
X119029048Y-66661428D02*
X119076667Y-66566190D01*
X119076667Y-66566190D02*
X119124286Y-66518571D01*
X119124286Y-66518571D02*
X119219524Y-66470952D01*
X119219524Y-66470952D02*
X119410000Y-66470952D01*
X119410000Y-66470952D02*
X119505238Y-66518571D01*
X120410000Y-67137619D02*
X120410000Y-66613809D01*
X120410000Y-66613809D02*
X120362381Y-66518571D01*
X120362381Y-66518571D02*
X120267143Y-66470952D01*
X120267143Y-66470952D02*
X120076667Y-66470952D01*
X120076667Y-66470952D02*
X119981429Y-66518571D01*
X120410000Y-67090000D02*
X120314762Y-67137619D01*
X120314762Y-67137619D02*
X120076667Y-67137619D01*
X120076667Y-67137619D02*
X119981429Y-67090000D01*
X119981429Y-67090000D02*
X119933810Y-66994761D01*
X119933810Y-66994761D02*
X119933810Y-66899523D01*
X119933810Y-66899523D02*
X119981429Y-66804285D01*
X119981429Y-66804285D02*
X120076667Y-66756666D01*
X120076667Y-66756666D02*
X120314762Y-66756666D01*
X120314762Y-66756666D02*
X120410000Y-66709047D01*
X120886191Y-66470952D02*
X120886191Y-67470952D01*
X120886191Y-66518571D02*
X120981429Y-66470952D01*
X120981429Y-66470952D02*
X121171905Y-66470952D01*
X121171905Y-66470952D02*
X121267143Y-66518571D01*
X121267143Y-66518571D02*
X121314762Y-66566190D01*
X121314762Y-66566190D02*
X121362381Y-66661428D01*
X121362381Y-66661428D02*
X121362381Y-66947142D01*
X121362381Y-66947142D02*
X121314762Y-67042380D01*
X121314762Y-67042380D02*
X121267143Y-67090000D01*
X121267143Y-67090000D02*
X121171905Y-67137619D01*
X121171905Y-67137619D02*
X120981429Y-67137619D01*
X120981429Y-67137619D02*
X120886191Y-67090000D01*
X121648096Y-66470952D02*
X122029048Y-66470952D01*
X121790953Y-66137619D02*
X121790953Y-66994761D01*
X121790953Y-66994761D02*
X121838572Y-67090000D01*
X121838572Y-67090000D02*
X121933810Y-67137619D01*
X121933810Y-67137619D02*
X122029048Y-67137619D01*
X122505239Y-67137619D02*
X122410001Y-67090000D01*
X122410001Y-67090000D02*
X122362382Y-67042380D01*
X122362382Y-67042380D02*
X122314763Y-66947142D01*
X122314763Y-66947142D02*
X122314763Y-66661428D01*
X122314763Y-66661428D02*
X122362382Y-66566190D01*
X122362382Y-66566190D02*
X122410001Y-66518571D01*
X122410001Y-66518571D02*
X122505239Y-66470952D01*
X122505239Y-66470952D02*
X122648096Y-66470952D01*
X122648096Y-66470952D02*
X122743334Y-66518571D01*
X122743334Y-66518571D02*
X122790953Y-66566190D01*
X122790953Y-66566190D02*
X122838572Y-66661428D01*
X122838572Y-66661428D02*
X122838572Y-66947142D01*
X122838572Y-66947142D02*
X122790953Y-67042380D01*
X122790953Y-67042380D02*
X122743334Y-67090000D01*
X122743334Y-67090000D02*
X122648096Y-67137619D01*
X122648096Y-67137619D02*
X122505239Y-67137619D01*
X123267144Y-67137619D02*
X123267144Y-66470952D01*
X123267144Y-66661428D02*
X123314763Y-66566190D01*
X123314763Y-66566190D02*
X123362382Y-66518571D01*
X123362382Y-66518571D02*
X123457620Y-66470952D01*
X123457620Y-66470952D02*
X123552858Y-66470952D01*
X126303809Y-69913571D02*
X126351428Y-69770714D01*
X126351428Y-69770714D02*
X126399047Y-69723095D01*
X126399047Y-69723095D02*
X126494285Y-69675476D01*
X126494285Y-69675476D02*
X126637142Y-69675476D01*
X126637142Y-69675476D02*
X126732380Y-69723095D01*
X126732380Y-69723095D02*
X126780000Y-69770714D01*
X126780000Y-69770714D02*
X126827619Y-69865952D01*
X126827619Y-69865952D02*
X126827619Y-70246904D01*
X126827619Y-70246904D02*
X125827619Y-70246904D01*
X125827619Y-70246904D02*
X125827619Y-69913571D01*
X125827619Y-69913571D02*
X125875238Y-69818333D01*
X125875238Y-69818333D02*
X125922857Y-69770714D01*
X125922857Y-69770714D02*
X126018095Y-69723095D01*
X126018095Y-69723095D02*
X126113333Y-69723095D01*
X126113333Y-69723095D02*
X126208571Y-69770714D01*
X126208571Y-69770714D02*
X126256190Y-69818333D01*
X126256190Y-69818333D02*
X126303809Y-69913571D01*
X126303809Y-69913571D02*
X126303809Y-70246904D01*
X126827619Y-68770714D02*
X126827619Y-69246904D01*
X126827619Y-69246904D02*
X125827619Y-69246904D01*
X126303809Y-68437380D02*
X126303809Y-68104047D01*
X126827619Y-67961190D02*
X126827619Y-68437380D01*
X126827619Y-68437380D02*
X125827619Y-68437380D01*
X125827619Y-68437380D02*
X125827619Y-67961190D01*
X106457619Y-68280714D02*
X106362380Y-68233095D01*
X106362380Y-68233095D02*
X106171904Y-68233095D01*
X106171904Y-68233095D02*
X106076666Y-68280714D01*
X106076666Y-68280714D02*
X105981428Y-68375952D01*
X105981428Y-68375952D02*
X105933809Y-68471190D01*
X105933809Y-68471190D02*
X105933809Y-68661666D01*
X105933809Y-68661666D02*
X105981428Y-68756904D01*
X105981428Y-68756904D02*
X106076666Y-68852142D01*
X106076666Y-68852142D02*
X106171904Y-68899761D01*
X106171904Y-68899761D02*
X106362380Y-68899761D01*
X106362380Y-68899761D02*
X106457619Y-68852142D01*
X106267142Y-67899761D02*
X106029047Y-67947380D01*
X106029047Y-67947380D02*
X105790952Y-68090238D01*
X105790952Y-68090238D02*
X105648095Y-68328333D01*
X105648095Y-68328333D02*
X105600476Y-68566428D01*
X105600476Y-68566428D02*
X105648095Y-68804523D01*
X105648095Y-68804523D02*
X105790952Y-69042619D01*
X105790952Y-69042619D02*
X106029047Y-69185476D01*
X106029047Y-69185476D02*
X106267142Y-69233095D01*
X106267142Y-69233095D02*
X106505238Y-69185476D01*
X106505238Y-69185476D02*
X106743333Y-69042619D01*
X106743333Y-69042619D02*
X106886190Y-68804523D01*
X106886190Y-68804523D02*
X106933809Y-68566428D01*
X106933809Y-68566428D02*
X106886190Y-68328333D01*
X106886190Y-68328333D02*
X106743333Y-68090238D01*
X106743333Y-68090238D02*
X106505238Y-67947380D01*
X106505238Y-67947380D02*
X106267142Y-67899761D01*
X108457619Y-68518809D02*
X108600476Y-68566428D01*
X108600476Y-68566428D02*
X108648095Y-68614047D01*
X108648095Y-68614047D02*
X108695714Y-68709285D01*
X108695714Y-68709285D02*
X108695714Y-68852142D01*
X108695714Y-68852142D02*
X108648095Y-68947380D01*
X108648095Y-68947380D02*
X108600476Y-68995000D01*
X108600476Y-68995000D02*
X108505238Y-69042619D01*
X108505238Y-69042619D02*
X108124286Y-69042619D01*
X108124286Y-69042619D02*
X108124286Y-68042619D01*
X108124286Y-68042619D02*
X108457619Y-68042619D01*
X108457619Y-68042619D02*
X108552857Y-68090238D01*
X108552857Y-68090238D02*
X108600476Y-68137857D01*
X108600476Y-68137857D02*
X108648095Y-68233095D01*
X108648095Y-68233095D02*
X108648095Y-68328333D01*
X108648095Y-68328333D02*
X108600476Y-68423571D01*
X108600476Y-68423571D02*
X108552857Y-68471190D01*
X108552857Y-68471190D02*
X108457619Y-68518809D01*
X108457619Y-68518809D02*
X108124286Y-68518809D01*
X109648095Y-68090238D02*
X109552857Y-68042619D01*
X109552857Y-68042619D02*
X109410000Y-68042619D01*
X109410000Y-68042619D02*
X109267143Y-68090238D01*
X109267143Y-68090238D02*
X109171905Y-68185476D01*
X109171905Y-68185476D02*
X109124286Y-68280714D01*
X109124286Y-68280714D02*
X109076667Y-68471190D01*
X109076667Y-68471190D02*
X109076667Y-68614047D01*
X109076667Y-68614047D02*
X109124286Y-68804523D01*
X109124286Y-68804523D02*
X109171905Y-68899761D01*
X109171905Y-68899761D02*
X109267143Y-68995000D01*
X109267143Y-68995000D02*
X109410000Y-69042619D01*
X109410000Y-69042619D02*
X109505238Y-69042619D01*
X109505238Y-69042619D02*
X109648095Y-68995000D01*
X109648095Y-68995000D02*
X109695714Y-68947380D01*
X109695714Y-68947380D02*
X109695714Y-68614047D01*
X109695714Y-68614047D02*
X109505238Y-68614047D01*
X110552857Y-68042619D02*
X110362381Y-68042619D01*
X110362381Y-68042619D02*
X110267143Y-68090238D01*
X110267143Y-68090238D02*
X110219524Y-68137857D01*
X110219524Y-68137857D02*
X110124286Y-68280714D01*
X110124286Y-68280714D02*
X110076667Y-68471190D01*
X110076667Y-68471190D02*
X110076667Y-68852142D01*
X110076667Y-68852142D02*
X110124286Y-68947380D01*
X110124286Y-68947380D02*
X110171905Y-68995000D01*
X110171905Y-68995000D02*
X110267143Y-69042619D01*
X110267143Y-69042619D02*
X110457619Y-69042619D01*
X110457619Y-69042619D02*
X110552857Y-68995000D01*
X110552857Y-68995000D02*
X110600476Y-68947380D01*
X110600476Y-68947380D02*
X110648095Y-68852142D01*
X110648095Y-68852142D02*
X110648095Y-68614047D01*
X110648095Y-68614047D02*
X110600476Y-68518809D01*
X110600476Y-68518809D02*
X110552857Y-68471190D01*
X110552857Y-68471190D02*
X110457619Y-68423571D01*
X110457619Y-68423571D02*
X110267143Y-68423571D01*
X110267143Y-68423571D02*
X110171905Y-68471190D01*
X110171905Y-68471190D02*
X110124286Y-68518809D01*
X110124286Y-68518809D02*
X110076667Y-68614047D01*
X111552857Y-69042619D02*
X111076667Y-69042619D01*
X111076667Y-69042619D02*
X111076667Y-68042619D01*
X111886191Y-69042619D02*
X111886191Y-68042619D01*
X111886191Y-68518809D02*
X112457619Y-68518809D01*
X112457619Y-69042619D02*
X112457619Y-68042619D01*
X113600477Y-68375952D02*
X113838572Y-69042619D01*
X113838572Y-69042619D02*
X114076667Y-68375952D01*
X114410001Y-68137857D02*
X114457620Y-68090238D01*
X114457620Y-68090238D02*
X114552858Y-68042619D01*
X114552858Y-68042619D02*
X114790953Y-68042619D01*
X114790953Y-68042619D02*
X114886191Y-68090238D01*
X114886191Y-68090238D02*
X114933810Y-68137857D01*
X114933810Y-68137857D02*
X114981429Y-68233095D01*
X114981429Y-68233095D02*
X114981429Y-68328333D01*
X114981429Y-68328333D02*
X114933810Y-68471190D01*
X114933810Y-68471190D02*
X114362382Y-69042619D01*
X114362382Y-69042619D02*
X114981429Y-69042619D01*
X115600477Y-68042619D02*
X115695715Y-68042619D01*
X115695715Y-68042619D02*
X115790953Y-68090238D01*
X115790953Y-68090238D02*
X115838572Y-68137857D01*
X115838572Y-68137857D02*
X115886191Y-68233095D01*
X115886191Y-68233095D02*
X115933810Y-68423571D01*
X115933810Y-68423571D02*
X115933810Y-68661666D01*
X115933810Y-68661666D02*
X115886191Y-68852142D01*
X115886191Y-68852142D02*
X115838572Y-68947380D01*
X115838572Y-68947380D02*
X115790953Y-68995000D01*
X115790953Y-68995000D02*
X115695715Y-69042619D01*
X115695715Y-69042619D02*
X115600477Y-69042619D01*
X115600477Y-69042619D02*
X115505239Y-68995000D01*
X115505239Y-68995000D02*
X115457620Y-68947380D01*
X115457620Y-68947380D02*
X115410001Y-68852142D01*
X115410001Y-68852142D02*
X115362382Y-68661666D01*
X115362382Y-68661666D02*
X115362382Y-68423571D01*
X115362382Y-68423571D02*
X115410001Y-68233095D01*
X115410001Y-68233095D02*
X115457620Y-68137857D01*
X115457620Y-68137857D02*
X115505239Y-68090238D01*
X115505239Y-68090238D02*
X115600477Y-68042619D01*
X116314763Y-68137857D02*
X116362382Y-68090238D01*
X116362382Y-68090238D02*
X116457620Y-68042619D01*
X116457620Y-68042619D02*
X116695715Y-68042619D01*
X116695715Y-68042619D02*
X116790953Y-68090238D01*
X116790953Y-68090238D02*
X116838572Y-68137857D01*
X116838572Y-68137857D02*
X116886191Y-68233095D01*
X116886191Y-68233095D02*
X116886191Y-68328333D01*
X116886191Y-68328333D02*
X116838572Y-68471190D01*
X116838572Y-68471190D02*
X116267144Y-69042619D01*
X116267144Y-69042619D02*
X116886191Y-69042619D01*
X117219525Y-68042619D02*
X117838572Y-68042619D01*
X117838572Y-68042619D02*
X117505239Y-68423571D01*
X117505239Y-68423571D02*
X117648096Y-68423571D01*
X117648096Y-68423571D02*
X117743334Y-68471190D01*
X117743334Y-68471190D02*
X117790953Y-68518809D01*
X117790953Y-68518809D02*
X117838572Y-68614047D01*
X117838572Y-68614047D02*
X117838572Y-68852142D01*
X117838572Y-68852142D02*
X117790953Y-68947380D01*
X117790953Y-68947380D02*
X117743334Y-68995000D01*
X117743334Y-68995000D02*
X117648096Y-69042619D01*
X117648096Y-69042619D02*
X117362382Y-69042619D01*
X117362382Y-69042619D02*
X117267144Y-68995000D01*
X117267144Y-68995000D02*
X117219525Y-68947380D01*
X118457620Y-68042619D02*
X118552858Y-68042619D01*
X118552858Y-68042619D02*
X118648096Y-68090238D01*
X118648096Y-68090238D02*
X118695715Y-68137857D01*
X118695715Y-68137857D02*
X118743334Y-68233095D01*
X118743334Y-68233095D02*
X118790953Y-68423571D01*
X118790953Y-68423571D02*
X118790953Y-68661666D01*
X118790953Y-68661666D02*
X118743334Y-68852142D01*
X118743334Y-68852142D02*
X118695715Y-68947380D01*
X118695715Y-68947380D02*
X118648096Y-68995000D01*
X118648096Y-68995000D02*
X118552858Y-69042619D01*
X118552858Y-69042619D02*
X118457620Y-69042619D01*
X118457620Y-69042619D02*
X118362382Y-68995000D01*
X118362382Y-68995000D02*
X118314763Y-68947380D01*
X118314763Y-68947380D02*
X118267144Y-68852142D01*
X118267144Y-68852142D02*
X118219525Y-68661666D01*
X118219525Y-68661666D02*
X118219525Y-68423571D01*
X118219525Y-68423571D02*
X118267144Y-68233095D01*
X118267144Y-68233095D02*
X118314763Y-68137857D01*
X118314763Y-68137857D02*
X118362382Y-68090238D01*
X118362382Y-68090238D02*
X118457620Y-68042619D01*
X119648096Y-68042619D02*
X119457620Y-68042619D01*
X119457620Y-68042619D02*
X119362382Y-68090238D01*
X119362382Y-68090238D02*
X119314763Y-68137857D01*
X119314763Y-68137857D02*
X119219525Y-68280714D01*
X119219525Y-68280714D02*
X119171906Y-68471190D01*
X119171906Y-68471190D02*
X119171906Y-68852142D01*
X119171906Y-68852142D02*
X119219525Y-68947380D01*
X119219525Y-68947380D02*
X119267144Y-68995000D01*
X119267144Y-68995000D02*
X119362382Y-69042619D01*
X119362382Y-69042619D02*
X119552858Y-69042619D01*
X119552858Y-69042619D02*
X119648096Y-68995000D01*
X119648096Y-68995000D02*
X119695715Y-68947380D01*
X119695715Y-68947380D02*
X119743334Y-68852142D01*
X119743334Y-68852142D02*
X119743334Y-68614047D01*
X119743334Y-68614047D02*
X119695715Y-68518809D01*
X119695715Y-68518809D02*
X119648096Y-68471190D01*
X119648096Y-68471190D02*
X119552858Y-68423571D01*
X119552858Y-68423571D02*
X119362382Y-68423571D01*
X119362382Y-68423571D02*
X119267144Y-68471190D01*
X119267144Y-68471190D02*
X119219525Y-68518809D01*
X119219525Y-68518809D02*
X119171906Y-68614047D01*
X120362382Y-68042619D02*
X120457620Y-68042619D01*
X120457620Y-68042619D02*
X120552858Y-68090238D01*
X120552858Y-68090238D02*
X120600477Y-68137857D01*
X120600477Y-68137857D02*
X120648096Y-68233095D01*
X120648096Y-68233095D02*
X120695715Y-68423571D01*
X120695715Y-68423571D02*
X120695715Y-68661666D01*
X120695715Y-68661666D02*
X120648096Y-68852142D01*
X120648096Y-68852142D02*
X120600477Y-68947380D01*
X120600477Y-68947380D02*
X120552858Y-68995000D01*
X120552858Y-68995000D02*
X120457620Y-69042619D01*
X120457620Y-69042619D02*
X120362382Y-69042619D01*
X120362382Y-69042619D02*
X120267144Y-68995000D01*
X120267144Y-68995000D02*
X120219525Y-68947380D01*
X120219525Y-68947380D02*
X120171906Y-68852142D01*
X120171906Y-68852142D02*
X120124287Y-68661666D01*
X120124287Y-68661666D02*
X120124287Y-68423571D01*
X120124287Y-68423571D02*
X120171906Y-68233095D01*
X120171906Y-68233095D02*
X120219525Y-68137857D01*
X120219525Y-68137857D02*
X120267144Y-68090238D01*
X120267144Y-68090238D02*
X120362382Y-68042619D01*
X121267144Y-68471190D02*
X121171906Y-68423571D01*
X121171906Y-68423571D02*
X121124287Y-68375952D01*
X121124287Y-68375952D02*
X121076668Y-68280714D01*
X121076668Y-68280714D02*
X121076668Y-68233095D01*
X121076668Y-68233095D02*
X121124287Y-68137857D01*
X121124287Y-68137857D02*
X121171906Y-68090238D01*
X121171906Y-68090238D02*
X121267144Y-68042619D01*
X121267144Y-68042619D02*
X121457620Y-68042619D01*
X121457620Y-68042619D02*
X121552858Y-68090238D01*
X121552858Y-68090238D02*
X121600477Y-68137857D01*
X121600477Y-68137857D02*
X121648096Y-68233095D01*
X121648096Y-68233095D02*
X121648096Y-68280714D01*
X121648096Y-68280714D02*
X121600477Y-68375952D01*
X121600477Y-68375952D02*
X121552858Y-68423571D01*
X121552858Y-68423571D02*
X121457620Y-68471190D01*
X121457620Y-68471190D02*
X121267144Y-68471190D01*
X121267144Y-68471190D02*
X121171906Y-68518809D01*
X121171906Y-68518809D02*
X121124287Y-68566428D01*
X121124287Y-68566428D02*
X121076668Y-68661666D01*
X121076668Y-68661666D02*
X121076668Y-68852142D01*
X121076668Y-68852142D02*
X121124287Y-68947380D01*
X121124287Y-68947380D02*
X121171906Y-68995000D01*
X121171906Y-68995000D02*
X121267144Y-69042619D01*
X121267144Y-69042619D02*
X121457620Y-69042619D01*
X121457620Y-69042619D02*
X121552858Y-68995000D01*
X121552858Y-68995000D02*
X121600477Y-68947380D01*
X121600477Y-68947380D02*
X121648096Y-68852142D01*
X121648096Y-68852142D02*
X121648096Y-68661666D01*
X121648096Y-68661666D02*
X121600477Y-68566428D01*
X121600477Y-68566428D02*
X121552858Y-68518809D01*
X121552858Y-68518809D02*
X121457620Y-68471190D01*
X106219523Y-70852380D02*
X106171904Y-70900000D01*
X106171904Y-70900000D02*
X106029047Y-70947619D01*
X106029047Y-70947619D02*
X105933809Y-70947619D01*
X105933809Y-70947619D02*
X105790952Y-70900000D01*
X105790952Y-70900000D02*
X105695714Y-70804761D01*
X105695714Y-70804761D02*
X105648095Y-70709523D01*
X105648095Y-70709523D02*
X105600476Y-70519047D01*
X105600476Y-70519047D02*
X105600476Y-70376190D01*
X105600476Y-70376190D02*
X105648095Y-70185714D01*
X105648095Y-70185714D02*
X105695714Y-70090476D01*
X105695714Y-70090476D02*
X105790952Y-69995238D01*
X105790952Y-69995238D02*
X105933809Y-69947619D01*
X105933809Y-69947619D02*
X106029047Y-69947619D01*
X106029047Y-69947619D02*
X106171904Y-69995238D01*
X106171904Y-69995238D02*
X106219523Y-70042857D01*
X107219523Y-70852380D02*
X107171904Y-70900000D01*
X107171904Y-70900000D02*
X107029047Y-70947619D01*
X107029047Y-70947619D02*
X106933809Y-70947619D01*
X106933809Y-70947619D02*
X106790952Y-70900000D01*
X106790952Y-70900000D02*
X106695714Y-70804761D01*
X106695714Y-70804761D02*
X106648095Y-70709523D01*
X106648095Y-70709523D02*
X106600476Y-70519047D01*
X106600476Y-70519047D02*
X106600476Y-70376190D01*
X106600476Y-70376190D02*
X106648095Y-70185714D01*
X106648095Y-70185714D02*
X106695714Y-70090476D01*
X106695714Y-70090476D02*
X106790952Y-69995238D01*
X106790952Y-69995238D02*
X106933809Y-69947619D01*
X106933809Y-69947619D02*
X107029047Y-69947619D01*
X107029047Y-69947619D02*
X107171904Y-69995238D01*
X107171904Y-69995238D02*
X107219523Y-70042857D01*
X107648095Y-70566666D02*
X108410000Y-70566666D01*
X109219523Y-70423809D02*
X109362380Y-70471428D01*
X109362380Y-70471428D02*
X109409999Y-70519047D01*
X109409999Y-70519047D02*
X109457618Y-70614285D01*
X109457618Y-70614285D02*
X109457618Y-70757142D01*
X109457618Y-70757142D02*
X109409999Y-70852380D01*
X109409999Y-70852380D02*
X109362380Y-70900000D01*
X109362380Y-70900000D02*
X109267142Y-70947619D01*
X109267142Y-70947619D02*
X108886190Y-70947619D01*
X108886190Y-70947619D02*
X108886190Y-69947619D01*
X108886190Y-69947619D02*
X109219523Y-69947619D01*
X109219523Y-69947619D02*
X109314761Y-69995238D01*
X109314761Y-69995238D02*
X109362380Y-70042857D01*
X109362380Y-70042857D02*
X109409999Y-70138095D01*
X109409999Y-70138095D02*
X109409999Y-70233333D01*
X109409999Y-70233333D02*
X109362380Y-70328571D01*
X109362380Y-70328571D02*
X109314761Y-70376190D01*
X109314761Y-70376190D02*
X109219523Y-70423809D01*
X109219523Y-70423809D02*
X108886190Y-70423809D01*
X110076666Y-70471428D02*
X110076666Y-70947619D01*
X109743333Y-69947619D02*
X110076666Y-70471428D01*
X110076666Y-70471428D02*
X110409999Y-69947619D01*
X110743333Y-70566666D02*
X111505238Y-70566666D01*
X111981428Y-70947619D02*
X111981428Y-69947619D01*
X111981428Y-69947619D02*
X112552856Y-70947619D01*
X112552856Y-70947619D02*
X112552856Y-69947619D01*
X113600475Y-70852380D02*
X113552856Y-70900000D01*
X113552856Y-70900000D02*
X113409999Y-70947619D01*
X113409999Y-70947619D02*
X113314761Y-70947619D01*
X113314761Y-70947619D02*
X113171904Y-70900000D01*
X113171904Y-70900000D02*
X113076666Y-70804761D01*
X113076666Y-70804761D02*
X113029047Y-70709523D01*
X113029047Y-70709523D02*
X112981428Y-70519047D01*
X112981428Y-70519047D02*
X112981428Y-70376190D01*
X112981428Y-70376190D02*
X113029047Y-70185714D01*
X113029047Y-70185714D02*
X113076666Y-70090476D01*
X113076666Y-70090476D02*
X113171904Y-69995238D01*
X113171904Y-69995238D02*
X113314761Y-69947619D01*
X113314761Y-69947619D02*
X113409999Y-69947619D01*
X113409999Y-69947619D02*
X113552856Y-69995238D01*
X113552856Y-69995238D02*
X113600475Y-70042857D01*
X114029047Y-70566666D02*
X114790952Y-70566666D01*
X115219523Y-70900000D02*
X115362380Y-70947619D01*
X115362380Y-70947619D02*
X115600475Y-70947619D01*
X115600475Y-70947619D02*
X115695713Y-70900000D01*
X115695713Y-70900000D02*
X115743332Y-70852380D01*
X115743332Y-70852380D02*
X115790951Y-70757142D01*
X115790951Y-70757142D02*
X115790951Y-70661904D01*
X115790951Y-70661904D02*
X115743332Y-70566666D01*
X115743332Y-70566666D02*
X115695713Y-70519047D01*
X115695713Y-70519047D02*
X115600475Y-70471428D01*
X115600475Y-70471428D02*
X115409999Y-70423809D01*
X115409999Y-70423809D02*
X115314761Y-70376190D01*
X115314761Y-70376190D02*
X115267142Y-70328571D01*
X115267142Y-70328571D02*
X115219523Y-70233333D01*
X115219523Y-70233333D02*
X115219523Y-70138095D01*
X115219523Y-70138095D02*
X115267142Y-70042857D01*
X115267142Y-70042857D02*
X115314761Y-69995238D01*
X115314761Y-69995238D02*
X115409999Y-69947619D01*
X115409999Y-69947619D02*
X115648094Y-69947619D01*
X115648094Y-69947619D02*
X115790951Y-69995238D01*
X116171904Y-70661904D02*
X116648094Y-70661904D01*
X116076666Y-70947619D02*
X116409999Y-69947619D01*
X116409999Y-69947619D02*
X116743332Y-70947619D01*
X118267142Y-70280952D02*
X118267142Y-70947619D01*
X118029047Y-69900000D02*
X117790952Y-70614285D01*
X117790952Y-70614285D02*
X118409999Y-70614285D01*
X118790952Y-70852380D02*
X118838571Y-70900000D01*
X118838571Y-70900000D02*
X118790952Y-70947619D01*
X118790952Y-70947619D02*
X118743333Y-70900000D01*
X118743333Y-70900000D02*
X118790952Y-70852380D01*
X118790952Y-70852380D02*
X118790952Y-70947619D01*
X119457618Y-69947619D02*
X119552856Y-69947619D01*
X119552856Y-69947619D02*
X119648094Y-69995238D01*
X119648094Y-69995238D02*
X119695713Y-70042857D01*
X119695713Y-70042857D02*
X119743332Y-70138095D01*
X119743332Y-70138095D02*
X119790951Y-70328571D01*
X119790951Y-70328571D02*
X119790951Y-70566666D01*
X119790951Y-70566666D02*
X119743332Y-70757142D01*
X119743332Y-70757142D02*
X119695713Y-70852380D01*
X119695713Y-70852380D02*
X119648094Y-70900000D01*
X119648094Y-70900000D02*
X119552856Y-70947619D01*
X119552856Y-70947619D02*
X119457618Y-70947619D01*
X119457618Y-70947619D02*
X119362380Y-70900000D01*
X119362380Y-70900000D02*
X119314761Y-70852380D01*
X119314761Y-70852380D02*
X119267142Y-70757142D01*
X119267142Y-70757142D02*
X119219523Y-70566666D01*
X119219523Y-70566666D02*
X119219523Y-70328571D01*
X119219523Y-70328571D02*
X119267142Y-70138095D01*
X119267142Y-70138095D02*
X119314761Y-70042857D01*
X119314761Y-70042857D02*
X119362380Y-69995238D01*
X119362380Y-69995238D02*
X119457618Y-69947619D01*
D11*
X92711664Y-80888190D02*
X92635474Y-80850095D01*
X92635474Y-80850095D02*
X92521188Y-80850095D01*
X92521188Y-80850095D02*
X92406902Y-80888190D01*
X92406902Y-80888190D02*
X92330712Y-80964380D01*
X92330712Y-80964380D02*
X92292617Y-81040571D01*
X92292617Y-81040571D02*
X92254521Y-81192952D01*
X92254521Y-81192952D02*
X92254521Y-81307238D01*
X92254521Y-81307238D02*
X92292617Y-81459619D01*
X92292617Y-81459619D02*
X92330712Y-81535809D01*
X92330712Y-81535809D02*
X92406902Y-81612000D01*
X92406902Y-81612000D02*
X92521188Y-81650095D01*
X92521188Y-81650095D02*
X92597379Y-81650095D01*
X92597379Y-81650095D02*
X92711664Y-81612000D01*
X92711664Y-81612000D02*
X92749760Y-81573904D01*
X92749760Y-81573904D02*
X92749760Y-81307238D01*
X92749760Y-81307238D02*
X92597379Y-81307238D01*
X93092617Y-81650095D02*
X93092617Y-81116761D01*
X93092617Y-81269142D02*
X93130712Y-81192952D01*
X93130712Y-81192952D02*
X93168807Y-81154857D01*
X93168807Y-81154857D02*
X93244998Y-81116761D01*
X93244998Y-81116761D02*
X93321188Y-81116761D01*
X93587855Y-81650095D02*
X93587855Y-81116761D01*
X93587855Y-80850095D02*
X93549759Y-80888190D01*
X93549759Y-80888190D02*
X93587855Y-80926285D01*
X93587855Y-80926285D02*
X93625950Y-80888190D01*
X93625950Y-80888190D02*
X93587855Y-80850095D01*
X93587855Y-80850095D02*
X93587855Y-80926285D01*
X94311664Y-81650095D02*
X94311664Y-80850095D01*
X94311664Y-81612000D02*
X94235473Y-81650095D01*
X94235473Y-81650095D02*
X94083092Y-81650095D01*
X94083092Y-81650095D02*
X94006902Y-81612000D01*
X94006902Y-81612000D02*
X93968807Y-81573904D01*
X93968807Y-81573904D02*
X93930711Y-81497714D01*
X93930711Y-81497714D02*
X93930711Y-81269142D01*
X93930711Y-81269142D02*
X93968807Y-81192952D01*
X93968807Y-81192952D02*
X94006902Y-81154857D01*
X94006902Y-81154857D02*
X94083092Y-81116761D01*
X94083092Y-81116761D02*
X94235473Y-81116761D01*
X94235473Y-81116761D02*
X94311664Y-81154857D01*
X95454522Y-80850095D02*
X95530712Y-80850095D01*
X95530712Y-80850095D02*
X95606903Y-80888190D01*
X95606903Y-80888190D02*
X95644998Y-80926285D01*
X95644998Y-80926285D02*
X95683093Y-81002476D01*
X95683093Y-81002476D02*
X95721188Y-81154857D01*
X95721188Y-81154857D02*
X95721188Y-81345333D01*
X95721188Y-81345333D02*
X95683093Y-81497714D01*
X95683093Y-81497714D02*
X95644998Y-81573904D01*
X95644998Y-81573904D02*
X95606903Y-81612000D01*
X95606903Y-81612000D02*
X95530712Y-81650095D01*
X95530712Y-81650095D02*
X95454522Y-81650095D01*
X95454522Y-81650095D02*
X95378331Y-81612000D01*
X95378331Y-81612000D02*
X95340236Y-81573904D01*
X95340236Y-81573904D02*
X95302141Y-81497714D01*
X95302141Y-81497714D02*
X95264045Y-81345333D01*
X95264045Y-81345333D02*
X95264045Y-81154857D01*
X95264045Y-81154857D02*
X95302141Y-81002476D01*
X95302141Y-81002476D02*
X95340236Y-80926285D01*
X95340236Y-80926285D02*
X95378331Y-80888190D01*
X95378331Y-80888190D02*
X95454522Y-80850095D01*
X96064046Y-81573904D02*
X96102141Y-81612000D01*
X96102141Y-81612000D02*
X96064046Y-81650095D01*
X96064046Y-81650095D02*
X96025950Y-81612000D01*
X96025950Y-81612000D02*
X96064046Y-81573904D01*
X96064046Y-81573904D02*
X96064046Y-81650095D01*
X96787855Y-80850095D02*
X96635474Y-80850095D01*
X96635474Y-80850095D02*
X96559283Y-80888190D01*
X96559283Y-80888190D02*
X96521188Y-80926285D01*
X96521188Y-80926285D02*
X96444998Y-81040571D01*
X96444998Y-81040571D02*
X96406902Y-81192952D01*
X96406902Y-81192952D02*
X96406902Y-81497714D01*
X96406902Y-81497714D02*
X96444998Y-81573904D01*
X96444998Y-81573904D02*
X96483093Y-81612000D01*
X96483093Y-81612000D02*
X96559283Y-81650095D01*
X96559283Y-81650095D02*
X96711664Y-81650095D01*
X96711664Y-81650095D02*
X96787855Y-81612000D01*
X96787855Y-81612000D02*
X96825950Y-81573904D01*
X96825950Y-81573904D02*
X96864045Y-81497714D01*
X96864045Y-81497714D02*
X96864045Y-81307238D01*
X96864045Y-81307238D02*
X96825950Y-81231047D01*
X96825950Y-81231047D02*
X96787855Y-81192952D01*
X96787855Y-81192952D02*
X96711664Y-81154857D01*
X96711664Y-81154857D02*
X96559283Y-81154857D01*
X96559283Y-81154857D02*
X96483093Y-81192952D01*
X96483093Y-81192952D02*
X96444998Y-81231047D01*
X96444998Y-81231047D02*
X96406902Y-81307238D01*
X97130712Y-80850095D02*
X97625950Y-80850095D01*
X97625950Y-80850095D02*
X97359284Y-81154857D01*
X97359284Y-81154857D02*
X97473569Y-81154857D01*
X97473569Y-81154857D02*
X97549760Y-81192952D01*
X97549760Y-81192952D02*
X97587855Y-81231047D01*
X97587855Y-81231047D02*
X97625950Y-81307238D01*
X97625950Y-81307238D02*
X97625950Y-81497714D01*
X97625950Y-81497714D02*
X97587855Y-81573904D01*
X97587855Y-81573904D02*
X97549760Y-81612000D01*
X97549760Y-81612000D02*
X97473569Y-81650095D01*
X97473569Y-81650095D02*
X97244998Y-81650095D01*
X97244998Y-81650095D02*
X97168807Y-81612000D01*
X97168807Y-81612000D02*
X97130712Y-81573904D01*
X98349760Y-80850095D02*
X97968808Y-80850095D01*
X97968808Y-80850095D02*
X97930712Y-81231047D01*
X97930712Y-81231047D02*
X97968808Y-81192952D01*
X97968808Y-81192952D02*
X98044998Y-81154857D01*
X98044998Y-81154857D02*
X98235474Y-81154857D01*
X98235474Y-81154857D02*
X98311665Y-81192952D01*
X98311665Y-81192952D02*
X98349760Y-81231047D01*
X98349760Y-81231047D02*
X98387855Y-81307238D01*
X98387855Y-81307238D02*
X98387855Y-81497714D01*
X98387855Y-81497714D02*
X98349760Y-81573904D01*
X98349760Y-81573904D02*
X98311665Y-81612000D01*
X98311665Y-81612000D02*
X98235474Y-81650095D01*
X98235474Y-81650095D02*
X98044998Y-81650095D01*
X98044998Y-81650095D02*
X97968808Y-81612000D01*
X97968808Y-81612000D02*
X97930712Y-81573904D01*
X98730713Y-81650095D02*
X98730713Y-81116761D01*
X98730713Y-81192952D02*
X98768808Y-81154857D01*
X98768808Y-81154857D02*
X98844998Y-81116761D01*
X98844998Y-81116761D02*
X98959284Y-81116761D01*
X98959284Y-81116761D02*
X99035475Y-81154857D01*
X99035475Y-81154857D02*
X99073570Y-81231047D01*
X99073570Y-81231047D02*
X99073570Y-81650095D01*
X99073570Y-81231047D02*
X99111665Y-81154857D01*
X99111665Y-81154857D02*
X99187856Y-81116761D01*
X99187856Y-81116761D02*
X99302141Y-81116761D01*
X99302141Y-81116761D02*
X99378332Y-81154857D01*
X99378332Y-81154857D02*
X99416427Y-81231047D01*
X99416427Y-81231047D02*
X99416427Y-81650095D01*
X99797380Y-81650095D02*
X99797380Y-81116761D01*
X99797380Y-81192952D02*
X99835475Y-81154857D01*
X99835475Y-81154857D02*
X99911665Y-81116761D01*
X99911665Y-81116761D02*
X100025951Y-81116761D01*
X100025951Y-81116761D02*
X100102142Y-81154857D01*
X100102142Y-81154857D02*
X100140237Y-81231047D01*
X100140237Y-81231047D02*
X100140237Y-81650095D01*
X100140237Y-81231047D02*
X100178332Y-81154857D01*
X100178332Y-81154857D02*
X100254523Y-81116761D01*
X100254523Y-81116761D02*
X100368808Y-81116761D01*
X100368808Y-81116761D02*
X100444999Y-81154857D01*
X100444999Y-81154857D02*
X100483094Y-81231047D01*
X100483094Y-81231047D02*
X100483094Y-81650095D01*
X101435475Y-80812000D02*
X100749761Y-81840571D01*
X101854523Y-80850095D02*
X101930713Y-80850095D01*
X101930713Y-80850095D02*
X102006904Y-80888190D01*
X102006904Y-80888190D02*
X102044999Y-80926285D01*
X102044999Y-80926285D02*
X102083094Y-81002476D01*
X102083094Y-81002476D02*
X102121189Y-81154857D01*
X102121189Y-81154857D02*
X102121189Y-81345333D01*
X102121189Y-81345333D02*
X102083094Y-81497714D01*
X102083094Y-81497714D02*
X102044999Y-81573904D01*
X102044999Y-81573904D02*
X102006904Y-81612000D01*
X102006904Y-81612000D02*
X101930713Y-81650095D01*
X101930713Y-81650095D02*
X101854523Y-81650095D01*
X101854523Y-81650095D02*
X101778332Y-81612000D01*
X101778332Y-81612000D02*
X101740237Y-81573904D01*
X101740237Y-81573904D02*
X101702142Y-81497714D01*
X101702142Y-81497714D02*
X101664046Y-81345333D01*
X101664046Y-81345333D02*
X101664046Y-81154857D01*
X101664046Y-81154857D02*
X101702142Y-81002476D01*
X101702142Y-81002476D02*
X101740237Y-80926285D01*
X101740237Y-80926285D02*
X101778332Y-80888190D01*
X101778332Y-80888190D02*
X101854523Y-80850095D01*
X102464047Y-81573904D02*
X102502142Y-81612000D01*
X102502142Y-81612000D02*
X102464047Y-81650095D01*
X102464047Y-81650095D02*
X102425951Y-81612000D01*
X102425951Y-81612000D02*
X102464047Y-81573904D01*
X102464047Y-81573904D02*
X102464047Y-81650095D01*
X102997380Y-80850095D02*
X103073570Y-80850095D01*
X103073570Y-80850095D02*
X103149761Y-80888190D01*
X103149761Y-80888190D02*
X103187856Y-80926285D01*
X103187856Y-80926285D02*
X103225951Y-81002476D01*
X103225951Y-81002476D02*
X103264046Y-81154857D01*
X103264046Y-81154857D02*
X103264046Y-81345333D01*
X103264046Y-81345333D02*
X103225951Y-81497714D01*
X103225951Y-81497714D02*
X103187856Y-81573904D01*
X103187856Y-81573904D02*
X103149761Y-81612000D01*
X103149761Y-81612000D02*
X103073570Y-81650095D01*
X103073570Y-81650095D02*
X102997380Y-81650095D01*
X102997380Y-81650095D02*
X102921189Y-81612000D01*
X102921189Y-81612000D02*
X102883094Y-81573904D01*
X102883094Y-81573904D02*
X102844999Y-81497714D01*
X102844999Y-81497714D02*
X102806903Y-81345333D01*
X102806903Y-81345333D02*
X102806903Y-81154857D01*
X102806903Y-81154857D02*
X102844999Y-81002476D01*
X102844999Y-81002476D02*
X102883094Y-80926285D01*
X102883094Y-80926285D02*
X102921189Y-80888190D01*
X102921189Y-80888190D02*
X102997380Y-80850095D01*
X103568808Y-80926285D02*
X103606904Y-80888190D01*
X103606904Y-80888190D02*
X103683094Y-80850095D01*
X103683094Y-80850095D02*
X103873570Y-80850095D01*
X103873570Y-80850095D02*
X103949761Y-80888190D01*
X103949761Y-80888190D02*
X103987856Y-80926285D01*
X103987856Y-80926285D02*
X104025951Y-81002476D01*
X104025951Y-81002476D02*
X104025951Y-81078666D01*
X104025951Y-81078666D02*
X103987856Y-81192952D01*
X103987856Y-81192952D02*
X103530713Y-81650095D01*
X103530713Y-81650095D02*
X104025951Y-81650095D01*
X104749761Y-80850095D02*
X104368809Y-80850095D01*
X104368809Y-80850095D02*
X104330713Y-81231047D01*
X104330713Y-81231047D02*
X104368809Y-81192952D01*
X104368809Y-81192952D02*
X104444999Y-81154857D01*
X104444999Y-81154857D02*
X104635475Y-81154857D01*
X104635475Y-81154857D02*
X104711666Y-81192952D01*
X104711666Y-81192952D02*
X104749761Y-81231047D01*
X104749761Y-81231047D02*
X104787856Y-81307238D01*
X104787856Y-81307238D02*
X104787856Y-81497714D01*
X104787856Y-81497714D02*
X104749761Y-81573904D01*
X104749761Y-81573904D02*
X104711666Y-81612000D01*
X104711666Y-81612000D02*
X104635475Y-81650095D01*
X104635475Y-81650095D02*
X104444999Y-81650095D01*
X104444999Y-81650095D02*
X104368809Y-81612000D01*
X104368809Y-81612000D02*
X104330713Y-81573904D01*
X105130714Y-81650095D02*
X105130714Y-81116761D01*
X105130714Y-80850095D02*
X105092618Y-80888190D01*
X105092618Y-80888190D02*
X105130714Y-80926285D01*
X105130714Y-80926285D02*
X105168809Y-80888190D01*
X105168809Y-80888190D02*
X105130714Y-80850095D01*
X105130714Y-80850095D02*
X105130714Y-80926285D01*
X105511666Y-81116761D02*
X105511666Y-81650095D01*
X105511666Y-81192952D02*
X105549761Y-81154857D01*
X105549761Y-81154857D02*
X105625951Y-81116761D01*
X105625951Y-81116761D02*
X105740237Y-81116761D01*
X105740237Y-81116761D02*
X105816428Y-81154857D01*
X105816428Y-81154857D02*
X105854523Y-81231047D01*
X105854523Y-81231047D02*
X105854523Y-81650095D01*
D10*
X129716904Y-70294523D02*
X129716904Y-69818333D01*
X130002619Y-70389761D02*
X129002619Y-70056428D01*
X129002619Y-70056428D02*
X130002619Y-69723095D01*
X129002619Y-69389761D02*
X129812142Y-69389761D01*
X129812142Y-69389761D02*
X129907380Y-69342142D01*
X129907380Y-69342142D02*
X129955000Y-69294523D01*
X129955000Y-69294523D02*
X130002619Y-69199285D01*
X130002619Y-69199285D02*
X130002619Y-69008809D01*
X130002619Y-69008809D02*
X129955000Y-68913571D01*
X129955000Y-68913571D02*
X129907380Y-68865952D01*
X129907380Y-68865952D02*
X129812142Y-68818333D01*
X129812142Y-68818333D02*
X129002619Y-68818333D01*
X130002619Y-68342142D02*
X129002619Y-68342142D01*
X129002619Y-68342142D02*
X129002619Y-68104047D01*
X129002619Y-68104047D02*
X129050238Y-67961190D01*
X129050238Y-67961190D02*
X129145476Y-67865952D01*
X129145476Y-67865952D02*
X129240714Y-67818333D01*
X129240714Y-67818333D02*
X129431190Y-67770714D01*
X129431190Y-67770714D02*
X129574047Y-67770714D01*
X129574047Y-67770714D02*
X129764523Y-67818333D01*
X129764523Y-67818333D02*
X129859761Y-67865952D01*
X129859761Y-67865952D02*
X129955000Y-67961190D01*
X129955000Y-67961190D02*
X130002619Y-68104047D01*
X130002619Y-68104047D02*
X130002619Y-68342142D01*
%TO.C,U2*%
X165608095Y-94767619D02*
X165608095Y-95577142D01*
X165608095Y-95577142D02*
X165655714Y-95672380D01*
X165655714Y-95672380D02*
X165703333Y-95720000D01*
X165703333Y-95720000D02*
X165798571Y-95767619D01*
X165798571Y-95767619D02*
X165989047Y-95767619D01*
X165989047Y-95767619D02*
X166084285Y-95720000D01*
X166084285Y-95720000D02*
X166131904Y-95672380D01*
X166131904Y-95672380D02*
X166179523Y-95577142D01*
X166179523Y-95577142D02*
X166179523Y-94767619D01*
X166608095Y-94862857D02*
X166655714Y-94815238D01*
X166655714Y-94815238D02*
X166750952Y-94767619D01*
X166750952Y-94767619D02*
X166989047Y-94767619D01*
X166989047Y-94767619D02*
X167084285Y-94815238D01*
X167084285Y-94815238D02*
X167131904Y-94862857D01*
X167131904Y-94862857D02*
X167179523Y-94958095D01*
X167179523Y-94958095D02*
X167179523Y-95053333D01*
X167179523Y-95053333D02*
X167131904Y-95196190D01*
X167131904Y-95196190D02*
X166560476Y-95767619D01*
X166560476Y-95767619D02*
X167179523Y-95767619D01*
%TO.C,R12*%
X169372619Y-69222857D02*
X168896428Y-69556190D01*
X169372619Y-69794285D02*
X168372619Y-69794285D01*
X168372619Y-69794285D02*
X168372619Y-69413333D01*
X168372619Y-69413333D02*
X168420238Y-69318095D01*
X168420238Y-69318095D02*
X168467857Y-69270476D01*
X168467857Y-69270476D02*
X168563095Y-69222857D01*
X168563095Y-69222857D02*
X168705952Y-69222857D01*
X168705952Y-69222857D02*
X168801190Y-69270476D01*
X168801190Y-69270476D02*
X168848809Y-69318095D01*
X168848809Y-69318095D02*
X168896428Y-69413333D01*
X168896428Y-69413333D02*
X168896428Y-69794285D01*
X169372619Y-68270476D02*
X169372619Y-68841904D01*
X169372619Y-68556190D02*
X168372619Y-68556190D01*
X168372619Y-68556190D02*
X168515476Y-68651428D01*
X168515476Y-68651428D02*
X168610714Y-68746666D01*
X168610714Y-68746666D02*
X168658333Y-68841904D01*
X168467857Y-67889523D02*
X168420238Y-67841904D01*
X168420238Y-67841904D02*
X168372619Y-67746666D01*
X168372619Y-67746666D02*
X168372619Y-67508571D01*
X168372619Y-67508571D02*
X168420238Y-67413333D01*
X168420238Y-67413333D02*
X168467857Y-67365714D01*
X168467857Y-67365714D02*
X168563095Y-67318095D01*
X168563095Y-67318095D02*
X168658333Y-67318095D01*
X168658333Y-67318095D02*
X168801190Y-67365714D01*
X168801190Y-67365714D02*
X169372619Y-67937142D01*
X169372619Y-67937142D02*
X169372619Y-67318095D01*
%TO.C,R11*%
X171277619Y-69222857D02*
X170801428Y-69556190D01*
X171277619Y-69794285D02*
X170277619Y-69794285D01*
X170277619Y-69794285D02*
X170277619Y-69413333D01*
X170277619Y-69413333D02*
X170325238Y-69318095D01*
X170325238Y-69318095D02*
X170372857Y-69270476D01*
X170372857Y-69270476D02*
X170468095Y-69222857D01*
X170468095Y-69222857D02*
X170610952Y-69222857D01*
X170610952Y-69222857D02*
X170706190Y-69270476D01*
X170706190Y-69270476D02*
X170753809Y-69318095D01*
X170753809Y-69318095D02*
X170801428Y-69413333D01*
X170801428Y-69413333D02*
X170801428Y-69794285D01*
X171277619Y-68270476D02*
X171277619Y-68841904D01*
X171277619Y-68556190D02*
X170277619Y-68556190D01*
X170277619Y-68556190D02*
X170420476Y-68651428D01*
X170420476Y-68651428D02*
X170515714Y-68746666D01*
X170515714Y-68746666D02*
X170563333Y-68841904D01*
X171277619Y-67318095D02*
X171277619Y-67889523D01*
X171277619Y-67603809D02*
X170277619Y-67603809D01*
X170277619Y-67603809D02*
X170420476Y-67699047D01*
X170420476Y-67699047D02*
X170515714Y-67794285D01*
X170515714Y-67794285D02*
X170563333Y-67889523D01*
%TO.C,R10*%
X179532619Y-77477857D02*
X179056428Y-77811190D01*
X179532619Y-78049285D02*
X178532619Y-78049285D01*
X178532619Y-78049285D02*
X178532619Y-77668333D01*
X178532619Y-77668333D02*
X178580238Y-77573095D01*
X178580238Y-77573095D02*
X178627857Y-77525476D01*
X178627857Y-77525476D02*
X178723095Y-77477857D01*
X178723095Y-77477857D02*
X178865952Y-77477857D01*
X178865952Y-77477857D02*
X178961190Y-77525476D01*
X178961190Y-77525476D02*
X179008809Y-77573095D01*
X179008809Y-77573095D02*
X179056428Y-77668333D01*
X179056428Y-77668333D02*
X179056428Y-78049285D01*
X179532619Y-76525476D02*
X179532619Y-77096904D01*
X179532619Y-76811190D02*
X178532619Y-76811190D01*
X178532619Y-76811190D02*
X178675476Y-76906428D01*
X178675476Y-76906428D02*
X178770714Y-77001666D01*
X178770714Y-77001666D02*
X178818333Y-77096904D01*
X178532619Y-75906428D02*
X178532619Y-75811190D01*
X178532619Y-75811190D02*
X178580238Y-75715952D01*
X178580238Y-75715952D02*
X178627857Y-75668333D01*
X178627857Y-75668333D02*
X178723095Y-75620714D01*
X178723095Y-75620714D02*
X178913571Y-75573095D01*
X178913571Y-75573095D02*
X179151666Y-75573095D01*
X179151666Y-75573095D02*
X179342142Y-75620714D01*
X179342142Y-75620714D02*
X179437380Y-75668333D01*
X179437380Y-75668333D02*
X179485000Y-75715952D01*
X179485000Y-75715952D02*
X179532619Y-75811190D01*
X179532619Y-75811190D02*
X179532619Y-75906428D01*
X179532619Y-75906428D02*
X179485000Y-76001666D01*
X179485000Y-76001666D02*
X179437380Y-76049285D01*
X179437380Y-76049285D02*
X179342142Y-76096904D01*
X179342142Y-76096904D02*
X179151666Y-76144523D01*
X179151666Y-76144523D02*
X178913571Y-76144523D01*
X178913571Y-76144523D02*
X178723095Y-76096904D01*
X178723095Y-76096904D02*
X178627857Y-76049285D01*
X178627857Y-76049285D02*
X178580238Y-76001666D01*
X178580238Y-76001666D02*
X178532619Y-75906428D01*
%TO.C,R9*%
X135717619Y-73191666D02*
X135241428Y-73524999D01*
X135717619Y-73763094D02*
X134717619Y-73763094D01*
X134717619Y-73763094D02*
X134717619Y-73382142D01*
X134717619Y-73382142D02*
X134765238Y-73286904D01*
X134765238Y-73286904D02*
X134812857Y-73239285D01*
X134812857Y-73239285D02*
X134908095Y-73191666D01*
X134908095Y-73191666D02*
X135050952Y-73191666D01*
X135050952Y-73191666D02*
X135146190Y-73239285D01*
X135146190Y-73239285D02*
X135193809Y-73286904D01*
X135193809Y-73286904D02*
X135241428Y-73382142D01*
X135241428Y-73382142D02*
X135241428Y-73763094D01*
X135717619Y-72715475D02*
X135717619Y-72524999D01*
X135717619Y-72524999D02*
X135670000Y-72429761D01*
X135670000Y-72429761D02*
X135622380Y-72382142D01*
X135622380Y-72382142D02*
X135479523Y-72286904D01*
X135479523Y-72286904D02*
X135289047Y-72239285D01*
X135289047Y-72239285D02*
X134908095Y-72239285D01*
X134908095Y-72239285D02*
X134812857Y-72286904D01*
X134812857Y-72286904D02*
X134765238Y-72334523D01*
X134765238Y-72334523D02*
X134717619Y-72429761D01*
X134717619Y-72429761D02*
X134717619Y-72620237D01*
X134717619Y-72620237D02*
X134765238Y-72715475D01*
X134765238Y-72715475D02*
X134812857Y-72763094D01*
X134812857Y-72763094D02*
X134908095Y-72810713D01*
X134908095Y-72810713D02*
X135146190Y-72810713D01*
X135146190Y-72810713D02*
X135241428Y-72763094D01*
X135241428Y-72763094D02*
X135289047Y-72715475D01*
X135289047Y-72715475D02*
X135336666Y-72620237D01*
X135336666Y-72620237D02*
X135336666Y-72429761D01*
X135336666Y-72429761D02*
X135289047Y-72334523D01*
X135289047Y-72334523D02*
X135241428Y-72286904D01*
X135241428Y-72286904D02*
X135146190Y-72239285D01*
%TO.C,R8*%
X150957619Y-78906666D02*
X150481428Y-79239999D01*
X150957619Y-79478094D02*
X149957619Y-79478094D01*
X149957619Y-79478094D02*
X149957619Y-79097142D01*
X149957619Y-79097142D02*
X150005238Y-79001904D01*
X150005238Y-79001904D02*
X150052857Y-78954285D01*
X150052857Y-78954285D02*
X150148095Y-78906666D01*
X150148095Y-78906666D02*
X150290952Y-78906666D01*
X150290952Y-78906666D02*
X150386190Y-78954285D01*
X150386190Y-78954285D02*
X150433809Y-79001904D01*
X150433809Y-79001904D02*
X150481428Y-79097142D01*
X150481428Y-79097142D02*
X150481428Y-79478094D01*
X150386190Y-78335237D02*
X150338571Y-78430475D01*
X150338571Y-78430475D02*
X150290952Y-78478094D01*
X150290952Y-78478094D02*
X150195714Y-78525713D01*
X150195714Y-78525713D02*
X150148095Y-78525713D01*
X150148095Y-78525713D02*
X150052857Y-78478094D01*
X150052857Y-78478094D02*
X150005238Y-78430475D01*
X150005238Y-78430475D02*
X149957619Y-78335237D01*
X149957619Y-78335237D02*
X149957619Y-78144761D01*
X149957619Y-78144761D02*
X150005238Y-78049523D01*
X150005238Y-78049523D02*
X150052857Y-78001904D01*
X150052857Y-78001904D02*
X150148095Y-77954285D01*
X150148095Y-77954285D02*
X150195714Y-77954285D01*
X150195714Y-77954285D02*
X150290952Y-78001904D01*
X150290952Y-78001904D02*
X150338571Y-78049523D01*
X150338571Y-78049523D02*
X150386190Y-78144761D01*
X150386190Y-78144761D02*
X150386190Y-78335237D01*
X150386190Y-78335237D02*
X150433809Y-78430475D01*
X150433809Y-78430475D02*
X150481428Y-78478094D01*
X150481428Y-78478094D02*
X150576666Y-78525713D01*
X150576666Y-78525713D02*
X150767142Y-78525713D01*
X150767142Y-78525713D02*
X150862380Y-78478094D01*
X150862380Y-78478094D02*
X150910000Y-78430475D01*
X150910000Y-78430475D02*
X150957619Y-78335237D01*
X150957619Y-78335237D02*
X150957619Y-78144761D01*
X150957619Y-78144761D02*
X150910000Y-78049523D01*
X150910000Y-78049523D02*
X150862380Y-78001904D01*
X150862380Y-78001904D02*
X150767142Y-77954285D01*
X150767142Y-77954285D02*
X150576666Y-77954285D01*
X150576666Y-77954285D02*
X150481428Y-78001904D01*
X150481428Y-78001904D02*
X150433809Y-78049523D01*
X150433809Y-78049523D02*
X150386190Y-78144761D01*
%TO.C,R7*%
X124287619Y-75096666D02*
X123811428Y-75429999D01*
X124287619Y-75668094D02*
X123287619Y-75668094D01*
X123287619Y-75668094D02*
X123287619Y-75287142D01*
X123287619Y-75287142D02*
X123335238Y-75191904D01*
X123335238Y-75191904D02*
X123382857Y-75144285D01*
X123382857Y-75144285D02*
X123478095Y-75096666D01*
X123478095Y-75096666D02*
X123620952Y-75096666D01*
X123620952Y-75096666D02*
X123716190Y-75144285D01*
X123716190Y-75144285D02*
X123763809Y-75191904D01*
X123763809Y-75191904D02*
X123811428Y-75287142D01*
X123811428Y-75287142D02*
X123811428Y-75668094D01*
X123287619Y-74763332D02*
X123287619Y-74096666D01*
X123287619Y-74096666D02*
X124287619Y-74525237D01*
%TO.C,R6*%
X167473333Y-83012619D02*
X167140000Y-82536428D01*
X166901905Y-83012619D02*
X166901905Y-82012619D01*
X166901905Y-82012619D02*
X167282857Y-82012619D01*
X167282857Y-82012619D02*
X167378095Y-82060238D01*
X167378095Y-82060238D02*
X167425714Y-82107857D01*
X167425714Y-82107857D02*
X167473333Y-82203095D01*
X167473333Y-82203095D02*
X167473333Y-82345952D01*
X167473333Y-82345952D02*
X167425714Y-82441190D01*
X167425714Y-82441190D02*
X167378095Y-82488809D01*
X167378095Y-82488809D02*
X167282857Y-82536428D01*
X167282857Y-82536428D02*
X166901905Y-82536428D01*
X168330476Y-82012619D02*
X168140000Y-82012619D01*
X168140000Y-82012619D02*
X168044762Y-82060238D01*
X168044762Y-82060238D02*
X167997143Y-82107857D01*
X167997143Y-82107857D02*
X167901905Y-82250714D01*
X167901905Y-82250714D02*
X167854286Y-82441190D01*
X167854286Y-82441190D02*
X167854286Y-82822142D01*
X167854286Y-82822142D02*
X167901905Y-82917380D01*
X167901905Y-82917380D02*
X167949524Y-82965000D01*
X167949524Y-82965000D02*
X168044762Y-83012619D01*
X168044762Y-83012619D02*
X168235238Y-83012619D01*
X168235238Y-83012619D02*
X168330476Y-82965000D01*
X168330476Y-82965000D02*
X168378095Y-82917380D01*
X168378095Y-82917380D02*
X168425714Y-82822142D01*
X168425714Y-82822142D02*
X168425714Y-82584047D01*
X168425714Y-82584047D02*
X168378095Y-82488809D01*
X168378095Y-82488809D02*
X168330476Y-82441190D01*
X168330476Y-82441190D02*
X168235238Y-82393571D01*
X168235238Y-82393571D02*
X168044762Y-82393571D01*
X168044762Y-82393571D02*
X167949524Y-82441190D01*
X167949524Y-82441190D02*
X167901905Y-82488809D01*
X167901905Y-82488809D02*
X167854286Y-82584047D01*
%TO.C,R5*%
X148417619Y-78906666D02*
X147941428Y-79239999D01*
X148417619Y-79478094D02*
X147417619Y-79478094D01*
X147417619Y-79478094D02*
X147417619Y-79097142D01*
X147417619Y-79097142D02*
X147465238Y-79001904D01*
X147465238Y-79001904D02*
X147512857Y-78954285D01*
X147512857Y-78954285D02*
X147608095Y-78906666D01*
X147608095Y-78906666D02*
X147750952Y-78906666D01*
X147750952Y-78906666D02*
X147846190Y-78954285D01*
X147846190Y-78954285D02*
X147893809Y-79001904D01*
X147893809Y-79001904D02*
X147941428Y-79097142D01*
X147941428Y-79097142D02*
X147941428Y-79478094D01*
X147417619Y-78001904D02*
X147417619Y-78478094D01*
X147417619Y-78478094D02*
X147893809Y-78525713D01*
X147893809Y-78525713D02*
X147846190Y-78478094D01*
X147846190Y-78478094D02*
X147798571Y-78382856D01*
X147798571Y-78382856D02*
X147798571Y-78144761D01*
X147798571Y-78144761D02*
X147846190Y-78049523D01*
X147846190Y-78049523D02*
X147893809Y-78001904D01*
X147893809Y-78001904D02*
X147989047Y-77954285D01*
X147989047Y-77954285D02*
X148227142Y-77954285D01*
X148227142Y-77954285D02*
X148322380Y-78001904D01*
X148322380Y-78001904D02*
X148370000Y-78049523D01*
X148370000Y-78049523D02*
X148417619Y-78144761D01*
X148417619Y-78144761D02*
X148417619Y-78382856D01*
X148417619Y-78382856D02*
X148370000Y-78478094D01*
X148370000Y-78478094D02*
X148322380Y-78525713D01*
%TO.C,R4*%
X145248333Y-88092619D02*
X144915000Y-87616428D01*
X144676905Y-88092619D02*
X144676905Y-87092619D01*
X144676905Y-87092619D02*
X145057857Y-87092619D01*
X145057857Y-87092619D02*
X145153095Y-87140238D01*
X145153095Y-87140238D02*
X145200714Y-87187857D01*
X145200714Y-87187857D02*
X145248333Y-87283095D01*
X145248333Y-87283095D02*
X145248333Y-87425952D01*
X145248333Y-87425952D02*
X145200714Y-87521190D01*
X145200714Y-87521190D02*
X145153095Y-87568809D01*
X145153095Y-87568809D02*
X145057857Y-87616428D01*
X145057857Y-87616428D02*
X144676905Y-87616428D01*
X146105476Y-87425952D02*
X146105476Y-88092619D01*
X145867381Y-87045000D02*
X145629286Y-87759285D01*
X145629286Y-87759285D02*
X146248333Y-87759285D01*
%TO.C,R3*%
X145248333Y-85552619D02*
X144915000Y-85076428D01*
X144676905Y-85552619D02*
X144676905Y-84552619D01*
X144676905Y-84552619D02*
X145057857Y-84552619D01*
X145057857Y-84552619D02*
X145153095Y-84600238D01*
X145153095Y-84600238D02*
X145200714Y-84647857D01*
X145200714Y-84647857D02*
X145248333Y-84743095D01*
X145248333Y-84743095D02*
X145248333Y-84885952D01*
X145248333Y-84885952D02*
X145200714Y-84981190D01*
X145200714Y-84981190D02*
X145153095Y-85028809D01*
X145153095Y-85028809D02*
X145057857Y-85076428D01*
X145057857Y-85076428D02*
X144676905Y-85076428D01*
X145581667Y-84552619D02*
X146200714Y-84552619D01*
X146200714Y-84552619D02*
X145867381Y-84933571D01*
X145867381Y-84933571D02*
X146010238Y-84933571D01*
X146010238Y-84933571D02*
X146105476Y-84981190D01*
X146105476Y-84981190D02*
X146153095Y-85028809D01*
X146153095Y-85028809D02*
X146200714Y-85124047D01*
X146200714Y-85124047D02*
X146200714Y-85362142D01*
X146200714Y-85362142D02*
X146153095Y-85457380D01*
X146153095Y-85457380D02*
X146105476Y-85505000D01*
X146105476Y-85505000D02*
X146010238Y-85552619D01*
X146010238Y-85552619D02*
X145724524Y-85552619D01*
X145724524Y-85552619D02*
X145629286Y-85505000D01*
X145629286Y-85505000D02*
X145581667Y-85457380D01*
%TO.C,R2*%
X130002619Y-75096666D02*
X129526428Y-75429999D01*
X130002619Y-75668094D02*
X129002619Y-75668094D01*
X129002619Y-75668094D02*
X129002619Y-75287142D01*
X129002619Y-75287142D02*
X129050238Y-75191904D01*
X129050238Y-75191904D02*
X129097857Y-75144285D01*
X129097857Y-75144285D02*
X129193095Y-75096666D01*
X129193095Y-75096666D02*
X129335952Y-75096666D01*
X129335952Y-75096666D02*
X129431190Y-75144285D01*
X129431190Y-75144285D02*
X129478809Y-75191904D01*
X129478809Y-75191904D02*
X129526428Y-75287142D01*
X129526428Y-75287142D02*
X129526428Y-75668094D01*
X129097857Y-74715713D02*
X129050238Y-74668094D01*
X129050238Y-74668094D02*
X129002619Y-74572856D01*
X129002619Y-74572856D02*
X129002619Y-74334761D01*
X129002619Y-74334761D02*
X129050238Y-74239523D01*
X129050238Y-74239523D02*
X129097857Y-74191904D01*
X129097857Y-74191904D02*
X129193095Y-74144285D01*
X129193095Y-74144285D02*
X129288333Y-74144285D01*
X129288333Y-74144285D02*
X129431190Y-74191904D01*
X129431190Y-74191904D02*
X130002619Y-74763332D01*
X130002619Y-74763332D02*
X130002619Y-74144285D01*
%TO.C,R1*%
X127462619Y-75096666D02*
X126986428Y-75429999D01*
X127462619Y-75668094D02*
X126462619Y-75668094D01*
X126462619Y-75668094D02*
X126462619Y-75287142D01*
X126462619Y-75287142D02*
X126510238Y-75191904D01*
X126510238Y-75191904D02*
X126557857Y-75144285D01*
X126557857Y-75144285D02*
X126653095Y-75096666D01*
X126653095Y-75096666D02*
X126795952Y-75096666D01*
X126795952Y-75096666D02*
X126891190Y-75144285D01*
X126891190Y-75144285D02*
X126938809Y-75191904D01*
X126938809Y-75191904D02*
X126986428Y-75287142D01*
X126986428Y-75287142D02*
X126986428Y-75668094D01*
X127462619Y-74144285D02*
X127462619Y-74715713D01*
X127462619Y-74429999D02*
X126462619Y-74429999D01*
X126462619Y-74429999D02*
X126605476Y-74525237D01*
X126605476Y-74525237D02*
X126700714Y-74620475D01*
X126700714Y-74620475D02*
X126748333Y-74715713D01*
%TO.C,Q2*%
X173259761Y-74852857D02*
X173164523Y-74805238D01*
X173164523Y-74805238D02*
X173069285Y-74710000D01*
X173069285Y-74710000D02*
X172926428Y-74567142D01*
X172926428Y-74567142D02*
X172831190Y-74519523D01*
X172831190Y-74519523D02*
X172735952Y-74519523D01*
X172783571Y-74757619D02*
X172688333Y-74710000D01*
X172688333Y-74710000D02*
X172593095Y-74614761D01*
X172593095Y-74614761D02*
X172545476Y-74424285D01*
X172545476Y-74424285D02*
X172545476Y-74090952D01*
X172545476Y-74090952D02*
X172593095Y-73900476D01*
X172593095Y-73900476D02*
X172688333Y-73805238D01*
X172688333Y-73805238D02*
X172783571Y-73757619D01*
X172783571Y-73757619D02*
X172974047Y-73757619D01*
X172974047Y-73757619D02*
X173069285Y-73805238D01*
X173069285Y-73805238D02*
X173164523Y-73900476D01*
X173164523Y-73900476D02*
X173212142Y-74090952D01*
X173212142Y-74090952D02*
X173212142Y-74424285D01*
X173212142Y-74424285D02*
X173164523Y-74614761D01*
X173164523Y-74614761D02*
X173069285Y-74710000D01*
X173069285Y-74710000D02*
X172974047Y-74757619D01*
X172974047Y-74757619D02*
X172783571Y-74757619D01*
X173593095Y-73852857D02*
X173640714Y-73805238D01*
X173640714Y-73805238D02*
X173735952Y-73757619D01*
X173735952Y-73757619D02*
X173974047Y-73757619D01*
X173974047Y-73757619D02*
X174069285Y-73805238D01*
X174069285Y-73805238D02*
X174116904Y-73852857D01*
X174116904Y-73852857D02*
X174164523Y-73948095D01*
X174164523Y-73948095D02*
X174164523Y-74043333D01*
X174164523Y-74043333D02*
X174116904Y-74186190D01*
X174116904Y-74186190D02*
X173545476Y-74757619D01*
X173545476Y-74757619D02*
X174164523Y-74757619D01*
%TO.C,Q1*%
X168657857Y-75660238D02*
X168610238Y-75755476D01*
X168610238Y-75755476D02*
X168515000Y-75850714D01*
X168515000Y-75850714D02*
X168372142Y-75993571D01*
X168372142Y-75993571D02*
X168324523Y-76088809D01*
X168324523Y-76088809D02*
X168324523Y-76184047D01*
X168562619Y-76136428D02*
X168515000Y-76231666D01*
X168515000Y-76231666D02*
X168419761Y-76326904D01*
X168419761Y-76326904D02*
X168229285Y-76374523D01*
X168229285Y-76374523D02*
X167895952Y-76374523D01*
X167895952Y-76374523D02*
X167705476Y-76326904D01*
X167705476Y-76326904D02*
X167610238Y-76231666D01*
X167610238Y-76231666D02*
X167562619Y-76136428D01*
X167562619Y-76136428D02*
X167562619Y-75945952D01*
X167562619Y-75945952D02*
X167610238Y-75850714D01*
X167610238Y-75850714D02*
X167705476Y-75755476D01*
X167705476Y-75755476D02*
X167895952Y-75707857D01*
X167895952Y-75707857D02*
X168229285Y-75707857D01*
X168229285Y-75707857D02*
X168419761Y-75755476D01*
X168419761Y-75755476D02*
X168515000Y-75850714D01*
X168515000Y-75850714D02*
X168562619Y-75945952D01*
X168562619Y-75945952D02*
X168562619Y-76136428D01*
X168562619Y-74755476D02*
X168562619Y-75326904D01*
X168562619Y-75041190D02*
X167562619Y-75041190D01*
X167562619Y-75041190D02*
X167705476Y-75136428D01*
X167705476Y-75136428D02*
X167800714Y-75231666D01*
X167800714Y-75231666D02*
X167848333Y-75326904D01*
%TO.C,L3*%
X175367619Y-81446666D02*
X175367619Y-81922856D01*
X175367619Y-81922856D02*
X174367619Y-81922856D01*
X174367619Y-81208570D02*
X174367619Y-80589523D01*
X174367619Y-80589523D02*
X174748571Y-80922856D01*
X174748571Y-80922856D02*
X174748571Y-80779999D01*
X174748571Y-80779999D02*
X174796190Y-80684761D01*
X174796190Y-80684761D02*
X174843809Y-80637142D01*
X174843809Y-80637142D02*
X174939047Y-80589523D01*
X174939047Y-80589523D02*
X175177142Y-80589523D01*
X175177142Y-80589523D02*
X175272380Y-80637142D01*
X175272380Y-80637142D02*
X175320000Y-80684761D01*
X175320000Y-80684761D02*
X175367619Y-80779999D01*
X175367619Y-80779999D02*
X175367619Y-81065713D01*
X175367619Y-81065713D02*
X175320000Y-81160951D01*
X175320000Y-81160951D02*
X175272380Y-81208570D01*
%TO.C,L2*%
X157313333Y-88092619D02*
X156837143Y-88092619D01*
X156837143Y-88092619D02*
X156837143Y-87092619D01*
X157599048Y-87187857D02*
X157646667Y-87140238D01*
X157646667Y-87140238D02*
X157741905Y-87092619D01*
X157741905Y-87092619D02*
X157980000Y-87092619D01*
X157980000Y-87092619D02*
X158075238Y-87140238D01*
X158075238Y-87140238D02*
X158122857Y-87187857D01*
X158122857Y-87187857D02*
X158170476Y-87283095D01*
X158170476Y-87283095D02*
X158170476Y-87378333D01*
X158170476Y-87378333D02*
X158122857Y-87521190D01*
X158122857Y-87521190D02*
X157551429Y-88092619D01*
X157551429Y-88092619D02*
X158170476Y-88092619D01*
%TO.C,L1*%
X157313333Y-85552619D02*
X156837143Y-85552619D01*
X156837143Y-85552619D02*
X156837143Y-84552619D01*
X158170476Y-85552619D02*
X157599048Y-85552619D01*
X157884762Y-85552619D02*
X157884762Y-84552619D01*
X157884762Y-84552619D02*
X157789524Y-84695476D01*
X157789524Y-84695476D02*
X157694286Y-84790714D01*
X157694286Y-84790714D02*
X157599048Y-84838333D01*
%TO.C,D2*%
X128732619Y-70588094D02*
X127732619Y-70588094D01*
X127732619Y-70588094D02*
X127732619Y-70349999D01*
X127732619Y-70349999D02*
X127780238Y-70207142D01*
X127780238Y-70207142D02*
X127875476Y-70111904D01*
X127875476Y-70111904D02*
X127970714Y-70064285D01*
X127970714Y-70064285D02*
X128161190Y-70016666D01*
X128161190Y-70016666D02*
X128304047Y-70016666D01*
X128304047Y-70016666D02*
X128494523Y-70064285D01*
X128494523Y-70064285D02*
X128589761Y-70111904D01*
X128589761Y-70111904D02*
X128685000Y-70207142D01*
X128685000Y-70207142D02*
X128732619Y-70349999D01*
X128732619Y-70349999D02*
X128732619Y-70588094D01*
X127827857Y-69635713D02*
X127780238Y-69588094D01*
X127780238Y-69588094D02*
X127732619Y-69492856D01*
X127732619Y-69492856D02*
X127732619Y-69254761D01*
X127732619Y-69254761D02*
X127780238Y-69159523D01*
X127780238Y-69159523D02*
X127827857Y-69111904D01*
X127827857Y-69111904D02*
X127923095Y-69064285D01*
X127923095Y-69064285D02*
X128018333Y-69064285D01*
X128018333Y-69064285D02*
X128161190Y-69111904D01*
X128161190Y-69111904D02*
X128732619Y-69683332D01*
X128732619Y-69683332D02*
X128732619Y-69064285D01*
%TO.C,D1*%
X125557619Y-70588094D02*
X124557619Y-70588094D01*
X124557619Y-70588094D02*
X124557619Y-70349999D01*
X124557619Y-70349999D02*
X124605238Y-70207142D01*
X124605238Y-70207142D02*
X124700476Y-70111904D01*
X124700476Y-70111904D02*
X124795714Y-70064285D01*
X124795714Y-70064285D02*
X124986190Y-70016666D01*
X124986190Y-70016666D02*
X125129047Y-70016666D01*
X125129047Y-70016666D02*
X125319523Y-70064285D01*
X125319523Y-70064285D02*
X125414761Y-70111904D01*
X125414761Y-70111904D02*
X125510000Y-70207142D01*
X125510000Y-70207142D02*
X125557619Y-70349999D01*
X125557619Y-70349999D02*
X125557619Y-70588094D01*
X125557619Y-69064285D02*
X125557619Y-69635713D01*
X125557619Y-69349999D02*
X124557619Y-69349999D01*
X124557619Y-69349999D02*
X124700476Y-69445237D01*
X124700476Y-69445237D02*
X124795714Y-69540475D01*
X124795714Y-69540475D02*
X124843333Y-69635713D01*
%TO.C,C8*%
X164832380Y-75731666D02*
X164880000Y-75779285D01*
X164880000Y-75779285D02*
X164927619Y-75922142D01*
X164927619Y-75922142D02*
X164927619Y-76017380D01*
X164927619Y-76017380D02*
X164880000Y-76160237D01*
X164880000Y-76160237D02*
X164784761Y-76255475D01*
X164784761Y-76255475D02*
X164689523Y-76303094D01*
X164689523Y-76303094D02*
X164499047Y-76350713D01*
X164499047Y-76350713D02*
X164356190Y-76350713D01*
X164356190Y-76350713D02*
X164165714Y-76303094D01*
X164165714Y-76303094D02*
X164070476Y-76255475D01*
X164070476Y-76255475D02*
X163975238Y-76160237D01*
X163975238Y-76160237D02*
X163927619Y-76017380D01*
X163927619Y-76017380D02*
X163927619Y-75922142D01*
X163927619Y-75922142D02*
X163975238Y-75779285D01*
X163975238Y-75779285D02*
X164022857Y-75731666D01*
X164356190Y-75160237D02*
X164308571Y-75255475D01*
X164308571Y-75255475D02*
X164260952Y-75303094D01*
X164260952Y-75303094D02*
X164165714Y-75350713D01*
X164165714Y-75350713D02*
X164118095Y-75350713D01*
X164118095Y-75350713D02*
X164022857Y-75303094D01*
X164022857Y-75303094D02*
X163975238Y-75255475D01*
X163975238Y-75255475D02*
X163927619Y-75160237D01*
X163927619Y-75160237D02*
X163927619Y-74969761D01*
X163927619Y-74969761D02*
X163975238Y-74874523D01*
X163975238Y-74874523D02*
X164022857Y-74826904D01*
X164022857Y-74826904D02*
X164118095Y-74779285D01*
X164118095Y-74779285D02*
X164165714Y-74779285D01*
X164165714Y-74779285D02*
X164260952Y-74826904D01*
X164260952Y-74826904D02*
X164308571Y-74874523D01*
X164308571Y-74874523D02*
X164356190Y-74969761D01*
X164356190Y-74969761D02*
X164356190Y-75160237D01*
X164356190Y-75160237D02*
X164403809Y-75255475D01*
X164403809Y-75255475D02*
X164451428Y-75303094D01*
X164451428Y-75303094D02*
X164546666Y-75350713D01*
X164546666Y-75350713D02*
X164737142Y-75350713D01*
X164737142Y-75350713D02*
X164832380Y-75303094D01*
X164832380Y-75303094D02*
X164880000Y-75255475D01*
X164880000Y-75255475D02*
X164927619Y-75160237D01*
X164927619Y-75160237D02*
X164927619Y-74969761D01*
X164927619Y-74969761D02*
X164880000Y-74874523D01*
X164880000Y-74874523D02*
X164832380Y-74826904D01*
X164832380Y-74826904D02*
X164737142Y-74779285D01*
X164737142Y-74779285D02*
X164546666Y-74779285D01*
X164546666Y-74779285D02*
X164451428Y-74826904D01*
X164451428Y-74826904D02*
X164403809Y-74874523D01*
X164403809Y-74874523D02*
X164356190Y-74969761D01*
%TO.C,C7*%
X167473333Y-80377380D02*
X167425714Y-80425000D01*
X167425714Y-80425000D02*
X167282857Y-80472619D01*
X167282857Y-80472619D02*
X167187619Y-80472619D01*
X167187619Y-80472619D02*
X167044762Y-80425000D01*
X167044762Y-80425000D02*
X166949524Y-80329761D01*
X166949524Y-80329761D02*
X166901905Y-80234523D01*
X166901905Y-80234523D02*
X166854286Y-80044047D01*
X166854286Y-80044047D02*
X166854286Y-79901190D01*
X166854286Y-79901190D02*
X166901905Y-79710714D01*
X166901905Y-79710714D02*
X166949524Y-79615476D01*
X166949524Y-79615476D02*
X167044762Y-79520238D01*
X167044762Y-79520238D02*
X167187619Y-79472619D01*
X167187619Y-79472619D02*
X167282857Y-79472619D01*
X167282857Y-79472619D02*
X167425714Y-79520238D01*
X167425714Y-79520238D02*
X167473333Y-79567857D01*
X167806667Y-79472619D02*
X168473333Y-79472619D01*
X168473333Y-79472619D02*
X168044762Y-80472619D01*
%TO.C,C6*%
X146827380Y-92738666D02*
X146875000Y-92786285D01*
X146875000Y-92786285D02*
X146922619Y-92929142D01*
X146922619Y-92929142D02*
X146922619Y-93024380D01*
X146922619Y-93024380D02*
X146875000Y-93167237D01*
X146875000Y-93167237D02*
X146779761Y-93262475D01*
X146779761Y-93262475D02*
X146684523Y-93310094D01*
X146684523Y-93310094D02*
X146494047Y-93357713D01*
X146494047Y-93357713D02*
X146351190Y-93357713D01*
X146351190Y-93357713D02*
X146160714Y-93310094D01*
X146160714Y-93310094D02*
X146065476Y-93262475D01*
X146065476Y-93262475D02*
X145970238Y-93167237D01*
X145970238Y-93167237D02*
X145922619Y-93024380D01*
X145922619Y-93024380D02*
X145922619Y-92929142D01*
X145922619Y-92929142D02*
X145970238Y-92786285D01*
X145970238Y-92786285D02*
X146017857Y-92738666D01*
X145922619Y-91881523D02*
X145922619Y-92071999D01*
X145922619Y-92071999D02*
X145970238Y-92167237D01*
X145970238Y-92167237D02*
X146017857Y-92214856D01*
X146017857Y-92214856D02*
X146160714Y-92310094D01*
X146160714Y-92310094D02*
X146351190Y-92357713D01*
X146351190Y-92357713D02*
X146732142Y-92357713D01*
X146732142Y-92357713D02*
X146827380Y-92310094D01*
X146827380Y-92310094D02*
X146875000Y-92262475D01*
X146875000Y-92262475D02*
X146922619Y-92167237D01*
X146922619Y-92167237D02*
X146922619Y-91976761D01*
X146922619Y-91976761D02*
X146875000Y-91881523D01*
X146875000Y-91881523D02*
X146827380Y-91833904D01*
X146827380Y-91833904D02*
X146732142Y-91786285D01*
X146732142Y-91786285D02*
X146494047Y-91786285D01*
X146494047Y-91786285D02*
X146398809Y-91833904D01*
X146398809Y-91833904D02*
X146351190Y-91881523D01*
X146351190Y-91881523D02*
X146303571Y-91976761D01*
X146303571Y-91976761D02*
X146303571Y-92167237D01*
X146303571Y-92167237D02*
X146351190Y-92262475D01*
X146351190Y-92262475D02*
X146398809Y-92310094D01*
X146398809Y-92310094D02*
X146494047Y-92357713D01*
%TO.C,C5*%
X137943333Y-77202380D02*
X137895714Y-77250000D01*
X137895714Y-77250000D02*
X137752857Y-77297619D01*
X137752857Y-77297619D02*
X137657619Y-77297619D01*
X137657619Y-77297619D02*
X137514762Y-77250000D01*
X137514762Y-77250000D02*
X137419524Y-77154761D01*
X137419524Y-77154761D02*
X137371905Y-77059523D01*
X137371905Y-77059523D02*
X137324286Y-76869047D01*
X137324286Y-76869047D02*
X137324286Y-76726190D01*
X137324286Y-76726190D02*
X137371905Y-76535714D01*
X137371905Y-76535714D02*
X137419524Y-76440476D01*
X137419524Y-76440476D02*
X137514762Y-76345238D01*
X137514762Y-76345238D02*
X137657619Y-76297619D01*
X137657619Y-76297619D02*
X137752857Y-76297619D01*
X137752857Y-76297619D02*
X137895714Y-76345238D01*
X137895714Y-76345238D02*
X137943333Y-76392857D01*
X138848095Y-76297619D02*
X138371905Y-76297619D01*
X138371905Y-76297619D02*
X138324286Y-76773809D01*
X138324286Y-76773809D02*
X138371905Y-76726190D01*
X138371905Y-76726190D02*
X138467143Y-76678571D01*
X138467143Y-76678571D02*
X138705238Y-76678571D01*
X138705238Y-76678571D02*
X138800476Y-76726190D01*
X138800476Y-76726190D02*
X138848095Y-76773809D01*
X138848095Y-76773809D02*
X138895714Y-76869047D01*
X138895714Y-76869047D02*
X138895714Y-77107142D01*
X138895714Y-77107142D02*
X138848095Y-77202380D01*
X138848095Y-77202380D02*
X138800476Y-77250000D01*
X138800476Y-77250000D02*
X138705238Y-77297619D01*
X138705238Y-77297619D02*
X138467143Y-77297619D01*
X138467143Y-77297619D02*
X138371905Y-77250000D01*
X138371905Y-77250000D02*
X138324286Y-77202380D01*
%TO.C,C4*%
X132228333Y-77202380D02*
X132180714Y-77250000D01*
X132180714Y-77250000D02*
X132037857Y-77297619D01*
X132037857Y-77297619D02*
X131942619Y-77297619D01*
X131942619Y-77297619D02*
X131799762Y-77250000D01*
X131799762Y-77250000D02*
X131704524Y-77154761D01*
X131704524Y-77154761D02*
X131656905Y-77059523D01*
X131656905Y-77059523D02*
X131609286Y-76869047D01*
X131609286Y-76869047D02*
X131609286Y-76726190D01*
X131609286Y-76726190D02*
X131656905Y-76535714D01*
X131656905Y-76535714D02*
X131704524Y-76440476D01*
X131704524Y-76440476D02*
X131799762Y-76345238D01*
X131799762Y-76345238D02*
X131942619Y-76297619D01*
X131942619Y-76297619D02*
X132037857Y-76297619D01*
X132037857Y-76297619D02*
X132180714Y-76345238D01*
X132180714Y-76345238D02*
X132228333Y-76392857D01*
X133085476Y-76630952D02*
X133085476Y-77297619D01*
X132847381Y-76250000D02*
X132609286Y-76964285D01*
X132609286Y-76964285D02*
X133228333Y-76964285D01*
%TO.C,C3*%
X153402380Y-78906666D02*
X153450000Y-78954285D01*
X153450000Y-78954285D02*
X153497619Y-79097142D01*
X153497619Y-79097142D02*
X153497619Y-79192380D01*
X153497619Y-79192380D02*
X153450000Y-79335237D01*
X153450000Y-79335237D02*
X153354761Y-79430475D01*
X153354761Y-79430475D02*
X153259523Y-79478094D01*
X153259523Y-79478094D02*
X153069047Y-79525713D01*
X153069047Y-79525713D02*
X152926190Y-79525713D01*
X152926190Y-79525713D02*
X152735714Y-79478094D01*
X152735714Y-79478094D02*
X152640476Y-79430475D01*
X152640476Y-79430475D02*
X152545238Y-79335237D01*
X152545238Y-79335237D02*
X152497619Y-79192380D01*
X152497619Y-79192380D02*
X152497619Y-79097142D01*
X152497619Y-79097142D02*
X152545238Y-78954285D01*
X152545238Y-78954285D02*
X152592857Y-78906666D01*
X152497619Y-78573332D02*
X152497619Y-77954285D01*
X152497619Y-77954285D02*
X152878571Y-78287618D01*
X152878571Y-78287618D02*
X152878571Y-78144761D01*
X152878571Y-78144761D02*
X152926190Y-78049523D01*
X152926190Y-78049523D02*
X152973809Y-78001904D01*
X152973809Y-78001904D02*
X153069047Y-77954285D01*
X153069047Y-77954285D02*
X153307142Y-77954285D01*
X153307142Y-77954285D02*
X153402380Y-78001904D01*
X153402380Y-78001904D02*
X153450000Y-78049523D01*
X153450000Y-78049523D02*
X153497619Y-78144761D01*
X153497619Y-78144761D02*
X153497619Y-78430475D01*
X153497619Y-78430475D02*
X153450000Y-78525713D01*
X153450000Y-78525713D02*
X153402380Y-78573332D01*
%TO.C,C2*%
X161502380Y-91686666D02*
X161550000Y-91734285D01*
X161550000Y-91734285D02*
X161597619Y-91877142D01*
X161597619Y-91877142D02*
X161597619Y-91972380D01*
X161597619Y-91972380D02*
X161550000Y-92115237D01*
X161550000Y-92115237D02*
X161454761Y-92210475D01*
X161454761Y-92210475D02*
X161359523Y-92258094D01*
X161359523Y-92258094D02*
X161169047Y-92305713D01*
X161169047Y-92305713D02*
X161026190Y-92305713D01*
X161026190Y-92305713D02*
X160835714Y-92258094D01*
X160835714Y-92258094D02*
X160740476Y-92210475D01*
X160740476Y-92210475D02*
X160645238Y-92115237D01*
X160645238Y-92115237D02*
X160597619Y-91972380D01*
X160597619Y-91972380D02*
X160597619Y-91877142D01*
X160597619Y-91877142D02*
X160645238Y-91734285D01*
X160645238Y-91734285D02*
X160692857Y-91686666D01*
X160692857Y-91305713D02*
X160645238Y-91258094D01*
X160645238Y-91258094D02*
X160597619Y-91162856D01*
X160597619Y-91162856D02*
X160597619Y-90924761D01*
X160597619Y-90924761D02*
X160645238Y-90829523D01*
X160645238Y-90829523D02*
X160692857Y-90781904D01*
X160692857Y-90781904D02*
X160788095Y-90734285D01*
X160788095Y-90734285D02*
X160883333Y-90734285D01*
X160883333Y-90734285D02*
X161026190Y-90781904D01*
X161026190Y-90781904D02*
X161597619Y-91353332D01*
X161597619Y-91353332D02*
X161597619Y-90734285D01*
%TO.C,C1*%
X166838333Y-85457380D02*
X166790714Y-85505000D01*
X166790714Y-85505000D02*
X166647857Y-85552619D01*
X166647857Y-85552619D02*
X166552619Y-85552619D01*
X166552619Y-85552619D02*
X166409762Y-85505000D01*
X166409762Y-85505000D02*
X166314524Y-85409761D01*
X166314524Y-85409761D02*
X166266905Y-85314523D01*
X166266905Y-85314523D02*
X166219286Y-85124047D01*
X166219286Y-85124047D02*
X166219286Y-84981190D01*
X166219286Y-84981190D02*
X166266905Y-84790714D01*
X166266905Y-84790714D02*
X166314524Y-84695476D01*
X166314524Y-84695476D02*
X166409762Y-84600238D01*
X166409762Y-84600238D02*
X166552619Y-84552619D01*
X166552619Y-84552619D02*
X166647857Y-84552619D01*
X166647857Y-84552619D02*
X166790714Y-84600238D01*
X166790714Y-84600238D02*
X166838333Y-84647857D01*
X167790714Y-85552619D02*
X167219286Y-85552619D01*
X167505000Y-85552619D02*
X167505000Y-84552619D01*
X167505000Y-84552619D02*
X167409762Y-84695476D01*
X167409762Y-84695476D02*
X167314524Y-84790714D01*
X167314524Y-84790714D02*
X167219286Y-84838333D01*
D11*
%TO.C,J1010*%
X165560285Y-67203619D02*
X165084095Y-67203619D01*
X165084095Y-67203619D02*
X165036476Y-67679809D01*
X165036476Y-67679809D02*
X165084095Y-67632190D01*
X165084095Y-67632190D02*
X165179333Y-67584571D01*
X165179333Y-67584571D02*
X165417428Y-67584571D01*
X165417428Y-67584571D02*
X165512666Y-67632190D01*
X165512666Y-67632190D02*
X165560285Y-67679809D01*
X165560285Y-67679809D02*
X165607904Y-67775047D01*
X165607904Y-67775047D02*
X165607904Y-68013142D01*
X165607904Y-68013142D02*
X165560285Y-68108380D01*
X165560285Y-68108380D02*
X165512666Y-68156000D01*
X165512666Y-68156000D02*
X165417428Y-68203619D01*
X165417428Y-68203619D02*
X165179333Y-68203619D01*
X165179333Y-68203619D02*
X165084095Y-68156000D01*
X165084095Y-68156000D02*
X165036476Y-68108380D01*
X164718904Y-72013619D02*
X164147476Y-72013619D01*
X164433190Y-72013619D02*
X164433190Y-71013619D01*
X164433190Y-71013619D02*
X164337952Y-71156476D01*
X164337952Y-71156476D02*
X164242714Y-71251714D01*
X164242714Y-71251714D02*
X164147476Y-71299333D01*
X159194476Y-71235857D02*
X159242095Y-71188238D01*
X159242095Y-71188238D02*
X159337333Y-71140619D01*
X159337333Y-71140619D02*
X159575428Y-71140619D01*
X159575428Y-71140619D02*
X159670666Y-71188238D01*
X159670666Y-71188238D02*
X159718285Y-71235857D01*
X159718285Y-71235857D02*
X159765904Y-71331095D01*
X159765904Y-71331095D02*
X159765904Y-71426333D01*
X159765904Y-71426333D02*
X159718285Y-71569190D01*
X159718285Y-71569190D02*
X159146857Y-72140619D01*
X159146857Y-72140619D02*
X159765904Y-72140619D01*
X158781666Y-67076619D02*
X158591190Y-67076619D01*
X158591190Y-67076619D02*
X158495952Y-67124238D01*
X158495952Y-67124238D02*
X158448333Y-67171857D01*
X158448333Y-67171857D02*
X158353095Y-67314714D01*
X158353095Y-67314714D02*
X158305476Y-67505190D01*
X158305476Y-67505190D02*
X158305476Y-67886142D01*
X158305476Y-67886142D02*
X158353095Y-67981380D01*
X158353095Y-67981380D02*
X158400714Y-68029000D01*
X158400714Y-68029000D02*
X158495952Y-68076619D01*
X158495952Y-68076619D02*
X158686428Y-68076619D01*
X158686428Y-68076619D02*
X158781666Y-68029000D01*
X158781666Y-68029000D02*
X158829285Y-67981380D01*
X158829285Y-67981380D02*
X158876904Y-67886142D01*
X158876904Y-67886142D02*
X158876904Y-67648047D01*
X158876904Y-67648047D02*
X158829285Y-67552809D01*
X158829285Y-67552809D02*
X158781666Y-67505190D01*
X158781666Y-67505190D02*
X158686428Y-67457571D01*
X158686428Y-67457571D02*
X158495952Y-67457571D01*
X158495952Y-67457571D02*
X158400714Y-67505190D01*
X158400714Y-67505190D02*
X158353095Y-67552809D01*
X158353095Y-67552809D02*
X158305476Y-67648047D01*
X158400666Y-69441952D02*
X158400666Y-70108619D01*
X158162571Y-69061000D02*
X157924476Y-69775285D01*
X157924476Y-69775285D02*
X158543523Y-69775285D01*
X161163095Y-66185238D02*
X161067857Y-66137619D01*
X161067857Y-66137619D02*
X160925000Y-66137619D01*
X160925000Y-66137619D02*
X160782143Y-66185238D01*
X160782143Y-66185238D02*
X160686905Y-66280476D01*
X160686905Y-66280476D02*
X160639286Y-66375714D01*
X160639286Y-66375714D02*
X160591667Y-66566190D01*
X160591667Y-66566190D02*
X160591667Y-66709047D01*
X160591667Y-66709047D02*
X160639286Y-66899523D01*
X160639286Y-66899523D02*
X160686905Y-66994761D01*
X160686905Y-66994761D02*
X160782143Y-67090000D01*
X160782143Y-67090000D02*
X160925000Y-67137619D01*
X160925000Y-67137619D02*
X161020238Y-67137619D01*
X161020238Y-67137619D02*
X161163095Y-67090000D01*
X161163095Y-67090000D02*
X161210714Y-67042380D01*
X161210714Y-67042380D02*
X161210714Y-66709047D01*
X161210714Y-66709047D02*
X161020238Y-66709047D01*
X161639286Y-67137619D02*
X161639286Y-66137619D01*
X161639286Y-66137619D02*
X162210714Y-67137619D01*
X162210714Y-67137619D02*
X162210714Y-66137619D01*
X162686905Y-67137619D02*
X162686905Y-66137619D01*
X162686905Y-66137619D02*
X162925000Y-66137619D01*
X162925000Y-66137619D02*
X163067857Y-66185238D01*
X163067857Y-66185238D02*
X163163095Y-66280476D01*
X163163095Y-66280476D02*
X163210714Y-66375714D01*
X163210714Y-66375714D02*
X163258333Y-66566190D01*
X163258333Y-66566190D02*
X163258333Y-66709047D01*
X163258333Y-66709047D02*
X163210714Y-66899523D01*
X163210714Y-66899523D02*
X163163095Y-66994761D01*
X163163095Y-66994761D02*
X163067857Y-67090000D01*
X163067857Y-67090000D02*
X162925000Y-67137619D01*
X162925000Y-67137619D02*
X162686905Y-67137619D01*
X165369857Y-69108619D02*
X165988904Y-69108619D01*
X165988904Y-69108619D02*
X165655571Y-69489571D01*
X165655571Y-69489571D02*
X165798428Y-69489571D01*
X165798428Y-69489571D02*
X165893666Y-69537190D01*
X165893666Y-69537190D02*
X165941285Y-69584809D01*
X165941285Y-69584809D02*
X165988904Y-69680047D01*
X165988904Y-69680047D02*
X165988904Y-69918142D01*
X165988904Y-69918142D02*
X165941285Y-70013380D01*
X165941285Y-70013380D02*
X165893666Y-70061000D01*
X165893666Y-70061000D02*
X165798428Y-70108619D01*
X165798428Y-70108619D02*
X165512714Y-70108619D01*
X165512714Y-70108619D02*
X165417476Y-70061000D01*
X165417476Y-70061000D02*
X165369857Y-70013380D01*
%TO.C,J1009*%
X175196476Y-71235857D02*
X175244095Y-71188238D01*
X175244095Y-71188238D02*
X175339333Y-71140619D01*
X175339333Y-71140619D02*
X175577428Y-71140619D01*
X175577428Y-71140619D02*
X175672666Y-71188238D01*
X175672666Y-71188238D02*
X175720285Y-71235857D01*
X175720285Y-71235857D02*
X175767904Y-71331095D01*
X175767904Y-71331095D02*
X175767904Y-71426333D01*
X175767904Y-71426333D02*
X175720285Y-71569190D01*
X175720285Y-71569190D02*
X175148857Y-72140619D01*
X175148857Y-72140619D02*
X175767904Y-72140619D01*
X177434857Y-65892619D02*
X178101523Y-65892619D01*
X178101523Y-65892619D02*
X177672952Y-66892619D01*
X179966666Y-65892619D02*
X179776190Y-65892619D01*
X179776190Y-65892619D02*
X179680952Y-65940238D01*
X179680952Y-65940238D02*
X179633333Y-65987857D01*
X179633333Y-65987857D02*
X179538095Y-66130714D01*
X179538095Y-66130714D02*
X179490476Y-66321190D01*
X179490476Y-66321190D02*
X179490476Y-66702142D01*
X179490476Y-66702142D02*
X179538095Y-66797380D01*
X179538095Y-66797380D02*
X179585714Y-66845000D01*
X179585714Y-66845000D02*
X179680952Y-66892619D01*
X179680952Y-66892619D02*
X179871428Y-66892619D01*
X179871428Y-66892619D02*
X179966666Y-66845000D01*
X179966666Y-66845000D02*
X180014285Y-66797380D01*
X180014285Y-66797380D02*
X180061904Y-66702142D01*
X180061904Y-66702142D02*
X180061904Y-66464047D01*
X180061904Y-66464047D02*
X180014285Y-66368809D01*
X180014285Y-66368809D02*
X179966666Y-66321190D01*
X179966666Y-66321190D02*
X179871428Y-66273571D01*
X179871428Y-66273571D02*
X179680952Y-66273571D01*
X179680952Y-66273571D02*
X179585714Y-66321190D01*
X179585714Y-66321190D02*
X179538095Y-66368809D01*
X179538095Y-66368809D02*
X179490476Y-66464047D01*
X172846904Y-64280238D02*
X172751666Y-64232619D01*
X172751666Y-64232619D02*
X172608809Y-64232619D01*
X172608809Y-64232619D02*
X172465952Y-64280238D01*
X172465952Y-64280238D02*
X172370714Y-64375476D01*
X172370714Y-64375476D02*
X172323095Y-64470714D01*
X172323095Y-64470714D02*
X172275476Y-64661190D01*
X172275476Y-64661190D02*
X172275476Y-64804047D01*
X172275476Y-64804047D02*
X172323095Y-64994523D01*
X172323095Y-64994523D02*
X172370714Y-65089761D01*
X172370714Y-65089761D02*
X172465952Y-65185000D01*
X172465952Y-65185000D02*
X172608809Y-65232619D01*
X172608809Y-65232619D02*
X172704047Y-65232619D01*
X172704047Y-65232619D02*
X172846904Y-65185000D01*
X172846904Y-65185000D02*
X172894523Y-65137380D01*
X172894523Y-65137380D02*
X172894523Y-64804047D01*
X172894523Y-64804047D02*
X172704047Y-64804047D01*
X173323095Y-65232619D02*
X173323095Y-64232619D01*
X173323095Y-64232619D02*
X173894523Y-65232619D01*
X173894523Y-65232619D02*
X173894523Y-64232619D01*
X174370714Y-65232619D02*
X174370714Y-64232619D01*
X174370714Y-64232619D02*
X174608809Y-64232619D01*
X174608809Y-64232619D02*
X174751666Y-64280238D01*
X174751666Y-64280238D02*
X174846904Y-64375476D01*
X174846904Y-64375476D02*
X174894523Y-64470714D01*
X174894523Y-64470714D02*
X174942142Y-64661190D01*
X174942142Y-64661190D02*
X174942142Y-64804047D01*
X174942142Y-64804047D02*
X174894523Y-64994523D01*
X174894523Y-64994523D02*
X174846904Y-65089761D01*
X174846904Y-65089761D02*
X174751666Y-65185000D01*
X174751666Y-65185000D02*
X174608809Y-65232619D01*
X174608809Y-65232619D02*
X174370714Y-65232619D01*
X180593904Y-72140619D02*
X180022476Y-72140619D01*
X180308190Y-72140619D02*
X180308190Y-71140619D01*
X180308190Y-71140619D02*
X180212952Y-71283476D01*
X180212952Y-71283476D02*
X180117714Y-71378714D01*
X180117714Y-71378714D02*
X180022476Y-71426333D01*
X181244857Y-69235619D02*
X181863904Y-69235619D01*
X181863904Y-69235619D02*
X181530571Y-69616571D01*
X181530571Y-69616571D02*
X181673428Y-69616571D01*
X181673428Y-69616571D02*
X181768666Y-69664190D01*
X181768666Y-69664190D02*
X181816285Y-69711809D01*
X181816285Y-69711809D02*
X181863904Y-69807047D01*
X181863904Y-69807047D02*
X181863904Y-70045142D01*
X181863904Y-70045142D02*
X181816285Y-70140380D01*
X181816285Y-70140380D02*
X181768666Y-70188000D01*
X181768666Y-70188000D02*
X181673428Y-70235619D01*
X181673428Y-70235619D02*
X181387714Y-70235619D01*
X181387714Y-70235619D02*
X181292476Y-70188000D01*
X181292476Y-70188000D02*
X181244857Y-70140380D01*
X175680952Y-66321190D02*
X175585714Y-66273571D01*
X175585714Y-66273571D02*
X175538095Y-66225952D01*
X175538095Y-66225952D02*
X175490476Y-66130714D01*
X175490476Y-66130714D02*
X175490476Y-66083095D01*
X175490476Y-66083095D02*
X175538095Y-65987857D01*
X175538095Y-65987857D02*
X175585714Y-65940238D01*
X175585714Y-65940238D02*
X175680952Y-65892619D01*
X175680952Y-65892619D02*
X175871428Y-65892619D01*
X175871428Y-65892619D02*
X175966666Y-65940238D01*
X175966666Y-65940238D02*
X176014285Y-65987857D01*
X176014285Y-65987857D02*
X176061904Y-66083095D01*
X176061904Y-66083095D02*
X176061904Y-66130714D01*
X176061904Y-66130714D02*
X176014285Y-66225952D01*
X176014285Y-66225952D02*
X175966666Y-66273571D01*
X175966666Y-66273571D02*
X175871428Y-66321190D01*
X175871428Y-66321190D02*
X175680952Y-66321190D01*
X175680952Y-66321190D02*
X175585714Y-66368809D01*
X175585714Y-66368809D02*
X175538095Y-66416428D01*
X175538095Y-66416428D02*
X175490476Y-66511666D01*
X175490476Y-66511666D02*
X175490476Y-66702142D01*
X175490476Y-66702142D02*
X175538095Y-66797380D01*
X175538095Y-66797380D02*
X175585714Y-66845000D01*
X175585714Y-66845000D02*
X175680952Y-66892619D01*
X175680952Y-66892619D02*
X175871428Y-66892619D01*
X175871428Y-66892619D02*
X175966666Y-66845000D01*
X175966666Y-66845000D02*
X176014285Y-66797380D01*
X176014285Y-66797380D02*
X176061904Y-66702142D01*
X176061904Y-66702142D02*
X176061904Y-66511666D01*
X176061904Y-66511666D02*
X176014285Y-66416428D01*
X176014285Y-66416428D02*
X175966666Y-66368809D01*
X175966666Y-66368809D02*
X175871428Y-66321190D01*
X177196666Y-69568952D02*
X177196666Y-70235619D01*
X176958571Y-69188000D02*
X176720476Y-69902285D01*
X176720476Y-69902285D02*
X177339523Y-69902285D01*
X174323285Y-69235619D02*
X173847095Y-69235619D01*
X173847095Y-69235619D02*
X173799476Y-69711809D01*
X173799476Y-69711809D02*
X173847095Y-69664190D01*
X173847095Y-69664190D02*
X173942333Y-69616571D01*
X173942333Y-69616571D02*
X174180428Y-69616571D01*
X174180428Y-69616571D02*
X174275666Y-69664190D01*
X174275666Y-69664190D02*
X174323285Y-69711809D01*
X174323285Y-69711809D02*
X174370904Y-69807047D01*
X174370904Y-69807047D02*
X174370904Y-70045142D01*
X174370904Y-70045142D02*
X174323285Y-70140380D01*
X174323285Y-70140380D02*
X174275666Y-70188000D01*
X174275666Y-70188000D02*
X174180428Y-70235619D01*
X174180428Y-70235619D02*
X173942333Y-70235619D01*
X173942333Y-70235619D02*
X173847095Y-70188000D01*
X173847095Y-70188000D02*
X173799476Y-70140380D01*
D10*
%TO.C,U1*%
X129778095Y-90902619D02*
X129778095Y-91712142D01*
X129778095Y-91712142D02*
X129825714Y-91807380D01*
X129825714Y-91807380D02*
X129873333Y-91855000D01*
X129873333Y-91855000D02*
X129968571Y-91902619D01*
X129968571Y-91902619D02*
X130159047Y-91902619D01*
X130159047Y-91902619D02*
X130254285Y-91855000D01*
X130254285Y-91855000D02*
X130301904Y-91807380D01*
X130301904Y-91807380D02*
X130349523Y-91712142D01*
X130349523Y-91712142D02*
X130349523Y-90902619D01*
X131349523Y-91902619D02*
X130778095Y-91902619D01*
X131063809Y-91902619D02*
X131063809Y-90902619D01*
X131063809Y-90902619D02*
X130968571Y-91045476D01*
X130968571Y-91045476D02*
X130873333Y-91140714D01*
X130873333Y-91140714D02*
X130778095Y-91188333D01*
D12*
X132669285Y-90835446D02*
X132669285Y-91639017D01*
X132669285Y-91639017D02*
X132615714Y-91799732D01*
X132615714Y-91799732D02*
X132508571Y-91906875D01*
X132508571Y-91906875D02*
X132347857Y-91960446D01*
X132347857Y-91960446D02*
X132240714Y-91960446D01*
X133205000Y-91960446D02*
X133205000Y-90835446D01*
X133205000Y-90835446D02*
X133472857Y-90835446D01*
X133472857Y-90835446D02*
X133633571Y-90889017D01*
X133633571Y-90889017D02*
X133740714Y-90996160D01*
X133740714Y-90996160D02*
X133794285Y-91103303D01*
X133794285Y-91103303D02*
X133847857Y-91317589D01*
X133847857Y-91317589D02*
X133847857Y-91478303D01*
X133847857Y-91478303D02*
X133794285Y-91692589D01*
X133794285Y-91692589D02*
X133740714Y-91799732D01*
X133740714Y-91799732D02*
X133633571Y-91906875D01*
X133633571Y-91906875D02*
X133472857Y-91960446D01*
X133472857Y-91960446D02*
X133205000Y-91960446D01*
X134544285Y-91424732D02*
X134544285Y-91960446D01*
X134169285Y-90835446D02*
X134544285Y-91424732D01*
X134544285Y-91424732D02*
X134919285Y-90835446D01*
X135294286Y-91531875D02*
X136151429Y-91531875D01*
X137169286Y-90835446D02*
X136955000Y-90835446D01*
X136955000Y-90835446D02*
X136847857Y-90889017D01*
X136847857Y-90889017D02*
X136794286Y-90942589D01*
X136794286Y-90942589D02*
X136687143Y-91103303D01*
X136687143Y-91103303D02*
X136633571Y-91317589D01*
X136633571Y-91317589D02*
X136633571Y-91746160D01*
X136633571Y-91746160D02*
X136687143Y-91853303D01*
X136687143Y-91853303D02*
X136740714Y-91906875D01*
X136740714Y-91906875D02*
X136847857Y-91960446D01*
X136847857Y-91960446D02*
X137062143Y-91960446D01*
X137062143Y-91960446D02*
X137169286Y-91906875D01*
X137169286Y-91906875D02*
X137222857Y-91853303D01*
X137222857Y-91853303D02*
X137276428Y-91746160D01*
X137276428Y-91746160D02*
X137276428Y-91478303D01*
X137276428Y-91478303D02*
X137222857Y-91371160D01*
X137222857Y-91371160D02*
X137169286Y-91317589D01*
X137169286Y-91317589D02*
X137062143Y-91264017D01*
X137062143Y-91264017D02*
X136847857Y-91264017D01*
X136847857Y-91264017D02*
X136740714Y-91317589D01*
X136740714Y-91317589D02*
X136687143Y-91371160D01*
X136687143Y-91371160D02*
X136633571Y-91478303D01*
X137651429Y-90835446D02*
X138401429Y-90835446D01*
X138401429Y-90835446D02*
X137919286Y-91960446D01*
D13*
%TO.C,U2*%
X170470000Y-94215000D02*
X164460000Y-94215000D01*
X168220000Y-87395000D02*
X164460000Y-87395000D01*
X164460000Y-87395000D02*
X164460000Y-88655000D01*
X164460000Y-94215000D02*
X164460000Y-92955000D01*
%TO.C,R12*%
X169645000Y-72520436D02*
X169645000Y-72974564D01*
X168175000Y-72520436D02*
X168175000Y-72974564D01*
%TO.C,R11*%
X170080000Y-72974564D02*
X170080000Y-72520436D01*
X171550000Y-72974564D02*
X171550000Y-72520436D01*
%TO.C,R10*%
X177900000Y-77062064D02*
X177900000Y-76607936D01*
X176430000Y-77062064D02*
X176430000Y-76607936D01*
%TO.C,R9*%
X134520000Y-76149564D02*
X134520000Y-75695436D01*
X135990000Y-76149564D02*
X135990000Y-75695436D01*
%TO.C,R8*%
X149760000Y-81864564D02*
X149760000Y-81410436D01*
X151230000Y-81864564D02*
X151230000Y-81410436D01*
%TO.C,R7*%
X124560000Y-77520436D02*
X124560000Y-77974564D01*
X123090000Y-77520436D02*
X123090000Y-77974564D01*
%TO.C,R6*%
X170310436Y-81815000D02*
X170764564Y-81815000D01*
X170310436Y-83285000D02*
X170764564Y-83285000D01*
%TO.C,R5*%
X147220000Y-81864564D02*
X147220000Y-81410436D01*
X148690000Y-81864564D02*
X148690000Y-81410436D01*
%TO.C,R4*%
X148640436Y-86895000D02*
X149094564Y-86895000D01*
X148640436Y-88365000D02*
X149094564Y-88365000D01*
%TO.C,R3*%
X148720436Y-84355000D02*
X149174564Y-84355000D01*
X148720436Y-85825000D02*
X149174564Y-85825000D01*
%TO.C,R2*%
X129640000Y-77520436D02*
X129640000Y-77974564D01*
X128170000Y-77520436D02*
X128170000Y-77974564D01*
%TO.C,R1*%
X127100000Y-77520436D02*
X127100000Y-77974564D01*
X125630000Y-77520436D02*
X125630000Y-77974564D01*
%TO.C,Q2*%
X175865000Y-76967500D02*
X175865000Y-76167500D01*
X175865000Y-76967500D02*
X175865000Y-77767500D01*
X172745000Y-76967500D02*
X172745000Y-76167500D01*
X172745000Y-76967500D02*
X172745000Y-78767500D01*
%TO.C,Q1*%
X172060000Y-76967500D02*
X172060000Y-76167500D01*
X172060000Y-76967500D02*
X172060000Y-77767500D01*
X168940000Y-76967500D02*
X168940000Y-76167500D01*
X168940000Y-76967500D02*
X168940000Y-78767500D01*
%TO.C,L3*%
X173915000Y-80869758D02*
X173915000Y-81690242D01*
X172795000Y-80869758D02*
X172795000Y-81690242D01*
%TO.C,L2*%
X153960242Y-88190000D02*
X153139758Y-88190000D01*
X153960242Y-87070000D02*
X153139758Y-87070000D01*
%TO.C,L1*%
X153960242Y-85650000D02*
X153139758Y-85650000D01*
X153960242Y-84530000D02*
X153139758Y-84530000D01*
%TO.C,D2*%
X127945000Y-71037500D02*
X127945000Y-73722500D01*
X129865000Y-71037500D02*
X127945000Y-71037500D01*
X129865000Y-73722500D02*
X129865000Y-71037500D01*
%TO.C,D1*%
X125405000Y-71037500D02*
X125405000Y-73722500D01*
X127325000Y-71037500D02*
X125405000Y-71037500D01*
X127325000Y-73722500D02*
X127325000Y-71037500D01*
%TO.C,C8*%
X165635000Y-75303748D02*
X165635000Y-75826252D01*
X167105000Y-75303748D02*
X167105000Y-75826252D01*
%TO.C,C7*%
X170761252Y-79275000D02*
X170238748Y-79275000D01*
X170761252Y-80745000D02*
X170238748Y-80745000D01*
%TO.C,C6*%
X144045000Y-92310748D02*
X144045000Y-92833252D01*
X145515000Y-92310748D02*
X145515000Y-92833252D01*
%TO.C,C5*%
X138371252Y-78005000D02*
X137848748Y-78005000D01*
X138371252Y-79475000D02*
X137848748Y-79475000D01*
%TO.C,C4*%
X132133748Y-79475000D02*
X132656252Y-79475000D01*
X132133748Y-78005000D02*
X132656252Y-78005000D01*
%TO.C,C3*%
X152300000Y-81338748D02*
X152300000Y-81861252D01*
X153770000Y-81338748D02*
X153770000Y-81861252D01*
%TO.C,C2*%
X160320000Y-89210000D02*
X158450000Y-89210000D01*
X158450000Y-89210000D02*
X158450000Y-93120000D01*
X160320000Y-93120000D02*
X160320000Y-89210000D01*
%TO.C,C1*%
X168425000Y-84155000D02*
X168425000Y-86025000D01*
X168425000Y-86025000D02*
X172335000Y-86025000D01*
X172335000Y-84155000D02*
X168425000Y-84155000D01*
D14*
%TO.C,J1010*%
X159725000Y-65015002D02*
G75*
G03*
X164125000Y-65015002I2200000J-4199998D01*
G01*
%TO.C,J1009*%
X175600000Y-65015002D02*
G75*
G03*
X180000000Y-65015002I2200000J-4199998D01*
G01*
D11*
%TO.C,U1*%
X122421000Y-93699000D02*
X122421000Y-80822000D01*
D15*
X143385000Y-93699000D02*
X116385000Y-93699000D01*
D16*
X117385000Y-92022000D02*
X118785000Y-92022000D01*
X118785000Y-92022000D02*
X118785000Y-82622000D01*
X120185000Y-92022000D02*
X122185000Y-92022000D01*
X118785000Y-82622000D02*
X120185000Y-82622000D01*
X120185000Y-82622000D02*
X120185000Y-92022000D01*
X117385000Y-81222000D02*
X117385000Y-92022000D01*
D15*
X116385000Y-80822000D02*
X116385000Y-93699000D01*
X116385000Y-80822000D02*
X143385000Y-80822000D01*
X143385000Y-80822000D02*
X143385000Y-93699000D01*
X143385000Y-80822000D02*
X116385000Y-80822000D01*
X143385000Y-80822000D02*
X116385000Y-80822000D01*
D11*
X143185000Y-92340000D02*
G75*
G03*
X143185000Y-92340000I-600000J0D01*
G01*
X143185000Y-89800000D02*
G75*
G03*
X143185000Y-89800000I-600000J0D01*
G01*
X143185000Y-87260000D02*
G75*
G03*
X143185000Y-87260000I-600000J0D01*
G01*
X143185000Y-84720000D02*
G75*
G03*
X143185000Y-84720000I-600000J0D01*
G01*
X143185000Y-82180000D02*
G75*
G03*
X143185000Y-82180000I-600000J0D01*
G01*
%TD*%
M02*
