%TF.GenerationSoftware,KiCad,Pcbnew,7.0.1-0*%
%TF.CreationDate,2024-01-20T22:02:02+08:00*%
%TF.ProjectId,FT817-BT-JDY67,46543831-372d-4425-942d-4a445936372e,20230609*%
%TF.SameCoordinates,Original*%
%TF.FileFunction,Copper,L2,Bot*%
%TF.FilePolarity,Positive*%
%FSLAX46Y46*%
G04 Gerber Fmt 4.6, Leading zero omitted, Abs format (unit mm)*
G04 Created by KiCad (PCBNEW 7.0.1-0) date 2024-01-20 22:02:02*
%MOMM*%
%LPD*%
G01*
G04 APERTURE LIST*
G04 Aperture macros list*
%AMRoundRect*
0 Rectangle with rounded corners*
0 $1 Rounding radius*
0 $2 $3 $4 $5 $6 $7 $8 $9 X,Y pos of 4 corners*
0 Add a 4 corners polygon primitive as box body*
4,1,4,$2,$3,$4,$5,$6,$7,$8,$9,$2,$3,0*
0 Add four circle primitives for the rounded corners*
1,1,$1+$1,$2,$3*
1,1,$1+$1,$4,$5*
1,1,$1+$1,$6,$7*
1,1,$1+$1,$8,$9*
0 Add four rect primitives between the rounded corners*
20,1,$1+$1,$2,$3,$4,$5,0*
20,1,$1+$1,$4,$5,$6,$7,0*
20,1,$1+$1,$6,$7,$8,$9,0*
20,1,$1+$1,$8,$9,$2,$3,0*%
G04 Aperture macros list end*
%TA.AperFunction,ComponentPad*%
%ADD10R,1.600000X1.300000*%
%TD*%
%TA.AperFunction,ComponentPad*%
%ADD11O,1.600000X1.300000*%
%TD*%
%TA.AperFunction,ComponentPad*%
%ADD12O,4.000000X1.800000*%
%TD*%
%TA.AperFunction,ComponentPad*%
%ADD13C,10.000000*%
%TD*%
%TA.AperFunction,ConnectorPad*%
%ADD14RoundRect,0.508000X-4.572000X-4.572000X4.572000X-4.572000X4.572000X4.572000X-4.572000X4.572000X0*%
%TD*%
%TA.AperFunction,ComponentPad*%
%ADD15C,3.100000*%
%TD*%
%TA.AperFunction,ConnectorPad*%
%ADD16C,4.700000*%
%TD*%
%TA.AperFunction,ViaPad*%
%ADD17C,0.800000*%
%TD*%
%TA.AperFunction,Conductor*%
%ADD18C,0.200000*%
%TD*%
G04 APERTURE END LIST*
D10*
%TO.P,J1010,1*%
%TO.N,DATA IN*%
X162925000Y-71615000D03*
D11*
%TO.P,J1010,2*%
%TO.N,GND*%
X160925000Y-71615000D03*
%TO.P,J1010,3*%
%TO.N,PTT*%
X164425000Y-69615000D03*
%TO.P,J1010,4*%
%TO.N,DATA OUT 9600bps*%
X159425000Y-69615000D03*
%TO.P,J1010,5*%
%TO.N,DATA OUT 1200bps*%
X163925000Y-67615000D03*
%TO.P,J1010,6*%
%TO.N,SQL*%
X159925000Y-67615000D03*
D12*
%TO.P,J1010,7,GND*%
%TO.N,GND*%
X161925000Y-64815000D03*
%TD*%
D10*
%TO.P,J1009,1*%
%TO.N,+13.8V*%
X178800000Y-71615000D03*
D11*
%TO.P,J1009,2*%
%TO.N,TX GND*%
X176800000Y-71615000D03*
%TO.P,J1009,3*%
%TO.N,GND*%
X180300000Y-69615000D03*
%TO.P,J1009,4*%
%TO.N,TX D*%
X178300000Y-69615000D03*
%TO.P,J1009,5*%
%TO.N,RX D*%
X175300000Y-69615000D03*
%TO.P,J1009,6*%
%TO.N,BAND DATA*%
X179800000Y-67615000D03*
%TO.P,J1009,7*%
%TO.N,ALC*%
X177800000Y-67615000D03*
%TO.P,J1009,8*%
%TO.N,TX INH*%
X175800000Y-67615000D03*
D12*
%TO.P,J1009,9,GND*%
%TO.N,GND*%
X177800000Y-64815000D03*
%TD*%
D13*
%TO.P,H3,1,1*%
%TO.N,GND*%
X97155000Y-88900000D03*
D14*
X97155000Y-88900000D03*
%TD*%
D15*
%TO.P,H2,1,1*%
%TO.N,GND*%
X152400000Y-93980000D03*
D16*
X152400000Y-93980000D03*
%TD*%
D15*
%TO.P,H1,1,1*%
%TO.N,GND*%
X134620000Y-66040000D03*
D16*
X134620000Y-66040000D03*
%TD*%
D17*
%TO.N,Net-(U1-TXD)*%
X146685000Y-85090000D03*
X123502000Y-92252000D03*
%TO.N,Net-(U1-RXD)*%
X125095000Y-92252000D03*
X146685000Y-87630000D03*
%TO.N,TX D*%
X156210000Y-87630000D03*
%TO.N,RX D*%
X156210000Y-85090000D03*
%TO.N,PTT*%
X167640000Y-71120000D03*
%TO.N,GND*%
X151130000Y-86360000D03*
X141605000Y-88900000D03*
X129540000Y-88900000D03*
X133350000Y-95250000D03*
X123825000Y-67945000D03*
X164465000Y-78105000D03*
X156210000Y-91440000D03*
X154305000Y-88900000D03*
X123825000Y-82550000D03*
X156210000Y-71755000D03*
X166370000Y-80010000D03*
X138430000Y-64770000D03*
X139065000Y-88900000D03*
X182245000Y-66675000D03*
X154940000Y-80010000D03*
X144780000Y-95427000D03*
X138430000Y-83820000D03*
X158750000Y-77470000D03*
X127635000Y-87630000D03*
X151130000Y-88900000D03*
X135255000Y-81280000D03*
X161925000Y-69215000D03*
X161925000Y-80645000D03*
X140335000Y-78740000D03*
X128270000Y-84455000D03*
X161290000Y-85090000D03*
X168275000Y-64770000D03*
X137160000Y-86360000D03*
X126365000Y-82550000D03*
X123825000Y-64135000D03*
X132715000Y-81280000D03*
X127000000Y-95250000D03*
X127000000Y-64135000D03*
X158115000Y-81280000D03*
X151765000Y-76835000D03*
X144780000Y-88900000D03*
X138430000Y-67945000D03*
X173355000Y-88900000D03*
X163195000Y-76200000D03*
X154305000Y-74930000D03*
X171450000Y-64770000D03*
X137795000Y-81280000D03*
X148590000Y-89470500D03*
X125095000Y-90170000D03*
X135890000Y-88900000D03*
X182880000Y-69215000D03*
X161925000Y-74295000D03*
X123825000Y-88900000D03*
X130175000Y-86360000D03*
X126365000Y-86360000D03*
X167005000Y-85725000D03*
X156845000Y-88900000D03*
X123825000Y-85725000D03*
X165735000Y-73660000D03*
X123825000Y-71755000D03*
X163830000Y-82550000D03*
X151130000Y-83820000D03*
X127635000Y-90805000D03*
X159385000Y-83185000D03*
X132080000Y-83820000D03*
X140335000Y-81280000D03*
X156210000Y-64770000D03*
X135255000Y-83820000D03*
X159385000Y-94615000D03*
X177165000Y-80645000D03*
X144780000Y-86360000D03*
X182245000Y-71755000D03*
X133985000Y-86360000D03*
X139700000Y-91440000D03*
X131445000Y-71755000D03*
X140335000Y-86360000D03*
X142875000Y-76835000D03*
X147320000Y-77470000D03*
X146685000Y-86360000D03*
X132080000Y-88900000D03*
X175260000Y-85090000D03*
X123190000Y-95250000D03*
X180340000Y-74930000D03*
X130175000Y-64135000D03*
X148590000Y-91440000D03*
X138430000Y-95250000D03*
X138430000Y-71755000D03*
X156210000Y-67945000D03*
X160655000Y-78740000D03*
X130810000Y-76835000D03*
X141605000Y-83820000D03*
X144780000Y-83820000D03*
X140335000Y-74930000D03*
%TD*%
D18*
%TO.N,Net-(U1-TXD)*%
X123502000Y-90493000D02*
X123502000Y-92252000D01*
X146685000Y-85090000D02*
X128905000Y-85090000D01*
X128905000Y-85090000D02*
X123502000Y-90493000D01*
%TO.N,Net-(U1-RXD)*%
X125095000Y-91440000D02*
X125095000Y-92252000D01*
X146685000Y-87630000D02*
X128905000Y-87630000D01*
X128905000Y-87630000D02*
X125095000Y-91440000D01*
%TO.N,TX D*%
X173629950Y-70565000D02*
X177085000Y-70565000D01*
X156564950Y-87630000D02*
X173629950Y-70565000D01*
X177085000Y-70565000D02*
X178035000Y-69615000D01*
X156210000Y-87630000D02*
X156564950Y-87630000D01*
%TO.N,RX D*%
X171685000Y-69615000D02*
X174870000Y-69615000D01*
X156210000Y-85090000D02*
X171685000Y-69615000D01*
%TO.N,PTT*%
X166135000Y-69615000D02*
X164425000Y-69615000D01*
X167640000Y-71120000D02*
X166135000Y-69615000D01*
%TD*%
%TA.AperFunction,Conductor*%
%TO.N,GND*%
G36*
X133858645Y-63379611D02*
G01*
X133903019Y-63418732D01*
X133924218Y-63473959D01*
X133917419Y-63532723D01*
X133884168Y-63581650D01*
X133837514Y-63606664D01*
X133837702Y-63607139D01*
X133833605Y-63608761D01*
X133832033Y-63609604D01*
X133830448Y-63610010D01*
X133532117Y-63728128D01*
X133250939Y-63882706D01*
X132999176Y-64065622D01*
X132999175Y-64065623D01*
X134620000Y-65686447D01*
X134620001Y-65686447D01*
X136240823Y-64065623D01*
X136240822Y-64065621D01*
X135989060Y-63882706D01*
X135707882Y-63728128D01*
X135409551Y-63610010D01*
X135407967Y-63609604D01*
X135406394Y-63608761D01*
X135402298Y-63607139D01*
X135402485Y-63606664D01*
X135355832Y-63581650D01*
X135322581Y-63532723D01*
X135315782Y-63473959D01*
X135336981Y-63418732D01*
X135381355Y-63379611D01*
X135438804Y-63365500D01*
X138364108Y-63365500D01*
X138425125Y-63365500D01*
X138434853Y-63365881D01*
X138639988Y-63382026D01*
X138659197Y-63385069D01*
X138854531Y-63431964D01*
X138873024Y-63437973D01*
X138997422Y-63489500D01*
X139058615Y-63514847D01*
X139075952Y-63523681D01*
X139247221Y-63628636D01*
X139262962Y-63640073D01*
X139415709Y-63770531D01*
X139429468Y-63784290D01*
X139559926Y-63937037D01*
X139571363Y-63952778D01*
X139676318Y-64124047D01*
X139685152Y-64141384D01*
X139762024Y-64326969D01*
X139768037Y-64345475D01*
X139814929Y-64540797D01*
X139817973Y-64560015D01*
X139834118Y-64765146D01*
X139834500Y-64774875D01*
X139834500Y-69482346D01*
X139872643Y-70015670D01*
X139948738Y-70544927D01*
X140062394Y-71067391D01*
X140213034Y-71580423D01*
X140399892Y-72081410D01*
X140622005Y-72567770D01*
X140878262Y-73037068D01*
X141167331Y-73486869D01*
X141487757Y-73914908D01*
X141837915Y-74319012D01*
X142215987Y-74697084D01*
X142215994Y-74697090D01*
X142618215Y-75045617D01*
X142620091Y-75047242D01*
X143048130Y-75367668D01*
X143497931Y-75656737D01*
X143967229Y-75912994D01*
X144453589Y-76135107D01*
X144453596Y-76135109D01*
X144453597Y-76135110D01*
X144954575Y-76321965D01*
X145467607Y-76472605D01*
X145685021Y-76519900D01*
X145990072Y-76586261D01*
X145990076Y-76586261D01*
X145990078Y-76586262D01*
X146519326Y-76662356D01*
X146919322Y-76690964D01*
X147052654Y-76700500D01*
X147052655Y-76700500D01*
X147587345Y-76700500D01*
X147587346Y-76700500D01*
X147717140Y-76691217D01*
X148120674Y-76662356D01*
X148649922Y-76586262D01*
X149172393Y-76472605D01*
X149685425Y-76321965D01*
X150186403Y-76135110D01*
X150186410Y-76135107D01*
X150672770Y-75912994D01*
X150827967Y-75828250D01*
X151142062Y-75656741D01*
X151591872Y-75367666D01*
X152019914Y-75047238D01*
X152424006Y-74697090D01*
X152802090Y-74319006D01*
X153152238Y-73914914D01*
X153472666Y-73486872D01*
X153761741Y-73037062D01*
X154017991Y-72567775D01*
X154017994Y-72567770D01*
X154240107Y-72081410D01*
X154240110Y-72081403D01*
X154320824Y-71865000D01*
X159962258Y-71865000D01*
X159980714Y-71931472D01*
X160067314Y-72094820D01*
X160187012Y-72235737D01*
X160334195Y-72347624D01*
X160501990Y-72425254D01*
X160675000Y-72463337D01*
X160675000Y-72459136D01*
X161175000Y-72459136D01*
X161258801Y-72450022D01*
X161434009Y-72390988D01*
X161592428Y-72295670D01*
X161715225Y-72179352D01*
X161764746Y-72150643D01*
X161821885Y-72147234D01*
X161874468Y-72169853D01*
X161911288Y-72213680D01*
X161924500Y-72269376D01*
X161924500Y-72284749D01*
X161936132Y-72343230D01*
X161980447Y-72409552D01*
X162046769Y-72453867D01*
X162105251Y-72465500D01*
X162105252Y-72465500D01*
X163744748Y-72465500D01*
X163744749Y-72465500D01*
X163776742Y-72459136D01*
X163803231Y-72453867D01*
X163869552Y-72409552D01*
X163913867Y-72343231D01*
X163923248Y-72296069D01*
X163925500Y-72284749D01*
X163925500Y-70945251D01*
X163913867Y-70886769D01*
X163869552Y-70820447D01*
X163803230Y-70776132D01*
X163744749Y-70764500D01*
X163744748Y-70764500D01*
X162105252Y-70764500D01*
X162105251Y-70764500D01*
X162046769Y-70776132D01*
X161980447Y-70820447D01*
X161936132Y-70886769D01*
X161924500Y-70945251D01*
X161924500Y-70964614D01*
X161910056Y-71022697D01*
X161870087Y-71067247D01*
X161813907Y-71087887D01*
X161754603Y-71079807D01*
X161705992Y-71044890D01*
X161662989Y-70994264D01*
X161515804Y-70882375D01*
X161348009Y-70804745D01*
X161175000Y-70766663D01*
X161175000Y-72459136D01*
X160675000Y-72459136D01*
X160675000Y-71865000D01*
X159962258Y-71865000D01*
X154320824Y-71865000D01*
X154426965Y-71580425D01*
X154490220Y-71364999D01*
X159959624Y-71364999D01*
X159959625Y-71365000D01*
X160675000Y-71365000D01*
X160675000Y-70770863D01*
X160591198Y-70779977D01*
X160415990Y-70839011D01*
X160257568Y-70934330D01*
X160123344Y-71061475D01*
X160019586Y-71214507D01*
X159959624Y-71364999D01*
X154490220Y-71364999D01*
X154577605Y-71067393D01*
X154691262Y-70544922D01*
X154767356Y-70015674D01*
X154799325Y-69568685D01*
X158420740Y-69568685D01*
X158430754Y-69753407D01*
X158480245Y-69931658D01*
X158566899Y-70095103D01*
X158686663Y-70236100D01*
X158833936Y-70348055D01*
X159001830Y-70425731D01*
X159001831Y-70425731D01*
X159001833Y-70425732D01*
X159182503Y-70465500D01*
X159621113Y-70465500D01*
X159621115Y-70465500D01*
X159704080Y-70456477D01*
X159758910Y-70450514D01*
X159934221Y-70391444D01*
X160092736Y-70296070D01*
X160227041Y-70168849D01*
X160330858Y-70015730D01*
X160399331Y-69843875D01*
X160429260Y-69661317D01*
X160424238Y-69568685D01*
X163420740Y-69568685D01*
X163430754Y-69753407D01*
X163480245Y-69931658D01*
X163566899Y-70095103D01*
X163686663Y-70236100D01*
X163833936Y-70348055D01*
X164001830Y-70425731D01*
X164001831Y-70425731D01*
X164001833Y-70425732D01*
X164182503Y-70465500D01*
X164621113Y-70465500D01*
X164621115Y-70465500D01*
X164704080Y-70456477D01*
X164758910Y-70450514D01*
X164934221Y-70391444D01*
X165092736Y-70296070D01*
X165227041Y-70168849D01*
X165330858Y-70015730D01*
X165339675Y-69993602D01*
X165366399Y-69952614D01*
X165406899Y-69925154D01*
X165454868Y-69915500D01*
X165959167Y-69915500D01*
X166006620Y-69924939D01*
X166046848Y-69951819D01*
X167012101Y-70917072D01*
X167041839Y-70964894D01*
X167047359Y-71020938D01*
X167034317Y-71119999D01*
X167054956Y-71276762D01*
X167115463Y-71422840D01*
X167211717Y-71548282D01*
X167329966Y-71639017D01*
X167337159Y-71644536D01*
X167483238Y-71705044D01*
X167640000Y-71725682D01*
X167796762Y-71705044D01*
X167942841Y-71644536D01*
X168068282Y-71548282D01*
X168164536Y-71422841D01*
X168225044Y-71276762D01*
X168245682Y-71120000D01*
X168225044Y-70963238D01*
X168164536Y-70817159D01*
X168068282Y-70691717D01*
X167942840Y-70595463D01*
X167796762Y-70534956D01*
X167639999Y-70514317D01*
X167540939Y-70527359D01*
X167484895Y-70521839D01*
X167437073Y-70492101D01*
X166396450Y-69451479D01*
X166386497Y-69437645D01*
X166344681Y-69399524D01*
X166340540Y-69395569D01*
X166327110Y-69382139D01*
X166315678Y-69373083D01*
X166295934Y-69355084D01*
X166289468Y-69352579D01*
X166264192Y-69339256D01*
X166258481Y-69335344D01*
X166258480Y-69335343D01*
X166258478Y-69335342D01*
X166232484Y-69329228D01*
X166216087Y-69324151D01*
X166191173Y-69314500D01*
X166184249Y-69314500D01*
X166155859Y-69311206D01*
X166149119Y-69309621D01*
X166149118Y-69309621D01*
X166137757Y-69311206D01*
X166122666Y-69313311D01*
X166105535Y-69314500D01*
X165452929Y-69314500D01*
X165389001Y-69296750D01*
X165343374Y-69248583D01*
X165283100Y-69134896D01*
X165163336Y-68993899D01*
X165016063Y-68881944D01*
X164848169Y-68804268D01*
X164667497Y-68764500D01*
X164228887Y-68764500D01*
X164228885Y-68764500D01*
X164091091Y-68779485D01*
X163915779Y-68838556D01*
X163757262Y-68933931D01*
X163622960Y-69061149D01*
X163519140Y-69214272D01*
X163450669Y-69386121D01*
X163435837Y-69476593D01*
X163421701Y-69562825D01*
X163420740Y-69568685D01*
X160424238Y-69568685D01*
X160419245Y-69476593D01*
X160393934Y-69385432D01*
X160369754Y-69298341D01*
X160283100Y-69134896D01*
X160163336Y-68993899D01*
X160016063Y-68881944D01*
X159848169Y-68804268D01*
X159667497Y-68764500D01*
X159228887Y-68764500D01*
X159228885Y-68764500D01*
X159091091Y-68779485D01*
X158915779Y-68838556D01*
X158757262Y-68933931D01*
X158622960Y-69061149D01*
X158519140Y-69214272D01*
X158450669Y-69386121D01*
X158435837Y-69476593D01*
X158421701Y-69562825D01*
X158420740Y-69568685D01*
X154799325Y-69568685D01*
X154805500Y-69482345D01*
X154805500Y-69215000D01*
X154805500Y-69149108D01*
X154805500Y-67568685D01*
X158920740Y-67568685D01*
X158930754Y-67753407D01*
X158980245Y-67931658D01*
X159066899Y-68095103D01*
X159186663Y-68236100D01*
X159333936Y-68348055D01*
X159501830Y-68425731D01*
X159501831Y-68425731D01*
X159501833Y-68425732D01*
X159682503Y-68465500D01*
X160121113Y-68465500D01*
X160121115Y-68465500D01*
X160190011Y-68458007D01*
X160258910Y-68450514D01*
X160434221Y-68391444D01*
X160592736Y-68296070D01*
X160727041Y-68168849D01*
X160830858Y-68015730D01*
X160899331Y-67843875D01*
X160929260Y-67661317D01*
X160924238Y-67568685D01*
X162920740Y-67568685D01*
X162930754Y-67753407D01*
X162980245Y-67931658D01*
X163066899Y-68095103D01*
X163186663Y-68236100D01*
X163333936Y-68348055D01*
X163501830Y-68425731D01*
X163501831Y-68425731D01*
X163501833Y-68425732D01*
X163682503Y-68465500D01*
X164121113Y-68465500D01*
X164121115Y-68465500D01*
X164190011Y-68458007D01*
X164258910Y-68450514D01*
X164434221Y-68391444D01*
X164592736Y-68296070D01*
X164727041Y-68168849D01*
X164830858Y-68015730D01*
X164899331Y-67843875D01*
X164929260Y-67661317D01*
X164924238Y-67568685D01*
X174795740Y-67568685D01*
X174805754Y-67753407D01*
X174855245Y-67931658D01*
X174941899Y-68095103D01*
X175061663Y-68236100D01*
X175208936Y-68348055D01*
X175376830Y-68425731D01*
X175376831Y-68425731D01*
X175376833Y-68425732D01*
X175557503Y-68465500D01*
X175996113Y-68465500D01*
X175996115Y-68465500D01*
X176065011Y-68458007D01*
X176133910Y-68450514D01*
X176309221Y-68391444D01*
X176467736Y-68296070D01*
X176602041Y-68168849D01*
X176699051Y-68025768D01*
X176746588Y-67984268D01*
X176808396Y-67971538D01*
X176868465Y-67990875D01*
X176911239Y-68037272D01*
X176941900Y-68095104D01*
X177061663Y-68236100D01*
X177208936Y-68348055D01*
X177376830Y-68425731D01*
X177376831Y-68425731D01*
X177376833Y-68425732D01*
X177557503Y-68465500D01*
X177996113Y-68465500D01*
X177996115Y-68465500D01*
X178065011Y-68458007D01*
X178133910Y-68450514D01*
X178309221Y-68391444D01*
X178467736Y-68296070D01*
X178602041Y-68168849D01*
X178699051Y-68025768D01*
X178746588Y-67984268D01*
X178808396Y-67971538D01*
X178868465Y-67990875D01*
X178911239Y-68037272D01*
X178941900Y-68095104D01*
X179061663Y-68236100D01*
X179208936Y-68348055D01*
X179376830Y-68425731D01*
X179376831Y-68425731D01*
X179376833Y-68425732D01*
X179557503Y-68465500D01*
X179996113Y-68465500D01*
X179996115Y-68465500D01*
X180065011Y-68458007D01*
X180133910Y-68450514D01*
X180309221Y-68391444D01*
X180467736Y-68296070D01*
X180602041Y-68168849D01*
X180705858Y-68015730D01*
X180774331Y-67843875D01*
X180804260Y-67661317D01*
X180794245Y-67476593D01*
X180744754Y-67298341D01*
X180658100Y-67134896D01*
X180538337Y-66993900D01*
X180538336Y-66993899D01*
X180391063Y-66881944D01*
X180223169Y-66804268D01*
X180042497Y-66764500D01*
X179603887Y-66764500D01*
X179603885Y-66764500D01*
X179466091Y-66779485D01*
X179290779Y-66838556D01*
X179132262Y-66933931D01*
X178997957Y-67061152D01*
X178900948Y-67204230D01*
X178853410Y-67245731D01*
X178791602Y-67258461D01*
X178731533Y-67239123D01*
X178688760Y-67192726D01*
X178658100Y-67134896D01*
X178538336Y-66993899D01*
X178391063Y-66881944D01*
X178223169Y-66804268D01*
X178042497Y-66764500D01*
X177603887Y-66764500D01*
X177603885Y-66764500D01*
X177466091Y-66779485D01*
X177290779Y-66838556D01*
X177132262Y-66933931D01*
X176997957Y-67061152D01*
X176900948Y-67204230D01*
X176853410Y-67245731D01*
X176791602Y-67258461D01*
X176731533Y-67239123D01*
X176688760Y-67192726D01*
X176658100Y-67134896D01*
X176538336Y-66993899D01*
X176391063Y-66881944D01*
X176223169Y-66804268D01*
X176042497Y-66764500D01*
X175603887Y-66764500D01*
X175603885Y-66764500D01*
X175466091Y-66779485D01*
X175290779Y-66838556D01*
X175132262Y-66933931D01*
X174997960Y-67061149D01*
X174894140Y-67214272D01*
X174825669Y-67386121D01*
X174795740Y-67568685D01*
X164924238Y-67568685D01*
X164919245Y-67476593D01*
X164869754Y-67298341D01*
X164783100Y-67134896D01*
X164663337Y-66993900D01*
X164663336Y-66993899D01*
X164516063Y-66881944D01*
X164348169Y-66804268D01*
X164167497Y-66764500D01*
X163728887Y-66764500D01*
X163728885Y-66764500D01*
X163591091Y-66779485D01*
X163415779Y-66838556D01*
X163257262Y-66933931D01*
X163122960Y-67061149D01*
X163019140Y-67214272D01*
X162950669Y-67386121D01*
X162920740Y-67568685D01*
X160924238Y-67568685D01*
X160919245Y-67476593D01*
X160869754Y-67298341D01*
X160783100Y-67134896D01*
X160663337Y-66993900D01*
X160663336Y-66993899D01*
X160516063Y-66881944D01*
X160348169Y-66804268D01*
X160167497Y-66764500D01*
X159728887Y-66764500D01*
X159728885Y-66764500D01*
X159591091Y-66779485D01*
X159415779Y-66838556D01*
X159257262Y-66933931D01*
X159122960Y-67061149D01*
X159019140Y-67214272D01*
X158950669Y-67386121D01*
X158920740Y-67568685D01*
X154805500Y-67568685D01*
X154805500Y-65065000D01*
X159753742Y-65065000D01*
X159780770Y-65176410D01*
X159868039Y-65367505D01*
X159989892Y-65538621D01*
X160141933Y-65683592D01*
X160318655Y-65797166D01*
X160513685Y-65875244D01*
X160719962Y-65915000D01*
X161675000Y-65915000D01*
X161675000Y-65065000D01*
X162175000Y-65065000D01*
X162175000Y-65915000D01*
X163077399Y-65915000D01*
X163234125Y-65900034D01*
X163435687Y-65840850D01*
X163622412Y-65744587D01*
X163787538Y-65614730D01*
X163925111Y-65455963D01*
X164030146Y-65274036D01*
X164098856Y-65075511D01*
X164100368Y-65065000D01*
X175628742Y-65065000D01*
X175655770Y-65176410D01*
X175743039Y-65367505D01*
X175864892Y-65538621D01*
X176016933Y-65683592D01*
X176193655Y-65797166D01*
X176388685Y-65875244D01*
X176594962Y-65915000D01*
X177550000Y-65915000D01*
X177550000Y-65065000D01*
X178050000Y-65065000D01*
X178050000Y-65915000D01*
X178952399Y-65915000D01*
X179109125Y-65900034D01*
X179310687Y-65840850D01*
X179497412Y-65744587D01*
X179662538Y-65614730D01*
X179800111Y-65455963D01*
X179905146Y-65274036D01*
X179973856Y-65075511D01*
X179975368Y-65065000D01*
X178050000Y-65065000D01*
X177550000Y-65065000D01*
X175628742Y-65065000D01*
X164100368Y-65065000D01*
X162175000Y-65065000D01*
X161675000Y-65065000D01*
X159753742Y-65065000D01*
X154805500Y-65065000D01*
X154805500Y-64774875D01*
X154805882Y-64765146D01*
X154808501Y-64731873D01*
X154821633Y-64564999D01*
X159749631Y-64564999D01*
X159749632Y-64565000D01*
X161675000Y-64565000D01*
X161675000Y-63715000D01*
X162175000Y-63715000D01*
X162175000Y-64565000D01*
X164096257Y-64565000D01*
X164096257Y-64564999D01*
X175624631Y-64564999D01*
X175624632Y-64565000D01*
X177550000Y-64565000D01*
X177550000Y-63715000D01*
X176647601Y-63715000D01*
X176490874Y-63729965D01*
X176289312Y-63789149D01*
X176102587Y-63885412D01*
X175937461Y-64015269D01*
X175799888Y-64174036D01*
X175694853Y-64355963D01*
X175626143Y-64554488D01*
X175624631Y-64564999D01*
X164096257Y-64564999D01*
X164069229Y-64453589D01*
X163981960Y-64262494D01*
X163860107Y-64091378D01*
X163708066Y-63946407D01*
X163531344Y-63832833D01*
X163336314Y-63754755D01*
X163130038Y-63715000D01*
X162175000Y-63715000D01*
X161675000Y-63715000D01*
X160772601Y-63715000D01*
X160615874Y-63729965D01*
X160414312Y-63789149D01*
X160227587Y-63885412D01*
X160062461Y-64015269D01*
X159924888Y-64174036D01*
X159819853Y-64355963D01*
X159751143Y-64554488D01*
X159749631Y-64564999D01*
X154821633Y-64564999D01*
X154822026Y-64560009D01*
X154825068Y-64540803D01*
X154871965Y-64345464D01*
X154877971Y-64326979D01*
X154954848Y-64141380D01*
X154963681Y-64124047D01*
X154999485Y-64065622D01*
X155068637Y-63952776D01*
X155080073Y-63937037D01*
X155210531Y-63784290D01*
X155224290Y-63770531D01*
X155377037Y-63640073D01*
X155392778Y-63628636D01*
X155434599Y-63603008D01*
X155564050Y-63523679D01*
X155581380Y-63514848D01*
X155766979Y-63437971D01*
X155785464Y-63431965D01*
X155980803Y-63385068D01*
X156000009Y-63382026D01*
X156205146Y-63365881D01*
X156214875Y-63365500D01*
X156275892Y-63365500D01*
X177734108Y-63365500D01*
X177797586Y-63365500D01*
X177802395Y-63365592D01*
X178248637Y-63382914D01*
X178258203Y-63383659D01*
X178699355Y-63435237D01*
X178708856Y-63436724D01*
X178874806Y-63469326D01*
X178929378Y-63494992D01*
X178965388Y-63543367D01*
X178974319Y-63603008D01*
X178954058Y-63659809D01*
X178909398Y-63700335D01*
X178850902Y-63715000D01*
X178050000Y-63715000D01*
X178050000Y-64565000D01*
X179971257Y-64565000D01*
X179944229Y-64453589D01*
X179856960Y-64262494D01*
X179735107Y-64091378D01*
X179583066Y-63946407D01*
X179443923Y-63856984D01*
X179398313Y-63804496D01*
X179388128Y-63735711D01*
X179416570Y-63672258D01*
X179474695Y-63634091D01*
X179544224Y-63633214D01*
X179581913Y-63643709D01*
X179591036Y-63646635D01*
X180008411Y-63798598D01*
X180017291Y-63802227D01*
X180421621Y-63986080D01*
X180430187Y-63990383D01*
X180819064Y-64205035D01*
X180827274Y-64209992D01*
X181198329Y-64454133D01*
X181206141Y-64459719D01*
X181557148Y-64731884D01*
X181564476Y-64738035D01*
X181893352Y-65036607D01*
X181900211Y-65043338D01*
X182204921Y-65366474D01*
X182211243Y-65373723D01*
X182489994Y-65719513D01*
X182495736Y-65727230D01*
X182746832Y-66093568D01*
X182751959Y-66101707D01*
X182973915Y-66486431D01*
X182978395Y-66494943D01*
X183126173Y-66804268D01*
X183169850Y-66895690D01*
X183173657Y-66904524D01*
X183234064Y-67061152D01*
X183325540Y-67298341D01*
X183333478Y-67318922D01*
X183336589Y-67328025D01*
X183463807Y-67753571D01*
X183466202Y-67762887D01*
X183560047Y-68196989D01*
X183561714Y-68206463D01*
X183621628Y-68646554D01*
X183622555Y-68656128D01*
X183648175Y-69099535D01*
X183648357Y-69109153D01*
X183639529Y-69553223D01*
X183638964Y-69562825D01*
X183595743Y-70004839D01*
X183594437Y-70014369D01*
X183517076Y-70451741D01*
X183515034Y-70461142D01*
X183414136Y-70851946D01*
X183405543Y-70875265D01*
X171652899Y-94994176D01*
X171644911Y-95008178D01*
X171631021Y-95029216D01*
X171623201Y-95052676D01*
X171620792Y-95058578D01*
X171611493Y-95087543D01*
X171608212Y-95096549D01*
X171537796Y-95268841D01*
X171530594Y-95283591D01*
X171439540Y-95442452D01*
X171430453Y-95456122D01*
X171319209Y-95601571D01*
X171308396Y-95613920D01*
X171178920Y-95743396D01*
X171166571Y-95754209D01*
X171021122Y-95865453D01*
X171007452Y-95874540D01*
X170848593Y-95965593D01*
X170833844Y-95972795D01*
X170742122Y-96010283D01*
X170695209Y-96019500D01*
X154137310Y-96019500D01*
X154089857Y-96010061D01*
X154049629Y-95983181D01*
X152400000Y-94333553D01*
X150750370Y-95983181D01*
X150710142Y-96010061D01*
X150662689Y-96019500D01*
X92714875Y-96019500D01*
X92705146Y-96019118D01*
X92500015Y-96002973D01*
X92480797Y-95999929D01*
X92285475Y-95953037D01*
X92266969Y-95947024D01*
X92081384Y-95870152D01*
X92064047Y-95861318D01*
X91892778Y-95756363D01*
X91877037Y-95744926D01*
X91724290Y-95614468D01*
X91710531Y-95600709D01*
X91580073Y-95447962D01*
X91568636Y-95432221D01*
X91463681Y-95260952D01*
X91454847Y-95243615D01*
X91441296Y-95210901D01*
X91377973Y-95058024D01*
X91371964Y-95039531D01*
X91325069Y-94844197D01*
X91322026Y-94824984D01*
X91316951Y-94760506D01*
X91305881Y-94619853D01*
X91305500Y-94610125D01*
X91305500Y-94165862D01*
X91314939Y-94118409D01*
X91341819Y-94078181D01*
X91341819Y-94078180D01*
X91721704Y-93698295D01*
X91776083Y-93666534D01*
X91839056Y-93665582D01*
X91894373Y-93695689D01*
X91927766Y-93749088D01*
X91932633Y-93764707D01*
X91934179Y-93767265D01*
X91934181Y-93767265D01*
X92991446Y-92710000D01*
X93698551Y-92710000D01*
X92287732Y-94120818D01*
X92290296Y-94122368D01*
X92454440Y-94173517D01*
X92525773Y-94179999D01*
X101784228Y-94179999D01*
X101855556Y-94173518D01*
X102019704Y-94122367D01*
X102022265Y-94120818D01*
X100611447Y-92710000D01*
X101318553Y-92710000D01*
X102375818Y-93767265D01*
X102377366Y-93764706D01*
X102382232Y-93749092D01*
X102415623Y-93695692D01*
X102470941Y-93665584D01*
X102533915Y-93666534D01*
X102588299Y-93698299D01*
X104140000Y-95250000D01*
X120015000Y-95250000D01*
X121285000Y-93980000D01*
X149844957Y-93980000D01*
X149865104Y-94300227D01*
X149925229Y-94615416D01*
X150024380Y-94920569D01*
X150161003Y-95210907D01*
X150332927Y-95481814D01*
X150428773Y-95597673D01*
X152046447Y-93980000D01*
X152753553Y-93980000D01*
X154371225Y-95597673D01*
X154467068Y-95481821D01*
X154638999Y-95210901D01*
X154775619Y-94920569D01*
X154874770Y-94615416D01*
X154934895Y-94300227D01*
X154955042Y-93980000D01*
X154934895Y-93659772D01*
X154874770Y-93344583D01*
X154775619Y-93039430D01*
X154638996Y-92749092D01*
X154467072Y-92478185D01*
X154371225Y-92362325D01*
X152753553Y-93980000D01*
X152046447Y-93980000D01*
X150428773Y-92362325D01*
X150428772Y-92362325D01*
X150332930Y-92478180D01*
X150161000Y-92749098D01*
X150024380Y-93039430D01*
X149925229Y-93344583D01*
X149865104Y-93659772D01*
X149844957Y-93980000D01*
X121285000Y-93980000D01*
X122555000Y-92710000D01*
X122555000Y-92251999D01*
X122896317Y-92251999D01*
X122916956Y-92408762D01*
X122977463Y-92554840D01*
X123073717Y-92680282D01*
X123112447Y-92710000D01*
X123199159Y-92776536D01*
X123345238Y-92837044D01*
X123502000Y-92857682D01*
X123658762Y-92837044D01*
X123804841Y-92776536D01*
X123930282Y-92680282D01*
X124026536Y-92554841D01*
X124087044Y-92408762D01*
X124107682Y-92252000D01*
X124107682Y-92251999D01*
X124489317Y-92251999D01*
X124509956Y-92408762D01*
X124570463Y-92554840D01*
X124666717Y-92680282D01*
X124705447Y-92710000D01*
X124792159Y-92776536D01*
X124938238Y-92837044D01*
X125095000Y-92857682D01*
X125251762Y-92837044D01*
X125397841Y-92776536D01*
X125523282Y-92680282D01*
X125619536Y-92554841D01*
X125680044Y-92408762D01*
X125700682Y-92252000D01*
X125680044Y-92095238D01*
X125642924Y-92005623D01*
X150779175Y-92005623D01*
X152400000Y-93626447D01*
X152400001Y-93626447D01*
X154020823Y-92005623D01*
X154020822Y-92005621D01*
X153769060Y-91822706D01*
X153487882Y-91668128D01*
X153189553Y-91550011D01*
X152878766Y-91470215D01*
X152560434Y-91430000D01*
X152239566Y-91430000D01*
X151921233Y-91470215D01*
X151610446Y-91550011D01*
X151312117Y-91668128D01*
X151030939Y-91822706D01*
X150779176Y-92005622D01*
X150779175Y-92005623D01*
X125642924Y-92005623D01*
X125619536Y-91949159D01*
X125523282Y-91823718D01*
X125444013Y-91762893D01*
X125408288Y-91719362D01*
X125395500Y-91664518D01*
X125395500Y-91615833D01*
X125404939Y-91568380D01*
X125431819Y-91528152D01*
X128993153Y-87966819D01*
X129033381Y-87939939D01*
X129080834Y-87930500D01*
X146097518Y-87930500D01*
X146152362Y-87943288D01*
X146195893Y-87979013D01*
X146256718Y-88058282D01*
X146382159Y-88154536D01*
X146528238Y-88215044D01*
X146685000Y-88235682D01*
X146841762Y-88215044D01*
X146987841Y-88154536D01*
X147113282Y-88058282D01*
X147209536Y-87932841D01*
X147270044Y-87786762D01*
X147290682Y-87630000D01*
X147290682Y-87629999D01*
X155604317Y-87629999D01*
X155624956Y-87786762D01*
X155685463Y-87932840D01*
X155781717Y-88058282D01*
X155907158Y-88154535D01*
X155907159Y-88154536D01*
X156053238Y-88215044D01*
X156210000Y-88235682D01*
X156366762Y-88215044D01*
X156512841Y-88154536D01*
X156638282Y-88058282D01*
X156734536Y-87932841D01*
X156754865Y-87883762D01*
X156770470Y-87856490D01*
X156770900Y-87855919D01*
X156770902Y-87855919D01*
X156787002Y-87834597D01*
X156798263Y-87821656D01*
X173718101Y-70901819D01*
X173758330Y-70874939D01*
X173805783Y-70865500D01*
X175896724Y-70865500D01*
X175960653Y-70883250D01*
X176006279Y-70931417D01*
X176020542Y-70996213D01*
X175999358Y-71059087D01*
X175894140Y-71214271D01*
X175825669Y-71386121D01*
X175795740Y-71568685D01*
X175805754Y-71753407D01*
X175855245Y-71931658D01*
X175941899Y-72095103D01*
X176061663Y-72236100D01*
X176208936Y-72348055D01*
X176376830Y-72425731D01*
X176376831Y-72425731D01*
X176376833Y-72425732D01*
X176557503Y-72465500D01*
X176996113Y-72465500D01*
X176996115Y-72465500D01*
X177065011Y-72458006D01*
X177133910Y-72450514D01*
X177309221Y-72391444D01*
X177467736Y-72296070D01*
X177590224Y-72180042D01*
X177639746Y-72151332D01*
X177696885Y-72147923D01*
X177749468Y-72170542D01*
X177786288Y-72214369D01*
X177799500Y-72270065D01*
X177799500Y-72284749D01*
X177811132Y-72343230D01*
X177855447Y-72409552D01*
X177921769Y-72453867D01*
X177980251Y-72465500D01*
X177980252Y-72465500D01*
X179619748Y-72465500D01*
X179619749Y-72465500D01*
X179651742Y-72459136D01*
X179678231Y-72453867D01*
X179744552Y-72409552D01*
X179788867Y-72343231D01*
X179798248Y-72296069D01*
X179800500Y-72284749D01*
X179800500Y-70945251D01*
X179788867Y-70886769D01*
X179744552Y-70820447D01*
X179678230Y-70776132D01*
X179619749Y-70764500D01*
X179619748Y-70764500D01*
X177980252Y-70764500D01*
X177980251Y-70764500D01*
X177921769Y-70776132D01*
X177855447Y-70820447D01*
X177811132Y-70886769D01*
X177799500Y-70945251D01*
X177799500Y-70963841D01*
X177785056Y-71021924D01*
X177745087Y-71066474D01*
X177688907Y-71087114D01*
X177629603Y-71079034D01*
X177580992Y-71044117D01*
X177538336Y-70993899D01*
X177391629Y-70882375D01*
X177350277Y-70826421D01*
X177345570Y-70757004D01*
X177378988Y-70695981D01*
X177660031Y-70414938D01*
X177701813Y-70387428D01*
X177751068Y-70378666D01*
X177799777Y-70390082D01*
X177876832Y-70425732D01*
X178057503Y-70465500D01*
X178496113Y-70465500D01*
X178496115Y-70465500D01*
X178579080Y-70456477D01*
X178633910Y-70450514D01*
X178809221Y-70391444D01*
X178967736Y-70296070D01*
X179102041Y-70168849D01*
X179199369Y-70025299D01*
X179246907Y-69983800D01*
X179308715Y-69971070D01*
X179368785Y-69990408D01*
X179411558Y-70036806D01*
X179442314Y-70094820D01*
X179562012Y-70235737D01*
X179709195Y-70347624D01*
X179876990Y-70425254D01*
X180050000Y-70463337D01*
X180050000Y-69865000D01*
X180550000Y-69865000D01*
X180550000Y-70459136D01*
X180633801Y-70450022D01*
X180809009Y-70390988D01*
X180967431Y-70295669D01*
X181101655Y-70168524D01*
X181205413Y-70015492D01*
X181265376Y-69865000D01*
X180550000Y-69865000D01*
X180050000Y-69865000D01*
X180050000Y-68770863D01*
X179966198Y-68779977D01*
X179790990Y-68839011D01*
X179632568Y-68934330D01*
X179498341Y-69061478D01*
X179401213Y-69204731D01*
X179353674Y-69246232D01*
X179291867Y-69258962D01*
X179231797Y-69239624D01*
X179189027Y-69193230D01*
X179158100Y-69134896D01*
X179038337Y-68993900D01*
X179038336Y-68993899D01*
X178891063Y-68881944D01*
X178723169Y-68804268D01*
X178552319Y-68766662D01*
X180549999Y-68766662D01*
X180550000Y-68766663D01*
X180550000Y-69365000D01*
X181262742Y-69365000D01*
X181262742Y-69364999D01*
X181244285Y-69298527D01*
X181157685Y-69135179D01*
X181037987Y-68994262D01*
X180890804Y-68882375D01*
X180723009Y-68804745D01*
X180549999Y-68766662D01*
X178552319Y-68766662D01*
X178542497Y-68764500D01*
X178103887Y-68764500D01*
X178103885Y-68764500D01*
X177966091Y-68779485D01*
X177790779Y-68838556D01*
X177632262Y-68933931D01*
X177497960Y-69061149D01*
X177394140Y-69214272D01*
X177325669Y-69386121D01*
X177310837Y-69476593D01*
X177296701Y-69562825D01*
X177295740Y-69568685D01*
X177305754Y-69753405D01*
X177322447Y-69813527D01*
X177322884Y-69878252D01*
X177290647Y-69934380D01*
X176996845Y-70228183D01*
X176956620Y-70255061D01*
X176909167Y-70264500D01*
X176271077Y-70264500D01*
X176207148Y-70246750D01*
X176161522Y-70198583D01*
X176147259Y-70133787D01*
X176168444Y-70070913D01*
X176205858Y-70015731D01*
X176274330Y-69843878D01*
X176274330Y-69843877D01*
X176274331Y-69843875D01*
X176304260Y-69661317D01*
X176294245Y-69476593D01*
X176268934Y-69385432D01*
X176244754Y-69298341D01*
X176158100Y-69134896D01*
X176038336Y-68993899D01*
X175891063Y-68881944D01*
X175723169Y-68804268D01*
X175542497Y-68764500D01*
X175103887Y-68764500D01*
X175103885Y-68764500D01*
X174966091Y-68779485D01*
X174790779Y-68838556D01*
X174632262Y-68933931D01*
X174497960Y-69061149D01*
X174394141Y-69214271D01*
X174385325Y-69236398D01*
X174358601Y-69277386D01*
X174318101Y-69304846D01*
X174270132Y-69314500D01*
X171754244Y-69314500D01*
X171737423Y-69311756D01*
X171694309Y-69313749D01*
X171680920Y-69314368D01*
X171675196Y-69314500D01*
X171656183Y-69314500D01*
X171641695Y-69316181D01*
X171615005Y-69317415D01*
X171608666Y-69320214D01*
X171581379Y-69328664D01*
X171574568Y-69329937D01*
X171551856Y-69343999D01*
X171536673Y-69352002D01*
X171512234Y-69362793D01*
X171507337Y-69367691D01*
X171484940Y-69385432D01*
X171479047Y-69389081D01*
X171462950Y-69410396D01*
X171451679Y-69423348D01*
X156412926Y-84462101D01*
X156365104Y-84491839D01*
X156309060Y-84497359D01*
X156210000Y-84484317D01*
X156053237Y-84504956D01*
X155907159Y-84565463D01*
X155781717Y-84661717D01*
X155685463Y-84787159D01*
X155624956Y-84933237D01*
X155604317Y-85089999D01*
X155624956Y-85246762D01*
X155685463Y-85392840D01*
X155781717Y-85518282D01*
X155907158Y-85614535D01*
X155907159Y-85614536D01*
X156053238Y-85675044D01*
X156210000Y-85695682D01*
X156366762Y-85675044D01*
X156512841Y-85614536D01*
X156638282Y-85518282D01*
X156734536Y-85392841D01*
X156795044Y-85246762D01*
X156815682Y-85090000D01*
X156802640Y-84990936D01*
X156808160Y-84934894D01*
X156837896Y-84887073D01*
X171773151Y-69951819D01*
X171813380Y-69924939D01*
X171860833Y-69915500D01*
X174272071Y-69915500D01*
X174335999Y-69933249D01*
X174381625Y-69981415D01*
X174435174Y-70082418D01*
X174449574Y-70143857D01*
X174431870Y-70204428D01*
X174386647Y-70248442D01*
X174325619Y-70264500D01*
X173699193Y-70264500D01*
X173682372Y-70261756D01*
X173639258Y-70263749D01*
X173625869Y-70264368D01*
X173620145Y-70264500D01*
X173601133Y-70264500D01*
X173586645Y-70266181D01*
X173559956Y-70267415D01*
X173553612Y-70270216D01*
X173526332Y-70278664D01*
X173519515Y-70279938D01*
X173496805Y-70293999D01*
X173481622Y-70302002D01*
X173457182Y-70312793D01*
X173452281Y-70317695D01*
X173429887Y-70335434D01*
X173423998Y-70339080D01*
X173407903Y-70360393D01*
X173396632Y-70373344D01*
X156675556Y-87094421D01*
X156625164Y-87125000D01*
X156566346Y-87128857D01*
X156518560Y-87107832D01*
X156366762Y-87044956D01*
X156210000Y-87024317D01*
X156053237Y-87044956D01*
X155907159Y-87105463D01*
X155781717Y-87201717D01*
X155685463Y-87327159D01*
X155624956Y-87473237D01*
X155604317Y-87629999D01*
X147290682Y-87629999D01*
X147270044Y-87473238D01*
X147209536Y-87327159D01*
X147201520Y-87316712D01*
X147113282Y-87201717D01*
X146987840Y-87105463D01*
X146841762Y-87044956D01*
X146685000Y-87024317D01*
X146528237Y-87044956D01*
X146382159Y-87105463D01*
X146256718Y-87201717D01*
X146195894Y-87280986D01*
X146152362Y-87316712D01*
X146097518Y-87329500D01*
X128974244Y-87329500D01*
X128957423Y-87326756D01*
X128914309Y-87328749D01*
X128900920Y-87329368D01*
X128895196Y-87329500D01*
X128876183Y-87329500D01*
X128861695Y-87331181D01*
X128835005Y-87332415D01*
X128828666Y-87335214D01*
X128801379Y-87343664D01*
X128794568Y-87344937D01*
X128771856Y-87358999D01*
X128756673Y-87367002D01*
X128732234Y-87377793D01*
X128727337Y-87382691D01*
X128704940Y-87400432D01*
X128699047Y-87404081D01*
X128682950Y-87425396D01*
X128671679Y-87438348D01*
X124931475Y-91178552D01*
X124917639Y-91188508D01*
X124879523Y-91230318D01*
X124875573Y-91234454D01*
X124862141Y-91247886D01*
X124853087Y-91259317D01*
X124835083Y-91279067D01*
X124832578Y-91285534D01*
X124819259Y-91310802D01*
X124815343Y-91316518D01*
X124809228Y-91342517D01*
X124804151Y-91358913D01*
X124794500Y-91383827D01*
X124794500Y-91390751D01*
X124791206Y-91419144D01*
X124789621Y-91425881D01*
X124793311Y-91452332D01*
X124794500Y-91469465D01*
X124794500Y-91664518D01*
X124781712Y-91719362D01*
X124745986Y-91762894D01*
X124666717Y-91823718D01*
X124570463Y-91949159D01*
X124509956Y-92095237D01*
X124489317Y-92251999D01*
X124107682Y-92251999D01*
X124087044Y-92095238D01*
X124026536Y-91949159D01*
X123930282Y-91823718D01*
X123851013Y-91762893D01*
X123815288Y-91719362D01*
X123802500Y-91664518D01*
X123802500Y-90668833D01*
X123811939Y-90621380D01*
X123838819Y-90581152D01*
X128993152Y-85426819D01*
X129033380Y-85399939D01*
X129080833Y-85390500D01*
X146097518Y-85390500D01*
X146152362Y-85403288D01*
X146195893Y-85439013D01*
X146256718Y-85518282D01*
X146382159Y-85614536D01*
X146528238Y-85675044D01*
X146685000Y-85695682D01*
X146841762Y-85675044D01*
X146987841Y-85614536D01*
X147113282Y-85518282D01*
X147209536Y-85392841D01*
X147270044Y-85246762D01*
X147290682Y-85090000D01*
X147270044Y-84933238D01*
X147209536Y-84787159D01*
X147201520Y-84776712D01*
X147113282Y-84661717D01*
X146987840Y-84565463D01*
X146841762Y-84504956D01*
X146685000Y-84484317D01*
X146528237Y-84504956D01*
X146382159Y-84565463D01*
X146256718Y-84661717D01*
X146195894Y-84740986D01*
X146152362Y-84776712D01*
X146097518Y-84789500D01*
X128974244Y-84789500D01*
X128957423Y-84786756D01*
X128914309Y-84788749D01*
X128900920Y-84789368D01*
X128895196Y-84789500D01*
X128876183Y-84789500D01*
X128861695Y-84791181D01*
X128835005Y-84792415D01*
X128828666Y-84795214D01*
X128801379Y-84803664D01*
X128794568Y-84804937D01*
X128771856Y-84818999D01*
X128756673Y-84827002D01*
X128732234Y-84837793D01*
X128727337Y-84842691D01*
X128704940Y-84860432D01*
X128699047Y-84864081D01*
X128682950Y-84885396D01*
X128671679Y-84898348D01*
X123338475Y-90231552D01*
X123324639Y-90241508D01*
X123286523Y-90283318D01*
X123282573Y-90287454D01*
X123269141Y-90300886D01*
X123260087Y-90312317D01*
X123242083Y-90332067D01*
X123239578Y-90338534D01*
X123226259Y-90363802D01*
X123222343Y-90369518D01*
X123216228Y-90395517D01*
X123211151Y-90411913D01*
X123201500Y-90436827D01*
X123201500Y-90443751D01*
X123198206Y-90472144D01*
X123196621Y-90478881D01*
X123200311Y-90505332D01*
X123201500Y-90522465D01*
X123201500Y-91664518D01*
X123188712Y-91719362D01*
X123152986Y-91762894D01*
X123073717Y-91823718D01*
X122977463Y-91949159D01*
X122916956Y-92095237D01*
X122896317Y-92251999D01*
X122555000Y-92251999D01*
X122555000Y-68014375D01*
X132999175Y-68014375D01*
X132999176Y-68014377D01*
X133250939Y-68197293D01*
X133532117Y-68351871D01*
X133830446Y-68469988D01*
X134141233Y-68549784D01*
X134459566Y-68590000D01*
X134780434Y-68590000D01*
X135098766Y-68549784D01*
X135409553Y-68469988D01*
X135707882Y-68351871D01*
X135989056Y-68197295D01*
X136240822Y-68014375D01*
X136240823Y-68014375D01*
X134620000Y-66393553D01*
X132999175Y-68014375D01*
X122555000Y-68014375D01*
X122555000Y-66040000D01*
X132064957Y-66040000D01*
X132085104Y-66360227D01*
X132145229Y-66675416D01*
X132244380Y-66980569D01*
X132381003Y-67270907D01*
X132552927Y-67541814D01*
X132648773Y-67657673D01*
X134266447Y-66040000D01*
X134973553Y-66040000D01*
X136591225Y-67657673D01*
X136687068Y-67541821D01*
X136858999Y-67270901D01*
X136995619Y-66980569D01*
X137094770Y-66675416D01*
X137154895Y-66360227D01*
X137175042Y-66040000D01*
X137154895Y-65719772D01*
X137094770Y-65404583D01*
X136995619Y-65099430D01*
X136858996Y-64809092D01*
X136687072Y-64538185D01*
X136591225Y-64422325D01*
X134973553Y-66040000D01*
X134266447Y-66040000D01*
X132648773Y-64422325D01*
X132648772Y-64422325D01*
X132552930Y-64538180D01*
X132381000Y-64809098D01*
X132244380Y-65099430D01*
X132145229Y-65404583D01*
X132085104Y-65719772D01*
X132064957Y-66040000D01*
X122555000Y-66040000D01*
X122555000Y-63489500D01*
X122571613Y-63427500D01*
X122617000Y-63382113D01*
X122679000Y-63365500D01*
X133801196Y-63365500D01*
X133858645Y-63379611D01*
G37*
%TD.AperFunction*%
%TD*%
M02*
