M48
; DRILL file {KiCad 7.0.1-0} date 2023 May 23, Tuesday 01:00:35
; FORMAT={-:-/ absolute / inch / decimal}
; #@! TF.CreationDate,2023-05-23T01:00:35+08:00
; #@! TF.GenerationSoftware,Kicad,Pcbnew,7.0.1-0
; #@! TF.FileFunction,Plated,1,2,PTH
FMAT,2
INCH
; #@! TA.AperFunction,Plated,PTH,ViaDrill
T1C0.0118
; #@! TA.AperFunction,Plated,PTH,ViaDrill
T2C0.0157
; #@! TA.AperFunction,Plated,PTH,ComponentDrill
T3C0.0315
; #@! TA.AperFunction,Plated,PTH,ComponentDrill
T4C0.0354
; #@! TA.AperFunction,Plated,PTH,ComponentDrill
T5C0.1063
; #@! TA.AperFunction,Plated,PTH,ComponentDrill
T6C0.3543
%
G90
G05
T1
X4.875Y-2.975
T2
X4.85Y-3.75
X4.8623Y-3.632
X4.875Y-2.525
X4.875Y-2.675
X4.875Y-2.825
X4.875Y-3.25
X4.875Y-3.5
X4.925Y-3.55
X4.925Y-3.632
X4.975Y-2.775
X4.975Y-3.25
X4.975Y-3.4
X5.0Y-2.525
X5.0Y-3.75
X5.025Y-3.45
X5.025Y-3.575
X5.05Y-3.325
X5.075Y-2.775
X5.1Y-3.5
X5.125Y-2.525
X5.125Y-3.25
X5.125Y-3.4
X5.15Y-3.025
X5.175Y-2.825
X5.2Y-3.3
X5.2Y-3.5
X5.225Y-3.2
X5.25Y-3.75
X5.275Y-3.4
X5.325Y-3.2
X5.325Y-3.3
X5.35Y-3.5
X5.4Y-3.4
X5.425Y-3.2
X5.45Y-2.55
X5.45Y-2.675
X5.45Y-3.3
X5.45Y-3.75
X5.475Y-2.875
X5.475Y-3.5
X5.5Y-3.0
X5.5Y-3.6
X5.525Y-3.2
X5.525Y-3.4
X5.55Y-3.1
X5.575Y-3.3
X5.575Y-3.5
X5.675Y-3.175
X5.7Y-3.3
X5.7Y-3.4
X5.7Y-3.5
X5.7Y-3.757
X5.775Y-3.35
X5.775Y-3.4
X5.775Y-3.45
X5.85Y-3.5225
X5.85Y-3.6
X5.95Y-3.3
X5.95Y-3.4
X5.95Y-3.5
X6.0Y-3.0
X6.0Y-3.25
X6.075Y-3.5
X6.1Y-3.25
X6.125Y-2.675
X6.125Y-2.85
X6.15Y-2.55
X6.15Y-3.0
X6.15Y-3.35
X6.15Y-3.45
X6.15Y-3.6
X6.175Y-3.125
X6.175Y-3.2
X6.175Y-3.3
X6.175Y-3.4
X6.175Y-3.5
X6.25Y-2.975
X6.25Y-3.375
X6.275Y-3.075
X6.275Y-3.25
X6.275Y-3.725
X6.3Y-3.425
X6.325Y-3.3
X6.35Y-3.175
X6.375Y-2.725
X6.375Y-2.975
X6.375Y-3.075
X6.375Y-3.35
X6.4Y-3.225
X6.45Y-3.075
X6.45Y-3.275
X6.475Y-2.975
X6.5Y-3.125
X6.55Y-2.9
X6.55Y-2.975
X6.55Y-3.175
X6.6Y-3.025
X6.625Y-2.55
X6.625Y-2.775
X6.625Y-3.2
X6.625Y-3.35
X6.65Y-2.875
X6.65Y-3.075
X6.675Y-3.725
X6.7Y-2.925
X6.725Y-3.0
X6.75Y-2.55
X6.75Y-2.775
X6.75Y-3.65
X6.775Y-2.85
X6.825Y-2.9
X6.825Y-3.5
X6.9Y-3.35
X6.95Y-3.0
X6.975Y-3.2
X7.05Y-3.05
X7.1Y-2.95
X7.175Y-2.625
X7.175Y-2.825
X7.2Y-2.725
T5
X5.3Y-2.6
X6.0Y-3.7
T6
X3.825Y-3.5
T3
G00X6.3278Y-2.5518
M15
G01X6.4222Y-2.5518
M16
G05
G00X6.9543Y-2.5518
M15
G01X7.0488Y-2.5518
M16
G05
T4
G00X6.2707Y-2.7407
M15
G01X6.2825Y-2.7407
M16
G05
G00X6.2904Y-2.662
M15
G01X6.3022Y-2.662
M16
G05
G00X6.3297Y-2.8195
M15
G01X6.3415Y-2.8195
M16
G05
G00X6.4085Y-2.8195
M15
G01X6.4203Y-2.8195
M16
G05
G00X6.4478Y-2.662
M15
G01X6.4596Y-2.662
M16
G05
G00X6.4675Y-2.7407
M15
G01X6.4793Y-2.7407
M16
G05
G00X6.8972Y-2.7407
M15
G01X6.9091Y-2.7407
M16
G05
G00X6.9169Y-2.662
M15
G01X6.9287Y-2.662
M16
G05
G00X6.9563Y-2.8195
M15
G01X6.9681Y-2.8195
M16
G05
G00X6.9957Y-2.662
M15
G01X7.0075Y-2.662
M16
G05
G00X7.0154Y-2.7407
M15
G01X7.0272Y-2.7407
M16
G05
G00X7.035Y-2.8195
M15
G01X7.0469Y-2.8195
M16
G05
G00X7.0744Y-2.662
M15
G01X7.0862Y-2.662
M16
G05
G00X7.0941Y-2.7407
M15
G01X7.1059Y-2.7407
M16
G05
T0
M30
